<?xml version="1.0" encoding="UTF-8"?>
<svg width="780px" height="172px" viewBox="0 0 780 172" version="1.1" xmlns="http://www.w3.org/2000/svg" xmlns:xlink="http://www.w3.org/1999/xlink">
    <!-- Generator: Sketch 49.3 (51167) - http://www.bohemiancoding.com/sketch -->
    <title>Image / CostCut</title>
    <desc>Created with Sketch.</desc>
    <defs></defs>
    <g id="Portfolio" stroke="none" stroke-width="1" fill="none" fill-rule="evenodd">
        <g id="Relationships" transform="translate(-330.000000, -9046.000000)">
            <g id="Image-/-CostCut" transform="translate(330.000000, 9046.000000)">
                <rect id="Rectangle-4" fill="#FFFFFF" x="0" y="0" width="780" height="172"></rect>
                <path d="M2.124,114.98 L5.202,114.98 L5.202,116.24 L2.124,116.24 L2.124,120.722 L5.904,120.722 L5.904,122 L0.72,122 L0.72,109.4 L5.904,109.4 L5.904,110.678 L2.124,110.678 L2.124,114.98 Z M13.204,122 L8.2,122 L8.2,109.4 L9.604,109.4 L9.604,120.722 L13.204,120.722 L13.204,122 Z M15.266,109.4 L16.67,109.4 L16.67,122 L15.266,122 L15.266,109.4 Z M25.752,111.866 L23.754,121.982 L22.404,121.982 L20.316,111.956 L20.316,122 L19.092,122 L19.092,109.4 L21.054,109.4 L23.124,119.462 L25.122,109.4 L27.084,109.4 L27.084,122 L25.752,122 L25.752,111.866 Z M29.524,109.4 L30.928,109.4 L30.928,122 L29.524,122 L29.524,109.4 Z M34.61,111.812 L34.61,122 L33.35,122 L33.35,109.4 L35.132,109.4 L38.048,118.508 L38.048,109.4 L39.29,109.4 L39.29,122 L37.832,122 L34.61,111.812 Z M46.338,119.462 L43.152,119.462 L42.666,122 L41.37,122 L43.782,109.4 L45.816,109.4 L48.228,122 L46.824,122 L46.338,119.462 Z M44.718,110.984 L43.332,118.256 L46.14,118.256 L44.718,110.984 Z M52.846,122 L51.46,122 L51.46,110.678 L49.138,110.678 L49.138,109.4 L55.168,109.4 L55.168,110.678 L52.846,110.678 L52.846,122 Z M58.526,114.98 L61.604,114.98 L61.604,116.24 L58.526,116.24 L58.526,120.722 L62.306,120.722 L62.306,122 L57.122,122 L57.122,109.4 L62.306,109.4 L62.306,110.678 L58.526,110.678 L58.526,114.98 Z M64.602,109.4 L67.554,109.4 C69.516,109.4 70.416,110.588 70.416,112.532 L70.416,118.886 C70.416,120.812 69.516,122 67.554,122 L64.602,122 L64.602,109.4 Z M66.006,120.722 L67.536,120.722 C68.544,120.722 69.03,120.092 69.03,118.94 L69.03,112.46 C69.03,111.308 68.544,110.678 67.518,110.678 L66.006,110.678 L66.006,120.722 Z M79.724,122 L78.338,122 L78.338,110.678 L76.016,110.678 L76.016,109.4 L82.046,109.4 L82.046,110.678 L79.724,110.678 L79.724,122 Z M85.404,114.98 L88.482,114.98 L88.482,116.24 L85.404,116.24 L85.404,120.722 L89.184,120.722 L89.184,122 L84,122 L84,109.4 L89.184,109.4 L89.184,110.678 L85.404,110.678 L85.404,114.98 Z M91.48,109.4 L94.432,109.4 C96.394,109.4 97.294,110.588 97.294,112.532 L97.294,118.886 C97.294,120.812 96.394,122 94.432,122 L91.48,122 L91.48,109.4 Z M92.884,120.722 L94.414,120.722 C95.422,120.722 95.908,120.092 95.908,118.94 L95.908,112.46 C95.908,111.308 95.422,110.678 94.396,110.678 L92.884,110.678 L92.884,120.722 Z M99.608,109.4 L101.012,109.4 L101.012,122 L99.608,122 L99.608,109.4 Z M103.344,118.958 L103.344,112.442 C103.344,110.516 104.298,109.274 106.224,109.274 C108.168,109.274 109.122,110.516 109.122,112.442 L109.122,118.958 C109.122,120.866 108.168,122.126 106.224,122.126 C104.298,122.126 103.344,120.866 103.344,118.958 Z M104.73,112.37 L104.73,119.03 C104.73,120.182 105.216,120.848 106.224,120.848 C107.25,120.848 107.718,120.182 107.718,119.03 L107.718,112.37 C107.718,111.236 107.25,110.552 106.224,110.552 C105.216,110.552 104.73,111.236 104.73,112.37 Z M112.786,109.4 L112.786,119.03 C112.786,120.164 113.236,120.848 114.262,120.848 C115.27,120.848 115.72,120.164 115.72,119.03 L115.72,109.4 L117.034,109.4 L117.034,118.958 C117.034,120.866 116.152,122.144 114.208,122.144 C112.282,122.144 111.4,120.866 111.4,118.958 L111.4,109.4 L112.786,109.4 Z M122.066,109.274 C123.974,109.274 124.874,110.516 124.874,112.424 L124.874,112.766 L123.542,112.766 L123.542,112.352 C123.542,111.218 123.11,110.552 122.102,110.552 C121.094,110.552 120.662,111.218 120.662,112.334 C120.662,115.16 124.892,115.43 124.892,118.976 C124.892,120.884 123.974,122.126 122.048,122.126 C120.122,122.126 119.222,120.884 119.222,118.976 L119.222,118.256 L120.536,118.256 L120.536,119.048 C120.536,120.182 121.004,120.848 122.012,120.848 C123.02,120.848 123.488,120.182 123.488,119.048 C123.488,116.24 119.276,115.97 119.276,112.424 C119.276,110.48 120.176,109.274 122.066,109.274 Z M134.11,122 L132.724,122 L132.724,110.678 L130.402,110.678 L130.402,109.4 L136.432,109.4 L136.432,110.678 L134.11,110.678 L134.11,122 Z M139.79,114.98 L142.868,114.98 L142.868,116.24 L139.79,116.24 L139.79,120.722 L143.57,120.722 L143.57,122 L138.386,122 L138.386,109.4 L143.57,109.4 L143.57,110.678 L139.79,110.678 L139.79,114.98 Z M150.87,122 L145.866,122 L145.866,109.4 L147.27,109.4 L147.27,120.722 L150.87,120.722 L150.87,122 Z M154.336,114.98 L157.414,114.98 L157.414,116.24 L154.336,116.24 L154.336,120.722 L158.116,120.722 L158.116,122 L152.932,122 L152.932,109.4 L158.116,109.4 L158.116,110.678 L154.336,110.678 L154.336,114.98 Z M160.412,109.4 L163.166,109.4 C165.146,109.4 165.992,110.57 165.992,112.478 L165.992,113.99 C165.992,115.988 165.056,117.032 163.058,117.032 L161.816,117.032 L161.816,122 L160.412,122 L160.412,109.4 Z M161.816,115.772 L163.058,115.772 C164.102,115.772 164.606,115.286 164.606,114.08 L164.606,112.406 C164.606,111.254 164.192,110.678 163.166,110.678 L161.816,110.678 L161.816,115.772 Z M172.59,116.33 L169.494,116.33 L169.494,122 L168.09,122 L168.09,109.4 L169.494,109.4 L169.494,115.07 L172.59,115.07 L172.59,109.4 L173.994,109.4 L173.994,122 L172.59,122 L172.59,116.33 Z M176.326,118.958 L176.326,112.442 C176.326,110.516 177.28,109.274 179.206,109.274 C181.15,109.274 182.104,110.516 182.104,112.442 L182.104,118.958 C182.104,120.866 181.15,122.126 179.206,122.126 C177.28,122.126 176.326,120.866 176.326,118.958 Z M177.712,112.37 L177.712,119.03 C177.712,120.182 178.198,120.848 179.206,120.848 C180.232,120.848 180.7,120.182 180.7,119.03 L180.7,112.37 C180.7,111.236 180.232,110.552 179.206,110.552 C178.198,110.552 177.712,111.236 177.712,112.37 Z M185.678,111.812 L185.678,122 L184.418,122 L184.418,109.4 L186.2,109.4 L189.116,118.508 L189.116,109.4 L190.358,109.4 L190.358,122 L188.9,122 L185.678,111.812 Z M194.202,114.98 L197.28,114.98 L197.28,116.24 L194.202,116.24 L194.202,120.722 L197.982,120.722 L197.982,122 L192.798,122 L192.798,109.4 L197.982,109.4 L197.982,110.678 L194.202,110.678 L194.202,114.98 Z M206.786,109.274 C208.73,109.274 209.63,110.534 209.63,112.442 L209.63,113.576 L208.298,113.576 L208.298,112.37 C208.298,111.236 207.848,110.552 206.822,110.552 C205.814,110.552 205.346,111.236 205.346,112.37 L205.346,119.03 C205.346,120.164 205.814,120.848 206.822,120.848 C207.848,120.848 208.298,120.164 208.298,119.03 L208.298,117.392 L209.63,117.392 L209.63,118.958 C209.63,120.866 208.73,122.126 206.786,122.126 C204.86,122.126 203.96,120.866 203.96,118.958 L203.96,112.442 C203.96,110.534 204.86,109.274 206.786,109.274 Z M216.516,119.462 L213.33,119.462 L212.844,122 L211.548,122 L213.96,109.4 L215.994,109.4 L218.406,122 L217.002,122 L216.516,119.462 Z M214.896,110.984 L213.51,118.256 L216.318,118.256 L214.896,110.984 Z M225.508,122 L220.504,122 L220.504,109.4 L221.908,109.4 L221.908,120.722 L225.508,120.722 L225.508,122 Z M232.574,122 L227.57,122 L227.57,109.4 L228.974,109.4 L228.974,120.722 L232.574,120.722 L232.574,122 Z M237.282,109.274 C239.19,109.274 240.09,110.516 240.09,112.424 L240.09,112.766 L238.758,112.766 L238.758,112.352 C238.758,111.218 238.326,110.552 237.318,110.552 C236.31,110.552 235.878,111.218 235.878,112.334 C235.878,115.16 240.108,115.43 240.108,118.976 C240.108,120.884 239.19,122.126 237.264,122.126 C235.338,122.126 234.438,120.884 234.438,118.976 L234.438,118.256 L235.752,118.256 L235.752,119.048 C235.752,120.182 236.22,120.848 237.228,120.848 C238.236,120.848 238.704,120.182 238.704,119.048 C238.704,116.24 234.492,115.97 234.492,112.424 C234.492,110.48 235.392,109.274 237.282,109.274 Z M250.73,119.462 L247.544,119.462 L247.058,122 L245.762,122 L248.174,109.4 L250.208,109.4 L252.62,122 L251.216,122 L250.73,119.462 Z M249.11,110.984 L247.724,118.256 L250.532,118.256 L249.11,110.984 Z M255.96,111.812 L255.96,122 L254.7,122 L254.7,109.4 L256.482,109.4 L259.398,118.508 L259.398,109.4 L260.64,109.4 L260.64,122 L259.182,122 L255.96,111.812 Z M263.08,109.4 L266.032,109.4 C267.994,109.4 268.894,110.588 268.894,112.532 L268.894,118.886 C268.894,120.812 267.994,122 266.032,122 L263.08,122 L263.08,109.4 Z M264.484,120.722 L266.014,120.722 C267.022,120.722 267.508,120.092 267.508,118.94 L267.508,112.46 C267.508,111.308 267.022,110.678 265.996,110.678 L264.484,110.678 L264.484,120.722 Z M278.202,122 L276.816,122 L276.816,110.678 L274.494,110.678 L274.494,109.4 L280.524,109.4 L280.524,110.678 L278.202,110.678 L278.202,122 Z M286.978,116.33 L283.882,116.33 L283.882,122 L282.478,122 L282.478,109.4 L283.882,109.4 L283.882,115.07 L286.978,115.07 L286.978,109.4 L288.382,109.4 L288.382,122 L286.978,122 L286.978,116.33 Z M292.226,114.98 L295.304,114.98 L295.304,116.24 L292.226,116.24 L292.226,120.722 L296.006,120.722 L296.006,122 L290.822,122 L290.822,109.4 L296.006,109.4 L296.006,110.678 L292.226,110.678 L292.226,114.98 Z M303.334,111.812 L303.334,122 L302.074,122 L302.074,109.4 L303.856,109.4 L306.772,118.508 L306.772,109.4 L308.014,109.4 L308.014,122 L306.556,122 L303.334,111.812 Z M311.858,114.98 L314.936,114.98 L314.936,116.24 L311.858,116.24 L311.858,120.722 L315.638,120.722 L315.638,122 L310.454,122 L310.454,109.4 L315.638,109.4 L315.638,110.678 L311.858,110.678 L311.858,114.98 Z M319.338,114.98 L322.416,114.98 L322.416,116.24 L319.338,116.24 L319.338,120.722 L323.118,120.722 L323.118,122 L317.934,122 L317.934,109.4 L323.118,109.4 L323.118,110.678 L319.338,110.678 L319.338,114.98 Z M325.414,109.4 L328.366,109.4 C330.328,109.4 331.228,110.588 331.228,112.532 L331.228,118.886 C331.228,120.812 330.328,122 328.366,122 L325.414,122 L325.414,109.4 Z M326.818,120.722 L328.348,120.722 C329.356,120.722 329.842,120.092 329.842,118.94 L329.842,112.46 C329.842,111.308 329.356,110.678 328.33,110.678 L326.818,110.678 L326.818,120.722 Z M2.124,138.268 L5.022,138.268 L5.022,139.546 L2.124,139.546 L2.124,145 L0.72,145 L0.72,132.4 L5.724,132.4 L5.724,133.678 L2.124,133.678 L2.124,138.268 Z M7.732,141.958 L7.732,135.442 C7.732,133.516 8.686,132.274 10.612,132.274 C12.556,132.274 13.51,133.516 13.51,135.442 L13.51,141.958 C13.51,143.866 12.556,145.126 10.612,145.126 C8.686,145.126 7.732,143.866 7.732,141.958 Z M9.118,135.37 L9.118,142.03 C9.118,143.182 9.604,143.848 10.612,143.848 C11.638,143.848 12.106,143.182 12.106,142.03 L12.106,135.37 C12.106,134.236 11.638,133.552 10.612,133.552 C9.604,133.552 9.118,134.236 9.118,135.37 Z M15.842,132.4 L18.65,132.4 C20.63,132.4 21.458,133.408 21.458,135.28 L21.458,136.306 C21.458,137.692 20.972,138.556 19.892,138.898 C21.044,139.24 21.476,140.176 21.476,141.526 L21.476,143.488 C21.476,144.046 21.494,144.568 21.728,145 L20.306,145 C20.144,144.64 20.072,144.316 20.072,143.47 L20.072,141.49 C20.072,140.068 19.406,139.618 18.236,139.618 L17.246,139.618 L17.246,145 L15.842,145 L15.842,132.4 Z M17.246,138.34 L18.29,138.34 C19.406,138.34 20.072,137.98 20.072,136.612 L20.072,135.406 C20.072,134.272 19.658,133.678 18.614,133.678 L17.246,133.678 L17.246,138.34 Z M34.366,134.866 L32.368,144.982 L31.018,144.982 L28.93,134.956 L28.93,145 L27.706,145 L27.706,132.4 L29.668,132.4 L31.738,142.462 L33.736,132.4 L35.698,132.4 L35.698,145 L34.366,145 L34.366,134.866 Z M42.746,142.462 L39.56,142.462 L39.074,145 L37.778,145 L40.19,132.4 L42.224,132.4 L44.636,145 L43.232,145 L42.746,142.462 Z M41.126,133.984 L39.74,141.256 L42.548,141.256 L41.126,133.984 Z M47.976,134.812 L47.976,145 L46.716,145 L46.716,132.4 L48.498,132.4 L51.414,141.508 L51.414,132.4 L52.656,132.4 L52.656,145 L51.198,145 L47.976,134.812 Z M56.428,132.4 L56.428,142.03 C56.428,143.164 56.878,143.848 57.904,143.848 C58.912,143.848 59.362,143.164 59.362,142.03 L59.362,132.4 L60.676,132.4 L60.676,141.958 C60.676,143.866 59.794,145.144 57.85,145.144 C55.924,145.144 55.042,143.866 55.042,141.958 L55.042,132.4 L56.428,132.4 Z M67.67,142.462 L64.484,142.462 L63.998,145 L62.702,145 L65.114,132.4 L67.148,132.4 L69.56,145 L68.156,145 L67.67,142.462 Z M66.05,133.984 L64.664,141.256 L67.472,141.256 L66.05,133.984 Z M76.662,145 L71.658,145 L71.658,132.4 L73.062,132.4 L73.062,143.722 L76.662,143.722 L76.662,145 Z M82.514,132.4 L83.918,132.4 L83.918,145 L82.514,145 L82.514,132.4 Z M87.6,134.812 L87.6,145 L86.34,145 L86.34,132.4 L88.122,132.4 L91.038,141.508 L91.038,132.4 L92.28,132.4 L92.28,145 L90.822,145 L87.6,134.812 Z M94.72,132.4 L97.474,132.4 C99.454,132.4 100.3,133.57 100.3,135.478 L100.3,136.99 C100.3,138.988 99.364,140.032 97.366,140.032 L96.124,140.032 L96.124,145 L94.72,145 L94.72,132.4 Z M96.124,138.772 L97.366,138.772 C98.41,138.772 98.914,138.286 98.914,137.08 L98.914,135.406 C98.914,134.254 98.5,133.678 97.474,133.678 L96.124,133.678 L96.124,138.772 Z M103.73,132.4 L103.73,142.03 C103.73,143.164 104.18,143.848 105.206,143.848 C106.214,143.848 106.664,143.164 106.664,142.03 L106.664,132.4 L107.978,132.4 L107.978,141.958 C107.978,143.866 107.096,145.144 105.152,145.144 C103.226,145.144 102.344,143.866 102.344,141.958 L102.344,132.4 L103.73,132.4 Z M113.568,145 L112.182,145 L112.182,133.678 L109.86,133.678 L109.86,132.4 L115.89,132.4 L115.89,133.678 L113.568,133.678 L113.568,145 Z M120.49,132.274 C122.398,132.274 123.298,133.516 123.298,135.424 L123.298,135.766 L121.966,135.766 L121.966,135.352 C121.966,134.218 121.534,133.552 120.526,133.552 C119.518,133.552 119.086,134.218 119.086,135.334 C119.086,138.16 123.316,138.43 123.316,141.976 C123.316,143.884 122.398,145.126 120.472,145.126 C118.546,145.126 117.646,143.884 117.646,141.976 L117.646,141.256 L118.96,141.256 L118.96,142.048 C118.96,143.182 119.428,143.848 120.436,143.848 C121.444,143.848 121.912,143.182 121.912,142.048 C121.912,139.24 117.7,138.97 117.7,135.424 C117.7,133.48 118.6,132.274 120.49,132.274 Z M125.54,143.254 L126.89,143.254 L126.89,145 L125.54,145 L125.54,143.254 Z" id="Eliminated-tedious-t" fill="#333333"></path>
                <path d="M20.4,61.12 L28.72,61.12 L28.72,68.56 C28.72,77.52 24.24,82.64 15.6,82.64 C6.96,82.64 2.48,77.52 2.48,68.56 L2.48,39.44 C2.48,30.48 6.96,25.36 15.6,25.36 C24.24,25.36 28.72,30.48 28.72,39.44 L28.72,44.88 L20.4,44.88 L20.4,38.88 C20.4,34.88 18.64,33.36 15.84,33.36 C13.04,33.36 11.28,34.88 11.28,38.88 L11.28,69.12 C11.28,73.12 13.04,74.56 15.84,74.56 C18.64,74.56 20.4,73.12 20.4,69.12 L20.4,61.12 Z M33.68,26 L42.48,26 L42.48,69.2 C42.48,73.2 44.24,74.64 47.04,74.64 C49.84,74.64 51.6,73.2 51.6,69.2 L51.6,26 L59.92,26 L59.92,68.64 C59.92,77.6 55.44,82.72 46.8,82.72 C38.16,82.72 33.68,77.6 33.68,68.64 L33.68,26 Z M63.36,34 L63.36,26 L90.56,26 L90.56,34 L81.36,34 L81.36,82 L72.56,82 L72.56,34 L63.36,34 Z M124,61.12 L132.32,61.12 L132.32,68.56 C132.32,77.52 127.84,82.64 119.2,82.64 C110.56,82.64 106.08,77.52 106.08,68.56 L106.08,39.44 C106.08,30.48 110.56,25.36 119.2,25.36 C127.84,25.36 132.32,30.48 132.32,39.44 L132.32,44.88 L124,44.88 L124,38.88 C124,34.88 122.24,33.36 119.44,33.36 C116.64,33.36 114.88,34.88 114.88,38.88 L114.88,69.12 C114.88,73.12 116.64,74.56 119.44,74.56 C122.24,74.56 124,73.12 124,69.12 L124,61.12 Z M145.76,38.88 L145.76,69.12 C145.76,73.12 147.52,74.64 150.32,74.64 C153.12,74.64 154.88,73.12 154.88,69.12 L154.88,38.88 C154.88,34.88 153.12,33.36 150.32,33.36 C147.52,33.36 145.76,34.88 145.76,38.88 Z M136.96,68.56 L136.96,39.44 C136.96,30.48 141.68,25.36 150.32,25.36 C158.96,25.36 163.68,30.48 163.68,39.44 L163.68,68.56 C163.68,77.52 158.96,82.64 150.32,82.64 C141.68,82.64 136.96,77.52 136.96,68.56 Z M168.24,39.44 C168.24,30.48 172.64,25.36 181.2,25.36 C189.76,25.36 194.16,30.48 194.16,39.44 L194.16,41.2 L185.84,41.2 L185.84,38.88 C185.84,34.88 184.24,33.36 181.44,33.36 C178.64,33.36 177.04,34.88 177.04,38.88 C177.04,50.4 194.24,52.56 194.24,68.56 C194.24,77.52 189.76,82.64 181.12,82.64 C172.48,82.64 168,77.52 168,68.56 L168,65.12 L176.32,65.12 L176.32,69.12 C176.32,73.12 178.08,74.56 180.88,74.56 C183.68,74.56 185.44,73.12 185.44,69.12 C185.44,57.6 168.24,55.44 168.24,39.44 Z M196.72,34 L196.72,26 L223.92,26 L223.92,34 L214.72,34 L214.72,82 L205.92,82 L205.92,34 L196.72,34 Z M226.64,39.44 C226.64,30.48 231.04,25.36 239.6,25.36 C248.16,25.36 252.56,30.48 252.56,39.44 L252.56,41.2 L244.24,41.2 L244.24,38.88 C244.24,34.88 242.64,33.36 239.84,33.36 C237.04,33.36 235.44,34.88 235.44,38.88 C235.44,50.4 252.64,52.56 252.64,68.56 C252.64,77.52 248.16,82.64 239.52,82.64 C230.88,82.64 226.4,77.52 226.4,68.56 L226.4,65.12 L234.72,65.12 L234.72,69.12 C234.72,73.12 236.48,74.56 239.28,74.56 C242.08,74.56 243.84,73.12 243.84,69.12 C243.84,57.6 226.64,55.44 226.64,39.44 Z" id="CUT-COSTS" fill="#363636"></path>
                <path d="M430.169424,109.4 L432.923424,109.4 C434.903424,109.4 435.749424,110.57 435.749424,112.478 L435.749424,113.99 C435.749424,115.988 434.813424,117.032 432.815424,117.032 L431.573424,117.032 L431.573424,122 L430.169424,122 L430.169424,109.4 Z M431.573424,115.772 L432.815424,115.772 C433.859424,115.772 434.363424,115.286 434.363424,114.08 L434.363424,112.406 C434.363424,111.254 433.949424,110.678 432.923424,110.678 L431.573424,110.678 L431.573424,115.772 Z M437.901424,109.4 L440.709424,109.4 C442.689424,109.4 443.517424,110.408 443.517424,112.28 L443.517424,113.306 C443.517424,114.692 443.031424,115.556 441.951424,115.898 C443.103424,116.24 443.535424,117.176 443.535424,118.526 L443.535424,120.488 C443.535424,121.046 443.553424,121.568 443.787424,122 L442.365424,122 C442.203424,121.64 442.131424,121.316 442.131424,120.47 L442.131424,118.49 C442.131424,117.068 441.465424,116.618 440.295424,116.618 L439.305424,116.618 L439.305424,122 L437.901424,122 L437.901424,109.4 Z M439.305424,115.34 L440.349424,115.34 C441.465424,115.34 442.131424,114.98 442.131424,113.612 L442.131424,112.406 C442.131424,111.272 441.717424,110.678 440.673424,110.678 L439.305424,110.678 L439.305424,115.34 Z M445.885424,118.958 L445.885424,112.442 C445.885424,110.516 446.839424,109.274 448.765424,109.274 C450.709424,109.274 451.663424,110.516 451.663424,112.442 L451.663424,118.958 C451.663424,120.866 450.709424,122.126 448.765424,122.126 C446.839424,122.126 445.885424,120.866 445.885424,118.958 Z M447.271424,112.37 L447.271424,119.03 C447.271424,120.182 447.757424,120.848 448.765424,120.848 C449.791424,120.848 450.259424,120.182 450.259424,119.03 L450.259424,112.37 C450.259424,111.236 449.791424,110.552 448.765424,110.552 C447.757424,110.552 447.271424,111.236 447.271424,112.37 Z M453.635424,122 L453.635424,120.722 C453.869424,120.74 454.121424,120.74 454.337424,120.74 C455.255424,120.686 455.813424,120.254 455.813424,118.976 L455.813424,109.4 L457.199424,109.4 L457.199424,118.886 C457.199424,121.244 456.029424,121.982 454.517424,122.018 C454.193424,122.018 453.941424,122.036 453.635424,122 Z M460.989424,114.98 L464.067424,114.98 L464.067424,116.24 L460.989424,116.24 L460.989424,120.722 L464.769424,120.722 L464.769424,122 L459.585424,122 L459.585424,109.4 L464.769424,109.4 L464.769424,110.678 L460.989424,110.678 L460.989424,114.98 Z M469.783424,109.274 C471.727424,109.274 472.627424,110.534 472.627424,112.442 L472.627424,113.576 L471.295424,113.576 L471.295424,112.37 C471.295424,111.236 470.845424,110.552 469.819424,110.552 C468.811424,110.552 468.343424,111.236 468.343424,112.37 L468.343424,119.03 C468.343424,120.164 468.811424,120.848 469.819424,120.848 C470.845424,120.848 471.295424,120.164 471.295424,119.03 L471.295424,117.392 L472.627424,117.392 L472.627424,118.958 C472.627424,120.866 471.727424,122.126 469.783424,122.126 C467.857424,122.126 466.957424,120.866 466.957424,118.958 L466.957424,112.442 C466.957424,110.534 467.857424,109.274 469.783424,109.274 Z M478.109424,122 L476.723424,122 L476.723424,110.678 L474.401424,110.678 L474.401424,109.4 L480.431424,109.4 L480.431424,110.678 L478.109424,110.678 L478.109424,122 Z M483.789424,114.98 L486.867424,114.98 L486.867424,116.24 L483.789424,116.24 L483.789424,120.722 L487.569424,120.722 L487.569424,122 L482.385424,122 L482.385424,109.4 L487.569424,109.4 L487.569424,110.678 L483.789424,110.678 L483.789424,114.98 Z M489.865424,109.4 L492.817424,109.4 C494.779424,109.4 495.679424,110.588 495.679424,112.532 L495.679424,118.886 C495.679424,120.812 494.779424,122 492.817424,122 L489.865424,122 L489.865424,109.4 Z M491.269424,120.722 L492.799424,120.722 C493.807424,120.722 494.293424,120.092 494.293424,118.94 L494.293424,112.46 C494.293424,111.308 493.807424,110.678 492.781424,110.678 L491.269424,110.678 L491.269424,120.722 Z M504.429424,109.274 C506.337424,109.274 507.237424,110.516 507.237424,112.424 L507.237424,112.766 L505.905424,112.766 L505.905424,112.352 C505.905424,111.218 505.473424,110.552 504.465424,110.552 C503.457424,110.552 503.025424,111.218 503.025424,112.334 C503.025424,115.16 507.255424,115.43 507.255424,118.976 C507.255424,120.884 506.337424,122.126 504.411424,122.126 C502.485424,122.126 501.585424,120.884 501.585424,118.976 L501.585424,118.256 L502.899424,118.256 L502.899424,119.048 C502.899424,120.182 503.367424,120.848 504.375424,120.848 C505.383424,120.848 505.851424,120.182 505.851424,119.048 C505.851424,116.24 501.639424,115.97 501.639424,112.424 C501.639424,110.48 502.539424,109.274 504.429424,109.274 Z M514.087424,119.462 L510.901424,119.462 L510.415424,122 L509.119424,122 L511.531424,109.4 L513.565424,109.4 L515.977424,122 L514.573424,122 L514.087424,119.462 Z M512.467424,110.984 L511.081424,118.256 L513.889424,118.256 L512.467424,110.984 Z M517.265424,109.4 L518.687424,109.4 L520.739424,120.362 L522.773424,109.4 L524.069424,109.4 L521.711424,122 L519.641424,122 L517.265424,109.4 Z M526.149424,109.4 L527.553424,109.4 L527.553424,122 L526.149424,122 L526.149424,109.4 Z M531.235424,111.812 L531.235424,122 L529.975424,122 L529.975424,109.4 L531.757424,109.4 L534.673424,118.508 L534.673424,109.4 L535.915424,109.4 L535.915424,122 L534.457424,122 L531.235424,111.812 Z M541.073424,109.274 C543.017424,109.274 543.917424,110.534 543.917424,112.442 L543.917424,113.522 L542.585424,113.522 L542.585424,112.37 C542.585424,111.236 542.135424,110.552 541.109424,110.552 C540.101424,110.552 539.633424,111.236 539.633424,112.37 L539.633424,119.03 C539.633424,120.164 540.101424,120.848 541.109424,120.848 C542.135424,120.848 542.585424,120.164 542.585424,119.03 L542.585424,116.51 L541.289424,116.51 L541.289424,115.25 L543.917424,115.25 L543.917424,118.958 C543.917424,120.866 543.017424,122.126 541.073424,122.126 C539.147424,122.126 538.247424,120.866 538.247424,118.958 L538.247424,112.442 C538.247424,110.534 539.147424,109.274 541.073424,109.274 Z M548.895424,109.274 C550.803424,109.274 551.703424,110.516 551.703424,112.424 L551.703424,112.766 L550.371424,112.766 L550.371424,112.352 C550.371424,111.218 549.939424,110.552 548.931424,110.552 C547.923424,110.552 547.491424,111.218 547.491424,112.334 C547.491424,115.16 551.721424,115.43 551.721424,118.976 C551.721424,120.884 550.803424,122.126 548.877424,122.126 C546.951424,122.126 546.051424,120.884 546.051424,118.976 L546.051424,118.256 L547.365424,118.256 L547.365424,119.048 C547.365424,120.182 547.833424,120.848 548.841424,120.848 C549.849424,120.848 550.317424,120.182 550.317424,119.048 C550.317424,116.24 546.105424,115.97 546.105424,112.424 C546.105424,110.48 547.005424,109.274 548.895424,109.274 Z M559.139424,114.98 L562.217424,114.98 L562.217424,116.24 L559.139424,116.24 L559.139424,120.722 L562.919424,120.722 L562.919424,122 L557.735424,122 L557.735424,109.4 L562.919424,109.4 L562.919424,110.678 L559.139424,110.678 L559.139424,114.98 Z M569.823424,119.462 L566.637424,119.462 L566.151424,122 L564.855424,122 L567.267424,109.4 L569.301424,109.4 L571.713424,122 L570.309424,122 L569.823424,119.462 Z M568.203424,110.984 L566.817424,118.256 L569.625424,118.256 L568.203424,110.984 Z M576.511424,109.274 C578.455424,109.274 579.355424,110.534 579.355424,112.442 L579.355424,113.576 L578.023424,113.576 L578.023424,112.37 C578.023424,111.236 577.573424,110.552 576.547424,110.552 C575.539424,110.552 575.071424,111.236 575.071424,112.37 L575.071424,119.03 C575.071424,120.164 575.539424,120.848 576.547424,120.848 C577.573424,120.848 578.023424,120.164 578.023424,119.03 L578.023424,117.392 L579.355424,117.392 L579.355424,118.958 C579.355424,120.866 578.455424,122.126 576.511424,122.126 C574.585424,122.126 573.685424,120.866 573.685424,118.958 L573.685424,112.442 C573.685424,110.534 574.585424,109.274 576.511424,109.274 Z M586.133424,116.33 L583.037424,116.33 L583.037424,122 L581.633424,122 L581.633424,109.4 L583.037424,109.4 L583.037424,115.07 L586.133424,115.07 L586.133424,109.4 L587.537424,109.4 L587.537424,122 L586.133424,122 L586.133424,116.33 Z M595.999424,122 L595.999424,117.482 L593.335424,109.4 L594.793424,109.4 L596.755424,115.592 L598.735424,109.4 L600.067424,109.4 L597.385424,117.482 L597.385424,122 L595.999424,122 Z M603.479424,114.98 L606.557424,114.98 L606.557424,116.24 L603.479424,116.24 L603.479424,120.722 L607.259424,120.722 L607.259424,122 L602.075424,122 L602.075424,109.4 L607.259424,109.4 L607.259424,110.678 L603.479424,110.678 L603.479424,114.98 Z M614.163424,119.462 L610.977424,119.462 L610.491424,122 L609.195424,122 L611.607424,109.4 L613.641424,109.4 L616.053424,122 L614.649424,122 L614.163424,119.462 Z M612.543424,110.984 L611.157424,118.256 L613.965424,118.256 L612.543424,110.984 Z M618.151424,109.4 L620.959424,109.4 C622.939424,109.4 623.767424,110.408 623.767424,112.28 L623.767424,113.306 C623.767424,114.692 623.281424,115.556 622.201424,115.898 C623.353424,116.24 623.785424,117.176 623.785424,118.526 L623.785424,120.488 C623.785424,121.046 623.803424,121.568 624.037424,122 L622.615424,122 C622.453424,121.64 622.381424,121.316 622.381424,120.47 L622.381424,118.49 C622.381424,117.068 621.715424,116.618 620.545424,116.618 L619.555424,116.618 L619.555424,122 L618.151424,122 L618.151424,109.4 Z M619.555424,115.34 L620.599424,115.34 C621.715424,115.34 622.381424,114.98 622.381424,113.612 L622.381424,112.406 C622.381424,111.272 621.967424,110.678 620.923424,110.678 L619.555424,110.678 L619.555424,115.34 Z M633.237424,122 L631.851424,122 L631.851424,110.678 L629.529424,110.678 L629.529424,109.4 L635.559424,109.4 L635.559424,110.678 L633.237424,110.678 L633.237424,122 Z M642.013424,116.33 L638.917424,116.33 L638.917424,122 L637.513424,122 L637.513424,109.4 L638.917424,109.4 L638.917424,115.07 L642.013424,115.07 L642.013424,109.4 L643.417424,109.4 L643.417424,122 L642.013424,122 L642.013424,116.33 Z M645.857424,109.4 L648.665424,109.4 C650.645424,109.4 651.473424,110.408 651.473424,112.28 L651.473424,113.306 C651.473424,114.692 650.987424,115.556 649.907424,115.898 C651.059424,116.24 651.491424,117.176 651.491424,118.526 L651.491424,120.488 C651.491424,121.046 651.509424,121.568 651.743424,122 L650.321424,122 C650.159424,121.64 650.087424,121.316 650.087424,120.47 L650.087424,118.49 C650.087424,117.068 649.421424,116.618 648.251424,116.618 L647.261424,116.618 L647.261424,122 L645.857424,122 L645.857424,109.4 Z M647.261424,115.34 L648.305424,115.34 C649.421424,115.34 650.087424,114.98 650.087424,113.612 L650.087424,112.406 C650.087424,111.272 649.673424,110.678 648.629424,110.678 L647.261424,110.678 L647.261424,115.34 Z M653.841424,118.958 L653.841424,112.442 C653.841424,110.516 654.795424,109.274 656.721424,109.274 C658.665424,109.274 659.619424,110.516 659.619424,112.442 L659.619424,118.958 C659.619424,120.866 658.665424,122.126 656.721424,122.126 C654.795424,122.126 653.841424,120.866 653.841424,118.958 Z M655.227424,112.37 L655.227424,119.03 C655.227424,120.182 655.713424,120.848 656.721424,120.848 C657.747424,120.848 658.215424,120.182 658.215424,119.03 L658.215424,112.37 C658.215424,111.236 657.747424,110.552 656.721424,110.552 C655.713424,110.552 655.227424,111.236 655.227424,112.37 Z M663.283424,109.4 L663.283424,119.03 C663.283424,120.164 663.733424,120.848 664.759424,120.848 C665.767424,120.848 666.217424,120.164 666.217424,119.03 L666.217424,109.4 L667.531424,109.4 L667.531424,118.958 C667.531424,120.866 666.649424,122.144 664.705424,122.144 C662.779424,122.144 661.897424,120.866 661.897424,118.958 L661.897424,109.4 L663.283424,109.4 Z M672.635424,109.274 C674.579424,109.274 675.479424,110.534 675.479424,112.442 L675.479424,113.522 L674.147424,113.522 L674.147424,112.37 C674.147424,111.236 673.697424,110.552 672.671424,110.552 C671.663424,110.552 671.195424,111.236 671.195424,112.37 L671.195424,119.03 C671.195424,120.164 671.663424,120.848 672.671424,120.848 C673.697424,120.848 674.147424,120.164 674.147424,119.03 L674.147424,116.51 L672.851424,116.51 L672.851424,115.25 L675.479424,115.25 L675.479424,118.958 C675.479424,120.866 674.579424,122.126 672.635424,122.126 C670.709424,122.126 669.809424,120.866 669.809424,118.958 L669.809424,112.442 C669.809424,110.534 670.709424,109.274 672.635424,109.274 Z M682.311424,116.33 L679.215424,116.33 L679.215424,122 L677.811424,122 L677.811424,109.4 L679.215424,109.4 L679.215424,115.07 L682.311424,115.07 L682.311424,109.4 L683.715424,109.4 L683.715424,122 L682.311424,122 L682.311424,116.33 Z M691.349424,114.98 L694.427424,114.98 L694.427424,116.24 L691.349424,116.24 L691.349424,120.722 L695.129424,120.722 L695.129424,122 L689.945424,122 L689.945424,109.4 L695.129424,109.4 L695.129424,110.678 L691.349424,110.678 L691.349424,114.98 Z M704.067424,111.866 L702.069424,121.982 L700.719424,121.982 L698.631424,111.956 L698.631424,122 L697.407424,122 L697.407424,109.4 L699.369424,109.4 L701.439424,119.462 L703.437424,109.4 L705.399424,109.4 L705.399424,122 L704.067424,122 L704.067424,111.866 Z M707.839424,109.4 L710.593424,109.4 C712.573424,109.4 713.419424,110.57 713.419424,112.478 L713.419424,113.99 C713.419424,115.988 712.483424,117.032 710.485424,117.032 L709.243424,117.032 L709.243424,122 L707.839424,122 L707.839424,109.4 Z M709.243424,115.772 L710.485424,115.772 C711.529424,115.772 712.033424,115.286 712.033424,114.08 L712.033424,112.406 C712.033424,111.254 711.619424,110.678 710.593424,110.678 L709.243424,110.678 L709.243424,115.772 Z M715.409424,118.958 L715.409424,112.442 C715.409424,110.516 716.363424,109.274 718.289424,109.274 C720.233424,109.274 721.187424,110.516 721.187424,112.442 L721.187424,118.958 C721.187424,120.866 720.233424,122.126 718.289424,122.126 C716.363424,122.126 715.409424,120.866 715.409424,118.958 Z M716.795424,112.37 L716.795424,119.03 C716.795424,120.182 717.281424,120.848 718.289424,120.848 C719.315424,120.848 719.783424,120.182 719.783424,119.03 L719.783424,112.37 C719.783424,111.236 719.315424,110.552 718.289424,110.552 C717.281424,110.552 716.795424,111.236 716.795424,112.37 Z M728.109424,113.45 L726.867424,122 L724.941424,122 L723.213424,109.4 L724.581424,109.4 L726.057424,120.128 L727.461424,109.418 L728.847424,109.418 L730.233424,120.146 L731.655424,109.4 L732.879424,109.4 L731.169424,122 L729.315424,122 L728.109424,113.45 Z M736.417424,114.98 L739.495424,114.98 L739.495424,116.24 L736.417424,116.24 L736.417424,120.722 L740.197424,120.722 L740.197424,122 L735.013424,122 L735.013424,109.4 L740.197424,109.4 L740.197424,110.678 L736.417424,110.678 L736.417424,114.98 Z M742.493424,109.4 L745.301424,109.4 C747.281424,109.4 748.109424,110.408 748.109424,112.28 L748.109424,113.306 C748.109424,114.692 747.623424,115.556 746.543424,115.898 C747.695424,116.24 748.127424,117.176 748.127424,118.526 L748.127424,120.488 C748.127424,121.046 748.145424,121.568 748.379424,122 L746.957424,122 C746.795424,121.64 746.723424,121.316 746.723424,120.47 L746.723424,118.49 C746.723424,117.068 746.057424,116.618 744.887424,116.618 L743.897424,116.618 L743.897424,122 L742.493424,122 L742.493424,109.4 Z M743.897424,115.34 L744.941424,115.34 C746.057424,115.34 746.723424,114.98 746.723424,113.612 L746.723424,112.406 C746.723424,111.272 746.309424,110.678 745.265424,110.678 L743.897424,110.678 L743.897424,115.34 Z M750.585424,109.4 L751.989424,109.4 L751.989424,122 L750.585424,122 L750.585424,109.4 Z M755.671424,111.812 L755.671424,122 L754.411424,122 L754.411424,109.4 L756.193424,109.4 L759.109424,118.508 L759.109424,109.4 L760.351424,109.4 L760.351424,122 L758.893424,122 L755.671424,111.812 Z M765.509424,109.274 C767.453424,109.274 768.353424,110.534 768.353424,112.442 L768.353424,113.522 L767.021424,113.522 L767.021424,112.37 C767.021424,111.236 766.571424,110.552 765.545424,110.552 C764.537424,110.552 764.069424,111.236 764.069424,112.37 L764.069424,119.03 C764.069424,120.164 764.537424,120.848 765.545424,120.848 C766.571424,120.848 767.021424,120.164 767.021424,119.03 L767.021424,116.51 L765.725424,116.51 L765.725424,115.25 L768.353424,115.25 L768.353424,118.958 C768.353424,120.866 767.453424,122.126 765.509424,122.126 C763.583424,122.126 762.683424,120.866 762.683424,118.958 L762.683424,112.442 C762.683424,110.534 763.583424,109.274 765.509424,109.274 Z M434.777424,142.462 L431.591424,142.462 L431.105424,145 L429.809424,145 L432.221424,132.4 L434.255424,132.4 L436.667424,145 L435.263424,145 L434.777424,142.462 Z M433.157424,133.984 L431.771424,141.256 L434.579424,141.256 L433.157424,133.984 Z M441.411424,132.274 C443.319424,132.274 444.219424,133.516 444.219424,135.424 L444.219424,135.766 L442.887424,135.766 L442.887424,135.352 C442.887424,134.218 442.455424,133.552 441.447424,133.552 C440.439424,133.552 440.007424,134.218 440.007424,135.334 C440.007424,138.16 444.237424,138.43 444.237424,141.976 C444.237424,143.884 443.319424,145.126 441.393424,145.126 C439.467424,145.126 438.567424,143.884 438.567424,141.976 L438.567424,141.256 L439.881424,141.256 L439.881424,142.048 C439.881424,143.182 440.349424,143.848 441.357424,143.848 C442.365424,143.848 442.833424,143.182 442.833424,142.048 C442.833424,139.24 438.621424,138.97 438.621424,135.424 C438.621424,133.48 439.521424,132.274 441.411424,132.274 Z M449.107424,132.274 C451.015424,132.274 451.915424,133.516 451.915424,135.424 L451.915424,135.766 L450.583424,135.766 L450.583424,135.352 C450.583424,134.218 450.151424,133.552 449.143424,133.552 C448.135424,133.552 447.703424,134.218 447.703424,135.334 C447.703424,138.16 451.933424,138.43 451.933424,141.976 C451.933424,143.884 451.015424,145.126 449.089424,145.126 C447.163424,145.126 446.263424,143.884 446.263424,141.976 L446.263424,141.256 L447.577424,141.256 L447.577424,142.048 C447.577424,143.182 448.045424,143.848 449.053424,143.848 C450.061424,143.848 450.529424,143.182 450.529424,142.048 C450.529424,139.24 446.317424,138.97 446.317424,135.424 C446.317424,133.48 447.217424,132.274 449.107424,132.274 Z M454.049424,141.958 L454.049424,135.442 C454.049424,133.516 455.003424,132.274 456.929424,132.274 C458.873424,132.274 459.827424,133.516 459.827424,135.442 L459.827424,141.958 C459.827424,143.866 458.873424,145.126 456.929424,145.126 C455.003424,145.126 454.049424,143.866 454.049424,141.958 Z M455.435424,135.37 L455.435424,142.03 C455.435424,143.182 455.921424,143.848 456.929424,143.848 C457.955424,143.848 458.423424,143.182 458.423424,142.03 L458.423424,135.37 C458.423424,134.236 457.955424,133.552 456.929424,133.552 C455.921424,133.552 455.435424,134.236 455.435424,135.37 Z M464.877424,132.274 C466.821424,132.274 467.721424,133.534 467.721424,135.442 L467.721424,136.576 L466.389424,136.576 L466.389424,135.37 C466.389424,134.236 465.939424,133.552 464.913424,133.552 C463.905424,133.552 463.437424,134.236 463.437424,135.37 L463.437424,142.03 C463.437424,143.164 463.905424,143.848 464.913424,143.848 C465.939424,143.848 466.389424,143.164 466.389424,142.03 L466.389424,140.392 L467.721424,140.392 L467.721424,141.958 C467.721424,143.866 466.821424,145.126 464.877424,145.126 C462.951424,145.126 462.051424,143.866 462.051424,141.958 L462.051424,135.442 C462.051424,133.534 462.951424,132.274 464.877424,132.274 Z M469.999424,132.4 L471.403424,132.4 L471.403424,145 L469.999424,145 L469.999424,132.4 Z M478.451424,142.462 L475.265424,142.462 L474.779424,145 L473.483424,145 L475.895424,132.4 L477.929424,132.4 L480.341424,145 L478.937424,145 L478.451424,142.462 Z M476.831424,133.984 L475.445424,141.256 L478.253424,141.256 L476.831424,133.984 Z M484.959424,145 L483.573424,145 L483.573424,133.678 L481.251424,133.678 L481.251424,132.4 L487.281424,132.4 L487.281424,133.678 L484.959424,133.678 L484.959424,145 Z M490.639424,137.98 L493.717424,137.98 L493.717424,139.24 L490.639424,139.24 L490.639424,143.722 L494.419424,143.722 L494.419424,145 L489.235424,145 L489.235424,132.4 L494.419424,132.4 L494.419424,133.678 L490.639424,133.678 L490.639424,137.98 Z M499.361424,132.274 C501.269424,132.274 502.169424,133.516 502.169424,135.424 L502.169424,135.766 L500.837424,135.766 L500.837424,135.352 C500.837424,134.218 500.405424,133.552 499.397424,133.552 C498.389424,133.552 497.957424,134.218 497.957424,135.334 C497.957424,138.16 502.187424,138.43 502.187424,141.976 C502.187424,143.884 501.269424,145.126 499.343424,145.126 C497.417424,145.126 496.517424,143.884 496.517424,141.976 L496.517424,141.256 L497.831424,141.256 L497.831424,142.048 C497.831424,143.182 498.299424,143.848 499.307424,143.848 C500.315424,143.848 500.783424,143.182 500.783424,142.048 C500.783424,139.24 496.571424,138.97 496.571424,135.424 C496.571424,133.48 497.471424,132.274 499.361424,132.274 Z M504.411424,143.254 L505.761424,143.254 L505.761424,145 L504.411424,145 L504.411424,143.254 Z" id="Projected-savings-ea" fill="#333333"></path>
                <path d="M432.409424,40.24 C432.409424,32.72 435.529424,27.92 441.689424,26.56 L441.689424,22.4 L448.889424,22.4 L448.889424,26.56 C455.129424,27.84 458.329424,32.64 458.329424,40.24 L458.329424,42 L450.009424,42 L450.009424,39.68 C450.009424,35.68 448.409424,34.16 445.609424,34.16 C442.809424,34.16 441.209424,35.68 441.209424,39.68 C441.209424,51.2 458.409424,51.76 458.409424,67.76 C458.409424,75.36 455.129424,80.24 448.889424,81.52 L448.889424,85.6 L441.689424,85.6 L441.689424,81.52 C435.369424,80.24 432.169424,75.36 432.169424,67.76 L432.169424,63.92 L440.489424,63.92 L440.489424,68.32 C440.489424,72.32 442.249424,73.76 445.049424,73.76 C447.849424,73.76 449.609424,72.32 449.609424,68.32 C449.609424,56.8 432.409424,56.24 432.409424,40.24 Z M463.929424,63.92 L472.249424,63.92 L472.249424,69.12 C472.249424,73.12 474.009424,74.56 476.809424,74.56 C479.609424,74.56 481.369424,73.12 481.369424,69.12 L481.369424,56.8 C481.369424,52.8 479.609424,51.28 476.809424,51.28 C474.009424,51.28 472.249424,52.8 472.249424,56.8 L472.249424,58.48 L463.929424,58.48 L465.529424,26 L488.729424,26 L488.729424,34 L473.449424,34 L472.729424,47.36 C474.329424,44.72 476.889424,43.28 480.409424,43.28 C486.889424,43.28 490.169424,47.84 490.169424,56.08 L490.169424,68.56 C490.169424,77.52 485.689424,82.64 477.049424,82.64 C468.409424,82.64 463.929424,77.52 463.929424,68.56 L463.929424,63.92 Z M504.089424,38.88 L504.089424,69.12 C504.089424,73.12 505.849424,74.64 508.649424,74.64 C511.449424,74.64 513.209424,73.12 513.209424,69.12 L513.209424,38.88 C513.209424,34.88 511.449424,33.36 508.649424,33.36 C505.849424,33.36 504.089424,34.88 504.089424,38.88 Z M495.289424,68.56 L495.289424,39.44 C495.289424,30.48 500.009424,25.36 508.649424,25.36 C517.289424,25.36 522.009424,30.48 522.009424,39.44 L522.009424,68.56 C522.009424,77.52 517.289424,82.64 508.649424,82.64 C500.009424,82.64 495.289424,77.52 495.289424,68.56 Z M535.769424,38.88 L535.769424,69.12 C535.769424,73.12 537.529424,74.64 540.329424,74.64 C543.129424,74.64 544.889424,73.12 544.889424,69.12 L544.889424,38.88 C544.889424,34.88 543.129424,33.36 540.329424,33.36 C537.529424,33.36 535.769424,34.88 535.769424,38.88 Z M526.969424,68.56 L526.969424,39.44 C526.969424,30.48 531.689424,25.36 540.329424,25.36 C548.969424,25.36 553.689424,30.48 553.689424,39.44 L553.689424,68.56 C553.689424,77.52 548.969424,82.64 540.329424,82.64 C531.689424,82.64 526.969424,77.52 526.969424,68.56 Z M562.729424,82 L559.369424,82 L559.369424,73.52 L567.849424,73.52 L567.849424,81.12 L564.009424,90 L560.409424,90 L562.729424,82 Z M582.329424,38.88 L582.329424,69.12 C582.329424,73.12 584.089424,74.64 586.889424,74.64 C589.689424,74.64 591.449424,73.12 591.449424,69.12 L591.449424,38.88 C591.449424,34.88 589.689424,33.36 586.889424,33.36 C584.089424,33.36 582.329424,34.88 582.329424,38.88 Z M573.529424,68.56 L573.529424,39.44 C573.529424,30.48 578.249424,25.36 586.889424,25.36 C595.529424,25.36 600.249424,30.48 600.249424,39.44 L600.249424,68.56 C600.249424,77.52 595.529424,82.64 586.889424,82.64 C578.249424,82.64 573.529424,77.52 573.529424,68.56 Z M614.009424,38.88 L614.009424,69.12 C614.009424,73.12 615.769424,74.64 618.569424,74.64 C621.369424,74.64 623.129424,73.12 623.129424,69.12 L623.129424,38.88 C623.129424,34.88 621.369424,33.36 618.569424,33.36 C615.769424,33.36 614.009424,34.88 614.009424,38.88 Z M605.209424,68.56 L605.209424,39.44 C605.209424,30.48 609.929424,25.36 618.569424,25.36 C627.209424,25.36 631.929424,30.48 631.929424,39.44 L631.929424,68.56 C631.929424,77.52 627.209424,82.64 618.569424,82.64 C609.929424,82.64 605.209424,77.52 605.209424,68.56 Z M645.689424,38.88 L645.689424,69.12 C645.689424,73.12 647.449424,74.64 650.249424,74.64 C653.049424,74.64 654.809424,73.12 654.809424,69.12 L654.809424,38.88 C654.809424,34.88 653.049424,33.36 650.249424,33.36 C647.449424,33.36 645.689424,34.88 645.689424,38.88 Z M636.889424,68.56 L636.889424,39.44 C636.889424,30.48 641.609424,25.36 650.249424,25.36 C658.889424,25.36 663.609424,30.48 663.609424,39.44 L663.609424,68.56 C663.609424,77.52 658.889424,82.64 650.249424,82.64 C641.609424,82.64 636.889424,77.52 636.889424,68.56 Z" id="$500,000" fill="#363636"></path>
            </g>
        </g>
    </g>
</svg>