<?xml version="1.0" encoding="UTF-8"?>
<svg width="780px" height="203px" viewBox="0 0 780 203" version="1.1" xmlns="http://www.w3.org/2000/svg" xmlns:xlink="http://www.w3.org/1999/xlink">
    <!-- Generator: Sketch 49.3 (51167) - http://www.bohemiancoding.com/sketch -->
    <title>Image / Painpoint</title>
    <desc>Created with Sketch.</desc>
    <defs></defs>
    <g id="Portfolio" stroke="none" stroke-width="1" fill="none" fill-rule="evenodd">
        <g id="Relationships" transform="translate(-330.000000, -5724.000000)">
            <g id="Image-/-Painpoint" transform="translate(330.000000, 5724.000000)">
                <rect id="Rectangle-13" fill="#FFFFFF" x="0" y="0" width="780" height="203"></rect>
                <path d="M588.544,111.242 L588.544,110.384 C588.544,108.998 588.06,108.624 587.29,108.624 C586.52,108.624 586.036,109.042 586.036,110.142 L586.036,111.132 L583.748,111.132 L583.748,110.296 C583.748,107.832 584.98,106.424 587.356,106.424 C589.732,106.424 590.964,107.832 590.964,110.296 L590.964,110.692 C590.964,112.342 590.436,113.376 589.27,113.86 C590.48,114.388 590.964,115.532 590.964,117.094 L590.964,118.304 C590.964,120.768 589.732,122.176 587.356,122.176 C584.98,122.176 583.748,120.768 583.748,118.304 L583.748,117.028 L586.036,117.028 L586.036,118.458 C586.036,119.558 586.52,119.976 587.29,119.976 C588.06,119.976 588.544,119.602 588.544,118.238 L588.544,117.028 C588.544,115.598 588.06,115.07 586.96,115.07 L586.146,115.07 L586.146,112.87 L587.092,112.87 C587.994,112.87 588.544,112.474 588.544,111.242 Z M594.814,110.142 L594.814,118.458 C594.814,119.558 595.298,119.976 596.068,119.976 C596.838,119.976 597.322,119.558 597.322,118.458 L597.322,110.142 C597.322,109.042 596.838,108.624 596.068,108.624 C595.298,108.624 594.814,109.042 594.814,110.142 Z M592.394,118.304 L592.394,110.296 C592.394,107.832 593.692,106.424 596.068,106.424 C598.444,106.424 599.742,107.832 599.742,110.296 L599.742,118.304 C599.742,120.768 598.444,122.176 596.068,122.176 C593.692,122.176 592.394,120.768 592.394,118.304 Z M608.058,106.6 L609.84,117.534 L611.49,106.6 L614.856,106.6 L614.856,122 L612.568,122 L612.568,110.956 L610.896,122 L608.608,122 L606.804,111.11 L606.804,122 L604.692,122 L604.692,106.6 L608.058,106.6 Z M616.616,122 L616.616,106.6 L619.036,106.6 L619.036,122 L616.616,122 Z M625.966,122 L622.952,110.846 L622.952,122 L620.774,122 L620.774,106.6 L623.81,106.6 L626.296,115.818 L626.296,106.6 L628.452,106.6 L628.452,122 L625.966,122 Z M630.08,106.6 L632.5,106.6 L632.5,118.48 C632.5,119.58 632.984,119.976 633.754,119.976 C634.524,119.976 635.008,119.58 635.008,118.48 L635.008,106.6 L637.296,106.6 L637.296,118.326 C637.296,120.79 636.064,122.198 633.688,122.198 C631.312,122.198 630.08,120.79 630.08,118.326 L630.08,106.6 Z M638.242,108.8 L638.242,106.6 L645.722,106.6 L645.722,108.8 L643.192,108.8 L643.192,122 L640.772,122 L640.772,108.8 L638.242,108.8 Z M649.198,108.8 L649.198,113.09 L652.52,113.09 L652.52,115.29 L649.198,115.29 L649.198,119.8 L653.378,119.8 L653.378,122 L646.778,122 L646.778,106.6 L653.378,106.6 L653.378,108.8 L649.198,108.8 Z M654.566,110.296 C654.566,107.832 655.776,106.424 658.13,106.424 C660.484,106.424 661.694,107.832 661.694,110.296 L661.694,110.78 L659.406,110.78 L659.406,110.142 C659.406,109.042 658.966,108.624 658.196,108.624 C657.426,108.624 656.986,109.042 656.986,110.142 C656.986,113.31 661.716,113.904 661.716,118.304 C661.716,120.768 660.484,122.176 658.108,122.176 C655.732,122.176 654.5,120.768 654.5,118.304 L654.5,117.358 L656.788,117.358 L656.788,118.458 C656.788,119.558 657.272,119.954 658.042,119.954 C658.812,119.954 659.296,119.558 659.296,118.458 C659.296,115.29 654.566,114.696 654.566,110.296 Z M665.214,118.59 L663.41,118.59 L663.102,113.024 L663.102,106.6 L665.522,106.6 L665.522,113.024 L665.214,118.59 Z M663.146,119.668 L665.478,119.668 L665.478,122 L663.146,122 L663.146,119.668 Z" id="30-minutes!" fill="#011728"></path>
                <g id="Group-3" transform="translate(190.000000, 129.500000) scale(-1, 1) translate(-190.000000, -129.500000) translate(163.000000, 95.000000)" fill="#000000">
                    <path d="M53.97298,12.7983507 C53.8344421,12.165475 53.2200689,11.7649644 52.5966213,11.9025614 C50.3408795,12.4070289 47.9947786,13.9877271 46.5823379,15.0761366 C45.9709716,13.5505162 45.1005859,12.1471522 43.9562159,10.8813851 C43.5255526,10.4044292 42.7907211,10.3738573 42.3238909,10.8110682 C41.8540694,11.2513316 41.8239548,11.9942614 42.2546258,12.471233 C43.525514,13.8745971 47.3593807,18.1151359 43.9803169,28.1281737 C42.8238425,29.0545662 42.3058191,30.3172808 42.158253,31.5280247 C41.7486683,31.5005053 41.3390836,31.6992383 41.107172,32.0752976 C40.7668524,32.6256229 40.9294835,33.3502221 41.4715848,33.6926492 C41.9052626,33.9678119 42.4473407,34.5518086 42.6190386,34.7505337 C42.9774223,35.166338 43.5707399,35.2733475 44.0495974,35.0042976 C44.5254403,34.7383081 44.754322,34.166584 44.59772,33.6376417 C44.5013471,33.3105006 43.7303642,30.4059909 46.3564862,29.4459428 C46.7961854,29.2869627 47.0130244,29.3542193 47.1546077,29.4337093 C48.0701499,29.9442896 48.6062143,32.3626937 48.9616374,33.9647829 C49.0369239,34.2980368 49.1061967,34.6160049 49.1784763,34.9125428 C49.588061,36.6155208 48.1846023,38.0188849 46.4528976,39.5475577 L46.2029295,39.7676894 C44.4531838,41.3208604 42.6069881,40.8652563 41.7908256,40.3516469 C41.1162156,39.9266695 39.8573547,38.7373478 38.6376598,37.5846795 C37.6257447,36.6276838 36.5806774,35.6401632 35.6199556,34.8361053 C35.1260485,34.4233612 34.3972538,34.4936782 33.9936443,34.9950854 C33.5870741,35.4965004 33.6563392,36.2363542 34.1502463,36.6460927 C35.056768,37.4043241 36.0777036,38.3704381 37.06248,39.3029356 C38.4809344,40.6450933 39.7037133,41.800814 40.5740759,42.3480712 C41.2155568,42.7516421 41.9956141,43.0298651 42.8388381,43.1338142 C42.4382894,43.8033825 41.9082618,44.3231124 41.3240109,44.5891489 C40.8090175,44.8245666 40.3060822,44.8398525 39.8302315,44.6380671 C38.7731369,44.1886306 34.701422,40.9355497 27.7296549,34.967926 L26.8592923,34.2249805 C26.3683921,33.8091762 25.6395974,33.8764406 25.2299741,34.3747953 C24.8203895,34.87315 24.8866477,35.6130117 25.377548,36.0288551 L26.2388901,36.7626275 C28.2536997,38.4869729 29.9914181,39.9545176 31.4972248,41.2080747 C31.5664899,43.8374452 32.3073736,47.6224582 33.0994043,51.6335122 C34.0781671,56.5864559 35.2949323,62.7469345 34.5359768,64.652004 C34.0239979,65.9330335 33.2439636,66.6423859 32.3404488,66.6484909 L32.3314128,66.6484909 C31.6718601,66.6484909 31.0484202,66.2540854 30.8165856,65.6914953 C30.536503,64.9577229 28.3590776,56.5465387 26.6063251,49.7872235 C25.2119254,44.4001214 23.8958576,39.3156073 23.4049728,37.5733383 C23.2272844,36.9496279 22.5858035,36.5888702 21.974414,36.7662279 C21.3600332,36.9435542 21.0046717,37.594784 21.1793765,38.2185101 C21.3962154,38.9859146 21.7786923,40.4289846 22.257519,42.2634546 C17.7882082,45.7244337 7.92186288,58.4338403 7.81932215,58.568463 C6.69600006,60.0329552 5.33768239,60.3478316 4.62699035,60.402933 C3.75963458,60.4732578 3.14824514,60.2317195 2.97061068,60.0635663 C2.49176091,59.6080169 1.69062487,58.8436649 3.1242059,56.7677348 C3.26575065,56.5628891 17.68576,35.3963708 18.9956599,31.9971459 C19.531732,30.6060701 19.7546001,29.5940513 20.0647819,28.1906872 C20.4532879,26.4265811 20.9833309,24.014329 22.4891376,19.2781905 C25.2899643,10.4791839 29.3044723,5.54432033 36.3490973,2.24214912 C36.930349,1.97003894 37.1802939,1.27294347 36.9152917,0.682873107 C36.6472518,0.0958552329 35.9635904,-0.163998013 35.3793395,0.108080859 C27.7809176,3.67300127 23.2695111,9.1912041 20.2881202,18.5592267 C18.7491613,23.3960192 18.2040763,25.8725302 17.8064805,27.6791364 C17.508326,29.0274773 17.3125657,29.9202141 16.8427518,31.143168 C15.770623,33.9284504 3.24184247,52.5176628 1.23343201,55.4222273 C-0.907818804,58.5162811 0.134164588,60.5892369 1.39003406,61.7815876 C2.05260134,62.4144633 3.12474559,62.7691082 4.32038587,62.7691082 C4.483017,62.7691082 4.64564814,62.7629954 4.8112861,62.7507619 C5.90153302,62.6651512 7.97956324,62.1912634 9.64797024,60.0174501 C12.1446442,56.7613011 19.2282038,48.0203702 22.9081052,44.7581162 C23.3598549,46.4978023 23.8598065,48.4239254 24.3687323,50.3898091 C26.8593925,60.0114234 28.3923378,65.9027372 28.6783725,66.5938529 C29.271667,68.0369776 30.7353549,69 32.3315208,69 L32.3525995,69 C33.241003,68.9938848 35.4395379,68.6483998 36.6803578,65.5390209 C37.6982865,62.9830644 36.5659131,57.2503262 35.3672968,51.1782133 C34.8161674,48.3837734 34.256002,45.5312578 33.975904,43.2472104 C36.5930054,45.3537436 38.1681235,46.4819137 38.9360995,46.8090784 C39.4390425,47.0230972 39.9721464,47.1301067 40.5082108,47.1301067 C41.077412,47.1301067 41.6556646,47.004751 42.20977,46.7632205 C43.6192039,48.1298764 46.1490301,50.2058064 47.8265347,51.0924382 C48.1999757,51.2911712 48.6065381,51.3859471 49.0191681,51.3859471 C49.6546277,51.3859471 50.3081744,51.1597026 50.9014458,50.7133186 C52.2536727,49.6982473 53.4011266,47.4541171 52.9102417,44.7208836 C52.4434347,42.1099064 50.9376049,40.3365645 49.9347103,39.4071195 C51.0610392,38.0863293 51.9253882,36.4261645 51.4284897,34.359392 C51.3592246,34.0781165 51.2929663,33.7723741 51.2206867,33.4513144 C50.7207505,31.2010793 50.0973646,28.3974819 48.269287,27.3793581 C47.9078888,27.1775726 47.3929108,26.997186 46.7423554,27.0124719 C47.706084,23.4812072 47.8958229,20.2984745 47.3145712,17.4824324 C48.350618,16.623273 50.8653329,14.6940975 53.0999498,14.1957585 C53.7143306,14.0581771 54.108858,13.4314142 53.9733192,12.7984994 L53.97298,12.7983507 Z M50.6300752,45.1391221 C50.9252152,46.7901294 50.2957848,48.2423334 49.5217873,48.8232463 C49.4254144,48.8966235 49.0941308,49.1167552 48.8863278,49.0066933 C47.5521419,48.3034928 45.4199116,46.5791004 44.0978301,45.3439365 C44.68811,44.671308 45.1669521,43.8457886 45.4832093,42.9102387 C45.4892383,42.8949527 45.4892383,42.8766065 45.4952597,42.8582602 C46.2511853,42.5953232 47.0100869,42.173406 47.7208561,41.5405225 L47.9648028,41.3234511 C48.0641902,41.2347879 48.1665844,41.1461248 48.2719932,41.0513409 C49.0038256,41.7086757 50.262671,43.096746 50.6301215,45.1390986 L50.6300752,45.1391221 Z" id="Page-1"></path>
                </g>
                <g id="Icons-/-Bank" transform="translate(217.000000, 47.000000)">
                    <rect id="Rectangle-6" fill="#CEF3FF" x="0" y="3" width="99" height="98" rx="2"></rect>
                    <g id="Group-6" transform="translate(8.000000, 0.000000)">
                        <path d="M107.326096,25.6886258 L69.2549762,25.6886258 L69.2549762,18.3489399 L83.6547112,18.3489399 C84.5989844,18.3489399 85.350155,17.5763484 85.350155,16.6534843 L85.350155,1.69545568 C85.350155,0.75116488 84.5775689,0 83.6547112,0 L25.3668254,0 C24.4225522,0 23.6713816,0.772591572 23.6713816,1.69545568 L23.6713816,16.6534843 C23.6713816,17.5977751 24.4439677,18.3489399 25.3668254,18.3489399 L39.7665604,18.3489399 L39.7665604,25.6886258 L1.69544326,25.6886258 C0.751159073,25.6886258 0,26.4612174 0,27.3840815 L0,93.4409246 L0,107.304545 C0,108.248836 0.772585616,109 1.69544326,109 L107.30412,109 C108.248404,109 108.999563,108.227409 108.999563,107.304545 L108.999563,27.4049588 C109.021023,26.460668 108.248437,25.6880764 107.325656,25.6880764 L107.326096,25.6886258 Z M27.0622692,14.9581385 L27.0622692,3.41189852 L81.9373025,3.41189852 L81.9373025,14.9581385 L27.0622692,14.9581385 Z M65.8421126,18.3489399 L65.8421126,25.6886258 L43.179424,25.6886258 L43.179424,18.3489399 L65.8421126,18.3489399 Z M96.5523907,105.60942 L57.9659356,105.60942 L57.9659356,101.403085 L96.5523907,101.403085 L96.5523907,105.60942 Z M63.9104275,97.9907453 L63.9104275,65.970477 L90.628776,65.970477 L90.628776,97.9907453 L63.9104275,97.9907453 Z M105.609676,105.60942 L99.9644851,105.60942 L99.9644851,99.6862031 C99.9644851,98.7419123 99.191888,97.9907453 98.2690413,97.9907453 L94.0412,97.9907453 L94.0412,64.2750214 C94.0412,63.3307306 93.2686138,62.5795657 92.3457562,62.5795657 L62.193667,62.5795657 C61.2493828,62.5795657 60.4982232,63.3521573 60.4982232,64.2750214 L60.4982232,97.9907453 L56.2703819,97.9907453 C55.3261087,97.9907453 54.5749381,98.76335 54.5749381,99.6862031 L54.5749381,105.60942 L3.41275423,105.60942 L3.41275423,95.1579168 L30.4750229,95.1579168 C31.4193071,95.1579168 32.1704667,94.3853143 32.1704667,93.4624611 C32.1704667,92.539641 31.3978805,91.7670055 30.4750229,91.7670055 L3.41275423,91.7670055 L3.41275423,29.1010737 L105.609676,29.1010737 L105.609676,105.60942 Z" id="Fill-1" fill="#000000"></path>
                        <path d="M14.7285763,63.4477612 L45.4654536,63.4477612 C46.4198783,63.4477612 47.1791045,62.692069 47.1791045,61.7893913 L47.1791045,39.0762803 C47.1791045,38.1526554 46.3982216,37.4179104 45.4654536,37.4179104 L14.7285763,37.4179104 C13.7741516,37.4179104 13.0149254,38.1736026 13.0149254,39.0762803 L13.0149254,61.7678959 C13.0149254,62.6915316 13.7741182,63.4472238 14.7285763,63.4472238 L14.7285763,63.4477612 Z M16.4638838,40.7561456 L43.7512474,40.7561456 L43.7512474,60.1106008 L16.4638838,60.1106008 L16.4638838,40.7561456 Z" id="Fill-2" fill="#000000"></path>
                        <path d="M42.0997606,92.7313433 L37.6166573,92.7313433 C36.5998751,92.7313433 35.7910448,93.4726795 35.7910448,94.358209 C35.7910448,95.2436962 36.6229467,95.9850746 37.6166573,95.9850746 L42.0997606,95.9850746 C43.1165428,95.9850746 43.9253731,95.2437384 43.9253731,94.358209 C43.9253731,93.4727217 43.0934712,92.7313433 42.0997606,92.7313433 Z" id="Fill-3" fill="#000000"></path>
                        <path d="M55.3134328,40.0848164 C80.601986,35.1806857 122.515885,29.192484 72.7900765,55.3134328 C72.7900765,55.3134328 117.908861,29.7603307 55.3134328,40.0848164 L55.3134328,40.0848164 L55.3134328,40.0848164 Z" id="Shape" fill="#D03027"></path>
                    </g>
                </g>
                <circle id="Oval" fill="#FFD1CF" cx="527" cy="108" r="48"></circle>
                <path d="M444.304924,111.812193 C443.412207,110.914225 442.018729,110.914225 441.128241,111.812193 L437.337536,115.625196 C426.021941,113.159146 424.071072,104.692137 423.73831,102.111935 L427.583416,98.244211 C428.476133,97.3462424 428.476133,95.9445682 427.583416,95.1035637 L417.663528,85.1253252 C417.21718,84.6763521 416.659778,84.4529701 416.047985,84.4529701 C415.433964,84.4529701 414.876572,84.6763634 414.432443,85.1253252 L409.137228,90.6750581 C407.354024,92.637402 406.350274,95.2173796 406.461306,97.7406175 C406.517915,98.4699366 406.628958,99.1992558 406.79661,99.8716108 C406.907654,100.320584 410.197587,110.861858 419.55975,119.998531 C428.698176,129.361154 439.344902,132.670786 439.791372,132.78236 C440.459795,133.005754 441.18485,133.119637 441.909904,133.119637 L442.299643,133.119637 C444.69687,133.119637 447.148499,132.166946 448.988335,130.427974 L454.451213,125.158576 C454.897561,124.709603 455.119637,124.148922 455.119637,123.588253 C455.119637,122.970619 454.89755,122.409949 454.451213,121.963208 L444.304924,111.812193 Z M447.659157,129.015282 C446.138834,130.430279 444.110234,131.221771 442.13886,131.109024 C441.575611,131.109024 441.069587,130.996266 440.561311,130.826025 C440.4491,130.768542 429.917019,127.487538 421.071747,118.431785 C412.059753,109.601073 408.737707,99.1878282 408.737707,99.0751945 C408.568293,98.621954 408.513286,98.055944 408.456083,97.4899453 C408.398879,95.5089497 409.131531,93.5279542 410.539655,92.0002104 L415.890527,86.4529701 L425.971568,96.5283134 L422.086047,100.432799 C421.580001,100.941315 421.353372,101.622302 421.465571,102.301048 C421.859407,105.243788 424.057421,115.036019 436.954936,117.808281 C437.687611,117.978522 438.475259,117.750798 439.038509,117.184776 L442.869057,113.335532 L453.119637,123.636143 L447.659157,129.015282 Z M431.124222,91.6781003 C431.064628,91.0460326 431.594104,90.5305553 432.238165,90.4722601 C441.393109,90.0127945 449.25479,97.8171218 449.781719,107.913797 C449.841312,108.545864 449.311837,109.061342 448.667775,109.119637 L448.608182,109.119637 C447.961785,109.119637 447.494238,108.660171 447.434621,108.030387 C446.909729,99.193143 440.161481,92.3658241 432.357305,92.766891 C431.711002,92.8256224 431.124222,92.3078845 431.124222,91.6781003 Z M454.732451,107.786303 C454.067282,107.786303 453.626771,107.342029 453.570601,106.733067 C453.238028,100.740649 450.862514,95.1926272 446.826369,91.1420166 C442.790113,87.1457211 437.647933,85.0935634 432.285829,85.3709645 C431.676808,85.3709645 431.123957,84.92669 431.123957,84.317728 C431.067809,83.706558 431.566669,83.2081237 432.173489,83.1517558 C438.144835,82.818009 443.893382,85.0935634 448.372583,89.5885705 C452.797549,94.0269879 455.449632,100.073222 455.781895,106.620442 C455.838131,107.231501 455.339271,107.729936 454.732451,107.786303 Z" id="Page-1" fill="#000000" transform="translate(431.119637, 108.119637) scale(-1, 1) rotate(-135.000000) translate(-431.119637, -108.119637) "></path>
                <g id="Page-1" transform="translate(466.000000, 65.000000)" fill="#000000">
                    <path d="M42.656,1 C18.961,1 0,20.426 0,44 C0,67.734 19.102,87 42.656,87 L43.3435,87 C66.8865,87 85.9995,67.734 85.9995,44 C85.9995,20.676 67.2725,1 43.3435,1 C43.24584,1 43.13256,0.99219 42.99975,1 C42.86694,0.99219 42.74584,1 42.656,1 Z M41.99975,3.0312 L41.99975,8.1874 C41.99584,8.45693 42.10131,8.71474 42.28881,8.90615 C42.47631,9.09756 42.73022,9.20303 42.99975,9.20303 C43.26928,9.20303 43.52319,9.09756 43.71069,8.90615 C43.89819,8.71474 44.00366,8.45693 43.99975,8.1874 L43.99975,3.0312 C50.76145,3.13667 57.04675,4.8789 62.56175,7.875 L59.93675,12.4688 C59.72972,12.93755 59.9055,13.4844 60.34691,13.7422 C60.78832,14.00001 61.35081,13.88282 61.65551,13.46876 L64.28051,8.84376 C69.87431,12.24216 74.53851,16.96096 77.93651,22.53176 L73.31151,25.21926 C73.0537,25.33645 72.85448,25.5552 72.76463,25.82864 C72.67869,26.09817 72.70994,26.39114 72.85447,26.63723 C72.99509,26.88332 73.23728,27.0552 73.51463,27.11379 C73.79197,27.17238 74.08104,27.10988 74.31151,26.93801 L78.96771,24.25051 C82.03021,29.86381 83.80361,36.27051 83.96771,43.00051 L78.59271,43.00051 C78.32318,42.9966 78.06537,43.10207 77.87787,43.28957 C77.68646,43.47707 77.57709,43.73488 77.57709,44.00051 C77.57709,44.27004 77.68647,44.52785 77.87787,44.71535 C78.06537,44.90285 78.32318,45.00441 78.59271,45.00051 L83.96771,45.00051 C83.80755,51.78571 82.04191,58.16851 78.99891,63.75051 L74.31141,61.03171 C74.16688,60.95358 74.00672,60.91062 73.84266,60.90671 C73.37782,60.88718 72.95985,61.18796 72.83096,61.63327 C72.70596,62.08249 72.90518,62.55905 73.31143,62.78167 L77.96763,65.50047 C74.55743,71.08247 69.84653,75.74247 64.27963,79.12547 L61.65463,74.53167 C61.47885,74.19964 61.12729,73.99261 60.74838,74.00042 C60.389,74.01604 60.06869,74.21526 59.90072,74.53167 C59.73275,74.84808 59.74447,75.23089 59.93588,75.53167 L62.59208,80.12547 C57.04128,83.14107 50.72108,84.859869 43.99808,84.96927 L43.99808,79.81307 C43.99808,79.54354 43.8887,79.28573 43.69339,79.09823 C43.49808,78.90682 43.23636,78.80526 42.96683,78.81307 C42.42777,78.8326 41.99808,79.27401 41.99808,79.81307 L41.99808,84.96927 C35.28718,84.8638 28.94708,83.15677 23.40408,80.15677 L26.06028,75.53177 C26.25559,75.21927 26.2634,74.82474 26.07981,74.50447 C25.90012,74.18416 25.55247,73.99275 25.18528,74.00056 C24.81809,74.00447 24.48216,74.20759 24.31028,74.53181 L21.68528,79.12561 C16.11498,75.74281 11.40828,71.08261 7.99728,65.50061 L12.65348,62.78181 C13.0441,62.56697 13.24723,62.11775 13.14567,61.68021 C13.04411,61.24271 12.6652,60.93021 12.21598,60.90677 C12.02067,60.89505 11.82536,60.93802 11.65348,61.03177 L6.99728,63.75057 C3.95428,58.16857 2.15748,51.78557 1.99728,45.00057 L7.37228,45.00057 C7.64181,45.00448 7.89962,44.90291 8.08712,44.71541 C8.27853,44.52791 8.3879,44.2701 8.3879,44.00057 C8.3879,43.73495 8.27852,43.47713 8.08712,43.28963 C7.89962,43.10213 7.64181,42.99666 7.37228,43.00057 L1.99728,43.00057 C2.15744,36.23497 3.97778,29.87557 7.02848,24.28157 L11.65348,26.93777 C11.88395,27.10965 12.17301,27.17215 12.45036,27.11355 C12.7277,27.05496 12.96989,26.88308 13.11052,26.63699 C13.25505,26.3909 13.2863,26.09793 13.20036,25.8284 C13.11052,25.55496 12.9113,25.33621 12.65348,25.21902 L8.02848,22.53152 C11.43078,16.96122 16.11438,12.26552 21.68448,8.87552 L24.30948,13.46932 C24.58682,13.9537 25.2001,14.12166 25.68448,13.84432 C25.91495,13.71541 26.08682,13.49276 26.15714,13.23494 C26.22746,12.97713 26.1923,12.70369 26.05949,12.46932 L23.40329,7.84432 C28.93849,4.84822 35.26629,3.14122 41.99729,3.03182 L41.99975,3.0312 Z" id="Fill-1"></path>
                    <path d="M43,36.625 C40.707,36.625 38.8125,38.5078 38.8125,40.8125 C38.8125,42.7578 40.1602,44.3867 41.9687,44.8437 L41.9687,71.5317 C41.96479,71.80123 42.07026,72.05904 42.25776,72.25045 C42.44526,72.43795 42.69917,72.54733 42.9687,72.54733 C43.23823,72.54733 43.49214,72.43795 43.67964,72.25045 C43.86714,72.05904 43.97261,71.80123 43.9687,71.5317 L43.9687,44.8757 C44.53511,44.73898 45.0507,44.46945 45.4999,44.1257 L58.1879,54.2817 C58.39493,54.44967 58.66056,54.52389 58.92228,54.49654 C59.1879,54.46529 59.43009,54.33248 59.59416,54.12545 C59.76213,53.91842 59.83635,53.65279 59.809,53.39107 C59.77775,53.12545 59.64494,52.88716 59.43791,52.71919 L46.74991,42.56319 C46.99991,42.02803 47.15616,41.44209 47.15616,40.81319 C47.15616,38.50849 45.30066,36.62569 42.99996,36.62569 L43,36.625 Z M43,38.625 C44.2148,38.625 45.1562,39.58203 45.1562,40.8125 C45.1562,41.28125 45.00386,41.70312 44.74995,42.0625 C44.67182,42.14453 44.60933,42.24219 44.56245,42.34375 C44.18354,42.74609 43.66011,42.98437 43.06245,43 L42.9687,43 L42.9687,42.96875 C42.94917,42.98047 42.92573,42.98828 42.9062,43 L42.87495,43 L42.74995,43 C41.65615,42.89062 40.81245,41.957 40.81245,40.8125 C40.81245,39.582 41.80073,38.625 42.99995,38.625 L43,38.625 Z" id="Fill-2"></path>
                </g>
            </g>
        </g>
    </g>
</svg>