<?xml version="1.0" encoding="UTF-8"?>
<svg width="777px" height="203px" viewBox="0 0 777 203" version="1.1" xmlns="http://www.w3.org/2000/svg" xmlns:xlink="http://www.w3.org/1999/xlink">
    <!-- Generator: Sketch 49.3 (51167) - http://www.bohemiancoding.com/sketch -->
    <title>Image / Painpoint</title>
    <desc>Created with Sketch.</desc>
    <defs>
        <path d="M429,100 L448.000001,100 C462.911689,100 475.000001,112.088312 475.000001,127 L475.000001,156.130435 C475.000001,156.68272 474.552285,157.130435 474.000001,157.130435 L403,157.130435 C402.447715,157.130435 402,156.68272 402,156.130435 L402,127 C402,112.088312 414.088312,100 429,100 Z" id="path-1"></path>
        <path d="M414.830682,97.8511954 C420.846234,97.8511954 424.133233,89.1960199 424.133233,83.1724889 C424.133233,77.1489578 419.819141,77.9134782 413.80359,77.9134782 C407.788038,77.9134782 403.453524,80.3169749 403.453524,86.340506 C403.453524,92.364037 408.815131,97.8511954 414.830682,97.8511954 Z" id="path-2"></path>
        <path d="M466.996764,83.7550983 C473.012315,83.7550983 476.299314,75.0999229 476.299314,69.0763918 C476.299314,63.0528607 471.985222,63.8173812 465.969671,63.8173812 C459.95412,63.8173812 455.619605,66.2208779 455.619605,72.2444089 C455.619605,78.26794 460.981213,83.7550983 466.996764,83.7550983 Z" id="path-3"></path>
        <path d="M444.053412,113.664284 C463.258195,113.664284 473.752014,86.032441 473.752014,66.8021824 C473.752014,47.5719237 459.979178,50.0126724 440.774396,50.0126724 C421.569613,50.0126724 407.731577,57.6858897 407.731577,76.9161484 C407.731577,96.146407 424.84863,113.664284 444.053412,113.664284 Z" id="path-4"></path>
        <path d="M396.002301,56.7339177 C396.002301,48.4230363 406.021202,45.8705171 406.021202,43.6997412 C406.021202,41.5289653 410.793986,30.3899608 413.232594,28.9844375 C417.870299,26.3114353 437.473812,20.2968968 441.140927,21.2044637 C448.55471,23.0392862 459.208105,34.5800341 462.527872,27.481488 C463.215726,26.0106725 471.511328,35.4697963 473.015564,40.6829611 C477.480489,56.1568646 472.07679,65.8320387 462.527872,66.4685392 C458.347753,66.7471726 453.098844,59.2464092 447.940729,56.7339177 C445.494866,55.5425502 428.173308,58.3069322 421.142169,56.7339177 C418.307277,56.0996923 411.766188,64.5030948 401.518903,81.9441251 C397.841168,70.6779077 396.002301,62.2745053 396.002301,56.7339177 Z" id="path-5"></path>
        <path d="M442.48719,90 C438.579755,90 436.314852,92.0745177 435.206445,94.0779593 C434.098183,96.081401 434.001572,98.0564704 434.001572,98.0564704 L434.001572,98.0593149 C433.987364,98.3008643 434.069774,98.5395764 434.237439,98.718605 C434.40226,98.8976336 434.63529,98.9970964 434.87684,98.9999409 L450.097438,98.9999409 C450.344669,99.0027781 450.580537,98.9033226 450.751046,98.7242867 C450.918712,98.5452581 451.006804,98.3037088 450.989751,98.0593149 C450.989751,98.0593149 450.893133,96.0843182 449.784878,94.0808038 C448.676616,92.0773622 446.394618,90.0028445 442.487401,90.0028445 L442.48719,90 Z" id="path-6"></path>
    </defs>
    <g id="Portfolio" stroke="none" stroke-width="1" fill="none" fill-rule="evenodd">
        <g id="Relationships" transform="translate(-330.000000, -6068.000000)">
            <g id="Image-/-Painpoint" transform="translate(330.000000, 6068.000000)">
                <rect id="Rectangle-13" fill="#E8F9FF" x="0" y="0" width="288" height="203"></rect>
                <rect id="Rectangle-13" fill="#FFFEE8" x="313" y="0" width="464" height="203"></rect>
                <rect id="Rectangle-6" fill="#CEF3FF" x="147" y="90" width="69" height="72" rx="2"></rect>
                <path d="M194.030444,128.607011 C212.236089,125.226302 242.410594,121.098278 206.612167,139.105003 C206.612167,139.105003 239.093922,121.489729 194.030444,128.607011 L194.030444,128.607011 L194.030444,128.607011 Z" id="Shape" fill="#FFFFFF"></path>
                <g id="Group-3" transform="translate(143.500000, 153.000000) scale(-1, 1) translate(-143.500000, -153.000000) translate(131.000000, 138.000000)" fill="#000000">
                    <path d="M24.9874907,5.56450029 C24.9233528,5.28933694 24.6389208,5.11520191 24.3502876,5.17502669 C23.3059628,5.39436039 22.2198049,6.0816205 21.5658972,6.55484198 C21.2828572,5.8915288 20.8799009,5.28137051 20.3501,4.731037 C20.1507188,4.52366485 19.810519,4.51037273 19.594394,4.70046443 C19.376884,4.8918833 19.362942,5.21489626 19.5623268,5.42227522 C20.1507009,6.03243351 21.9256392,7.87614605 20.3612578,12.2296408 C19.825853,12.6324201 19.5860274,13.1814264 19.5177097,13.7078368 C19.3280872,13.6958719 19.1384646,13.7822775 19.0310981,13.9457816 C18.8735428,14.1850534 18.948835,14.5000966 19.1998078,14.6489779 C19.4005846,14.7686139 19.6515466,15.0225255 19.7310364,15.1089277 C19.8969548,15.2897122 20.1716388,15.336238 20.3933321,15.2192598 C20.6136298,15.1036122 20.7195935,14.8550365 20.6470926,14.6250616 C20.6024755,14.4828263 20.245539,13.2199961 21.4613362,12.8025838 C21.6649007,12.733462 21.7652891,12.762704 21.8308369,12.7972649 C22.254699,13.0192564 22.502877,14.0707364 22.6674247,14.7672969 C22.7022796,14.9121899 22.7343503,15.0504369 22.7678131,15.1793664 C22.9574356,15.9197917 22.3076862,16.5299499 21.5059711,17.1945903 L21.3902451,17.2902997 C20.5801777,17.9655915 19.7254575,17.7675027 19.3476045,17.5441943 C19.035285,17.3594215 18.452479,16.8423251 17.8878055,16.341165 C17.4193263,15.9250799 16.9354988,15.4957231 16.4907202,15.1461327 C16.2620595,14.9666788 15.9246545,14.9972514 15.7377983,15.2152545 C15.5495714,15.433261 15.5816385,15.7549366 15.8102992,15.9330838 C16.2299852,16.2627496 16.7026405,16.6827992 17.1585556,17.0882329 C17.8152474,17.6717797 18.3813487,18.174267 18.7842944,18.4122049 C19.0812763,18.5876705 19.4424139,18.708637 19.8327954,18.7538323 C19.6473562,19.0449489 19.401973,19.2709185 19.1314865,19.3865865 C18.8930636,19.488942 18.6602232,19.4955881 18.439922,19.4078553 C17.9505263,19.2124481 16.0654731,17.7980651 12.8378032,15.2034461 L12.4348575,14.8804263 C12.2075889,14.6996418 11.870184,14.7288872 11.6805436,14.9455632 C11.4909211,15.1622391 11.5215962,15.4839181 11.7488648,15.6647196 L12.1476343,15.9837511 C13.0804165,16.7334665 13.8849158,17.3715294 14.5820485,17.9165542 C14.6141157,19.0597588 14.9571174,20.7054166 15.3237983,22.4493531 C15.7769292,24.6028069 16.3402465,27.2812759 15.9888781,28.109567 C15.7518509,28.6665363 15.3907239,28.9749504 14.97243,28.9776048 L14.9682467,28.9776048 C14.6628982,28.9776048 14.3742686,28.8061241 14.2669378,28.5615197 C14.1372699,28.2424882 13.1292026,24.5854516 12.3177431,21.6466189 C11.6721877,19.3044006 11.062897,17.0937423 10.8356356,16.336234 C10.7533724,16.0650556 10.4563905,15.9082044 10.1733398,15.9853165 C9.88890425,16.0624149 9.72438506,16.3455583 9.80526688,16.6167435 C9.90565528,16.9503977 10.0827279,17.5778194 10.3044069,18.375415 C8.23528156,19.8801886 3.66752911,25.4060175 3.62005655,25.4645492 C3.10000003,26.1012849 2.47114925,26.2381877 2.14212516,26.2621448 C1.74057157,26.2927208 1.4575209,26.1877041 1.37528272,26.114594 C1.15359302,25.9165291 0.782696699,25.5842021 1.44639162,24.6816238 C1.5119216,24.5925605 8.18785183,15.3897264 8.794287,13.9118026 C9.04246853,13.306987 9.14564818,12.8669788 9.28925088,12.2568205 C9.46911477,11.4898179 9.71450506,10.4410126 10.4116378,8.38182196 C11.7083168,4.55616693 13.5668853,2.41057406 16.8282858,0.974847443 C17.0973838,0.85653867 17.213099,0.553453684 17.0904128,0.296901351 C16.9663203,0.0416761882 16.6498104,-0.0713034838 16.3793239,0.0469916776 C12.8615359,1.59695708 10.7729218,3.9961757 9.39264825,8.06922899 C8.68016725,10.1721822 8.42781312,11.2489262 8.24374096,12.0344071 C8.10570646,12.6206423 8.01507671,13.0087887 7.7975703,13.5405078 C7.30121436,14.7515002 1.50085299,22.8337664 0.571033338,24.0966205 C-0.420286483,25.4418613 0.0621132351,26.3431465 0.643534285,26.8615598 C0.950278399,27.1367232 1.44664147,27.2909166 2.00017864,27.2909166 C2.07547083,27.2909166 2.15076303,27.2882588 2.22744727,27.28294 C2.73219121,27.2457179 3.69424224,27.0396798 4.46665289,26.0945435 C5.62252045,24.6788266 8.90194619,20.8784218 10.6056042,19.4600505 C10.8147476,20.2164358 11.0462067,21.0538806 11.2818205,21.9086127 C12.434904,26.0919232 13.1446009,28.653364 13.2770243,28.9538491 C13.5516977,29.5812946 14.229331,30 14.9682967,30 L14.9780553,30 C15.3893533,29.9973412 16.4071935,29.8471303 16.9816471,28.4952265 C17.4529104,27.3839411 16.9286635,24.8914462 16.3737485,22.2513971 C16.118596,21.0364232 15.8592602,19.7961991 15.7295852,18.803135 C16.9412062,19.719019 17.6704275,20.2095277 18.025972,20.3517732 C18.258816,20.4448249 18.5056233,20.4913507 18.7538013,20.4913507 C19.0173204,20.4913507 19.2850299,20.4368483 19.5415602,20.331835 C20.1940759,20.9260332 21.3652917,21.8286115 22.1419142,22.2141036 C22.3148036,22.3005092 22.5030269,22.3417162 22.6940593,22.3417162 C22.9882535,22.3417162 23.2908215,22.243349 23.5654842,22.0492689 C24.1915151,21.6079336 24.7227438,20.6322248 24.4954823,19.4438624 C24.2793679,18.3086549 23.5822245,17.5376367 23.1179214,17.1335302 C23.63937,16.5592736 24.0395316,15.8374628 23.809486,14.9388661 C23.7774188,14.8165724 23.7467437,14.6836409 23.7132809,14.5440498 C23.4818289,13.5656866 23.1932243,12.3467313 22.3468921,11.9040687 C22.1795781,11.8163359 21.9411624,11.7379069 21.6399794,11.744553 C22.08615,10.2092205 22.1739921,8.82542372 21.9048941,7.60105756 C22.3845454,7.22751002 23.5487653,6.38873804 24.5833101,6.17206889 C24.8677457,6.11225092 25.0503972,5.83974531 24.9876478,5.56456495 L24.9874907,5.56450029 Z M23.4398496,19.6257053 C23.5764885,20.3435345 23.2850855,20.9749276 22.9267534,21.2274984 C22.8821363,21.2594015 22.7287643,21.355111 22.6325592,21.3072579 C22.0148805,21.0015186 21.0277368,20.2517828 20.4156621,19.714755 C20.6889398,19.4223078 20.910626,19.0633864 21.0570413,18.6566255 C21.0598326,18.6499795 21.0598326,18.6420028 21.0626202,18.6340262 C21.4125858,18.5197057 21.7639291,18.3362635 22.0929889,18.0610967 L22.2059272,17.9667179 C22.2519399,17.9281687 22.2993446,17.8896195 22.348145,17.8484091 C22.6869563,18.1342068 23.2697551,18.7377157 23.4398711,19.625695 L23.4398496,19.6257053 Z" id="Page-1"></path>
                </g>
                <rect id="Rectangle-7" stroke="#3C2B4B" stroke-width="2" x="169" y="116" width="67" height="51"></rect>
                <rect id="Rectangle-7" stroke="#3C2B4B" stroke-width="2" x="188" y="144" width="33" height="23"></rect>
                <rect id="Rectangle-9" stroke="#3C2B4B" stroke-width="2" x="169" y="99" width="67" height="14"></rect>
                <rect id="Rectangle-9" stroke="#3C2B4B" stroke-width="2" x="171" y="113" width="62" height="3"></rect>
                <g id="Group-6" transform="translate(369.230953, 93.932116) rotate(-20.000000) translate(-369.230953, -93.932116) translate(344.730953, 69.932116)" fill="#000000">
                    <path d="M33.3198955,26.5109562 C32.7227399,25.9003376 31.7906164,25.9003376 31.1949522,26.5109562 L28.6592779,29.1037978 C21.090062,27.4268841 19.7850891,21.6693178 19.562498,19.9147805 L22.1345624,17.2847283 C22.731718,16.6741097 22.731718,15.7209712 22.1345624,15.1490881 L15.4989614,8.36388597 C15.2003911,8.05858428 14.8275342,7.90668451 14.4182947,7.90668451 C14.0075638,7.90668451 13.6347144,8.0585919 13.337628,8.36388597 L9.79555857,12.1377043 C8.60273911,13.4720982 7.9313119,15.226483 8.0055835,16.9422847 C8.04345008,17.4382217 8.11772914,17.9341587 8.22987479,18.3913602 C8.30415385,18.6966619 10.5048524,25.8647283 16.7673802,32.0776661 C22.8802463,38.4442499 30.0020428,40.6947993 30.3006952,40.7706698 C30.7478162,40.9225772 31.2328187,41.0000178 31.7178213,41.0000178 L31.978525,41.0000178 C33.5820758,41.0000178 35.2220166,40.3521883 36.4527179,39.1696874 L40.1069404,35.5864967 C40.4055108,35.281195 40.5540614,34.899932 40.5540614,34.5186766 C40.5540614,34.0986857 40.4055033,33.7174303 40.1069404,33.413646 L33.3198955,26.5109562 Z M35.5636054,38.2090565 C34.5466323,39.1712543 33.1896635,39.7094689 31.8709743,39.6328013 C31.494206,39.6328013 31.1557174,39.5561257 30.8157216,39.4403618 C30.7406618,39.4012734 23.6955538,37.1701907 17.7787839,31.0122785 C11.7504907,25.0073943 9.52831109,17.926388 9.52831109,17.8497971 C9.41498671,17.5415936 9.37819151,17.1567067 9.3399273,16.7718276 C9.30166271,15.4247506 9.7917475,14.0776737 10.7336683,13.0388079 L14.3129674,9.26668451 L21.056367,16.1179179 L18.4572683,18.7729682 C18.1187646,19.118759 17.9671681,19.5818301 18.0422203,20.0433772 C18.3056643,22.0444408 19.7759575,28.7031577 28.4033494,30.5882957 C28.8934496,30.7040596 29.4203224,30.5492073 29.7970908,30.1643128 L32.3594168,27.5468268 L39.2162236,34.5512422 L35.5636054,38.2090565 Z M24.5030744,12.8197731 C24.4632112,12.389967 24.8173872,12.0394425 25.2482122,11.9998017 C31.3721275,11.6873651 36.6309544,16.9943077 36.9834269,23.8600464 C37.0232901,24.2898525 36.6691141,24.640377 36.2382891,24.6800178 L36.1984259,24.6800178 C35.7660387,24.6800178 35.4532881,24.3675813 35.4134092,23.939328 C35.0622987,17.9300021 30.5482682,13.2874252 25.3279071,13.5601507 C24.8955827,13.600088 24.5030744,13.2480263 24.5030744,12.8197731 Z M40.2950654,23.7733512 C39.8501217,23.7733512 39.555455,23.4712445 39.517882,23.0571504 C39.2954175,18.982306 37.7063917,15.2096513 35.0065376,12.4552361 C32.3066094,9.73775518 28.8669081,8.34228793 25.2800953,8.53092066 C24.8727097,8.53092066 24.502897,8.22881402 24.502897,7.81471989 C24.4653388,7.39912425 24.7990356,7.06018895 25.2049493,7.02185877 C29.1992957,6.79491096 33.0446075,8.34228793 36.0408296,11.3988928 C39.000773,14.4170166 40.7748012,18.5284557 40.9970586,22.9805655 C41.0346759,23.3960857 40.7009792,23.735021 40.2950654,23.7733512 Z" id="Page-1" transform="translate(24.499982, 24.000018) scale(-1, 1) rotate(-135.000000) translate(-24.499982, -24.000018) "></path>
                </g>
                <g id="Page-1" transform="translate(498.000000, 26.000000)" fill="#000000">
                    <path d="M29.760173,0.00242160769 C13.2286816,0.00242160769 0,13.5548979 0,30.0012108 C0,46.5591471 13.3270542,60 29.760173,60 L30.239827,60 C46.6652713,60 60,46.5591471 60,30.0012108 C60,13.7293094 46.9345752,0.00242160769 30.239827,0.00242160769 C30.1716917,0.00242160769 30.0926587,-0.00302700961 30,0.00242160769 C29.9073413,-0.00302700961 29.8228525,0.00242160769 29.760173,0.00242160769 Z M29.3023215,1.41948069 L29.3023215,5.01668434 C29.2995936,5.20472094 29.3731778,5.38458112 29.5039925,5.51811759 C29.6348072,5.65165406 29.8119547,5.72523481 30,5.72523481 C30.1880453,5.72523481 30.3651928,5.65165406 30.4960075,5.51811759 C30.6268222,5.38458112 30.7004064,5.20472094 30.6976785,5.01668434 L30.6976785,1.41948069 C35.415171,1.49306144 39.8002895,2.70852169 43.6479863,4.79873965 L41.8165803,8.00358704 C41.67214,8.33060872 41.7947779,8.71211658 42.1027401,8.89196979 C42.4107024,9.07182997 42.8031396,8.9900728 43.0157222,8.70120539 L44.8471282,5.47459144 C48.749802,7.84547249 52.003914,11.1375257 54.3746254,15.0239735 L51.1478625,16.8988978 C50.967994,16.9806549 50.8290025,17.1332651 50.7663161,17.3240295 C50.7063576,17.5120661 50.72816,17.7164555 50.8289955,17.8881392 C50.9271031,18.059823 51.0960738,18.1797345 51.2895749,18.2206095 C51.4830691,18.2614846 51.684747,18.2178817 51.845541,18.0979773 L55.0940715,16.223053 C57.2307118,20.1391507 58.4679748,24.608761 58.5824639,29.3039203 L54.832442,29.3039203 C54.6443968,29.3011925 54.4645283,29.3747733 54.3337136,29.505582 C54.2001709,29.6363906 54.1238658,29.8162508 54.1238658,30.0015666 C54.1238658,30.1896032 54.2001779,30.3694634 54.3337136,30.5002721 C54.4645283,30.6310807 54.6443968,30.7019337 54.832442,30.6992129 L58.5824639,30.6992129 C58.4707237,35.4328823 57.2388746,39.8858188 55.115839,43.7800802 L51.8454712,41.8833196 C51.7446357,41.8288125 51.6328955,41.7988416 51.5184344,41.7961138 C51.1941255,41.7824888 50.9025169,41.9923268 50.8125931,42.3029957 C50.7253833,42.6163923 50.8643748,42.9488626 51.1478067,43.1041726 L54.3963372,45.0009333 C52.0171141,48.8951947 48.7304205,52.1462263 44.8465142,54.5063636 L43.0151082,51.3015162 C42.8924703,51.0698767 42.6471945,50.925443 42.3828371,50.9308916 C42.1321054,50.9417889 41.908632,51.0807739 41.791443,51.3015162 C41.6742539,51.5222585 41.6824307,51.7893244 41.8159733,51.9991625 L43.6691469,55.2040099 C39.7964732,57.3078319 35.3870057,58.5069456 30.6965134,58.5832688 L30.6965134,54.9860652 C30.6965134,54.7980286 30.6202013,54.6181684 30.4839377,54.4873597 C30.3476741,54.3538232 30.1650777,54.2829703 29.9770324,54.2884189 C29.6009419,54.3020439 29.3011564,54.609992 29.3011564,54.9860652 L29.3011564,58.5832688 C24.6191059,58.5096881 20.1957546,57.318785 16.3285228,55.2258462 L18.1816964,51.9992322 C18.31796,51.7812178 18.3234089,51.5059754 18.1953221,51.2825402 C18.0699562,51.0590772 17.8274083,50.9255407 17.5712277,50.9309893 C17.3150472,50.9337171 17.0806761,51.075423 16.9607591,51.3016139 L15.1293531,54.5064613 C11.2430747,52.1464635 7.95931139,48.8952924 5.57953011,45.001031 L8.82806063,43.1042703 C9.10058779,42.954388 9.24230722,42.6409913 9.171451,42.3357432 C9.10059477,42.030523 8.83623742,41.8125085 8.5228263,41.7961557 C8.38656271,41.7879793 8.25029913,41.8179571 8.13038215,41.8833615 L4.88185164,43.7801221 C2.75881604,39.8858607 1.50522736,35.4327846 1.39345926,30.6992547 L5.14348107,30.6992547 C5.33152635,30.7019825 5.51139483,30.6311226 5.64220955,30.5003139 C5.77575218,30.3695052 5.85205728,30.1896451 5.85205728,30.0016085 C5.85205728,29.8162997 5.77574521,29.6364325 5.64220955,29.5056238 C5.51139483,29.3748152 5.33152635,29.3012344 5.14348107,29.3039622 L1.39345926,29.3039622 C1.50519945,24.5839667 2.77521148,20.147355 4.90361921,16.2447219 L8.13038215,18.0978099 C8.29117611,18.2177213 8.49284705,18.2613242 8.68634818,18.2204421 C8.87984232,18.179567 9.04881307,18.0596556 9.1469276,17.8879718 C9.24776307,17.716288 9.26956552,17.5118986 9.20960703,17.323862 C9.1469276,17.1330976 9.00793609,16.9804875 8.82806063,16.8987303 L5.60129768,15.023806 C7.97500916,11.1377071 11.2426561,7.86176951 15.1287949,5.49674868 L16.9602009,8.70159608 C17.1536951,9.03952197 17.5815673,9.15669864 17.9195088,8.96321342 C18.0803028,8.87327984 18.2002128,8.7179489 18.2492735,8.53808174 C18.2983343,8.35822156 18.2738039,8.16745717 18.1811452,8.00394981 L16.3279717,4.77733586 C20.1897616,2.6871179 24.6045314,1.49623573 29.3006052,1.41991323 L29.3023215,1.41948069 Z" id="Fill-1"></path>
                    <path d="M29.9907805,25 C28.3530827,25 27,26.310327 27,27.9142737 C27,29.2680973 27.9625492,30.4017237 29.2542093,30.719771 L29.2542093,49.2931764 C29.2514167,49.4807547 29.3267451,49.6601766 29.4606606,49.7933876 C29.5945762,49.9238774 29.7759228,50 29.9684255,50 C30.1609282,50 30.3422749,49.9238774 30.4761904,49.7933876 C30.610106,49.6601766 30.6854344,49.4807547 30.6826418,49.2931764 L30.6826418,30.7420412 C31.087181,30.6468915 31.4554238,30.4593132 31.7762497,30.2200818 L40.8382254,37.2881088 C40.9860896,37.4050069 41.1758068,37.45666 41.3627315,37.4376258 C41.5524416,37.4158775 41.7254176,37.323449 41.8425991,37.1793673 C41.962566,37.0352856 42.0155751,36.8504215 41.9960413,36.6682785 C41.9737221,36.4834213 41.878867,36.3175844 41.7310028,36.2006863 L32.6690271,29.1326593 C32.8475812,28.7602168 32.9591775,28.3524343 32.9591775,27.9147539 C32.9591775,26.3108072 31.6339493,25.0004802 29.9907519,25.0004802 L29.9907805,25 Z M29.9907805,26.3918919 C30.8584104,26.3918919 31.5307736,27.057933 31.5307736,27.9142737 C31.5307736,28.2404983 31.4219699,28.534097 31.2406232,28.7842061 C31.1848215,28.8412945 31.1401901,28.9092606 31.1067077,28.9799409 C30.836084,29.2599478 30.4622418,29.4257778 30.0353833,29.4366554 L29.9684255,29.4366554 L29.9684255,29.4149071 C29.9544769,29.4230636 29.9377357,29.4284989 29.923787,29.4366554 L29.9014678,29.4366554 L29.8121907,29.4366554 C29.030981,29.3605328 28.4283968,28.7107838 28.4283968,27.9142737 C28.4283968,27.0579122 29.1342424,26.3918919 29.9907448,26.3918919 L29.9907805,26.3918919 Z" id="Fill-2"></path>
                </g>
                <path d="M27.016,42.232 C27.944,42.232 28.92,42.552 29.752,43.112 L29.528,45.112 L29.048,45.112 C28.92,43.656 28.216,42.952 26.888,42.952 C24.648,42.952 22.856,45.064 22.856,47.72 C22.856,50.424 24.456,52.344 26.712,52.344 C27.8,52.344 28.984,51.864 29.784,51.096 L30.12,51.512 C29.128,52.648 27.944,53.208 26.52,53.208 C23.752,53.208 21.8,50.968 21.8,47.8 C21.8,44.696 24.104,42.232 27.016,42.232 Z M38.536,52.584 L38.504,53 L36.68,53.08 C36.68,52.52 36.808,52.024 37.032,51.448 C36.392,52.52 35.448,53.16 34.536,53.16 C33.176,53.16 32.312,52.216 32.312,50.712 L32.312,47.256 C32.312,46.872 32.2,46.728 31.896,46.648 L31.176,46.456 L31.208,46.04 L33.24,45.944 C33.192,46.696 33.176,47.352 33.176,48.04 L33.176,50.568 C33.176,51.688 33.736,52.392 34.616,52.392 C35.304,52.392 36.024,51.928 36.76,51 L36.76,47.256 C36.76,46.872 36.648,46.728 36.344,46.648 L35.624,46.456 L35.656,46.04 L37.624,45.944 L37.624,51.784 C37.624,52.216 37.72,52.36 38.008,52.44 L38.536,52.584 Z M42.616,45.88 C43.304,45.88 44.088,46.056 44.648,46.328 L44.552,47.832 L44.152,47.832 C44.04,46.984 43.416,46.488 42.488,46.488 C41.576,46.488 40.952,46.952 40.952,47.64 C40.952,48.232 41.416,48.568 42.456,48.984 C43.688,49.48 44.728,49.928 44.728,51.176 C44.728,52.376 43.752,53.16 42.136,53.16 C41.448,53.16 40.6,53.016 39.96,52.76 L39.864,50.968 L40.312,50.92 C40.504,51.992 41.16,52.552 42.248,52.552 C43.208,52.552 43.864,52.104 43.864,51.32 C43.864,50.504 43.144,50.2 41.992,49.736 C41,49.336 40.088,48.856 40.088,47.8 C40.088,46.664 41.144,45.88 42.616,45.88 Z M49.864,52.088 L49.976,52.568 C49.512,52.936 48.888,53.16 48.36,53.16 C47.336,53.16 46.776,52.472 46.776,51.24 L46.776,46.712 L45.752,46.712 L45.832,46.104 L46.312,46.04 C46.664,45.992 46.712,45.832 46.744,45.576 L46.904,44.296 L47.64,44.136 L47.64,46.04 L49.768,46.04 L49.688,46.712 L47.64,46.712 L47.64,51.192 C47.64,51.992 47.976,52.44 48.584,52.44 C48.968,52.44 49.464,52.312 49.864,52.088 Z M54.392,45.88 C56.152,45.88 57.48,47.4 57.48,49.416 C57.48,51.496 56.056,53.16 54.2,53.16 C52.44,53.16 51.048,51.64 51.048,49.64 C51.048,47.56 52.552,45.88 54.392,45.88 Z M54.296,46.52 C52.984,46.52 52.008,47.752 52.008,49.496 C52.008,51.24 52.968,52.52 54.312,52.52 C55.608,52.52 56.52,51.32 56.52,49.544 C56.52,47.784 55.624,46.52 54.296,46.52 Z M70.68,52.584 L70.648,53 L67.608,53 L67.576,52.584 L68.296,52.424 C68.584,52.36 68.776,52.216 68.776,51.832 L68.776,48.408 C68.776,47.32 68.264,46.648 67.432,46.648 C66.76,46.648 65.928,47.32 65.256,48.392 L65.256,51.832 C65.256,52.184 65.384,52.344 65.688,52.424 L66.296,52.584 L66.264,53 L63.384,53 L63.352,52.584 L63.96,52.424 C64.264,52.344 64.392,52.184 64.392,51.832 L64.392,48.408 C64.392,47.32 63.88,46.648 63.048,46.648 C62.376,46.648 61.544,47.32 60.872,48.392 L60.872,51.832 C60.872,52.216 61.064,52.36 61.352,52.424 L62.072,52.584 L62.04,53 L59,53 L58.968,52.584 L59.576,52.424 C59.88,52.344 60.008,52.184 60.008,51.832 L60.008,47.256 C60.008,46.872 59.896,46.728 59.592,46.648 L58.872,46.456 L58.904,46.04 L60.92,45.944 C60.904,46.52 60.824,47.208 60.696,47.784 C61.384,46.6 62.328,45.88 63.176,45.88 C64.248,45.88 64.984,46.52 65.192,47.608 C65.864,46.536 66.744,45.88 67.56,45.88 C68.84,45.88 69.64,46.808 69.64,48.296 L69.64,51.832 C69.64,52.184 69.768,52.344 70.072,52.424 L70.68,52.584 Z M77.816,48.744 C77.816,48.984 77.8,49.224 77.768,49.448 L72.904,49.448 C72.904,51.256 73.848,52.392 75.336,52.392 C76.04,52.392 76.712,52.168 77.352,51.688 L77.656,52.072 C76.92,52.84 76.152,53.16 75.24,53.16 C73.208,53.16 71.944,51.752 71.944,49.528 C71.944,47.496 73.368,45.88 75.144,45.88 C76.712,45.88 77.816,47.064 77.816,48.744 Z M72.936,48.856 L76.568,48.696 C76.856,48.68 76.888,48.568 76.888,48.36 C76.888,47.336 76.152,46.52 75.112,46.52 C73.96,46.52 73.128,47.464 72.936,48.856 Z M83.24,45.88 C83.56,45.88 83.88,45.944 84.2,46.056 L84.024,47.24 L83.576,47.24 C83.496,46.952 83.304,46.744 83,46.744 C82.424,46.744 81.688,47.48 81.128,48.696 L81.128,51.832 C81.128,52.216 81.304,52.36 81.608,52.424 L82.36,52.584 L82.328,53 L79.256,53 L79.224,52.584 L79.832,52.424 C80.136,52.344 80.264,52.184 80.264,51.832 L80.264,47.256 C80.264,46.872 80.152,46.728 79.848,46.648 L79.128,46.456 L79.16,46.04 L81.176,45.944 C81.144,46.584 81.064,47.352 80.904,48.136 C81.448,46.744 82.152,45.88 83.24,45.88 Z M87.72,45.88 C88.408,45.88 89.192,46.056 89.752,46.328 L89.656,47.832 L89.256,47.832 C89.144,46.984 88.52,46.488 87.592,46.488 C86.68,46.488 86.056,46.952 86.056,47.64 C86.056,48.232 86.52,48.568 87.56,48.984 C88.792,49.48 89.832,49.928 89.832,51.176 C89.832,52.376 88.856,53.16 87.24,53.16 C86.552,53.16 85.704,53.016 85.064,52.76 L84.968,50.968 L85.416,50.92 C85.608,51.992 86.264,52.552 87.352,52.552 C88.312,52.552 88.968,52.104 88.968,51.32 C88.968,50.504 88.248,50.2 87.096,49.736 C86.104,49.336 85.192,48.856 85.192,47.8 C85.192,46.664 86.248,45.88 87.72,45.88 Z M104.152,46.456 L103.768,46.536 C103.464,46.6 103.304,46.792 103.224,47.064 L102.36,49.8 C101.992,50.968 101.672,52.04 101.384,53.08 L100.84,53.08 C100.552,52.168 100.248,51.256 99.96,50.456 C99.72,49.784 99.464,49.032 99.256,48.296 C99.048,49.112 98.872,49.768 98.648,50.44 C98.392,51.224 98.12,52.168 97.88,53.08 L97.336,53.08 C97,52.008 96.6,50.824 96.216,49.8 L95.224,47.16 C95.096,46.824 94.952,46.664 94.68,46.6 L94.136,46.456 L94.168,46.04 L96.968,46.04 L97,46.456 L96.44,46.552 C96.152,46.6 96.072,46.808 96.152,47.048 L96.952,49.368 C97.192,50.056 97.448,50.904 97.656,51.704 C97.848,50.952 98.184,49.768 98.424,49.048 C98.68,48.28 98.92,47.496 99.096,46.824 L99.64,46.824 C99.832,47.512 100.04,48.184 100.328,49.032 C100.616,49.832 100.872,50.712 101.144,51.704 C101.32,50.984 101.56,50.104 101.784,49.368 L102.504,47.048 C102.6,46.728 102.536,46.6 102.264,46.552 L101.72,46.456 L101.752,46.04 L104.12,46.04 L104.152,46.456 Z M108.312,45.88 C110.072,45.88 111.4,47.4 111.4,49.416 C111.4,51.496 109.976,53.16 108.12,53.16 C106.36,53.16 104.968,51.64 104.968,49.64 C104.968,47.56 106.472,45.88 108.312,45.88 Z M108.216,46.52 C106.904,46.52 105.928,47.752 105.928,49.496 C105.928,51.24 106.888,52.52 108.232,52.52 C109.528,52.52 110.44,51.32 110.44,49.544 C110.44,47.784 109.544,46.52 108.216,46.52 Z M119.976,52.584 L119.944,53 L118.12,53.08 C118.12,52.52 118.248,52.024 118.472,51.448 C117.832,52.52 116.888,53.16 115.976,53.16 C114.616,53.16 113.752,52.216 113.752,50.712 L113.752,47.256 C113.752,46.872 113.64,46.728 113.336,46.648 L112.616,46.456 L112.648,46.04 L114.68,45.944 C114.632,46.696 114.616,47.352 114.616,48.04 L114.616,50.568 C114.616,51.688 115.176,52.392 116.056,52.392 C116.744,52.392 117.464,51.928 118.2,51 L118.2,47.256 C118.2,46.872 118.088,46.728 117.784,46.648 L117.064,46.456 L117.096,46.04 L119.064,45.944 L119.064,51.784 C119.064,52.216 119.16,52.36 119.448,52.44 L119.976,52.584 Z M123.064,41.608 L123.064,51.784 C123.064,52.216 123.24,52.36 123.56,52.44 L124.152,52.584 L124.12,53 L121.144,53 L121.112,52.584 L121.704,52.44 C122.024,52.36 122.2,52.216 122.2,51.784 L122.2,42.92 C122.2,42.536 122.088,42.392 121.784,42.312 L121.064,42.12 L121.096,41.704 L123.064,41.608 Z M132.296,52.584 L132.264,53 L130.456,53.08 C130.456,52.488 130.6,51.912 130.84,51.288 C130.264,52.392 129.432,53.16 128.232,53.16 C126.616,53.16 125.448,51.72 125.448,49.768 C125.448,47.496 126.872,45.88 128.888,45.88 C129.416,45.88 129.992,46.024 130.52,46.28 L130.52,42.92 C130.52,42.536 130.408,42.392 130.104,42.312 L129.384,42.12 L129.416,41.704 L131.384,41.608 L131.384,51.784 C131.384,52.216 131.48,52.36 131.768,52.44 L132.296,52.584 Z M128.44,52.392 C129.192,52.392 129.976,51.816 130.52,50.872 L130.52,46.92 C130.04,46.68 129.48,46.552 128.936,46.552 C127.448,46.552 126.408,47.864 126.408,49.64 C126.408,51.256 127.256,52.392 128.44,52.392 Z M24.472,67.88 C25.16,67.88 25.944,68.056 26.504,68.328 L26.408,69.832 L26.008,69.832 C25.896,68.984 25.272,68.488 24.344,68.488 C23.432,68.488 22.808,68.952 22.808,69.64 C22.808,70.232 23.272,70.568 24.312,70.984 C25.544,71.48 26.584,71.928 26.584,73.176 C26.584,74.376 25.608,75.16 23.992,75.16 C23.304,75.16 22.456,75.016 21.816,74.76 L21.72,72.968 L22.168,72.92 C22.36,73.992 23.016,74.552 24.104,74.552 C25.064,74.552 25.72,74.104 25.72,73.32 C25.72,72.504 25,72.2 23.848,71.736 C22.856,71.336 21.944,70.856 21.944,69.8 C21.944,68.664 23,67.88 24.472,67.88 Z M35.48,74.584 L35.448,75 L32.408,75 L32.376,74.584 L33.096,74.424 C33.384,74.36 33.576,74.216 33.576,73.832 L33.576,70.44 C33.576,69.336 33.016,68.648 32.136,68.648 C31.4,68.648 30.52,69.32 29.848,70.392 L29.848,73.832 C29.848,74.216 30.04,74.36 30.328,74.424 L31.048,74.584 L31.016,75 L27.976,75 L27.944,74.584 L28.552,74.424 C28.856,74.344 28.984,74.184 28.984,73.832 L28.984,64.92 C28.984,64.536 28.872,64.392 28.568,64.312 L27.848,64.12 L27.88,63.704 L29.848,63.608 L29.848,67.144 C29.848,67.992 29.768,68.952 29.656,69.816 C30.344,68.616 31.336,67.88 32.264,67.88 C33.608,67.88 34.44,68.824 34.44,70.328 L34.44,73.832 C34.44,74.184 34.568,74.344 34.872,74.424 L35.48,74.584 Z M40.056,67.88 C41.816,67.88 43.144,69.4 43.144,71.416 C43.144,73.496 41.72,75.16 39.864,75.16 C38.104,75.16 36.712,73.64 36.712,71.64 C36.712,69.56 38.216,67.88 40.056,67.88 Z M39.96,68.52 C38.648,68.52 37.672,69.752 37.672,71.496 C37.672,73.24 38.632,74.52 39.976,74.52 C41.272,74.52 42.184,73.32 42.184,71.544 C42.184,69.784 41.288,68.52 39.96,68.52 Z M53.992,68.456 L53.608,68.536 C53.304,68.6 53.144,68.792 53.064,69.064 L52.2,71.8 C51.832,72.968 51.512,74.04 51.224,75.08 L50.68,75.08 C50.392,74.168 50.088,73.256 49.8,72.456 C49.56,71.784 49.304,71.032 49.096,70.296 C48.888,71.112 48.712,71.768 48.488,72.44 C48.232,73.224 47.96,74.168 47.72,75.08 L47.176,75.08 C46.84,74.008 46.44,72.824 46.056,71.8 L45.064,69.16 C44.936,68.824 44.792,68.664 44.52,68.6 L43.976,68.456 L44.008,68.04 L46.808,68.04 L46.84,68.456 L46.28,68.552 C45.992,68.6 45.912,68.808 45.992,69.048 L46.792,71.368 C47.032,72.056 47.288,72.904 47.496,73.704 C47.688,72.952 48.024,71.768 48.264,71.048 C48.52,70.28 48.76,69.496 48.936,68.824 L49.48,68.824 C49.672,69.512 49.88,70.184 50.168,71.032 C50.456,71.832 50.712,72.712 50.984,73.704 C51.16,72.984 51.4,72.104 51.624,71.368 L52.344,69.048 C52.44,68.728 52.376,68.6 52.104,68.552 L51.56,68.456 L51.592,68.04 L53.96,68.04 L53.992,68.456 Z M65.448,74.584 L65.416,75 L63.592,75.08 C63.592,74.52 63.72,74.024 63.944,73.448 C63.304,74.52 62.36,75.16 61.448,75.16 C60.088,75.16 59.224,74.216 59.224,72.712 L59.224,69.256 C59.224,68.872 59.112,68.728 58.808,68.648 L58.088,68.456 L58.12,68.04 L60.152,67.944 C60.104,68.696 60.088,69.352 60.088,70.04 L60.088,72.568 C60.088,73.688 60.648,74.392 61.528,74.392 C62.216,74.392 62.936,73.928 63.672,73 L63.672,69.256 C63.672,68.872 63.56,68.728 63.256,68.648 L62.536,68.456 L62.568,68.04 L64.536,67.944 L64.536,73.784 C64.536,74.216 64.632,74.36 64.92,74.44 L65.448,74.584 Z M70.872,67.88 C72.472,67.88 73.608,69.288 73.608,71.288 C73.608,73.56 72.312,75.16 70.472,75.16 C69.832,75.16 69.176,74.92 68.584,74.504 L68.584,77.736 C68.584,78.12 68.776,78.264 69.064,78.328 L69.784,78.488 L69.752,78.904 L66.712,78.904 L66.68,78.488 L67.288,78.328 C67.592,78.248 67.72,78.088 67.72,77.736 L67.72,69.256 C67.72,68.872 67.608,68.728 67.304,68.648 L66.584,68.456 L66.616,68.04 L68.632,67.944 C68.632,68.52 68.52,69.16 68.296,69.8 C68.984,68.6 69.88,67.88 70.872,67.88 Z M70.456,74.488 C71.736,74.488 72.648,73.24 72.648,71.464 C72.648,69.816 71.848,68.648 70.712,68.648 C69.96,68.648 69.16,69.272 68.584,70.312 L68.584,73.8 C69.176,74.248 69.832,74.488 70.456,74.488 Z M82.296,74.088 L82.408,74.568 C81.944,74.936 81.32,75.16 80.792,75.16 C79.768,75.16 79.208,74.472 79.208,73.24 L79.208,68.712 L78.184,68.712 L78.264,68.104 L78.744,68.04 C79.096,67.992 79.144,67.832 79.176,67.576 L79.336,66.296 L80.072,66.136 L80.072,68.04 L82.2,68.04 L82.12,68.712 L80.072,68.712 L80.072,73.192 C80.072,73.992 80.408,74.44 81.016,74.44 C81.4,74.44 81.896,74.312 82.296,74.088 Z M86.824,67.88 C88.584,67.88 89.912,69.4 89.912,71.416 C89.912,73.496 88.488,75.16 86.632,75.16 C84.872,75.16 83.48,73.64 83.48,71.64 C83.48,69.56 84.984,67.88 86.824,67.88 Z M86.728,68.52 C85.416,68.52 84.44,69.752 84.44,71.496 C84.44,73.24 85.4,74.52 86.744,74.52 C88.04,74.52 88.952,73.32 88.952,71.544 C88.952,69.784 88.056,68.52 86.728,68.52 Z M95.384,70.136 L95.192,68.68 C96.008,68.2 96.984,67.88 97.864,67.88 C99.384,67.88 100.344,68.808 100.344,70.568 L100.344,73.784 C100.344,74.216 100.44,74.36 100.728,74.44 L101.256,74.584 L101.224,75 L99.4,75.08 C99.4,74.44 99.56,73.72 99.816,73.016 C99.192,74.456 98.216,75.16 97,75.16 C95.8,75.16 95,74.456 95,73.432 C95,72.072 96.392,71.128 98.152,71.128 C98.616,71.128 99.144,71.192 99.48,71.272 L99.48,70.616 C99.48,69.208 98.84,68.456 97.736,68.456 C96.696,68.456 95.912,69.128 95.816,70.136 L95.384,70.136 Z M98.344,71.704 C96.952,71.704 95.96,72.36 95.96,73.336 C95.96,74.008 96.424,74.488 97.16,74.488 C98.36,74.488 99.48,73.208 99.48,71.816 C99.096,71.752 98.712,71.704 98.344,71.704 Z M109.816,67.88 C111.416,67.88 112.552,69.288 112.552,71.288 C112.552,73.672 111.224,75.16 109.096,75.16 C108.408,75.16 107.464,74.92 106.664,74.536 L106.664,64.92 C106.664,64.536 106.552,64.392 106.248,64.312 L105.528,64.12 L105.56,63.704 L107.528,63.608 L107.528,66.952 C107.528,67.8 107.464,68.664 107.336,69.464 C107.944,68.472 108.872,67.88 109.816,67.88 Z M109.24,74.488 C110.68,74.488 111.592,73.32 111.592,71.464 C111.592,69.816 110.792,68.648 109.656,68.648 C108.888,68.648 108.072,69.224 107.528,70.136 L107.528,73.928 C108.056,74.296 108.648,74.488 109.24,74.488 Z M114.488,70.136 L114.296,68.68 C115.112,68.2 116.088,67.88 116.968,67.88 C118.488,67.88 119.448,68.808 119.448,70.568 L119.448,73.784 C119.448,74.216 119.544,74.36 119.832,74.44 L120.36,74.584 L120.328,75 L118.504,75.08 C118.504,74.44 118.664,73.72 118.92,73.016 C118.296,74.456 117.32,75.16 116.104,75.16 C114.904,75.16 114.104,74.456 114.104,73.432 C114.104,72.072 115.496,71.128 117.256,71.128 C117.72,71.128 118.248,71.192 118.584,71.272 L118.584,70.616 C118.584,69.208 117.944,68.456 116.84,68.456 C115.8,68.456 115.016,69.128 114.92,70.136 L114.488,70.136 Z M117.448,71.704 C116.056,71.704 115.064,72.36 115.064,73.336 C115.064,74.008 115.528,74.488 116.264,74.488 C117.464,74.488 118.584,73.208 118.584,71.816 C118.2,71.752 117.816,71.704 117.448,71.704 Z M129.048,74.584 L129.016,75 L125.976,75 L125.944,74.584 L126.664,74.424 C126.952,74.36 127.144,74.216 127.144,73.832 L127.144,70.408 C127.144,69.32 126.6,68.648 125.736,68.648 C125.016,68.648 124.168,69.32 123.496,70.392 L123.496,73.832 C123.496,74.216 123.688,74.36 123.976,74.424 L124.696,74.584 L124.664,75 L121.624,75 L121.592,74.584 L122.2,74.424 C122.504,74.344 122.632,74.184 122.632,73.832 L122.632,69.256 C122.632,68.872 122.52,68.728 122.216,68.648 L121.496,68.456 L121.528,68.04 L123.544,67.944 C123.528,68.52 123.448,69.208 123.32,69.784 C124.008,68.6 124.984,67.88 125.864,67.88 C127.176,67.88 128.008,68.808 128.008,70.296 L128.008,73.832 C128.008,74.184 128.136,74.344 128.44,74.424 L129.048,74.584 Z M137.384,74.584 L137.352,75 L135.688,75 C135.512,74.616 135.176,74.008 134.776,73.384 C133.96,72.104 133.496,71.448 132.84,71.448 C132.648,71.448 132.376,71.48 132.088,71.544 L132.088,73.832 C132.088,74.216 132.28,74.36 132.568,74.424 L133.288,74.584 L133.256,75 L130.216,75 L130.184,74.584 L130.792,74.424 C131.096,74.344 131.224,74.184 131.224,73.832 L131.224,64.92 C131.224,64.536 131.112,64.392 130.808,64.312 L130.088,64.12 L130.12,63.704 L132.088,63.608 L132.088,71.064 C132.44,70.936 132.856,70.84 133.144,70.84 C133.256,70.84 133.352,70.856 133.448,70.872 L134.904,68.936 C135.048,68.744 135.048,68.6 134.792,68.552 L134.264,68.456 L134.296,68.04 L136.776,68.04 L136.808,68.456 L136.504,68.536 C136.088,68.648 135.816,68.872 135.544,69.224 L134.072,71.144 C134.408,71.416 134.776,71.864 135.288,72.6 L135.976,73.592 C136.344,74.12 136.584,74.328 136.984,74.456 L137.384,74.584 Z M139.288,73.48 C139.736,73.48 140.072,73.8 140.072,74.264 C140.072,74.712 139.72,75.08 139.272,75.08 C138.824,75.08 138.472,74.776 138.472,74.328 C138.472,73.864 138.824,73.48 139.288,73.48 Z" id="Customers-would-show" fill="#363636"></path>
                <path d="M520.016,116.232 C522.896,116.232 524.944,118.456 524.944,121.608 C524.944,124.76 522.736,127.208 519.856,127.208 C516.912,127.208 514.8,124.984 514.8,121.832 C514.8,118.68 517.072,116.232 520.016,116.232 Z M519.936,116.952 C517.552,116.952 515.856,118.92 515.856,121.72 C515.856,124.408 517.632,126.488 519.936,126.488 C522.24,126.488 523.888,124.52 523.888,121.72 C523.888,119.032 522.16,116.952 519.936,116.952 Z M533.952,126.584 L533.92,127 L530.88,127 L530.848,126.584 L531.568,126.424 C531.856,126.36 532.048,126.216 532.048,125.832 L532.048,122.408 C532.048,121.32 531.504,120.648 530.64,120.648 C529.92,120.648 529.072,121.32 528.4,122.392 L528.4,125.832 C528.4,126.216 528.592,126.36 528.88,126.424 L529.6,126.584 L529.568,127 L526.528,127 L526.496,126.584 L527.104,126.424 C527.408,126.344 527.536,126.184 527.536,125.832 L527.536,121.256 C527.536,120.872 527.424,120.728 527.12,120.648 L526.4,120.456 L526.432,120.04 L528.448,119.944 C528.432,120.52 528.352,121.208 528.224,121.784 C528.912,120.6 529.888,119.88 530.768,119.88 C532.08,119.88 532.912,120.808 532.912,122.296 L532.912,125.832 C532.912,126.184 533.04,126.344 533.344,126.424 L533.952,126.584 Z M536.944,115.608 L536.944,125.784 C536.944,126.216 537.12,126.36 537.44,126.44 L538.032,126.584 L538,127 L535.024,127 L534.992,126.584 L535.584,126.44 C535.904,126.36 536.08,126.216 536.08,125.784 L536.08,116.92 C536.08,116.536 535.968,116.392 535.664,116.312 L534.944,116.12 L534.976,115.704 L536.944,115.608 Z M546.304,120.456 L545.92,120.536 C545.616,120.6 545.504,120.76 545.376,121.064 L544.16,123.96 C543.2,126.248 542.32,128.76 541.728,130.712 L540.016,130.616 L539.968,130.2 L540.464,130.072 C540.768,129.992 540.96,129.864 541.152,129.416 L542.224,126.92 C541.856,125.896 541.472,124.952 540.992,123.816 L539.856,121.144 C539.696,120.776 539.6,120.648 539.328,120.584 L538.768,120.456 L538.8,120.04 L541.536,120.04 L541.568,120.456 L541.008,120.552 C540.736,120.6 540.688,120.808 540.784,121.048 L541.808,123.544 C542.16,124.408 542.432,125.112 542.704,125.928 C543.024,125.048 543.296,124.344 543.632,123.512 L544.64,121.048 C544.752,120.776 544.688,120.6 544.416,120.552 L543.872,120.456 L543.904,120.04 L546.272,120.04 L546.304,120.456 Z M554.464,126.088 L554.576,126.568 C554.112,126.936 553.488,127.16 552.96,127.16 C551.936,127.16 551.376,126.472 551.376,125.24 L551.376,120.712 L550.352,120.712 L550.432,120.104 L550.912,120.04 C551.264,119.992 551.312,119.832 551.344,119.576 L551.504,118.296 L552.24,118.136 L552.24,120.04 L554.368,120.04 L554.288,120.712 L552.24,120.712 L552.24,125.192 C552.24,125.992 552.576,126.44 553.184,126.44 C553.568,126.44 554.064,126.312 554.464,126.088 Z M558.992,119.88 C560.752,119.88 562.08,121.4 562.08,123.416 C562.08,125.496 560.656,127.16 558.8,127.16 C557.04,127.16 555.648,125.64 555.648,123.64 C555.648,121.56 557.152,119.88 558.992,119.88 Z M558.896,120.52 C557.584,120.52 556.608,121.752 556.608,123.496 C556.608,125.24 557.568,126.52 558.912,126.52 C560.208,126.52 561.12,125.32 561.12,123.544 C561.12,121.784 560.224,120.52 558.896,120.52 Z M572.96,122.744 C572.96,122.984 572.944,123.224 572.912,123.448 L568.048,123.448 C568.048,125.256 568.992,126.392 570.48,126.392 C571.184,126.392 571.856,126.168 572.496,125.688 L572.8,126.072 C572.064,126.84 571.296,127.16 570.384,127.16 C568.352,127.16 567.088,125.752 567.088,123.528 C567.088,121.496 568.512,119.88 570.288,119.88 C571.856,119.88 572.96,121.064 572.96,122.744 Z M568.08,122.856 L571.712,122.696 C572,122.68 572.032,122.568 572.032,122.36 C572.032,121.336 571.296,120.52 570.256,120.52 C569.104,120.52 568.272,121.464 568.08,122.856 Z M581.824,126.584 L581.792,127 L578.752,127 L578.72,126.584 L579.44,126.424 C579.728,126.36 579.92,126.216 579.92,125.832 L579.92,122.408 C579.92,121.32 579.376,120.648 578.512,120.648 C577.792,120.648 576.944,121.32 576.272,122.392 L576.272,125.832 C576.272,126.216 576.464,126.36 576.752,126.424 L577.472,126.584 L577.44,127 L574.4,127 L574.368,126.584 L574.976,126.424 C575.28,126.344 575.408,126.184 575.408,125.832 L575.408,121.256 C575.408,120.872 575.296,120.728 574.992,120.648 L574.272,120.456 L574.304,120.04 L576.32,119.944 C576.304,120.52 576.224,121.208 576.096,121.784 C576.784,120.6 577.76,119.88 578.64,119.88 C579.952,119.88 580.784,120.808 580.784,122.296 L580.784,125.832 C580.784,126.184 580.912,126.344 581.216,126.424 L581.824,126.584 Z M589.904,126.584 L589.872,127 L588.064,127.08 C588.064,126.488 588.208,125.912 588.448,125.288 C587.872,126.392 587.04,127.16 585.84,127.16 C584.224,127.16 583.056,125.72 583.056,123.768 C583.056,121.496 584.48,119.88 586.496,119.88 C587.024,119.88 587.6,120.024 588.128,120.28 L588.128,116.92 C588.128,116.536 588.016,116.392 587.712,116.312 L586.992,116.12 L587.024,115.704 L588.992,115.608 L588.992,125.784 C588.992,126.216 589.088,126.36 589.376,126.44 L589.904,126.584 Z M586.048,126.392 C586.8,126.392 587.584,125.816 588.128,124.872 L588.128,120.92 C587.648,120.68 587.088,120.552 586.544,120.552 C585.056,120.552 584.016,121.864 584.016,123.64 C584.016,125.256 584.864,126.392 586.048,126.392 Z M601.808,126.584 L601.776,127 L599.952,127.08 C599.952,126.52 600.08,126.024 600.304,125.448 C599.664,126.52 598.72,127.16 597.808,127.16 C596.448,127.16 595.584,126.216 595.584,124.712 L595.584,121.256 C595.584,120.872 595.472,120.728 595.168,120.648 L594.448,120.456 L594.48,120.04 L596.512,119.944 C596.464,120.696 596.448,121.352 596.448,122.04 L596.448,124.568 C596.448,125.688 597.008,126.392 597.888,126.392 C598.576,126.392 599.296,125.928 600.032,125 L600.032,121.256 C600.032,120.872 599.92,120.728 599.616,120.648 L598.896,120.456 L598.928,120.04 L600.896,119.944 L600.896,125.784 C600.896,126.216 600.992,126.36 601.28,126.44 L601.808,126.584 Z M607.232,119.88 C608.832,119.88 609.968,121.288 609.968,123.288 C609.968,125.56 608.672,127.16 606.832,127.16 C606.192,127.16 605.536,126.92 604.944,126.504 L604.944,129.736 C604.944,130.12 605.136,130.264 605.424,130.328 L606.144,130.488 L606.112,130.904 L603.072,130.904 L603.04,130.488 L603.648,130.328 C603.952,130.248 604.08,130.088 604.08,129.736 L604.08,121.256 C604.08,120.872 603.968,120.728 603.664,120.648 L602.944,120.456 L602.976,120.04 L604.992,119.944 C604.992,120.52 604.88,121.16 604.656,121.8 C605.344,120.6 606.24,119.88 607.232,119.88 Z M606.816,126.488 C608.096,126.488 609.008,125.24 609.008,123.464 C609.008,121.816 608.208,120.648 607.072,120.648 C606.32,120.648 605.52,121.272 604.944,122.312 L604.944,125.8 C605.536,126.248 606.192,126.488 606.816,126.488 Z M618.656,126.088 L618.768,126.568 C618.304,126.936 617.68,127.16 617.152,127.16 C616.128,127.16 615.568,126.472 615.568,125.24 L615.568,120.712 L614.544,120.712 L614.624,120.104 L615.104,120.04 C615.456,119.992 615.504,119.832 615.536,119.576 L615.696,118.296 L616.432,118.136 L616.432,120.04 L618.56,120.04 L618.48,120.712 L616.432,120.712 L616.432,125.192 C616.432,125.992 616.768,126.44 617.376,126.44 C617.76,126.44 618.256,126.312 618.656,126.088 Z M620.336,122.136 L620.144,120.68 C620.96,120.2 621.936,119.88 622.816,119.88 C624.336,119.88 625.296,120.808 625.296,122.568 L625.296,125.784 C625.296,126.216 625.392,126.36 625.68,126.44 L626.208,126.584 L626.176,127 L624.352,127.08 C624.352,126.44 624.512,125.72 624.768,125.016 C624.144,126.456 623.168,127.16 621.952,127.16 C620.752,127.16 619.952,126.456 619.952,125.432 C619.952,124.072 621.344,123.128 623.104,123.128 C623.568,123.128 624.096,123.192 624.432,123.272 L624.432,122.616 C624.432,121.208 623.792,120.456 622.688,120.456 C621.648,120.456 620.864,121.128 620.768,122.136 L620.336,122.136 Z M623.296,123.704 C621.904,123.704 620.912,124.36 620.912,125.336 C620.912,126.008 621.376,126.488 622.112,126.488 C623.312,126.488 624.432,125.208 624.432,123.816 C624.048,123.752 623.664,123.704 623.296,123.704 Z M629.168,115.608 L629.168,125.784 C629.168,126.216 629.344,126.36 629.664,126.44 L630.256,126.584 L630.224,127 L627.248,127 L627.216,126.584 L627.808,126.44 C628.128,126.36 628.304,126.216 628.304,125.784 L628.304,116.92 C628.304,116.536 628.192,116.392 627.888,116.312 L627.168,116.12 L627.2,115.704 L629.168,115.608 Z M638.656,126.584 L638.624,127 L636.96,127 C636.784,126.616 636.448,126.008 636.048,125.384 C635.232,124.104 634.768,123.448 634.112,123.448 C633.92,123.448 633.648,123.48 633.36,123.544 L633.36,125.832 C633.36,126.216 633.552,126.36 633.84,126.424 L634.56,126.584 L634.528,127 L631.488,127 L631.456,126.584 L632.064,126.424 C632.368,126.344 632.496,126.184 632.496,125.832 L632.496,116.92 C632.496,116.536 632.384,116.392 632.08,116.312 L631.36,116.12 L631.392,115.704 L633.36,115.608 L633.36,123.064 C633.712,122.936 634.128,122.84 634.416,122.84 C634.528,122.84 634.624,122.856 634.72,122.872 L636.176,120.936 C636.32,120.744 636.32,120.6 636.064,120.552 L635.536,120.456 L635.568,120.04 L638.048,120.04 L638.08,120.456 L637.776,120.536 C637.36,120.648 637.088,120.872 636.816,121.224 L635.344,123.144 C635.68,123.416 636.048,123.864 636.56,124.6 L637.248,125.592 C637.616,126.12 637.856,126.328 638.256,126.456 L638.656,126.584 Z M640.976,116.792 C641.392,116.792 641.696,117.096 641.696,117.528 C641.696,117.944 641.376,118.28 640.96,118.28 C640.544,118.28 640.224,117.992 640.224,117.576 C640.224,117.144 640.544,116.792 640.976,116.792 Z M641.504,119.944 L641.504,125.784 C641.504,126.216 641.68,126.36 642,126.44 L642.592,126.584 L642.56,127 L639.584,127 L639.552,126.584 L640.144,126.44 C640.464,126.36 640.64,126.216 640.64,125.784 L640.64,121.256 C640.64,120.872 640.528,120.728 640.224,120.648 L639.504,120.456 L639.536,120.04 L641.504,119.944 Z M651.312,126.584 L651.28,127 L648.24,127 L648.208,126.584 L648.928,126.424 C649.216,126.36 649.408,126.216 649.408,125.832 L649.408,122.408 C649.408,121.32 648.864,120.648 648,120.648 C647.28,120.648 646.432,121.32 645.76,122.392 L645.76,125.832 C645.76,126.216 645.952,126.36 646.24,126.424 L646.96,126.584 L646.928,127 L643.888,127 L643.856,126.584 L644.464,126.424 C644.768,126.344 644.896,126.184 644.896,125.832 L644.896,121.256 C644.896,120.872 644.784,120.728 644.48,120.648 L643.76,120.456 L643.792,120.04 L645.808,119.944 C645.792,120.52 645.712,121.208 645.584,121.784 C646.272,120.6 647.248,119.88 648.128,119.88 C649.44,119.88 650.272,120.808 650.272,122.296 L650.272,125.832 C650.272,126.184 650.4,126.344 650.704,126.424 L651.312,126.584 Z M654.864,126.344 L656.32,126.44 C657.776,126.536 658.704,127.304 658.704,128.392 C658.704,129.72 657.312,130.696 655.36,130.696 C653.568,130.696 652.32,129.88 652.32,128.808 C652.32,128.056 652.912,127.416 653.76,127 C653.312,126.808 652.976,126.424 652.976,125.96 C652.976,125.4 653.44,124.936 653.888,124.648 C653.12,124.216 652.608,123.416 652.608,122.488 C652.608,121.032 653.872,119.88 655.424,119.88 C656.192,119.88 656.864,120.168 657.344,120.616 L657.552,119.992 L658.944,120.04 L658.976,120.456 L658.24,120.648 C657.968,120.712 657.808,120.872 657.712,121.096 C657.968,121.48 658.096,121.928 658.096,122.424 C658.096,123.912 656.864,125.016 655.328,125.016 C654.992,125.016 654.688,124.968 654.384,124.872 C654.016,125.176 653.84,125.448 653.84,125.736 C653.84,126.072 654.112,126.296 654.864,126.344 Z M655.392,120.52 C654.336,120.52 653.568,121.352 653.568,122.472 C653.568,123.592 654.32,124.376 655.36,124.376 C656.416,124.376 657.136,123.56 657.136,122.424 C657.136,121.288 656.416,120.52 655.392,120.52 Z M655.472,130.056 C656.848,130.056 657.776,129.416 657.776,128.568 C657.776,127.816 657.04,127.304 655.808,127.224 L654.56,127.144 C653.792,127.512 653.28,128.072 653.28,128.68 C653.28,129.48 654.16,130.056 655.472,130.056 Z M667.12,126.088 L667.232,126.568 C666.768,126.936 666.144,127.16 665.616,127.16 C664.592,127.16 664.032,126.472 664.032,125.24 L664.032,120.712 L663.008,120.712 L663.088,120.104 L663.568,120.04 C663.92,119.992 663.968,119.832 664,119.576 L664.16,118.296 L664.896,118.136 L664.896,120.04 L667.024,120.04 L666.944,120.712 L664.896,120.712 L664.896,125.192 C664.896,125.992 665.232,126.44 665.84,126.44 C666.224,126.44 666.72,126.312 667.12,126.088 Z M671.648,119.88 C673.408,119.88 674.736,121.4 674.736,123.416 C674.736,125.496 673.312,127.16 671.456,127.16 C669.696,127.16 668.304,125.64 668.304,123.64 C668.304,121.56 669.808,119.88 671.648,119.88 Z M671.552,120.52 C670.24,120.52 669.264,121.752 669.264,123.496 C669.264,125.24 670.224,126.52 671.568,126.52 C672.864,126.52 673.776,125.32 673.776,123.544 C673.776,121.784 672.88,120.52 671.552,120.52 Z M680.208,122.136 L680.016,120.68 C680.832,120.2 681.808,119.88 682.688,119.88 C684.208,119.88 685.168,120.808 685.168,122.568 L685.168,125.784 C685.168,126.216 685.264,126.36 685.552,126.44 L686.08,126.584 L686.048,127 L684.224,127.08 C684.224,126.44 684.384,125.72 684.64,125.016 C684.016,126.456 683.04,127.16 681.824,127.16 C680.624,127.16 679.824,126.456 679.824,125.432 C679.824,124.072 681.216,123.128 682.976,123.128 C683.44,123.128 683.968,123.192 684.304,123.272 L684.304,122.616 C684.304,121.208 683.664,120.456 682.56,120.456 C681.52,120.456 680.736,121.128 680.64,122.136 L680.208,122.136 Z M683.168,123.704 C681.776,123.704 680.784,124.36 680.784,125.336 C680.784,126.008 681.248,126.488 681.984,126.488 C683.184,126.488 684.304,125.208 684.304,123.816 C683.92,123.752 683.536,123.704 683.168,123.704 Z M694.272,119.88 C695.056,119.88 695.792,120.088 696.416,120.472 L696.24,122.184 L695.808,122.184 C695.664,121.064 695.136,120.52 694.208,120.52 C692.848,120.52 691.76,121.88 691.76,123.576 C691.76,125.224 692.736,126.392 694.112,126.392 C694.864,126.392 695.552,126.136 696.192,125.592 L696.496,125.976 C695.76,126.776 694.944,127.16 694.016,127.16 C692.128,127.16 690.8,125.704 690.8,123.656 C690.8,121.656 692.432,119.88 694.272,119.88 Z M698.4,122.136 L698.208,120.68 C699.024,120.2 700,119.88 700.88,119.88 C702.4,119.88 703.36,120.808 703.36,122.568 L703.36,125.784 C703.36,126.216 703.456,126.36 703.744,126.44 L704.272,126.584 L704.24,127 L702.416,127.08 C702.416,126.44 702.576,125.72 702.832,125.016 C702.208,126.456 701.232,127.16 700.016,127.16 C698.816,127.16 698.016,126.456 698.016,125.432 C698.016,124.072 699.408,123.128 701.168,123.128 C701.632,123.128 702.16,123.192 702.496,123.272 L702.496,122.616 C702.496,121.208 701.856,120.456 700.752,120.456 C699.712,120.456 698.928,121.128 698.832,122.136 L698.4,122.136 Z M701.36,123.704 C699.968,123.704 698.976,124.36 698.976,125.336 C698.976,126.008 699.44,126.488 700.176,126.488 C701.376,126.488 702.496,125.208 702.496,123.816 C702.112,123.752 701.728,123.704 701.36,123.704 Z M707.232,115.608 L707.232,125.784 C707.232,126.216 707.408,126.36 707.728,126.44 L708.32,126.584 L708.288,127 L705.312,127 L705.28,126.584 L705.872,126.44 C706.192,126.36 706.368,126.216 706.368,125.784 L706.368,116.92 C706.368,116.536 706.256,116.392 705.952,116.312 L705.232,116.12 L705.264,115.704 L707.232,115.608 Z M711.376,115.608 L711.376,125.784 C711.376,126.216 711.552,126.36 711.872,126.44 L712.464,126.584 L712.432,127 L709.456,127 L709.424,126.584 L710.016,126.44 C710.336,126.36 710.512,126.216 710.512,125.784 L710.512,116.92 C710.512,116.536 710.4,116.392 710.096,116.312 L709.376,116.12 L709.408,115.704 L711.376,115.608 Z M717.568,123.4 L713.84,123.4 L713.888,122.632 L717.616,122.632 L717.568,123.4 Z M518.192,141.88 C518.976,141.88 519.712,142.088 520.336,142.472 L520.16,144.184 L519.728,144.184 C519.584,143.064 519.056,142.52 518.128,142.52 C516.768,142.52 515.68,143.88 515.68,145.576 C515.68,147.224 516.656,148.392 518.032,148.392 C518.784,148.392 519.472,148.136 520.112,147.592 L520.416,147.976 C519.68,148.776 518.864,149.16 517.936,149.16 C516.048,149.16 514.72,147.704 514.72,145.656 C514.72,143.656 516.352,141.88 518.192,141.88 Z M527.728,144.744 C527.728,144.984 527.712,145.224 527.68,145.448 L522.816,145.448 C522.816,147.256 523.76,148.392 525.248,148.392 C525.952,148.392 526.624,148.168 527.264,147.688 L527.568,148.072 C526.832,148.84 526.064,149.16 525.152,149.16 C523.12,149.16 521.856,147.752 521.856,145.528 C521.856,143.496 523.28,141.88 525.056,141.88 C526.624,141.88 527.728,143.064 527.728,144.744 Z M522.848,144.856 L526.48,144.696 C526.768,144.68 526.8,144.568 526.8,144.36 C526.8,143.336 526.064,142.52 525.024,142.52 C523.872,142.52 523.04,143.464 522.848,144.856 Z M536.592,148.584 L536.56,149 L533.52,149 L533.488,148.584 L534.208,148.424 C534.496,148.36 534.688,148.216 534.688,147.832 L534.688,144.408 C534.688,143.32 534.144,142.648 533.28,142.648 C532.56,142.648 531.712,143.32 531.04,144.392 L531.04,147.832 C531.04,148.216 531.232,148.36 531.52,148.424 L532.24,148.584 L532.208,149 L529.168,149 L529.136,148.584 L529.744,148.424 C530.048,148.344 530.176,148.184 530.176,147.832 L530.176,143.256 C530.176,142.872 530.064,142.728 529.76,142.648 L529.04,142.456 L529.072,142.04 L531.088,141.944 C531.072,142.52 530.992,143.208 530.864,143.784 C531.552,142.6 532.528,141.88 533.408,141.88 C534.72,141.88 535.552,142.808 535.552,144.296 L535.552,147.832 C535.552,148.184 535.68,148.344 535.984,148.424 L536.592,148.584 Z M541.552,148.088 L541.664,148.568 C541.2,148.936 540.576,149.16 540.048,149.16 C539.024,149.16 538.464,148.472 538.464,147.24 L538.464,142.712 L537.44,142.712 L537.52,142.104 L538,142.04 C538.352,141.992 538.4,141.832 538.432,141.576 L538.592,140.296 L539.328,140.136 L539.328,142.04 L541.456,142.04 L541.376,142.712 L539.328,142.712 L539.328,147.192 C539.328,147.992 539.664,148.44 540.272,148.44 C540.656,148.44 541.152,148.312 541.552,148.088 Z M548.64,144.744 C548.64,144.984 548.624,145.224 548.592,145.448 L543.728,145.448 C543.728,147.256 544.672,148.392 546.16,148.392 C546.864,148.392 547.536,148.168 548.176,147.688 L548.48,148.072 C547.744,148.84 546.976,149.16 546.064,149.16 C544.032,149.16 542.768,147.752 542.768,145.528 C542.768,143.496 544.192,141.88 545.968,141.88 C547.536,141.88 548.64,143.064 548.64,144.744 Z M543.76,144.856 L547.392,144.696 C547.68,144.68 547.712,144.568 547.712,144.36 C547.712,143.336 546.976,142.52 545.936,142.52 C544.784,142.52 543.952,143.464 543.76,144.856 Z M554.064,141.88 C554.384,141.88 554.704,141.944 555.024,142.056 L554.848,143.24 L554.4,143.24 C554.32,142.952 554.128,142.744 553.824,142.744 C553.248,142.744 552.512,143.48 551.952,144.696 L551.952,147.832 C551.952,148.216 552.128,148.36 552.432,148.424 L553.184,148.584 L553.152,149 L550.08,149 L550.048,148.584 L550.656,148.424 C550.96,148.344 551.088,148.184 551.088,147.832 L551.088,143.256 C551.088,142.872 550.976,142.728 550.672,142.648 L549.952,142.456 L549.984,142.04 L552,141.944 C551.968,142.584 551.888,143.352 551.728,144.136 C552.272,142.744 552.976,141.88 554.064,141.88 Z M559.808,144.136 L559.616,142.68 C560.432,142.2 561.408,141.88 562.288,141.88 C563.808,141.88 564.768,142.808 564.768,144.568 L564.768,147.784 C564.768,148.216 564.864,148.36 565.152,148.44 L565.68,148.584 L565.648,149 L563.824,149.08 C563.824,148.44 563.984,147.72 564.24,147.016 C563.616,148.456 562.64,149.16 561.424,149.16 C560.224,149.16 559.424,148.456 559.424,147.432 C559.424,146.072 560.816,145.128 562.576,145.128 C563.04,145.128 563.568,145.192 563.904,145.272 L563.904,144.616 C563.904,143.208 563.264,142.456 562.16,142.456 C561.12,142.456 560.336,143.128 560.24,144.136 L559.808,144.136 Z M562.768,145.704 C561.376,145.704 560.384,146.36 560.384,147.336 C560.384,148.008 560.848,148.488 561.584,148.488 C562.784,148.488 563.904,147.208 563.904,145.816 C563.52,145.752 563.136,145.704 562.768,145.704 Z M569.632,141.88 C570.32,141.88 571.104,142.056 571.664,142.328 L571.568,143.832 L571.168,143.832 C571.056,142.984 570.432,142.488 569.504,142.488 C568.592,142.488 567.968,142.952 567.968,143.64 C567.968,144.232 568.432,144.568 569.472,144.984 C570.704,145.48 571.744,145.928 571.744,147.176 C571.744,148.376 570.768,149.16 569.152,149.16 C568.464,149.16 567.616,149.016 566.976,148.76 L566.88,146.968 L567.328,146.92 C567.52,147.992 568.176,148.552 569.264,148.552 C570.224,148.552 570.88,148.104 570.88,147.32 C570.88,146.504 570.16,146.2 569.008,145.736 C568.016,145.336 567.104,144.856 567.104,143.8 C567.104,142.664 568.16,141.88 569.632,141.88 Z M575.904,141.88 C576.592,141.88 577.376,142.056 577.936,142.328 L577.84,143.832 L577.44,143.832 C577.328,142.984 576.704,142.488 575.776,142.488 C574.864,142.488 574.24,142.952 574.24,143.64 C574.24,144.232 574.704,144.568 575.744,144.984 C576.976,145.48 578.016,145.928 578.016,147.176 C578.016,148.376 577.04,149.16 575.424,149.16 C574.736,149.16 573.888,149.016 573.248,148.76 L573.152,146.968 L573.6,146.92 C573.792,147.992 574.448,148.552 575.536,148.552 C576.496,148.552 577.152,148.104 577.152,147.32 C577.152,146.504 576.432,146.2 575.28,145.736 C574.288,145.336 573.376,144.856 573.376,143.8 C573.376,142.664 574.432,141.88 575.904,141.88 Z M582.768,141.88 C584.528,141.88 585.856,143.4 585.856,145.416 C585.856,147.496 584.432,149.16 582.576,149.16 C580.816,149.16 579.424,147.64 579.424,145.64 C579.424,143.56 580.928,141.88 582.768,141.88 Z M582.672,142.52 C581.36,142.52 580.384,143.752 580.384,145.496 C580.384,147.24 581.344,148.52 582.688,148.52 C583.984,148.52 584.896,147.32 584.896,145.544 C584.896,143.784 584,142.52 582.672,142.52 Z M590.784,141.88 C591.568,141.88 592.304,142.088 592.928,142.472 L592.752,144.184 L592.32,144.184 C592.176,143.064 591.648,142.52 590.72,142.52 C589.36,142.52 588.272,143.88 588.272,145.576 C588.272,147.224 589.248,148.392 590.624,148.392 C591.376,148.392 592.064,148.136 592.704,147.592 L593.008,147.976 C592.272,148.776 591.456,149.16 590.528,149.16 C588.64,149.16 587.312,147.704 587.312,145.656 C587.312,143.656 588.944,141.88 590.784,141.88 Z M595.888,138.792 C596.304,138.792 596.608,139.096 596.608,139.528 C596.608,139.944 596.288,140.28 595.872,140.28 C595.456,140.28 595.136,139.992 595.136,139.576 C595.136,139.144 595.456,138.792 595.888,138.792 Z M596.416,141.944 L596.416,147.784 C596.416,148.216 596.592,148.36 596.912,148.44 L597.504,148.584 L597.472,149 L594.496,149 L594.464,148.584 L595.056,148.44 C595.376,148.36 595.552,148.216 595.552,147.784 L595.552,143.256 C595.552,142.872 595.44,142.728 595.136,142.648 L594.416,142.456 L594.448,142.04 L596.416,141.944 Z M599.232,144.136 L599.04,142.68 C599.856,142.2 600.832,141.88 601.712,141.88 C603.232,141.88 604.192,142.808 604.192,144.568 L604.192,147.784 C604.192,148.216 604.288,148.36 604.576,148.44 L605.104,148.584 L605.072,149 L603.248,149.08 C603.248,148.44 603.408,147.72 603.664,147.016 C603.04,148.456 602.064,149.16 600.848,149.16 C599.648,149.16 598.848,148.456 598.848,147.432 C598.848,146.072 600.24,145.128 602,145.128 C602.464,145.128 602.992,145.192 603.328,145.272 L603.328,144.616 C603.328,143.208 602.688,142.456 601.584,142.456 C600.544,142.456 599.76,143.128 599.664,144.136 L599.232,144.136 Z M602.192,145.704 C600.8,145.704 599.808,146.36 599.808,147.336 C599.808,148.008 600.272,148.488 601.008,148.488 C602.208,148.488 603.328,147.208 603.328,145.816 C602.944,145.752 602.56,145.704 602.192,145.704 Z M610.032,148.088 L610.144,148.568 C609.68,148.936 609.056,149.16 608.528,149.16 C607.504,149.16 606.944,148.472 606.944,147.24 L606.944,142.712 L605.92,142.712 L606,142.104 L606.48,142.04 C606.832,141.992 606.88,141.832 606.912,141.576 L607.072,140.296 L607.808,140.136 L607.808,142.04 L609.936,142.04 L609.856,142.712 L607.808,142.712 L607.808,147.192 C607.808,147.992 608.144,148.44 608.752,148.44 C609.136,148.44 609.632,148.312 610.032,148.088 Z M617.12,144.744 C617.12,144.984 617.104,145.224 617.072,145.448 L612.208,145.448 C612.208,147.256 613.152,148.392 614.64,148.392 C615.344,148.392 616.016,148.168 616.656,147.688 L616.96,148.072 C616.224,148.84 615.456,149.16 614.544,149.16 C612.512,149.16 611.248,147.752 611.248,145.528 C611.248,143.496 612.672,141.88 614.448,141.88 C616.016,141.88 617.12,143.064 617.12,144.744 Z M612.24,144.856 L615.872,144.696 C616.16,144.68 616.192,144.568 616.192,144.36 C616.192,143.336 615.456,142.52 614.416,142.52 C613.264,142.52 612.432,143.464 612.24,144.856 Z M625.28,137.592 C625.904,137.592 626.384,137.72 626.944,137.992 L626.784,139.464 L626.352,139.464 C626.256,138.68 625.84,138.232 625.2,138.232 C624.336,138.232 623.808,139.016 623.808,140.36 L623.808,142.04 L625.744,142.04 L625.664,142.712 L623.808,142.712 L623.808,147.832 C623.808,148.216 624,148.36 624.288,148.424 L625.008,148.584 L624.976,149 L621.936,149 L621.904,148.584 L622.512,148.424 C622.816,148.344 622.944,148.184 622.944,147.832 L622.944,142.712 L622,142.712 L622.08,142.04 L622.944,142.04 L622.944,140.328 C622.944,138.648 623.888,137.592 625.28,137.592 Z M630.032,141.88 C631.792,141.88 633.12,143.4 633.12,145.416 C633.12,147.496 631.696,149.16 629.84,149.16 C628.08,149.16 626.688,147.64 626.688,145.64 C626.688,143.56 628.192,141.88 630.032,141.88 Z M629.936,142.52 C628.624,142.52 627.648,143.752 627.648,145.496 C627.648,147.24 628.608,148.52 629.952,148.52 C631.248,148.52 632.16,147.32 632.16,145.544 C632.16,143.784 631.264,142.52 629.936,142.52 Z M638.624,141.88 C638.944,141.88 639.264,141.944 639.584,142.056 L639.408,143.24 L638.96,143.24 C638.88,142.952 638.688,142.744 638.384,142.744 C637.808,142.744 637.072,143.48 636.512,144.696 L636.512,147.832 C636.512,148.216 636.688,148.36 636.992,148.424 L637.744,148.584 L637.712,149 L634.64,149 L634.608,148.584 L635.216,148.424 C635.52,148.344 635.648,148.184 635.648,147.832 L635.648,143.256 C635.648,142.872 635.536,142.728 635.232,142.648 L634.512,142.456 L634.544,142.04 L636.56,141.944 C636.528,142.584 636.448,143.352 636.288,144.136 C636.832,142.744 637.536,141.88 638.624,141.88 Z M646.576,138.68 C648.304,138.68 649.424,139.56 649.424,140.952 C649.424,142.264 648.336,143.272 646.368,143.56 C648.48,143.56 649.872,144.504 649.872,146.2 C649.872,147.944 648.528,149.16 646.416,149.16 C645.568,149.16 644.64,148.968 643.92,148.68 L643.744,147.288 L644.208,147.192 C644.528,148.056 645.28,148.488 646.416,148.488 C647.968,148.488 648.912,147.688 648.912,146.248 C648.912,144.68 647.616,144.008 645.216,144.008 L645.136,143.384 C646.928,143.176 648.496,142.44 648.496,141.048 C648.496,140.04 647.728,139.352 646.48,139.352 C645.328,139.352 644.544,139.944 644.432,140.872 L643.952,140.872 L643.824,139.384 C644.688,138.936 645.648,138.68 646.576,138.68 Z M654.56,138.68 C656.64,138.68 657.904,140.664 657.904,143.832 C657.904,147.112 656.544,149.16 654.416,149.16 C652.336,149.16 651.056,147.176 651.056,144.024 C651.056,140.744 652.432,138.68 654.56,138.68 Z M654.496,139.352 C652.976,139.352 652.016,141.144 652.016,143.96 C652.016,146.76 652.96,148.488 654.464,148.488 C655.984,148.488 656.944,146.712 656.944,143.896 C656.944,141.112 656,139.352 654.496,139.352 Z M674.464,148.584 L674.432,149 L671.392,149 L671.36,148.584 L672.08,148.424 C672.368,148.36 672.56,148.216 672.56,147.832 L672.56,144.408 C672.56,143.32 672.048,142.648 671.216,142.648 C670.544,142.648 669.712,143.32 669.04,144.392 L669.04,147.832 C669.04,148.184 669.168,148.344 669.472,148.424 L670.08,148.584 L670.048,149 L667.168,149 L667.136,148.584 L667.744,148.424 C668.048,148.344 668.176,148.184 668.176,147.832 L668.176,144.408 C668.176,143.32 667.664,142.648 666.832,142.648 C666.16,142.648 665.328,143.32 664.656,144.392 L664.656,147.832 C664.656,148.216 664.848,148.36 665.136,148.424 L665.856,148.584 L665.824,149 L662.784,149 L662.752,148.584 L663.36,148.424 C663.664,148.344 663.792,148.184 663.792,147.832 L663.792,143.256 C663.792,142.872 663.68,142.728 663.376,142.648 L662.656,142.456 L662.688,142.04 L664.704,141.944 C664.688,142.52 664.608,143.208 664.48,143.784 C665.168,142.6 666.112,141.88 666.96,141.88 C668.032,141.88 668.768,142.52 668.976,143.608 C669.648,142.536 670.528,141.88 671.344,141.88 C672.624,141.88 673.424,142.808 673.424,144.296 L673.424,147.832 C673.424,148.184 673.552,148.344 673.856,148.424 L674.464,148.584 Z M677.168,138.792 C677.584,138.792 677.888,139.096 677.888,139.528 C677.888,139.944 677.568,140.28 677.152,140.28 C676.736,140.28 676.416,139.992 676.416,139.576 C676.416,139.144 676.736,138.792 677.168,138.792 Z M677.696,141.944 L677.696,147.784 C677.696,148.216 677.872,148.36 678.192,148.44 L678.784,148.584 L678.752,149 L675.776,149 L675.744,148.584 L676.336,148.44 C676.656,148.36 676.832,148.216 676.832,147.784 L676.832,143.256 C676.832,142.872 676.72,142.728 676.416,142.648 L675.696,142.456 L675.728,142.04 L677.696,141.944 Z M687.504,148.584 L687.472,149 L684.432,149 L684.4,148.584 L685.12,148.424 C685.408,148.36 685.6,148.216 685.6,147.832 L685.6,144.408 C685.6,143.32 685.056,142.648 684.192,142.648 C683.472,142.648 682.624,143.32 681.952,144.392 L681.952,147.832 C681.952,148.216 682.144,148.36 682.432,148.424 L683.152,148.584 L683.12,149 L680.08,149 L680.048,148.584 L680.656,148.424 C680.96,148.344 681.088,148.184 681.088,147.832 L681.088,143.256 C681.088,142.872 680.976,142.728 680.672,142.648 L679.952,142.456 L679.984,142.04 L682,141.944 C681.984,142.52 681.904,143.208 681.776,143.784 C682.464,142.6 683.44,141.88 684.32,141.88 C685.632,141.88 686.464,142.808 686.464,144.296 L686.464,147.832 C686.464,148.184 686.592,148.344 686.896,148.424 L687.504,148.584 Z M695.856,148.584 L695.824,149 L694,149.08 C694,148.52 694.128,148.024 694.352,147.448 C693.712,148.52 692.768,149.16 691.856,149.16 C690.496,149.16 689.632,148.216 689.632,146.712 L689.632,143.256 C689.632,142.872 689.52,142.728 689.216,142.648 L688.496,142.456 L688.528,142.04 L690.56,141.944 C690.512,142.696 690.496,143.352 690.496,144.04 L690.496,146.568 C690.496,147.688 691.056,148.392 691.936,148.392 C692.624,148.392 693.344,147.928 694.08,147 L694.08,143.256 C694.08,142.872 693.968,142.728 693.664,142.648 L692.944,142.456 L692.976,142.04 L694.944,141.944 L694.944,147.784 C694.944,148.216 695.04,148.36 695.328,148.44 L695.856,148.584 Z M700.912,148.088 L701.024,148.568 C700.56,148.936 699.936,149.16 699.408,149.16 C698.384,149.16 697.824,148.472 697.824,147.24 L697.824,142.712 L696.8,142.712 L696.88,142.104 L697.36,142.04 C697.712,141.992 697.76,141.832 697.792,141.576 L697.952,140.296 L698.688,140.136 L698.688,142.04 L700.816,142.04 L700.736,142.712 L698.688,142.712 L698.688,147.192 C698.688,147.992 699.024,148.44 699.632,148.44 C700.016,148.44 700.512,148.312 700.912,148.088 Z M708,144.744 C708,144.984 707.984,145.224 707.952,145.448 L703.088,145.448 C703.088,147.256 704.032,148.392 705.52,148.392 C706.224,148.392 706.896,148.168 707.536,147.688 L707.84,148.072 C707.104,148.84 706.336,149.16 705.424,149.16 C703.392,149.16 702.128,147.752 702.128,145.528 C702.128,143.496 703.552,141.88 705.328,141.88 C706.896,141.88 708,143.064 708,144.744 Z M703.12,144.856 L706.752,144.696 C707.04,144.68 707.072,144.568 707.072,144.36 C707.072,143.336 706.336,142.52 705.296,142.52 C704.144,142.52 703.312,143.464 703.12,144.856 Z M712.128,141.88 C712.816,141.88 713.6,142.056 714.16,142.328 L714.064,143.832 L713.664,143.832 C713.552,142.984 712.928,142.488 712,142.488 C711.088,142.488 710.464,142.952 710.464,143.64 C710.464,144.232 710.928,144.568 711.968,144.984 C713.2,145.48 714.24,145.928 714.24,147.176 C714.24,148.376 713.264,149.16 711.648,149.16 C710.96,149.16 710.112,149.016 709.472,148.76 L709.376,146.968 L709.824,146.92 C710.016,147.992 710.672,148.552 711.76,148.552 C712.72,148.552 713.376,148.104 713.376,147.32 C713.376,146.504 712.656,146.2 711.504,145.736 C710.512,145.336 709.6,144.856 709.6,143.8 C709.6,142.664 710.656,141.88 712.128,141.88 Z M716.704,147.48 C717.152,147.48 717.488,147.8 717.488,148.264 C717.488,148.712 717.136,149.08 716.688,149.08 C716.24,149.08 715.888,148.776 715.888,148.328 C715.888,147.864 716.24,147.48 716.704,147.48 Z" id="Only-to-end-up-talki" fill="#363636"></path>
                <g id="Rectangle-34">
                    <use fill="#FFFEE8" fill-rule="evenodd" xlink:href="#path-1"></use>
                    <path stroke="#303030" stroke-width="2" d="M429,101 C414.640597,101 403,112.640597 403,127 L403,156.130435 L474.000001,156.130435 L474.000001,127 C474.000001,112.640597 462.359404,101 448.000001,101 L429,101 Z"></path>
                </g>
                <g id="Oval-14" transform="translate(413.793378, 87.866669) rotate(-13.000000) translate(-413.793378, -87.866669) ">
                    <use fill="#FFFEE8" fill-rule="evenodd" xlink:href="#path-2"></use>
                    <path stroke="#303030" stroke-width="2" d="M414.830682,96.8511954 C419.435936,96.8511954 423.133233,89.9985041 423.133233,83.1724889 C423.133233,80.9762207 422.562479,79.9165945 421.359917,79.3968229 C420.280201,78.9301476 419.061162,78.8501105 415.589085,78.8977165 C414.754262,78.9091628 414.320311,78.9134782 413.80359,78.9134782 C407.747994,78.9134782 404.453524,81.3432947 404.453524,86.340506 C404.453524,91.8364432 409.391841,96.8511954 414.830682,96.8511954 Z"></path>
                </g>
                <g id="Oval-14" transform="translate(465.959460, 73.770572) rotate(-13.000000) translate(-465.959460, -73.770572) ">
                    <use fill="#FFFEE8" fill-rule="evenodd" xlink:href="#path-3"></use>
                    <path stroke="#303030" stroke-width="2" d="M466.996764,82.7550983 C471.602017,82.7550983 475.299314,75.902407 475.299314,69.0763918 C475.299314,66.8801237 474.728561,65.8204975 473.525999,65.3007258 C472.446282,64.8340505 471.227243,64.7540134 467.755167,64.8016194 C466.920343,64.8130657 466.486392,64.8173812 465.969671,64.8173812 C459.914075,64.8173812 456.619605,67.2471977 456.619605,72.2444089 C456.619605,77.7403462 461.557922,82.7550983 466.996764,82.7550983 Z"></path>
                </g>
                <g id="Oval-14" transform="translate(440.741796, 81.788458) rotate(-13.000000) translate(-440.741796, -81.788458) ">
                    <use fill="#FFFEE8" fill-rule="evenodd" xlink:href="#path-4"></use>
                    <path stroke="#303030" stroke-width="2" d="M444.053412,112.664284 C452.540576,112.664284 459.851712,106.927719 465.224432,96.9697449 C469.9708,88.1726724 472.752014,76.7028149 472.752014,66.8021824 C472.752014,58.9794768 470.48767,54.7756351 465.768019,52.7357059 C461.9119,51.069013 457.89854,50.8055122 446.444572,50.9625586 C443.788993,50.9989695 442.411061,51.0126724 440.774396,51.0126724 C420.350286,51.0126724 408.731577,59.5819817 408.731577,76.9161484 C408.731577,95.6654747 425.47129,112.664284 444.053412,112.664284 Z"></path>
                </g>
                <g id="Rectangle-5" transform="translate(435.303363, 51.528109) rotate(-13.000000) translate(-435.303363, -51.528109) ">
                    <use fill="#FFFEE8" fill-rule="evenodd" xlink:href="#path-5"></use>
                    <path stroke="#303030" stroke-width="2" d="M401.790189,79.5189115 C411.777731,62.7094364 417.930661,54.9907153 421.360493,55.7580414 C423.762994,56.2955317 427.541947,56.349731 433.156157,56.0562544 C434.269142,55.9980744 435.383597,55.9312998 436.954764,55.8311527 C445.554975,55.2829701 447.154905,55.2388243 448.378637,55.8348979 C448.804733,56.0424469 449.237959,56.28438 449.68195,56.5607664 C451.114251,57.4523797 452.402685,58.4932443 454.62084,60.4520595 C459.19975,64.4956174 460.768351,65.5836041 462.461362,65.4707534 C471.816005,64.8472027 476.15408,55.1670305 472.054762,40.9601963 C471.414833,38.7424212 469.275974,35.3268279 466.695676,32.2138983 C465.555588,30.8384699 464.445604,29.6716398 463.598488,28.9533261 C463.407569,28.7914364 463.235293,28.6572153 463.087856,28.5532114 C461.791181,30.6839669 459.673348,31.2144755 456.964149,30.4039105 C454.941457,29.7987417 453.353735,28.9250329 448.948185,26.2172903 C448.577714,25.9895914 448.308893,25.8248647 448.043591,25.6632316 C444.738839,23.6498357 442.723588,22.6263234 440.900687,22.1751772 C437.847434,21.4195337 418.730295,26.9699729 413.731952,29.850833 C411.903367,30.9047617 407.021202,41.4374017 407.021202,43.6997412 C407.021202,44.6542851 406.405557,45.3144781 405.038997,46.2957037 C405.179348,46.1949277 402.451497,48.0612773 401.625735,48.7036089 C398.595197,51.0609571 397.002301,53.5063101 397.002301,56.7339177 C397.002301,61.7974024 398.595958,69.4050066 401.790189,79.5189115 Z"></path>
                </g>
                <ellipse id="Oval-15" stroke="#303030" stroke-width="2" transform="translate(428.643017, 80.349024) rotate(-13.000000) translate(-428.643017, -80.349024) " cx="428.643017" cy="80.349024" rx="1" ry="1"></ellipse>
                <ellipse id="Oval-15" stroke="#303030" stroke-width="2" transform="translate(450.079158, 75.400101) rotate(-13.000000) translate(-450.079158, -75.400101) " cx="450.079158" cy="75.4001009" rx="1" ry="1"></ellipse>
                <g id="Path">
                    <use fill="#303030" fill-rule="evenodd" xlink:href="#path-6"></use>
                    <path stroke="#303030" stroke-width="2" d="M442.249302,91.0028445 C439.324566,91.0732039 437.253348,92.4438717 436.081483,94.5620124 C435.647303,95.3468939 435.349256,96.1907487 435.165339,97.0320674 C435.068084,97.4769561 435.020834,97.8258107 435.005737,97.9999415 L449.983377,98.0000062 C449.964911,97.7883984 449.917667,97.4543469 449.825982,97.0349428 C449.642063,96.1936292 449.344014,95.3497613 448.90984,94.5648569 C447.709889,92.3956664 445.541249,91.0028445 442.487401,91.0028445 L442.249302,91.0028445 Z M450.106519,98.0000068 L450.108913,98.0000068 C450.108116,97.9999976 450.107319,97.9999976 450.106521,98.0000068 Z"></path>
                </g>
            </g>
        </g>
    </g>
</svg>