<?xml version="1.0" encoding="UTF-8"?>
<svg width="780px" height="203px" viewBox="0 0 780 203" version="1.1" xmlns="http://www.w3.org/2000/svg" xmlns:xlink="http://www.w3.org/1999/xlink">
    <!-- Generator: Sketch 49.3 (51167) - http://www.bohemiancoding.com/sketch -->
    <title>Image / Painpoint</title>
    <desc>Created with Sketch.</desc>
    <defs></defs>
    <g id="Portfolio" stroke="none" stroke-width="1" fill="none" fill-rule="evenodd">
        <g id="Relationships" transform="translate(-330.000000, -4355.000000)">
            <g id="Image-/-Painpoint" transform="translate(330.000000, 4355.000000)">
                <rect id="Rectangle-13" fill="#FFFFFF" x="0" y="0" width="780" height="203"></rect>
                <path d="M588.544,64.242 L588.544,63.384 C588.544,61.998 588.06,61.624 587.29,61.624 C586.52,61.624 586.036,62.042 586.036,63.142 L586.036,64.132 L583.748,64.132 L583.748,63.296 C583.748,60.832 584.98,59.424 587.356,59.424 C589.732,59.424 590.964,60.832 590.964,63.296 L590.964,63.692 C590.964,65.342 590.436,66.376 589.27,66.86 C590.48,67.388 590.964,68.532 590.964,70.094 L590.964,71.304 C590.964,73.768 589.732,75.176 587.356,75.176 C584.98,75.176 583.748,73.768 583.748,71.304 L583.748,70.028 L586.036,70.028 L586.036,71.458 C586.036,72.558 586.52,72.976 587.29,72.976 C588.06,72.976 588.544,72.602 588.544,71.238 L588.544,70.028 C588.544,68.598 588.06,68.07 586.96,68.07 L586.146,68.07 L586.146,65.87 L587.092,65.87 C587.994,65.87 588.544,65.474 588.544,64.242 Z M594.814,63.142 L594.814,71.458 C594.814,72.558 595.298,72.976 596.068,72.976 C596.838,72.976 597.322,72.558 597.322,71.458 L597.322,63.142 C597.322,62.042 596.838,61.624 596.068,61.624 C595.298,61.624 594.814,62.042 594.814,63.142 Z M592.394,71.304 L592.394,63.296 C592.394,60.832 593.692,59.424 596.068,59.424 C598.444,59.424 599.742,60.832 599.742,63.296 L599.742,71.304 C599.742,73.768 598.444,75.176 596.068,75.176 C593.692,75.176 592.394,73.768 592.394,71.304 Z M608.058,59.6 L609.84,70.534 L611.49,59.6 L614.856,59.6 L614.856,75 L612.568,75 L612.568,63.956 L610.896,75 L608.608,75 L606.804,64.11 L606.804,75 L604.692,75 L604.692,59.6 L608.058,59.6 Z M616.616,75 L616.616,59.6 L619.036,59.6 L619.036,75 L616.616,75 Z M625.966,75 L622.952,63.846 L622.952,75 L620.774,75 L620.774,59.6 L623.81,59.6 L626.296,68.818 L626.296,59.6 L628.452,59.6 L628.452,75 L625.966,75 Z M630.08,59.6 L632.5,59.6 L632.5,71.48 C632.5,72.58 632.984,72.976 633.754,72.976 C634.524,72.976 635.008,72.58 635.008,71.48 L635.008,59.6 L637.296,59.6 L637.296,71.326 C637.296,73.79 636.064,75.198 633.688,75.198 C631.312,75.198 630.08,73.79 630.08,71.326 L630.08,59.6 Z M638.242,61.8 L638.242,59.6 L645.722,59.6 L645.722,61.8 L643.192,61.8 L643.192,75 L640.772,75 L640.772,61.8 L638.242,61.8 Z M649.198,61.8 L649.198,66.09 L652.52,66.09 L652.52,68.29 L649.198,68.29 L649.198,72.8 L653.378,72.8 L653.378,75 L646.778,75 L646.778,59.6 L653.378,59.6 L653.378,61.8 L649.198,61.8 Z M654.566,63.296 C654.566,60.832 655.776,59.424 658.13,59.424 C660.484,59.424 661.694,60.832 661.694,63.296 L661.694,63.78 L659.406,63.78 L659.406,63.142 C659.406,62.042 658.966,61.624 658.196,61.624 C657.426,61.624 656.986,62.042 656.986,63.142 C656.986,66.31 661.716,66.904 661.716,71.304 C661.716,73.768 660.484,75.176 658.108,75.176 C655.732,75.176 654.5,73.768 654.5,71.304 L654.5,70.358 L656.788,70.358 L656.788,71.458 C656.788,72.558 657.272,72.954 658.042,72.954 C658.812,72.954 659.296,72.558 659.296,71.458 C659.296,68.29 654.566,67.696 654.566,63.296 Z M665.214,71.59 L663.41,71.59 L663.102,66.024 L663.102,59.6 L665.522,59.6 L665.522,66.024 L665.214,71.59 Z M663.146,72.668 L665.478,72.668 L665.478,75 L663.146,75 L663.146,72.668 Z" id="30-minutes!" fill="#011728"></path>
                <g id="Group-3" transform="translate(190.000000, 82.500000) scale(-1, 1) translate(-190.000000, -82.500000) translate(163.000000, 48.000000)" fill="#000000">
                    <path d="M53.97298,12.7983507 C53.8344421,12.165475 53.2200689,11.7649644 52.5966213,11.9025614 C50.3408795,12.4070289 47.9947786,13.9877271 46.5823379,15.0761366 C45.9709716,13.5505162 45.1005859,12.1471522 43.9562159,10.8813851 C43.5255526,10.4044292 42.7907211,10.3738573 42.3238909,10.8110682 C41.8540694,11.2513316 41.8239548,11.9942614 42.2546258,12.471233 C43.525514,13.8745971 47.3593807,18.1151359 43.9803169,28.1281737 C42.8238425,29.0545662 42.3058191,30.3172808 42.158253,31.5280247 C41.7486683,31.5005053 41.3390836,31.6992383 41.107172,32.0752976 C40.7668524,32.6256229 40.9294835,33.3502221 41.4715848,33.6926492 C41.9052626,33.9678119 42.4473407,34.5518086 42.6190386,34.7505337 C42.9774223,35.166338 43.5707399,35.2733475 44.0495974,35.0042976 C44.5254403,34.7383081 44.754322,34.166584 44.59772,33.6376417 C44.5013471,33.3105006 43.7303642,30.4059909 46.3564862,29.4459428 C46.7961854,29.2869627 47.0130244,29.3542193 47.1546077,29.4337093 C48.0701499,29.9442896 48.6062143,32.3626937 48.9616374,33.9647829 C49.0369239,34.2980368 49.1061967,34.6160049 49.1784763,34.9125428 C49.588061,36.6155208 48.1846023,38.0188849 46.4528976,39.5475577 L46.2029295,39.7676894 C44.4531838,41.3208604 42.6069881,40.8652563 41.7908256,40.3516469 C41.1162156,39.9266695 39.8573547,38.7373478 38.6376598,37.5846795 C37.6257447,36.6276838 36.5806774,35.6401632 35.6199556,34.8361053 C35.1260485,34.4233612 34.3972538,34.4936782 33.9936443,34.9950854 C33.5870741,35.4965004 33.6563392,36.2363542 34.1502463,36.6460927 C35.056768,37.4043241 36.0777036,38.3704381 37.06248,39.3029356 C38.4809344,40.6450933 39.7037133,41.800814 40.5740759,42.3480712 C41.2155568,42.7516421 41.9956141,43.0298651 42.8388381,43.1338142 C42.4382894,43.8033825 41.9082618,44.3231124 41.3240109,44.5891489 C40.8090175,44.8245666 40.3060822,44.8398525 39.8302315,44.6380671 C38.7731369,44.1886306 34.701422,40.9355497 27.7296549,34.967926 L26.8592923,34.2249805 C26.3683921,33.8091762 25.6395974,33.8764406 25.2299741,34.3747953 C24.8203895,34.87315 24.8866477,35.6130117 25.377548,36.0288551 L26.2388901,36.7626275 C28.2536997,38.4869729 29.9914181,39.9545176 31.4972248,41.2080747 C31.5664899,43.8374452 32.3073736,47.6224582 33.0994043,51.6335122 C34.0781671,56.5864559 35.2949323,62.7469345 34.5359768,64.652004 C34.0239979,65.9330335 33.2439636,66.6423859 32.3404488,66.6484909 L32.3314128,66.6484909 C31.6718601,66.6484909 31.0484202,66.2540854 30.8165856,65.6914953 C30.536503,64.9577229 28.3590776,56.5465387 26.6063251,49.7872235 C25.2119254,44.4001214 23.8958576,39.3156073 23.4049728,37.5733383 C23.2272844,36.9496279 22.5858035,36.5888702 21.974414,36.7662279 C21.3600332,36.9435542 21.0046717,37.594784 21.1793765,38.2185101 C21.3962154,38.9859146 21.7786923,40.4289846 22.257519,42.2634546 C17.7882082,45.7244337 7.92186288,58.4338403 7.81932215,58.568463 C6.69600006,60.0329552 5.33768239,60.3478316 4.62699035,60.402933 C3.75963458,60.4732578 3.14824514,60.2317195 2.97061068,60.0635663 C2.49176091,59.6080169 1.69062487,58.8436649 3.1242059,56.7677348 C3.26575065,56.5628891 17.68576,35.3963708 18.9956599,31.9971459 C19.531732,30.6060701 19.7546001,29.5940513 20.0647819,28.1906872 C20.4532879,26.4265811 20.9833309,24.014329 22.4891376,19.2781905 C25.2899643,10.4791839 29.3044723,5.54432033 36.3490973,2.24214912 C36.930349,1.97003894 37.1802939,1.27294347 36.9152917,0.682873107 C36.6472518,0.0958552329 35.9635904,-0.163998013 35.3793395,0.108080859 C27.7809176,3.67300127 23.2695111,9.1912041 20.2881202,18.5592267 C18.7491613,23.3960192 18.2040763,25.8725302 17.8064805,27.6791364 C17.508326,29.0274773 17.3125657,29.9202141 16.8427518,31.143168 C15.770623,33.9284504 3.24184247,52.5176628 1.23343201,55.4222273 C-0.907818804,58.5162811 0.134164588,60.5892369 1.39003406,61.7815876 C2.05260134,62.4144633 3.12474559,62.7691082 4.32038587,62.7691082 C4.483017,62.7691082 4.64564814,62.7629954 4.8112861,62.7507619 C5.90153302,62.6651512 7.97956324,62.1912634 9.64797024,60.0174501 C12.1446442,56.7613011 19.2282038,48.0203702 22.9081052,44.7581162 C23.3598549,46.4978023 23.8598065,48.4239254 24.3687323,50.3898091 C26.8593925,60.0114234 28.3923378,65.9027372 28.6783725,66.5938529 C29.271667,68.0369776 30.7353549,69 32.3315208,69 L32.3525995,69 C33.241003,68.9938848 35.4395379,68.6483998 36.6803578,65.5390209 C37.6982865,62.9830644 36.5659131,57.2503262 35.3672968,51.1782133 C34.8161674,48.3837734 34.256002,45.5312578 33.975904,43.2472104 C36.5930054,45.3537436 38.1681235,46.4819137 38.9360995,46.8090784 C39.4390425,47.0230972 39.9721464,47.1301067 40.5082108,47.1301067 C41.077412,47.1301067 41.6556646,47.004751 42.20977,46.7632205 C43.6192039,48.1298764 46.1490301,50.2058064 47.8265347,51.0924382 C48.1999757,51.2911712 48.6065381,51.3859471 49.0191681,51.3859471 C49.6546277,51.3859471 50.3081744,51.1597026 50.9014458,50.7133186 C52.2536727,49.6982473 53.4011266,47.4541171 52.9102417,44.7208836 C52.4434347,42.1099064 50.9376049,40.3365645 49.9347103,39.4071195 C51.0610392,38.0863293 51.9253882,36.4261645 51.4284897,34.359392 C51.3592246,34.0781165 51.2929663,33.7723741 51.2206867,33.4513144 C50.7207505,31.2010793 50.0973646,28.3974819 48.269287,27.3793581 C47.9078888,27.1775726 47.3929108,26.997186 46.7423554,27.0124719 C47.706084,23.4812072 47.8958229,20.2984745 47.3145712,17.4824324 C48.350618,16.623273 50.8653329,14.6940975 53.0999498,14.1957585 C53.7143306,14.0581771 54.108858,13.4314142 53.9733192,12.7984994 L53.97298,12.7983507 Z M50.6300752,45.1391221 C50.9252152,46.7901294 50.2957848,48.2423334 49.5217873,48.8232463 C49.4254144,48.8966235 49.0941308,49.1167552 48.8863278,49.0066933 C47.5521419,48.3034928 45.4199116,46.5791004 44.0978301,45.3439365 C44.68811,44.671308 45.1669521,43.8457886 45.4832093,42.9102387 C45.4892383,42.8949527 45.4892383,42.8766065 45.4952597,42.8582602 C46.2511853,42.5953232 47.0100869,42.173406 47.7208561,41.5405225 L47.9648028,41.3234511 C48.0641902,41.2347879 48.1665844,41.1461248 48.2719932,41.0513409 C49.0038256,41.7086757 50.262671,43.096746 50.6301215,45.1390986 L50.6300752,45.1391221 Z" id="Page-1"></path>
                </g>
                <g id="Icons-/-Bank" transform="translate(217.000000, 0.000000)">
                    <rect id="Rectangle-6" fill="#CEF3FF" x="0" y="3" width="99" height="98" rx="2"></rect>
                    <g id="Group-6" transform="translate(8.000000, 0.000000)">
                        <path d="M107.326096,25.6886258 L69.2549762,25.6886258 L69.2549762,18.3489399 L83.6547112,18.3489399 C84.5989844,18.3489399 85.350155,17.5763484 85.350155,16.6534843 L85.350155,1.69545568 C85.350155,0.75116488 84.5775689,0 83.6547112,0 L25.3668254,0 C24.4225522,0 23.6713816,0.772591572 23.6713816,1.69545568 L23.6713816,16.6534843 C23.6713816,17.5977751 24.4439677,18.3489399 25.3668254,18.3489399 L39.7665604,18.3489399 L39.7665604,25.6886258 L1.69544326,25.6886258 C0.751159073,25.6886258 0,26.4612174 0,27.3840815 L0,93.4409246 L0,107.304545 C0,108.248836 0.772585616,109 1.69544326,109 L107.30412,109 C108.248404,109 108.999563,108.227409 108.999563,107.304545 L108.999563,27.4049588 C109.021023,26.460668 108.248437,25.6880764 107.325656,25.6880764 L107.326096,25.6886258 Z M27.0622692,14.9581385 L27.0622692,3.41189852 L81.9373025,3.41189852 L81.9373025,14.9581385 L27.0622692,14.9581385 Z M65.8421126,18.3489399 L65.8421126,25.6886258 L43.179424,25.6886258 L43.179424,18.3489399 L65.8421126,18.3489399 Z M96.5523907,105.60942 L57.9659356,105.60942 L57.9659356,101.403085 L96.5523907,101.403085 L96.5523907,105.60942 Z M63.9104275,97.9907453 L63.9104275,65.970477 L90.628776,65.970477 L90.628776,97.9907453 L63.9104275,97.9907453 Z M105.609676,105.60942 L99.9644851,105.60942 L99.9644851,99.6862031 C99.9644851,98.7419123 99.191888,97.9907453 98.2690413,97.9907453 L94.0412,97.9907453 L94.0412,64.2750214 C94.0412,63.3307306 93.2686138,62.5795657 92.3457562,62.5795657 L62.193667,62.5795657 C61.2493828,62.5795657 60.4982232,63.3521573 60.4982232,64.2750214 L60.4982232,97.9907453 L56.2703819,97.9907453 C55.3261087,97.9907453 54.5749381,98.76335 54.5749381,99.6862031 L54.5749381,105.60942 L3.41275423,105.60942 L3.41275423,95.1579168 L30.4750229,95.1579168 C31.4193071,95.1579168 32.1704667,94.3853143 32.1704667,93.4624611 C32.1704667,92.539641 31.3978805,91.7670055 30.4750229,91.7670055 L3.41275423,91.7670055 L3.41275423,29.1010737 L105.609676,29.1010737 L105.609676,105.60942 Z" id="Fill-1" fill="#000000"></path>
                        <path d="M14.7285763,63.4477612 L45.4654536,63.4477612 C46.4198783,63.4477612 47.1791045,62.692069 47.1791045,61.7893913 L47.1791045,39.0762803 C47.1791045,38.1526554 46.3982216,37.4179104 45.4654536,37.4179104 L14.7285763,37.4179104 C13.7741516,37.4179104 13.0149254,38.1736026 13.0149254,39.0762803 L13.0149254,61.7678959 C13.0149254,62.6915316 13.7741182,63.4472238 14.7285763,63.4472238 L14.7285763,63.4477612 Z M16.4638838,40.7561456 L43.7512474,40.7561456 L43.7512474,60.1106008 L16.4638838,60.1106008 L16.4638838,40.7561456 Z" id="Fill-2" fill="#000000"></path>
                        <path d="M42.0997606,92.7313433 L37.6166573,92.7313433 C36.5998751,92.7313433 35.7910448,93.4726795 35.7910448,94.358209 C35.7910448,95.2436962 36.6229467,95.9850746 37.6166573,95.9850746 L42.0997606,95.9850746 C43.1165428,95.9850746 43.9253731,95.2437384 43.9253731,94.358209 C43.9253731,93.4727217 43.0934712,92.7313433 42.0997606,92.7313433 Z" id="Fill-3" fill="#000000"></path>
                        <path d="M55.3134328,40.0848164 C80.601986,35.1806857 122.515885,29.192484 72.7900765,55.3134328 C72.7900765,55.3134328 117.908861,29.7603307 55.3134328,40.0848164 L55.3134328,40.0848164 L55.3134328,40.0848164 Z" id="Shape" fill="#D03027"></path>
                    </g>
                </g>
                <circle id="Oval" fill="#FFD1CF" cx="527" cy="61" r="48"></circle>
                <path d="M444.304924,64.8121932 C443.412207,63.9142246 442.018729,63.9142246 441.128241,64.8121932 L437.337536,68.6251956 C426.021941,66.1591461 424.071072,57.6921367 423.73831,55.1119348 L427.583416,51.244211 C428.476133,50.3462424 428.476133,48.9445682 427.583416,48.1035637 L417.663528,38.1253252 C417.21718,37.6763521 416.659778,37.4529701 416.047985,37.4529701 C415.433964,37.4529701 414.876572,37.6763634 414.432443,38.1253252 L409.137228,43.6750581 C407.354024,45.637402 406.350274,48.2173796 406.461306,50.7406175 C406.517915,51.4699366 406.628958,52.1992558 406.79661,52.8716108 C406.907654,53.3205839 410.197587,63.8618581 419.55975,72.9985313 C428.698176,82.3611545 439.344902,85.670786 439.791372,85.7823603 C440.459795,86.0057536 441.18485,86.1196368 441.909904,86.1196368 L442.299643,86.1196368 C444.69687,86.1196368 447.148499,85.1669463 448.988335,83.4279743 L454.451213,78.1585763 C454.897561,77.7096032 455.119637,77.1489223 455.119637,76.5882527 C455.119637,75.9706189 454.89755,75.4099492 454.451213,74.9632076 L444.304924,64.8121932 Z M447.659157,82.0152818 C446.138834,83.4302786 444.110234,84.2217707 442.13886,84.1090243 C441.575611,84.1090243 441.069587,83.996266 440.561311,83.8260249 C440.4491,83.7685421 429.917019,80.4875381 421.071747,71.4317849 C412.059753,62.6010728 408.737707,52.1878282 408.737707,52.0751945 C408.568293,51.621954 408.513286,51.055944 408.456083,50.4899453 C408.398879,48.5089497 409.131531,46.5279542 410.539655,45.0002104 L415.890527,39.4529701 L425.971568,49.5283134 L422.086047,53.432799 C421.580001,53.9413149 421.353372,54.6223019 421.465571,55.3010476 C421.859407,58.2437882 424.057421,68.0360189 436.954936,70.8082807 C437.687611,70.9785218 438.475259,70.7507978 439.038509,70.1847765 L442.869057,66.3355324 L453.119637,76.6361431 L447.659157,82.0152818 Z M431.124222,44.6781003 C431.064628,44.0460326 431.594104,43.5305553 432.238165,43.4722601 C441.393109,43.0127945 449.25479,50.8171218 449.781719,60.9137965 C449.841312,61.5458643 449.311837,62.0613415 448.667775,62.1196368 L448.608182,62.1196368 C447.961785,62.1196368 447.494238,61.6601713 447.434621,61.0303871 C446.909729,52.193143 440.161481,45.3658241 432.357305,45.766891 C431.711002,45.8256224 431.124222,45.3078845 431.124222,44.6781003 Z M454.732451,60.7863035 C454.067282,60.7863035 453.626771,60.342029 453.570601,59.733067 C453.238028,53.7406489 450.862514,48.1926272 446.826369,44.1420166 C442.790113,40.1457211 437.647933,38.0935634 432.285829,38.3709645 C431.676808,38.3709645 431.123957,37.92669 431.123957,37.317728 C431.067809,36.706558 431.566669,36.2081237 432.173489,36.1517558 C438.144835,35.818009 443.893382,38.0935634 448.372583,42.5885705 C452.797549,47.0269879 455.449632,53.0732218 455.781895,59.6204422 C455.838131,60.2315013 455.339271,60.7299356 454.732451,60.7863035 Z" id="Page-1" fill="#000000" transform="translate(431.119637, 61.119637) scale(-1, 1) rotate(-135.000000) translate(-431.119637, -61.119637) "></path>
                <path d="M104.439,161.12 L108.147,161.12 L108.183,161.624 L107.409,161.804 C106.941,161.912 106.833,162.11 106.833,162.56 L106.833,171.56 C106.833,172.01 106.941,172.208 107.409,172.316 L108.183,172.496 L108.147,173 L104.439,173 L104.403,172.496 L105.177,172.316 C105.645,172.208 105.753,172.01 105.753,171.56 L105.753,162.56 C105.753,162.11 105.645,161.912 105.177,161.804 L104.403,161.624 L104.439,161.12 Z M113.673,160.166 C114.375,160.166 114.915,160.31 115.545,160.616 L115.365,162.272 L114.879,162.272 C114.771,161.39 114.303,160.886 113.583,160.886 C112.611,160.886 112.017,161.768 112.017,163.28 L112.017,165.17 L114.195,165.17 L114.105,165.926 L112.017,165.926 L112.017,171.686 C112.017,172.118 112.233,172.28 112.557,172.352 L113.367,172.532 L113.331,173 L109.911,173 L109.875,172.532 L110.559,172.352 C110.901,172.262 111.045,172.082 111.045,171.686 L111.045,165.926 L109.983,165.926 L110.073,165.17 L111.045,165.17 L111.045,163.244 C111.045,161.354 112.107,160.166 113.673,160.166 Z M123.411,171.974 L123.537,172.514 C123.015,172.928 122.313,173.18 121.719,173.18 C120.567,173.18 119.937,172.406 119.937,171.02 L119.937,165.926 L118.785,165.926 L118.875,165.242 L119.415,165.17 C119.811,165.116 119.865,164.936 119.901,164.648 L120.081,163.208 L120.909,163.028 L120.909,165.17 L123.303,165.17 L123.213,165.926 L120.909,165.926 L120.909,170.966 C120.909,171.866 121.287,172.37 121.971,172.37 C122.403,172.37 122.961,172.226 123.411,171.974 Z M133.167,172.532 L133.131,173 L129.711,173 L129.675,172.532 L130.485,172.352 C130.809,172.28 131.025,172.118 131.025,171.686 L131.025,167.87 C131.025,166.628 130.395,165.854 129.405,165.854 C128.577,165.854 127.587,166.61 126.831,167.816 L126.831,171.686 C126.831,172.118 127.047,172.28 127.371,172.352 L128.181,172.532 L128.145,173 L124.725,173 L124.689,172.532 L125.373,172.352 C125.715,172.262 125.859,172.082 125.859,171.686 L125.859,161.66 C125.859,161.228 125.733,161.066 125.391,160.976 L124.581,160.76 L124.617,160.292 L126.831,160.184 L126.831,164.162 C126.831,165.116 126.741,166.196 126.615,167.168 C127.389,165.818 128.505,164.99 129.549,164.99 C131.061,164.99 131.997,166.052 131.997,167.744 L131.997,171.686 C131.997,172.082 132.141,172.262 132.483,172.352 L133.167,172.532 Z M141.195,168.212 C141.195,168.482 141.177,168.752 141.141,169.004 L135.669,169.004 C135.669,171.038 136.731,172.316 138.405,172.316 C139.197,172.316 139.953,172.064 140.673,171.524 L141.015,171.956 C140.187,172.82 139.323,173.18 138.297,173.18 C136.011,173.18 134.589,171.596 134.589,169.094 C134.589,166.808 136.191,164.99 138.189,164.99 C139.953,164.99 141.195,166.322 141.195,168.212 Z M135.705,168.338 L139.791,168.158 C140.115,168.14 140.151,168.014 140.151,167.78 C140.151,166.628 139.323,165.71 138.153,165.71 C136.857,165.71 135.921,166.772 135.705,168.338 Z M150.231,165.638 L149.799,165.728 C149.457,165.8 149.331,165.98 149.187,166.322 L147.819,169.58 C146.739,172.154 145.749,174.98 145.083,177.176 L143.157,177.068 L143.103,176.6 L143.661,176.456 C144.003,176.366 144.219,176.222 144.435,175.718 L145.641,172.91 C145.227,171.758 144.795,170.696 144.255,169.418 L142.977,166.412 C142.797,165.998 142.689,165.854 142.383,165.782 L141.753,165.638 L141.789,165.17 L144.867,165.17 L144.903,165.638 L144.273,165.746 C143.967,165.8 143.913,166.034 144.021,166.304 L145.173,169.112 C145.569,170.084 145.875,170.876 146.181,171.794 C146.541,170.804 146.847,170.012 147.225,169.076 L148.359,166.304 C148.485,165.998 148.413,165.8 148.107,165.746 L147.495,165.638 L147.531,165.17 L150.195,165.17 L150.231,165.638 Z M162.921,172.532 L162.885,173 L160.851,173.09 C160.851,172.424 161.013,171.776 161.283,171.074 C160.635,172.316 159.699,173.18 158.349,173.18 C156.531,173.18 155.217,171.56 155.217,169.364 C155.217,166.808 156.819,164.99 159.087,164.99 C159.681,164.99 160.329,165.152 160.923,165.44 L160.923,161.66 C160.923,161.228 160.797,161.066 160.455,160.976 L159.645,160.76 L159.681,160.292 L161.895,160.184 L161.895,171.632 C161.895,172.118 162.003,172.28 162.327,172.37 L162.921,172.532 Z M158.583,172.316 C159.429,172.316 160.311,171.668 160.923,170.606 L160.923,166.16 C160.383,165.89 159.753,165.746 159.141,165.746 C157.467,165.746 156.297,167.222 156.297,169.22 C156.297,171.038 157.251,172.316 158.583,172.316 Z M165.999,161.516 C166.467,161.516 166.809,161.858 166.809,162.344 C166.809,162.812 166.449,163.19 165.981,163.19 C165.513,163.19 165.153,162.866 165.153,162.398 C165.153,161.912 165.513,161.516 165.999,161.516 Z M166.593,165.062 L166.593,171.632 C166.593,172.118 166.791,172.28 167.151,172.37 L167.817,172.532 L167.781,173 L164.433,173 L164.397,172.532 L165.063,172.37 C165.423,172.28 165.621,172.118 165.621,171.632 L165.621,166.538 C165.621,166.106 165.495,165.944 165.153,165.854 L164.343,165.638 L164.379,165.17 L166.593,165.062 Z M176.907,172.532 L176.871,173 L174.837,173.09 C174.837,172.424 174.999,171.776 175.269,171.074 C174.621,172.316 173.685,173.18 172.335,173.18 C170.517,173.18 169.203,171.56 169.203,169.364 C169.203,166.808 170.805,164.99 173.073,164.99 C173.667,164.99 174.315,165.152 174.909,165.44 L174.909,161.66 C174.909,161.228 174.783,161.066 174.441,160.976 L173.631,160.76 L173.667,160.292 L175.881,160.184 L175.881,171.632 C175.881,172.118 175.989,172.28 176.313,172.37 L176.907,172.532 Z M172.569,172.316 C173.415,172.316 174.297,171.668 174.909,170.606 L174.909,166.16 C174.369,165.89 173.739,165.746 173.127,165.746 C171.453,165.746 170.283,167.222 170.283,169.22 C170.283,171.038 171.237,172.316 172.569,172.316 Z M186.753,172.532 L186.717,173 L183.297,173 L183.261,172.532 L184.071,172.352 C184.395,172.28 184.611,172.118 184.611,171.686 L184.611,167.834 C184.611,166.61 183.999,165.854 183.027,165.854 C182.217,165.854 181.263,166.61 180.507,167.816 L180.507,171.686 C180.507,172.118 180.723,172.28 181.047,172.352 L181.857,172.532 L181.821,173 L178.401,173 L178.365,172.532 L179.049,172.352 C179.391,172.262 179.535,172.082 179.535,171.686 L179.535,166.538 C179.535,166.106 179.409,165.944 179.067,165.854 L178.257,165.638 L178.293,165.17 L180.561,165.062 C180.543,165.71 180.453,166.484 180.309,167.132 C181.083,165.8 182.181,164.99 183.171,164.99 C184.647,164.99 185.583,166.034 185.583,167.708 L185.583,171.686 C185.583,172.082 185.727,172.262 186.069,172.352 L186.753,172.532 Z M187.995,160.706 C188.643,160.706 189.111,161.336 189.111,162.218 C189.111,163.208 188.481,164.018 187.167,164.648 L186.969,164.144 C187.671,163.766 188.103,163.19 188.103,162.65 C188.103,162.074 187.725,161.75 187.023,161.75 C187.041,161.102 187.419,160.706 187.995,160.706 Z M194.295,171.974 L194.421,172.514 C193.899,172.928 193.197,173.18 192.603,173.18 C191.451,173.18 190.821,172.406 190.821,171.02 L190.821,165.926 L189.669,165.926 L189.759,165.242 L190.299,165.17 C190.695,165.116 190.749,164.936 190.785,164.648 L190.965,163.208 L191.793,163.028 L191.793,165.17 L194.187,165.17 L194.097,165.926 L191.793,165.926 L191.793,170.966 C191.793,171.866 192.171,172.37 192.855,172.37 C193.287,172.37 193.845,172.226 194.295,171.974 Z M208.011,172.532 L207.975,173 L204.555,173 L204.519,172.532 L205.329,172.352 C205.653,172.28 205.869,172.118 205.869,171.686 L205.869,167.87 C205.869,166.628 205.239,165.854 204.249,165.854 C203.421,165.854 202.431,166.61 201.675,167.816 L201.675,171.686 C201.675,172.118 201.891,172.28 202.215,172.352 L203.025,172.532 L202.989,173 L199.569,173 L199.533,172.532 L200.217,172.352 C200.559,172.262 200.703,172.082 200.703,171.686 L200.703,161.66 C200.703,161.228 200.577,161.066 200.235,160.976 L199.425,160.76 L199.461,160.292 L201.675,160.184 L201.675,164.162 C201.675,165.116 201.585,166.196 201.459,167.168 C202.233,165.818 203.349,164.99 204.393,164.99 C205.905,164.99 206.841,166.052 206.841,167.744 L206.841,171.686 C206.841,172.082 206.985,172.262 207.327,172.352 L208.011,172.532 Z M209.955,167.528 L209.739,165.89 C210.657,165.35 211.755,164.99 212.745,164.99 C214.455,164.99 215.535,166.034 215.535,168.014 L215.535,171.632 C215.535,172.118 215.643,172.28 215.967,172.37 L216.561,172.532 L216.525,173 L214.473,173.09 C214.473,172.37 214.653,171.56 214.941,170.768 C214.239,172.388 213.141,173.18 211.773,173.18 C210.423,173.18 209.523,172.388 209.523,171.236 C209.523,169.706 211.089,168.644 213.069,168.644 C213.591,168.644 214.185,168.716 214.563,168.806 L214.563,168.068 C214.563,166.484 213.843,165.638 212.601,165.638 C211.431,165.638 210.549,166.394 210.441,167.528 L209.955,167.528 Z M213.285,169.292 C211.719,169.292 210.603,170.03 210.603,171.128 C210.603,171.884 211.125,172.424 211.953,172.424 C213.303,172.424 214.563,170.984 214.563,169.418 C214.131,169.346 213.699,169.292 213.285,169.292 Z M224.823,165.638 L224.391,165.728 C224.049,165.8 223.905,166.016 223.779,166.322 L222.609,169.184 C221.961,170.768 221.565,171.83 221.133,173.09 L220.449,173.09 C219.963,171.74 219.441,170.408 218.865,169.022 L217.785,166.412 C217.605,165.98 217.497,165.854 217.191,165.782 L216.561,165.638 L216.597,165.17 L219.675,165.17 L219.711,165.638 L219.081,165.746 C218.775,165.8 218.721,166.034 218.829,166.304 L220.053,169.328 C220.377,170.138 220.629,170.804 220.917,171.65 C221.223,170.714 221.493,170.012 221.817,169.166 L222.951,166.304 C223.077,165.98 222.987,165.8 222.681,165.746 L222.069,165.638 L222.105,165.17 L224.787,165.17 L224.823,165.638 Z M232.023,168.212 C232.023,168.482 232.005,168.752 231.969,169.004 L226.497,169.004 C226.497,171.038 227.559,172.316 229.233,172.316 C230.025,172.316 230.781,172.064 231.501,171.524 L231.843,171.956 C231.015,172.82 230.151,173.18 229.125,173.18 C226.839,173.18 225.417,171.596 225.417,169.094 C225.417,166.808 227.019,164.99 229.017,164.99 C230.781,164.99 232.023,166.322 232.023,168.212 Z M226.533,168.338 L230.619,168.158 C230.943,168.14 230.979,168.014 230.979,167.78 C230.979,166.628 230.151,165.71 228.981,165.71 C227.685,165.71 226.749,166.772 226.533,168.338 Z M241.725,171.974 L241.851,172.514 C241.329,172.928 240.627,173.18 240.033,173.18 C238.881,173.18 238.251,172.406 238.251,171.02 L238.251,165.926 L237.099,165.926 L237.189,165.242 L237.729,165.17 C238.125,165.116 238.179,164.936 238.215,164.648 L238.395,163.208 L239.223,163.028 L239.223,165.17 L241.617,165.17 L241.527,165.926 L239.223,165.926 L239.223,170.966 C239.223,171.866 239.601,172.37 240.285,172.37 C240.717,172.37 241.275,172.226 241.725,171.974 Z M251.481,172.532 L251.445,173 L248.025,173 L247.989,172.532 L248.799,172.352 C249.123,172.28 249.339,172.118 249.339,171.686 L249.339,167.87 C249.339,166.628 248.709,165.854 247.719,165.854 C246.891,165.854 245.901,166.61 245.145,167.816 L245.145,171.686 C245.145,172.118 245.361,172.28 245.685,172.352 L246.495,172.532 L246.459,173 L243.039,173 L243.003,172.532 L243.687,172.352 C244.029,172.262 244.173,172.082 244.173,171.686 L244.173,161.66 C244.173,161.228 244.047,161.066 243.705,160.976 L242.895,160.76 L242.931,160.292 L245.145,160.184 L245.145,164.162 C245.145,165.116 245.055,166.196 244.929,167.168 C245.703,165.818 246.819,164.99 247.863,164.99 C249.375,164.99 250.311,166.052 250.311,167.744 L250.311,171.686 C250.311,172.082 250.455,172.262 250.797,172.352 L251.481,172.532 Z M259.509,168.212 C259.509,168.482 259.491,168.752 259.455,169.004 L253.983,169.004 C253.983,171.038 255.045,172.316 256.719,172.316 C257.511,172.316 258.267,172.064 258.987,171.524 L259.329,171.956 C258.501,172.82 257.637,173.18 256.611,173.18 C254.325,173.18 252.903,171.596 252.903,169.094 C252.903,166.808 254.505,164.99 256.503,164.99 C258.267,164.99 259.509,166.322 259.509,168.212 Z M254.019,168.338 L258.105,168.158 C258.429,168.14 258.465,168.014 258.465,167.78 C258.465,166.628 257.637,165.71 256.467,165.71 C255.171,165.71 254.235,166.772 254.019,168.338 Z M268.923,164.99 C269.805,164.99 270.633,165.224 271.335,165.656 L271.137,167.582 L270.651,167.582 C270.489,166.322 269.895,165.71 268.851,165.71 C267.321,165.71 266.097,167.24 266.097,169.148 C266.097,171.002 267.195,172.316 268.743,172.316 C269.589,172.316 270.363,172.028 271.083,171.416 L271.425,171.848 C270.597,172.748 269.679,173.18 268.635,173.18 C266.511,173.18 265.017,171.542 265.017,169.238 C265.017,166.988 266.853,164.99 268.923,164.99 Z M276.771,164.99 C278.751,164.99 280.245,166.7 280.245,168.968 C280.245,171.308 278.643,173.18 276.555,173.18 C274.575,173.18 273.009,171.47 273.009,169.22 C273.009,166.88 274.701,164.99 276.771,164.99 Z M276.663,165.71 C275.187,165.71 274.089,167.096 274.089,169.058 C274.089,171.02 275.169,172.46 276.681,172.46 C278.139,172.46 279.165,171.11 279.165,169.112 C279.165,167.132 278.157,165.71 276.663,165.71 Z M286.437,164.99 C286.797,164.99 287.157,165.062 287.517,165.188 L287.319,166.52 L286.815,166.52 C286.725,166.196 286.509,165.962 286.167,165.962 C285.519,165.962 284.691,166.79 284.061,168.158 L284.061,171.686 C284.061,172.118 284.259,172.28 284.601,172.352 L285.447,172.532 L285.411,173 L281.955,173 L281.919,172.532 L282.603,172.352 C282.945,172.262 283.089,172.082 283.089,171.686 L283.089,166.538 C283.089,166.106 282.963,165.944 282.621,165.854 L281.811,165.638 L281.847,165.17 L284.115,165.062 C284.079,165.782 283.989,166.646 283.809,167.528 C284.421,165.962 285.213,164.99 286.437,164.99 Z M293.097,164.99 C293.457,164.99 293.817,165.062 294.177,165.188 L293.979,166.52 L293.475,166.52 C293.385,166.196 293.169,165.962 292.827,165.962 C292.179,165.962 291.351,166.79 290.721,168.158 L290.721,171.686 C290.721,172.118 290.919,172.28 291.261,172.352 L292.107,172.532 L292.071,173 L288.615,173 L288.579,172.532 L289.263,172.352 C289.605,172.262 289.749,172.082 289.749,171.686 L289.749,166.538 C289.749,166.106 289.623,165.944 289.281,165.854 L288.471,165.638 L288.507,165.17 L290.775,165.062 C290.739,165.782 290.649,166.646 290.469,167.528 C291.081,165.962 291.873,164.99 293.097,164.99 Z M301.683,168.212 C301.683,168.482 301.665,168.752 301.629,169.004 L296.157,169.004 C296.157,171.038 297.219,172.316 298.893,172.316 C299.685,172.316 300.441,172.064 301.161,171.524 L301.503,171.956 C300.675,172.82 299.811,173.18 298.785,173.18 C296.499,173.18 295.077,171.596 295.077,169.094 C295.077,166.808 296.679,164.99 298.677,164.99 C300.441,164.99 301.683,166.322 301.683,168.212 Z M296.193,168.338 L300.279,168.158 C300.603,168.14 300.639,168.014 300.639,167.78 C300.639,166.628 299.811,165.71 298.641,165.71 C297.345,165.71 296.409,166.772 296.193,168.338 Z M306.993,164.99 C307.875,164.99 308.703,165.224 309.405,165.656 L309.207,167.582 L308.721,167.582 C308.559,166.322 307.965,165.71 306.921,165.71 C305.391,165.71 304.167,167.24 304.167,169.148 C304.167,171.002 305.265,172.316 306.813,172.316 C307.659,172.316 308.433,172.028 309.153,171.416 L309.495,171.848 C308.667,172.748 307.749,173.18 306.705,173.18 C304.581,173.18 303.087,171.542 303.087,169.238 C303.087,166.988 304.923,164.99 306.993,164.99 Z M315.273,171.974 L315.399,172.514 C314.877,172.928 314.175,173.18 313.581,173.18 C312.429,173.18 311.799,172.406 311.799,171.02 L311.799,165.926 L310.647,165.926 L310.737,165.242 L311.277,165.17 C311.673,165.116 311.727,164.936 311.763,164.648 L311.943,163.208 L312.771,163.028 L312.771,165.17 L315.165,165.17 L315.075,165.926 L312.771,165.926 L312.771,170.966 C312.771,171.866 313.149,172.37 313.833,172.37 C314.265,172.37 314.823,172.226 315.273,171.974 Z M328.269,172.532 L328.233,173 L326.199,173.09 C326.199,172.424 326.361,171.776 326.631,171.074 C325.983,172.316 325.047,173.18 323.697,173.18 C321.879,173.18 320.565,171.56 320.565,169.364 C320.565,166.808 322.167,164.99 324.435,164.99 C325.029,164.99 325.677,165.152 326.271,165.44 L326.271,161.66 C326.271,161.228 326.145,161.066 325.803,160.976 L324.993,160.76 L325.029,160.292 L327.243,160.184 L327.243,171.632 C327.243,172.118 327.351,172.28 327.675,172.37 L328.269,172.532 Z M323.931,172.316 C324.777,172.316 325.659,171.668 326.271,170.606 L326.271,166.16 C325.731,165.89 325.101,165.746 324.489,165.746 C322.815,165.746 321.645,167.222 321.645,169.22 C321.645,171.038 322.599,172.316 323.931,172.316 Z M333.453,164.99 C335.433,164.99 336.927,166.7 336.927,168.968 C336.927,171.308 335.325,173.18 333.237,173.18 C331.257,173.18 329.691,171.47 329.691,169.22 C329.691,166.88 331.383,164.99 333.453,164.99 Z M333.345,165.71 C331.869,165.71 330.771,167.096 330.771,169.058 C330.771,171.02 331.851,172.46 333.363,172.46 C334.821,172.46 335.847,171.11 335.847,169.112 C335.847,167.132 334.839,165.71 333.345,165.71 Z M342.471,164.99 C343.353,164.99 344.181,165.224 344.883,165.656 L344.685,167.582 L344.199,167.582 C344.037,166.322 343.443,165.71 342.399,165.71 C340.869,165.71 339.645,167.24 339.645,169.148 C339.645,171.002 340.743,172.316 342.291,172.316 C343.137,172.316 343.911,172.028 344.631,171.416 L344.973,171.848 C344.145,172.748 343.227,173.18 342.183,173.18 C340.059,173.18 338.565,171.542 338.565,169.238 C338.565,166.988 340.401,164.99 342.471,164.99 Z M354.567,172.532 L354.531,173 L352.479,173.09 C352.479,172.46 352.623,171.902 352.875,171.254 C352.155,172.46 351.093,173.18 350.067,173.18 C348.537,173.18 347.565,172.118 347.565,170.426 L347.565,166.538 C347.565,166.106 347.439,165.944 347.097,165.854 L346.287,165.638 L346.323,165.17 L348.609,165.062 C348.555,165.908 348.537,166.646 348.537,167.42 L348.537,170.264 C348.537,171.524 349.167,172.316 350.157,172.316 C350.931,172.316 351.741,171.794 352.569,170.75 L352.569,166.538 C352.569,166.106 352.443,165.944 352.101,165.854 L351.291,165.638 L351.327,165.17 L353.541,165.062 L353.541,171.632 C353.541,172.118 353.649,172.28 353.973,172.37 L354.567,172.532 Z M369.273,172.532 L369.237,173 L365.817,173 L365.781,172.532 L366.591,172.352 C366.915,172.28 367.131,172.118 367.131,171.686 L367.131,167.834 C367.131,166.61 366.555,165.854 365.619,165.854 C364.863,165.854 363.927,166.61 363.171,167.816 L363.171,171.686 C363.171,172.082 363.315,172.262 363.657,172.352 L364.341,172.532 L364.305,173 L361.065,173 L361.029,172.532 L361.713,172.352 C362.055,172.262 362.199,172.082 362.199,171.686 L362.199,167.834 C362.199,166.61 361.623,165.854 360.687,165.854 C359.931,165.854 358.995,166.61 358.239,167.816 L358.239,171.686 C358.239,172.118 358.455,172.28 358.779,172.352 L359.589,172.532 L359.553,173 L356.133,173 L356.097,172.532 L356.781,172.352 C357.123,172.262 357.267,172.082 357.267,171.686 L357.267,166.538 C357.267,166.106 357.141,165.944 356.799,165.854 L355.989,165.638 L356.025,165.17 L358.293,165.062 C358.275,165.71 358.185,166.484 358.041,167.132 C358.815,165.8 359.877,164.99 360.831,164.99 C362.037,164.99 362.865,165.71 363.099,166.934 C363.855,165.728 364.845,164.99 365.763,164.99 C367.203,164.99 368.103,166.034 368.103,167.708 L368.103,171.686 C368.103,172.082 368.247,172.262 368.589,172.352 L369.273,172.532 Z M377.301,168.212 C377.301,168.482 377.283,168.752 377.247,169.004 L371.775,169.004 C371.775,171.038 372.837,172.316 374.511,172.316 C375.303,172.316 376.059,172.064 376.779,171.524 L377.121,171.956 C376.293,172.82 375.429,173.18 374.403,173.18 C372.117,173.18 370.695,171.596 370.695,169.094 C370.695,166.808 372.297,164.99 374.295,164.99 C376.059,164.99 377.301,166.322 377.301,168.212 Z M371.811,168.338 L375.897,168.158 C376.221,168.14 376.257,168.014 376.257,167.78 C376.257,166.628 375.429,165.71 374.259,165.71 C372.963,165.71 372.027,166.772 371.811,168.338 Z M387.273,172.532 L387.237,173 L383.817,173 L383.781,172.532 L384.591,172.352 C384.915,172.28 385.131,172.118 385.131,171.686 L385.131,167.834 C385.131,166.61 384.519,165.854 383.547,165.854 C382.737,165.854 381.783,166.61 381.027,167.816 L381.027,171.686 C381.027,172.118 381.243,172.28 381.567,172.352 L382.377,172.532 L382.341,173 L378.921,173 L378.885,172.532 L379.569,172.352 C379.911,172.262 380.055,172.082 380.055,171.686 L380.055,166.538 C380.055,166.106 379.929,165.944 379.587,165.854 L378.777,165.638 L378.813,165.17 L381.081,165.062 C381.063,165.71 380.973,166.484 380.829,167.132 C381.603,165.8 382.701,164.99 383.691,164.99 C385.167,164.99 386.103,166.034 386.103,167.708 L386.103,171.686 C386.103,172.082 386.247,172.262 386.589,172.352 L387.273,172.532 Z M392.745,171.974 L392.871,172.514 C392.349,172.928 391.647,173.18 391.053,173.18 C389.901,173.18 389.271,172.406 389.271,171.02 L389.271,165.926 L388.119,165.926 L388.209,165.242 L388.749,165.17 C389.145,165.116 389.199,164.936 389.235,164.648 L389.415,163.208 L390.243,163.028 L390.243,165.17 L392.637,165.17 L392.547,165.926 L390.243,165.926 L390.243,170.966 C390.243,171.866 390.621,172.37 391.305,172.37 C391.737,172.37 392.295,172.226 392.745,171.974 Z M397.173,164.99 C397.947,164.99 398.829,165.188 399.459,165.494 L399.351,167.186 L398.901,167.186 C398.775,166.232 398.073,165.674 397.029,165.674 C396.003,165.674 395.301,166.196 395.301,166.97 C395.301,167.636 395.823,168.014 396.993,168.482 C398.379,169.04 399.549,169.544 399.549,170.948 C399.549,172.298 398.451,173.18 396.633,173.18 C395.859,173.18 394.905,173.018 394.185,172.73 L394.077,170.714 L394.581,170.66 C394.797,171.866 395.535,172.496 396.759,172.496 C397.839,172.496 398.577,171.992 398.577,171.11 C398.577,170.192 397.767,169.85 396.471,169.328 C395.355,168.878 394.329,168.338 394.329,167.15 C394.329,165.872 395.517,164.99 397.173,164.99 Z M408.855,164.99 C410.835,164.99 412.329,166.7 412.329,168.968 C412.329,171.308 410.727,173.18 408.639,173.18 C406.659,173.18 405.093,171.47 405.093,169.22 C405.093,166.88 406.785,164.99 408.855,164.99 Z M408.747,165.71 C407.271,165.71 406.173,167.096 406.173,169.058 C406.173,171.02 407.253,172.46 408.765,172.46 C410.223,172.46 411.249,171.11 411.249,169.112 C411.249,167.132 410.241,165.71 408.747,165.71 Z M422.391,172.532 L422.355,173 L418.935,173 L418.899,172.532 L419.709,172.352 C420.033,172.28 420.249,172.118 420.249,171.686 L420.249,167.834 C420.249,166.61 419.637,165.854 418.665,165.854 C417.855,165.854 416.901,166.61 416.145,167.816 L416.145,171.686 C416.145,172.118 416.361,172.28 416.685,172.352 L417.495,172.532 L417.459,173 L414.039,173 L414.003,172.532 L414.687,172.352 C415.029,172.262 415.173,172.082 415.173,171.686 L415.173,166.538 C415.173,166.106 415.047,165.944 414.705,165.854 L413.895,165.638 L413.931,165.17 L416.199,165.062 C416.181,165.71 416.091,166.484 415.947,167.132 C416.721,165.8 417.819,164.99 418.809,164.99 C420.285,164.99 421.221,166.034 421.221,167.708 L421.221,171.686 C421.221,172.082 421.365,172.262 421.707,172.352 L422.391,172.532 Z M431.931,171.974 L432.057,172.514 C431.535,172.928 430.833,173.18 430.239,173.18 C429.087,173.18 428.457,172.406 428.457,171.02 L428.457,165.926 L427.305,165.926 L427.395,165.242 L427.935,165.17 C428.331,165.116 428.385,164.936 428.421,164.648 L428.601,163.208 L429.429,163.028 L429.429,165.17 L431.823,165.17 L431.733,165.926 L429.429,165.926 L429.429,170.966 C429.429,171.866 429.807,172.37 430.491,172.37 C430.923,172.37 431.481,172.226 431.931,171.974 Z M441.687,172.532 L441.651,173 L438.231,173 L438.195,172.532 L439.005,172.352 C439.329,172.28 439.545,172.118 439.545,171.686 L439.545,167.87 C439.545,166.628 438.915,165.854 437.925,165.854 C437.097,165.854 436.107,166.61 435.351,167.816 L435.351,171.686 C435.351,172.118 435.567,172.28 435.891,172.352 L436.701,172.532 L436.665,173 L433.245,173 L433.209,172.532 L433.893,172.352 C434.235,172.262 434.379,172.082 434.379,171.686 L434.379,161.66 C434.379,161.228 434.253,161.066 433.911,160.976 L433.101,160.76 L433.137,160.292 L435.351,160.184 L435.351,164.162 C435.351,165.116 435.261,166.196 435.135,167.168 C435.909,165.818 437.025,164.99 438.069,164.99 C439.581,164.99 440.517,166.052 440.517,167.744 L440.517,171.686 C440.517,172.082 440.661,172.262 441.003,172.352 L441.687,172.532 Z M449.715,168.212 C449.715,168.482 449.697,168.752 449.661,169.004 L444.189,169.004 C444.189,171.038 445.251,172.316 446.925,172.316 C447.717,172.316 448.473,172.064 449.193,171.524 L449.535,171.956 C448.707,172.82 447.843,173.18 446.817,173.18 C444.531,173.18 443.109,171.596 443.109,169.094 C443.109,166.808 444.711,164.99 446.709,164.99 C448.473,164.99 449.715,166.322 449.715,168.212 Z M444.225,168.338 L448.311,168.158 C448.635,168.14 448.671,168.014 448.671,167.78 C448.671,166.628 447.843,165.71 446.673,165.71 C445.377,165.71 444.441,166.772 444.225,168.338 Z M464.475,172.532 L464.439,173 L461.019,173 L460.983,172.532 L461.793,172.352 C462.117,172.28 462.333,172.118 462.333,171.686 L462.333,167.834 C462.333,166.61 461.757,165.854 460.821,165.854 C460.065,165.854 459.129,166.61 458.373,167.816 L458.373,171.686 C458.373,172.082 458.517,172.262 458.859,172.352 L459.543,172.532 L459.507,173 L456.267,173 L456.231,172.532 L456.915,172.352 C457.257,172.262 457.401,172.082 457.401,171.686 L457.401,167.834 C457.401,166.61 456.825,165.854 455.889,165.854 C455.133,165.854 454.197,166.61 453.441,167.816 L453.441,171.686 C453.441,172.118 453.657,172.28 453.981,172.352 L454.791,172.532 L454.755,173 L451.335,173 L451.299,172.532 L451.983,172.352 C452.325,172.262 452.469,172.082 452.469,171.686 L452.469,166.538 C452.469,166.106 452.343,165.944 452.001,165.854 L451.191,165.638 L451.227,165.17 L453.495,165.062 C453.477,165.71 453.387,166.484 453.243,167.132 C454.017,165.8 455.079,164.99 456.033,164.99 C457.239,164.99 458.067,165.71 458.301,166.934 C459.057,165.728 460.047,164.99 460.965,164.99 C462.405,164.99 463.305,166.034 463.305,167.708 L463.305,171.686 C463.305,172.082 463.449,172.262 463.791,172.352 L464.475,172.532 Z M467.157,171.47 C467.823,171.47 468.291,172.082 468.291,172.946 C468.291,173.99 467.571,174.908 466.257,175.52 L466.059,175.016 C466.797,174.584 467.247,173.972 467.247,173.432 C467.247,172.874 466.815,172.514 466.113,172.514 C466.113,171.902 466.545,171.47 467.157,171.47 Z M474.519,167.528 L474.303,165.89 C475.221,165.35 476.319,164.99 477.309,164.99 C479.019,164.99 480.099,166.034 480.099,168.014 L480.099,171.632 C480.099,172.118 480.207,172.28 480.531,172.37 L481.125,172.532 L481.089,173 L479.037,173.09 C479.037,172.37 479.217,171.56 479.505,170.768 C478.803,172.388 477.705,173.18 476.337,173.18 C474.987,173.18 474.087,172.388 474.087,171.236 C474.087,169.706 475.653,168.644 477.633,168.644 C478.155,168.644 478.749,168.716 479.127,168.806 L479.127,168.068 C479.127,166.484 478.407,165.638 477.165,165.638 C475.995,165.638 475.113,166.394 475.005,167.528 L474.519,167.528 Z M477.849,169.292 C476.283,169.292 475.167,170.03 475.167,171.128 C475.167,171.884 475.689,172.424 476.517,172.424 C477.867,172.424 479.127,170.984 479.127,169.418 C478.695,169.346 478.263,169.292 477.849,169.292 Z M490.341,164.99 C491.223,164.99 492.051,165.224 492.753,165.656 L492.555,167.582 L492.069,167.582 C491.907,166.322 491.313,165.71 490.269,165.71 C488.739,165.71 487.515,167.24 487.515,169.148 C487.515,171.002 488.613,172.316 490.161,172.316 C491.007,172.316 491.781,172.028 492.501,171.416 L492.843,171.848 C492.015,172.748 491.097,173.18 490.053,173.18 C487.929,173.18 486.435,171.542 486.435,169.238 C486.435,166.988 488.271,164.99 490.341,164.99 Z M502.437,172.532 L502.401,173 L500.349,173.09 C500.349,172.46 500.493,171.902 500.745,171.254 C500.025,172.46 498.963,173.18 497.937,173.18 C496.407,173.18 495.435,172.118 495.435,170.426 L495.435,166.538 C495.435,166.106 495.309,165.944 494.967,165.854 L494.157,165.638 L494.193,165.17 L496.479,165.062 C496.425,165.908 496.407,166.646 496.407,167.42 L496.407,170.264 C496.407,171.524 497.037,172.316 498.027,172.316 C498.801,172.316 499.611,171.794 500.439,170.75 L500.439,166.538 C500.439,166.106 500.313,165.944 499.971,165.854 L499.161,165.638 L499.197,165.17 L501.411,165.062 L501.411,171.632 C501.411,172.118 501.519,172.28 501.843,172.37 L502.437,172.532 Z M507.027,164.99 C507.801,164.99 508.683,165.188 509.313,165.494 L509.205,167.186 L508.755,167.186 C508.629,166.232 507.927,165.674 506.883,165.674 C505.857,165.674 505.155,166.196 505.155,166.97 C505.155,167.636 505.677,168.014 506.847,168.482 C508.233,169.04 509.403,169.544 509.403,170.948 C509.403,172.298 508.305,173.18 506.487,173.18 C505.713,173.18 504.759,173.018 504.039,172.73 L503.931,170.714 L504.435,170.66 C504.651,171.866 505.389,172.496 506.613,172.496 C507.693,172.496 508.431,171.992 508.431,171.11 C508.431,170.192 507.621,169.85 506.325,169.328 C505.209,168.878 504.183,168.338 504.183,167.15 C504.183,165.872 505.371,164.99 507.027,164.99 Z M515.181,171.974 L515.307,172.514 C514.785,172.928 514.083,173.18 513.489,173.18 C512.337,173.18 511.707,172.406 511.707,171.02 L511.707,165.926 L510.555,165.926 L510.645,165.242 L511.185,165.17 C511.581,165.116 511.635,164.936 511.671,164.648 L511.851,163.208 L512.679,163.028 L512.679,165.17 L515.073,165.17 L514.983,165.926 L512.679,165.926 L512.679,170.966 C512.679,171.866 513.057,172.37 513.741,172.37 C514.173,172.37 514.731,172.226 515.181,171.974 Z M520.113,164.99 C522.093,164.99 523.587,166.7 523.587,168.968 C523.587,171.308 521.985,173.18 519.897,173.18 C517.917,173.18 516.351,171.47 516.351,169.22 C516.351,166.88 518.043,164.99 520.113,164.99 Z M520.005,165.71 C518.529,165.71 517.431,167.096 517.431,169.058 C517.431,171.02 518.511,172.46 520.023,172.46 C521.481,172.46 522.507,171.11 522.507,169.112 C522.507,167.132 521.499,165.71 520.005,165.71 Z M538.437,172.532 L538.401,173 L534.981,173 L534.945,172.532 L535.755,172.352 C536.079,172.28 536.295,172.118 536.295,171.686 L536.295,167.834 C536.295,166.61 535.719,165.854 534.783,165.854 C534.027,165.854 533.091,166.61 532.335,167.816 L532.335,171.686 C532.335,172.082 532.479,172.262 532.821,172.352 L533.505,172.532 L533.469,173 L530.229,173 L530.193,172.532 L530.877,172.352 C531.219,172.262 531.363,172.082 531.363,171.686 L531.363,167.834 C531.363,166.61 530.787,165.854 529.851,165.854 C529.095,165.854 528.159,166.61 527.403,167.816 L527.403,171.686 C527.403,172.118 527.619,172.28 527.943,172.352 L528.753,172.532 L528.717,173 L525.297,173 L525.261,172.532 L525.945,172.352 C526.287,172.262 526.431,172.082 526.431,171.686 L526.431,166.538 C526.431,166.106 526.305,165.944 525.963,165.854 L525.153,165.638 L525.189,165.17 L527.457,165.062 C527.439,165.71 527.349,166.484 527.205,167.132 C527.979,165.8 529.041,164.99 529.995,164.99 C531.201,164.99 532.029,165.71 532.263,166.934 C533.019,165.728 534.009,164.99 534.927,164.99 C536.367,164.99 537.267,166.034 537.267,167.708 L537.267,171.686 C537.267,172.082 537.411,172.262 537.753,172.352 L538.437,172.532 Z M546.465,168.212 C546.465,168.482 546.447,168.752 546.411,169.004 L540.939,169.004 C540.939,171.038 542.001,172.316 543.675,172.316 C544.467,172.316 545.223,172.064 545.943,171.524 L546.285,171.956 C545.457,172.82 544.593,173.18 543.567,173.18 C541.281,173.18 539.859,171.596 539.859,169.094 C539.859,166.808 541.461,164.99 543.459,164.99 C545.223,164.99 546.465,166.322 546.465,168.212 Z M540.975,168.338 L545.061,168.158 C545.385,168.14 545.421,168.014 545.421,167.78 C545.421,166.628 544.593,165.71 543.423,165.71 C542.127,165.71 541.191,166.772 540.975,168.338 Z M552.567,164.99 C552.927,164.99 553.287,165.062 553.647,165.188 L553.449,166.52 L552.945,166.52 C552.855,166.196 552.639,165.962 552.297,165.962 C551.649,165.962 550.821,166.79 550.191,168.158 L550.191,171.686 C550.191,172.118 550.389,172.28 550.731,172.352 L551.577,172.532 L551.541,173 L548.085,173 L548.049,172.532 L548.733,172.352 C549.075,172.262 549.219,172.082 549.219,171.686 L549.219,166.538 C549.219,166.106 549.093,165.944 548.751,165.854 L547.941,165.638 L547.977,165.17 L550.245,165.062 C550.209,165.782 550.119,166.646 549.939,167.528 C550.551,165.962 551.343,164.99 552.567,164.99 Z M562.377,164.99 C563.259,164.99 564.087,165.224 564.789,165.656 L564.591,167.582 L564.105,167.582 C563.943,166.322 563.349,165.71 562.305,165.71 C560.775,165.71 559.551,167.24 559.551,169.148 C559.551,171.002 560.649,172.316 562.197,172.316 C563.043,172.316 563.817,172.028 564.537,171.416 L564.879,171.848 C564.051,172.748 563.133,173.18 562.089,173.18 C559.965,173.18 558.471,171.542 558.471,169.238 C558.471,166.988 560.307,164.99 562.377,164.99 Z M570.225,164.99 C572.205,164.99 573.699,166.7 573.699,168.968 C573.699,171.308 572.097,173.18 570.009,173.18 C568.029,173.18 566.463,171.47 566.463,169.22 C566.463,166.88 568.155,164.99 570.225,164.99 Z M570.117,165.71 C568.641,165.71 567.543,167.096 567.543,169.058 C567.543,171.02 568.623,172.46 570.135,172.46 C571.593,172.46 572.619,171.11 572.619,169.112 C572.619,167.132 571.611,165.71 570.117,165.71 Z M583.239,172.532 L583.203,173 L581.151,173.09 C581.151,172.46 581.295,171.902 581.547,171.254 C580.827,172.46 579.765,173.18 578.739,173.18 C577.209,173.18 576.237,172.118 576.237,170.426 L576.237,166.538 C576.237,166.106 576.111,165.944 575.769,165.854 L574.959,165.638 L574.995,165.17 L577.281,165.062 C577.227,165.908 577.209,166.646 577.209,167.42 L577.209,170.264 C577.209,171.524 577.839,172.316 578.829,172.316 C579.603,172.316 580.413,171.794 581.241,170.75 L581.241,166.538 C581.241,166.106 581.115,165.944 580.773,165.854 L579.963,165.638 L579.999,165.17 L582.213,165.062 L582.213,171.632 C582.213,172.118 582.321,172.28 582.645,172.37 L583.239,172.532 Z M586.713,160.184 L586.713,171.632 C586.713,172.118 586.911,172.28 587.271,172.37 L587.937,172.532 L587.901,173 L584.553,173 L584.517,172.532 L585.183,172.37 C585.543,172.28 585.741,172.118 585.741,171.632 L585.741,161.66 C585.741,161.228 585.615,161.066 585.273,160.976 L584.463,160.76 L584.499,160.292 L586.713,160.184 Z M597.099,172.532 L597.063,173 L595.029,173.09 C595.029,172.424 595.191,171.776 595.461,171.074 C594.813,172.316 593.877,173.18 592.527,173.18 C590.709,173.18 589.395,171.56 589.395,169.364 C589.395,166.808 590.997,164.99 593.265,164.99 C593.859,164.99 594.507,165.152 595.101,165.44 L595.101,161.66 C595.101,161.228 594.975,161.066 594.633,160.976 L593.823,160.76 L593.859,160.292 L596.073,160.184 L596.073,171.632 C596.073,172.118 596.181,172.28 596.505,172.37 L597.099,172.532 Z M592.761,172.316 C593.607,172.316 594.489,171.668 595.101,170.606 L595.101,166.16 C594.561,165.89 593.931,165.746 593.319,165.746 C591.645,165.746 590.475,167.222 590.475,169.22 C590.475,171.038 591.429,172.316 592.761,172.316 Z M609.123,168.212 C609.123,168.482 609.105,168.752 609.069,169.004 L603.597,169.004 C603.597,171.038 604.659,172.316 606.333,172.316 C607.125,172.316 607.881,172.064 608.601,171.524 L608.943,171.956 C608.115,172.82 607.251,173.18 606.225,173.18 C603.939,173.18 602.517,171.596 602.517,169.094 C602.517,166.808 604.119,164.99 606.117,164.99 C607.881,164.99 609.123,166.322 609.123,168.212 Z M603.633,168.338 L607.719,168.158 C608.043,168.14 608.079,168.014 608.079,167.78 C608.079,166.628 607.251,165.71 606.081,165.71 C604.785,165.71 603.849,166.772 603.633,168.338 Z M617.871,165.638 L617.439,165.728 C617.097,165.8 616.953,166.016 616.827,166.322 L615.657,169.184 C615.009,170.768 614.613,171.83 614.181,173.09 L613.497,173.09 C613.011,171.74 612.489,170.408 611.913,169.022 L610.833,166.412 C610.653,165.98 610.545,165.854 610.239,165.782 L609.609,165.638 L609.645,165.17 L612.723,165.17 L612.759,165.638 L612.129,165.746 C611.823,165.8 611.769,166.034 611.877,166.304 L613.101,169.328 C613.425,170.138 613.677,170.804 613.965,171.65 C614.271,170.714 614.541,170.012 614.865,169.166 L615.999,166.304 C616.125,165.98 616.035,165.8 615.729,165.746 L615.117,165.638 L615.153,165.17 L617.835,165.17 L617.871,165.638 Z M625.071,168.212 C625.071,168.482 625.053,168.752 625.017,169.004 L619.545,169.004 C619.545,171.038 620.607,172.316 622.281,172.316 C623.073,172.316 623.829,172.064 624.549,171.524 L624.891,171.956 C624.063,172.82 623.199,173.18 622.173,173.18 C619.887,173.18 618.465,171.596 618.465,169.094 C618.465,166.808 620.067,164.99 622.065,164.99 C623.829,164.99 625.071,166.322 625.071,168.212 Z M619.581,168.338 L623.667,168.158 C623.991,168.14 624.027,168.014 624.027,167.78 C624.027,166.628 623.199,165.71 622.029,165.71 C620.733,165.71 619.797,166.772 619.581,168.338 Z M635.043,172.532 L635.007,173 L631.587,173 L631.551,172.532 L632.361,172.352 C632.685,172.28 632.901,172.118 632.901,171.686 L632.901,167.834 C632.901,166.61 632.289,165.854 631.317,165.854 C630.507,165.854 629.553,166.61 628.797,167.816 L628.797,171.686 C628.797,172.118 629.013,172.28 629.337,172.352 L630.147,172.532 L630.111,173 L626.691,173 L626.655,172.532 L627.339,172.352 C627.681,172.262 627.825,172.082 627.825,171.686 L627.825,166.538 C627.825,166.106 627.699,165.944 627.357,165.854 L626.547,165.638 L626.583,165.17 L628.851,165.062 C628.833,165.71 628.743,166.484 628.599,167.132 C629.373,165.8 630.471,164.99 631.461,164.99 C632.937,164.99 633.873,166.034 633.873,167.708 L633.873,171.686 C633.873,172.082 634.017,172.262 634.359,172.352 L635.043,172.532 Z M642.369,160.184 L642.369,171.632 C642.369,172.118 642.567,172.28 642.927,172.37 L643.593,172.532 L643.557,173 L640.209,173 L640.173,172.532 L640.839,172.37 C641.199,172.28 641.397,172.118 641.397,171.632 L641.397,161.66 C641.397,161.228 641.271,161.066 640.929,160.976 L640.119,160.76 L640.155,160.292 L642.369,160.184 Z M651.693,168.212 C651.693,168.482 651.675,168.752 651.639,169.004 L646.167,169.004 C646.167,171.038 647.229,172.316 648.903,172.316 C649.695,172.316 650.451,172.064 651.171,171.524 L651.513,171.956 C650.685,172.82 649.821,173.18 648.795,173.18 C646.509,173.18 645.087,171.596 645.087,169.094 C645.087,166.808 646.689,164.99 648.687,164.99 C650.451,164.99 651.693,166.322 651.693,168.212 Z M646.203,168.338 L650.289,168.158 C650.613,168.14 650.649,168.014 650.649,167.78 C650.649,166.628 649.821,165.71 648.651,165.71 C647.355,165.71 646.419,166.772 646.203,168.338 Z M653.799,167.528 L653.583,165.89 C654.501,165.35 655.599,164.99 656.589,164.99 C658.299,164.99 659.379,166.034 659.379,168.014 L659.379,171.632 C659.379,172.118 659.487,172.28 659.811,172.37 L660.405,172.532 L660.369,173 L658.317,173.09 C658.317,172.37 658.497,171.56 658.785,170.768 C658.083,172.388 656.985,173.18 655.617,173.18 C654.267,173.18 653.367,172.388 653.367,171.236 C653.367,169.706 654.933,168.644 656.913,168.644 C657.435,168.644 658.029,168.716 658.407,168.806 L658.407,168.068 C658.407,166.484 657.687,165.638 656.445,165.638 C655.275,165.638 654.393,166.394 654.285,167.528 L653.799,167.528 Z M657.129,169.292 C655.563,169.292 654.447,170.03 654.447,171.128 C654.447,171.884 654.969,172.424 655.797,172.424 C657.147,172.424 658.407,170.984 658.407,169.418 C657.975,169.346 657.543,169.292 657.129,169.292 Z M668.667,165.638 L668.235,165.728 C667.893,165.8 667.749,166.016 667.623,166.322 L666.453,169.184 C665.805,170.768 665.409,171.83 664.977,173.09 L664.293,173.09 C663.807,171.74 663.285,170.408 662.709,169.022 L661.629,166.412 C661.449,165.98 661.341,165.854 661.035,165.782 L660.405,165.638 L660.441,165.17 L663.519,165.17 L663.555,165.638 L662.925,165.746 C662.619,165.8 662.565,166.034 662.673,166.304 L663.897,169.328 C664.221,170.138 664.473,170.804 664.761,171.65 C665.067,170.714 665.337,170.012 665.661,169.166 L666.795,166.304 C666.921,165.98 666.831,165.8 666.525,165.746 L665.913,165.638 L665.949,165.17 L668.631,165.17 L668.667,165.638 Z M675.867,168.212 C675.867,168.482 675.849,168.752 675.813,169.004 L670.341,169.004 C670.341,171.038 671.403,172.316 673.077,172.316 C673.869,172.316 674.625,172.064 675.345,171.524 L675.687,171.956 C674.859,172.82 673.995,173.18 672.969,173.18 C670.683,173.18 669.261,171.596 669.261,169.094 C669.261,166.808 670.863,164.99 672.861,164.99 C674.625,164.99 675.867,166.322 675.867,168.212 Z M670.377,168.338 L674.463,168.158 C674.787,168.14 674.823,168.014 674.823,167.78 C674.823,166.628 673.995,165.71 672.825,165.71 C671.529,165.71 670.593,166.772 670.377,168.338 Z M260.832,195.974 L260.958,196.514 C260.436,196.928 259.734,197.18 259.14,197.18 C257.988,197.18 257.358,196.406 257.358,195.02 L257.358,189.926 L256.206,189.926 L256.296,189.242 L256.836,189.17 C257.232,189.116 257.286,188.936 257.322,188.648 L257.502,187.208 L258.33,187.028 L258.33,189.17 L260.724,189.17 L260.634,189.926 L258.33,189.926 L258.33,194.966 C258.33,195.866 258.708,196.37 259.392,196.37 C259.824,196.37 260.382,196.226 260.832,195.974 Z M270.588,196.532 L270.552,197 L267.132,197 L267.096,196.532 L267.906,196.352 C268.23,196.28 268.446,196.118 268.446,195.686 L268.446,191.87 C268.446,190.628 267.816,189.854 266.826,189.854 C265.998,189.854 265.008,190.61 264.252,191.816 L264.252,195.686 C264.252,196.118 264.468,196.28 264.792,196.352 L265.602,196.532 L265.566,197 L262.146,197 L262.11,196.532 L262.794,196.352 C263.136,196.262 263.28,196.082 263.28,195.686 L263.28,185.66 C263.28,185.228 263.154,185.066 262.812,184.976 L262.002,184.76 L262.038,184.292 L264.252,184.184 L264.252,188.162 C264.252,189.116 264.162,190.196 264.036,191.168 C264.81,189.818 265.926,188.99 266.97,188.99 C268.482,188.99 269.418,190.052 269.418,191.744 L269.418,195.686 C269.418,196.082 269.562,196.262 269.904,196.352 L270.588,196.532 Z M278.616,192.212 C278.616,192.482 278.598,192.752 278.562,193.004 L273.09,193.004 C273.09,195.038 274.152,196.316 275.826,196.316 C276.618,196.316 277.374,196.064 278.094,195.524 L278.436,195.956 C277.608,196.82 276.744,197.18 275.718,197.18 C273.432,197.18 272.01,195.596 272.01,193.094 C272.01,190.808 273.612,188.99 275.61,188.99 C277.374,188.99 278.616,190.322 278.616,192.212 Z M273.126,192.338 L277.212,192.158 C277.536,192.14 277.572,192.014 277.572,191.78 C277.572,190.628 276.744,189.71 275.574,189.71 C274.278,189.71 273.342,190.772 273.126,192.338 Z M288.444,188.99 C290.244,188.99 291.522,190.574 291.522,192.824 C291.522,195.506 290.028,197.18 287.634,197.18 C286.86,197.18 285.798,196.91 284.898,196.478 L284.898,185.66 C284.898,185.228 284.772,185.066 284.43,184.976 L283.62,184.76 L283.656,184.292 L285.87,184.184 L285.87,187.946 C285.87,188.9 285.798,189.872 285.654,190.772 C286.338,189.656 287.382,188.99 288.444,188.99 Z M287.796,196.424 C289.416,196.424 290.442,195.11 290.442,193.022 C290.442,191.168 289.542,189.854 288.264,189.854 C287.4,189.854 286.482,190.502 285.87,191.528 L285.87,195.794 C286.464,196.208 287.13,196.424 287.796,196.424 Z M293.7,191.528 L293.484,189.89 C294.402,189.35 295.5,188.99 296.49,188.99 C298.2,188.99 299.28,190.034 299.28,192.014 L299.28,195.632 C299.28,196.118 299.388,196.28 299.712,196.37 L300.306,196.532 L300.27,197 L298.218,197.09 C298.218,196.37 298.398,195.56 298.686,194.768 C297.984,196.388 296.886,197.18 295.518,197.18 C294.168,197.18 293.268,196.388 293.268,195.236 C293.268,193.706 294.834,192.644 296.814,192.644 C297.336,192.644 297.93,192.716 298.308,192.806 L298.308,192.068 C298.308,190.484 297.588,189.638 296.346,189.638 C295.176,189.638 294.294,190.394 294.186,191.528 L293.7,191.528 Z M297.03,193.292 C295.464,193.292 294.348,194.03 294.348,195.128 C294.348,195.884 294.87,196.424 295.698,196.424 C297.048,196.424 298.308,194.984 298.308,193.418 C297.876,193.346 297.444,193.292 297.03,193.292 Z M310.08,196.532 L310.044,197 L306.624,197 L306.588,196.532 L307.398,196.352 C307.722,196.28 307.938,196.118 307.938,195.686 L307.938,191.834 C307.938,190.61 307.326,189.854 306.354,189.854 C305.544,189.854 304.59,190.61 303.834,191.816 L303.834,195.686 C303.834,196.118 304.05,196.28 304.374,196.352 L305.184,196.532 L305.148,197 L301.728,197 L301.692,196.532 L302.376,196.352 C302.718,196.262 302.862,196.082 302.862,195.686 L302.862,190.538 C302.862,190.106 302.736,189.944 302.394,189.854 L301.584,189.638 L301.62,189.17 L303.888,189.062 C303.87,189.71 303.78,190.484 303.636,191.132 C304.41,189.8 305.508,188.99 306.498,188.99 C307.974,188.99 308.91,190.034 308.91,191.708 L308.91,195.686 C308.91,196.082 309.054,196.262 309.396,196.352 L310.08,196.532 Z M319.458,196.532 L319.422,197 L317.55,197 C317.352,196.568 316.974,195.884 316.524,195.182 C315.606,193.742 315.084,193.004 314.346,193.004 C314.13,193.004 313.824,193.04 313.5,193.112 L313.5,195.686 C313.5,196.118 313.716,196.28 314.04,196.352 L314.85,196.532 L314.814,197 L311.394,197 L311.358,196.532 L312.042,196.352 C312.384,196.262 312.528,196.082 312.528,195.686 L312.528,185.66 C312.528,185.228 312.402,185.066 312.06,184.976 L311.25,184.76 L311.286,184.292 L313.5,184.184 L313.5,192.572 C313.896,192.428 314.364,192.32 314.688,192.32 C314.814,192.32 314.922,192.338 315.03,192.356 L316.668,190.178 C316.83,189.962 316.83,189.8 316.542,189.746 L315.948,189.638 L315.984,189.17 L318.774,189.17 L318.81,189.638 L318.468,189.728 C318,189.854 317.694,190.106 317.388,190.502 L315.732,192.662 C316.11,192.968 316.524,193.472 317.1,194.3 L317.874,195.416 C318.288,196.01 318.558,196.244 319.008,196.388 L319.458,196.532 Z M334.938,189.638 L334.506,189.728 C334.164,189.8 333.984,190.016 333.894,190.322 L332.922,193.4 C332.508,194.714 332.148,195.92 331.824,197.09 L331.212,197.09 C330.888,196.064 330.546,195.038 330.222,194.138 C329.952,193.382 329.664,192.536 329.43,191.708 C329.196,192.626 328.998,193.364 328.746,194.12 C328.458,195.002 328.152,196.064 327.882,197.09 L327.27,197.09 C326.892,195.884 326.442,194.552 326.01,193.4 L324.894,190.43 C324.75,190.052 324.588,189.872 324.282,189.8 L323.67,189.638 L323.706,189.17 L326.856,189.17 L326.892,189.638 L326.262,189.746 C325.938,189.8 325.848,190.034 325.938,190.304 L326.838,192.914 C327.108,193.688 327.396,194.642 327.63,195.542 C327.846,194.696 328.224,193.364 328.494,192.554 C328.782,191.69 329.052,190.808 329.25,190.052 L329.862,190.052 C330.078,190.826 330.312,191.582 330.636,192.536 C330.96,193.436 331.248,194.426 331.554,195.542 C331.752,194.732 332.022,193.742 332.274,192.914 L333.084,190.304 C333.192,189.944 333.12,189.8 332.814,189.746 L332.202,189.638 L332.238,189.17 L334.902,189.17 L334.938,189.638 Z M337.152,185.516 C337.62,185.516 337.962,185.858 337.962,186.344 C337.962,186.812 337.602,187.19 337.134,187.19 C336.666,187.19 336.306,186.866 336.306,186.398 C336.306,185.912 336.666,185.516 337.152,185.516 Z M337.746,189.062 L337.746,195.632 C337.746,196.118 337.944,196.28 338.304,196.37 L338.97,196.532 L338.934,197 L335.586,197 L335.55,196.532 L336.216,196.37 C336.576,196.28 336.774,196.118 336.774,195.632 L336.774,190.538 C336.774,190.106 336.648,189.944 336.306,189.854 L335.496,189.638 L335.532,189.17 L337.746,189.062 Z M344.55,195.974 L344.676,196.514 C344.154,196.928 343.452,197.18 342.858,197.18 C341.706,197.18 341.076,196.406 341.076,195.02 L341.076,189.926 L339.924,189.926 L340.014,189.242 L340.554,189.17 C340.95,189.116 341.004,188.936 341.04,188.648 L341.22,187.208 L342.048,187.028 L342.048,189.17 L344.442,189.17 L344.352,189.926 L342.048,189.926 L342.048,194.966 C342.048,195.866 342.426,196.37 343.11,196.37 C343.542,196.37 344.1,196.226 344.55,195.974 Z M354.306,196.532 L354.27,197 L350.85,197 L350.814,196.532 L351.624,196.352 C351.948,196.28 352.164,196.118 352.164,195.686 L352.164,191.87 C352.164,190.628 351.534,189.854 350.544,189.854 C349.716,189.854 348.726,190.61 347.97,191.816 L347.97,195.686 C347.97,196.118 348.186,196.28 348.51,196.352 L349.32,196.532 L349.284,197 L345.864,197 L345.828,196.532 L346.512,196.352 C346.854,196.262 346.998,196.082 346.998,195.686 L346.998,185.66 C346.998,185.228 346.872,185.066 346.53,184.976 L345.72,184.76 L345.756,184.292 L347.97,184.184 L347.97,188.162 C347.97,189.116 347.88,190.196 347.754,191.168 C348.528,189.818 349.644,188.99 350.688,188.99 C352.2,188.99 353.136,190.052 353.136,191.744 L353.136,195.686 C353.136,196.082 353.28,196.262 353.622,196.352 L354.306,196.532 Z M368.076,196.532 L368.04,197 L364.62,197 L364.584,196.532 L365.394,196.352 C365.718,196.28 365.934,196.118 365.934,195.686 L365.934,191.834 C365.934,190.61 365.322,189.854 364.35,189.854 C363.54,189.854 362.586,190.61 361.83,191.816 L361.83,195.686 C361.83,196.118 362.046,196.28 362.37,196.352 L363.18,196.532 L363.144,197 L359.724,197 L359.688,196.532 L360.372,196.352 C360.714,196.262 360.858,196.082 360.858,195.686 L360.858,190.538 C360.858,190.106 360.732,189.944 360.39,189.854 L359.58,189.638 L359.616,189.17 L361.884,189.062 C361.866,189.71 361.776,190.484 361.632,191.132 C362.406,189.8 363.504,188.99 364.494,188.99 C365.97,188.99 366.906,190.034 366.906,191.708 L366.906,195.686 C366.906,196.082 367.05,196.262 367.392,196.352 L368.076,196.532 Z M373.224,188.99 C375.204,188.99 376.698,190.7 376.698,192.968 C376.698,195.308 375.096,197.18 373.008,197.18 C371.028,197.18 369.462,195.47 369.462,193.22 C369.462,190.88 371.154,188.99 373.224,188.99 Z M373.116,189.71 C371.64,189.71 370.542,191.096 370.542,193.058 C370.542,195.02 371.622,196.46 373.134,196.46 C374.592,196.46 375.618,195.11 375.618,193.112 C375.618,191.132 374.61,189.71 373.116,189.71 Z M382.53,195.974 L382.656,196.514 C382.134,196.928 381.432,197.18 380.838,197.18 C379.686,197.18 379.056,196.406 379.056,195.02 L379.056,189.926 L377.904,189.926 L377.994,189.242 L378.534,189.17 C378.93,189.116 378.984,188.936 379.02,188.648 L379.2,187.208 L380.028,187.028 L380.028,189.17 L382.422,189.17 L382.332,189.926 L380.028,189.926 L380.028,194.966 C380.028,195.866 380.406,196.37 381.09,196.37 C381.522,196.37 382.08,196.226 382.53,195.974 Z M392.286,196.532 L392.25,197 L388.83,197 L388.794,196.532 L389.604,196.352 C389.928,196.28 390.144,196.118 390.144,195.686 L390.144,191.87 C390.144,190.628 389.514,189.854 388.524,189.854 C387.696,189.854 386.706,190.61 385.95,191.816 L385.95,195.686 C385.95,196.118 386.166,196.28 386.49,196.352 L387.3,196.532 L387.264,197 L383.844,197 L383.808,196.532 L384.492,196.352 C384.834,196.262 384.978,196.082 384.978,195.686 L384.978,185.66 C384.978,185.228 384.852,185.066 384.51,184.976 L383.7,184.76 L383.736,184.292 L385.95,184.184 L385.95,188.162 C385.95,189.116 385.86,190.196 385.734,191.168 C386.508,189.818 387.624,188.99 388.668,188.99 C390.18,188.99 391.116,190.052 391.116,191.744 L391.116,195.686 C391.116,196.082 391.26,196.262 391.602,196.352 L392.286,196.532 Z M395.328,185.516 C395.796,185.516 396.138,185.858 396.138,186.344 C396.138,186.812 395.778,187.19 395.31,187.19 C394.842,187.19 394.482,186.866 394.482,186.398 C394.482,185.912 394.842,185.516 395.328,185.516 Z M395.922,189.062 L395.922,195.632 C395.922,196.118 396.12,196.28 396.48,196.37 L397.146,196.532 L397.11,197 L393.762,197 L393.726,196.532 L394.392,196.37 C394.752,196.28 394.95,196.118 394.95,195.632 L394.95,190.538 C394.95,190.106 394.824,189.944 394.482,189.854 L393.672,189.638 L393.708,189.17 L395.922,189.062 Z M406.956,196.532 L406.92,197 L403.5,197 L403.464,196.532 L404.274,196.352 C404.598,196.28 404.814,196.118 404.814,195.686 L404.814,191.834 C404.814,190.61 404.202,189.854 403.23,189.854 C402.42,189.854 401.466,190.61 400.71,191.816 L400.71,195.686 C400.71,196.118 400.926,196.28 401.25,196.352 L402.06,196.532 L402.024,197 L398.604,197 L398.568,196.532 L399.252,196.352 C399.594,196.262 399.738,196.082 399.738,195.686 L399.738,190.538 C399.738,190.106 399.612,189.944 399.27,189.854 L398.46,189.638 L398.496,189.17 L400.764,189.062 C400.746,189.71 400.656,190.484 400.512,191.132 C401.286,189.8 402.384,188.99 403.374,188.99 C404.85,188.99 405.786,190.034 405.786,191.708 L405.786,195.686 C405.786,196.082 405.93,196.262 406.272,196.352 L406.956,196.532 Z M410.952,196.262 L412.59,196.37 C414.228,196.478 415.272,197.342 415.272,198.566 C415.272,200.06 413.706,201.158 411.51,201.158 C409.494,201.158 408.09,200.24 408.09,199.034 C408.09,198.188 408.756,197.468 409.71,197 C409.206,196.784 408.828,196.352 408.828,195.83 C408.828,195.2 409.35,194.678 409.854,194.354 C408.99,193.868 408.414,192.968 408.414,191.924 C408.414,190.286 409.836,188.99 411.582,188.99 C412.446,188.99 413.202,189.314 413.742,189.818 L413.976,189.116 L415.542,189.17 L415.578,189.638 L414.75,189.854 C414.444,189.926 414.264,190.106 414.156,190.358 C414.444,190.79 414.588,191.294 414.588,191.852 C414.588,193.526 413.202,194.768 411.474,194.768 C411.096,194.768 410.754,194.714 410.412,194.606 C409.998,194.948 409.8,195.254 409.8,195.578 C409.8,195.956 410.106,196.208 410.952,196.262 Z M411.546,189.71 C410.358,189.71 409.494,190.646 409.494,191.906 C409.494,193.166 410.34,194.048 411.51,194.048 C412.698,194.048 413.508,193.13 413.508,191.852 C413.508,190.574 412.698,189.71 411.546,189.71 Z M411.636,200.438 C413.184,200.438 414.228,199.718 414.228,198.764 C414.228,197.918 413.4,197.342 412.014,197.252 L410.61,197.162 C409.746,197.576 409.17,198.206 409.17,198.89 C409.17,199.79 410.16,200.438 411.636,200.438 Z M421.104,191.528 L420.888,189.89 C421.806,189.35 422.904,188.99 423.894,188.99 C425.604,188.99 426.684,190.034 426.684,192.014 L426.684,195.632 C426.684,196.118 426.792,196.28 427.116,196.37 L427.71,196.532 L427.674,197 L425.622,197.09 C425.622,196.37 425.802,195.56 426.09,194.768 C425.388,196.388 424.29,197.18 422.922,197.18 C421.572,197.18 420.672,196.388 420.672,195.236 C420.672,193.706 422.238,192.644 424.218,192.644 C424.74,192.644 425.334,192.716 425.712,192.806 L425.712,192.068 C425.712,190.484 424.992,189.638 423.75,189.638 C422.58,189.638 421.698,190.394 421.59,191.528 L421.104,191.528 Z M424.434,193.292 C422.868,193.292 421.752,194.03 421.752,195.128 C421.752,195.884 422.274,196.424 423.102,196.424 C424.452,196.424 425.712,194.984 425.712,193.418 C425.28,193.346 424.848,193.292 424.434,193.292 Z M432.966,188.99 C433.848,188.99 434.676,189.224 435.378,189.656 L435.18,191.582 L434.694,191.582 C434.532,190.322 433.938,189.71 432.894,189.71 C431.364,189.71 430.14,191.24 430.14,193.148 C430.14,195.002 431.238,196.316 432.786,196.316 C433.632,196.316 434.406,196.028 435.126,195.416 L435.468,195.848 C434.64,196.748 433.722,197.18 432.678,197.18 C430.554,197.18 429.06,195.542 429.06,193.238 C429.06,190.988 430.896,188.99 432.966,188.99 Z M440.958,188.99 C441.84,188.99 442.668,189.224 443.37,189.656 L443.172,191.582 L442.686,191.582 C442.524,190.322 441.93,189.71 440.886,189.71 C439.356,189.71 438.132,191.24 438.132,193.148 C438.132,195.002 439.23,196.316 440.778,196.316 C441.624,196.316 442.398,196.028 443.118,195.416 L443.46,195.848 C442.632,196.748 441.714,197.18 440.67,197.18 C438.546,197.18 437.052,195.542 437.052,193.238 C437.052,190.988 438.888,188.99 440.958,188.99 Z M448.806,188.99 C450.786,188.99 452.28,190.7 452.28,192.968 C452.28,195.308 450.678,197.18 448.59,197.18 C446.61,197.18 445.044,195.47 445.044,193.22 C445.044,190.88 446.736,188.99 448.806,188.99 Z M448.698,189.71 C447.222,189.71 446.124,191.096 446.124,193.058 C446.124,195.02 447.204,196.46 448.716,196.46 C450.174,196.46 451.2,195.11 451.2,193.112 C451.2,191.132 450.192,189.71 448.698,189.71 Z M467.13,196.532 L467.094,197 L463.674,197 L463.638,196.532 L464.448,196.352 C464.772,196.28 464.988,196.118 464.988,195.686 L464.988,191.834 C464.988,190.61 464.412,189.854 463.476,189.854 C462.72,189.854 461.784,190.61 461.028,191.816 L461.028,195.686 C461.028,196.082 461.172,196.262 461.514,196.352 L462.198,196.532 L462.162,197 L458.922,197 L458.886,196.532 L459.57,196.352 C459.912,196.262 460.056,196.082 460.056,195.686 L460.056,191.834 C460.056,190.61 459.48,189.854 458.544,189.854 C457.788,189.854 456.852,190.61 456.096,191.816 L456.096,195.686 C456.096,196.118 456.312,196.28 456.636,196.352 L457.446,196.532 L457.41,197 L453.99,197 L453.954,196.532 L454.638,196.352 C454.98,196.262 455.124,196.082 455.124,195.686 L455.124,190.538 C455.124,190.106 454.998,189.944 454.656,189.854 L453.846,189.638 L453.882,189.17 L456.15,189.062 C456.132,189.71 456.042,190.484 455.898,191.132 C456.672,189.8 457.734,188.99 458.688,188.99 C459.894,188.99 460.722,189.71 460.956,190.934 C461.712,189.728 462.702,188.99 463.62,188.99 C465.06,188.99 465.96,190.034 465.96,191.708 L465.96,195.686 C465.96,196.082 466.104,196.262 466.446,196.352 L467.13,196.532 Z M472.764,188.99 C474.564,188.99 475.842,190.574 475.842,192.824 C475.842,195.38 474.384,197.18 472.314,197.18 C471.594,197.18 470.856,196.91 470.19,196.442 L470.19,200.078 C470.19,200.51 470.406,200.672 470.73,200.744 L471.54,200.924 L471.504,201.392 L468.084,201.392 L468.048,200.924 L468.732,200.744 C469.074,200.654 469.218,200.474 469.218,200.078 L469.218,190.538 C469.218,190.106 469.092,189.944 468.75,189.854 L467.94,189.638 L467.976,189.17 L470.244,189.062 C470.244,189.71 470.118,190.43 469.866,191.15 C470.64,189.8 471.648,188.99 472.764,188.99 Z M472.296,196.424 C473.736,196.424 474.762,195.02 474.762,193.022 C474.762,191.168 473.862,189.854 472.584,189.854 C471.738,189.854 470.838,190.556 470.19,191.726 L470.19,195.65 C470.856,196.154 471.594,196.424 472.296,196.424 Z M479.442,184.184 L479.442,195.632 C479.442,196.118 479.64,196.28 480,196.37 L480.666,196.532 L480.63,197 L477.282,197 L477.246,196.532 L477.912,196.37 C478.272,196.28 478.47,196.118 478.47,195.632 L478.47,185.66 C478.47,185.228 478.344,185.066 478.002,184.976 L477.192,184.76 L477.228,184.292 L479.442,184.184 Z M483.78,185.516 C484.248,185.516 484.59,185.858 484.59,186.344 C484.59,186.812 484.23,187.19 483.762,187.19 C483.294,187.19 482.934,186.866 482.934,186.398 C482.934,185.912 483.294,185.516 483.78,185.516 Z M484.374,189.062 L484.374,195.632 C484.374,196.118 484.572,196.28 484.932,196.37 L485.598,196.532 L485.562,197 L482.214,197 L482.178,196.532 L482.844,196.37 C483.204,196.28 483.402,196.118 483.402,195.632 L483.402,190.538 C483.402,190.106 483.276,189.944 482.934,189.854 L482.124,189.638 L482.16,189.17 L484.374,189.062 Z M490.08,188.99 C490.854,188.99 491.736,189.188 492.366,189.494 L492.258,191.186 L491.808,191.186 C491.682,190.232 490.98,189.674 489.936,189.674 C488.91,189.674 488.208,190.196 488.208,190.97 C488.208,191.636 488.73,192.014 489.9,192.482 C491.286,193.04 492.456,193.544 492.456,194.948 C492.456,196.298 491.358,197.18 489.54,197.18 C488.766,197.18 487.812,197.018 487.092,196.73 L486.984,194.714 L487.488,194.66 C487.704,195.866 488.442,196.496 489.666,196.496 C490.746,196.496 491.484,195.992 491.484,195.11 C491.484,194.192 490.674,193.85 489.378,193.328 C488.262,192.878 487.236,192.338 487.236,191.15 C487.236,189.872 488.424,188.99 490.08,188.99 Z M502.248,196.532 L502.212,197 L498.792,197 L498.756,196.532 L499.566,196.352 C499.89,196.28 500.106,196.118 500.106,195.686 L500.106,191.87 C500.106,190.628 499.476,189.854 498.486,189.854 C497.658,189.854 496.668,190.61 495.912,191.816 L495.912,195.686 C495.912,196.118 496.128,196.28 496.452,196.352 L497.262,196.532 L497.226,197 L493.806,197 L493.77,196.532 L494.454,196.352 C494.796,196.262 494.94,196.082 494.94,195.686 L494.94,185.66 C494.94,185.228 494.814,185.066 494.472,184.976 L493.662,184.76 L493.698,184.292 L495.912,184.184 L495.912,188.162 C495.912,189.116 495.822,190.196 495.696,191.168 C496.47,189.818 497.586,188.99 498.63,188.99 C500.142,188.99 501.078,190.052 501.078,191.744 L501.078,195.686 C501.078,196.082 501.222,196.262 501.564,196.352 L502.248,196.532 Z M510.276,192.212 C510.276,192.482 510.258,192.752 510.222,193.004 L504.75,193.004 C504.75,195.038 505.812,196.316 507.486,196.316 C508.278,196.316 509.034,196.064 509.754,195.524 L510.096,195.956 C509.268,196.82 508.404,197.18 507.378,197.18 C505.092,197.18 503.67,195.596 503.67,193.094 C503.67,190.808 505.272,188.99 507.27,188.99 C509.034,188.99 510.276,190.322 510.276,192.212 Z M504.786,192.338 L508.872,192.158 C509.196,192.14 509.232,192.014 509.232,191.78 C509.232,190.628 508.404,189.71 507.234,189.71 C505.938,189.71 505.002,190.772 504.786,192.338 Z M519.6,196.532 L519.564,197 L517.53,197.09 C517.53,196.424 517.692,195.776 517.962,195.074 C517.314,196.316 516.378,197.18 515.028,197.18 C513.21,197.18 511.896,195.56 511.896,193.364 C511.896,190.808 513.498,188.99 515.766,188.99 C516.36,188.99 517.008,189.152 517.602,189.44 L517.602,185.66 C517.602,185.228 517.476,185.066 517.134,184.976 L516.324,184.76 L516.36,184.292 L518.574,184.184 L518.574,195.632 C518.574,196.118 518.682,196.28 519.006,196.37 L519.6,196.532 Z M515.262,196.316 C516.108,196.316 516.99,195.668 517.602,194.606 L517.602,190.16 C517.062,189.89 516.432,189.746 515.82,189.746 C514.146,189.746 512.976,191.222 512.976,193.22 C512.976,195.038 513.93,196.316 515.262,196.316 Z M522.21,195.29 C522.714,195.29 523.092,195.65 523.092,196.172 C523.092,196.676 522.696,197.09 522.192,197.09 C521.688,197.09 521.292,196.748 521.292,196.244 C521.292,195.722 521.688,195.29 522.21,195.29 Z" id="If-they-didnt-have" fill="#3C3C3C"></path>
                <g id="Page-1" transform="translate(466.000000, 18.000000)" fill="#000000">
                    <path d="M42.656,1 C18.961,1 0,20.426 0,44 C0,67.734 19.102,87 42.656,87 L43.3435,87 C66.8865,87 85.9995,67.734 85.9995,44 C85.9995,20.676 67.2725,1 43.3435,1 C43.24584,1 43.13256,0.99219 42.99975,1 C42.86694,0.99219 42.74584,1 42.656,1 Z M41.99975,3.0312 L41.99975,8.1874 C41.99584,8.45693 42.10131,8.71474 42.28881,8.90615 C42.47631,9.09756 42.73022,9.20303 42.99975,9.20303 C43.26928,9.20303 43.52319,9.09756 43.71069,8.90615 C43.89819,8.71474 44.00366,8.45693 43.99975,8.1874 L43.99975,3.0312 C50.76145,3.13667 57.04675,4.8789 62.56175,7.875 L59.93675,12.4688 C59.72972,12.93755 59.9055,13.4844 60.34691,13.7422 C60.78832,14.00001 61.35081,13.88282 61.65551,13.46876 L64.28051,8.84376 C69.87431,12.24216 74.53851,16.96096 77.93651,22.53176 L73.31151,25.21926 C73.0537,25.33645 72.85448,25.5552 72.76463,25.82864 C72.67869,26.09817 72.70994,26.39114 72.85447,26.63723 C72.99509,26.88332 73.23728,27.0552 73.51463,27.11379 C73.79197,27.17238 74.08104,27.10988 74.31151,26.93801 L78.96771,24.25051 C82.03021,29.86381 83.80361,36.27051 83.96771,43.00051 L78.59271,43.00051 C78.32318,42.9966 78.06537,43.10207 77.87787,43.28957 C77.68646,43.47707 77.57709,43.73488 77.57709,44.00051 C77.57709,44.27004 77.68647,44.52785 77.87787,44.71535 C78.06537,44.90285 78.32318,45.00441 78.59271,45.00051 L83.96771,45.00051 C83.80755,51.78571 82.04191,58.16851 78.99891,63.75051 L74.31141,61.03171 C74.16688,60.95358 74.00672,60.91062 73.84266,60.90671 C73.37782,60.88718 72.95985,61.18796 72.83096,61.63327 C72.70596,62.08249 72.90518,62.55905 73.31143,62.78167 L77.96763,65.50047 C74.55743,71.08247 69.84653,75.74247 64.27963,79.12547 L61.65463,74.53167 C61.47885,74.19964 61.12729,73.99261 60.74838,74.00042 C60.389,74.01604 60.06869,74.21526 59.90072,74.53167 C59.73275,74.84808 59.74447,75.23089 59.93588,75.53167 L62.59208,80.12547 C57.04128,83.14107 50.72108,84.859869 43.99808,84.96927 L43.99808,79.81307 C43.99808,79.54354 43.8887,79.28573 43.69339,79.09823 C43.49808,78.90682 43.23636,78.80526 42.96683,78.81307 C42.42777,78.8326 41.99808,79.27401 41.99808,79.81307 L41.99808,84.96927 C35.28718,84.8638 28.94708,83.15677 23.40408,80.15677 L26.06028,75.53177 C26.25559,75.21927 26.2634,74.82474 26.07981,74.50447 C25.90012,74.18416 25.55247,73.99275 25.18528,74.00056 C24.81809,74.00447 24.48216,74.20759 24.31028,74.53181 L21.68528,79.12561 C16.11498,75.74281 11.40828,71.08261 7.99728,65.50061 L12.65348,62.78181 C13.0441,62.56697 13.24723,62.11775 13.14567,61.68021 C13.04411,61.24271 12.6652,60.93021 12.21598,60.90677 C12.02067,60.89505 11.82536,60.93802 11.65348,61.03177 L6.99728,63.75057 C3.95428,58.16857 2.15748,51.78557 1.99728,45.00057 L7.37228,45.00057 C7.64181,45.00448 7.89962,44.90291 8.08712,44.71541 C8.27853,44.52791 8.3879,44.2701 8.3879,44.00057 C8.3879,43.73495 8.27852,43.47713 8.08712,43.28963 C7.89962,43.10213 7.64181,42.99666 7.37228,43.00057 L1.99728,43.00057 C2.15744,36.23497 3.97778,29.87557 7.02848,24.28157 L11.65348,26.93777 C11.88395,27.10965 12.17301,27.17215 12.45036,27.11355 C12.7277,27.05496 12.96989,26.88308 13.11052,26.63699 C13.25505,26.3909 13.2863,26.09793 13.20036,25.8284 C13.11052,25.55496 12.9113,25.33621 12.65348,25.21902 L8.02848,22.53152 C11.43078,16.96122 16.11438,12.26552 21.68448,8.87552 L24.30948,13.46932 C24.58682,13.9537 25.2001,14.12166 25.68448,13.84432 C25.91495,13.71541 26.08682,13.49276 26.15714,13.23494 C26.22746,12.97713 26.1923,12.70369 26.05949,12.46932 L23.40329,7.84432 C28.93849,4.84822 35.26629,3.14122 41.99729,3.03182 L41.99975,3.0312 Z" id="Fill-1"></path>
                    <path d="M43,36.625 C40.707,36.625 38.8125,38.5078 38.8125,40.8125 C38.8125,42.7578 40.1602,44.3867 41.9687,44.8437 L41.9687,71.5317 C41.96479,71.80123 42.07026,72.05904 42.25776,72.25045 C42.44526,72.43795 42.69917,72.54733 42.9687,72.54733 C43.23823,72.54733 43.49214,72.43795 43.67964,72.25045 C43.86714,72.05904 43.97261,71.80123 43.9687,71.5317 L43.9687,44.8757 C44.53511,44.73898 45.0507,44.46945 45.4999,44.1257 L58.1879,54.2817 C58.39493,54.44967 58.66056,54.52389 58.92228,54.49654 C59.1879,54.46529 59.43009,54.33248 59.59416,54.12545 C59.76213,53.91842 59.83635,53.65279 59.809,53.39107 C59.77775,53.12545 59.64494,52.88716 59.43791,52.71919 L46.74991,42.56319 C46.99991,42.02803 47.15616,41.44209 47.15616,40.81319 C47.15616,38.50849 45.30066,36.62569 42.99996,36.62569 L43,36.625 Z M43,38.625 C44.2148,38.625 45.1562,39.58203 45.1562,40.8125 C45.1562,41.28125 45.00386,41.70312 44.74995,42.0625 C44.67182,42.14453 44.60933,42.24219 44.56245,42.34375 C44.18354,42.74609 43.66011,42.98437 43.06245,43 L42.9687,43 L42.9687,42.96875 C42.94917,42.98047 42.92573,42.98828 42.9062,43 L42.87495,43 L42.74995,43 C41.65615,42.89062 40.81245,41.957 40.81245,40.8125 C40.81245,39.582 41.80073,38.625 42.99995,38.625 L43,38.625 Z" id="Fill-2"></path>
                </g>
            </g>
        </g>
    </g>
</svg>