<?xml version="1.0" encoding="UTF-8"?>
<svg width="780px" height="150px" viewBox="0 0 780 150" version="1.1" xmlns="http://www.w3.org/2000/svg" xmlns:xlink="http://www.w3.org/1999/xlink">
    <!-- Generator: Sketch 49.3 (51167) - http://www.bohemiancoding.com/sketch -->
    <title>Image / Cities</title>
    <desc>Created with Sketch.</desc>
    <defs></defs>
    <g id="Portfolio" stroke="none" stroke-width="1" fill="none" fill-rule="evenodd">
        <g id="AdaptivePath" transform="translate(-330.000000, -2030.000000)">
            <g id="Image-/-Cities" transform="translate(330.000000, 2030.000000)">
                <rect id="Rectangle-3" fill="#FFFFFF" x="0" y="0" width="780" height="150"></rect>
                <g id="Group-3" transform="translate(230.000000, 31.000000)">
                    <g id="Icons-/-NYC" transform="translate(0.000000, 1.000000)">
                        <circle id="Oval-2" fill="#CBF4D0" cx="40.5" cy="40.5" r="40.5"></circle>
                        <polygon id="Fill-1" fill="#323232" points="54.3091267 15 55 17.3529412 52.6908733 18 52 15.6470588"></polygon>
                        <polygon id="Fill-2" fill="#323232" points="56 17 58 17 58 15 56 15"></polygon>
                        <polygon id="Fill-3" fill="#323232" points="60.7864078 15 63 15.7077424 62.2135922 18 60 17.2922576"></polygon>
                        <path d="M99,62.3860472 L99,59.8776281 L92.0259414,59.8776281 L92.0259414,52.0192529 L84.2188782,52.0192529 L84.2188782,62.7974279 L80.2331554,62.7974279 L80.2331554,46.8960579 L74.0174169,46.8960579 L74.0174169,57.2116804 L67.7568294,57.2116804 C67.7120092,56.7374286 67.6746478,56.3180611 67.6447645,55.9887759 L68.2237557,55.6438683 C68.47403,55.4988516 70.5434693,54.1741354 70.834844,50.1096939 L71.936751,49.5531359 L73.7671426,45.6337813 L73.4795164,44.7871899 L74.7794664,41.5772162 L69.1128167,37.5598326 L67.372123,40.0329331 L66.3075105,38.9629419 C66.2589512,37.6067902 65.8443136,34.3929034 63.1249567,33.0564177 L62.0715325,30.4343171 L60.7342881,25.3430292 C61.4589571,23.7008174 61.8361951,21.7019084 62.0117658,20.5182356 L62.1499751,19.5815017 L61.328178,19.185643 C60.0954536,18.5938167 58.8516365,18.2920238 57.6375593,18.2920238 C54.9032081,18.2920238 53.2185518,19.820554 53.1475967,19.8832645 L52.5349926,20.4515819 L52.8188893,21.2589818 C53.3978806,22.9168461 53.9656453,24.2456059 54.5372063,25.2763654 L53.3157659,27.0283456 C53.1215289,25.7780492 52.5051762,24.7785947 52.1913866,24.3357083 L52.0569163,23.8496971 C52.3557499,21.6155987 51.3397157,17.9431729 51.1230637,17.1984735 L50.7420485,14.6508228 C50.7868783,13.3927001 50.641191,12.15023 50.4843058,11.2095728 L50.9848544,11.2095728 L50.9848544,6.31815571 L50.1705353,6.16137952 C50.4208096,5.3226244 50.3983947,4.59361762 50.2975372,4.04878901 C49.8791701,1.79903814 47.865749,0.51743668 47.6379661,0.376262856 L47.021623,0 L46.4127484,0.388022325 C44.6757842,1.50115836 43.7344345,2.82981776 43.6111716,4.33878232 C43.5551439,5.03643385 43.6933532,5.65961545 43.9025368,6.19661779 L43.2600493,6.33379822 L43.2600493,11.2095628 L44.3395797,11.2095628 C44.3321112,12.2090073 44.4441762,13.5337636 44.9633912,14.6154942 L46.0429215,23.2617136 L46.360431,24.813823 C45.7851788,26.5658032 43.9249134,33.0720401 47.0440092,35.3652368 L48.855658,42.6553046 C46.9692291,47.8132162 46.6779501,50.9801454 47.9853016,52.0736154 C48.2393053,52.2852658 48.519463,52.4145999 48.8257746,52.4655509 C48.3962001,54.4761992 47.9292739,57.2668656 48.2990816,58.6817143 C48.3812632,59.0031029 48.4559668,59.4185674 48.526941,59.8771264 L45.9869034,59.8771264 L45.9943718,55.1934064 L37.6793394,55.1934064 L37.6793394,63.1498106 L32.1023875,63.1498106 L32.1023875,44.4069035 L24.134767,44.4069035 L24.134767,59.8768254 L17.000154,59.8768254 L17.000154,62.3852445 L26.5217062,62.3852445 L26.5217062,46.9153226 L29.7079894,46.9153226 L29.7079894,65.6582296 L40.0701036,65.6582296 L40.0701036,57.7018254 L43.6037988,57.7018254 L43.6037988,62.3855455 L48.8221503,62.3855455 C48.8968635,63.2360601 48.9491522,64.0081916 48.9753061,64.4903097 C48.6241743,68.1157779 48.489704,70.5967047 48.4822355,72.3173798 L17,72.3134567 L17,74.8218757 L48.6094191,74.8218757 C48.6916007,75.3823468 48.7999267,75.7351008 48.9119917,75.9584905 L48.5982212,78.6981858 L36.8017058,78.6981858 L36.8017058,81.2066049 L48.3065596,81.2066049 L48.2131801,82.0257642 L46.7750495,83.4954971 L29.9504797,83.491584 L29.9504797,86 L84.7752059,86 L84.7752059,83.491584 L68.103639,83.491584 L67.7935979,81.5671249 L78.4024292,81.5671249 L78.4024292,79.0587058 L67.3900531,79.0587058 L66.9418027,76.2837924 C67.188338,75.9506442 67.4311439,75.4567967 67.5842997,74.8179726 L98.9995984,74.8179726 L98.9995984,72.3095536 L67.6627136,72.3134667 C67.5469192,71.1141414 67.3190502,69.7149452 67.162165,68.829072 C67.9466007,68.2098035 68.7049113,67.1790339 68.5554466,65.7601718 C68.4695356,64.9762908 68.2155223,62.2209932 67.9839238,59.7204004 L76.4073014,59.7204004 L76.4073014,49.4047779 L77.8417026,49.4047779 L77.8417026,65.3061479 L86.6087627,65.3061479 L86.6087627,54.527973 L89.6344886,54.527973 L89.6344886,62.3863482 L99,62.3860472 Z M65.7400614,61.3787664 L61.0931752,65.8038183 L65.0003885,53.7553799 L65.1946351,55.4446497 C65.2245184,55.7660383 65.4860002,58.6546233 65.740004,61.3786661 L65.7400614,61.3787664 Z M52.5579144,77.1777929 C52.4981477,77.2287439 52.423444,77.2875413 52.3225865,77.358088 C51.9303639,77.6246025 51.4970599,77.8597718 51.0786738,78.0557396 L51.568015,73.8070797 L50.9031127,73.9834517 C50.8358775,72.9134605 50.8956442,71.0125805 51.0226461,68.9195557 C51.1720629,68.927392 51.3289481,68.9352283 51.4970408,68.9352283 C53.1555911,68.9352283 55.7068171,68.4805823 58.3925899,66.3326933 L57.051616,70.4676716 L58.7250841,71.7336206 L51.9116784,76.4447325 L52.5579144,77.1777929 Z M63.9250657,39.4300998 L63.8914529,40.0101767 L67.6866872,43.8159501 L69.6813655,40.9861524 L71.8143201,42.4990301 L70.9178194,44.7056362 L71.1793011,45.4777576 L70.1558081,47.6687112 L68.4860694,48.5113794 L68.474862,49.2874241 C68.4449786,51.6037985 67.7427245,52.7208477 67.3355649,53.1832999 L66.188809,43.2750446 L63.8167876,43.5768375 L64.3322731,48.0214551 L60.2681364,60.5515099 C58.0679562,63.9261362 55.7595265,65.4036953 53.9067583,66.0190607 L60.6006306,43.2747236 L58.3145776,42.5339573 L51.2844817,66.426147 C51.2583278,66.426147 51.2321834,66.4222339 51.2060391,66.4222339 C51.2545983,65.8225612 51.3068966,65.2268217 51.3629243,64.6467749 L51.3741222,64.548786 L51.3703928,64.4507971 C51.3629243,64.270502 51.1387943,60.0297587 50.6158404,58.0230235 C50.3356827,56.9412929 51.0566223,53.2452879 51.6579806,50.9641316 L51.7140083,50.7524813 C51.9007769,50.0900981 52.733772,47.5503338 54.8667265,45.5749037 C57.72807,42.9254112 59.3604186,40.6364286 59.4276442,40.5424131 L57.5113798,39.0451879 C57.4964429,39.0647837 55.9462569,41.2322283 53.2828607,43.6935894 C51.0453861,45.7669482 49.9882325,48.2871067 49.5698654,49.5452293 C49.6520471,48.2831936 50.2683901,45.8335719 51.131259,43.4623132 L61.0228896,34.2791917 L61.3217232,35.0238811 L61.8222718,35.2080894 C64.0673009,36.0233256 63.9252952,39.3979519 63.9252952,39.429257 L63.9250657,39.4300998 Z M57.6346427,20.8055901 C58.2360489,20.8055901 58.8523537,20.9114153 59.4762226,21.1191425 C59.0466481,23.2552118 58.2883472,25.2697733 57.7766484,25.5323546 C57.6272316,25.465721 56.7643437,24.9405282 55.4008975,21.3346658 C55.9014462,21.0759876 56.6634575,20.80555 57.6346427,20.80555 L57.6346427,20.8055901 Z M45.6554802,8.70598 L45.6554802,8.45906127 C46.4100326,8.38067819 47.5829329,8.34539978 48.5915082,8.4551381 L48.5915082,8.70598 L45.6554802,8.70598 Z M47.0114675,3.00715295 C47.4074196,3.38341581 47.840733,3.92821432 47.952798,4.54350944 C48.0312407,4.97464648 47.9453296,5.42145611 47.6950553,5.89574798 C47.5194941,5.88791168 47.3513919,5.87222904 47.1720917,5.87222904 C46.9255564,5.87222904 46.690219,5.88006535 46.4660986,5.88791168 C46.2382392,5.5743593 45.9580815,5.07659866 45.9991723,4.55533915 C46.0477316,3.96742593 46.4959819,3.43046371 47.011477,3.00714292 L47.0114675,3.00715295 Z M48.4160331,22.8858722 L47.2804655,13.8045925 L47.1571931,13.5811827 C46.8359446,13.0089521 46.735087,12.0487394 46.7387265,11.209924 L48.0499644,11.209924 C48.2143276,12.0565155 48.4085647,13.3733853 48.348798,14.6590002 L48.3413295,14.7883443 L48.7746334,17.6769394 L48.8157242,17.8533113 C49.2863895,19.4367258 49.9326446,22.4076973 49.6636657,23.6383276 L49.5926915,23.9558032 L50.0334735,25.5235651 L50.1978367,25.7273691 C50.2053052,25.7391286 51.1092744,26.9071288 50.9673356,28.0320042 L50.885154,28.686541 L53.4364755,31.0969311 L56.0699405,27.31865 C56.6227779,27.800738 57.1905904,28.0398204 57.7882575,28.0398204 C58.1916876,28.0398204 58.5540174,27.9222358 58.8864351,27.7301912 L59.7904043,31.1714411 L60.051886,31.825978 L50.788045,40.4290526 L49.4955539,35.2279962 C50.1791321,34.8282144 51.0681357,34.1697444 51.7927952,33.142898 L49.8653425,31.6652385 C49.3535864,32.3981684 48.6923849,32.8528244 48.2367234,33.1075794 C47.1683814,31.8102251 47.8370323,27.8712045 48.7298036,25.3353935 L48.853076,24.9904859 L48.4160331,22.8858722 Z M65.3706552,67.0460877 L64.462947,67.4458695 L64.6609231,68.4570634 C64.8514307,69.4329989 65.3519793,72.250997 65.3519793,73.5680174 C65.3519793,74.4812424 65.0195234,74.8104875 65.0307308,74.8104875 L65.0344699,74.8104875 L64.3546211,75.253384 L65.6806772,83.4958483 L50.2044445,83.4919351 L50.4883412,83.2019017 L50.7535524,80.8933535 C51.4968974,80.6150795 52.6474401,80.1290683 53.6298137,79.4549257 C54.4964311,78.8591762 54.985801,78.1653976 55.0754032,77.3893931 C55.0828717,77.3423552 55.0866107,77.2953274 55.0866107,77.2482995 L62.9309683,71.8238935 L60.3609995,69.8798688 L66.0239198,64.490681 C66.091155,65.1922557 66.1471922,65.7448905 66.1770756,66.0388772 C66.2405718,66.6267904 65.3664859,67.046158 65.3702249,67.046158 L65.3706552,67.0460877 Z" id="Fill-4" fill="#323232"></path>
                    </g>
                    <g id="Icons-/-SF" transform="translate(216.000000, 0.000000)">
                        <ellipse id="Oval-2" fill="#FFCACA" cx="58.5" cy="45.5" rx="39.5" ry="41.5"></ellipse>
                        <polygon id="Fill-1" fill="#323232" points="39 71 69 71 69 68 39 68"></polygon>
                        <polygon id="Fill-2" fill="#323232" points="70 71 81 71 81 68 70 68"></polygon>
                        <polygon id="Fill-3" fill="#323232" points="50 66 75 66 75 63 50 63"></polygon>
                        <polygon id="Fill-4" fill="#323232" points="44 77 55 77 55 74 44 74"></polygon>
                        <polygon id="Fill-5" fill="#323232" points="59 77 76 77 76 74 59 74"></polygon>
                        <polygon id="Fill-6" fill="#323232" points="61 61 83 61 83 58 61 58"></polygon>
                        <path d="M77.3637829,46.4043156 L79.802827,45.2572115 L79.802827,42.4993744 L77.3637829,43.6464785 L77.3637829,41.3758036 L79.802827,40.2286995 L79.802827,37.4708623 L77.3637829,38.6179665 L77.3637829,36.410148 L79.802827,35.5537321 L79.802827,32.9019966 L77.3637829,33.7584125 L77.3637829,17.2387449 L74.965981,17.2387449 L74.965981,20.3697981 C74.7599235,20.7626456 74.5501159,21.1437163 74.3440488,21.5208245 L72.0099325,21.5247468 L72.0099325,17.2387449 L69.6121306,17.2387449 L69.6121306,20.8608826 C68.2333945,23.2808037 64.4230955,28.981125 60.9538599,30.3600435 L61.8043314,32.713186 C62.699757,32.355689 63.58398,31.7978359 64.4306918,31.126087 L64.4306918,33.0353125 C62.6285998,34.0645483 60.7927468,34.5949558 58.9269692,34.5949558 L58.8482925,34.5949558 C48.2941277,34.512458 38.7595083,18.0441113 35.0122235,10.6542101 L35.0122235,6.53706561 L32.6519233,6.53706561 L32.6519233,0 L30.2541214,0 L30.2541214,3.10349704 L20.5315143,12.1076512 L19.257706,12.1862267 L19.257706,8.41876497 L17.0996843,8.42269727 L17.0996843,2.13705726 L14.7018825,2.13705726 L14.7018825,3.24886126 L0.0973517155,14.2019661 L1.49104912,16.2447488 L7.14832697,12.0018915 L7.14832697,19.1046648 L9.54612885,19.1046648 L9.54612885,10.2065116 L14.7014029,6.34079273 L14.7014029,8.41897617 L12.5433812,8.41897617 L12.5433812,19.5088565 L0,31.1337706 L1.58849579,33.0155404 L7.14842288,27.8652378 L7.14842288,47.3306078 L9.54622477,47.3306078 L9.54622477,25.6456526 L12.5434771,22.8682043 L12.5434771,56.4848027 L9.54622477,57.5376725 L9.54622477,50.356354 L7.14842288,50.356354 L7.14842288,58.3784397 L1.37499551,60.4055335 L2.13554949,62.7901545 L7.15223059,61.0340975 L7.15223059,71.6965544 L0.303532945,74.9139975 L1.28509712,77.2082058 L27.8891886,64.6761482 L27.8891886,66.9468231 L0.30295939,79.9425095 L1.28452357,82.2367178 L12.542681,76.9332468 L12.542681,88 L14.9404829,88 L14.9404829,75.8058544 L16.8587244,74.9022911 L16.8587244,87.9995565 L19.2565263,87.9995565 L19.2565263,73.773893 L27.8886131,69.7078382 L27.8886131,87.9995555 L30.286415,87.9995555 L30.286415,60.8455886 L32.6130501,60.8455886 L32.6130501,87.9995555 L35.010852,87.9995555 L35.010852,66.3538207 L69.610174,50.0544019 L69.610174,54.0576003 L66.0958597,54.0576003 L66.0958597,56.5718563 L82,56.5718563 L82,54.0576003 L77.361788,54.0576003 L77.3637829,46.4043156 Z M14.9422861,10.9372148 L16.8605276,10.9372148 L16.8605276,15.5139652 L14.9422861,17.2935556 L14.9422861,10.9372148 Z M14.9422861,20.644556 L16.8605276,18.8688879 L16.8605276,54.9715927 L14.9422861,55.6433717 L14.9422861,20.644556 Z M27.8904162,61.9215997 L9.54723184,70.5603822 L9.54723184,60.189579 L27.8904162,53.758615 L27.8904162,61.9215997 Z M27.8904162,51.1022533 L19.2583295,54.1311272 L19.2583295,47.8650984 L27.8904162,48.5054492 L27.8904162,51.1022533 Z M27.8904162,45.9834292 L19.2583295,45.3430783 L19.2583295,42.8209779 L27.8904162,43.4613287 L27.8904162,45.9834292 Z M27.8904162,40.9431505 L19.2583295,40.3027996 L19.2583295,36.8810983 L27.8904162,37.3053841 L27.8904162,40.9431505 Z M27.8904162,34.7871455 L19.2583295,34.3628598 L19.2583295,32.8503839 L27.8904162,33.2746696 L27.8904162,34.7871455 Z M27.8904162,30.7604136 L19.2583295,30.3361279 L19.2583295,28.0576086 L27.8904162,28.0576086 L27.8904162,30.7604136 Z M27.8904162,25.5433324 L19.2583295,25.5433324 L19.2583295,24.0347788 L27.8904162,24.0347788 L27.8904162,25.5433324 Z M27.8904162,21.5205228 L19.2583295,21.5205228 L19.2583295,18.7783747 L27.8904162,18.5505227 L27.8904162,21.5205228 Z M27.8904162,16.0363271 L19.6816854,16.2523922 L21.4987396,14.5670361 L27.8904162,14.1702563 L27.8904162,16.0363271 Z M27.8904162,11.652068 L24.4136035,11.8681331 L27.8904162,8.64676776 L27.8904162,11.652068 Z M30.2544571,6.53716618 L30.1682897,6.53716618 L30.2544571,6.45859065 L30.2544571,6.53716618 Z M32.6147573,58.3308398 L30.2881222,58.3308398 L30.2881222,46.7652622 L32.6147573,46.7652622 L32.6147573,58.3308398 Z M32.6147573,44.2510062 L30.2881222,44.2510062 L30.2881222,33.691131 L32.6147573,33.691131 L32.6147573,44.2510062 Z M32.6147573,31.176875 L30.2881222,31.176875 L30.2881222,21.6227022 L32.6147573,21.6227022 L32.6147573,31.176875 Z M32.6147573,19.1084462 L30.2881222,19.1084462 L30.2881222,9.05142218 L32.6147573,9.05142218 L32.6147573,19.1084462 Z M72.0096831,24.0347788 L72.8638953,24.0347788 C72.5791515,24.4865605 72.2981675,24.9265553 72.0096831,25.350841 L72.0096831,24.0347788 Z M66.8282251,28.8551104 C67.8847925,27.7001618 68.8325956,26.4704895 69.6118813,25.3586855 L69.6118813,28.5328834 C68.6939739,29.6092867 67.7685471,30.540366 66.8282251,31.3339657 L66.8282251,28.8551104 Z M66.8282251,34.4375633 C67.7686142,33.7854257 68.6977433,33.0233446 69.6118813,32.1314877 L69.6118813,36.4764238 L66.8282251,37.450698 L66.8282251,34.4375633 Z M60.5901996,36.979275 C61.8902878,36.8024926 63.1715772,36.4174997 64.4341638,35.8282486 L64.4341638,38.2914149 L60.5901996,39.638855 L60.5901996,36.979275 Z M54.9066419,36.464637 C55.9819122,36.7985603 57.0796259,37.0067709 58.1923978,37.0735596 L58.1923978,40.4834942 L54.9066419,41.6345206 L54.9066419,36.464637 Z M54.9066419,44.282364 L58.1923978,43.1313376 L58.1923978,47.649154 L54.9066419,49.1970305 L54.9066419,44.282364 Z M46.5555775,31.2866776 C48.4363174,33.0231234 50.4258215,34.4845095 52.50884,35.5059009 L52.50884,38.1458697 C50.4219851,37.9337268 48.4176145,37.2108782 46.5555775,36.1973213 L46.5555775,31.2866776 Z M46.5555775,39.0062481 C48.4176145,39.8862377 50.4182445,40.4951905 52.50884,40.6759152 L52.50884,42.4752174 L46.5555775,44.5612453 L46.5555775,39.0062481 Z M46.5555775,47.208958 L52.50884,45.1229301 L52.50884,50.3243223 L46.5555775,53.1254047 L46.5555775,47.208958 Z M40.5872568,24.5022092 C41.7112504,26.0225295 42.9026702,27.4997052 44.1577756,28.8707793 L44.1577756,34.6889688 C42.861428,33.7657642 41.662527,32.7443427 40.5872568,31.7111846 L40.5872568,24.5022092 Z M40.5872568,35.0620844 C41.688711,35.9970759 42.8838714,36.8888423 44.1577756,37.6863643 L44.1577756,45.4020125 L40.5872568,46.6552183 L40.5872568,35.0620844 Z M40.5872568,49.3028304 L44.1577756,48.0496246 L44.1577756,54.2567193 L40.5872568,55.9381531 L40.5872568,49.3028304 Z M35.0123674,15.7968492 C35.9639974,17.493972 37.0280556,19.2735624 38.1894549,21.0493311 L38.1894549,29.2128187 C36.5597169,27.3664496 35.4432044,25.7950396 35.0123674,25.1625534 L35.0123674,15.7968492 Z M35.0123674,29.2682329 C35.8590888,30.325025 36.9306089,31.566464 38.1894549,32.839281 L38.1894549,47.4963878 L35.0123674,48.6081918 L35.0123674,29.2682329 Z M35.0123674,51.2599273 L38.1894549,50.1481233 L38.1894549,57.074094 L35.0123674,58.5708809 L35.0123674,51.2599273 Z M69.6116894,47.2999741 L35.0123674,63.5953701 L35.0123674,61.3246952 L69.6116894,45.0252764 L69.6116894,47.2999741 Z M74.9655015,54.0570874 L72.0094913,54.0570874 L72.0094913,48.926396 L74.9655015,47.5317885 L74.9655015,54.0570874 Z M74.9655015,44.7778736 L72.0094913,46.1724811 L72.0094913,43.9018062 L74.9655015,42.5071987 L74.9655015,44.7778736 Z M74.9655015,39.7493616 L60.5863632,46.5221638 L60.5863632,42.2950961 L74.9655015,37.2548174 L74.9655015,39.7493616 Z M74.9655015,34.599059 L72.0094913,35.6361393 L72.0094913,32.0807802 L74.9655015,32.0807802 L74.9655015,34.599059 Z M74.9655015,29.5666248 L72.0094913,29.5666248 L72.0094913,29.4684079 C73.0135948,28.2191244 73.9988996,26.8127501 74.9655015,25.2570291 L74.9655015,29.5666248 Z" id="Fill-7" fill="#323232"></path>
                    </g>
                    <g id="Icons-/-Add" transform="translate(144.000000, 28.000000)" fill="#273B49">
                        <path d="M16.5,0 C16.1429365,0 15.591204,0.287462573 15.597639,0.644529442 L15.597639,15.5976389 L0.644529534,15.5976389 C0.287465866,15.5976389 0,16.1429033 0,16.4999999 C0,16.8570965 0.287462565,17.408796 0.644529534,17.4023609 L15.597639,17.4023609 L15.597639,32.3554707 C15.597639,32.7125341 16.1429035,33 16.5,33 C16.8570966,33 17.4023611,32.7125374 17.4023611,32.3554707 L17.4023611,17.4023609 L32.3554706,17.4023609 C32.7125341,17.4023609 33,16.8570965 33,16.4999999 C33,16.1429033 32.7125374,15.5976389 32.3554706,15.5976389 L17.4023611,15.5976389 L17.4023611,0.644529442 C17.4023611,0.287465873 16.8570966,0 16.5,0 Z" id="Page-1"></path>
                    </g>
                </g>
            </g>
        </g>
    </g>
</svg>