<?xml version="1.0" encoding="UTF-8"?>
<svg width="780px" height="287px" viewBox="0 0 780 287" version="1.1" xmlns="http://www.w3.org/2000/svg" xmlns:xlink="http://www.w3.org/1999/xlink">
    <!-- Generator: Sketch 49.3 (51167) - http://www.bohemiancoding.com/sketch -->
    <title>Image / Kickoff</title>
    <desc>Created with Sketch.</desc>
    <defs></defs>
    <g id="Portfolio" stroke="none" stroke-width="1" fill="none" fill-rule="evenodd">
        <g id="AdaptivePath" transform="translate(-330.000000, -5197.000000)">
            <g id="Group-2" transform="translate(0.000000, 5197.000000)">
                <g id="Image-/-Kickoff" transform="translate(330.000000, 0.000000)">
                    <rect id="Rectangle-15" fill="#FFFFFF" x="0" y="0" width="780" height="287"></rect>
                    <text id="Our-team-walked-thro" font-family="Capitolina-Light, Capitolina" font-size="18" font-weight="300" line-spacing="24" fill="#3C3C3C">
                        <tspan x="0" y="157">Our team walked through what </tspan>
                        <tspan x="0" y="181">we had learned about them to </tspan>
                        <tspan x="0" y="205">gain clarification, along with </tspan>
                        <tspan x="0" y="229">asking additional questions </tspan>
                        <tspan x="0" y="253">about their process and tools </tspan>
                        <tspan x="0" y="277">they used.</tspan>
                    </text>
                    <text id="We-conducted-intervi" font-family="Capitolina-Light, Capitolina" font-size="18" font-weight="300" line-spacing="24" fill="#3C3C3C">
                        <tspan x="284" y="157">We conducted interviews at </tspan>
                        <tspan x="284" y="181">their office, a WeWork space in </tspan>
                        <tspan x="284" y="205">Harlem along with attending </tspan>
                        <tspan x="284" y="229">one of their actual client </tspan>
                        <tspan x="284" y="253">assessment reviews.</tspan>
                    </text>
                    <text id="We-invited-them-to-o" font-family="Capitolina-Light, Capitolina" font-size="18" font-weight="300" line-spacing="24" fill="#3C3C3C">
                        <tspan x="570" y="157">We invited them to our </tspan>
                        <tspan x="570" y="181">office, where we facilitated </tspan>
                        <tspan x="570" y="205">an interactive session in </tspan>
                        <tspan x="570" y="229">which we worked throug the </tspan>
                        <tspan x="570" y="253">process – together.</tspan>
                    </text>
                    <text id="Kick-Off-Call" font-family="RuckSack-Bold, RuckSack" font-size="18" font-weight="bold" fill="#333333">
                        <tspan x="0" y="125">Kick Off Call</tspan>
                    </text>
                    <text id="Field-Research" font-family="RuckSack-Bold, RuckSack" font-size="18" font-weight="bold" fill="#333333">
                        <tspan x="284" y="125">Field Research</tspan>
                    </text>
                    <text id="Co-Creation-Session" font-family="RuckSack-Bold, RuckSack" font-size="18" font-weight="bold" fill="#333333">
                        <tspan x="570" y="125">Co-Creation Session</tspan>
                    </text>
                    <g id="Icons-/-Mobile">
                        <ellipse id="Oval-5" fill="#BAFDC3" cx="41" cy="32.0930233" rx="32" ry="32.0930233"></ellipse>
                        <path d="M46.5144621,4.54386403 L13.9349732,4.54386403 C11.482256,4.54386403 9.49231565,6.53958911 9.49231565,8.99943631 L9.49231565,71.3774481 C9.49231565,73.8372953 11.482256,75.8330204 13.9349732,75.8330204 L46.5144621,75.8330204 C48.9671793,75.8330204 50.9571196,73.8372953 50.9571196,71.3774481 L50.9571196,8.99943631 C50.9571196,6.53958911 48.9671793,4.54386403 46.5144621,4.54386403 Z M47.9953479,71.3774481 C47.9953479,71.7719519 47.8391589,72.149079 47.5614928,72.4275522 C47.2838267,72.7060255 46.9078224,72.8626686 46.5144325,72.8626686 L13.9349436,72.8626686 C13.1163839,72.8626686 12.4540577,72.1983947 12.4540577,71.3774778 L12.4540577,63.951524 L47.9953479,63.951524 L47.9953479,71.3774481 Z M47.9953479,60.9811128 L12.4540874,60.9811128 L12.4540874,19.3957716 L47.9953479,19.3957716 L47.9953479,60.9811128 Z M47.9953775,16.4253901 L12.4540874,16.4253901 L12.4540874,8.99943631 C12.4540874,8.17849711 13.1164358,7.51424555 13.9349732,7.51424555 L46.5144621,7.51424555 C46.9078224,7.51424555 47.2838563,7.67088862 47.5615224,7.94936188 C47.8391885,8.22783515 47.9953775,8.60493251 47.9953775,8.99946601 L47.9953775,16.4253901 Z M27.2629459,68.4070666 C27.2629459,67.2061414 27.9831452,66.1212838 29.0909514,65.6629539 C30.1987281,65.2017353 31.4713274,65.4570025 32.3188383,66.3069252 C33.1663493,67.1568479 33.4208396,68.4331985 32.960943,69.5441955 C32.5039491,70.6551924 31.4222286,71.377515 30.2247843,71.377515 C28.587739,71.377515 27.2630126,70.0489376 27.2630126,68.4071334 L27.2629459,68.4070666 Z M34.6673752,11.9698178 C34.6673752,12.3643216 34.5111862,12.7414487 34.2335201,13.0199219 C33.955854,13.2983952 33.5798497,13.4550383 33.1864597,13.4550383 L27.2629163,13.4550383 C26.4443567,13.4550383 25.7820305,12.7907644 25.7820305,11.9698475 C25.7820305,11.1489306 26.4443789,10.4846568 27.2629163,10.4846568 L33.1864597,10.4846568 C33.5798201,10.4846568 33.955854,10.6412998 34.2335201,10.9197731 C34.5111862,11.1982464 34.6673752,11.5753437 34.6673752,11.9698772 L34.6673752,11.9698178 Z" id="Page-1" fill="#000000" transform="translate(30.224718, 40.188442) rotate(-15.000000) translate(-30.224718, -40.188442) "></path>
                    </g>
                    <g id="Icons-/-Study" transform="translate(284.000000, 7.000000)">
                        <circle id="Oval" fill="#FFF7CE" cx="50" cy="34" r="34"></circle>
                        <g id="Page-1" stroke="#000000" stroke-linecap="round" stroke-linejoin="round" stroke-width="2">
                            <path d="M44.898,44.602 L59,44.602 C60.1016,44.602 61,43.70356 61,42.602 L61,2.801 C61,1.6994 60.10156,0.801 59,0.801 L2.699,0.801 C1.5974,0.801 0.699,1.69944 0.699,2.801 L0.699,42.602 C0.699,43.7036 1.59744,44.602 2.699,44.602 L29.5,44.602 C29.5,44.602 35.1992,57.602 50,57.301 C50,57.301 45,52.301 44.8984,44.602 L44.898,44.602 Z" id="Stroke-1"></path>
                            <polyline id="Stroke-2" points="8.602 11.301 34 11.301 8.602 11.301"></polyline>
                            <path d="M8.602,19 L27.399,19" id="Stroke-3"></path>
                            <path d="M8.602,26.398 L18.0004,26.398" id="Stroke-4"></path>
                            <path d="M8.602,34.102 L35.7,34.102" id="Stroke-5"></path>
                            <path d="M40.199,11.301 L51.898,11.301" id="Stroke-6"></path>
                            <path d="M51.898,19 L34,19" id="Stroke-7"></path>
                            <path d="M51.898,26.398 L22.5,26.398" id="Stroke-8"></path>
                            <path d="M51.898,34.102 L40.199,34.102" id="Stroke-9"></path>
                        </g>
                        <path d="M101.685093,64.1632091 L91.6692066,54.1492847 C93.9874542,51.4815443 95.3945329,48.0019315 95.3945329,44.1977591 C95.3945329,35.8178214 88.5758285,29 80.1957595,29 C71.8169817,29 65,35.8182475 65,44.1977591 C65,52.5772664 71.8169817,59.3955139 80.1970506,59.3955139 C84.0013919,59.3955139 87.4796886,57.9885296 90.1475218,55.6704373 L100.163408,65.6856523 C100.373547,65.8957769 100.649248,66 100.924939,66 C101.200631,66 101.474645,65.8957769 101.684792,65.6856523 C102.105069,65.2637205 102.105069,64.5829161 101.684792,64.1626497 L101.685093,64.1632091 Z M67,44.0008577 C67,36.8327176 72.831431,31 79.9991423,31 C87.1672824,31 93,36.8331464 93,44.0008577 C93,51.168569 87.168569,57 79.9991423,57 C72.8310022,57 67,51.168569 67,44.0008577 Z" id="Page-1" fill="#000000"></path>
                    </g>
                    <g id="Icons-/-Highlighter" transform="translate(696.000000, 1.000000)">
                        <circle id="Oval-6" fill="#FFDFF8" cx="36" cy="36" r="36"></circle>
                        <g id="Page-1" transform="translate(17.000000, 12.000000)" fill="#000000">
                            <polygon id="Fill-1" points="9.13091762 60 2.97773479 60 0 56.9967343 6.94411822 50 8.54661268 51.6146369 3.20498967 56.9967343 3.91622644 57.7163291 8.19251663 57.7163291 11.3975055 54.4840866 13 56.0987234"></polygon>
                            <path d="M13.399818,58 L5,49.601395 L5.80563339,48.7958779 C8.61348373,45.988433 8.61348373,41.418858 5.80563339,38.6080774 L7.41394301,37 L26,55.583373 L24.3916904,57.1914504 C23.0321603,55.8321167 21.2224613,55.082929 19.300239,55.082929 C17.3749838,55.082929 15.5652847,55.8321774 14.2057547,57.1914504 L13.399818,58 Z M8.16915322,49.5536325 L13.4472082,54.8309254 C15.1088223,53.5219317 17.1495581,52.8111814 19.2969028,52.8111814 C19.5427404,52.8111814 19.788578,52.8200667 20.0344156,52.8407941 L10.1567816,42.961554 C10.3374558,45.2744682 9.67399298,47.6377226 8.16935037,49.5537538 L8.16915322,49.5536325 Z" id="Fill-3"></path>
                            <path d="M25.2134402,58 L5,37.785344 L37.786408,5 L46.5501445,13.7642636 L39.3933587,20.9185198 L42.0764418,23.6017643 L49.2332277,16.444548 L58,25.2088117 L25.2134402,58 Z M8.21951764,37.785344 L25.2134402,54.7802887 L54.7803306,25.21162 L49.2333794,19.6672954 L42.0765936,26.8245117 L36.1739169,20.9185198 L43.3277428,13.7613035 L37.7837516,8.21697886 L8.21951764,37.785344 Z" id="Fill-4"></path>
                            <polygon id="Fill-5" points="25.4403765 23 27 24.5596235 15.5596235 36 14 34.4403765"></polygon>
                            <path d="M57.3513472,27 L48.5261549,18.1780885 L52.1283553,14.5759798 L49.4273927,11.875086 L45.8251923,15.4771946 L37,6.65222706 L40.3306678,3.31866453 C42.4705343,1.17885247 45.3176539,0 48.343707,0 C51.3728926,0 54.2171089,1.17885247 56.3598024,3.31866453 L60.681251,7.64000306 C62.8211175,9.77981511 64,12.6268623 64,15.6528383 C64,18.6789671 62.8211175,21.5260906 60.681251,23.6656735 L57.3513472,27 Z M51.7674324,18.1780885 L57.3513472,23.7588815 L59.0614527,22.0488196 C60.7685784,20.3417373 61.7086283,18.07067 61.7086283,15.6562763 C61.7086283,13.2418825 60.768502,10.9708152 59.0614527,9.26373291 L54.7400041,4.94239438 C53.0328783,3.23531209 50.7617532,2.29528612 48.3472979,2.29528612 C45.9328427,2.29528612 43.6617175,3.23538849 41.9545918,4.94239438 L40.2444863,6.65245626 L45.8254215,12.2332493 L49.4276219,8.63114065 L55.3696328,14.5730002 L51.7674324,18.1780885 Z" id="Fill-6"></path>
                        </g>
                    </g>
                    <polygon id="Rectangle-14" fill="#FFCEF4" points="570 71 706.148171 71 708.624023 76 570 76"></polygon>
                </g>
            </g>
        </g>
    </g>
</svg>