<?xml version="1.0" encoding="UTF-8"?>
<svg width="780px" height="338px" viewBox="0 0 780 338" version="1.1" xmlns="http://www.w3.org/2000/svg" xmlns:xlink="http://www.w3.org/1999/xlink">
    <!-- Generator: Sketch 49.3 (51167) - http://www.bohemiancoding.com/sketch -->
    <title>Image / Problems</title>
    <desc>Created with Sketch.</desc>
    <defs></defs>
    <g id="Portfolio" stroke="none" stroke-width="1" fill="none" fill-rule="evenodd">
        <g id="AdaptivePath" transform="translate(-330.000000, -7099.000000)">
            <g id="Image-/-Problems" transform="translate(330.000000, 7099.000000)">
                <rect id="Rectangle-16" fill="#FFFFFF" x="0" y="0" width="780" height="338"></rect>
                <circle id="Oval-3" fill="#FFEDD1" cx="602" cy="78" r="32"></circle>
                <circle id="Oval-3" fill="#CEE3FF" cx="44" cy="79" r="31"></circle>
                <circle id="Oval-3" fill="#FCFFCE" cx="316" cy="78" r="32"></circle>
                <text id="The-intake-process-d" font-family="Capitolina-Light, Capitolina" font-size="18" font-weight="300" line-spacing="24" fill="#3C3C3C">
                    <tspan x="0" y="182">The intake process did not </tspan>
                    <tspan x="0" y="206">cater to an individual client’s </tspan>
                    <tspan x="0" y="230">needs and generally move all </tspan>
                    <tspan x="0" y="254">clients through a similar </tspan>
                    <tspan x="0" y="278">process.</tspan>
                </text>
                <text id="Clients-have-no-desi" font-family="Capitolina-Light, Capitolina" font-size="18" font-weight="300" line-spacing="24" fill="#3C3C3C">
                    <tspan x="284" y="182">Clients have no designated </tspan>
                    <tspan x="284" y="206">point of contact, and met </tspan>
                    <tspan x="284" y="230">with a different person each </tspan>
                    <tspan x="284" y="254">time. No progress tracking </tspan>
                    <tspan x="284" y="278">for the clients were available.</tspan>
                </text>
                <text id="The-team-did-not-kno" font-family="Capitolina-Light, Capitolina" font-size="18" font-weight="300" line-spacing="24" fill="#3C3C3C">
                    <tspan x="570" y="182">The team did not know why </tspan>
                    <tspan x="570" y="206">client became unresponsive, </tspan>
                    <tspan x="570" y="230">and potential clients with </tspan>
                    <tspan x="570" y="254">small issues often dropped.</tspan>
                </text>
                <text id="One-Size-Fit-All" font-family="RuckSack-Bold, RuckSack" font-size="18" font-weight="bold" fill="#333333">
                    <tspan x="0" y="151">One Size Fit All</tspan>
                </text>
                <text id="Lack-of-Transparency" font-family="RuckSack-Bold, RuckSack" font-size="18" font-weight="bold" fill="#333333">
                    <tspan x="284" y="151">Lack of Transparency</tspan>
                </text>
                <text id="No-Analytics" font-family="RuckSack-Bold, RuckSack" font-size="18" font-weight="bold" fill="#333333">
                    <tspan x="570" y="151">No Analytics</tspan>
                </text>
                <g id="Page-1" transform="translate(0.000000, 44.000000)" fill="#000000">
                    <path d="M48.5255544,4.76518428 L48.5457724,4.73149373 C48.7209723,4.41478018 48.6805449,4.02057664 48.441327,3.74432451 L45.4358791,0.307647321 C45.4021881,0.263847886 45.361752,0.226784835 45.3179521,0.193094289 C45.307843,0.182985401 45.2943615,0.176249016 45.2842611,0.166140128 L45.2808885,0.166140128 C45.125898,0.0515870964 44.9574346,-0.00569373191 44.7653806,0.0010426522 L24.0168875,0.0010426522 C23.818097,-0.00906623663 23.65637,0.0549509758 23.5013795,0.166140128 C23.4878979,0.176249016 23.4777889,0.182985401 23.4676885,0.193094289 C23.4238799,0.226784835 23.3834525,0.267211765 23.3497615,0.307647321 L20.3443136,3.74432451 C20.1050957,4.01723863 20.0646597,4.41144217 20.2398682,4.73149373 L20.2870321,4.8190926 C16.2573133,5.92762024 0,10.7961888 0,17.1067402 L0,35.5097481 C0,35.8500433 0.198790488,36.156648 0.508762883,36.2947913 L10.1045636,40.6074572 C10.1281541,40.6175661 10.1517361,40.6141936 10.1719541,40.62093 L10.1719541,68.1374634 C10.1719541,68.6159019 10.5560535,69 11.034498,69 L57.9655106,69 C58.4439551,69 58.8280545,68.6159019 58.8280545,68.1374634 L58.824682,40.62093 C58.8482725,40.6141936 58.8718545,40.6141936 58.8920725,40.6074572 L68.4878732,36.2947913 C68.7978542,36.156648 68.9966361,35.8466794 68.9966361,35.5097481 L69,17.1067402 C69,10.6916497 52.2105833,5.76874163 48.5249333,4.76475301 L48.5255544,4.76518428 Z M44.8159256,2.22140143 L46.7431937,4.42491494 L39.5497502,17.4034517 L35.9580312,13.7343218 L44.8159256,2.22140143 Z M43.0201093,1.72611763 L34.3912203,12.9390489 L25.7623313,1.72611763 L43.0201093,1.72611763 Z M23.9665149,2.22140143 L32.8248406,13.7310441 L29.2331216,17.400174 L22.0396781,4.42163731 L23.9665149,2.22140143 Z M67.2757058,34.9502228 L58.8254496,38.7473526 L58.8254496,28.6091377 C58.8254496,28.1306992 58.4413502,27.7466045 57.9629057,27.7466045 C57.4844613,27.7466045 57.1003619,28.1306992 57.1003619,28.6091377 L57.1003619,67.2782251 L11.8978872,67.2782251 L11.8978872,28.6091377 C11.8978872,28.1306992 11.5137878,27.7466045 11.0353433,27.7466045 C10.5568988,27.7466045 10.1727994,28.1306992 10.1727994,28.6091377 L10.1727994,38.7473526 L1.72254326,34.9502228 L1.72254326,17.1061365 C1.72254326,13.0360149 13.5152432,8.40317671 21.1470315,6.37191108 L28.286566,19.2495314 C28.4179659,19.4853825 28.6571924,19.6504713 28.9267374,19.6875344 C29.1996549,19.7212249 29.4691999,19.6302536 29.6578813,19.434838 L34.3917809,14.5999083 L39.1256805,19.434838 C39.2874075,19.5999355 39.5097799,19.6942708 39.7422614,19.6942708 C40.1263608,19.6504713 40.3655787,19.4887464 40.4969873,19.2495314 L47.6668833,6.32188416 C55.2915987,8.32658377 67.2794061,13.0031524 67.2794061,17.106999 L67.2757058,34.9502228 Z" id="Fill-1"></path>
                    <path d="M35,21 C34.44531,21 34,21.1907926 34,21.428449 L34,22.571551 C34,22.8092074 34.44531,23 35,23 C35.55469,23 36,22.8092074 36,22.571551 L36,21.428449 C36,21.1907926 35.55469,21 35,21 Z" id="Fill-2"></path>
                    <path d="M35,28 C34.44531,28 34,28.1909522 34,28.4288073 L34,29.5711927 C34,29.8090478 34.44531,30 35,30 C35.55469,30 36,29.8090478 36,29.5711927 L36,28.4288073 C36,28.1909522 35.55469,28 35,28 Z" id="Fill-3"></path>
                </g>
                <g id="Page-1" transform="translate(305.000000, 53.000000)" fill="#000000">
                    <polygon id="Fill-1" points="44 51 51 51 51 44 44 44"></polygon>
                    <polygon id="Fill-2" points="38 45 45 45 45 38 38 38"></polygon>
                    <polygon id="Fill-3" points="44 38 51 38 51 31 44 31"></polygon>
                    <polygon id="Fill-4" points="38 33 45 33 45 26 38 26"></polygon>
                    <polygon id="Fill-5" points="44 27 51 27 51 20 44 20"></polygon>
                    <polygon id="Fill-6" points="38 20 45 20 45 13 38 13"></polygon>
                    <polygon id="Fill-7" points="44 14 51 14 51 7 44 7"></polygon>
                    <polygon id="Fill-8" points="38 7 45 7 45 0 38 0"></polygon>
                    <polygon id="Fill-9" points="31 14 38 14 38 7 31 7"></polygon>
                    <polygon id="Fill-10" points="26 7 33 7 33 0 26 0"></polygon>
                    <polygon id="Fill-11" points="20 14 27 14 27 7 20 7"></polygon>
                    <polygon id="Fill-12" points="13 7 20 7 20 0 13 0"></polygon>
                    <polygon id="Fill-13" points="7 14 14 14 14 7 7 7"></polygon>
                    <polygon id="Fill-14" points="0 7 7 7 7 0 0 0"></polygon>
                    <polygon id="Fill-15" points="0 20 7 20 7 13 0 13"></polygon>
                    <polygon id="Fill-16" points="7 27 14 27 14 20 7 20"></polygon>
                    <polygon id="Fill-17" points="0 33 7 33 7 26 0 26"></polygon>
                    <polygon id="Fill-18" points="7 38 14 38 14 31 7 31"></polygon>
                    <polygon id="Fill-19" points="0 45 7 45 7 38 0 38"></polygon>
                    <polygon id="Fill-20" points="7 51 14 51 14 44 7 44"></polygon>
                    <polygon id="Fill-21" points="13 45 20 45 20 38 13 38"></polygon>
                    <polygon id="Fill-22" points="20 51 27 51 27 44 20 44"></polygon>
                    <polygon id="Fill-23" points="26 45 33 45 33 38 26 38"></polygon>
                    <polygon id="Fill-24" points="31 51 38 51 38 44 31 44"></polygon>
                    <polygon id="Fill-25" points="20 38 27 38 27 31 20 31"></polygon>
                    <polygon id="Fill-26" points="13 33 20 33 20 26 13 26"></polygon>
                    <polygon id="Fill-27" points="20 27 27 27 27 20 20 20"></polygon>
                    <polygon id="Fill-28" points="13 20 20 20 20 13 13 13"></polygon>
                    <polygon id="Fill-29" points="26 20 33 20 33 13 26 13"></polygon>
                    <polygon id="Fill-30" points="26 33 33 33 33 26 26 26"></polygon>
                    <polygon id="Fill-31" points="31 38 38 38 38 31 31 31"></polygon>
                    <polygon id="Fill-32" points="31 27 38 27 38 20 31 20"></polygon>
                </g>
                <g id="Page-1" transform="translate(570.000000, 57.000000)" fill="#000000">
                    <polygon id="Fill-1" points="24 17 50 17 50 15 24 15"></polygon>
                    <polygon id="Fill-2" points="21 13 55 13 55 12 21 12"></polygon>
                    <polygon id="Fill-3" points="56 49 58 49 58 47 56 47"></polygon>
                    <polygon id="Fill-4" points="60 49 68 49 68 47 60 47"></polygon>
                    <path d="M10,32 C10,34.6666667 6,34.6666667 6,32 C6,29.3333333 10,29.3333333 10,32" id="Fill-5"></path>
                    <path d="M16,33.7210707 L10.4578386,32 C10.4239281,32.468422 10.2600045,32.9053019 10,33.2789293 L15.5421614,35 C15.5789008,34.5289439 15.7399955,34.0946981 16,33.7210707 Z" id="Fill-6"></path>
                    <path d="M21.0046535,34 L26,29.0046535 C25.5864943,28.7604348 25.2396007,28.4135342 24.9953465,28 L20,32.9953465 C20.4135057,33.2395652 20.7603993,33.5864658 21.0046535,34 Z" id="Fill-7"></path>
                    <path d="M21,36 C21,38.6666667 17,38.6666667 17,36 C17,33.3333333 21,33.3333333 21,36" id="Fill-8"></path>
                    <path d="M30,27 C30,29.6666667 26,29.6666667 26,27 C26,24.3333333 30,24.3333333 30,27" id="Fill-9"></path>
                    <path d="M30,28.3114102 L34.2521575,31 C34.3937994,30.4981263 34.6544274,30.0470327 35,29.6885898 L30.7478425,27 C30.6062006,27.5048639 30.3455726,27.9529673 30,28.3114102 Z" id="Fill-10"></path>
                    <path d="M44.0273509,26 L39,29.8414652 C39.419453,30.143438 39.7568455,30.5412318 39.9726491,31 L45,27.1585348 C44.580547,26.8594684 44.2431545,26.4616745 44.0273509,26 Z" id="Fill-11"></path>
                    <path d="M40,32 C40,34.6666667 36,34.6666667 36,32 C36,29.3333333 40,29.3333333 40,32" id="Fill-12"></path>
                    <path d="M49,25 C49,27.6666667 45,27.6666667 45,25 C45,22.3333333 49,22.3333333 49,25" id="Fill-13"></path>
                    <path d="M48,26.9912764 L53.8167494,34 C54.1208322,33.5768738 54.5272855,33.2353585 55,33.0087236 L49.1832506,26 C48.8821737,26.4231262 48.4727145,26.7646415 48,26.9912764 Z" id="Fill-14"></path>
                    <path d="M58,36 C58,38.6666667 54,38.6666667 54,36 C54,33.3333333 58,33.3333333 58,36" id="Fill-15"></path>
                    <path d="M58.9726491,35 L64,31.1585348 C63.580547,30.856562 63.2431545,30.4587682 63.0273509,30 L58,33.8414652 C58.419453,34.1405316 58.7568455,34.5383255 58.9726491,35 Z" id="Fill-16"></path>
                    <path d="M0,0 L0,56 L75,56 L75,0 L0,0 Z M73.5,30.2661333 L68.6016,28.358624 C68.5400775,28.8748768 68.3437875,29.34736 68.0537475,29.749888 L73.5000225,31.870272 L73.5000225,54.5062187 L1.5000225,54.5062187 L1.5000225,35.203392 L5.1533475,33.5875307 C4.8428025,33.1996149 4.6289325,32.7329707 4.5439725,32.2225493 L1.5000225,33.5700587 L1.5000225,1.492512 L73.5000225,1.492512 L73.5,30.2661333 Z" id="Fill-17"></path>
                    <path d="M68,29 C68,31.6666667 64,31.6666667 64,29 C64,26.3333333 68,26.3333333 68,29" id="Fill-18"></path>
                </g>
            </g>
        </g>
    </g>
</svg>