<?xml version="1.0" encoding="UTF-8"?>
<svg width="780px" height="250px" viewBox="0 0 780 250" version="1.1" xmlns="http://www.w3.org/2000/svg" xmlns:xlink="http://www.w3.org/1999/xlink">
    <!-- Generator: Sketch 49.3 (51167) - http://www.bohemiancoding.com/sketch -->
    <title>Image / Time</title>
    <desc>Created with Sketch.</desc>
    <defs></defs>
    <g id="Portfolio" stroke="none" stroke-width="1" fill="none" fill-rule="evenodd">
        <g id="AdaptivePath" transform="translate(-330.000000, -2571.000000)">
            <g id="Image-/-Time" transform="translate(330.000000, 2571.000000)">
                <rect id="Rectangle-4" fill="#FFFFFF" x="0" y="0" width="780" height="250"></rect>
                <path d="M77.748,175.184 L77.748,186 L76.596,186 L70.82,177.152 L70.9,177.84 L70.9,186 L69.684,186 L69.684,175.184 L70.836,175.184 L76.612,184.032 L76.532,183.344 L76.532,175.184 L77.748,175.184 Z M83.876,186.208 C81.284,186.208 79.652,184.368 79.652,181.616 C79.652,178.848 81.284,176.992 83.876,176.992 C86.468,176.992 88.1,178.848 88.1,181.616 C88.1,184.368 86.468,186.208 83.876,186.208 Z M83.876,185.232 C85.716,185.232 86.868,183.792 86.868,181.616 C86.868,179.424 85.716,177.968 83.876,177.968 C82.02,177.968 80.884,179.424 80.884,181.616 C80.884,183.792 82.02,185.232 83.876,185.232 Z M104.676,186 L103.332,186 L102.724,177.344 L102.788,176.832 L99.732,186 L98.596,186 L95.524,176.816 L95.588,177.344 L94.98,186 L93.668,186 L94.66,175.184 L96.084,175.184 L99.108,184.256 L99.156,184.688 L99.204,184.256 L102.228,175.184 L103.684,175.184 L104.676,186 Z M110.5,186.208 C107.908,186.208 106.276,184.368 106.276,181.616 C106.276,178.848 107.908,176.992 110.5,176.992 C113.092,176.992 114.724,178.848 114.724,181.616 C114.724,184.368 113.092,186.208 110.5,186.208 Z M110.5,185.232 C112.34,185.232 113.492,183.792 113.492,181.616 C113.492,179.424 112.34,177.968 110.5,177.968 C108.644,177.968 107.508,179.424 107.508,181.616 C107.508,183.792 108.644,185.232 110.5,185.232 Z M117.524,177.2 L117.812,178.448 C117.812,178.448 118.692,176.992 120.852,176.992 L120.852,178.032 C119.3,178.032 118.228,178.88 117.844,179.792 L117.844,186 L116.628,186 L116.628,177.2 L117.524,177.2 Z M126.068,176.992 C128.66,176.992 129.908,178.832 129.332,181.936 L123.204,181.936 C123.236,184.016 124.356,185.232 126.228,185.232 C127.476,185.232 128.468,184.8 128.788,184.656 L128.788,185.68 C128.564,185.808 127.412,186.208 126.292,186.208 C123.636,186.208 121.988,184.416 121.988,181.536 C121.988,178.8 123.62,176.992 126.068,176.992 Z M126.1,177.968 C124.356,177.968 123.3,179.088 123.204,181.056 L128.34,181.056 C128.708,179.136 127.812,177.968 126.1,177.968 Z M141.604,176.208 L138.58,176.208 L138.58,186 L137.364,186 L137.364,176.208 L134.308,176.208 L134.308,175.184 L141.604,175.184 L141.604,176.208 Z M144.548,177.328 L144.452,178.304 C144.628,178.144 145.636,176.992 147.476,176.992 C149.188,176.992 150.068,177.952 150.068,179.6 L150.068,186 L148.852,186 L148.852,179.664 C148.852,178.592 148.324,177.952 147.188,177.952 C145.636,177.952 144.564,179.28 144.564,179.28 L144.564,186 L143.348,186 L143.348,174.32 L144.548,174.32 L144.548,177.328 Z M155.524,176.992 C157.7,176.992 159.076,178.608 159.076,181.136 L159.076,186 L158.18,186 L157.924,185.008 C157.924,185.008 157.188,186.208 155.14,186.208 C153.124,186.208 151.892,185.104 151.892,183.344 C151.892,181.632 153.124,180.48 154.996,180.48 C157.044,180.48 157.86,181.648 157.86,181.648 L157.86,180.624 C157.86,179.008 156.884,177.968 155.332,177.968 C154.356,177.968 153.396,178.224 152.868,178.672 L152.852,177.584 C153.364,177.216 154.388,176.992 155.524,176.992 Z M155.172,181.44 C153.812,181.44 153.124,182.208 153.124,183.344 C153.124,184.528 153.956,185.248 155.332,185.248 C156.852,185.248 157.828,184.512 157.828,183.376 L157.828,182.64 C157.828,182.64 156.948,181.44 155.172,181.44 Z M165.764,176.992 C167.636,176.992 168.436,177.952 168.436,179.6 L168.436,186 L167.22,186 L167.22,179.664 C167.22,178.56 166.724,177.952 165.524,177.952 C163.572,177.952 162.74,179.376 162.74,179.376 L162.74,186 L161.524,186 L161.524,177.2 L162.42,177.2 L162.676,178.32 C162.676,178.32 163.572,176.992 165.764,176.992 Z M181.092,183.84 L180.148,183.84 L180.148,186 L178.932,186 L178.932,183.84 L173.7,183.84 L173.7,183.072 L178.452,175.184 L180.148,175.184 L180.148,182.896 L181.092,182.896 L181.092,183.84 Z M174.964,182.896 L178.916,182.896 L178.916,176.48 L174.964,182.896 Z M186.82,174.976 C189.492,174.976 191.252,177.216 191.252,180.592 C191.252,183.968 189.492,186.208 186.82,186.208 C184.148,186.208 182.372,183.968 182.372,180.592 C182.372,177.216 184.148,174.976 186.82,174.976 Z M186.804,185.168 C188.756,185.168 190.004,183.376 190.004,180.592 C190.004,177.808 188.756,176.016 186.804,176.016 C184.852,176.016 183.604,177.808 183.604,180.592 C183.604,183.376 184.852,185.168 186.804,185.168 Z M198.004,177.328 L197.908,178.304 C198.084,178.144 199.092,176.992 200.932,176.992 C202.644,176.992 203.524,177.952 203.524,179.6 L203.524,186 L202.308,186 L202.308,179.664 C202.308,178.592 201.78,177.952 200.644,177.952 C199.092,177.952 198.02,179.28 198.02,179.28 L198.02,186 L196.804,186 L196.804,174.32 L198.004,174.32 L198.004,177.328 Z M209.476,186.208 C206.884,186.208 205.252,184.368 205.252,181.616 C205.252,178.848 206.884,176.992 209.476,176.992 C212.068,176.992 213.7,178.848 213.7,181.616 C213.7,184.368 212.068,186.208 209.476,186.208 Z M209.476,185.232 C211.316,185.232 212.468,183.792 212.468,181.616 C212.468,179.424 211.316,177.968 209.476,177.968 C207.62,177.968 206.484,179.424 206.484,181.616 C206.484,183.792 207.62,185.232 209.476,185.232 Z M222.148,186 L221.252,186 L220.996,184.912 C220.996,184.912 220.356,186.208 218.148,186.208 C216.308,186.208 215.348,185.136 215.348,183.088 L215.348,177.2 L216.564,177.2 L216.564,182.992 C216.564,184.544 217.188,185.232 218.356,185.232 C220.356,185.232 220.932,183.888 220.932,183.888 L220.932,177.2 L222.148,177.2 L222.148,186 Z M225.572,177.2 L225.86,178.448 C225.86,178.448 226.74,176.992 228.9,176.992 L228.9,178.032 C227.348,178.032 226.276,178.88 225.892,179.792 L225.892,186 L224.676,186 L224.676,177.2 L225.572,177.2 Z M233.14,176.992 C234.356,176.992 235.38,177.504 235.652,177.712 L235.652,178.784 C235.332,178.544 234.324,177.968 233.268,177.968 C232.084,177.968 231.38,178.432 231.38,179.248 C231.38,181.088 235.86,181.312 235.86,183.968 C235.86,185.376 234.756,186.208 232.884,186.208 C231.572,186.208 230.596,185.664 230.356,185.488 L230.356,184.4 C230.628,184.64 231.588,185.232 232.74,185.232 C233.94,185.232 234.628,184.768 234.628,183.968 C234.628,181.904 230.164,181.76 230.164,179.248 C230.164,177.84 231.268,176.992 233.14,176.992 Z" id="No-More-Than-40-hour" fill="#1B1B1B"></path>
                <path d="M333.964,186.208 C331.164,186.208 328.988,184.16 328.988,180.592 C328.988,177.024 331.164,174.976 333.964,174.976 C336.78,174.976 338.94,177.024 338.94,180.592 C338.94,184.16 336.78,186.208 333.964,186.208 Z M333.964,176.016 C331.868,176.016 330.22,177.648 330.22,180.592 C330.22,183.536 331.868,185.168 333.964,185.168 C336.06,185.168 337.708,183.536 337.708,180.592 C337.708,177.648 336.06,176.016 333.964,176.016 Z M347.916,177.2 L344.572,186 L343.436,186 L340.092,177.2 L341.404,177.2 L343.932,184.4 L344.012,184.832 L344.092,184.4 L346.604,177.2 L347.916,177.2 Z M353.052,176.992 C355.644,176.992 356.892,178.832 356.316,181.936 L350.188,181.936 C350.22,184.016 351.34,185.232 353.212,185.232 C354.46,185.232 355.452,184.8 355.772,184.656 L355.772,185.68 C355.548,185.808 354.396,186.208 353.276,186.208 C350.62,186.208 348.972,184.416 348.972,181.536 C348.972,178.8 350.604,176.992 353.052,176.992 Z M353.084,177.968 C351.34,177.968 350.284,179.088 350.188,181.056 L355.324,181.056 C355.692,179.136 354.796,177.968 353.084,177.968 Z M359.26,177.2 L359.548,178.448 C359.548,178.448 360.428,176.992 362.588,176.992 L362.588,178.032 C361.036,178.032 359.964,178.88 359.58,179.792 L359.58,186 L358.364,186 L358.364,177.2 L359.26,177.2 Z M370.732,174.976 C372.764,174.976 373.948,176.064 373.948,177.92 C373.948,179.104 373.276,180.064 372.124,180.512 C373.356,180.96 374.092,181.936 374.092,183.152 C374.092,185.072 372.732,186.208 370.412,186.208 C369.084,186.208 368.124,185.808 367.804,185.584 L367.804,184.496 C368.156,184.736 369.1,185.168 370.38,185.168 C371.932,185.168 372.86,184.432 372.86,183.104 C372.86,181.808 372.028,181.056 370.62,181.056 L368.588,181.056 L368.588,180.08 L370.524,180.08 C371.9,180.08 372.7,179.296 372.7,177.984 C372.7,176.736 371.916,176.016 370.604,176.016 C369.34,176.016 368.412,176.416 368.012,176.672 L368.012,175.616 C368.38,175.376 369.372,174.976 370.732,174.976 Z M390.748,186 L389.404,186 L388.796,177.344 L388.86,176.832 L385.804,186 L384.668,186 L381.596,176.816 L381.66,177.344 L381.052,186 L379.74,186 L380.732,175.184 L382.156,175.184 L385.18,184.256 L385.228,184.688 L385.276,184.256 L388.3,175.184 L389.756,175.184 L390.748,186 Z M396.572,186.208 C393.98,186.208 392.348,184.368 392.348,181.616 C392.348,178.848 393.98,176.992 396.572,176.992 C399.164,176.992 400.796,178.848 400.796,181.616 C400.796,184.368 399.164,186.208 396.572,186.208 Z M396.572,185.232 C398.412,185.232 399.564,183.792 399.564,181.616 C399.564,179.424 398.412,177.968 396.572,177.968 C394.716,177.968 393.58,179.424 393.58,181.616 C393.58,183.792 394.716,185.232 396.572,185.232 Z M406.94,176.992 C408.812,176.992 409.612,177.952 409.612,179.6 L409.612,186 L408.396,186 L408.396,179.664 C408.396,178.56 407.9,177.952 406.7,177.952 C404.748,177.952 403.916,179.376 403.916,179.376 L403.916,186 L402.7,186 L402.7,177.2 L403.596,177.2 L403.852,178.32 C403.852,178.32 404.748,176.992 406.94,176.992 Z M415.98,177.2 L415.98,178.08 L413.756,178.08 L413.756,186 L412.54,186 L412.54,178.08 L411.036,178.08 L411.036,177.2 L412.54,177.2 L412.54,175.552 L413.756,175.184 L413.756,177.2 L415.98,177.2 Z M418.956,177.328 L418.86,178.304 C419.036,178.144 420.044,176.992 421.884,176.992 C423.596,176.992 424.476,177.952 424.476,179.6 L424.476,186 L423.26,186 L423.26,179.664 C423.26,178.592 422.732,177.952 421.596,177.952 C420.044,177.952 418.972,179.28 418.972,179.28 L418.972,186 L417.756,186 L417.756,174.32 L418.956,174.32 L418.956,177.328 Z M429.308,176.992 C430.524,176.992 431.548,177.504 431.82,177.712 L431.82,178.784 C431.5,178.544 430.492,177.968 429.436,177.968 C428.252,177.968 427.548,178.432 427.548,179.248 C427.548,181.088 432.028,181.312 432.028,183.968 C432.028,185.376 430.924,186.208 429.052,186.208 C427.74,186.208 426.764,185.664 426.524,185.488 L426.524,184.4 C426.796,184.64 427.756,185.232 428.908,185.232 C430.108,185.232 430.796,184.768 430.796,183.968 C430.796,181.904 426.332,181.76 426.332,179.248 C426.332,177.84 427.436,176.992 429.308,176.992 Z" id="Over-3-Months" fill="#1B1B1B"></path>
                <path d="M566.996,186 L564.644,181.808 L562.308,181.808 L562.308,186 L561.092,186 L561.092,175.184 L564.212,175.184 C566.596,175.184 568.004,176.416 568.004,178.496 C568.004,180.24 567.092,181.328 565.652,181.664 L565.972,181.984 L568.436,186 L566.996,186 Z M562.292,180.848 L564.356,180.848 C565.796,180.848 566.772,180.064 566.772,178.496 C566.772,177.056 565.908,176.208 564.436,176.208 L562.292,176.208 L562.292,180.848 Z M573.748,176.992 C576.34,176.992 577.588,178.832 577.012,181.936 L570.884,181.936 C570.916,184.016 572.036,185.232 573.908,185.232 C575.156,185.232 576.148,184.8 576.468,184.656 L576.468,185.68 C576.244,185.808 575.092,186.208 573.972,186.208 C571.316,186.208 569.668,184.416 569.668,181.536 C569.668,178.8 571.3,176.992 573.748,176.992 Z M573.78,177.968 C572.036,177.968 570.98,179.088 570.884,181.056 L576.02,181.056 C576.388,179.136 575.492,177.968 573.78,177.968 Z M582.068,176.992 C584.02,176.992 584.884,178.288 584.884,178.288 L585.14,177.2 L586.036,177.2 L586.036,185.312 C586.036,187.664 584.468,189.088 581.892,189.088 C580.58,189.088 579.604,188.784 579.348,188.624 L579.348,187.552 C579.604,187.728 580.58,188.112 581.892,188.112 C583.7,188.112 584.82,187.184 584.82,185.664 L584.964,184.608 C584.964,184.608 584.02,186.048 582.084,186.048 C579.732,186.048 578.372,184.256 578.372,181.52 C578.372,178.816 579.732,176.992 582.068,176.992 Z M582.308,177.968 C580.644,177.968 579.604,179.376 579.604,181.52 C579.604,183.792 580.644,185.072 582.308,185.072 C584.052,185.072 584.804,183.696 584.804,183.696 L584.804,179.312 C584.804,179.312 584.052,177.968 582.308,177.968 Z M595.092,186 L594.196,186 L593.94,184.912 C593.94,184.912 593.3,186.208 591.092,186.208 C589.252,186.208 588.292,185.136 588.292,183.088 L588.292,177.2 L589.508,177.2 L589.508,182.992 C589.508,184.544 590.132,185.232 591.3,185.232 C593.3,185.232 593.876,183.888 593.876,183.888 L593.876,177.2 L595.092,177.2 L595.092,186 Z M598.836,186 L597.62,186 L597.62,174.32 L598.836,174.32 L598.836,186 Z M604.468,176.992 C606.644,176.992 608.02,178.608 608.02,181.136 L608.02,186 L607.124,186 L606.868,185.008 C606.868,185.008 606.132,186.208 604.084,186.208 C602.068,186.208 600.836,185.104 600.836,183.344 C600.836,181.632 602.068,180.48 603.94,180.48 C605.988,180.48 606.804,181.648 606.804,181.648 L606.804,180.624 C606.804,179.008 605.828,177.968 604.276,177.968 C603.3,177.968 602.34,178.224 601.812,178.672 L601.796,177.584 C602.308,177.216 603.332,176.992 604.468,176.992 Z M604.116,181.44 C602.756,181.44 602.068,182.208 602.068,183.344 C602.068,184.528 602.9,185.248 604.276,185.248 C605.796,185.248 606.772,184.512 606.772,183.376 L606.772,182.64 C606.772,182.64 605.892,181.44 604.116,181.44 Z M611.364,177.2 L611.652,178.448 C611.652,178.448 612.532,176.992 614.692,176.992 L614.692,178.032 C613.14,178.032 612.068,178.88 611.684,179.792 L611.684,186 L610.468,186 L610.468,177.2 L611.364,177.2 Z M620.164,175.184 L623.06,175.184 C625.764,175.184 627.38,176.576 627.38,178.912 C627.38,181.264 625.764,182.656 623.06,182.656 L621.38,182.656 L621.38,186 L620.164,186 L620.164,175.184 Z M621.38,181.68 L623.172,181.68 C625.044,181.68 626.132,180.656 626.132,178.912 C626.132,177.216 625.044,176.208 623.172,176.208 L621.38,176.208 L621.38,181.68 Z M630.02,177.2 L630.308,178.448 C630.308,178.448 631.188,176.992 633.348,176.992 L633.348,178.032 C631.796,178.032 630.724,178.88 630.34,179.792 L630.34,186 L629.124,186 L629.124,177.2 L630.02,177.2 Z M638.708,186.208 C636.116,186.208 634.484,184.368 634.484,181.616 C634.484,178.848 636.116,176.992 638.708,176.992 C641.3,176.992 642.932,178.848 642.932,181.616 C642.932,184.368 641.3,186.208 638.708,186.208 Z M638.708,185.232 C640.548,185.232 641.7,183.792 641.7,181.616 C641.7,179.424 640.548,177.968 638.708,177.968 C636.852,177.968 635.716,179.424 635.716,181.616 C635.716,183.792 636.852,185.232 638.708,185.232 Z M644.708,174.816 C644.708,174.4 645.028,174.112 645.444,174.112 C645.86,174.112 646.212,174.4 646.212,174.816 C646.212,175.264 645.86,175.552 645.444,175.552 C645.028,175.552 644.708,175.264 644.708,174.816 Z M646.068,177.2 L646.068,186 C646.068,188.112 645.22,189.088 643.38,189.088 C642.66,189.088 642.212,188.896 642.036,188.816 L642.036,187.808 C642.212,187.888 642.724,188.112 643.316,188.112 C644.42,188.112 644.852,187.456 644.852,186 L644.852,177.2 L646.068,177.2 Z M652.036,176.992 C654.628,176.992 655.876,178.832 655.3,181.936 L649.172,181.936 C649.204,184.016 650.324,185.232 652.196,185.232 C653.444,185.232 654.436,184.8 654.756,184.656 L654.756,185.68 C654.532,185.808 653.38,186.208 652.26,186.208 C649.604,186.208 647.956,184.416 647.956,181.536 C647.956,178.8 649.588,176.992 652.036,176.992 Z M652.068,177.968 C650.324,177.968 649.268,179.088 649.172,181.056 L654.308,181.056 C654.676,179.136 653.78,177.968 652.068,177.968 Z M661.172,176.992 C662.132,176.992 663.028,177.36 663.3,177.472 L663.3,178.48 C663.076,178.368 662.26,177.968 661.092,177.968 C659.188,177.968 657.956,179.424 657.956,181.6 C657.956,183.776 659.188,185.232 661.092,185.232 C662.244,185.232 663.06,184.832 663.3,184.72 L663.3,185.728 C663.012,185.824 662.116,186.208 661.172,186.208 C658.564,186.208 656.724,184.368 656.724,181.6 C656.724,178.832 658.564,176.992 661.172,176.992 Z M669.476,177.2 L669.476,178.08 L667.252,178.08 L667.252,186 L666.036,186 L666.036,178.08 L664.532,178.08 L664.532,177.2 L666.036,177.2 L666.036,175.552 L667.252,175.184 L667.252,177.2 L669.476,177.2 Z M673.732,176.992 C674.948,176.992 675.972,177.504 676.244,177.712 L676.244,178.784 C675.924,178.544 674.916,177.968 673.86,177.968 C672.676,177.968 671.972,178.432 671.972,179.248 C671.972,181.088 676.452,181.312 676.452,183.968 C676.452,185.376 675.348,186.208 673.476,186.208 C672.164,186.208 671.188,185.664 670.948,185.488 L670.948,184.4 C671.22,184.64 672.18,185.232 673.332,185.232 C674.532,185.232 675.22,184.768 675.22,183.968 C675.22,181.904 670.756,181.76 670.756,179.248 C670.756,177.84 671.86,176.992 673.732,176.992 Z" id="Regular-Projects" fill="#1B1B1B"></path>
                <g id="Icons-/-Clock" transform="translate(109.000000, 60.000000)">
                    <circle id="Oval-2" fill="#CBF4F1" cx="50" cy="44" r="44"></circle>
                    <path d="M42.656248,1.00347097 C18.9611102,1.00347097 0,20.4286869 0,44.0017355 C0,67.7347776 19.1021111,87 42.656248,87 L43.343752,87 C66.8868889,87 86,67.7347776 86,44.0017355 C86,20.6786768 67.2728911,1.00347097 43.343752,1.00347097 C43.2460914,1.00347097 43.1328108,0.995661286 43,1.00347097 C42.8671892,0.995661286 42.7460885,1.00347097 42.656248,1.00347097 Z M41.9999942,3.03458899 L41.9999942,8.19058089 C41.9960842,8.46010001 42.1015548,8.7178996 42.2890559,8.90930188 C42.476557,9.10070415 42.7304684,9.2061699 43,9.2061699 C43.2695316,9.2061699 43.523443,9.10070415 43.7109441,8.90930188 C43.8984452,8.7178996 44.0039158,8.46010001 44.0000058,8.19058089 L44.0000058,3.03458899 C50.7617451,3.14005473 57.0470817,4.88221442 62.5621137,7.8781935 L59.9370985,12.4718081 C59.7300673,12.9405392 59.9058483,13.4873671 60.3472609,13.7451567 C60.7886734,14.0029563 61.3511667,13.885771 61.6558685,13.4717277 L64.2808837,8.8469144 C69.8747162,12.2451772 74.5389434,16.9637868 77.9369631,22.5343619 L73.3119362,25.2217535 C73.0541247,25.3389387 72.8549036,25.5576799 72.7650531,25.8311089 C72.6791126,26.100628 72.7103627,26.3935862 72.8548936,26.6396662 C72.9955144,26.8857463 73.2377058,27.0576194 73.5150574,27.116207 C73.792399,27.1747947 74.0814707,27.1122972 74.311942,26.9404341 L78.9681691,24.2530426 C82.0306869,29.866116 83.8040972,36.2725574 83.9681982,43.0022858 L78.5931669,43.0022858 C78.3236354,42.998376 78.0658239,43.1038417 77.8783228,43.2913342 C77.6869117,43.4788266 77.577541,43.7366262 77.577541,44.0022455 C77.577541,44.2717646 77.6869217,44.5295642 77.8783228,44.7170566 C78.0658239,44.904549 78.3236354,45.0061049 78.5931669,45.0022051 L83.9681982,45.0022051 C83.8080373,51.7871313 82.042387,58.1696736 78.9993693,63.7514484 L74.311842,61.0327581 C74.1673112,60.9546312 74.0071503,60.911673 73.8430893,60.9077631 C73.3782466,60.8882339 72.9602742,61.1890018 72.8313834,61.6342938 C72.7063827,62.0834957 72.9056039,62.5600364 73.3118562,62.7826475 L77.9680833,65.5013377 C74.5578635,71.0831124 69.8469361,75.7429244 64.2800037,79.1257878 L61.6549885,74.5321732 C61.4792074,74.2001566 61.1276454,73.993135 60.7487332,74.0009447 C60.3893511,74.016564 60.0690392,74.215776 59.9010683,74.5321732 C59.7330973,74.8485705 59.7448174,75.231365 59.9362285,75.5321329 L62.5924439,80.1257475 C57.0416116,83.1412257 50.7213749,84.8599554 43.9983358,84.969352 L43.9983358,79.8133601 C43.9983358,79.5438409 43.8889552,79.2860413 43.693644,79.0985489 C43.4983329,78.9071466 43.2366114,78.8055907 42.9670798,78.8134004 C42.4280167,78.8329296 41.9983242,79.2743218 41.9983242,79.8133601 L41.9983242,84.969352 C35.2873852,84.8638862 28.9472483,83.1569251 23.4042161,80.1570462 L26.0604315,75.5322329 C26.2557426,75.2197455 26.2635527,74.8252314 26.0799616,74.5049743 C25.9002706,74.1846772 25.5526186,73.993275 25.1854264,74.0010847 C24.8182343,74.0049945 24.4823023,74.2081063 24.3104213,74.5323132 L21.6854061,79.1259278 C16.1150737,75.7432643 11.4083463,71.0832524 7.9973265,65.5014777 L12.6535536,62.7827874 C13.0441758,62.5679561 13.247307,62.1187543 13.1457464,61.6812319 C13.0441858,61.2437496 12.6652736,60.9312622 12.216051,60.9078231 C12.0207399,60.8961036 11.8254288,60.9390719 11.6535478,61.0328181 L6.99732068,63.7515083 C3.95430299,58.1697336 2.15749254,51.7869913 1.99729161,45.0022651 L7.37232286,45.0022651 C7.64185443,45.0061749 7.89966593,44.904609 8.08716702,44.7171166 C8.27857813,44.5296242 8.38794877,44.2718246 8.38794877,44.0023055 C8.38794877,43.7366962 8.27856813,43.4788866 8.08716702,43.2913942 C7.89966593,43.1039017 7.64185443,42.998436 7.37232286,43.0023458 L1.99729161,43.0023458 C2.15745254,36.2370189 3.97780313,29.8778755 7.02852086,24.2841013 L11.6535478,26.9401941 C11.8840191,27.1120672 12.1730808,27.1745647 12.4504324,27.115967 C12.727774,27.0573794 12.9699654,26.8855063 13.1105962,26.6394263 C13.2551271,26.3933462 13.2863772,26.100388 13.2004367,25.8308689 C13.1105962,25.5574399 12.9113751,25.3386988 12.6535536,25.2215135 L8.02852668,22.534122 C11.4308465,16.9640468 16.1144737,12.2685363 21.6846061,8.87867311 L24.3096213,13.4722877 C24.5869629,13.9566482 25.2002465,14.1246014 25.6846293,13.8472726 C25.9151007,13.7183678 26.0869717,13.4957268 26.1572921,13.2379172 C26.2276125,12.9801176 26.1924523,12.7066886 26.0596415,12.4723281 L23.4034261,7.84751473 C28.9386582,4.85153566 35.266495,3.14460455 41.9975342,3.03520897 L41.9999942,3.03458899 Z" id="Fill-1" fill="#273B49" transform="translate(43.000000, 44.000000) rotate(-180.000000) translate(-43.000000, -44.000000) "></path>
                    <path d="M30.1870927,15 C27.8943157,15 26,16.8868709 26,19.1965541 C26,21.1460601 27.3475689,22.7784821 29.155893,23.2364702 L29.155893,49.982174 C29.1519834,50.2522868 29.2574431,50.5106542 29.4449249,50.7024781 C29.6324067,50.8903835 29.886292,51 30.1557958,51 C30.4252995,51 30.6791849,50.8903835 30.8666666,50.7024781 C31.0541484,50.5106542 31.1596081,50.2522868 31.1556985,49.982174 L31.1556985,23.2685394 C31.7220534,23.1315238 32.2375933,22.861411 32.6867496,22.5169178 L45.3735155,32.6948767 C45.5805254,32.8632099 45.8461296,32.9375904 46.1078241,32.9101812 C46.3734183,32.8788636 46.6155847,32.7457665 46.7796387,32.5382889 C46.9475924,32.3308112 47.0218052,32.0646069 46.9944579,31.802321 C46.9632109,31.5361267 46.8304138,31.2973215 46.6234039,31.1289883 L33.936638,20.9510293 C34.1866137,20.4147122 34.3428485,19.8275053 34.3428485,19.1972456 C34.3428485,16.8875624 32.487529,15.0006915 30.1870527,15.0006915 L30.1870927,15 Z M30.1870927,17.0043243 C31.4017746,17.0043243 32.343083,17.9634236 32.343083,19.1965541 C32.343083,19.6663176 32.1907578,20.0890997 31.9368725,20.4492568 C31.8587501,20.5314641 31.7962662,20.6293353 31.7493908,20.7311149 C31.3705176,21.1343248 30.8471385,21.37312 30.2495366,21.3887838 L30.1557958,21.3887838 L30.1557958,21.3574662 C30.1362677,21.3692116 30.1128299,21.3770385 30.0933018,21.3887838 L30.0620549,21.3887838 L29.937067,21.3887838 C28.8433734,21.2791673 27.9997555,20.3435287 27.9997555,19.1965541 C27.9997555,17.9633935 28.9879394,17.0043243 30.1870427,17.0043243 L30.1870927,17.0043243 Z" id="Fill-2" fill="#273B49" transform="translate(36.500000, 33.000000) rotate(-180.000000) translate(-36.500000, -33.000000) "></path>
                </g>
                <g id="Icons-/-Calendar" transform="translate(341.000000, 62.000000)">
                    <rect id="Rectangle-2" fill="#FFE6E6" x="7" y="2" width="83" height="83" rx="9"></rect>
                    <polygon id="Fill-1" fill="#273B49" points="16 43 21 43 21 39 16 39"></polygon>
                    <polygon id="Fill-2" fill="#273B49" points="16 58 21 58 21 54 16 54"></polygon>
                    <polygon id="Fill-3" fill="#273B49" points="16 72 21 72 21 68 16 68"></polygon>
                    <polygon id="Fill-4" fill="#273B49" points="37 43 42 43 42 39 37 39"></polygon>
                    <polygon id="Fill-5" fill="#273B49" points="37 72 42 72 42 68 37 68"></polygon>
                    <polygon id="Fill-6" fill="#273B49" points="58 43 63 43 63 39 58 39"></polygon>
                    <polygon id="Fill-7" fill="#273B49" points="58 72 63 72 63 68 58 68"></polygon>
                    <path d="M71.3125585,6.32001112 L71.3125585,3.02318815 C71.3125585,1.35462438 69.9660361,0 68.3173539,0 L65.8376185,0 C64.1844994,0 62.8424139,1.35910267 62.8424139,3.02318815 L62.8424139,6.25272199 L43.5330826,6.25721176 L43.5330826,3.02767792 C43.5330826,1.35911415 42.1865602,0.0044897697 40.537878,0.0044897697 L38.0581425,0.0044897697 C36.4050235,0.0044897697 35.062938,1.36359244 35.062938,3.02767792 L35.062938,6.25721176 L15.7581572,6.25721176 L15.7581572,3.02767792 C15.7581572,1.35911415 14.4116348,0.0044897697 12.7629526,0.0044897697 L10.2832172,0.0044897697 C8.63009818,0.0044897697 7.28801263,1.36359244 7.28801263,3.02767792 L7.28801263,6.38283345 C3.12398656,7.06462392 0,10.6754437 0,15.0487779 L0,77.2085486 C0,82.0573851 3.90623461,86 8.71007497,86 L70.289925,86 C75.0938792,86 79,82.0572703 79,77.2085486 L78.9955518,15.0441733 C79,10.5496957 75.6315211,6.83581791 71.3119783,6.31989629 L71.3125585,6.32001112 Z M65.1177136,3.02766644 C65.1177136,2.62397758 65.4421259,2.3010242 65.8376299,2.3010242 L68.3173653,2.3010242 C68.7173175,2.3010242 69.0372815,2.62846735 69.0372815,3.02766644 L69.0372815,11.7832915 C69.0372815,12.1869804 68.7128693,12.5099337 68.3173653,12.5099337 L65.8376299,12.5099337 C65.4376777,12.5099337 65.1177136,12.1824906 65.1177136,11.7832915 L65.1177136,3.02766644 Z M37.338579,3.02766644 C37.338579,2.62397758 37.6629912,2.3010242 38.0584952,2.3010242 L40.5382307,2.3010242 C40.9381828,2.3010242 41.2581469,2.62846735 41.2581469,3.02766644 L41.2581469,11.7832915 C41.2581469,12.1869804 40.9337346,12.5099337 40.5382307,12.5099337 L38.0584952,12.5099337 C37.658543,12.5099337 37.338579,12.1824906 37.338579,11.7832915 L37.338579,3.02766644 Z M9.55944437,3.02766644 C9.55944437,2.62397758 9.8838566,2.3010242 10.2793606,2.3010242 L12.759096,2.3010242 C13.1590482,2.3010242 13.4790122,2.62846735 13.4790122,3.02766644 L13.4790122,11.7832915 C13.4790122,12.1869804 13.1546,12.5099337 12.759096,12.5099337 L10.2793606,12.5099337 C9.87940839,12.5099337 9.55944437,12.1824906 9.55944437,11.7832915 L9.55944437,3.02766644 Z M7.28414462,8.71520565 L7.28414462,11.7788132 C7.28414462,13.447377 8.63066701,14.8020014 10.2793492,14.8020014 L12.7590846,14.8020014 C14.4122037,14.8020014 15.7542892,13.4428987 15.7542892,11.7788132 L15.7542892,8.54927938 L35.0636205,8.54927938 L35.0636205,11.7788132 C35.0636205,13.447377 36.4101429,14.8020014 38.0588251,14.8020014 L40.5385606,14.8020014 C42.1916796,14.8020014 43.5337652,13.4428987 43.5337652,11.7788132 L43.5337652,8.54927938 L62.8430965,8.54927938 L62.8430965,11.7788132 C62.8430965,13.447377 64.1896189,14.8020014 65.8383011,14.8020014 L68.3180365,14.8020014 C69.9711555,14.8020014 71.3132411,13.4428987 71.3132411,11.7788132 L71.3132411,8.63895995 C74.375112,9.13684211 76.7259517,11.8146395 76.7259517,15.0441733 L76.7259517,26.2174992 L2.27245562,26.221989 L2.27245562,15.0486631 C2.27245562,11.944751 4.39667547,9.37008048 7.2851685,8.71521714 L7.28414462,8.71520565 Z M70.2906076,83.6989528 L8.71075756,83.6989528 C5.16447537,83.6989528 2.27598234,80.7878367 2.27598234,77.2040589 L2.27153413,28.5193387 L76.7204847,28.5193387 L76.7204796,77.2040589 C76.7249278,80.7834732 73.8363096,83.6989528 70.2901412,83.6989528 L70.2906076,83.6989528 Z" id="Fill-8" fill="#273B49"></path>
                    <polygon id="Fill-9" fill="#273B49" points="43.277907 52.0189159 40.009486 55.2776718 36.722093 52 36 52.7199577 39.287393 55.9976294 36 59.2753012 36.722093 60 40.009486 56.7223282 43.277907 59.9763551 44 59.2563974 40.736322 55.9976416 44 52.7436147"></polygon>
                    <polygon id="Fill-10" fill="#273B49" points="64.2735847 52.0189159 61.0118505 55.2776718 57.7264153 52 57 52.7199577 60.2854352 55.9976294 57 59.2753012 57.7264153 60 61.0118505 56.7223282 64.2735847 59.9763551 65 59.2563974 61.7335256 55.9976416 65 52.7436147"></polygon>
                </g>
                <g id="Icons-/-Add" transform="translate(255.000000, 88.000000)" fill="#273B49">
                    <path d="M16.5,0 C16.1429365,0 15.591204,0.287462573 15.597639,0.644529442 L15.597639,15.5976389 L0.644529534,15.5976389 C0.287465866,15.5976389 0,16.1429033 0,16.4999999 C0,16.8570965 0.287462565,17.408796 0.644529534,17.4023609 L15.597639,17.4023609 L15.597639,32.3554707 C15.597639,32.7125341 16.1429035,33 16.5,33 C16.8570966,33 17.4023611,32.7125374 17.4023611,32.3554707 L17.4023611,17.4023609 L32.3554706,17.4023609 C32.7125341,17.4023609 33,16.8570965 33,16.4999999 C33,16.1429033 32.7125374,15.5976389 32.3554706,15.5976389 L17.4023611,15.5976389 L17.4023611,0.644529442 C17.4023611,0.287465873 16.8570966,0 16.5,0 Z" id="Page-1"></path>
                </g>
                <g id="Icons-/-Add" transform="translate(473.000000, 88.000000)" fill="#273B49">
                    <path d="M16.5,0 C16.1429365,0 15.591204,0.287462573 15.597639,0.644529442 L15.597639,15.5976389 L0.644529534,15.5976389 C0.287465866,15.5976389 0,16.1429033 0,16.4999999 C0,16.8570965 0.287462565,17.408796 0.644529534,17.4023609 L15.597639,17.4023609 L15.597639,32.3554707 C15.597639,32.7125341 16.1429035,33 16.5,33 C16.8570966,33 17.4023611,32.7125374 17.4023611,32.3554707 L17.4023611,17.4023609 L32.3554706,17.4023609 C32.7125341,17.4023609 33,16.8570965 33,16.4999999 C33,16.1429033 32.7125374,15.5976389 32.3554706,15.5976389 L17.4023611,15.5976389 L17.4023611,0.644529442 C17.4023611,0.287465873 16.8570966,0 16.5,0 Z" id="Page-1"></path>
                </g>
                <g id="Icons-/-Tools" transform="translate(564.000000, 60.000000)">
                    <circle id="Oval-2" fill="#FFF7DD" cx="54.5" cy="39.5" r="39.5"></circle>
                    <path d="M22.0435155,71.9997408 C20.4595208,71.9997408 18.9768334,71.3872678 17.86349,70.2737347 L17.7268547,70.1370667 C15.4243818,67.8340406 15.4243818,64.0832168 17.7268547,61.7751372 L55.1185599,24.3796339 C55.6246039,23.8734554 56.4443636,23.8734554 56.9505112,24.3796339 C57.4565552,24.8857994 57.4565552,25.705756 56.9505112,26.2120252 L19.563988,63.6127117 C18.2735641,64.9085121 18.2735641,67.0141877 19.563988,68.3099881 L19.7006232,68.4466562 C20.9455106,69.6918426 23.1468836,69.6918426 24.3967716,68.4466562 L61.7884768,31.0459697 C62.2945208,30.5398041 63.1142805,30.5398041 63.6204281,31.0459697 C64.1265758,31.5521352 64.1264721,32.3720918 63.6204281,32.878361 L26.223541,70.2790475 C25.1102235,71.3875659 23.6275101,72 22.0435155,72 L22.0435155,71.9997408 Z" id="Fill-1" fill="#273B49"></path>
                    <path d="M6.45653444,83.9996746 C5.81656901,83.9996746 5.18677146,83.7454741 4.719543,83.2777326 C4.08466151,82.6473007 3.84593733,81.7118697 4.09990033,80.8424521 L10.2557595,60.0232833 C10.3878119,59.5758846 10.6570008,59.1691585 11.0226934,58.8590315 C11.0684099,58.7878512 11.144591,58.6861762 11.2461788,58.5844881 L50.4055255,19.3813008 C50.9134385,18.8728997 51.7361917,18.8728997 52.2441957,19.3813008 C52.7521997,19.8897019 52.7520957,20.7132799 52.2441957,21.2217851 L13.160263,60.344278 C13.1145596,60.4205342 13.073927,60.4866386 13.0231266,60.55273 C12.9317067,60.6747478 12.819964,60.7764228 12.6929825,60.8526921 L6.6692278,81.3256557 L27.0622016,75.285806 C27.0977502,75.2654762 27.1383827,75.2451334 27.1790153,75.2248036 C27.4126555,75.1383695 27.5294691,75.0672022 27.6158181,74.980768 L66.7803657,35.7775807 C67.2882787,35.2691796 68.111032,35.2691796 68.619036,35.7775807 C69.12704,36.2859817 69.126936,37.1095597 68.619036,37.6180649 L29.4544884,76.8212523 C29.1345121,77.1466331 28.7434128,77.4008337 28.2913841,77.5889429 C28.1999642,77.6448563 28.0831376,77.7007828 27.9358463,77.7414684 L7.15800125,83.898325 C6.92436102,83.9694923 6.69072078,84 6.45709355,84 L6.45653444,83.9996746 Z" id="Fill-2" fill="#273B49"></path>
                    <path d="M15.7183538,79 C15.3879466,79 15.0625377,78.8748397 14.81223,78.6245319 L9.37546152,73.1877613 C8.87484616,72.6871457 8.87484616,71.8761798 9.37546152,71.3754617 C9.8760897,70.8748461 10.6870425,70.8748461 11.1877604,71.3754617 L16.6245289,76.8122323 C17.125157,77.3128479 17.125157,78.1238138 16.6245289,78.6245319 C16.3742212,78.8748397 16.043814,79 15.7184051,79 L15.7183538,79 Z" id="Fill-3" fill="#273B49"></path>
                    <path d="M71.3371844,33 C70.9985241,33 70.6747938,32.8655233 70.435735,32.6264565 L54.373531,16.5637179 C54.1344722,16.3246511 54,16.00091 54,15.6622384 C54,15.3235668 54.1344722,14.9998257 54.373531,14.760759 L57.5410925,11.5980646 C57.5560353,11.578136 57.5709653,11.5632055 57.5859081,11.5482622 L61.440684,7.69833052 C62.5363767,6.60260133 63.9956174,6 65.554536,6 C67.1134546,6 68.5726698,6.60265233 69.668388,7.69833052 L79.3004829,17.3357187 C81.5665057,19.601817 81.5665057,23.2924983 79.3004829,25.5585965 L72.2382386,32.6210759 C71.9991798,32.8651281 71.6754495,32.9996047 71.3367892,32.9996047 L71.3371844,33 Z M57.0778028,15.6622384 L71.3371844,29.9220947 L77.49789,23.7562114 C78.7728705,22.4811885 78.7728705,20.4092762 77.49789,19.1392259 L67.8608227,9.50183769 C66.6306705,8.27164458 64.4641472,8.27661717 63.2439909,9.50183769 L59.4289943,13.3119887 C59.4140516,13.3319045 59.3991088,13.3468478 59.384166,13.3617911 L57.0778028,15.6622384 Z" id="Fill-4" fill="#273B49"></path>
                    <path d="M67.7861876,88 C66.1030491,88 64.4197793,87.3641334 63.1419236,86.097531 L43.3848839,66.5076605 C42.8717054,65.9989724 42.8717054,65.1749295 43.3848839,64.6661372 C43.8980493,64.1574491 44.7293453,64.1574491 45.2426158,64.6661372 L64.9996555,84.2507986 C66.4827143,85.7209179 69.0896609,85.7209179 70.5727197,84.2507986 L82.2217404,72.7084933 C83.7612892,71.1823769 83.7612892,68.7101699 82.2217404,67.1840535 L62.0850356,47.2230394 C61.5718702,46.7143383 61.5718702,45.8903084 62.0850356,45.3815161 C62.5982142,44.872828 63.4294969,44.872828 63.9427675,45.3815161 L84.0794723,65.3425301 C86.6401759,67.8808918 86.6401759,72.0115247 84.0794723,74.5498864 L72.4304516,86.0921917 C71.1526484,87.363925 69.4694574,87.9997395 67.7861876,87.9997395 L67.7861876,88 Z" id="Fill-5" fill="#273B49"></path>
                    <path d="M22.234278,44.9998686 C21.9013178,44.9998686 21.5733945,44.8715868 21.3211527,44.6150362 L1.88803573,24.8499611 C-0.629345245,22.289578 -0.629345245,18.1231101 1.88803573,15.562727 L13.3349385,3.92028732 C15.8523195,1.35990423 19.9488107,1.35990423 22.4661917,3.92028732 L41.6216373,23.4029479 C42.1261209,23.9160491 42.1261209,24.747241 41.6216373,25.2604473 C41.1171409,25.7735485 40.2999219,25.7735485 39.795335,25.2604473 L20.6450554,5.77778667 C19.131553,4.23843055 16.6747431,4.23843055 15.1662776,5.77778667 L3.71937486,17.4202264 C2.21090935,18.9595825 2.21090935,21.453237 3.71937486,22.9925931 L23.1473258,42.7576682 C23.6518094,43.2707694 23.6518094,44.1019613 23.1473258,44.6151675 C22.8950841,44.8717181 22.5671607,45 22.2342005,45 L22.234278,44.9998686 Z" id="Fill-6" fill="#273B49"></path>
                    <path d="M12.3081217,17 C11.9708757,17 11.6387314,16.8722486 11.3832427,16.6167589 C10.8722524,16.1057795 10.8722524,15.2780248 11.3832427,14.7669407 L18.7669175,7.38323456 C19.2778947,6.87225515 20.1056459,6.87225515 20.6167278,7.38323456 C21.1278097,7.89421397 21.1277051,8.7219687 20.6167278,9.23305276 L13.2330531,16.6167589 C12.9775645,16.8671469 12.6454201,17 12.3081741,17 L12.3081217,17 Z" id="Fill-7" fill="#273B49"></path>
                    <path d="M19.2673221,19 C18.9405922,19 18.6188048,18.8762328 18.3712829,18.6287111 C17.876239,18.1336677 17.876239,17.3317284 18.3712829,16.8365836 L22.836588,12.3712825 C23.3316318,11.8762392 24.1335719,11.8762392 24.6287171,12.3712825 C25.123761,12.8663386 25.123761,13.6682653 24.6287171,14.1634101 L20.163412,18.6287111 C19.9158901,18.8762328 19.5941028,19 19.2673728,19 L19.2673221,19 Z" id="Fill-8" fill="#273B49"></path>
                    <path d="M22.3081132,27 C21.9708669,27 21.6387222,26.8722617 21.3832333,26.6167589 C20.8722556,26.1057664 20.8722556,25.2780248 21.3832333,24.7669407 L28.7669153,17.3832346 C29.277893,16.8722551 30.1056451,16.8722551 30.6167274,17.3832346 C31.1278098,17.894214 31.1277052,18.7219687 30.6167274,19.2330528 L23.2330455,26.6167589 C22.9775566,26.8722486 22.6454119,27 22.3081655,27 L22.3081132,27 Z" id="Fill-9" fill="#273B49"></path>
                    <path d="M29.2673299,29 C28.9406004,29 28.6188135,28.8762328 28.3712919,28.6287111 C27.876236,28.1336677 27.876236,27.3317284 28.3712919,26.8365836 L32.8365909,22.3712825 C33.3316341,21.8762392 34.1335731,21.8762392 34.6287176,22.3712825 C35.1237608,22.8663259 35.1237608,23.6682653 34.6287176,24.1634101 L30.1634186,28.6287111 C29.915897,28.8811881 29.5891675,29 29.2673806,29 L29.2673299,29 Z" id="Fill-10" fill="#273B49"></path>
                    <path d="M59.2673299,58 C58.9406004,58 58.6188135,57.8762328 58.3712919,57.6287111 C57.876236,57.1336677 57.876236,56.3317284 58.3712919,55.8365836 L62.8365909,51.3712825 C63.3316341,50.8762392 64.1335731,50.8762392 64.6287176,51.3712825 C65.1237608,51.8663259 65.1237608,52.6682653 64.6287176,53.1634101 L60.1634186,57.6287111 C59.915897,57.8762328 59.5941101,58 59.2673806,58 L59.2673299,58 Z" id="Fill-11" fill="#273B49"></path>
                    <path d="M61.3081184,66 C60.9708707,66 60.6387247,65.8722486 60.3832348,65.6167589 C59.8722551,65.1057795 59.8722551,64.2780248 60.3832348,63.7669407 L67.7669458,56.3832346 C68.2779255,55.8722551 69.1056808,55.8722551 69.6167652,56.3832346 C70.1277449,56.8942271 70.1277449,57.7219687 69.6167652,58.2330528 L62.2330542,65.6167589 C61.9775643,65.8722486 61.6454184,66 61.3081707,66 L61.3081184,66 Z" id="Fill-12" fill="#273B49"></path>
                    <path d="M68.2673152,68 C67.9405871,68 67.6188014,67.8762328 67.3712809,67.6287111 C66.8762397,67.1336677 66.8762397,66.3317284 67.3712809,65.8365836 L71.8365617,61.3712825 C72.3316028,60.8762392 73.1335386,60.8762392 73.6286811,61.3712825 C74.1238237,61.8663259 74.1237223,62.6682653 73.6286811,63.1634101 L69.1634003,67.6287111 C68.9158797,67.8762328 68.5891515,68 68.2673659,68 L68.2673152,68 Z" id="Fill-13" fill="#273B49"></path>
                    <path d="M71.3081184,76 C70.9708707,76 70.6387247,75.8722486 70.3832348,75.6167589 C69.8722551,75.1057795 69.8722551,74.2780248 70.3832348,73.7669407 L77.7669458,66.3832346 C78.2779255,65.8722551 79.1056808,65.8722551 79.6167652,66.3832346 C80.1277449,66.894214 80.1277449,67.7219687 79.6167652,68.2330528 L72.2330542,75.6167589 C71.9775643,75.8722486 71.6403167,76 71.3081707,76 L71.3081184,76 Z" id="Fill-14" fill="#273B49"></path>
                </g>
            </g>
        </g>
    </g>
</svg>