<?xml version="1.0" encoding="UTF-8"?>
<svg width="780px" height="344px" viewBox="0 0 780 344" version="1.1" xmlns="http://www.w3.org/2000/svg" xmlns:xlink="http://www.w3.org/1999/xlink">
    <!-- Generator: Sketch 49.3 (51167) - http://www.bohemiancoding.com/sketch -->
    <title>Image / Wework</title>
    <desc>Created with Sketch.</desc>
    <defs></defs>
    <g id="Portfolio" stroke="none" stroke-width="1" fill="none" fill-rule="evenodd">
        <g id="AdaptivePath" transform="translate(-330.000000, -5176.000000)">
            <g id="Image-/-Wework" transform="translate(330.000000, 5176.000000)">
                <rect id="Rectangle-17" fill="#FFFFFF" x="0" y="0" width="780" height="344"></rect>
                <text id="(a-WeWork-Space-in-H" font-family="RuckSack-Bold, RuckSack" font-size="18" font-weight="bold" fill="#333333">
                    <tspan x="259.229" y="157">(a WeWork Space in Harlem)</tspan>
                </text>
                <text id="We-visited" font-family="RuckSack-Bold, RuckSack" font-size="18" font-weight="bold" fill="#333333">
                    <tspan x="332.156" y="61">We visited</tspan>
                </text>
                <text id="Start-Small-Think-Bi" font-family="BebasNeueBold, Bebas Neue" font-size="55" font-weight="bold" fill="#333333">
                    <tspan x="179.645" y="119">Start Small Think Big</tspan>
                </text>
                <g id="Page-1" transform="translate(325.000000, 194.000000)" fill="#000000">
                    <path d="M41.805,13.934 L58.2,13.934 C58.65312,13.934 59.02031,13.56681 59.02031,13.11369 L59.0164,4.91839 C59.0164,4.46527 58.64921,4.09808 58.19609,4.09808 L41.80509,4.09808 C41.35196,4.09808 40.98478,4.46527 40.98478,4.91839 L40.98478,13.11369 C40.98478,13.56681 41.35197,13.934 41.80509,13.934 L41.805,13.934 Z M42.62141,5.7387 L57.37541,5.7387 L57.37541,12.2973 L42.62141,12.2973 L42.62141,5.7387 Z" id="Fill-1"></path>
                    <path d="M99.18,73.77 L71.313,73.77 L71.313,71.3091 L78.6919,71.3091 C78.79346,71.3091 78.89112,71.28566 78.98487,71.2505 C79.01612,71.23878 79.04346,71.21925 79.07471,71.20363 C79.13331,71.17238 79.18409,71.14113 79.23487,71.09425 C79.26222,71.07081 79.28565,71.04347 79.30909,71.01222 C79.34815,70.96534 79.3794,70.91847 79.41065,70.86378 C79.43018,70.82862 79.44581,70.79346 79.45753,70.7544 C79.46534,70.73096 79.48097,70.71143 79.48487,70.68799 L83.58257,54.29299 C83.5982,54.22658 83.60601,54.16018 83.60601,54.09377 L83.60601,9.01577 C83.60601,6.34777 81.46931,4.17197 78.81691,4.10557 L62.49291,0.02357 C62.45775,0.01576 62.4265,0.02357 62.39135,0.01966 C62.3601,0.01576 62.32885,0.00013 62.2976,0.00013 L37.7076,0.00013 C37.67244,0.00013 37.6451,0.01576 37.60994,0.01966 C37.57479,0.02357 37.54354,0.01576 37.50838,0.02357 L21.18438,4.10557 C18.53208,4.17198 16.39528,6.34777 16.39528,9.01577 L16.39528,54.09777 C16.39528,54.16418 16.4031,54.23058 16.41872,54.29699 L20.51642,70.69199 C20.52424,70.71543 20.53595,70.73496 20.54377,70.7584 C20.55549,70.79746 20.57111,70.83262 20.59064,70.86778 C20.61799,70.92247 20.65314,70.97325 20.6922,71.02012 C20.71564,71.04746 20.73908,71.07481 20.76642,71.10215 C20.8172,71.14512 20.86798,71.18028 20.92658,71.21153 C20.95392,71.22715 20.98127,71.24669 21.01252,71.2584 C21.10627,71.29356 21.20393,71.317 21.30549,71.317 L28.68439,71.317 L28.68439,73.7779 L4.918388,73.77399 L0.8206879,73.77399 C0.3675679,73.77399 0.0003779233,74.14118 0.0003779233,74.5943 L0.0003779233,99.1843014 C0.0003779233,99.6335214 0.3675679,100.000711 0.8206879,100.000711 L4.918388,100.000711 C5.371508,100.000711 5.738698,99.6335214 5.738698,99.1804014 C5.738698,92.852301 10.8871,87.7034 17.2157,87.7034 L82.7897,87.7034 C89.1178,87.7034 94.2667,92.851801 94.2667,99.1804014 C94.2667,99.6335214 94.63389,100.000711 95.08701,100.000711 L99.18471,100.000711 C99.63783,100.000711 100.005,99.6335214 100.005,99.1804014 L100.0011,74.5904 C100.0011,74.13728 99.63392,73.77009 99.1808,73.77009 L99.18,73.77 Z M94.262,86.067 L76.571,86.067 L87.227,75.411 L94.2661,75.411 L94.262,86.067 Z M5.738997,86.067 L5.738997,75.411 L12.7781,75.411 L23.4341,86.067 L5.738997,86.067 Z M35.727,75.411 L25.411,85.727 L15.095,75.411 L35.727,75.411 Z M84.907,75.411 L74.591,85.727 L64.275,75.411 L84.907,75.411 Z M37.704,75.75084 L48.02,86.06684 L27.391,86.06684 L37.704,75.75084 Z M39.6845,75.411 L60.3175,75.411 L50.0015,85.727 L39.6845,75.411 Z M62.2975,75.75084 L72.6135,86.06684 L51.9805,86.06684 L62.2975,75.75084 Z M18.0315,9.01684 C18.0315,7.20824 19.5042,5.73954 21.3088,5.73954 C21.37521,5.73954 21.44161,5.73172 21.50802,5.7161 L37.80502,1.6419 L62.19202,1.6419 L78.48902,5.7161 C78.55543,5.73172 78.62183,5.73954 78.68824,5.73954 C80.49684,5.73954 81.96554,7.21224 81.96554,9.01684 L81.96554,53.99683 L78.04754,69.67283 L59.01654,69.67283 L59.01654,21.31383 C59.01654,18.60293 56.80954,16.39583 54.09854,16.39583 L45.90324,16.39583 C43.19234,16.39583 40.98524,18.60283 40.98524,21.31383 L40.98524,69.67283 L21.95424,69.67283 L18.03624,53.99683 L18.0315,9.01684 Z M45.9025,18.03244 L54.0978,18.03244 C55.9064,18.03244 57.3751,19.50514 57.3751,21.30974 L57.3751,29.50504 C57.3751,33.57144 54.0665,36.88394 49.9962,36.88394 C45.9298,36.88394 42.6173,33.57534 42.6173,29.50504 L42.6173,21.30974 C42.62121,19.50504 44.0939,18.03244 45.9025,18.03244 Z M50.0002,38.52444 C53.051,38.52444 55.7463,37.00104 57.3791,34.67674 L57.3791,37.70404 C57.3791,41.77044 54.0705,45.08294 50.0002,45.08294 C45.9338,45.08294 42.6213,41.77434 42.6213,37.70404 L42.6213,34.67674 C44.2541,37.00094 46.9494,38.52444 50.0002,38.52444 Z M50.0002,46.72364 C53.051,46.72364 55.7463,45.20024 57.3791,42.87594 L57.3791,45.90324 C57.3791,49.96964 54.0705,53.28214 50.0002,53.28214 C45.9338,53.28214 42.6213,49.97354 42.6213,45.90324 L42.6213,42.87594 C44.2541,45.19624 46.9494,46.72364 50.0002,46.72364 Z M50.0002,54.91894 C53.051,54.91894 55.7463,53.39554 57.3791,51.07124 L57.3791,54.09854 C57.3791,58.16494 54.0705,61.47744 50.0002,61.47744 C45.9338,61.47744 42.6213,58.16884 42.6213,54.09854 L42.6213,51.07124 C44.2541,53.39544 46.9494,54.91894 50.0002,54.91894 Z M42.6213,59.26664 C44.2541,61.59084 46.9494,63.11434 50.0002,63.11434 C53.051,63.11434 55.7463,61.59094 57.3791,59.26664 L57.3791,69.67264 L42.6211,69.67264 L42.6213,59.26664 Z M30.3283,71.31364 L69.6763,71.31364 L69.6763,73.77454 L30.3283,73.77063 L30.3283,71.31364 Z M1.640302,75.41134 L4.101202,75.41134 L4.101202,98.364335 L1.640302,98.364335 L1.640302,75.41134 Z M5.738002,92.849336 L5.738002,87.70874 L10.8786,87.70874 C8.718402,88.90404 6.933302,90.689236 5.738002,92.849336 Z M89.12101,87.70484 L94.26161,87.70484 L94.26161,92.845436 C93.06631,90.689236 91.28111,88.90404 89.12101,87.70484 Z M98.35931,98.360836 L95.89841,98.360836 L95.90231,86.88784 L95.90231,75.41084 L98.36321,75.41084 L98.35931,98.360836 Z" id="Fill-2"></path>
                    <path d="M64.344,54.918 C65.926,54.918 67.2112,53.6328 67.2112,52.0508 C67.2112,50.4688 65.926,49.1836 64.344,49.1836 C62.762,49.1836 61.4768,50.4688 61.4768,52.0508 C61.4768,53.6328 62.762,54.918 64.344,54.918 Z M64.344,50.8203 C65.02369,50.8203 65.5745,51.37108 65.5745,52.0508 C65.5745,52.73049 65.02372,53.2813 64.344,53.2813 C63.66428,53.2813 63.1135,52.73052 63.1135,52.0508 C63.1135,51.37111 63.66428,50.8203 64.344,50.8203 Z" id="Fill-3"></path>
                    <path d="M72.539,49.18 C70.957,49.18 69.6718,50.4652 69.6718,52.0472 C69.6718,53.6292 70.9609,54.9144 72.539,54.9144 C74.121,54.9144 75.4062,53.6292 75.4062,52.0472 C75.41011,50.4691 74.121,49.18 72.539,49.18 Z M72.539,53.2777 C71.85931,53.2777 71.3085,52.72692 71.3085,52.0472 C71.3085,51.36748 71.85928,50.8167 72.539,50.8167 C73.21869,50.8167 73.7695,51.36748 73.7695,52.0472 C73.7695,52.72692 73.21872,53.2777 72.539,53.2777 Z" id="Fill-4"></path>
                    <path d="M27.461,49.18 C25.879,49.18 24.5938,50.4652 24.5938,52.0472 C24.5938,53.6292 25.879,54.9144 27.461,54.9144 C29.043,54.9144 30.3282,53.6292 30.3282,52.0472 C30.3282,50.4691 29.0391,49.18 27.461,49.18 Z M27.461,53.2777 C26.78131,53.2777 26.2305,52.72692 26.2305,52.0472 C26.2305,51.36748 26.78128,50.8167 27.461,50.8167 C28.14069,50.8167 28.6915,51.36748 28.6915,52.0472 C28.68759,52.72689 28.13681,53.2777 27.461,53.2777 Z" id="Fill-5"></path>
                    <path d="M35.656,49.18 C34.074,49.18 32.7888,50.4652 32.7888,52.0472 C32.7888,53.6292 34.074,54.9144 35.656,54.9144 C37.238,54.9144 38.5232,53.6292 38.5232,52.0472 C38.5232,50.4691 37.238,49.18 35.656,49.18 Z M35.656,53.2777 C34.97631,53.2777 34.4255,52.72692 34.4255,52.0472 C34.4255,51.36748 34.97628,50.8167 35.656,50.8167 C36.33572,50.8167 36.8865,51.36748 36.8865,52.0472 C36.8865,52.72692 36.33181,53.2777 35.656,53.2777 Z" id="Fill-6"></path>
                    <path d="M62.297,13.934 C62.75012,13.934 63.11731,13.56681 63.11731,13.11369 L63.1134,9.01599 C63.1134,8.56287 62.74621,8.19568 62.29309,8.19568 C61.83997,8.19568 61.47278,8.56287 61.47278,9.01599 L61.47278,13.11369 C61.47669,13.56681 61.84387,13.934 62.297,13.934 Z" id="Fill-7"></path>
                    <path d="M66.395,13.934 C66.84812,13.934 67.21531,13.56681 67.21531,13.11369 L67.21531,9.01599 C67.21531,8.56287 66.84812,8.19568 66.395,8.19568 C65.94188,8.19568 65.57469,8.56287 65.57469,9.01599 L65.57469,13.11369 C65.57469,13.56681 65.94188,13.934 66.395,13.934 Z" id="Fill-8"></path>
                    <path d="M70.492,13.934 C70.94512,13.934 71.31231,13.56681 71.31231,13.11369 L71.31231,9.01599 C71.31231,8.56287 70.94512,8.19568 70.492,8.19568 C70.03887,8.19568 69.67169,8.56287 69.67169,9.01599 L69.67169,13.11369 C69.67169,13.56681 70.03888,13.934 70.492,13.934 Z" id="Fill-9"></path>
                    <path d="M74.59,13.934 C75.04312,13.934 75.41031,13.56681 75.41031,13.11369 L75.41031,9.01599 C75.41031,8.56287 75.04312,8.19568 74.59,8.19568 C74.13688,8.19568 73.76969,8.56287 73.76969,9.01599 L73.76969,13.11369 C73.76969,13.56681 74.13688,13.934 74.59,13.934 Z" id="Fill-10"></path>
                    <path d="M37.703,13.934 C38.15612,13.934 38.52331,13.56681 38.52331,13.11369 L38.52331,9.01599 C38.52331,8.56287 38.15612,8.19568 37.703,8.19568 C37.24988,8.19568 36.88269,8.56287 36.88269,9.01599 L36.88269,13.11369 C36.8866,13.56681 37.25378,13.934 37.703,13.934 Z" id="Fill-11"></path>
                    <path d="M33.605,13.934 C34.05812,13.934 34.42531,13.56681 34.42531,13.11369 L34.42531,9.01599 C34.42531,8.56287 34.05812,8.19568 33.605,8.19568 C33.15188,8.19568 32.78469,8.56287 32.78469,9.01599 L32.78469,13.11369 C32.78469,13.56681 33.15188,13.934 33.605,13.934 Z" id="Fill-12"></path>
                    <path d="M29.508,13.934 C29.96113,13.934 30.32831,13.56681 30.32831,13.11369 L30.32831,9.01599 C30.32831,8.56287 29.96112,8.19568 29.508,8.19568 C29.05488,8.19568 28.68769,8.56287 28.68769,9.01599 L28.68769,13.11369 C28.68769,13.56681 29.05488,13.934 29.508,13.934 Z" id="Fill-13"></path>
                    <path d="M25.41,13.934 C25.86312,13.934 26.23031,13.56681 26.23031,13.11369 L26.23031,9.01599 C26.23031,8.56287 25.86312,8.19568 25.41,8.19568 C24.95688,8.19568 24.58969,8.56287 24.58969,9.01599 L24.58969,13.11369 C24.58969,13.56681 24.95688,13.934 25.41,13.934 Z" id="Fill-14"></path>
                    <path d="M25.41,46.723 L33.6053,46.723 C36.3162,46.723 38.5233,44.516 38.5233,41.805 L38.5233,21.313 C38.5233,18.6021 36.3163,16.395 33.6053,16.395 L25.41,16.395 C22.6991,16.395 20.492,18.602 20.492,21.313 L20.492,41.805 C20.492,44.5159 22.699,46.723 25.41,46.723 Z M22.1327,21.313 C22.1327,19.5044 23.6054,18.0357 25.41,18.0357 L33.6053,18.0357 C35.4139,18.0357 36.8826,19.5084 36.8826,21.313 L36.8826,41.805 C36.8826,43.6136 35.4099,45.0823 33.6053,45.0823 L25.41,45.0823 C23.6014,45.0823 22.1327,43.6096 22.1327,41.805 L22.1327,21.313 Z" id="Fill-15"></path>
                    <path d="M66.395,46.723 L74.5903,46.723 C77.3012,46.723 79.5083,44.516 79.5083,41.805 L79.5083,21.313 C79.5083,18.6021 77.3013,16.395 74.5903,16.395 L66.395,16.395 C63.6841,16.395 61.477,18.602 61.477,21.313 L61.477,41.805 C61.477,44.5159 63.684,46.723 66.395,46.723 Z M63.1138,21.313 C63.1138,19.5044 64.5865,18.0357 66.3911,18.0357 L74.5864,18.0357 C76.395,18.0357 77.8637,19.5084 77.8637,21.313 L77.8637,41.805 C77.8637,43.6136 76.391,45.0823 74.5864,45.0823 L66.3911,45.0823 C64.5825,45.0823 63.1138,43.6096 63.1138,41.805 L63.1138,21.313 Z" id="Fill-16"></path>
                </g>
                <g id="Page-1" opacity="0.699999988" transform="translate(451.000000, 217.000000)" fill="#000000">
                    <path d="M26.102,32.301 L22.0004,32.301 C21.39884,32.301 21.0004,32.69944 21.0004,33.301 L21.0004,39.1994 C21.0004,39.80096 21.39884,40.1994 22.0004,40.1994 L26.102,40.1994 C26.70356,40.1994 27.102,39.80096 27.102,39.1994 L27.102,33.301 C27.102,32.801 26.602,32.301 26.102,32.301 Z M25.102,38.1994 L23.0004,38.1994 L23.0004,34.301 L25.102,34.301 L25.102,38.1994 Z" id="Fill-1"></path>
                    <path d="M34.898,32.301 L30.7964,32.301 C30.19484,32.301 29.7964,32.69944 29.7964,33.301 L29.7964,39.1994 C29.7964,39.80096 30.19484,40.1994 30.7964,40.1994 L34.898,40.1994 C35.49956,40.1994 35.898,39.80096 35.898,39.1994 L35.898,33.301 C35.898,32.801 35.398,32.301 34.898,32.301 Z M33.898,38.1994 L31.7964,38.1994 L31.7964,34.301 L33.898,34.301 L33.898,38.1994 Z" id="Fill-2"></path>
                    <path d="M45.398,40.199 L49.4996,40.199 C50.10116,40.199 50.4996,39.80056 50.4996,39.199 L50.4996,33.3006 C50.4996,32.69904 50.10116,32.3006 49.4996,32.3006 L45.398,32.3006 C44.79644,32.3006 44.398,32.69904 44.398,33.3006 L44.398,39.199 C44.398,39.699 44.898,40.199 45.398,40.199 Z M46.398,34.3006 L48.4996,34.3006 L48.4996,38.199 L46.398,38.199 L46.398,34.3006 Z" id="Fill-3"></path>
                    <path d="M54.301,40.199 L58.4026,40.199 C59.00416,40.199 59.4026,39.80056 59.4026,39.199 L59.4026,33.3006 C59.4026,32.69904 59.00416,32.3006 58.4026,32.3006 L54.301,32.3006 C53.69944,32.3006 53.301,32.69904 53.301,33.3006 L53.301,39.199 C53.301,39.699 53.69944,40.199 54.301,40.199 Z M55.301,34.3006 L57.4026,34.3006 L57.4026,38.199 L55.301,38.199 L55.301,34.3006 Z" id="Fill-4"></path>
                    <path d="M26.102,47.5 L22.0004,47.5 C21.39884,47.5 21.0004,47.89844 21.0004,48.5 L21.0004,54.3984 C21.0004,54.99996 21.39884,55.3984 22.0004,55.3984 L26.102,55.3984 C26.70356,55.3984 27.102,54.99996 27.102,54.3984 L27.102,48.5 C27.102,47.89844 26.602,47.5 26.102,47.5 Z M25.102,53.3008 L23.0004,53.3008 L23.0004,49.4024 L25.102,49.4024 L25.102,53.3008 Z" id="Fill-5"></path>
                    <path d="M34.898,47.5 L30.7964,47.5 C30.19484,47.5 29.7964,47.89844 29.7964,48.5 L29.7964,54.3984 C29.7964,54.99996 30.19484,55.3984 30.7964,55.3984 L34.898,55.3984 C35.49956,55.3984 35.898,54.99996 35.898,54.3984 L35.898,48.5 C35.898,47.89844 35.398,47.5 34.898,47.5 Z M33.898,53.3008 L31.7964,53.3008 L31.7964,49.4024 L33.898,49.4024 L33.898,53.3008 Z" id="Fill-6"></path>
                    <path d="M45.398,55.301 L49.4996,55.301 C50.10116,55.301 50.4996,54.90256 50.4996,54.301 L50.4996,48.4026 C50.4996,47.80104 50.10116,47.4026 49.4996,47.4026 L45.398,47.4026 C44.79644,47.4026 44.398,47.80104 44.398,48.4026 L44.398,54.301 C44.398,54.89866 44.898,55.301 45.398,55.301 Z M46.398,49.5002 L48.4996,49.5002 L48.4996,53.3986 L46.398,53.3986 L46.398,49.5002 Z" id="Fill-7"></path>
                    <path d="M54.301,55.301 L58.4026,55.301 C59.00416,55.301 59.4026,54.90256 59.4026,54.301 L59.4026,48.4026 C59.4026,47.80104 59.00416,47.4026 58.4026,47.4026 L54.301,47.4026 C53.69944,47.4026 53.301,47.80104 53.301,48.4026 L53.301,54.301 C53.301,54.89866 53.69944,55.301 54.301,55.301 Z M55.301,49.5002 L57.4026,49.5002 L57.4026,53.3986 L55.301,53.3986 L55.301,49.5002 Z" id="Fill-8"></path>
                    <path d="M26.102,62.602 L22.0004,62.602 C21.39884,62.602 21.0004,63.00044 21.0004,63.602 L21.0004,69.5004 C21.0004,70.10196 21.39884,70.5004 22.0004,70.5004 L26.102,70.5004 C26.70356,70.5004 27.102,70.10196 27.102,69.5004 L27.102,63.602 C27.102,63.00044 26.602,62.602 26.102,62.602 Z M25.102,68.3989 L23.0004,68.3989 L23.0004,64.5005 L25.102,64.5005 L25.102,68.3989 Z" id="Fill-9"></path>
                    <path d="M34.898,62.602 L30.7964,62.602 C30.19484,62.602 29.7964,63.00044 29.7964,63.602 L29.7964,69.5004 C29.7964,70.10196 30.19484,70.5004 30.7964,70.5004 L34.898,70.5004 C35.49956,70.5004 35.898,70.10196 35.898,69.5004 L35.898,63.602 C35.898,63.00044 35.398,62.602 34.898,62.602 Z M33.898,68.3989 L31.7964,68.3989 L31.7964,64.5005 L33.898,64.5005 L33.898,68.3989 Z" id="Fill-10"></path>
                    <path d="M26.102,17.5 L22.0004,17.5 C21.39884,17.5 21.0004,17.89844 21.0004,18.5 L21.0004,24.3984 C21.0004,24.99996 21.39884,25.3984 22.0004,25.3984 L26.102,25.3984 C26.70356,25.3984 27.102,24.99996 27.102,24.3984 L27.102,18.5 C27.102,18 26.602,17.5 26.102,17.5 Z M25.102,23.3984 L23.0004,23.3984 L23.0004,19.5 L25.102,19.5 L25.102,23.3984 Z" id="Fill-11"></path>
                    <path d="M34.898,17.5 L30.7964,17.5 C30.19484,17.5 29.7964,17.89844 29.7964,18.5 L29.7964,24.3984 C29.7964,24.99996 30.19484,25.3984 30.7964,25.3984 L34.898,25.3984 C35.49956,25.3984 35.898,24.99996 35.898,24.3984 L35.898,18.5 C35.898,18 35.398,17.5 34.898,17.5 Z M33.898,23.3984 L31.7964,23.3984 L31.7964,19.5 L33.898,19.5 L33.898,23.3984 Z" id="Fill-12"></path>
                    <path d="M81.199,75.602 L74.5974,75.602 L74.5974,71.3012 C77.4958,70.8012 79.7966,68.3012 79.7966,65.1996 C79.7966,62.8988 78.4958,60.8988 76.695,59.8012 C77.59344,59.00042 78.195,57.8012 78.195,56.4028 C78.195,53.9028 76.195,51.8012 73.5934,51.8012 C71.0934,51.8012 68.9918,53.8012 68.9918,56.4028 C68.9918,57.7036 69.59336,58.9028 70.4918,59.8012 C68.5934,60.9028 67.3902,62.9028 67.3902,65.1996 C67.3902,68.3012 69.5894,70.8012 72.5894,71.3012 L72.5894,75.602 L63.7886,75.602 L63.80032,28.899 L64.19876,28.899 C64.80032,28.899 65.19876,28.50056 65.19876,27.899 L65.19876,21.899 C65.19876,21.29744 64.80032,20.899 64.19876,20.899 L63.80032,20.899 L63.80032,17.0982 C63.80032,16.49664 63.40188,16.0982 62.80032,16.0982 L42.19832,16.1021 L42.19832,14.3013 L42.29988,14.3013 C42.90144,14.3013 43.29988,13.90286 43.29988,13.3013 L43.29988,7.3013 C43.29988,6.69974 42.90144,6.3013 42.29988,6.3013 L42.19832,6.3013 L42.19832,1.9029 C42.19832,1.30134 41.79988,0.9029 41.19832,0.9029 L15.89732,0.899 C15.29576,0.899 14.89732,1.29744 14.89732,1.899 L14.89732,6.2974 L14.79576,6.2974 C14.1942,6.2974 13.79576,6.69584 13.79576,7.2974 L13.79576,13.2974 C13.79576,13.89896 14.1942,14.2974 14.79576,14.2974 L14.89732,14.2974 L14.89732,75.6954 L1.49932,75.6993 C0.897756,75.6993 0.499316,76.09774 0.499316,76.6993 C0.499316,77.30086 0.897756,77.6993 1.49932,77.6993 L81.19831,77.6993 C81.79987,77.6993 82.19831,77.30086 82.19831,76.6993 C82.19831,76.10164 81.79987,75.6016 81.19831,75.6016 L81.199,75.602 Z M71,56.5 C71,55.1016 72.1992,53.8984 73.6016,53.8984 C75,53.8984 76.2032,55.0976 76.2032,56.5 C76.2032,57.8984 75.004,59.1016 73.6016,59.1016 C72.1016,59.00004 71,57.8985 71,56.5 Z M69.3984,65.1992 C69.3984,62.8984 71.2968,61 73.5976,61 C75.8984,61 77.7968,62.8984 77.7968,65.1992 C77.7968,67.5 75.8984,69.3984 73.5976,69.3984 C71.3007,69.3984 69.3984,67.5 69.3984,65.1992 Z M54.1994,75.6012 L49.5978,75.6012 L49.6017,64.8982 L54.2033,64.8982 L54.1994,75.6012 Z M55.1994,62.8982 L48.5978,62.8982 C47.99624,62.8982 47.5978,63.29664 47.5978,63.8982 L47.5978,75.5002 L42.1994,75.5002 L42.1994,60.0002 L61.8014,60.0002 L61.8014,75.6022 L56.1998,75.6022 L56.1998,63.8992 C56.1998,63.3992 55.6998,62.8992 55.1998,62.8992 L55.1994,62.8982 Z M63.1994,22.8002 L63.1994,26.8002 L42.1994,26.8002 L42.1994,22.8002 L63.1994,22.8002 Z M61.801,57.9992 L42.199,57.9992 L42.199,45.1012 L61.801,45.1012 L61.801,57.9992 Z M61.801,43.1012 L42.199,43.1012 L42.199,28.8982 L61.801,28.8982 L61.801,43.1012 Z M61.801,18.1012 L61.801,20.902 L42.199,20.89809 L42.199,18.09729 L61.801,18.1012 Z M15.899,12.1989 L15.899,8.1989 L41.297,8.1989 L41.297,12.1989 L15.899,12.1989 Z M16.899,2.8005 L40.098,2.8005 L40.098,6.1989 L16.899,6.1989 L16.899,2.8005 Z M16.899,14.1985 L40.098,14.1985 L40.098,75.5965 L16.899,75.6004 L16.899,14.1985 Z" id="Fill-13"></path>
                </g>
                <g id="Page-1" opacity="0.699999988" transform="translate(211.000000, 215.000000)" fill="#000000">
                    <path d="M78.77,78.09 C78.77,77.53531 78.32469,77.09 77.77,77.09 L74.4614,77.09 L74.4614,25.24599 L75.32468,25.24599 C75.87937,25.24599 76.32468,24.80068 76.32468,24.24599 L76.32468,17.51159 C76.32468,16.9569 75.87937,16.51159 75.32468,16.51159 L71.46918,16.51159 L71.46918,13.10139 C71.46918,12.5467 71.02387,12.10139 70.46918,12.10139 L65.67618,12.10139 C65.12149,12.10139 64.67618,12.5467 64.67618,13.10139 L64.67618,16.51159 L51.12918,16.51159 L51.12918,13.51159 L52.16038,13.51159 C52.71507,13.51159 53.16038,13.06628 53.16038,12.51159 L53.16038,5.77719 C53.16038,5.2225 52.71507,4.77719 52.16038,4.77719 L51.2971,4.77719 L51.2971,1.13269 C51.2971,0.578 50.85179,0.13269 50.2971,0.13269 L26.9651,0.13269 C26.41041,0.13269 25.9651,0.578 25.9651,1.13269 L25.9651,4.77719 L25.10182,4.77719 C24.54713,4.77719 24.10182,5.2225 24.10182,5.77719 L24.10182,12.51159 C24.10182,13.06628 24.54713,13.51159 25.10182,13.51159 L25.9651,13.51159 L25.9651,77.08959 L21.1448,77.08959 L21.1448,74.08569 C23.0745,73.63256 24.5198,71.90209 24.5198,69.83569 L24.5198,67.25759 C24.5198,64.84739 22.555,62.88259 20.1448,62.88259 C17.7346,62.88259 15.7698,64.84739 15.7698,67.25759 L15.7698,69.83569 C15.7698,71.90209 17.2151,73.62869 19.1448,74.08569 L19.1448,77.08959 L13.7698,77.08959 L13.7698,59.90959 C16.2386,59.44084 18.1096,57.27289 18.1096,54.67129 L18.1096,51.35489 C18.1096,48.40959 15.7151,46.01509 12.7698,46.01509 C9.8245,46.01509 7.43,48.40959 7.43,51.35489 L7.43,54.67129 C7.43,57.27289 9.3011,59.44079 11.7698,59.90959 L11.7698,77.09359 L6.7698,77.09359 L6.7698,72.39439 C8.4886,71.94908 9.7659,70.39829 9.7659,68.54279 L9.7659,63.58969 C9.7659,61.38659 7.9729,59.59359 5.7698,59.59359 C3.5667,59.59359 1.7737,61.38659 1.7737,63.58969 L1.7737,68.54279 C1.7737,70.39829 3.051,71.94899 4.7698,72.39439 L4.7698,77.09359 L1.4339,77.09359 C0.87921,77.09359 0.4339,77.5389 0.4339,78.09359 C0.4339,78.64828 0.87921,79.093594 1.4339,79.093594 L77.76989,79.093594 C78.32067,79.089688 78.76989,78.64437 78.76989,78.08969 L78.77,78.09 Z M5.77,70.5353 C4.6684,70.5353 3.7739,69.64077 3.7739,68.5392 L3.7739,63.5861 C3.7739,62.4845 4.66843,61.59 5.77,61.59 C6.8716,61.59 7.7661,62.48453 7.7661,63.5861 L7.7661,68.5392 C7.7661,69.6408 6.87157,70.5353 5.77,70.5353 Z M12.77,58.0123 C10.9262,58.0123 9.4302,56.5162 9.4302,54.6725 L9.4302,51.3561 C9.4302,49.5123 10.9263,48.0163 12.77,48.0163 C14.6137,48.0163 16.1098,49.5124 16.1098,51.3561 L16.1098,54.6725 C16.1098,56.5123 14.6098,58.0123 12.77,58.0123 Z M20.145,72.2153 C18.8364,72.2153 17.77,71.1489 17.77,69.8403 L17.77,67.2622 C17.77,65.9536 18.8364,64.8872 20.145,64.8872 C21.4536,64.8872 22.52,65.9536 22.52,67.2622 L22.52,69.8403 C22.52,71.1489 21.4536,72.2153 20.145,72.2153 Z M51.129,25.24629 L72.461,25.24629 L72.461,77.0903 L51.129,77.0903 L51.129,25.24629 Z M27.965,13.51229 L49.129,13.51229 L49.129,16.51229 L48.26572,16.51229 C47.71103,16.51229 47.26572,16.9576 47.26572,17.51229 L47.26572,24.24669 C47.26572,24.80138 47.71103,25.24669 48.26572,25.24669 L49.129,25.24669 L49.129,77.0907 L27.965,77.0907 L27.965,13.51229 Z M49.297,4.77789 L27.965,4.77789 L27.965,2.13339 L49.297,2.13339 L49.297,4.77789 Z M26.102,11.51229 L26.102,6.77789 L51.161,6.77789 L51.161,11.51229 L26.102,11.51229 Z M69.469,16.51229 L66.676,16.51229 L66.676,14.10209 L69.469,14.10209 L69.469,16.51229 Z M74.3245,23.24669 L49.2655,23.24669 L49.2655,18.51229 L74.3245,18.51229 L74.3245,23.24669 Z" id="Fill-1"></path>
                    <path d="M44.754,36.984 C44.19931,36.984 43.754,36.53869 43.754,35.984 L43.754,31.5035 C43.754,30.94881 44.19931,30.5035 44.754,30.5035 C45.30869,30.5035 45.754,30.94881 45.754,31.5035 L45.754,35.984 C45.754,36.53869 45.30478,36.984 44.754,36.984 Z" id="Fill-2"></path>
                    <path d="M38.477,36.984 C37.92231,36.984 37.477,36.53869 37.477,35.984 L37.477,31.5035 C37.477,30.94881 37.92231,30.5035 38.477,30.5035 C39.03169,30.5035 39.477,30.94881 39.477,31.5035 L39.477,35.984 C39.477,36.53869 39.02778,36.984 38.477,36.984 Z" id="Fill-3"></path>
                    <path d="M32.199,36.984 C31.64431,36.984 31.199,36.53869 31.199,35.984 L31.199,31.5035 C31.199,30.94881 31.64431,30.5035 32.199,30.5035 C32.75369,30.5035 33.199,30.94881 33.199,31.5035 L33.199,35.984 C33.199,36.53869 32.74978,36.984 32.199,36.984 Z" id="Fill-4"></path>
                    <path d="M44.754,48.785 C44.19931,48.785 43.754,48.33969 43.754,47.785 L43.754,43.3045 C43.754,42.74981 44.19931,42.3045 44.754,42.3045 C45.30869,42.3045 45.754,42.74981 45.754,43.3045 L45.754,47.785 C45.754,48.33969 45.30478,48.785 44.754,48.785 Z" id="Fill-5"></path>
                    <path d="M38.477,48.785 C37.92231,48.785 37.477,48.33969 37.477,47.785 L37.477,43.3045 C37.477,42.74981 37.92231,42.3045 38.477,42.3045 C39.03169,42.3045 39.477,42.74981 39.477,43.3045 L39.477,47.785 C39.477,48.33969 39.02778,48.785 38.477,48.785 Z" id="Fill-6"></path>
                    <path d="M32.199,48.785 C31.64431,48.785 31.199,48.33969 31.199,47.785 L31.199,43.3045 C31.199,42.74981 31.64431,42.3045 32.199,42.3045 C32.75369,42.3045 33.199,42.74981 33.199,43.3045 L33.199,47.785 C33.199,48.33969 32.74978,48.785 32.199,48.785 Z" id="Fill-7"></path>
                    <path d="M44.754,25.25 C44.19931,25.25 43.754,24.80469 43.754,24.25 L43.754,19.7695 C43.754,19.21481 44.19931,18.7695 44.754,18.7695 C45.30869,18.7695 45.754,19.21481 45.754,19.7695 L45.754,24.25 C45.754,24.80078 45.30478,25.25 44.754,25.25 Z" id="Fill-8"></path>
                    <path d="M38.477,25.25 C37.92231,25.25 37.477,24.80469 37.477,24.25 L37.477,19.7695 C37.477,19.21481 37.92231,18.7695 38.477,18.7695 C39.03169,18.7695 39.477,19.21481 39.477,19.7695 L39.477,24.25 C39.477,24.80078 39.02778,25.25 38.477,25.25 Z" id="Fill-9"></path>
                    <path d="M32.199,25.25 C31.64431,25.25 31.199,24.80469 31.199,24.25 L31.199,19.7695 C31.199,19.21481 31.64431,18.7695 32.199,18.7695 C32.75369,18.7695 33.199,19.21481 33.199,19.7695 L33.199,24.25 C33.199,24.80078 32.74978,25.25 32.199,25.25 Z" id="Fill-10"></path>
                    <path d="M44.754,60.586 C44.19931,60.586 43.754,60.14069 43.754,59.586 L43.754,55.1055 C43.754,54.55081 44.19931,54.1055 44.754,54.1055 C45.30869,54.1055 45.754,54.55081 45.754,55.1055 L45.754,59.586 C45.754,60.13678 45.30478,60.586 44.754,60.586 Z" id="Fill-11"></path>
                    <path d="M38.477,60.586 C37.92231,60.586 37.477,60.14069 37.477,59.586 L37.477,55.1055 C37.477,54.55081 37.92231,54.1055 38.477,54.1055 C39.03169,54.1055 39.477,54.55081 39.477,55.1055 L39.477,59.586 C39.477,60.13678 39.02778,60.586 38.477,60.586 Z" id="Fill-12"></path>
                    <path d="M32.199,60.586 C31.64431,60.586 31.199,60.14069 31.199,59.586 L31.199,55.1055 C31.199,54.55081 31.64431,54.1055 32.199,54.1055 C32.75369,54.1055 33.199,54.55081 33.199,55.1055 L33.199,59.586 C33.199,60.13678 32.74978,60.586 32.199,60.586 Z" id="Fill-13"></path>
                    <path d="M44.754,72.383 C44.19931,72.383 43.754,71.93769 43.754,71.383 L43.754,66.9025 C43.754,66.34781 44.19931,65.9025 44.754,65.9025 C45.30869,65.9025 45.754,66.34781 45.754,66.9025 L45.754,71.383 C45.754,71.93769 45.30478,72.383 44.754,72.383 Z" id="Fill-14"></path>
                    <path d="M38.477,72.383 C37.92231,72.383 37.477,71.93769 37.477,71.383 L37.477,66.9025 C37.477,66.34781 37.92231,65.9025 38.477,65.9025 C39.03169,65.9025 39.477,66.34781 39.477,66.9025 L39.477,71.383 C39.477,71.93769 39.02778,72.383 38.477,72.383 Z" id="Fill-15"></path>
                    <path d="M32.199,72.383 C31.64431,72.383 31.199,71.93769 31.199,71.383 L31.199,66.9025 C31.199,66.34781 31.64431,65.9025 32.199,65.9025 C32.75369,65.9025 33.199,66.34781 33.199,66.9025 L33.199,71.383 C33.199,71.93769 32.74978,72.383 32.199,72.383 Z" id="Fill-16"></path>
                    <path d="M68.074,36.984 C67.51931,36.984 67.074,36.53869 67.074,35.984 L67.074,31.5035 C67.074,30.94881 67.51931,30.5035 68.074,30.5035 C68.62869,30.5035 69.074,30.94881 69.074,31.5035 L69.074,35.984 C69.074,36.53869 68.62478,36.984 68.074,36.984 Z" id="Fill-17"></path>
                    <path d="M61.797,36.984 C61.24231,36.984 60.797,36.53869 60.797,35.984 L60.797,31.5035 C60.797,30.94881 61.24231,30.5035 61.797,30.5035 C62.35169,30.5035 62.797,30.94881 62.797,31.5035 L62.797,35.984 C62.797,36.53869 62.34778,36.984 61.797,36.984 Z" id="Fill-18"></path>
                    <path d="M55.52,36.984 C54.96531,36.984 54.52,36.53869 54.52,35.984 L54.52,31.5035 C54.52,30.94881 54.96531,30.5035 55.52,30.5035 C56.07469,30.5035 56.52,30.94881 56.52,31.5035 L56.52,35.984 C56.52,36.53869 56.07078,36.984 55.52,36.984 Z" id="Fill-19"></path>
                    <path d="M68.074,48.785 C67.51931,48.785 67.074,48.33969 67.074,47.785 L67.074,43.3045 C67.074,42.74981 67.51931,42.3045 68.074,42.3045 C68.62869,42.3045 69.074,42.74981 69.074,43.3045 L69.074,47.785 C69.074,48.33969 68.62478,48.785 68.074,48.785 Z" id="Fill-20"></path>
                    <path d="M61.797,48.785 C61.24231,48.785 60.797,48.33969 60.797,47.785 L60.797,43.3045 C60.797,42.74981 61.24231,42.3045 61.797,42.3045 C62.35169,42.3045 62.797,42.74981 62.797,43.3045 L62.797,47.785 C62.797,48.33969 62.34778,48.785 61.797,48.785 Z" id="Fill-21"></path>
                    <path d="M55.52,48.785 C54.96531,48.785 54.52,48.33969 54.52,47.785 L54.52,43.3045 C54.52,42.74981 54.96531,42.3045 55.52,42.3045 C56.07469,42.3045 56.52,42.74981 56.52,43.3045 L56.52,47.785 C56.52,48.33969 56.07078,48.785 55.52,48.785 Z" id="Fill-22"></path>
                    <path d="M68.074,60.586 C67.51931,60.586 67.074,60.14069 67.074,59.586 L67.074,55.1055 C67.074,54.55081 67.51931,54.1055 68.074,54.1055 C68.62869,54.1055 69.074,54.55081 69.074,55.1055 L69.074,59.586 C69.074,60.13678 68.62478,60.586 68.074,60.586 Z" id="Fill-23"></path>
                    <path d="M61.797,60.586 C61.24231,60.586 60.797,60.14069 60.797,59.586 L60.797,55.1055 C60.797,54.55081 61.24231,54.1055 61.797,54.1055 C62.35169,54.1055 62.797,54.55081 62.797,55.1055 L62.797,59.586 C62.797,60.13678 62.34778,60.586 61.797,60.586 Z" id="Fill-24"></path>
                    <path d="M55.52,60.586 C54.96531,60.586 54.52,60.14069 54.52,59.586 L54.52,55.1055 C54.52,54.55081 54.96531,54.1055 55.52,54.1055 C56.07469,54.1055 56.52,54.55081 56.52,55.1055 L56.52,59.586 C56.52,60.13678 56.07078,60.586 55.52,60.586 Z" id="Fill-25"></path>
                    <path d="M68.074,72.383 C67.51931,72.383 67.074,71.93769 67.074,71.383 L67.074,66.9025 C67.074,66.34781 67.51931,65.9025 68.074,65.9025 C68.62869,65.9025 69.074,66.34781 69.074,66.9025 L69.074,71.383 C69.074,71.93769 68.62478,72.383 68.074,72.383 Z" id="Fill-26"></path>
                    <path d="M61.797,72.383 C61.24231,72.383 60.797,71.93769 60.797,71.383 L60.797,66.9025 C60.797,66.34781 61.24231,65.9025 61.797,65.9025 C62.35169,65.9025 62.797,66.34781 62.797,66.9025 L62.797,71.383 C62.797,71.93769 62.34778,72.383 61.797,72.383 Z" id="Fill-27"></path>
                    <path d="M55.52,72.383 C54.96531,72.383 54.52,71.93769 54.52,71.383 L54.52,66.9025 C54.52,66.34781 54.96531,65.9025 55.52,65.9025 C56.07469,65.9025 56.52,66.34781 56.52,66.9025 L56.52,71.383 C56.52,71.93769 56.07078,72.383 55.52,72.383 Z" id="Fill-28"></path>
                </g>
            </g>
        </g>
    </g>
</svg>