<?xml version="1.0" encoding="UTF-8"?>
<svg width="290px" height="480px" viewBox="0 0 290 480" version="1.1" xmlns="http://www.w3.org/2000/svg" xmlns:xlink="http://www.w3.org/1999/xlink">
    <!-- Generator: Sketch 49.3 (51167) - http://www.bohemiancoding.com/sketch -->
    <title>Image / AdaptivePath</title>
    <desc>Created with Sketch.</desc>
    <defs>
        <rect id="path-1" x="0" y="0" width="290" height="480"></rect>
        <rect id="path-3" x="0" y="0" width="290" height="480"></rect>
    </defs>
    <g id="Index" stroke="none" stroke-width="1" fill="none" fill-rule="evenodd">
        <g transform="translate(-242.000000, -510.000000)" id="Image-/-AdaptivePath">
            <g transform="translate(242.000000, 510.000000)">
                <mask id="mask-2" fill="white">
                    <use xlink:href="#path-1"></use>
                </mask>
                <use id="Mask" fill="#FFFFFF" xlink:href="#path-1"></use>
                <mask id="mask-4" fill="white">
                    <use xlink:href="#path-3"></use>
                </mask>
                <use id="Mask" fill="#1B1B1B" xlink:href="#path-3"></use>
                <polygon id="Mask" fill="#242424" mask="url(#mask-4)" points="128.855469 78.140625 290 0 290 480 39 480"></polygon>
                <g id="Group-4" mask="url(#mask-4)" fill="#5F5F5F">
                    <g transform="translate(90.000000, 360.000000)">
                        <path d="M8.16217104,0 C14.3907463,4.69662989 14.0838135,9.06949589 10.1922462,17 C9.27123552,15.9238102 4.46035678,11.7513287 6.4984327,5.87840232 C8.17863283,1.03631825 8.16202943,0 8.16202943,0 L8.16217104,0 Z" id="Fill-1"></path>
                        <path d="M11.0003476,18.3791928 C11.0003476,18.3791928 20.6566882,12.3118806 29,19.5552892 C29,19.5552892 20.7057051,23.9199311 16.3640542,20.9854388 C12.0241415,18.0493655 11,18.3791928 11,18.3791928 L11.0003476,18.3791928 Z" id="Fill-2"></path>
                        <path d="M12.9869143,14.6999555 C12.1060752,15.9518185 7.23617443,21.0229568 0,27.6337389 L0.390736633,29 C0.390736633,29 8.8248076,19.283229 13.3271141,15.3547672 L13.3243921,15.3454561 C13.9465873,15.2895823 15.2385868,15.17384 17.9218472,14.9330612 C24.2309281,14.3676488 24.9659807,8.90124623 27,5.0218264 C16.2119606,4.72914834 15.5420865,7.34992104 12.9866668,14.7001121 L12.9869143,14.6999555 Z" id="Fill-3"></path>
                    </g>
                </g>
                <rect id="Rectangle-5" stroke="#19B835" stroke-width="3" mask="url(#mask-4)" transform="translate(118.981561, 309.981561) rotate(-21.000000) translate(-118.981561, -309.981561) " x="111.981561" y="302.981561" width="14" height="14"></rect>
                <path d="M197,368 C202.891037,368 208.224371,362.666667 213,352 L181,352 C185.775629,362.666667 191.108963,368 197,368 Z" id="Oval" fill="#EF397E" mask="url(#mask-4)"></path>
                <polygon id="Rectangle-3" fill="#00BEC7" mask="url(#mask-4)" transform="translate(42.164971, 342.164971) rotate(82.000000) translate(-42.164971, -342.164971) " points="51.1649705 333.164971 51.1649705 351.164971 33.1649705 351.164971"></polygon>
                <g id="Page-1" opacity="0.400000006" mask="url(#mask-4)" fill="#FD4040">
                    <g transform="translate(250.500000, 417.000000) rotate(28.000000) translate(-250.500000, -417.000000) translate(241.000000, 404.000000)">
                        <path d="M16.9738819,9.11533891 L16.9738819,10.3501961 L15.7785002,10.3501961 L15.7785002,7.27229331 L17.9054428,7.27229331 L17.9054428,4.96040486 L15.8321728,4.96040486 C15.1644326,2.05892723 12.5682429,0 9.57494744,0 C6.57950027,0 3.98325082,2.0588678 3.3153313,4.96040486 L1.24206133,4.96040486 L1.24206133,7.27229331 L3.36900394,7.27229331 L3.36900394,10.3501961 L2.03119254,10.3501961 L2.03119254,9.11533891 L0,9.11533891 L0,13.6022066 L2.03119254,13.6022066 L2.03119254,12.3766193 L3.36900394,12.3766193 L3.36900394,21 L15.7710888,21 L15.7710888,12.3766193 L16.9664705,12.3766193 L16.9664705,13.6068415 L18.997663,13.6068415 L19,9.11533891 L16.9738819,9.11533891 Z M9.57506698,13.6114764 C8.65749201,13.6114764 7.83333611,13.0636731 7.48081806,12.2234283 C7.13060709,11.3808184 7.32439041,10.4128867 7.9734468,9.76761875 C8.62014828,9.12466822 9.59372689,8.93202076 10.4412525,9.28017074 C11.2887781,9.62835043 11.8397295,10.4500792 11.8397295,11.3599552 C11.8397295,12.6041417 10.8264642,13.6115299 9.57501917,13.6115299 L9.57506698,13.6114764 Z" id="Fill-1"></path>
                        <polygon id="Fill-2" points="15.79292 22 3.31952 22 3.31952 24 2 24 2 26 17 26 17 24 15.79298 24"></polygon>
                    </g>
                </g>
            </g>
        </g>
    </g>
</svg>