<?xml version="1.0" encoding="UTF-8"?>
<svg width="45px" height="16px" viewBox="0 0 45 16" version="1.1" xmlns="http://www.w3.org/2000/svg" xmlns:xlink="http://www.w3.org/1999/xlink">
    <!-- Generator: Sketch 49.3 (51167) - http://www.bohemiancoding.com/sketch -->
    <title>C1_Logo</title>
    <desc>Created with Sketch.</desc>
    <defs>
        <polyline id="path-1" points="0 0.0391836735 44.9156104 0.0391836735 44.9156104 15.9109462 0 15.9109462"></polyline>
        <polygon id="path-3" points="0 0.0391836735 44.9156104 0.0391836735 44.9156104 15.9109462 0 15.9109462"></polygon>
    </defs>
    <g id="C1_Logo" stroke="none" stroke-width="1" fill="none" fill-rule="evenodd">
        <g id="C1-Logo-Mobile">
            <g id="Group-3">
                <mask id="mask-2" fill="white">
                    <use xlink:href="#path-1"></use>
                </mask>
                <g id="Clip-2"></g>
                <path d="M41.7068649,1.51417588 C38.7852545,-1.75932319 19.9861247,1.1852705 11.9915532,2.95945974 L11.8053584,3.00042449 C11.7669039,3.00719258 11.7414234,3.04459518 11.7477351,3.08342263 C11.7545143,3.12272505 11.7909818,3.14861002 11.829787,3.14207941 L12.0144623,3.10538924 C18.6379948,1.90755622 32.4117351,0.246405937 35.375774,3.23196438 C36.2799818,4.14280668 36.0643325,5.31629833 35.0161247,6.70055065 C35.5816052,7.06958961 35.9839169,7.64974545 36.1650857,8.3758308 C40.2584494,5.60958219 43.0085922,2.97275844 41.7068649,1.51417588 M29.5415532,11.5185989 C29.5396831,11.5202612 29.537813,11.5216861 29.5357091,11.5229922 C27.6824104,12.8557121 25.486761,14.2559941 23.1249039,15.7255006 L23.0317481,15.7805952 C23.0000727,15.8036304 22.991774,15.8478011 23.0148,15.8805729 C23.036774,15.9129885 23.0806052,15.9207065 23.1123974,15.8976712 L23.1912935,15.8558753 C25.1944364,14.7936416 27.4951636,13.5328772 29.8105013,12.239341 C29.8230078,12.2323354 29.8352805,12.2254486 29.8476701,12.218443 C29.7203844,12.0066137 29.6158909,11.7740052 29.5415532,11.5185989" id="Fill-1" fill="#D03027" mask="url(#mask-2)"></path>
            </g>
            <path d="M29.7658403,10.5976163 C29.6986325,8.6317833 31.2146065,6.62177959 33.4166844,6.62177959 C34.8895286,6.62177959 35.8536974,7.61870724 35.9073468,9.14556438 C35.9777104,11.2186182 34.5615545,13.1217573 32.2566195,13.1217573 C30.7833078,13.1217573 29.8194896,12.1268482 29.7658403,10.5976163 M30.7235805,10.6591228 C30.7616844,11.8113603 31.4785286,12.7544994 32.4144117,12.7544994 C34.2278532,12.7544994 34.9995156,10.4926516 34.9458662,8.9814679 C34.9075286,7.82649944 34.1715156,6.88549759 33.2372688,6.88549759 C31.6774636,6.88549759 30.6705156,9.13749017 30.7235805,10.6591228" id="Fill-4" fill="#FFFFFF"></path>
            <path d="M10.8201156,8.86883265 C10.8121675,9.0495525 10.7815442,9.20771206 10.7340896,9.48377885 L10.4099727,11.3303985 C10.3821545,11.4942575 10.4419987,11.6232074 10.5920766,11.7110738 L10.5819078,11.7832668 L8.72744026,11.7806545 L8.71095974,11.3111629 C8.44095974,11.4765655 8.11485584,11.6162019 7.82007662,11.6981314 C7.52623247,11.7745989 7.28849221,11.8085581 6.93153117,11.8085581 C6.33238831,11.8085581 5.98921948,11.7453892 5.75264805,11.5343911 C5.51186883,11.3167436 5.39545325,11.1727139 5.40702468,10.8733744 C5.41614156,10.7013224 5.50403766,10.4799941 5.63108961,10.3253967 C5.75954416,10.1680683 5.93416753,10.065597 6.1248039,9.97511837 C6.31602468,9.88226494 6.54125844,9.81541521 6.86888182,9.7628141 C7.19685584,9.70878813 7.65351818,9.65488089 8.26528442,9.60299221 C8.58671299,9.57580111 8.78237532,9.50004601 8.87471299,9.46288089 C9.00258312,9.41265455 9.05260909,9.35672876 9.07131039,9.25105158 C9.10567403,9.06107013 9.04606364,8.95301818 8.79792078,8.90291058 C8.12958312,8.76944861 6.87764805,8.98911466 6.23233636,9.15321113 L6.58321948,8.19190501 C7.43424545,8.06580482 8.23220649,7.98506271 9.07166104,7.98506271 C10.4063494,7.98506271 10.8335571,8.37179369 10.8201156,8.86883265 M8.90603766,10.078302 C8.82714156,10.1082241 8.72557013,10.1381462 8.59968701,10.1648623 C8.47392078,10.1937158 8.24424545,10.2352742 7.91077792,10.2885878 C7.68098571,10.3253967 7.52179091,10.3743169 7.43085584,10.4403354 C7.34377792,10.5057603 7.2927,10.5836527 7.27808961,10.6785247 C7.26008961,10.7801647 7.2927,10.8611443 7.37942727,10.9245506 C7.46732338,10.9867696 7.61494675,11.0191852 7.82323247,11.0191852 C7.97927143,11.0191852 8.13238831,10.9933002 8.2805961,10.9455673 C8.43055714,10.8955785 8.55644026,10.8276601 8.65415455,10.7438308 C8.72557013,10.6812557 8.77676494,10.6014635 8.81475195,10.5057603 C8.83684286,10.4430664 8.86863506,10.3012928 8.90603766,10.078302" id="Fill-6" fill="#FFFFFF"></path>
            <path d="M16.9373455,7.23901744 C16.9905273,6.93587829 17.4616831,6.68961484 17.9881247,6.68961484 C18.5155013,6.68961484 18.9002805,6.93587829 18.8493195,7.23901744 C18.7938,7.5425128 18.3235792,7.78853878 17.7956182,7.78853878 C17.2666052,7.78853878 16.883813,7.5425128 16.9373455,7.23901744 L16.9373455,7.23901744 Z M16.1951377,11.7832549 L16.8389299,8.09357774 L18.6145013,8.09357774 L17.9709429,11.7832549 L16.1951377,11.7832549 Z" id="Fill-8" fill="#FFFFFF"></path>
            <path d="M26.8339442,8.87590946 C26.8265805,9.05710427 26.7949052,9.21668868 26.7461649,9.49038071 L26.4246195,11.3392564 C26.3966844,11.5021655 26.4561779,11.6302842 26.6054377,11.7212378 L26.5944506,11.7850004 L24.7405675,11.7886813 L24.7263078,11.3180022 C24.455139,11.4849484 24.1277494,11.6238724 23.835074,11.7044957 C23.5395935,11.7832193 23.3017364,11.8156349 22.9430221,11.8156349 C22.3446974,11.8156349 22.0038662,11.7543659 21.7664766,11.5421803 C21.5248792,11.3239391 21.408113,11.1805032 21.4212039,10.8819948 C21.4276325,10.708518 21.5169312,10.4863584 21.6444506,10.3336609 C21.7729052,10.1746701 21.9479961,10.07398 22.1393338,9.98302635 C22.3306714,9.89159777 22.5568403,9.82391688 22.8804896,9.768941 C23.2102169,9.71705232 23.6683987,9.66065158 24.2795805,9.60888163 C24.5979701,9.58169054 24.7942169,9.50819147 24.8853857,9.47233247 C25.0150091,9.42186865 25.0658532,9.36487421 25.085139,9.25860334 C25.1177494,9.07242152 25.0591909,8.96140111 24.8129182,8.91081855 C24.1415416,8.77593173 22.8926455,8.99714137 22.2473338,9.16005046 L22.5964636,8.19921929 C23.4507623,8.07252542 24.2445156,7.99142709 25.0854896,7.99142709 C26.4192429,7.99142709 26.8448143,8.38017662 26.8339442,8.87590946 M24.9202169,10.0871599 C24.8406195,10.1147072 24.7375286,10.1445106 24.612113,10.173839 C24.4876325,10.2038798 24.2576065,10.2414011 23.9222688,10.2968519 C23.6939961,10.3336609 23.5319961,10.3825811 23.4443338,10.4488371 C23.3593597,10.5122434 23.3081649,10.590967 23.2902818,10.6861952 C23.2716974,10.7880727 23.3081649,10.8704772 23.3917364,10.9317462 C23.4812688,10.9944401 23.6299442,11.0247184 23.8384636,11.0247184 C23.9929831,11.0247184 24.1445805,11.0013269 24.2939571,10.9535941 C24.4452039,10.9021803 24.5712039,10.836518 24.6692688,10.7518575 C24.7375286,10.6894011 24.790126,10.6079466 24.827061,10.5122434 C24.8498532,10.4506182 24.8807104,10.3082508 24.9202169,10.0871599" id="Fill-10" fill="#FFFFFF"></path>
            <g id="Group-14">
                <mask id="mask-4" fill="white">
                    <use xlink:href="#path-3"></use>
                </mask>
                <g id="Clip-13"></g>
                <path d="M5.16428182,10.4570776 C4.58641169,10.5734412 4.26112597,10.6182056 3.68968442,10.6182056 C2.84146364,10.6182056 2.16774935,10.1903911 2.20398312,9.40624267 C2.23004805,8.88403117 2.83924286,7.78166382 4.38712597,7.78166382 C4.87406104,7.78166382 5.25498312,7.86893655 5.76728182,8.16566382 L5.99204805,6.88400148 C5.29577532,6.6166026 4.8342039,6.57646902 4.23646364,6.58311837 C2.20854156,6.60532245 0.259398701,7.54252468 0.0180350649,9.44732616 C-0.22777013,11.3832371 2.09960649,11.8700646 3.13308701,11.8654338 C3.72977532,11.8637714 4.34972338,11.8390738 4.92864545,11.7780423 L5.16428182,10.4570776 Z" id="Fill-12" fill="#FFFFFF" mask="url(#mask-4)"></path>
            </g>
            <path d="M19.5929182,8.07233544 L19.7205545,7.32107755 L21.5775935,6.91024267 L21.380061,8.07233544 L22.2894117,8.07233544 L22.1166584,8.81551911 L21.2344247,8.81326308 L20.6983987,11.7806545 C20.6983987,11.7806545 18.9104377,11.768662 18.904126,11.7806545 L19.4379312,8.82050612 L18.7626974,8.82050612 L18.9000351,8.07233544 L19.5929182,8.07233544 Z" id="Fill-15" fill="#FFFFFF"></path>
            <polygon id="Fill-17" fill="#FFFFFF" points="28.636387 11.7807139 26.8278545 11.7832074 27.7376727 6.6353039 29.4989844 6.68576772"></polygon>
            <path d="M10.6139221,13.0572586 L11.478039,8.11168534 L13.0372597,8.11168534 L12.9166364,8.74301744 C13.051987,8.55446085 13.2682208,8.39986345 13.5662727,8.27364453 C13.8672468,8.14861299 14.2058571,8.05587829 14.5735714,8.05587829 C14.9805584,8.05587829 15.2315065,8.07808237 15.5361039,8.23837922 C15.8388312,8.39986345 16.050039,8.63377811 16.1652857,8.93869833 C16.2820519,9.23886902 16.3063636,9.57620482 16.243013,9.94334397 C16.1375844,10.5525907 15.8449091,11.0334813 15.3654545,11.386728 C14.8893896,11.7394998 14.4613636,11.8323532 13.8497143,11.834728 C13.6331299,11.834728 13.451961,11.8118115 13.3014156,11.7745276 C13.1543766,11.735344 13.0372597,11.6880861 12.9478442,11.6302605 C12.8626364,11.5719599 12.7719351,11.4913365 12.6556364,11.3622679 L12.3649481,13.0572586 L10.6139221,13.0572586 Z M13.8469091,8.95840891 C13.6144286,8.95840891 13.4036883,9.02953321 13.2165584,9.17308794 C13.0310649,9.31699889 12.913013,9.52609722 12.8653247,9.80477625 C12.8094545,10.1269135 12.8421818,10.3579785 12.9677143,10.5012957 C13.0946494,10.6428319 13.2768701,10.714075 13.5164805,10.714075 C13.678013,10.714075 13.8452727,10.6847466 13.9684675,10.6231213 C14.1204156,10.5413106 14.2252597,10.4549878 14.315961,10.3195072 C14.414026,10.17619 14.4781948,10.0170805 14.5111558,9.83256104 C14.5621169,9.54117699 14.518987,9.32281707 14.3860909,9.17890612 C14.2568182,9.03107681 14.0784545,8.95840891 13.8469091,8.95840891 L13.8469091,8.95840891 Z" id="Fill-19" fill="#FFFFFF"></path>
            <path d="M43.0042208,11.6826122 L43.1450649,11.779384 C42.7898571,12.5141373 42.0656494,13.1055733 41.2162597,13.1055733 C40.5212727,13.1055733 39.9517013,12.6357254 39.9215455,11.7533803 C39.8654416,10.1717848 41.3237922,8.70251577 42.5183377,8.70251577 C43.0308701,8.70251577 43.5056494,8.92989981 43.527039,9.49034508 C43.570987,10.7477848 41.8324675,11.132616 40.6872468,11.1586197 C40.649961,11.2900631 40.6361688,11.4224564 40.6427143,11.623243 C40.6616494,12.1448609 40.9723247,12.5834805 41.6143636,12.5834805 C42.1690909,12.5834805 42.7238182,12.1297811 43.0042208,11.6826122 M42.8484156,9.41126531 C42.8382468,9.1138256 42.6910909,8.91398887 42.3889481,8.91398887 C41.6607662,8.91398887 40.8861818,10.3629536 40.7524675,10.9475028 C41.9473636,10.9475028 42.8772857,10.2246234 42.8484156,9.41126531" id="Fill-21" fill="#FFFFFF"></path>
            <path d="M35.8809896,9.3698731 C36.0044182,9.35301224 36.2028857,9.33116438 36.288561,9.33116438 C36.4194701,9.33116438 36.5421974,9.35633692 36.5482753,9.48730538 C36.550613,9.56555399 36.4122234,10.1255243 36.3828857,10.2557803 L36.1059896,11.4962404 C35.9941325,12.0039659 35.8728078,12.535439 35.7653922,12.9554167 L36.4769766,12.9554167 L36.8766,10.9901774 C38.0973273,9.69913469 38.5667299,9.27796957 38.8548468,9.27796957 C38.9841195,9.27796957 39.0735351,9.34719406 39.0798468,9.50475993 C39.0870935,9.73202523 38.9483532,10.2480623 38.9003143,10.3958917 L38.4920416,11.8291829 C38.3992364,12.1513202 38.330626,12.4416356 38.3370545,12.6493091 C38.3496779,12.9642033 38.5369247,13.1038397 38.8148727,13.1038397 C39.3348857,13.1038397 39.7120675,12.5533685 40.0423792,12.0127525 L39.9456,11.8351199 C39.8116519,12.0528861 39.5037818,12.5274835 39.2604312,12.5274835 C39.1834052,12.5274835 39.1110545,12.4752386 39.1082494,12.3443889 C39.1010026,12.1764928 39.1707818,11.9261922 39.2187039,11.7598397 L39.6720935,10.0809974 C39.7934182,9.61839258 39.8518597,9.3207154 39.8487039,9.16231837 C39.8374831,8.84873024 39.6571325,8.70208831 39.3810545,8.70208831 C38.9132883,8.70208831 38.2912364,9.04963562 36.9753662,10.5883666 L36.9567818,10.5883666 L37.1222883,9.8373462 C37.2124052,9.42686753 37.3001844,8.99822189 37.385626,8.70208831 C36.9306,8.86879703 36.2780416,9.05521633 35.8749117,9.1342961 L35.8809896,9.3698731 Z" id="Fill-23" fill="#FFFFFF"></path>
            <path d="M44.274413,7.99046531 C44.3697896,7.99046531 44.4519584,7.98345974 44.4519584,7.86875844 C44.4519584,7.77709239 44.3715429,7.75999406 44.2932312,7.75999406 L44.1443221,7.75999406 L44.1443221,7.99046531 L44.274413,7.99046531 Z M44.1443221,8.40616846 L44.0317636,8.40616846 L44.0317636,7.66583451 L44.310413,7.66583451 C44.4829325,7.66583451 44.5684909,7.73030946 44.5684909,7.87540779 C44.5684909,8.0089885 44.4871403,8.06538924 44.3789065,8.08023154 L44.5867247,8.40616846 L44.4622442,8.40616846 L44.2705558,8.08486234 L44.1443221,8.08486234 L44.1443221,8.40616846 Z M44.2781532,8.57204601 C44.5631143,8.57204601 44.7890494,8.34549314 44.7890494,8.03380482 C44.7890494,7.73030946 44.5631143,7.50090686 44.2781532,7.50090686 C43.9872312,7.50090686 43.7629325,7.73030946 43.7629325,8.03380482 C43.7629325,8.34549314 43.9872312,8.57204601 44.2781532,8.57204601 L44.2781532,8.57204601 Z M43.6363481,8.03380482 C43.6363481,7.66583451 43.9291403,7.39475473 44.2781532,7.39475473 C44.6224909,7.39475473 44.9155169,7.66583451 44.9155169,8.03380482 C44.9155169,8.40616846 44.6224909,8.67843562 44.2781532,8.67843562 C43.9291403,8.67843562 43.6363481,8.40616846 43.6363481,8.03380482 L43.6363481,8.03380482 Z" id="Fill-25" fill="#FFFFFF"></path>
        </g>
    </g>
</svg>