<?xml version="1.0" encoding="UTF-8"?>
<svg width="1124px" height="488px" viewBox="0 0 1124 488" version="1.1" xmlns="http://www.w3.org/2000/svg" xmlns:xlink="http://www.w3.org/1999/xlink">
    <!-- Generator: Sketch 49.3 (51167) - http://www.bohemiancoding.com/sketch -->
    <title>Travel</title>
    <desc>Created with Sketch.</desc>
    <defs>
        <filter x="-18.9%" y="-20.8%" width="137.8%" height="158.3%" filterUnits="objectBoundingBox" id="filter-1">
            <feOffset dx="0" dy="2" in="SourceAlpha" result="shadowOffsetOuter1"></feOffset>
            <feGaussianBlur stdDeviation="2" in="shadowOffsetOuter1" result="shadowBlurOuter1"></feGaussianBlur>
            <feColorMatrix values="0 0 0 0 0   0 0 0 0 0   0 0 0 0 0  0 0 0 0.19774683 0" type="matrix" in="shadowBlurOuter1" result="shadowMatrixOuter1"></feColorMatrix>
            <feMerge>
                <feMergeNode in="shadowMatrixOuter1"></feMergeNode>
                <feMergeNode in="SourceGraphic"></feMergeNode>
            </feMerge>
        </filter>
        <rect id="path-2" x="0" y="0" width="37" height="24" rx="2"></rect>
        <filter x="-18.4%" y="-20.8%" width="136.8%" height="158.3%" filterUnits="objectBoundingBox" id="filter-4">
            <feOffset dx="0" dy="2" in="SourceAlpha" result="shadowOffsetOuter1"></feOffset>
            <feGaussianBlur stdDeviation="2" in="shadowOffsetOuter1" result="shadowBlurOuter1"></feGaussianBlur>
            <feColorMatrix values="0 0 0 0 0   0 0 0 0 0   0 0 0 0 0  0 0 0 0.204993207 0" type="matrix" in="shadowBlurOuter1" result="shadowMatrixOuter1"></feColorMatrix>
            <feMerge>
                <feMergeNode in="shadowMatrixOuter1"></feMergeNode>
                <feMergeNode in="SourceGraphic"></feMergeNode>
            </feMerge>
        </filter>
        <rect id="path-5" x="0" y="0" width="38" height="24" rx="2"></rect>
        <rect id="path-7" x="0" y="0" width="39" height="27" rx="3"></rect>
        <filter x="-18.9%" y="-22.7%" width="137.8%" height="163.6%" filterUnits="objectBoundingBox" id="filter-9">
            <feOffset dx="0" dy="2" in="SourceAlpha" result="shadowOffsetOuter1"></feOffset>
            <feGaussianBlur stdDeviation="2" in="shadowOffsetOuter1" result="shadowBlurOuter1"></feGaussianBlur>
            <feColorMatrix values="0 0 0 0 0   0 0 0 0 0   0 0 0 0 0  0 0 0 0.202530571 0" type="matrix" in="shadowBlurOuter1" result="shadowMatrixOuter1"></feColorMatrix>
            <feMerge>
                <feMergeNode in="shadowMatrixOuter1"></feMergeNode>
                <feMergeNode in="SourceGraphic"></feMergeNode>
            </feMerge>
        </filter>
        <rect id="path-10" x="0" y="0" width="37" height="22" rx="2"></rect>
    </defs>
    <g id="About" stroke="none" stroke-width="1" fill="none" fill-rule="evenodd">
        <g transform="translate(-158.000000, -1056.000000)" id="Travel">
            <g transform="translate(158.000000, 1056.000000)">
                <rect id="Rectangle-2" fill="#FBF8FF" x="212" y="0" width="912" height="488"></rect>
                <g id="Group-4" opacity="0.100000001" transform="translate(765.000000, 176.000000)" fill="#000000">
                    <path d="M87.5041234,3.31731851 L90.5485747,3.31731851 C93.9004668,3.31731851 96.6176751,6.01638167 96.6176751,9.33605535 L99.1564103,9.33605535 C99.1464839,4.56837451 95.2490429,0.706769899 90.4493101,0.6871 L87.5038695,0.6871 C82.6942356,0.6871 78.7868682,4.55853956 78.7670661,9.33605535 L81.4347691,9.33605535 C81.4347691,6.01638167 84.1519774,3.31731851 87.5038695,3.31731851 L87.5041234,3.31731851 Z" id="Fill-1"></path>
                    <path d="M124.26501,28.6334869 L124.26501,26.111705 L120.020498,26.111705 C112.23572,26.0723148 105.740112,20.2112398 104.946758,12.5177876 L104.946758,11.3357023 L73.263342,11.3357023 L73.263342,12.5177876 C72.4699872,20.2112398 65.9644782,26.0723652 58.1797005,26.111705 L54.5005654,26.111705 L54.5005654,28.6334869 L124.26501,28.6334869 Z M75.6228425,13.8573581 L102.457274,13.8573581 C103.280383,18.8910869 106.265377,23.3238751 110.628955,26.0131034 L67.4704559,26.0131034 C71.8238791,23.3140402 74.7990229,18.881252 75.6220809,13.8573581 L75.6228425,13.8573581 Z" id="Fill-2"></path>
                    <path d="M113.020951,54.6784503 L97.7885398,54.6784503 L97.7885398,73.0400486 L113.020951,73.0400486 L113.020951,54.6784503 Z M110.353248,62.952921 L106.773124,62.952921 L106.773124,57.3280865 L110.353248,57.3280865 L110.353248,62.952921 Z M104.085619,57.2789118 L104.085619,62.952921 L100.505494,62.952921 L100.505494,57.3280865 L104.085619,57.2789118 Z M100.475791,65.5733046 L104.085619,65.5733046 L104.085619,70.5182667 L100.505494,70.5182667 L100.475791,65.5733046 Z M106.773124,70.5182667 L106.773124,65.6224793 L110.353248,65.6224793 L110.353248,70.5182667 L106.773124,70.5182667 Z" id="Fill-3"></path>
                    <path d="M96.846669,54.6784503 L81.6142577,54.6784503 L81.6142577,73.0400486 L96.846669,73.0400486 L96.846669,54.6784503 Z M94.3079338,63.002348 L90.5990955,63.002348 L90.5990955,57.3283387 L94.2089231,57.3283387 L94.3079338,63.002348 Z M88.0403043,57.3283387 L88.0403043,62.9531732 L84.331466,62.9531732 L84.331466,57.3283387 L88.0403043,57.3283387 Z M84.4304766,65.6227315 L88.0403043,65.6227315 L88.0403043,70.5185189 L84.331466,70.5185189 L84.4304766,65.6227315 Z M90.5988416,70.5185189 L90.5988416,65.6227315 L94.2086693,65.6227315 L94.2086693,70.5185189 L90.5988416,70.5185189 Z" id="Fill-4"></path>
                    <path d="M65.5186763,73.0395442 L80.7510877,73.0395442 L80.7510877,54.628519 L65.5186763,54.628519 L65.5186763,73.0395442 Z M68.0574115,65.4741986 L71.7662498,65.4741986 L71.7662498,70.5177623 L68.1564222,70.5177623 L68.0574115,65.4741986 Z M74.4339528,70.5177623 L74.4339528,65.621975 L78.0437804,65.621975 L78.033854,70.5177623 L74.4339528,70.5177623 Z M78.0338794,62.9524167 L74.4339528,62.9524167 L74.4339528,57.3275822 L78.0437804,57.3275822 L78.0338794,62.9524167 Z M71.7662498,57.3275822 L71.7662498,62.9524167 L68.1564222,62.9524167 L68.1564222,57.3275822 L71.7662498,57.3275822 Z" id="Fill-5"></path>
                    <path d="M170.746713,67.2369241 L155.514301,67.2369241 L155.514301,85.6479493 L170.746713,85.6479493 L170.746713,67.2369241 Z M168.07901,75.5608218 L164.479083,75.5608218 L164.479083,69.8868125 L168.088911,69.8868125 L168.07901,75.5608218 Z M161.831436,69.8868125 L161.841363,75.5608218 L158.211733,75.5608218 L158.211733,69.8868125 L161.831436,69.8868125 Z M158.201807,78.2107102 L161.831436,78.2107102 L161.841363,83.1261674 L158.211733,83.1261674 L158.201807,78.2107102 Z M164.479337,83.1261674 L164.479337,78.3388167 L168.089165,78.3388167 L168.079238,83.1261674 L164.479337,83.1261674 Z" id="Fill-6"></path>
                    <path d="M154.582586,67.2369241 L139.350174,67.2369241 L139.350174,85.6479493 L154.582586,85.6479493 L154.582586,67.2369241 Z M152.04385,75.5608218 L148.434023,75.5608218 L148.434023,69.8868125 L152.04385,69.8868125 L152.04385,75.5608218 Z M145.796277,69.8868125 L145.796277,75.5608218 L142.057481,75.5608218 L142.057481,69.8868125 L145.796277,69.8868125 Z M142.186449,78.2107102 L145.796277,78.2107102 L145.796277,83.1261674 L142.057481,83.1261674 L142.186449,78.2107102 Z M148.434023,83.1261674 L148.434023,78.3388167 L152.04385,78.3388167 L152.04385,83.1261674 L148.434023,83.1261674 Z" id="Fill-7"></path>
                    <path d="M138.408303,67.2369241 L123.175892,67.2369241 L123.175892,85.6479493 L138.408303,85.6479493 L138.408303,67.2369241 Z M135.7406,75.5608218 L132.130773,75.5608218 L132.130773,69.8868125 L135.7406,69.8868125 L135.7406,75.5608218 Z M129.493027,69.8868125 L129.493027,75.5608218 L125.8931,75.5608218 L125.8931,69.8868125 L129.493027,69.8868125 Z M125.883199,78.2107102 L129.493027,78.2107102 L129.493027,83.1261674 L125.8931,83.1261674 L125.883199,78.2107102 Z M132.130773,83.1261674 L132.130773,78.3388167 L135.7406,78.3388167 L135.7406,83.1261674 L132.130773,83.1261674 Z" id="Fill-8"></path>
                    <path d="M170.746713,91.2922016 L155.514301,91.2922016 L155.514301,113.08191 L170.746713,113.08191 L170.746713,91.2922016 Z M168.07901,101.379329 L164.479083,101.379329 L164.479083,93.8139835 L168.088911,93.8139835 L168.07901,101.379329 Z M161.831436,93.8139835 L161.831436,101.379329 L158.211708,101.379329 L158.211708,93.8139835 L161.831436,93.8139835 Z M158.201807,103.901111 L161.831436,103.901111 L161.831436,110.333672 L158.211708,110.333672 L158.201807,103.901111 Z M164.469436,110.333672 L164.479363,104.029218 L168.08919,104.029218 L168.08919,110.461779 L164.469436,110.333672 Z" id="Fill-9"></path>
                    <path d="M154.582586,91.2922016 L139.350174,91.2922016 L139.350174,113.08191 L154.582586,113.08191 L154.582586,91.2922016 Z M152.04385,101.379329 L148.434023,101.379329 L148.434023,93.8139835 L152.04385,93.8139835 L152.04385,101.379329 Z M145.796277,93.8139835 L145.796277,101.379329 L142.057481,101.379329 L142.057481,93.8139835 L145.796277,93.8139835 Z M142.186449,103.901111 L145.796277,103.901111 L145.796277,110.333672 L142.057481,110.333672 L142.186449,103.901111 Z M148.434023,110.461779 L148.434023,104.029218 L152.04385,104.029218 L152.04385,110.461779 L148.434023,110.461779 Z" id="Fill-10"></path>
                    <path d="M170.746713,119.092325 L155.514301,119.092325 L155.514301,147.235411 L170.746713,147.235411 L170.746713,119.092325 Z M168.07901,127.593504 L164.479083,127.583644 L164.479083,121.712709 L168.088911,121.712709 L168.07901,127.593504 Z M164.469182,130.115286 L168.07901,130.115286 L168.07901,136.084848 L164.479083,136.084848 L164.469182,130.115286 Z M161.930447,135.986246 L158.211708,135.986246 L158.211708,130.213635 L161.841337,130.213635 L161.930447,135.986246 Z M161.930447,121.614107 L161.930447,127.485067 L158.211708,127.485067 L158.211708,121.712457 L161.930447,121.614107 Z M158.300817,138.636135 L161.930447,138.636135 L161.930447,144.507095 L158.211708,144.507095 L158.300817,138.636135 Z M164.568447,144.507095 L164.578373,138.734484 L168.188201,138.734484 L168.188201,144.605445 L164.568447,144.507095 Z" id="Fill-11"></path>
                    <path d="M138.408303,91.2922016 L123.175892,91.2922016 L123.175892,113.08191 L138.408303,113.08191 L138.408303,91.2922016 Z M135.869568,101.379329 L132.130773,101.379329 L132.130773,93.8139835 L135.7406,93.8139835 L135.869568,101.379329 Z M129.621995,93.8139835 L129.621995,101.379329 L125.8931,101.379329 L125.8931,93.8139835 L129.621995,93.8139835 Z M126.012167,103.901111 L129.621995,103.901111 L129.621995,110.333672 L125.8931,110.333672 L126.012167,103.901111 Z M132.259741,110.333672 L132.259741,104.029218 L135.7406,104.029218 L135.7406,110.461779 L132.259741,110.333672 Z" id="Fill-12"></path>
                    <path d="M113.020951,78.2596328 L97.7885398,78.2596328 L97.7885398,101.812571 L113.020951,101.812571 L113.020951,78.2596328 Z M110.482216,89.3022635 L106.773378,89.3022635 L106.773378,80.8800163 L110.353502,80.8800163 L110.482216,89.3022635 Z M104.214586,80.8800163 L104.214586,89.3022635 L100.505748,89.3022635 L100.505748,80.8800163 L104.214586,80.8800163 Z M100.604759,91.922647 L104.214586,91.922647 L104.214586,99.1826049 L100.505748,99.1924651 L100.604759,91.922647 Z M106.872388,99.1826049 L106.872388,91.922647 L110.353248,91.922647 L110.353248,99.1826049 L106.872388,99.1826049 Z" id="Fill-13"></path>
                    <path d="M96.846669,78.2596328 L81.6142577,78.2596328 L81.6142577,101.812571 L96.846669,101.812571 L96.846669,78.2596328 Z M94.3079338,89.3022635 L90.5990955,89.3022635 L90.5990955,80.8800163 L94.2089231,80.8800163 L94.3079338,89.3022635 Z M88.0403043,80.8800163 L88.0403043,89.3022635 L84.331466,89.3022635 L84.331466,80.8800163 L88.0403043,80.8800163 Z M84.4304766,91.922647 L88.0403043,91.922647 L88.0403043,99.1826049 L84.331466,99.1924651 L84.4304766,91.922647 Z M90.6981062,99.1826049 L90.7080326,91.922647 L94.3178603,91.922647 L94.3178603,99.1826049 L90.6981062,99.1826049 Z" id="Fill-14"></path>
                    <path d="M65.5186763,101.813076 L80.7510877,101.813076 L80.7510877,78.2601371 L65.5186763,78.2601371 L65.5186763,101.813076 Z M68.0574115,91.9228992 L71.7662498,91.9228992 L71.7662498,99.1828571 L68.1564222,99.1927173 L68.0574115,91.9228992 Z M74.3250411,99.1828571 L74.3250411,91.9228992 L77.9348687,91.9228992 L77.9348687,99.1828571 L74.3250411,99.1828571 Z M77.9348687,89.2926807 L74.4342067,89.3025409 L74.4342067,80.8802937 L78.0440343,80.8802937 L77.9348687,89.2926807 Z M71.7665037,80.8802685 L71.7665037,89.3025157 L68.1566761,89.3025157 L68.1566761,80.8802685 L71.7665037,80.8802685 Z" id="Fill-15"></path>
                    <path d="M96.846669,106.98525 L81.6142577,106.98525 L81.6142577,141.788362 L96.846669,141.788362 L96.846669,106.98525 Z M94.3079338,117.751998 L90.499831,117.751998 L90.499831,109.634887 L94.2086693,109.634887 L94.3079338,117.751998 Z M90.5990955,120.27378 L94.3079338,120.27378 L94.3079338,128.518746 L90.499831,128.518746 L90.5990955,120.27378 Z M88.0603603,128.341465 L84.331466,128.341465 L84.331466,120.27378 L87.832128,120.27378 L88.0603603,128.341465 Z M88.0603603,109.526702 L88.0603603,117.643814 L84.331466,117.653649 L84.331466,109.635139 L88.0603603,109.526702 Z M84.331466,131.040528 L87.832128,131.040528 L87.832128,139.108212 L84.331466,139.108212 L84.331466,131.040528 Z M90.499831,139.108212 L90.499831,131.040528 L94.2086693,131.040528 L94.2086693,139.108212 L90.499831,139.108212 Z" id="Fill-16"></path>
                    <path d="M65.5186763,141.788362 L80.7510877,141.788362 L80.7510877,106.98525 L65.5186763,106.98525 L65.5186763,141.788362 Z M68.0574115,131.070789 L72.3217251,131.070789 L72.3217251,139.138474 L68.1566761,139.138474 L68.0574115,131.070789 Z M72.3217251,128.549007 L68.1566761,128.549007 L68.1566761,120.481323 L72.4209896,120.481323 L72.3217251,128.549007 Z M74.8604603,120.481323 L77.8356041,120.481323 L77.8356041,128.519502 L75.0688905,128.519502 L74.8604603,120.481323 Z M74.8604603,139.24691 L74.8604603,131.041284 L77.8356041,131.041284 L77.8356041,139.108969 L74.8604603,139.24691 Z M77.8356041,117.860939 L75.0688905,117.851079 L75.0688905,109.635618 L78.0440343,109.635618 L77.8356041,117.860939 Z M72.2227144,109.743827 L72.2227144,117.860939 L68.1566761,117.851079 L68.1566761,109.635618 L72.2227144,109.743827 Z" id="Fill-17"></path>
                    <path d="M158.212977,28.6334869 L161.693837,28.6334869 L161.693837,26.111705 L158.153571,26.111705 C157.499059,20.4770356 152.689451,16.2411985 146.987198,16.2411985 C141.284944,16.2411985 136.485212,20.4770356 135.820825,26.111705 L132.111986,26.111705 L132.111986,28.6334869 L158.212977,28.6334869 Z M146.986944,18.7236406 C151.241356,18.7335008 154.841283,21.8365282 155.465812,26.0131034 L138.507822,26.0131034 C139.122678,21.8264411 142.732531,18.7236406 146.98669,18.7236406 L146.986944,18.7236406 Z" id="Fill-18"></path>
                    <path d="M154.582586,43.1337328 L139.350174,43.1337328 L139.350174,60.786206 L154.582586,60.786206 L154.582586,43.1337328 Z M152.04385,58.2644241 L142.057481,58.2644241 L142.057481,45.7541164 L151.904982,45.7541164 L152.04385,58.2644241 Z" id="Fill-19"></path>
                    <path d="M146.98669,41.4870092 C148.295712,41.4968694 149.475844,40.7285077 149.981636,39.5365622 C150.487403,38.3347819 150.219642,36.9557706 149.29737,36.0297723 C148.385,35.1136594 146.996642,34.8378269 145.786807,35.3303813 C144.576948,35.8229106 143.793494,36.9951609 143.793494,38.2856575 C143.783568,39.1328249 144.120762,39.9504371 144.715766,40.5513273 C145.320696,41.1522175 146.133878,41.4871353 146.986741,41.4871353 L146.98669,41.4870092 Z M146.98669,37.7338412 C147.21477,37.7338412 147.413121,37.8717575 147.502358,38.0786192 C147.59162,38.285481 147.542038,38.5218981 147.383367,38.6795094 C147.224696,38.8371208 146.98669,38.8863712 146.778437,38.7977306 C146.560258,38.7189249 146.431341,38.5120631 146.431341,38.2855062 C146.431341,37.9801437 146.679249,37.7338664 146.98669,37.7338664 L146.98669,37.7338412 Z" id="Fill-20"></path>
                    <path d="M205.476611,146.652879 L220.709022,146.652879 L220.709022,123.099941 L205.476611,123.099941 L205.476611,146.652879 Z M208.015346,136.762703 L211.625174,136.762703 L211.625174,144.022661 L208.144314,144.022661 L208.015346,136.762703 Z M214.441393,144.022661 L214.441393,136.762703 L218.071022,136.762703 L218.071022,144.022661 L214.441393,144.022661 Z M218.071022,134.132485 L214.441393,134.142345 L214.441393,125.720098 L218.071022,125.720098 L218.071022,134.132485 Z M211.803393,125.710237 L211.803393,134.132485 L208.14406,134.142345 L208.14406,125.720098 L211.803393,125.710237 Z" id="Fill-21"></path>
                    <path d="M189.312484,146.652879 L204.544895,146.652879 L204.544895,123.099941 L189.312484,123.099941 L189.312484,146.652879 Z M191.980187,136.762703 L195.590014,136.762703 L195.590014,144.022661 L191.970285,144.022661 L191.980187,136.762703 Z M198.22776,144.022661 L198.217834,136.762703 L201.748199,136.762703 L201.748199,144.022661 L198.22776,144.022661 Z M201.748224,134.142319 L198.217859,134.142319 L198.217859,125.720072 L201.748224,125.720072 L201.748224,134.142319 Z M195.480595,125.720072 L195.480595,134.142319 L191.970032,134.142319 L191.970032,125.720072 L195.480595,125.720072 Z" id="Fill-22"></path>
                    <path d="M153.252288,147.235411 L154.571237,147.235411 L154.581164,119.092325 L139.348753,119.092325 L139.348753,147.235411 L153.252288,147.235411 Z M142.055958,138.734232 L145.665786,138.734232 L145.665786,144.605193 L142.055958,144.605193 L142.055958,138.734232 Z M145.665786,136.21245 L142.055958,136.21245 L142.055958,130.213383 L145.665786,130.213383 L145.665786,136.21245 Z M148.204521,130.34149 L151.814349,130.34149 L151.804448,136.084344 L148.432753,136.084344 L148.204521,130.34149 Z M148.204521,144.743134 L148.204521,138.734232 L151.814349,138.734232 L151.814349,144.605193 L148.204521,144.743134 Z M151.814349,127.721106 L148.432753,127.711246 L148.432753,121.712179 L152.042581,121.712179 L151.814349,127.721106 Z M145.665786,121.712204 L145.665786,127.583165 L142.055958,127.583165 L142.055958,121.712204 L145.665786,121.712204 Z" id="Fill-23"></path>
                    <polygon id="Fill-24" points="197.939106 76.8706353 200.577106 76.8706353 200.577106 67.5420597 197.939106 67.5420597"></polygon>
                    <polygon id="Fill-25" points="214.618596 89.4994668 220.072815 89.4994668 220.072815 86.8790833 214.618596 86.8790833"></polygon>
                    <polygon id="Fill-26" points="178.086196 89.4994668 183.540415 89.4994668 183.540415 86.8790833 178.086196 86.8790833"></polygon>
                    <path d="M210.810493,83.1266718 L187.684139,83.1266718 L187.684139,94.0707009 L210.810493,94.0707009 L210.810493,83.1266718 Z M208.271758,91.4210646 L190.500612,91.4210646 L190.500612,85.6484537 L208.271758,85.6484537 L208.271758,91.4210646 Z" id="Fill-27"></path>
                    <path d="M180.723942,117.770911 L217.129405,117.770911 L217.129405,99.1924399 L180.723942,99.1924399 L180.723942,117.770911 Z M183.262677,101.812823 L214.440885,101.812823 L214.440885,115.130858 L183.392153,115.130858 L183.262677,101.812823 Z" id="Fill-28"></path>
                    <path d="M181.99331,121.634281 C180.466108,121.634281 179.087727,122.550394 178.502549,123.959062 C177.917447,125.357869 178.244715,126.973347 179.325658,128.047122 C180.4066,129.120897 182.032965,129.445929 183.441201,128.864734 C184.859313,128.283539 185.781611,126.914287 185.781611,125.397284 C185.781611,123.318781 184.085812,121.634281 181.99331,121.634281 Z M181.99331,126.500564 C181.527223,126.510424 181.100792,126.244452 180.922268,125.811008 C180.733843,125.387424 180.833032,124.894895 181.160275,124.569812 C181.497444,124.234894 181.993284,124.146228 182.419716,124.323535 C182.846147,124.510701 183.123809,124.934285 183.113908,125.397259 C183.113908,126.008009 182.618067,126.500539 181.993284,126.500539 L181.99331,126.500564 Z" id="Fill-29"></path>
                    <path d="M64.4777949,165.664593 L79.7102062,165.664593 L79.7102062,146.603452 L64.4777949,146.603452 L64.4777949,165.664593 Z M67.1950032,149.243506 L77.171471,149.243506 L77.171471,163.014705 L67.1950032,163.014705 L67.1950032,149.243506 Z" id="Fill-30"></path>
                    <path d="M206.517492,164.179264 L220.659009,164.179264 L220.659009,148.69401 L206.517492,148.69401 L206.517492,164.179264 Z M209.056227,151.294471 L217.912098,151.294471 L217.912098,161.529375 L209.165393,161.529375 L209.056227,151.294471 Z" id="Fill-31"></path>
                    <path d="M170.746713,150.309463 L155.514301,150.309463 L155.514301,160.80058 L170.746713,160.80058 L170.746713,150.309463 Z M168.07901,158.180197 L158.211708,158.180197 L158.211708,152.959352 L168.088911,152.959352 L168.07901,158.180197 Z" id="Fill-32"></path>
                    <polygon id="Fill-33" points="0.879684755 180.6871 229.970074 180.6871 229.970074 178.066716 0.879684755 178.066716"></polygon>
                    <polygon id="Fill-34" points="124.54427 62.1456986 134.114033 62.1456986 134.114033 59.5253151 124.54427 59.5253151"></polygon>
                    <path d="M17.0034461,150.987822 L32.7913327,150.987822 L32.7913327,126.252673 L17.0034461,126.252673 L17.0034461,150.987822 Z M30.1335308,148.466041 L26.2162623,148.466041 L26.2162623,128.892726 L30.1236297,128.892726 L30.1335308,148.466041 Z M19.671149,129.020833 L23.5785164,129.020833 L23.5785164,148.466041 L19.671149,148.466041 L19.671149,129.020833 Z" id="Fill-35"></path>
                    <path d="M37.0569156,126.254186 L37.0569156,150.989336 L52.8247463,150.989336 L52.8247463,126.254186 L37.0569156,126.254186 Z M39.5956509,128.904074 L43.5030183,128.904074 L43.5030183,148.349282 L39.7048165,148.339422 L39.5956509,128.904074 Z M50.0778348,148.349282 L46.279633,148.339422 L46.279633,128.894214 L50.1870004,128.894214 L50.0778348,148.349282 Z" id="Fill-36"></path>
                    <path d="M17.0034461,162.739326 L32.7913327,162.739326 L32.7913327,154.139545 L17.0034461,154.139545 L17.0034461,162.739326 Z M30.1335308,160.217544 L26.2162623,160.217544 L26.2162623,156.759929 L30.1236297,156.759929 L30.1335308,160.217544 Z M19.671149,156.759929 L23.5785164,156.759929 L23.5785164,160.109108 L19.671149,160.118968 L19.671149,156.759929 Z" id="Fill-37"></path>
                    <path d="M37.0569156,162.739326 L52.8247463,162.739326 L52.8247463,154.139545 L37.0569156,154.139545 L37.0569156,162.739326 Z M50.1870004,160.217544 L46.279633,160.217544 L46.279633,156.759929 L50.1870004,156.759929 L50.1870004,160.217544 Z M39.7048165,156.759929 L43.6121839,156.759929 L43.6121839,160.109108 L39.7048165,160.118968 L39.7048165,156.759929 Z" id="Fill-38"></path>
                    <path d="M225.895658,173.91082 L225.895658,78.4386793 L217.386833,78.4386793 L217.386833,74.1536675 L212.487836,74.1536675 L212.487836,68.6077647 L208.828503,68.5979046 L208.828503,62.9534002 L205.86326,62.9534002 L205.86326,54.6789294 L192.663868,54.6789294 L192.663868,62.9534002 L189.688724,62.9534002 L189.688724,68.5288078 L186.029391,68.5288078 L186.029391,74.0747105 L181.130394,74.0747105 L181.130394,78.3597223 L175.26947,78.3597223 L175.26947,62.1454212 L177.808205,62.1454212 L177.808205,59.6236394 L175.26947,59.6236394 L175.26947,53.3978642 L170.598705,53.3978642 C170.221855,51.8710009 169.240075,50.5608596 167.881496,49.7629678 C165.253398,48.3050753 163.061961,46.1870811 161.534658,43.6062895 C159.243856,40.0402377 158.063699,35.8734975 158.153063,31.6278255 L158.153063,30.169933 L135.740854,30.169933 L135.740854,31.5096296 C135.760682,35.7159618 134.560749,39.8531972 132.289698,43.409414 C130.742643,46.0297976 128.511298,48.1869298 125.843595,49.664694 C124.415557,50.462611 123.404023,51.8121426 123.046924,53.3981921 L121.291617,53.3981921 L121.291617,30.2981656 L57.0387675,30.2981656 L57.0387675,112.856261 L8.98050961,112.856261 L8.98050961,166.345777 L1.56257914,166.345777 L1.56257914,168.867559 L8.98050961,168.867559 L8.98050961,173.911122 L0.87839,173.911122 L0.87839,176.432904 L229.978935,176.432904 L229.978935,173.911122 L225.895658,173.91082 Z M183.778041,81.0588107 L183.778041,76.7934688 L188.677038,76.7934688 L188.677038,71.2278961 L192.336371,71.2278961 L192.336371,65.6819934 L195.311515,65.6819934 L195.301588,57.3285909 L203.195557,57.3285909 L203.195557,65.6721584 L206.170701,65.6721584 L206.170701,71.2180612 L209.830034,71.2180612 L209.830034,76.7934688 L214.729031,76.7934688 L214.729031,81.0588107 L223.237856,81.0588107 L223.22793,173.91082 L209.968877,173.91082 L209.968877,167.980598 L204.088151,167.980598 L204.088151,162.158812 L198.197524,162.158812 L198.197524,156.258347 L191.969752,156.258347 L191.969752,148.693001 L186.515534,148.693001 L186.515534,131.523197 L177.500993,131.523197 L177.500993,148.693001 L175.269673,148.693001 L175.269673,81.0588107 L183.778041,81.0588107 Z M133.63802,173.91082 L126.6763,173.91082 L126.6763,158.780129 L133.628119,158.780129 L133.63802,173.91082 Z M124.038554,156.258347 L124.038554,173.91082 L121.341148,173.91082 L121.341148,152.958343 L141.65103,152.958343 L141.65103,158.780129 L147.511954,158.780129 L147.511954,164.631419 L153.511747,164.631419 L153.511747,170.48271 L172.730734,170.48271 L172.730734,173.91082 L136.277035,173.91082 L136.277035,156.258347 L124.038554,156.258347 Z M113.70514,173.91082 L106.773124,173.91082 L106.773124,158.780129 L113.70514,158.780129 L113.70514,173.91082 Z M104.105675,156.258347 L104.105675,173.91082 L79.2042363,173.91082 L79.2042363,170.48271 L85.0948637,170.48271 L85.0948637,164.631419 L90.985491,164.631419 L90.985491,158.780129 L96.8464152,158.780129 L96.8464152,152.958343 L118.703402,152.958343 L118.703402,173.91082 L116.343165,173.91082 L116.343165,156.258347 L104.105675,156.258347 Z M110.353248,117.750737 L102.459305,117.750737 L102.459305,120.272519 L110.353248,120.272519 L110.353248,150.306941 L100.505748,150.306941 L100.505748,109.633121 L110.353248,109.633121 L110.353248,117.750737 Z M135.7406,127.581652 L125.8931,127.581652 L125.8931,121.710691 L135.7406,121.710691 L135.7406,127.581652 Z M125.8931,130.103434 L135.7406,130.103434 L135.7406,150.277689 L125.8931,150.277689 L125.8931,130.103434 Z M183.976824,148.69174 L180.139018,148.69174 L180.139018,134.161989 L183.976824,134.161989 L183.976824,148.69174 Z M186.515559,151.213522 L189.31223,151.213522 L189.31223,156.257086 L175.269977,156.257086 L175.269977,151.213522 L186.515559,151.213522 Z M175.170459,158.778868 L195.480341,158.778868 L195.480341,164.600653 L201.341265,164.600653 L201.341265,170.629225 L207.231892,170.629225 L207.231892,173.909559 L175.269216,173.909559 L175.170459,158.778868 Z M125.586421,56.0162556 L125.586421,54.7061142 C125.586421,53.6028347 126.18145,52.5882209 127.133476,52.0365559 C130.20763,50.312691 132.766421,47.8203888 134.551406,44.7962679 C136.782726,41.2105463 138.07187,37.1224856 138.2803,32.9164056 L155.466269,32.9164056 C155.654693,37.1620776 156.933962,41.289478 159.195163,44.8948696 C160.95047,47.8894856 163.48918,50.3522578 166.533631,52.0365559 C167.47573,52.5980559 168.060832,53.6126696 168.060832,54.7061142 L168.060832,56.0162556 L172.602884,56.0162556 L172.602884,59.5230455 L161.684291,59.5230455 L161.684291,62.0448274 L172.622686,62.0448274 L172.632612,167.831056 L156.051625,167.831056 L156.051625,162.00927 L150.190701,162.00927 L150.190701,156.256581 L144.300073,156.256581 L144.300073,150.306689 L138.409446,150.306689 L138.409446,119.089551 L123.177035,119.089551 L123.177035,150.306689 L121.302737,150.306689 L121.292811,56.0147425 L125.586421,56.0162556 Z M118.555394,32.9162291 C117.980218,35.7138939 115.510943,37.7232497 112.635063,37.7333369 L109.590612,37.7333369 C106.754337,37.7333369 104.295064,35.7730549 103.680183,33.0148308 L118.555394,32.9162291 Z M93.6242524,32.9162291 L93.6242524,46.0569824 L83.7470491,46.0569824 L83.7470491,32.9162291 L93.6242524,32.9162291 Z M96.1629876,48.6773659 L96.1629876,32.9162291 L100.96272,32.9162291 C101.627158,37.1422312 105.28644,40.2551188 109.590358,40.2551188 L112.63481,40.2551188 C114.915711,40.2354236 117.097398,39.3291457 118.70391,37.7333369 L118.70391,150.308202 L113.021459,150.308202 L113.021459,120.372129 L115.024673,120.372129 L115.024673,117.850348 L113.021459,117.850348 L113.021459,106.984998 L97.7890475,106.984998 L97.7890475,150.309211 L94.2089231,150.309211 L94.2089231,156.259103 L88.3182958,156.259103 L88.3182958,162.110394 L82.4276684,162.110394 L82.4276684,167.932179 L76.5667443,167.932179 L76.5667443,173.78347 L71.9949899,173.78347 L71.9949899,173.911526 L59.5790514,173.911526 L59.5790514,37.7353039 C61.1855884,39.3311127 63.3475499,40.2373906 65.6184486,40.2570858 L68.6926031,40.2570858 C73.006422,40.2767809 76.6954581,37.1540331 77.350198,32.9181961 L81.0590363,32.9181961 L81.0590363,48.6793329 L96.1629876,48.6773659 Z M59.8082991,32.9162291 L74.8127321,32.9162291 C74.2177033,35.7532337 71.6888184,37.7726767 68.7733349,37.7333369 L65.6991804,37.7333369 C62.8332022,37.7136418 60.3736755,35.7040842 59.808553,32.9162291 L59.8082991,32.9162291 Z M56.7341447,115.504586 L56.7341447,119.011376 L11.651287,119.011376 L11.651287,115.504586 L56.7341447,115.504586 Z M11.651287,169.092451 L43.862757,169.092451 L43.862757,166.344213 L11.651287,166.344213 L11.651287,121.66076 L56.7341447,121.66076 L56.7341447,173.909559 L11.651287,173.909559 L11.651287,169.092451 Z" id="Fill-39"></path>
                </g>
                <text id="My-friends-told-me-I" font-family="Capitolina-Light, Capitolina" font-size="20" font-weight="300" line-spacing="30" fill="#363636">
                    <tspan x="169" y="157">My friends told me I was being weird, but something about </tspan>
                    <tspan x="169" y="187">traveling by myself in a foreign country with an unfamiliar </tspan>
                    <tspan x="169" y="217">language intrigued me. </tspan>
                    <tspan x="169" y="247"></tspan>
                    <tspan x="169" y="277">In June 2017, after a few days in Iceland, a conference in </tspan>
                    <tspan x="169" y="307">Amsterdam, and a few days in London, I split from my group and </tspan>
                    <tspan x="169" y="337">spent a week by myself in Prague hiking up castles and people </tspan>
                    <tspan x="169" y="367">watching. </tspan>
                    <tspan x="169" y="397"></tspan>
                    <tspan x="169" y="427">And of coursed, I cheated with Google Maps. </tspan>
                </text>
                <text id="Hobbies:-TRAVELING" font-family="BebasNeueBook, Bebas Neue" font-size="45" font-weight="300" line-spacing="30" letter-spacing="1.63999999" fill="#011728">
                    <tspan x="0" y="105">Hobbies: TRAVELIN</tspan>
                    <tspan x="273.49" y="105">G</tspan>
                </text>
                <g id="Group" transform="translate(0.000000, 189.000000)">
                    <g id="Global" transform="translate(14.000000, 0.000000)" fill="#DEDEDE">
                        <path d="M52,0.646710204 C23.6822857,0.646710204 0.646286776,23.6827102 0.646286776,52.0004245 C0.646286776,80.3181388 23.6822857,103.354137 52,103.354137 C80.3177143,103.354137 103.353714,80.3181388 103.353714,52.0004245 C103.353714,23.6827102 80.3177143,0.646710204 52,0.646710204 Z M67.4291429,52.518302 L65.9534041,50.4828735 L65.9534041,48.4474449 L68.2706939,46.4824816 L70.9361714,45.9228555 L71.429471,47.7468882 L70.4470106,48.3769902 L69.2531331,49.9190555 L72.1300065,52.0000106 L72.2709478,53.6416188 L73.8130131,55.606582 L74.9364253,57.9943371 L74.2358473,58.4171714 L71.4294392,58.6990539 L70.2355616,57.5051763 L70.9361396,55.1174212 L67.4291429,52.518302 Z M2.40791731,52.0001273 C2.40791731,40.2523722 6.52430098,29.4533518 13.3724898,20.9465763 L16.4400653,18.393058 L20.1999837,17.302862 L24.0262286,15.3006498 L26.8119429,13.7544457 L30.634049,9.93233959 L36.4542286,7.0222498 L43.7542857,3.10484571 C46.4363184,2.65713633 49.1889224,2.40841714 51.9994694,2.40841714 C58.1388653,2.40841714 64.0167755,3.53596816 69.4470612,5.58381306 L62.5117469,3.79299673 L62.5117469,5.61278449 L65.110898,9.51363347 L71.743551,13.0248008 L67.1255265,11.4619355 L71.743551,17.8334212 L69.6625959,17.8334212 L63.8093061,10.8110865 L63.2911314,13.2817233 L67.1256539,17.8334212 L62.5076294,16.7929224 L56.1361437,21.0834531 L54.3163559,21.0834531 L51.9990661,25.9045959 L48.9811559,21.6140653 L52.6208376,20.5735665 L50.6683967,17.9744155 L44.164258,15.8934604 L35.1894824,25.3864318 L30.248209,27.7285543 L28.6853437,32.8024808 L29.8543886,32.8024808 L33.4940702,31.8904857 L34.0122449,36.1810163 L37.394898,35.5301886 L37.394898,30.8499763 L37.5234016,27.4673233 L41.2957363,23.9561559 L41.9465641,22.3932906 L43.248262,24.4742457 L41.0387927,27.2060498 L41.4284637,30.1990212 L44.6784637,30.5886922 L45.5904588,31.7577371 L42.9913078,32.7982359 L42.6016367,36.180889 L40.9102571,34.7506767 L40.2594294,35.4015045 L40.7776041,37.4824596 L33.1044204,38.9126718 L30.6337837,36.8317167 L31.5457682,34.2325657 L28.6854498,34.8833935 L28.1672751,38.9168955 L26.3474873,39.4350702 L25.0457894,41.387511 L22.83632,43.0788906 L20.8838792,42.5607159 L18.8029241,43.0788906 L19.5822661,45.0313314 L19.8434229,49.1933478 L15.0305576,48.4140057 L14.2512261,51.4069771 L14.2512261,55.8301608 L15.9426057,55.8301608 L16.3322767,57.3930261 L18.4132318,56.2239812 L19.9760971,56.2239812 L21.145142,54.9222833 L21.4062988,53.1024955 L23.4872539,51.4111159 L23.7484106,50.242071 L26.8698963,50.7602457 L28.6896841,50.499089 L31.9396841,53.881742 L33.8921249,55.0507869 L34.8082588,57.3804931 L34.8082588,59.0718727 L35.9773037,56.7297502 L36.1058073,55.6892514 L37.4075053,55.1710767 L33.6351706,52.9616073 L31.4257012,49.8401216 L32.9885665,48.148742 L34.5514318,50.7478931 L38.0625992,53.4796971 L39.2316441,56.4726686 L40.7945094,59.0718196 L44.3056767,59.0718196 L42.485889,57.5089543 L43.0040637,55.6891665 L44.6954433,55.4280098 L45.6074278,57.3804506 L47.03764,59.8510873 L51.9997135,60.6304188 L55.3575339,60.6304188 L56.1368759,62.8398882 L55.7472049,65.4390392 L50.6732784,65.4390392 L49.1104131,66.479538 L43.779458,65.17784 L39.6174416,64.788169 L38.0545763,66.4795486 L34.0210743,64.6597608 L30.7710743,63.2295486 L28.8186335,61.6666833 L28.5574767,58.5451976 L24.1342931,58.2840408 L21.0128073,58.2840408 L18.2810033,59.1960359 L16.2000482,58.1555371 L14.2476073,59.4572351 L12.5562278,62.9684024 L10.6037869,65.4390392 L9.95295918,68.8216922 L10.7323012,74.674982 L12.9417706,77.5353004 L16.8426196,81.5688024 L18.6624073,83.5212433 L25.1665461,84.4332384 L28.5491992,85.2125804 L32.5827012,86.5142784 L32.843858,88.5952335 L34.0129029,90.8047029 L37.7852376,94.1873559 L38.4360653,96.0071479 L38.4360653,97.6985275 L41.0186612,100.351589 C18.9526204,95.3438826 2.40812849,75.5741151 2.40812849,52.0000743 L2.40791731,52.0001273 Z M46.4444898,53.1111233 L47.4974261,50.7690008 L49.1099567,48.5221763 L50.7929527,48.8040588 L53.5993608,48.8040588 L57.1768547,47.3987853 L56.21512,50.1347282 L60.3397812,52.0001486 L61.1108245,53.5008261 L60.6175249,55.0428914 L57.7406514,55.0428914 L53.810831,53.8490139 L48.7575984,55.2542873 L48.1274963,56.2367478 L46.0920678,56.2367478 L46.0920678,55.5361698 L47.0745282,55.3247527 L47.4973624,54.4832335 L46.4444898,53.1111233 Z M53.5497061,101.550717 L55.3570776,99.2582601 L59.1294122,98.2177613 L59.1294122,94.706594 L63.2914286,90.2834082 L68.3653551,88.0739388 L70.4463102,86.254151 L72.9169469,81.8309673 L70.3177959,82.6103094 L65.766098,83.5223045 L61.9937633,80.4008188 L61.0817682,80.0111478 L59.5189029,77.6690253 L58.6069078,77.5405216 L57.699062,74.1578686 L56.6585633,73.5070408 L52.8862286,67.9149184 L55.228351,68.4330931 L57.4378204,70.3855339 L59.3902612,72.8561706 L61.342702,74.8086114 L62.3832008,76.1103094 C62.3832008,76.1103094 63.4236996,77.1508082 63.6848988,78.3197788 C63.9460555,79.4888237 66.1555355,82.0921135 66.1555355,82.0921135 L70.9684008,80.2723257 L74.0898865,78.0628563 L78.2519029,76.1104155 L80.0716906,72.8604155 L80.7225184,71.4302033 L78.2518816,69.999991 L76.9460449,69.0879959 L75.1262571,71.168951 L73.6960449,71.168951 L73.3063739,69.3491633 L72.3943788,70.1285053 L70.7029992,67.7863829 L70.1848245,66.3561706 L70.8356522,65.9664996 L72.3985176,65.9664996 L76.5605339,67.9189404 L82.674991,68.4371151 L87.4878563,68.1759584 L89.1792359,69.9957461 L90.8706155,69.4775714 L91.3887902,73.2499061 L91.3887902,79.6213918 L93.341231,77.1507551 L94.5102759,72.9887388 L96.9809127,69.3449184 L99.7542106,65.3322163 C94.050129,85.7395633 75.590129,100.870503 53.5495576,101.55075 L53.5497061,101.550717 Z" id="Fill-1"></path>
                        <polygon id="Fill-2" points="19.2177143 38.1913469 19.7856392 36.7902122 20.2001747 35.8450645 19.939018 35.0491461 19.1430996 35.0491461 18.6498 35.8450645 18.0445731 35.8450645 16.9833486 37.2461992 15.9221241 39.0992033 17.9284751 39.3645094"></polygon>
                        <path d="M22.9277551,32.2845714 L22.9277551,31.4513404 L22.6997616,31.1114196 L21.8292286,32.1726441 L20.9959976,32.8939478 L20.4653853,34.8630498 L21.2986163,36.2641845 L21.2986163,37.0227902 C21.2986163,37.176169 20.6560767,38.4239249 20.6560767,38.4239249 L19.748231,39.5225045 L20.9586637,40.6956882 L18.0609902,41.9848637 C18.0609902,41.9848637 20.9586637,42.0594784 21.2239698,41.9848637 C21.4892759,41.910249 24.0262392,40.81168 24.0262392,40.81168 L24.0262392,38.46128 L23.0810914,38.1586612 L23.1557061,36.5668245 L22.8530873,35.0537306 L22.6250939,34.1831976 L23.8355265,32.7820629 L22.9277551,32.2845714 Z" id="Fill-3"></path>
                        <polygon id="Fill-4" points="21.6309388 23.442449 23.1771429 21.6474939 23.1771429 19.8484 20.2007265 19.8484 18.0617224 22.4890449 18.7166996 23.4424914"></polygon>
                        <polygon id="Fill-5" points="46.7310204 6.36734694 46.7310204 7.84308571 48.1860653 7.20883429 48.1860653 5.38904653 48.6420629 3.7972098 47.7342171 3.7972098 44.9111478 4.93303837 44.003302 6.57050776 44.003302 8.93756898 45.3671878 7.30009959"></polygon>
                        <polygon id="Fill-6" points="59.1006531 14.7573878 61.1111429 14.7573878 58.6653388 12.6556327 57.9191706 10.5621551 58.1015739 8.11635102 57.6455763 6.36702857 57.1025265 7.66458776 56.2195559 10.5746776 56.9325714 14.0277959"></polygon>
                        <polygon id="Fill-7" points="28.3665306 51.8174694 28.0390473 51.9998727 28.0390473 53.330542 28.7935143 53.1108367"></polygon>
                        <polygon id="Fill-8" points="28.7942041 55.068 28.0397371 54.3135331 27.6459273 54.7405061 27.6459273 57.0660735 28.7941722 56.2411412"></polygon>
                        <polygon id="Fill-9" points="33.0550204 59.0306122 33.7099976 59.424422 33.9048278 59.0015878 33.9048278 57.9818147 31.7408849 57.9818147 32.1346947 58.2761347"></polygon>
                        <polygon id="Fill-10" points="45.5244082 62.0487347 45.5244082 61.3647437 42.7097224 61.3647437 42.7097224 61.7792792 44.401102 62.2518531"></polygon>
                        <polygon id="Fill-11" points="53.7329796 62.4010612 54.5910751 61.8082718 53.6044653 61.3647118 52.8748735 61.8082718 52.2240457 62.1067412 52.2240457 62.7285551 53.1401796 62.7285551"></polygon>
                        <polygon id="Fill-12" points="63.8804082 98.1218765 61.4511592 98.34987 61.1402522 99.3903687 59.7556727 100.430868 61.4096971 100.430868 63.2046522 99.8546544 64.0710465 98.6607769 66.3054547 97.6575908 66.6536637 96.3476153 65.691929 96.3476153"></polygon>
                    </g>
                    <g id="Czech" transform="translate(98.000000, 20.000000)">
                        <g id="Flag-Czech" filter="url(#filter-1)">
                            <g id="Rectangle-4-+-Fill-2-Mask">
                                <mask id="mask-3" fill="white">
                                    <use xlink:href="#path-2"></use>
                                </mask>
                                <use id="Mask" fill="#FFFFFF" xlink:href="#path-2"></use>
                                <rect id="Rectangle-4" fill="#ED5565" mask="url(#mask-3)" x="0" y="12" width="37" height="12"></rect>
                                <polygon id="Fill-2" fill="#3D64AB" mask="url(#mask-3)" points="0 0 18.5 12 0 24"></polygon>
                            </g>
                        </g>
                    </g>
                    <g id="Flag-Netherlands" transform="translate(47.000000, 52.000000)">
                        <g filter="url(#filter-4)">
                            <mask id="mask-6" fill="white">
                                <use xlink:href="#path-5"></use>
                            </mask>
                            <use id="Mask" fill="#FFFFFF" xlink:href="#path-5"></use>
                            <rect id="Rectangle-4" fill="#ED5565" mask="url(#mask-6)" x="0" y="0" width="38" height="8.27586207"></rect>
                            <rect id="Rectangle-4" fill="#3D64AB" mask="url(#mask-6)" x="0" y="15.7241379" width="38" height="8.27586207"></rect>
                        </g>
                    </g>
                    <g id="Iceland" transform="translate(0.000000, 17.000000)">
                        <g>
                            <mask id="mask-8" fill="white">
                                <use xlink:href="#path-7"></use>
                            </mask>
                            <use id="Mask" fill="#FFFFFF" xlink:href="#path-7"></use>
                            <polygon id="Fill-1" fill="#3D64AB" mask="url(#mask-8)" points="0 10.2857143 10.6363636 10.2857143 10.6363636 0 0 0"></polygon>
                            <polygon id="Fill-2" fill="#3D64AB" mask="url(#mask-8)" points="17.7272727 10.2857143 39 10.2857143 39 0 17.7272727 0"></polygon>
                            <polygon id="Fill-3" fill="#ED5565" mask="url(#mask-8)" points="12.5424886 27 15.6890795 27 15.6890795 0 12.5424886 0"></polygon>
                            <polygon id="Fill-4" fill="#ED5565" mask="url(#mask-8)" points="0 15.0435429 39 15.0435429 39 12 0 12"></polygon>
                            <polygon id="Fill-5" fill="#3D64AB" mask="url(#mask-8)" points="0 27 10.6363636 27 10.6363636 16.7142857 0 16.7142857"></polygon>
                            <polygon id="Fill-6" fill="#3D64AB" mask="url(#mask-8)" points="17.7272727 27 39 27 39 16.7142857 17.7272727 16.7142857"></polygon>
                        </g>
                    </g>
                    <g id="UK" transform="translate(19.000000, 93.000000)">
                        <g filter="url(#filter-9)">
                            <mask id="mask-11" fill="white">
                                <use xlink:href="#path-10"></use>
                            </mask>
                            <use id="Mask" fill="#FFFFFF" xlink:href="#path-10"></use>
                            <path d="M16.8954089,0 C16.9072074,3.05966897 16.8954089,6.10310345 16.8954089,9.16262069 L0,9.16262069 L0,12.8846034 L16.8954089,12.8846034 L16.8954089,22.0472241 L20.1163722,22.0472241 C20.0898266,19.0245759 20.1045737,15.9293276 20.1045737,12.8846034 L36.9882778,12.8846034 L36.9882778,9.16262069 L20.1045737,9.16262069 C20.1045737,6.10295172 20.0927752,3.05951724 20.1045737,0 L16.8954089,0 Z" id="Fill-5" fill="#ED5565" mask="url(#mask-11)"></path>
                            <path d="M0,2.27586207 C3.43925949,4.3694731 6.94053551,6.33871966 10.381275,8.43233069 C6.92869929,8.45603759 3.46441194,8.43233069 0,8.44418414 L0,2.27586207 Z" id="Fill-11" fill="#3D64AB" mask="url(#mask-11)"></path>
                            <path d="M0,13.6601833 C3.46428735,13.6720368 6.94201551,13.6231399 10.4063029,13.6972268 C6.97887959,15.8278737 3.42742327,17.7852289 0,19.915872 L0,13.6601833 Z" id="Fill-15" fill="#3D64AB" mask="url(#mask-11)"></path>
                            <path d="M4.15306122,0 L16.075541,0 C16.075541,2.45220724 16.0873395,4.90589759 16.0504716,7.35810483 C12.068475,4.91778897 8.09967,2.4774769 4.15306122,0 Z" id="Fill-3" fill="#3D64AB" mask="url(#mask-11)"></path>
                            <path d="M21.1428571,0 L32.9413869,0 C29.0331185,2.47735172 25.0761535,4.88063172 21.1428571,7.32106897 L21.1428571,0 Z" id="Fill-7" fill="#3D64AB" mask="url(#mask-11)"></path>
                            <path d="M26.8061224,8.38191655 C30.2099979,6.30168379 33.6994377,4.38136448 37.0768052,2.27586207 L37.0768052,8.40706103 C33.6493819,8.39520759 30.2336703,8.43225103 26.8061224,8.38187103 L26.8061224,8.38191655 Z" id="Fill-13" fill="#3D64AB" mask="url(#mask-11)"></path>
                            <path d="M23.0309143,13.6551724 C27.5675673,16.5163103 36.8232306,21.9525862 36.8232306,21.9525862 L37.0120061,22.0948276 L37.0120061,20.6724138 C33.3013969,18.4187793 29.5274347,16.2526897 25.8032714,14.0227241 C24.9891959,13.4774655 23.9435306,13.7545403 23.0306122,13.6552672 L23.0309143,13.6551724 Z" id="Path" fill="#ED5565" mask="url(#mask-11)"></path>
                            <path d="M15.9870967,13.6554569 C14.9385242,13.7665834 13.7262079,13.4732097 12.8133273,14.1295948 C8.5466232,16.7684569 4.29049055,19.4353879 0,22.0238017 L0,22.083069 L2.59566327,22.083069 L2.76084184,21.9882414 C2.81983418,21.9482355 2.87882653,21.9097128 2.93781888,21.8697069 C5.46121963,20.1939138 8.0879931,18.6677966 10.6421258,17.0452586 C12.417786,15.9176828 14.2731094,14.8938483 15.986738,13.6551724 L15.9870967,13.6554569 Z" id="Path" fill="#ED5565" mask="url(#mask-11)"></path>
                            <path d="M16.057698,14.7931034 C12.5741857,16.8837483 9.13190204,19.0527586 5.6750449,21.1939655 C5.48626939,21.3110169 5.2989701,21.4325176 5.10871837,21.549569 L4.15306122,22.1541138 L16.0931122,22.1541138 C16.0768889,19.6248724 16.0798376,16.975769 16.0577168,14.7932172 L16.057698,14.7931034 Z" id="Path" fill="#3D64AB" mask="url(#mask-11)"></path>
                            <path d="M21.1546556,14.7935017 C21.1443296,16.8811879 21.1428571,18.9837431 21.1428571,21.0756397 L21.1428571,22.14245 L33.0712041,22.14245 L32.1037296,21.5379052 C32.0801327,21.5245686 32.0565357,21.5156814 32.0329388,21.5023448 C28.4078449,19.2605448 24.8047245,16.9862759 21.1549388,14.7931034 L21.1546556,14.7935017 Z" id="Path" fill="#3D64AB" mask="url(#mask-11)"></path>
                            <path d="M26.8061224,13.6972268 C30.2335457,13.6231399 33.6610936,13.6720368 37.0885168,13.6601833 L37.0885168,19.8284182 C33.6728052,17.771843 30.1833654,15.8144878 26.8061224,13.6972192 L26.8061224,13.6972268 Z" id="Fill-17" fill="#3D64AB" mask="url(#mask-11)"></path>
                            <path d="M0,0 L0.0737402449,0 C4.70906551,2.77525448 9.39457184,5.46305517 13.9935284,8.2990031 C12.9817973,8.23677345 11.8358998,8.4975531 10.9730938,7.81597034 C7.33619388,5.61125172 3.62408582,3.52941069 0.000504030612,1.30103069 L0,0 Z" id="Fill-1" fill="#ED5565" mask="url(#mask-11)"></path>
                            <path d="M34.4841548,0.00149448276 L36.9987163,0.00149448276 L36.9987163,0.0503913793 C33.5344252,2.15589 30.0935649,4.31168138 26.6292776,6.42907517 C25.692766,7.01137724 24.7915933,7.66775103 23.7931671,8.1508331 C22.9303989,8.32418552 22.0308156,8.26195966 21.1428571,8.2990031 C25.5569949,5.47494655 30.0567008,2.78714586 34.4831656,0 L34.4841548,0.00149448276 Z" id="Fill-9" fill="#ED5565" mask="url(#mask-11)"></path>
                        </g>
                    </g>
                </g>
            </g>
        </g>
    </g>
</svg>