<?xml version="1.0" encoding="UTF-8"?>
<svg width="723px" height="216px" viewBox="0 0 723 216" version="1.1" xmlns="http://www.w3.org/2000/svg" xmlns:xlink="http://www.w3.org/1999/xlink">
    <!-- Generator: Sketch 49.3 (51167) - http://www.bohemiancoding.com/sketch -->
    <title>Image / ABTest</title>
    <desc>Created with Sketch.</desc>
    <defs></defs>
    <g id="Portfolio" stroke="none" stroke-width="1" fill="none" fill-rule="evenodd">
        <g id="AO_PavingPaths" transform="translate(-331.000000, -7724.000000)">
            <g id="Image-/-ABTest" transform="translate(331.000000, 7724.000000)">
                <text id="What-are-the-numeric" font-family="Capitolina-Light, Capitolina" font-size="18" font-weight="300" line-spacing="24" fill="#3C3C3C">
                    <tspan x="0" y="162">What are the numerical impacts if we converted </tspan>
                    <tspan x="0" y="186">the application with only aesthetic updates? Is </tspan>
                    <tspan x="0" y="210">there value in the company’s design guideline?  </tspan>
                </text>
                <text id="Test-A:-Pure-Aesthet" font-family="RuckSack-Bold, RuckSack" font-size="18" font-weight="bold" fill="#333333">
                    <tspan x="0" y="131">Test A: Pure Aesthetic Reskin</tspan>
                </text>
                <g id="Icons-/-Pigs">
                    <ellipse id="Oval-2" fill="#FAD6ED" cx="46.5" cy="41.5" rx="37.5" ry="32.5"></ellipse>
                    <g id="Group-10">
                        <g id="Page-1">
                            <path d="M77.3205043,60 C75.873628,60.2548408 75.873628,61.4219729 76.1282715,62.635047 C76.4176438,63.6544233 77.4999118,64.6126044 78.2234092,65 C78.8195182,64.0978471 79.132048,63.0784186 78.9468473,62.0387526 C78.9121185,61.1824765 78.4780527,60 77.3204895,60 L77.3205043,60 Z" id="Fill-1" fill="#000000"></path>
                            <path d="M40.0967022,22 L39.9975117,22 L39.9032978,22 C29.9997348,22.0344185 22,24.7587698 22,31.3434852 C22,37.9380202 26.6616877,44.9258378 39.9032978,44.9950777 L39.9032978,45 L39.9975117,45 L40.0967022,45 L40.0967022,44.9950777 C53.3331072,44.926228 58,37.9382719 58,31.3434852 C58,24.7587698 50.000773,22.0344941 40.0967022,22 Z M32.8909485,35.100191 C30.3221262,35.100191 28.2441147,32.784053 28.2441147,29.9268367 C28.2441147,27.0697462 30.3269505,24.7534824 32.8909485,24.7534824 C35.4597709,24.7534824 37.5377824,27.0696203 37.5377824,29.9268367 C37.5377824,32.7888369 35.4549466,35.100191 32.8909485,35.100191 Z M46.9449485,35.100191 C44.3761261,35.100191 42.2981146,32.784053 42.2981146,29.9268367 C42.2981146,27.0697462 44.3809504,24.7534824 46.9449485,24.7534824 C49.5137708,24.7534824 51.5917823,27.0696203 51.5917823,29.9268367 C51.5917823,32.7888369 49.5089465,35.100191 46.9449485,35.100191 Z" id="Fill-4" fill="#FB55B9"></path>
                            <path d="M39.9024348,1.72089761 C46.6264696,1.72089761 52.9386878,3.46641651 58.4266452,6.52481939 C60.0352407,4.26786735 63.0073507,0.880047657 65.4939441,2.06504188 C69.7411787,4.08106775 77.5882923,11.2008514 77.0978791,16.5017306 C76.7202384,20.5779648 73.3950459,19.0979178 70.1286378,16.6197391 C75.1165143,23.0905075 78.0836022,31.1986675 78.0836022,40.0099694 C78.0836022,48.6147091 75.248848,56.5563355 70.4719019,62.9483057 C70.1285876,65.5888011 72.9094037,67.9489712 75.5283308,66.4491618 C71.1192574,62.1959464 73.5125643,57.5788242 76.4356581,57.5788242 C78.9467344,57.5788242 81.4773972,60.8928807 79.5107222,65.8099648 C82.1149595,66.463927 83.3362215,63.2285051 83.8953126,63.2285051 C85.2784135,63.2285051 83.0860806,69.487928 77.9168165,67.6931917 C74.5180746,70.9285759 69.2849914,68.6077545 68.2942463,65.5837661 C61.3054185,73.3772367 51.172472,78.2795933 39.892717,78.2795933 C18.8034421,78.2795933 1.71180076,61.1390936 1.71180076,40.0007804 C1.71180076,31.1943877 4.67901415,23.0818221 9.66676515,16.6155852 C6.39056381,19.1036451 3.07518968,20.5639296 2.69752379,16.4975767 C2.20708547,11.157676 10.1522818,4.03298322 14.3014588,2.06088798 C16.7880522,0.880802911 19.7650588,4.27353176 21.3687577,6.52066549 C26.8617373,3.46717176 33.178601,1.72165286 39.9030124,1.72165286 L39.9024348,1.72089761 Z M39.9030124,0.000679729002 C33.6302181,0.000679729002 27.4261017,1.490545 21.8646953,4.31784002 C19.7361814,1.6773446 16.6365087,-0.948297483 13.5761344,0.507203711 C9.02480848,2.67075595 0.413072063,10.3018469 0.995641781,16.6545438 C1.26048501,19.5310562 2.91812185,20.833996 4.90940541,20.7553237 C1.68229561,26.6163499 0,33.1659165 0,40.0004657 C0,62.1067634 17.8474753,80 39.8972369,80 C50.8636096,80 60.8396138,75.5550758 68.0539363,68.3417665 C70.7366447,71.2231881 75.1555113,71.9065675 78.3385517,69.5808621 C82.2670052,70.343002 85.8326081,67.5599271 85.9944469,63.7443816 C86.0827238,62.5151295 85.1067438,61.5022829 83.9051058,61.5022829 C82.7967042,61.5022829 82.3405797,62.2201649 81.9335342,62.7462877 C82.0561501,59.3437405 79.9128711,55.9312492 76.553302,55.8525768 C78.6916091,50.8962195 79.7999982,45.5317731 79.7999982,39.999786 C79.7999982,33.1651109 78.1178281,26.6154185 74.8905928,20.7546439 C76.8719576,20.8333163 78.5345413,19.5401444 78.8043564,16.6538641 C79.3879808,10.3257129 70.8003005,2.67913927 66.2288859,0.506523982 C63.1685116,-0.948851337 60.0689645,1.67677816 57.9403251,4.31716029 C52.3786676,1.48986527 46.1745512,0 39.902008,0 L39.9030124,0.000679729002 Z" id="Fill-7" fill="#000000"></path>
                        </g>
                        <circle id="Oval" fill="#000000" cx="30.5" cy="15.5" r="2.5"></circle>
                        <circle id="Oval" fill="#000000" cx="49.5" cy="15.5" r="2.5"></circle>
                        <path d="M39.4919224,51.1386909 C40.3560523,50.4989595 41.3881094,50.1133087 42.4676417,50.0293604 C44.0719503,49.8705586 45.6657615,50.4150113 46.8207617,51.5152819 C48.2014835,52.8083635 49.5324174,54.1536259 50.8841679,55.476326 C50.9258665,55.5273687 50.9640927,55.580682 51,55.6362603 C50.8100344,55.79733 50.5992046,55.9561406 50.4104013,56.1387592 C49.4246628,57.0938409 48.4435502,58.0534526 47.4659071,59.0164617 L47.4659071,59.0153263 C46.8693695,59.6845601 46.2346087,60.3208941 45.5650645,60.9197984 C43.2298588,62.8356243 40.0699918,63.4798856 37.1485383,62.6359895 C35.6774625,62.189069 34.3210267,61.4404459 33.1696443,60.4377421 C31.3603121,59.0153553 29.8626965,57.2935309 28.178383,55.754238 C28.120467,55.7009275 28.0706581,55.6385398 28,55.5602743 C28.9637357,54.6188112 29.9170334,53.6830396 30.8761431,52.7517688 C31.3973907,52.2458726 31.8920095,51.705944 32.4595757,51.2556551 L32.4607352,51.2556551 C33.4094069,50.4922808 34.5862913,50.0521841 35.8142388,50.0045331 C37.0409113,49.9557584 38.2513929,50.3017058 39.259075,50.9879558 L39.4919224,51.1386909 Z" id="Page-1" fill="#EE5959"></path>
                    </g>
                </g>
                <g id="Icons-/-Hierarchy" transform="translate(404.000000, 0.000000)">
                    <ellipse id="Oval-2" fill="#F8C4C4" cx="52.5" cy="42.5" rx="42.5" ry="32.5"></ellipse>
                    <g id="Page-1" fill="#000000">
                        <path d="M42.4985247,59.516123 C42.4985247,60.3362408 43.1720736,61 43.9964975,61 C44.8209214,61 45.4944704,60.3327891 45.4944704,59.516123 C45.4944704,57.8029033 48.9779757,54.7170973 51.3318945,53.1672109 C51.8686322,52.8197008 52.1141902,52.169864 51.9493144,51.5547846 C51.7879411,50.9431746 51.2441895,50.5018368 50.6127239,50.4497054 C50.090023,50.4114786 45.4979728,49.9423493 45.4979728,45.483877 C45.4979728,44.6637592 44.8244239,44 44,44 C43.175603,44 42.5020272,44.6672109 42.5020272,45.483877 C42.5020272,49.9423582 37.9064476,50.4150104 37.3872761,50.4497054 C36.752317,50.5018368 36.2120679,50.9431657 36.0506856,51.5547846 C35.8858098,52.1698729 36.1313678,52.8197275 36.6681055,53.1672109 C39.0150194,54.7170973 42.4985247,57.8029033 42.4985247,59.516123 Z M43.9964975,50.1751703 C44.8559729,51.290658 45.9961296,52.0656012 47.1432284,52.5764179 C46.0802784,53.462554 44.8980653,54.5745811 43.9964975,55.7908621 C43.0949298,54.5745811 41.9127167,53.4625629 40.8497667,52.5764179 C41.9968655,52.0655834 43.1370491,51.290658 43.9964975,50.1751703 Z" id="Fill-1"></path>
                        <path d="M72.8831601,75.7465959 C73.577347,75.6846844 74.1334145,75.1549961 74.2162578,74.4671207 C74.2542491,74.1954029 74.9208068,68.2897853 72.092302,64.3174335 C73.7603982,62.3362765 75.4803047,60.4548818 77.1622817,58.6422552 C82.7364833,52.6403182 88,46.9683978 88,39.7561059 C88,30.1224 81.9457136,22.5896009 75.9501336,19.3977369 C73.0629046,17.863705 70.2032607,17.2720875 67.6648227,17.6126704 C68.8667148,16.2918991 70.5175704,14.9366997 71.8229947,14.0734436 C72.3514064,13.7294971 72.5931553,13.0862991 72.430837,12.4775116 C72.2719669,11.8721581 71.7366501,11.435335 71.11498,11.3837368 C70.6003873,11.3459011 66.0795699,10.8815708 66.0795699,6.46870651 C66.0795699,5.65697807 65.4164692,5.00000881 64.6048339,5.00000881 C63.7932251,5.00000881 63.1300979,5.66039446 63.1300979,6.46870651 C63.1300979,10.8815796 58.6058058,11.3493968 58.0946878,11.3837368 C57.4695783,11.4353262 56.9377096,11.8721493 56.7788307,12.4775116 C56.6165125,13.0863079 56.8582613,13.7295147 57.386673,14.0734436 C58.5816689,14.86109 60.0597647,16.0546006 61.2201909,17.2584396 C55.867023,15.5077132 49.5018749,16.2609931 44.8840415,19.3909569 C44.5490341,19.6214051 44.2278458,19.8552873 43.9135272,20.0994979 C43.5198134,19.7865015 43.1019185,19.4872676 42.6667211,19.2086817 C38.0595856,16.1990841 32.0332378,15.5146604 26.8628204,17.1930966 C28.0163505,16.0133837 29.4668612,14.8473187 30.6376318,14.0734348 C31.1729486,13.7260455 31.4147063,13.0862903 31.2523793,12.4775028 C31.0935092,11.8721493 30.5651063,11.4353262 29.9399703,11.383728 C29.4253776,11.3458923 24.9045602,10.881562 24.9045602,6.4686977 C24.9045602,5.65696926 24.2414595,5 23.4298242,5 C22.6181889,5 21.9550882,5.66038566 21.9550882,6.4686977 C21.9550882,10.8815708 17.4307961,11.349388 16.9196781,11.383728 C16.2911117,11.4353173 15.7558037,11.8721404 15.5969248,12.4775028 C15.4346066,13.0862991 15.6832693,13.7260719 16.2047671,14.0734348 C17.5171761,14.9367525 19.1645835,16.2918903 20.3629391,17.6092276 C17.8313974,17.2652812 14.9752015,17.8499954 12.0914207,19.3736901 C6.07170389,22.5586861 0,30.0948311 0,39.7531914 C0,47.0346037 5.34971982,52.7856823 11.0065879,58.8700354 C12.4813239,60.4522314 13.987093,62.1203656 15.4721734,63.8332299 C13.1685615,70.4749486 13.7833001,73.7936084 13.8627838,74.1554988 C13.9974728,74.771172 14.5189794,75.2355376 15.1475193,75.3008717 C25.4017089,76.3774765 33.413734,77 44.0304186,77 C52.8199514,76.9965598 64.1480105,76.5047108 72.8823733,75.7479968 L72.8831601,75.7465959 Z M74.5650488,21.9903229 C79.7834747,24.7659679 85.053534,31.3422644 85.053534,39.7590997 C85.053534,45.8263709 80.3945883,50.8412515 75.0000429,56.6544063 C73.2421187,58.5426691 71.442817,60.513524 69.6814446,62.6150473 C65.8651673,63.5815877 61.7035472,64.3073075 57.3557283,64.7922948 C68.0617106,55.295949 71.5540411,37.7059167 71.5540411,31.5528834 C71.5540411,27.1503123 70.0205985,23.4184289 67.1748354,20.718156 C69.2712063,20.1334417 71.8614545,20.5496168 74.5656677,21.9907632 L74.5650488,21.9903229 Z M64.6079283,11.1115699 C65.4540714,12.2156466 66.5765418,12.9826626 67.7058465,13.4882538 C66.6593852,14.3653252 65.4955108,15.4659768 64.6079283,16.6698158 C63.7203459,15.4659768 62.5564715,14.365334 61.5100102,13.4882538 C62.6393149,12.982645 63.7583637,12.2156466 64.6079283,11.1115699 Z M43.9236064,24.2021746 C46.0372178,26.7749491 47.0042839,30.1490796 46.6796298,34.0155055 C46.4758634,36.4437876 45.2843775,36.7705464 44.14464,36.7705464 C43.5367976,36.7705464 41.678701,36.7705464 41.3713759,33.9742094 C40.9431189,30.1391297 41.8410722,26.7684333 43.9236064,24.2022627 L43.9236064,24.2021746 Z M41.0639624,21.6603943 C41.3057201,21.8220479 41.5509259,21.9905871 41.7788645,22.1625603 C39.0815476,25.3475563 37.9073289,29.5334328 38.4461203,34.3039708 C38.822567,37.6919253 40.9534368,39.7142903 44.1480792,39.7142903 C47.3358255,39.7142903 49.3285758,37.7262653 49.6152121,34.2661086 C50.0158399,29.4989167 48.772526,25.333292 46.0648824,22.1625603 C46.2237525,22.0490532 46.3860707,21.9321121 46.5483889,21.8186139 C51.0761291,18.7505502 57.6071408,18.3825833 62.4389347,20.9277976 C66.4106428,23.0190189 68.5967533,26.7956324 68.5967533,31.5520821 C68.5967533,37.7225496 64.431685,57.823104 51.7495742,65.2555245 C47.1424388,65.5410048 42.4422924,65.5788405 37.8138493,65.3518351 C22.8560652,56.9663461 19.4715991,37.6807956 19.4715991,31.5515362 C19.4715991,26.7947343 21.6163321,23.0181208 25.5085566,20.9237297 C30.1468135,18.4094213 36.5531622,18.7121421 41.0640154,21.6597867 L41.0639624,21.6603943 Z M23.4263672,11.111834 C24.2725103,12.2159108 25.3949807,12.9829267 26.5242854,13.488518 C25.4778241,14.3655894 24.3139497,15.466241 23.4263672,16.67008 C22.5387848,15.469675 21.3749104,14.3690322 20.3284491,13.491952 C21.4577538,12.9829091 22.5768026,12.2159108 23.4263672,11.111834 Z M2.9462803,39.7523197 C2.9462803,31.3117986 8.23384548,24.7351499 13.4657102,21.9668132 C16.1561309,20.5462796 18.7290501,20.1370166 20.825421,20.707942 C18.0244835,23.4113848 16.5187144,27.1467022 16.5187144,31.5461915 C16.5187144,37.9058814 19.4543055,54.9176801 31.9327118,64.8921451 C27.1252315,64.4106095 22.4972305,63.667702 18.3188118,62.5979653 C16.6195941,60.5927703 14.8721026,58.6975515 13.1728849,56.8711889 C7.68506332,50.9758822 2.94698672,45.8885352 2.94698672,39.7531122 L2.9462803,39.7523197 Z M18.0287273,65.5417004 C25.7855912,67.4712593 34.75478,68.5031339 44.0381902,68.5031339 C46.804558,68.5031339 49.5294599,68.3861928 52.2198806,68.2073339 C52.26132,68.2038999 52.2993112,68.2038999 52.3407594,68.1970143 C58.3846131,67.7911501 64.1589826,66.9381431 69.4089721,65.6758379 C71.1841369,67.7910972 71.4120668,71.1480577 71.3671527,72.9297782 C62.898826,73.6211227 52.323784,74.0614185 44.0279519,74.0614185 C33.9673877,74.0614185 26.2550842,73.49734 16.681678,72.5102131 C16.6851261,71.2960721 16.9303408,68.9502942 18.0285682,65.5417356 L18.0287273,65.5417004 Z" id="Fill-2"></path>
                        <path d="M44.4982433,0 C39.8145524,0 36,3.81727682 36,8.5 C36,13.1827232 39.8145524,17 44.4982433,17 C49.1819343,17 53,13.1827232 53,8.5 C53,3.81727682 49.1819343,0 44.4982433,0 Z M44.4982433,13.9881854 C41.46842,13.9881854 39.0051401,11.5254146 39.0051401,8.49270464 C39.0051401,5.4599947 41.46842,2.99722384 44.4982433,2.99722384 C47.53158,2.99722384 49.9948599,5.4599947 49.9948599,8.49270464 C49.9913375,11.5289272 47.53158,13.9881854 44.4982433,13.9881854 Z" id="Fill-3"></path>
                        <path d="M23,69.9986958 C23,72.6671014 19,72.6671014 19,69.9986958 C19,67.3337681 23,67.3337681 23,69.9986958" id="Fill-4"></path>
                        <path d="M34,71 C34,73.6666667 30,73.6666667 30,71 C30,68.3333333 34,68.3333333 34,71" id="Fill-5"></path>
                        <path d="M46,71.0013052 C46,73.6662316 42,73.6662316 42,71.0013052 C42,68.3328983 46,68.3328983 46,71.0013052" id="Fill-6"></path>
                        <path d="M58,71 C58,73.6666667 54,73.6666667 54,71 C54,68.3333333 58,68.3333333 58,71" id="Fill-7"></path>
                        <path d="M69,69.9986958 C69,72.6671014 65,72.6671014 65,69.9986958 C65,67.3337681 69,67.3337681 69,69.9986958" id="Fill-8"></path>
                    </g>
                </g>
                <text id="What-kind-of-impacts" font-family="Capitolina-Light, Capitolina" font-size="18" font-weight="300" line-spacing="24" fill="#3C3C3C">
                    <tspan x="404" y="162">What kind of impacts will restructuring our </tspan>
                    <tspan x="404" y="186">application create? Is revamping the code </tspan>
                    <tspan x="404" y="210">infrastructure worth the time and cost?</tspan>
                </text>
                <text id="Test-B:-Aesthetic-+" font-family="RuckSack-Bold, RuckSack" font-size="18" font-weight="bold" fill="#333333">
                    <tspan x="404" y="131">Test B: Aesthetic + Content Restructure</tspan>
                </text>
            </g>
        </g>
    </g>
</svg>