<?xml version="1.0" encoding="UTF-8"?>
<svg width="780px" height="149px" viewBox="0 0 780 149" version="1.1" xmlns="http://www.w3.org/2000/svg" xmlns:xlink="http://www.w3.org/1999/xlink">
    <!-- Generator: Sketch 49.3 (51167) - http://www.bohemiancoding.com/sketch -->
    <title>Image / DollarValue</title>
    <desc>Created with Sketch.</desc>
    <defs></defs>
    <g id="Portfolio" stroke="none" stroke-width="1" fill="none" fill-rule="evenodd">
        <g id="AO_PavingPaths" transform="translate(-330.000000, -8238.000000)">
            <g id="Image-/-DollarValue" transform="translate(330.000000, 8238.000000)">
                <rect id="Rectangle-18" fill="#FFFFFF" x="0" y="0" width="780" height="149"></rect>
                <rect id="Rectangle-19" fill="#363636" x="357" y="43" width="2" height="74"></rect>
                <path d="M85.8,109 L85.8,95 L88,95 L88,109 L85.8,109 Z M95.3,109 L92.56,98.86 L92.56,109 L90.58,109 L90.58,95 L93.34,95 L95.6,103.38 L95.6,95 L97.56,95 L97.56,109 L95.3,109 Z M104.44,103.78 L106.52,103.78 L106.52,105.64 C106.52,107.88 105.4,109.16 103.24,109.16 C101.08,109.16 99.96,107.88 99.96,105.64 L99.96,98.36 C99.96,96.12 101.08,94.84 103.24,94.84 C105.4,94.84 106.52,96.12 106.52,98.36 L106.52,99.72 L104.44,99.72 L104.44,98.22 C104.44,97.22 104,96.84 103.3,96.84 C102.6,96.84 102.16,97.22 102.16,98.22 L102.16,105.78 C102.16,106.78 102.6,107.14 103.3,107.14 C104,107.14 104.44,106.78 104.44,105.78 L104.44,103.78 Z M115.7,109 L113.46,109 C113.34,108.64 113.26,108.42 113.26,107.28 L113.26,105.08 C113.26,103.78 112.82,103.3 111.82,103.3 L111.06,103.3 L111.06,109 L108.86,109 L108.86,95 L112.18,95 C114.46,95 115.44,96.06 115.44,98.22 L115.44,99.32 C115.44,100.76 114.98,101.7 114,102.16 C115.1,102.62 115.46,103.68 115.46,105.14 L115.46,107.3 C115.46,107.98 115.48,108.48 115.7,109 Z M112.12,97 L111.06,97 L111.06,101.3 L111.92,101.3 C112.74,101.3 113.24,100.94 113.24,99.82 L113.24,98.44 C113.24,97.44 112.9,97 112.12,97 Z M120.1,97 L120.1,100.9 L123.12,100.9 L123.12,102.9 L120.1,102.9 L120.1,107 L123.9,107 L123.9,109 L117.9,109 L117.9,95 L123.9,95 L123.9,97 L120.1,97 Z M131.14,95 L133.38,109 L131.16,109 L130.78,106.46 L128.08,106.46 L127.7,109 L125.68,109 L127.92,95 L131.14,95 Z M129.42,97.48 L128.36,104.56 L130.48,104.56 L129.42,97.48 Z M135.12,98.36 C135.12,96.12 136.22,94.84 138.36,94.84 C140.5,94.84 141.6,96.12 141.6,98.36 L141.6,98.8 L139.52,98.8 L139.52,98.22 C139.52,97.22 139.12,96.84 138.42,96.84 C137.72,96.84 137.32,97.22 137.32,98.22 C137.32,101.1 141.62,101.64 141.62,105.64 C141.62,107.88 140.5,109.16 138.34,109.16 C136.18,109.16 135.06,107.88 135.06,105.64 L135.06,104.78 L137.14,104.78 L137.14,105.78 C137.14,106.78 137.58,107.14 138.28,107.14 C138.98,107.14 139.42,106.78 139.42,105.78 C139.42,102.9 135.12,102.36 135.12,98.36 Z M146.08,97 L146.08,100.9 L149.1,100.9 L149.1,102.9 L146.08,102.9 L146.08,107 L149.88,107 L149.88,109 L143.88,109 L143.88,95 L149.88,95 L149.88,97 L146.08,97 Z M156.34,109 L156.34,95 L158.54,95 L158.54,109 L156.34,109 Z M165.84,109 L163.1,98.86 L163.1,109 L161.12,109 L161.12,95 L163.88,95 L166.14,103.38 L166.14,95 L168.1,95 L168.1,109 L165.84,109 Z M179.08,103.78 L181.16,103.78 L181.16,105.64 C181.16,107.88 180.04,109.16 177.88,109.16 C175.72,109.16 174.6,107.88 174.6,105.64 L174.6,98.36 C174.6,96.12 175.72,94.84 177.88,94.84 C180.04,94.84 181.16,96.12 181.16,98.36 L181.16,99.72 L179.08,99.72 L179.08,98.22 C179.08,97.22 178.64,96.84 177.94,96.84 C177.24,96.84 176.8,97.22 176.8,98.22 L176.8,105.78 C176.8,106.78 177.24,107.14 177.94,107.14 C178.64,107.14 179.08,106.78 179.08,105.78 L179.08,103.78 Z M185.52,98.22 L185.52,105.78 C185.52,106.78 185.96,107.16 186.66,107.16 C187.36,107.16 187.8,106.78 187.8,105.78 L187.8,98.22 C187.8,97.22 187.36,96.84 186.66,96.84 C185.96,96.84 185.52,97.22 185.52,98.22 Z M183.32,105.64 L183.32,98.36 C183.32,96.12 184.5,94.84 186.66,94.84 C188.82,94.84 190,96.12 190,98.36 L190,105.64 C190,107.88 188.82,109.16 186.66,109.16 C184.5,109.16 183.32,107.88 183.32,105.64 Z M197.12,109 L194.38,98.86 L194.38,109 L192.4,109 L192.4,95 L195.16,95 L197.42,103.38 L197.42,95 L199.38,95 L199.38,109 L197.12,109 Z M203.6,95 L205.28,106.42 L206.96,95 L208.98,95 L206.82,109 L203.54,109 L201.38,95 L203.6,95 Z M213.2,97 L213.2,100.9 L216.22,100.9 L216.22,102.9 L213.2,102.9 L213.2,107 L217,107 L217,109 L211,109 L211,95 L217,95 L217,97 L213.2,97 Z M226.2,109 L223.96,109 C223.84,108.64 223.76,108.42 223.76,107.28 L223.76,105.08 C223.76,103.78 223.32,103.3 222.32,103.3 L221.56,103.3 L221.56,109 L219.36,109 L219.36,95 L222.68,95 C224.96,95 225.94,96.06 225.94,98.22 L225.94,99.32 C225.94,100.76 225.48,101.7 224.5,102.16 C225.6,102.62 225.96,103.68 225.96,105.14 L225.96,107.3 C225.96,107.98 225.98,108.48 226.2,109 Z M222.62,97 L221.56,97 L221.56,101.3 L222.42,101.3 C223.24,101.3 223.74,100.94 223.74,99.82 L223.74,98.44 C223.74,97.44 223.4,97 222.62,97 Z M228.12,98.36 C228.12,96.12 229.22,94.84 231.36,94.84 C233.5,94.84 234.6,96.12 234.6,98.36 L234.6,98.8 L232.52,98.8 L232.52,98.22 C232.52,97.22 232.12,96.84 231.42,96.84 C230.72,96.84 230.32,97.22 230.32,98.22 C230.32,101.1 234.62,101.64 234.62,105.64 C234.62,107.88 233.5,109.16 231.34,109.16 C229.18,109.16 228.06,107.88 228.06,105.64 L228.06,104.78 L230.14,104.78 L230.14,105.78 C230.14,106.78 230.58,107.14 231.28,107.14 C231.98,107.14 232.42,106.78 232.42,105.78 C232.42,102.9 228.12,102.36 228.12,98.36 Z M236.88,109 L236.88,95 L239.08,95 L239.08,109 L236.88,109 Z M243.7,98.22 L243.7,105.78 C243.7,106.78 244.14,107.16 244.84,107.16 C245.54,107.16 245.98,106.78 245.98,105.78 L245.98,98.22 C245.98,97.22 245.54,96.84 244.84,96.84 C244.14,96.84 243.7,97.22 243.7,98.22 Z M241.5,105.64 L241.5,98.36 C241.5,96.12 242.68,94.84 244.84,94.84 C247,94.84 248.18,96.12 248.18,98.36 L248.18,105.64 C248.18,107.88 247,109.16 244.84,109.16 C242.68,109.16 241.5,107.88 241.5,105.64 Z M255.3,109 L252.56,98.86 L252.56,109 L250.58,109 L250.58,95 L253.34,95 L255.6,103.38 L255.6,95 L257.56,95 L257.56,109 L255.3,109 Z M259.86,98.36 C259.86,96.12 260.96,94.84 263.1,94.84 C265.24,94.84 266.34,96.12 266.34,98.36 L266.34,98.8 L264.26,98.8 L264.26,98.22 C264.26,97.22 263.86,96.84 263.16,96.84 C262.46,96.84 262.06,97.22 262.06,98.22 C262.06,101.1 266.36,101.64 266.36,105.64 C266.36,107.88 265.24,109.16 263.08,109.16 C260.92,109.16 259.8,107.88 259.8,105.64 L259.8,104.78 L261.88,104.78 L261.88,105.78 C261.88,106.78 262.32,107.14 263.02,107.14 C263.72,107.14 264.16,106.78 264.16,105.78 C264.16,102.9 259.86,102.36 259.86,98.36 Z M87.82,122.22 L87.82,129.78 C87.82,130.78 88.26,131.16 88.96,131.16 C89.66,131.16 90.1,130.78 90.1,129.78 L90.1,122.22 C90.1,121.22 89.66,120.84 88.96,120.84 C88.26,120.84 87.82,121.22 87.82,122.22 Z M85.62,129.64 L85.62,122.36 C85.62,120.12 86.8,118.84 88.96,118.84 C91.12,118.84 92.3,120.12 92.3,122.36 L92.3,129.64 C92.3,131.88 91.12,133.16 88.96,133.16 C86.8,133.16 85.62,131.88 85.62,129.64 Z M96.34,119 L98.02,130.42 L99.7,119 L101.72,119 L99.56,133 L96.28,133 L94.12,119 L96.34,119 Z M105.94,121 L105.94,124.9 L108.96,124.9 L108.96,126.9 L105.94,126.9 L105.94,131 L109.74,131 L109.74,133 L103.74,133 L103.74,119 L109.74,119 L109.74,121 L105.94,121 Z M118.94,133 L116.7,133 C116.58,132.64 116.5,132.42 116.5,131.28 L116.5,129.08 C116.5,127.78 116.06,127.3 115.06,127.3 L114.3,127.3 L114.3,133 L112.1,133 L112.1,119 L115.42,119 C117.7,119 118.68,120.06 118.68,122.22 L118.68,123.32 C118.68,124.76 118.22,125.7 117.24,126.16 C118.34,126.62 118.7,127.68 118.7,129.14 L118.7,131.3 C118.7,131.98 118.72,132.48 118.94,133 Z M115.36,121 L114.3,121 L114.3,125.3 L115.16,125.3 C115.98,125.3 116.48,124.94 116.48,123.82 L116.48,122.44 C116.48,121.44 116.14,121 115.36,121 Z M124.6,121 L124.6,119 L131.4,119 L131.4,121 L129.1,121 L129.1,133 L126.9,133 L126.9,121 L124.6,121 Z M135.56,127 L135.56,133 L133.36,133 L133.36,119 L135.56,119 L135.56,125 L138.06,125 L138.06,119 L140.3,119 L140.3,133 L138.06,133 L138.06,127 L135.56,127 Z M145.1,121 L145.1,124.9 L148.12,124.9 L148.12,126.9 L145.1,126.9 L145.1,131 L148.9,131 L148.9,133 L142.9,133 L142.9,119 L148.9,119 L148.9,121 L145.1,121 Z M158.68,119 C160.96,119 161.94,120.06 161.94,122.22 L161.94,122.72 C161.94,124.16 161.5,125.08 160.52,125.54 C161.7,126 162.16,127.06 162.16,128.54 L162.16,129.68 C162.16,131.84 161.02,133 158.82,133 L155.36,133 L155.36,119 L158.68,119 Z M158.54,126.7 L157.56,126.7 L157.56,131 L158.82,131 C159.56,131 159.96,130.66 159.96,129.62 L159.96,128.4 C159.96,127.1 159.54,126.7 158.54,126.7 Z M158.62,121 L157.56,121 L157.56,124.7 L158.42,124.7 C159.24,124.7 159.74,124.34 159.74,123.22 L159.74,122.44 C159.74,121.44 159.4,121 158.62,121 Z M169.36,119 L171.6,133 L169.38,133 L169,130.46 L166.3,130.46 L165.92,133 L163.9,133 L166.14,119 L169.36,119 Z M167.64,121.48 L166.58,128.56 L168.7,128.56 L167.64,121.48 Z M173.34,122.36 C173.34,120.12 174.44,118.84 176.58,118.84 C178.72,118.84 179.82,120.12 179.82,122.36 L179.82,122.8 L177.74,122.8 L177.74,122.22 C177.74,121.22 177.34,120.84 176.64,120.84 C175.94,120.84 175.54,121.22 175.54,122.22 C175.54,125.1 179.84,125.64 179.84,129.64 C179.84,131.88 178.72,133.16 176.56,133.16 C174.4,133.16 173.28,131.88 173.28,129.64 L173.28,128.78 L175.36,128.78 L175.36,129.78 C175.36,130.78 175.8,131.14 176.5,131.14 C177.2,131.14 177.64,130.78 177.64,129.78 C177.64,126.9 173.34,126.36 173.34,122.36 Z M184.3,121 L184.3,124.9 L187.32,124.9 L187.32,126.9 L184.3,126.9 L184.3,131 L188.1,131 L188.1,133 L182.1,133 L182.1,119 L188.1,119 L188.1,121 L184.3,121 Z M190.46,133 L190.46,119 L192.66,119 L192.66,131 L196.28,131 L196.28,133 L190.46,133 Z M198.24,133 L198.24,119 L200.44,119 L200.44,133 L198.24,133 Z M207.74,133 L205,122.86 L205,133 L203.02,133 L203.02,119 L205.78,119 L208.04,127.38 L208.04,119 L210,119 L210,133 L207.74,133 Z M214.78,121 L214.78,124.9 L217.8,124.9 L217.8,126.9 L214.78,126.9 L214.78,131 L218.58,131 L218.58,133 L212.58,133 L212.58,119 L218.58,119 L218.58,121 L214.78,121 Z" id="Increase-in-Conversi" fill="#333333"></path>
                <path d="M90.52,51.84 L85.96,48.4 C89,43.2 91.48,40.4 95.64,40.4 C97.4,40.4 98.68,40.88 101.56,42.72 C103.8,44.16 104.92,44.96 106.28,44.96 C108.28,44.96 109.32,43.36 111.48,40.16 L116.04,43.6 C113,48.8 110.52,51.6 106.36,51.6 C104.6,51.6 103.32,51.12 100.44,49.28 C98.2,47.84 97.08,47.04 95.72,47.04 C93.72,47.04 92.68,48.64 90.52,51.84 Z M120.12,74 L120.12,67.92 C120.12,59.92 122.36,55.04 128.92,48.16 C135.64,41.04 137.56,36.8 137.56,31.6 C137.56,26.56 135.8,25.2 133,25.2 C130.2,25.2 128.44,26.72 128.44,30.72 L128.44,36.72 L120.12,36.72 L120.12,31.28 C120.12,22.32 124.6,17.2 133.24,17.2 C141.88,17.2 146.36,22.32 146.36,31.28 C146.36,37.92 143.64,43.84 135.48,52.48 C130.2,58.08 128.84,60.88 128.84,64.8 L128.84,66 L145.56,66 L145.56,74 L120.12,74 Z M167,74 L167,63.84 L150.2,63.84 L150.2,55.84 L166.2,18 L175.8,18 L175.8,55.84 L179.96,55.84 L179.96,63.84 L175.8,63.84 L175.8,74 L167,74 Z M158.2,55.84 L167,55.84 L167,34 L166.84,34 L158.2,55.84 Z M192.28,49.12 C186.76,49.12 183.8,45.92 183.8,40.16 L183.8,26.16 C183.8,20.4 186.76,17.2 192.28,17.2 C197.8,17.2 200.76,20.4 200.76,26.16 L200.76,40.16 C200.76,45.92 197.8,49.12 192.28,49.12 Z M190.92,74 L212.6,18 L218.2,18 L196.52,74 L190.92,74 Z M192.28,44.08 C194.04,44.08 195.16,43.04 195.16,40.56 L195.16,25.76 C195.16,23.28 194.04,22.24 192.28,22.24 C190.44,22.24 189.4,23.28 189.4,25.76 L189.4,40.56 C189.4,43.04 190.44,44.08 192.28,44.08 Z M216.84,74.8 C211.32,74.8 208.36,71.6 208.36,65.84 L208.36,51.84 C208.36,46.08 211.32,42.88 216.84,42.88 C222.36,42.88 225.32,46.08 225.32,51.84 L225.32,65.84 C225.32,71.6 222.36,74.8 216.84,74.8 Z M216.84,69.76 C218.6,69.76 219.72,68.72 219.72,66.24 L219.72,51.44 C219.72,48.96 218.6,47.92 216.84,47.92 C215,47.92 213.96,48.96 213.96,51.44 L213.96,66.24 C213.96,68.72 215,69.76 216.84,69.76 Z" id="~24%" fill="#363636"></path>
                <path d="M439.04,95 C441.24,95 442.32,96.22 442.32,98.46 L442.32,100.28 C442.32,102.52 441.24,103.74 439.04,103.74 L438,103.74 L438,109 L435.8,109 L435.8,95 L439.04,95 Z M439.04,97 L438,97 L438,101.74 L439.04,101.74 C439.74,101.74 440.12,101.42 440.12,100.42 L440.12,98.32 C440.12,97.32 439.74,97 439.04,97 Z M451.28,109 L449.04,109 C448.92,108.64 448.84,108.42 448.84,107.28 L448.84,105.08 C448.84,103.78 448.4,103.3 447.4,103.3 L446.64,103.3 L446.64,109 L444.44,109 L444.44,95 L447.76,95 C450.04,95 451.02,96.06 451.02,98.22 L451.02,99.32 C451.02,100.76 450.56,101.7 449.58,102.16 C450.68,102.62 451.04,103.68 451.04,105.14 L451.04,107.3 C451.04,107.98 451.06,108.48 451.28,109 Z M447.7,97 L446.64,97 L446.64,101.3 L447.5,101.3 C448.32,101.3 448.82,100.94 448.82,99.82 L448.82,98.44 C448.82,97.44 448.48,97 447.7,97 Z M455.5,98.22 L455.5,105.78 C455.5,106.78 455.94,107.16 456.64,107.16 C457.34,107.16 457.78,106.78 457.78,105.78 L457.78,98.22 C457.78,97.22 457.34,96.84 456.64,96.84 C455.94,96.84 455.5,97.22 455.5,98.22 Z M453.3,105.64 L453.3,98.36 C453.3,96.12 454.48,94.84 456.64,94.84 C458.8,94.84 459.98,96.12 459.98,98.36 L459.98,105.64 C459.98,107.88 458.8,109.16 456.64,109.16 C454.48,109.16 453.3,107.88 453.3,105.64 Z M461.8,109 L461.8,107 C462.04,107.02 462.32,107.02 462.56,107.02 C463.26,107.02 463.82,106.76 463.82,105.68 L463.82,95 L466.02,95 L466.02,105.52 C466.02,108.32 464.52,109.04 462.86,109.04 C462.46,109.04 462.16,109.04 461.8,109 Z M470.72,97 L470.72,100.9 L473.74,100.9 L473.74,102.9 L470.72,102.9 L470.72,107 L474.52,107 L474.52,109 L468.52,109 L468.52,95 L474.52,95 L474.52,97 L470.72,97 Z M481.18,103.78 L483.26,103.78 L483.26,105.64 C483.26,107.88 482.14,109.16 479.98,109.16 C477.82,109.16 476.7,107.88 476.7,105.64 L476.7,98.36 C476.7,96.12 477.82,94.84 479.98,94.84 C482.14,94.84 483.26,96.12 483.26,98.36 L483.26,99.72 L481.18,99.72 L481.18,98.22 C481.18,97.22 480.74,96.84 480.04,96.84 C479.34,96.84 478.9,97.22 478.9,98.22 L478.9,105.78 C478.9,106.78 479.34,107.14 480.04,107.14 C480.74,107.14 481.18,106.78 481.18,105.78 L481.18,103.78 Z M484.96,97 L484.96,95 L491.76,95 L491.76,97 L489.46,97 L489.46,109 L487.26,109 L487.26,97 L484.96,97 Z M495.92,97 L495.92,100.9 L498.94,100.9 L498.94,102.9 L495.92,102.9 L495.92,107 L499.72,107 L499.72,109 L493.72,109 L493.72,95 L499.72,95 L499.72,97 L495.92,97 Z M502.08,109 L502.08,95 L505.56,95 C507.76,95 508.84,96.22 508.84,98.46 L508.84,105.54 C508.84,107.78 507.76,109 505.56,109 L502.08,109 Z M505.52,97 L504.28,97 L504.28,107 L505.52,107 C506.22,107 506.64,106.64 506.64,105.64 L506.64,98.36 C506.64,97.36 506.22,97 505.52,97 Z M520.04,109 L517.3,98.86 L517.3,109 L515.32,109 L515.32,95 L518.08,95 L520.34,103.38 L520.34,95 L522.3,95 L522.3,109 L520.04,109 Z M527.08,97 L527.08,100.9 L530.1,100.9 L530.1,102.9 L527.08,102.9 L527.08,107 L530.88,107 L530.88,109 L524.88,109 L524.88,95 L530.88,95 L530.88,97 L527.08,97 Z M532.6,97 L532.6,95 L539.4,95 L539.4,97 L537.1,97 L537.1,109 L534.9,109 L534.9,97 L532.6,97 Z M545.46,109 L545.46,95 L547.66,95 L547.66,109 L545.46,109 Z M554.96,109 L552.22,98.86 L552.22,109 L550.24,109 L550.24,95 L553,95 L555.26,103.38 L555.26,95 L557.22,95 L557.22,109 L554.96,109 Z M564.1,103.78 L566.18,103.78 L566.18,105.64 C566.18,107.88 565.06,109.16 562.9,109.16 C560.74,109.16 559.62,107.88 559.62,105.64 L559.62,98.36 C559.62,96.12 560.74,94.84 562.9,94.84 C565.06,94.84 566.18,96.12 566.18,98.36 L566.18,99.72 L564.1,99.72 L564.1,98.22 C564.1,97.22 563.66,96.84 562.96,96.84 C562.26,96.84 561.82,97.22 561.82,98.22 L561.82,105.78 C561.82,106.78 562.26,107.14 562.96,107.14 C563.66,107.14 564.1,106.78 564.1,105.78 L564.1,103.78 Z M570.54,98.22 L570.54,105.78 C570.54,106.78 570.98,107.16 571.68,107.16 C572.38,107.16 572.82,106.78 572.82,105.78 L572.82,98.22 C572.82,97.22 572.38,96.84 571.68,96.84 C570.98,96.84 570.54,97.22 570.54,98.22 Z M568.34,105.64 L568.34,98.36 C568.34,96.12 569.52,94.84 571.68,94.84 C573.84,94.84 575.02,96.12 575.02,98.36 L575.02,105.64 C575.02,107.88 573.84,109.16 571.68,109.16 C569.52,109.16 568.34,107.88 568.34,105.64 Z M580.48,95 L582.1,104.94 L583.6,95 L586.66,95 L586.66,109 L584.58,109 L584.58,98.96 L583.06,109 L580.98,109 L579.34,99.1 L579.34,109 L577.42,109 L577.42,95 L580.48,95 Z M591.46,97 L591.46,100.9 L594.48,100.9 L594.48,102.9 L591.46,102.9 L591.46,107 L595.26,107 L595.26,109 L589.26,109 L589.26,95 L595.26,95 L595.26,97 L591.46,97 Z M604.94,95 L605.62,95 L605.62,96.8 L605.08,96.8 C604.38,96.8 604.06,97.06 604.06,98.06 L604.06,105.94 C604.06,106.94 604.38,107.2 605.08,107.2 L605.62,107.2 L605.62,109 L604.94,109 C602.74,109 601.86,108.18 601.86,105.94 L601.86,98.06 C601.86,95.82 602.74,95 604.94,95 Z M612.62,95 L614.86,109 L612.64,109 L612.26,106.46 L609.56,106.46 L609.18,109 L607.16,109 L609.4,95 L612.62,95 Z M610.9,97.48 L609.84,104.56 L611.96,104.56 L610.9,97.48 Z M619.08,97 L619.08,101.22 L621.92,101.22 L621.92,103.22 L619.08,103.22 L619.08,109 L616.88,109 L616.88,95 L622.7,95 L622.7,97 L619.08,97 Z M624.12,97 L624.12,95 L630.92,95 L630.92,97 L628.62,97 L628.62,109 L626.42,109 L626.42,97 L624.12,97 Z M635.08,97 L635.08,100.9 L638.1,100.9 L638.1,102.9 L635.08,102.9 L635.08,107 L638.88,107 L638.88,109 L632.88,109 L632.88,95 L638.88,95 L638.88,97 L635.08,97 Z M648.08,109 L645.84,109 C645.72,108.64 645.64,108.42 645.64,107.28 L645.64,105.08 C645.64,103.78 645.2,103.3 644.2,103.3 L643.44,103.3 L643.44,109 L641.24,109 L641.24,95 L644.56,95 C646.84,95 647.82,96.06 647.82,98.22 L647.82,99.32 C647.82,100.76 647.36,101.7 646.38,102.16 C647.48,102.62 647.84,103.68 647.84,105.14 L647.84,107.3 C647.84,107.98 647.86,108.48 648.08,109 Z M644.5,97 L643.44,97 L643.44,101.3 L644.3,101.3 C645.12,101.3 645.62,100.94 645.62,99.82 L645.62,98.44 C645.62,97.44 645.28,97 644.5,97 Z M653.74,97 L653.74,95 L660.54,95 L660.54,97 L658.24,97 L658.24,109 L656.04,109 L656.04,97 L653.74,97 Z M666.62,95 L668.86,109 L666.64,109 L666.26,106.46 L663.56,106.46 L663.18,109 L661.16,109 L663.4,95 L666.62,95 Z M664.9,97.48 L663.84,104.56 L665.96,104.56 L664.9,97.48 Z M676.18,95 L678.22,95 L675.92,101.8 L678.38,109 L676.06,109 L674.26,103.46 L672.44,109 L670.38,109 L672.84,101.8 L670.54,95 L672.82,95 L674.48,100.16 L676.18,95 Z M682.68,97 L682.68,100.9 L685.7,100.9 L685.7,102.9 L682.68,102.9 L682.68,107 L686.48,107 L686.48,109 L680.48,109 L680.48,95 L686.48,95 L686.48,97 L682.68,97 Z M688.56,98.36 C688.56,96.12 689.66,94.84 691.8,94.84 C693.94,94.84 695.04,96.12 695.04,98.36 L695.04,98.8 L692.96,98.8 L692.96,98.22 C692.96,97.22 692.56,96.84 691.86,96.84 C691.16,96.84 690.76,97.22 690.76,98.22 C690.76,101.1 695.06,101.64 695.06,105.64 C695.06,107.88 693.94,109.16 691.78,109.16 C689.62,109.16 688.5,107.88 688.5,105.64 L688.5,104.78 L690.58,104.78 L690.58,105.78 C690.58,106.78 691.02,107.14 691.72,107.14 C692.42,107.14 692.86,106.78 692.86,105.78 C692.86,102.9 688.56,102.36 688.56,98.36 Z M696.84,95 L697.52,95 C699.72,95 700.6,95.82 700.6,98.06 L700.6,105.94 C700.6,108.18 699.72,109 697.52,109 L696.84,109 L696.84,107.2 L697.38,107.2 C698.08,107.2 698.4,106.94 698.4,105.94 L698.4,98.06 C698.4,97.06 698.08,96.8 697.38,96.8 L696.84,96.8 L696.84,95 Z M438,121 L438,125.22 L440.84,125.22 L440.84,127.22 L438,127.22 L438,133 L435.8,133 L435.8,119 L441.62,119 L441.62,121 L438,121 Z M445.7,122.22 L445.7,129.78 C445.7,130.78 446.14,131.16 446.84,131.16 C447.54,131.16 447.98,130.78 447.98,129.78 L447.98,122.22 C447.98,121.22 447.54,120.84 446.84,120.84 C446.14,120.84 445.7,121.22 445.7,122.22 Z M443.5,129.64 L443.5,122.36 C443.5,120.12 444.68,118.84 446.84,118.84 C449,118.84 450.18,120.12 450.18,122.36 L450.18,129.64 C450.18,131.88 449,133.16 446.84,133.16 C444.68,133.16 443.5,131.88 443.5,129.64 Z M459.44,133 L457.2,133 C457.08,132.64 457,132.42 457,131.28 L457,129.08 C457,127.78 456.56,127.3 455.56,127.3 L454.8,127.3 L454.8,133 L452.6,133 L452.6,119 L455.92,119 C458.2,119 459.18,120.06 459.18,122.22 L459.18,123.32 C459.18,124.76 458.72,125.7 457.74,126.16 C458.84,126.62 459.2,127.68 459.2,129.14 L459.2,131.3 C459.2,131.98 459.22,132.48 459.44,133 Z M455.86,121 L454.8,121 L454.8,125.3 L455.66,125.3 C456.48,125.3 456.98,124.94 456.98,123.82 L456.98,122.44 C456.98,121.44 456.64,121 455.86,121 Z M470.1,122.44 C470.1,121.18 469.66,120.84 468.96,120.84 C468.26,120.84 467.82,121.22 467.82,122.22 L467.82,123.72 L465.74,123.72 L465.74,122.36 C465.74,120.12 466.86,118.84 469.02,118.84 C471.18,118.84 472.3,120.12 472.3,122.36 C472.3,126.76 467.92,128.4 467.92,130.7 C467.92,130.8 467.92,130.9 467.94,131 L472.1,131 L472.1,133 L465.74,133 L465.74,131.28 C465.74,127.16 470.1,126.48 470.1,122.44 Z M476.68,122.22 L476.68,129.78 C476.68,130.78 477.12,131.16 477.82,131.16 C478.52,131.16 478.96,130.78 478.96,129.78 L478.96,122.22 C478.96,121.22 478.52,120.84 477.82,120.84 C477.12,120.84 476.68,121.22 476.68,122.22 Z M474.48,129.64 L474.48,122.36 C474.48,120.12 475.66,118.84 477.82,118.84 C479.98,118.84 481.16,120.12 481.16,122.36 L481.16,129.64 C481.16,131.88 479.98,133.16 477.82,133.16 C475.66,133.16 474.48,131.88 474.48,129.64 Z M484.94,122.32 L484.94,120.76 C486.64,120.76 487.02,119.94 487.36,119 L488.84,119 L488.84,133 L486.64,133 L486.64,122.32 L484.94,122.32 Z M499.1,129.64 C499.1,131.88 497.88,133.16 495.66,133.16 C493.44,133.16 492.22,131.88 492.22,129.64 L492.22,128.54 C492.22,127.2 492.62,126.16 493.58,125.62 C492.66,125.12 492.22,124.18 492.22,122.8 L492.22,122.36 C492.22,120.12 493.44,118.84 495.66,118.84 C497.88,118.84 499.1,120.12 499.1,122.36 L499.1,122.8 C499.1,124.18 498.64,125.12 497.74,125.62 C498.7,126.16 499.1,127.2 499.1,128.54 L499.1,129.64 Z M494.42,129.58 C494.42,130.82 494.96,131.16 495.66,131.16 C496.36,131.16 496.88,130.82 496.9,129.58 L496.9,128.28 C496.9,127.18 496.44,126.7 495.66,126.7 C494.88,126.7 494.42,127.18 494.42,128.28 L494.42,129.58 Z M494.42,122.44 L494.42,123.22 C494.42,124.34 494.94,124.7 495.66,124.7 C496.36,124.7 496.9,124.34 496.9,123.22 L496.9,122.44 C496.9,121.18 496.36,120.84 495.66,120.84 C494.96,120.84 494.42,121.18 494.42,122.44 Z" id="Projected-Net-Income" fill="#333333"></path>
                <path d="M447.88,60.08 L447.88,49.12 L437.16,49.12 L437.16,42.88 L447.88,42.88 L447.88,32.08 L454.12,32.08 L454.12,42.88 L464.84,42.88 L464.84,49.12 L454.12,49.12 L454.12,60.08 L447.88,60.08 Z M479.4,78.4 L479.4,72.8 C473.08,71.52 469.88,66.64 469.88,59.6 L469.88,55.92 L478.2,55.92 L478.2,60.16 C478.2,63.6 479.96,65.04 482.76,65.04 C485.56,65.04 487.32,63.6 487.32,60 C487.32,56 485.72,53.12 479.8,48.48 C472.6,42.8 470.12,38.32 470.12,32.24 C470.12,25.44 473.24,20.64 479.4,19.28 L479.4,14.4 L486.6,14.4 L486.6,19.28 C492.84,20.56 496.04,25.36 496.04,32.4 L496.04,34 L487.72,34 L487.72,31.84 C487.72,28.4 486.12,26.88 483.32,26.88 C480.52,26.88 478.92,28.4 478.92,31.68 C478.92,35.36 480.52,38.16 486.44,42.88 C493.64,48.64 496.12,53.04 496.12,59.44 C496.12,66.64 492.84,71.52 486.6,72.8 L486.6,78.4 L479.4,78.4 Z M514.6,74 L514.6,31.28 L505.4,31.28 L505.4,25.04 C512.84,25.04 515.48,23.44 517.48,18 L523.4,18 L523.4,74 L514.6,74 Z M547,74.8 C538.36,74.8 533.64,69.68 533.64,60.72 L533.64,31.28 C533.64,22.32 538.36,17.2 547,17.2 C555.64,17.2 560.36,22.32 560.36,31.28 L560.36,60.72 C560.36,69.68 555.64,74.8 547,74.8 Z M547,66.8 C549.8,66.8 551.56,65.28 551.56,61.28 L551.56,30.72 C551.56,26.72 549.8,25.2 547,25.2 C544.2,25.2 542.44,26.72 542.44,30.72 L542.44,61.28 C542.44,65.28 544.2,66.8 547,66.8 Z M577.85,74 L577.85,39 L585.7,39 L589.2,64.05 L589.3,64.05 L592.8,39 L600.65,39 L600.65,74 L595.45,74 L595.45,47.5 L595.35,47.5 L591.35,74 L586.75,74 L582.75,47.5 L582.65,47.5 L582.65,74 L577.85,74 Z M604.75,74 L604.75,39 L610.25,39 L610.25,74 L604.75,74 Z M614.35,74 L614.35,39 L619.85,39 L619.85,69 L628.9,69 L628.9,74 L614.35,74 Z M631.55,74 L631.55,39 L637.05,39 L637.05,69 L646.1,69 L646.1,74 L631.55,74 Z M648.75,74 L648.75,39 L654.25,39 L654.25,74 L648.75,74 Z M666.3,74.5 C660.9,74.5 657.95,71.3 657.95,65.7 L657.95,47.3 C657.95,41.7 660.9,38.5 666.3,38.5 C671.7,38.5 674.65,41.7 674.65,47.3 L674.65,65.7 C674.65,71.3 671.7,74.5 666.3,74.5 Z M666.3,69.5 C668.05,69.5 669.15,68.55 669.15,66.05 L669.15,46.95 C669.15,44.45 668.05,43.5 666.3,43.5 C664.55,43.5 663.45,44.45 663.45,46.95 L663.45,66.05 C663.45,68.55 664.55,69.5 666.3,69.5 Z M678.35,74 L678.35,39 L685.25,39 L690.6,59.95 L690.7,59.95 L690.7,39 L695.6,39 L695.6,74 L689.95,74 L683.35,48.45 L683.25,48.45 L683.25,74 L678.35,74 Z" id="+$10-MILLION" fill="#363636"></path>
            </g>
        </g>
    </g>
</svg>