<?xml version="1.0" encoding="UTF-8"?>
<svg width="780px" height="203px" viewBox="0 0 780 203" version="1.1" xmlns="http://www.w3.org/2000/svg" xmlns:xlink="http://www.w3.org/1999/xlink">
    <!-- Generator: Sketch 49.3 (51167) - http://www.bohemiancoding.com/sketch -->
    <title>Image / DollarValue</title>
    <desc>Created with Sketch.</desc>
    <defs></defs>
    <g id="Portfolio" stroke="none" stroke-width="1" fill="none" fill-rule="evenodd">
        <g id="AO_PavingPaths" transform="translate(-330.000000, -11374.000000)">
            <g id="Image-/-DollarValue" transform="translate(330.000000, 11374.000000)">
                <polygon id="Rectangle-18" fill="#ECFEEF" points="0 189.78125 80.9335938 166.808594 168.917969 153.691406 229.398438 128.496094 271.863281 135.761719 338.546875 111.394531 390 123.414062 468.320312 81.3945312 582.660156 81.3945312 780 0 780 202.996094 0 202.996094"></polygon>
                <rect id="Rectangle-19" fill="#363636" x="357" y="80" width="2" height="74"></rect>
                <path d="M85.8,146 L85.8,132 L88,132 L88,146 L85.8,146 Z M95.3,146 L92.56,135.86 L92.56,146 L90.58,146 L90.58,132 L93.34,132 L95.6,140.38 L95.6,132 L97.56,132 L97.56,146 L95.3,146 Z M104.44,140.78 L106.52,140.78 L106.52,142.64 C106.52,144.88 105.4,146.16 103.24,146.16 C101.08,146.16 99.96,144.88 99.96,142.64 L99.96,135.36 C99.96,133.12 101.08,131.84 103.24,131.84 C105.4,131.84 106.52,133.12 106.52,135.36 L106.52,136.72 L104.44,136.72 L104.44,135.22 C104.44,134.22 104,133.84 103.3,133.84 C102.6,133.84 102.16,134.22 102.16,135.22 L102.16,142.78 C102.16,143.78 102.6,144.14 103.3,144.14 C104,144.14 104.44,143.78 104.44,142.78 L104.44,140.78 Z M115.7,146 L113.46,146 C113.34,145.64 113.26,145.42 113.26,144.28 L113.26,142.08 C113.26,140.78 112.82,140.3 111.82,140.3 L111.06,140.3 L111.06,146 L108.86,146 L108.86,132 L112.18,132 C114.46,132 115.44,133.06 115.44,135.22 L115.44,136.32 C115.44,137.76 114.98,138.7 114,139.16 C115.1,139.62 115.46,140.68 115.46,142.14 L115.46,144.3 C115.46,144.98 115.48,145.48 115.7,146 Z M112.12,134 L111.06,134 L111.06,138.3 L111.92,138.3 C112.74,138.3 113.24,137.94 113.24,136.82 L113.24,135.44 C113.24,134.44 112.9,134 112.12,134 Z M120.1,134 L120.1,137.9 L123.12,137.9 L123.12,139.9 L120.1,139.9 L120.1,144 L123.9,144 L123.9,146 L117.9,146 L117.9,132 L123.9,132 L123.9,134 L120.1,134 Z M131.14,132 L133.38,146 L131.16,146 L130.78,143.46 L128.08,143.46 L127.7,146 L125.68,146 L127.92,132 L131.14,132 Z M129.42,134.48 L128.36,141.56 L130.48,141.56 L129.42,134.48 Z M135.12,135.36 C135.12,133.12 136.22,131.84 138.36,131.84 C140.5,131.84 141.6,133.12 141.6,135.36 L141.6,135.8 L139.52,135.8 L139.52,135.22 C139.52,134.22 139.12,133.84 138.42,133.84 C137.72,133.84 137.32,134.22 137.32,135.22 C137.32,138.1 141.62,138.64 141.62,142.64 C141.62,144.88 140.5,146.16 138.34,146.16 C136.18,146.16 135.06,144.88 135.06,142.64 L135.06,141.78 L137.14,141.78 L137.14,142.78 C137.14,143.78 137.58,144.14 138.28,144.14 C138.98,144.14 139.42,143.78 139.42,142.78 C139.42,139.9 135.12,139.36 135.12,135.36 Z M146.08,134 L146.08,137.9 L149.1,137.9 L149.1,139.9 L146.08,139.9 L146.08,144 L149.88,144 L149.88,146 L143.88,146 L143.88,132 L149.88,132 L149.88,134 L146.08,134 Z M156.34,146 L156.34,132 L158.54,132 L158.54,146 L156.34,146 Z M165.84,146 L163.1,135.86 L163.1,146 L161.12,146 L161.12,132 L163.88,132 L166.14,140.38 L166.14,132 L168.1,132 L168.1,146 L165.84,146 Z M179.08,140.78 L181.16,140.78 L181.16,142.64 C181.16,144.88 180.04,146.16 177.88,146.16 C175.72,146.16 174.6,144.88 174.6,142.64 L174.6,135.36 C174.6,133.12 175.72,131.84 177.88,131.84 C180.04,131.84 181.16,133.12 181.16,135.36 L181.16,136.72 L179.08,136.72 L179.08,135.22 C179.08,134.22 178.64,133.84 177.94,133.84 C177.24,133.84 176.8,134.22 176.8,135.22 L176.8,142.78 C176.8,143.78 177.24,144.14 177.94,144.14 C178.64,144.14 179.08,143.78 179.08,142.78 L179.08,140.78 Z M185.52,135.22 L185.52,142.78 C185.52,143.78 185.96,144.16 186.66,144.16 C187.36,144.16 187.8,143.78 187.8,142.78 L187.8,135.22 C187.8,134.22 187.36,133.84 186.66,133.84 C185.96,133.84 185.52,134.22 185.52,135.22 Z M183.32,142.64 L183.32,135.36 C183.32,133.12 184.5,131.84 186.66,131.84 C188.82,131.84 190,133.12 190,135.36 L190,142.64 C190,144.88 188.82,146.16 186.66,146.16 C184.5,146.16 183.32,144.88 183.32,142.64 Z M197.12,146 L194.38,135.86 L194.38,146 L192.4,146 L192.4,132 L195.16,132 L197.42,140.38 L197.42,132 L199.38,132 L199.38,146 L197.12,146 Z M203.6,132 L205.28,143.42 L206.96,132 L208.98,132 L206.82,146 L203.54,146 L201.38,132 L203.6,132 Z M213.2,134 L213.2,137.9 L216.22,137.9 L216.22,139.9 L213.2,139.9 L213.2,144 L217,144 L217,146 L211,146 L211,132 L217,132 L217,134 L213.2,134 Z M226.2,146 L223.96,146 C223.84,145.64 223.76,145.42 223.76,144.28 L223.76,142.08 C223.76,140.78 223.32,140.3 222.32,140.3 L221.56,140.3 L221.56,146 L219.36,146 L219.36,132 L222.68,132 C224.96,132 225.94,133.06 225.94,135.22 L225.94,136.32 C225.94,137.76 225.48,138.7 224.5,139.16 C225.6,139.62 225.96,140.68 225.96,142.14 L225.96,144.3 C225.96,144.98 225.98,145.48 226.2,146 Z M222.62,134 L221.56,134 L221.56,138.3 L222.42,138.3 C223.24,138.3 223.74,137.94 223.74,136.82 L223.74,135.44 C223.74,134.44 223.4,134 222.62,134 Z M228.12,135.36 C228.12,133.12 229.22,131.84 231.36,131.84 C233.5,131.84 234.6,133.12 234.6,135.36 L234.6,135.8 L232.52,135.8 L232.52,135.22 C232.52,134.22 232.12,133.84 231.42,133.84 C230.72,133.84 230.32,134.22 230.32,135.22 C230.32,138.1 234.62,138.64 234.62,142.64 C234.62,144.88 233.5,146.16 231.34,146.16 C229.18,146.16 228.06,144.88 228.06,142.64 L228.06,141.78 L230.14,141.78 L230.14,142.78 C230.14,143.78 230.58,144.14 231.28,144.14 C231.98,144.14 232.42,143.78 232.42,142.78 C232.42,139.9 228.12,139.36 228.12,135.36 Z M236.88,146 L236.88,132 L239.08,132 L239.08,146 L236.88,146 Z M243.7,135.22 L243.7,142.78 C243.7,143.78 244.14,144.16 244.84,144.16 C245.54,144.16 245.98,143.78 245.98,142.78 L245.98,135.22 C245.98,134.22 245.54,133.84 244.84,133.84 C244.14,133.84 243.7,134.22 243.7,135.22 Z M241.5,142.64 L241.5,135.36 C241.5,133.12 242.68,131.84 244.84,131.84 C247,131.84 248.18,133.12 248.18,135.36 L248.18,142.64 C248.18,144.88 247,146.16 244.84,146.16 C242.68,146.16 241.5,144.88 241.5,142.64 Z M255.3,146 L252.56,135.86 L252.56,146 L250.58,146 L250.58,132 L253.34,132 L255.6,140.38 L255.6,132 L257.56,132 L257.56,146 L255.3,146 Z M259.86,135.36 C259.86,133.12 260.96,131.84 263.1,131.84 C265.24,131.84 266.34,133.12 266.34,135.36 L266.34,135.8 L264.26,135.8 L264.26,135.22 C264.26,134.22 263.86,133.84 263.16,133.84 C262.46,133.84 262.06,134.22 262.06,135.22 C262.06,138.1 266.36,138.64 266.36,142.64 C266.36,144.88 265.24,146.16 263.08,146.16 C260.92,146.16 259.8,144.88 259.8,142.64 L259.8,141.78 L261.88,141.78 L261.88,142.78 C261.88,143.78 262.32,144.14 263.02,144.14 C263.72,144.14 264.16,143.78 264.16,142.78 C264.16,139.9 259.86,139.36 259.86,135.36 Z M87.82,159.22 L87.82,166.78 C87.82,167.78 88.26,168.16 88.96,168.16 C89.66,168.16 90.1,167.78 90.1,166.78 L90.1,159.22 C90.1,158.22 89.66,157.84 88.96,157.84 C88.26,157.84 87.82,158.22 87.82,159.22 Z M85.62,166.64 L85.62,159.36 C85.62,157.12 86.8,155.84 88.96,155.84 C91.12,155.84 92.3,157.12 92.3,159.36 L92.3,166.64 C92.3,168.88 91.12,170.16 88.96,170.16 C86.8,170.16 85.62,168.88 85.62,166.64 Z M96.34,156 L98.02,167.42 L99.7,156 L101.72,156 L99.56,170 L96.28,170 L94.12,156 L96.34,156 Z M105.94,158 L105.94,161.9 L108.96,161.9 L108.96,163.9 L105.94,163.9 L105.94,168 L109.74,168 L109.74,170 L103.74,170 L103.74,156 L109.74,156 L109.74,158 L105.94,158 Z M118.94,170 L116.7,170 C116.58,169.64 116.5,169.42 116.5,168.28 L116.5,166.08 C116.5,164.78 116.06,164.3 115.06,164.3 L114.3,164.3 L114.3,170 L112.1,170 L112.1,156 L115.42,156 C117.7,156 118.68,157.06 118.68,159.22 L118.68,160.32 C118.68,161.76 118.22,162.7 117.24,163.16 C118.34,163.62 118.7,164.68 118.7,166.14 L118.7,168.3 C118.7,168.98 118.72,169.48 118.94,170 Z M115.36,158 L114.3,158 L114.3,162.3 L115.16,162.3 C115.98,162.3 116.48,161.94 116.48,160.82 L116.48,159.44 C116.48,158.44 116.14,158 115.36,158 Z M124.6,158 L124.6,156 L131.4,156 L131.4,158 L129.1,158 L129.1,170 L126.9,170 L126.9,158 L124.6,158 Z M135.56,164 L135.56,170 L133.36,170 L133.36,156 L135.56,156 L135.56,162 L138.06,162 L138.06,156 L140.3,156 L140.3,170 L138.06,170 L138.06,164 L135.56,164 Z M145.1,158 L145.1,161.9 L148.12,161.9 L148.12,163.9 L145.1,163.9 L145.1,168 L148.9,168 L148.9,170 L142.9,170 L142.9,156 L148.9,156 L148.9,158 L145.1,158 Z M158.68,156 C160.96,156 161.94,157.06 161.94,159.22 L161.94,159.72 C161.94,161.16 161.5,162.08 160.52,162.54 C161.7,163 162.16,164.06 162.16,165.54 L162.16,166.68 C162.16,168.84 161.02,170 158.82,170 L155.36,170 L155.36,156 L158.68,156 Z M158.54,163.7 L157.56,163.7 L157.56,168 L158.82,168 C159.56,168 159.96,167.66 159.96,166.62 L159.96,165.4 C159.96,164.1 159.54,163.7 158.54,163.7 Z M158.62,158 L157.56,158 L157.56,161.7 L158.42,161.7 C159.24,161.7 159.74,161.34 159.74,160.22 L159.74,159.44 C159.74,158.44 159.4,158 158.62,158 Z M169.36,156 L171.6,170 L169.38,170 L169,167.46 L166.3,167.46 L165.92,170 L163.9,170 L166.14,156 L169.36,156 Z M167.64,158.48 L166.58,165.56 L168.7,165.56 L167.64,158.48 Z M173.34,159.36 C173.34,157.12 174.44,155.84 176.58,155.84 C178.72,155.84 179.82,157.12 179.82,159.36 L179.82,159.8 L177.74,159.8 L177.74,159.22 C177.74,158.22 177.34,157.84 176.64,157.84 C175.94,157.84 175.54,158.22 175.54,159.22 C175.54,162.1 179.84,162.64 179.84,166.64 C179.84,168.88 178.72,170.16 176.56,170.16 C174.4,170.16 173.28,168.88 173.28,166.64 L173.28,165.78 L175.36,165.78 L175.36,166.78 C175.36,167.78 175.8,168.14 176.5,168.14 C177.2,168.14 177.64,167.78 177.64,166.78 C177.64,163.9 173.34,163.36 173.34,159.36 Z M184.3,158 L184.3,161.9 L187.32,161.9 L187.32,163.9 L184.3,163.9 L184.3,168 L188.1,168 L188.1,170 L182.1,170 L182.1,156 L188.1,156 L188.1,158 L184.3,158 Z M190.46,170 L190.46,156 L192.66,156 L192.66,168 L196.28,168 L196.28,170 L190.46,170 Z M198.24,170 L198.24,156 L200.44,156 L200.44,170 L198.24,170 Z M207.74,170 L205,159.86 L205,170 L203.02,170 L203.02,156 L205.78,156 L208.04,164.38 L208.04,156 L210,156 L210,170 L207.74,170 Z M214.78,158 L214.78,161.9 L217.8,161.9 L217.8,163.9 L214.78,163.9 L214.78,168 L218.58,168 L218.58,170 L212.58,170 L212.58,156 L218.58,156 L218.58,158 L214.78,158 Z" id="Increase-in-Conversi" fill="#333333"></path>
                <path d="M90.52,88.84 L85.96,85.4 C89,80.2 91.48,77.4 95.64,77.4 C97.4,77.4 98.68,77.88 101.56,79.72 C103.8,81.16 104.92,81.96 106.28,81.96 C108.28,81.96 109.32,80.36 111.48,77.16 L116.04,80.6 C113,85.8 110.52,88.6 106.36,88.6 C104.6,88.6 103.32,88.12 100.44,86.28 C98.2,84.84 97.08,84.04 95.72,84.04 C93.72,84.04 92.68,85.64 90.52,88.84 Z M120.12,111 L120.12,104.92 C120.12,96.92 122.36,92.04 128.92,85.16 C135.64,78.04 137.56,73.8 137.56,68.6 C137.56,63.56 135.8,62.2 133,62.2 C130.2,62.2 128.44,63.72 128.44,67.72 L128.44,73.72 L120.12,73.72 L120.12,68.28 C120.12,59.32 124.6,54.2 133.24,54.2 C141.88,54.2 146.36,59.32 146.36,68.28 C146.36,74.92 143.64,80.84 135.48,89.48 C130.2,95.08 128.84,97.88 128.84,101.8 L128.84,103 L145.56,103 L145.56,111 L120.12,111 Z M167,111 L167,100.84 L150.2,100.84 L150.2,92.84 L166.2,55 L175.8,55 L175.8,92.84 L179.96,92.84 L179.96,100.84 L175.8,100.84 L175.8,111 L167,111 Z M158.2,92.84 L167,92.84 L167,71 L166.84,71 L158.2,92.84 Z M192.28,86.12 C186.76,86.12 183.8,82.92 183.8,77.16 L183.8,63.16 C183.8,57.4 186.76,54.2 192.28,54.2 C197.8,54.2 200.76,57.4 200.76,63.16 L200.76,77.16 C200.76,82.92 197.8,86.12 192.28,86.12 Z M190.92,111 L212.6,55 L218.2,55 L196.52,111 L190.92,111 Z M192.28,81.08 C194.04,81.08 195.16,80.04 195.16,77.56 L195.16,62.76 C195.16,60.28 194.04,59.24 192.28,59.24 C190.44,59.24 189.4,60.28 189.4,62.76 L189.4,77.56 C189.4,80.04 190.44,81.08 192.28,81.08 Z M216.84,111.8 C211.32,111.8 208.36,108.6 208.36,102.84 L208.36,88.84 C208.36,83.08 211.32,79.88 216.84,79.88 C222.36,79.88 225.32,83.08 225.32,88.84 L225.32,102.84 C225.32,108.6 222.36,111.8 216.84,111.8 Z M216.84,106.76 C218.6,106.76 219.72,105.72 219.72,103.24 L219.72,88.44 C219.72,85.96 218.6,84.92 216.84,84.92 C215,84.92 213.96,85.96 213.96,88.44 L213.96,103.24 C213.96,105.72 215,106.76 216.84,106.76 Z" id="~24%" fill="#363636"></path>
                <path d="M439.04,132 C441.24,132 442.32,133.22 442.32,135.46 L442.32,137.28 C442.32,139.52 441.24,140.74 439.04,140.74 L438,140.74 L438,146 L435.8,146 L435.8,132 L439.04,132 Z M439.04,134 L438,134 L438,138.74 L439.04,138.74 C439.74,138.74 440.12,138.42 440.12,137.42 L440.12,135.32 C440.12,134.32 439.74,134 439.04,134 Z M451.28,146 L449.04,146 C448.92,145.64 448.84,145.42 448.84,144.28 L448.84,142.08 C448.84,140.78 448.4,140.3 447.4,140.3 L446.64,140.3 L446.64,146 L444.44,146 L444.44,132 L447.76,132 C450.04,132 451.02,133.06 451.02,135.22 L451.02,136.32 C451.02,137.76 450.56,138.7 449.58,139.16 C450.68,139.62 451.04,140.68 451.04,142.14 L451.04,144.3 C451.04,144.98 451.06,145.48 451.28,146 Z M447.7,134 L446.64,134 L446.64,138.3 L447.5,138.3 C448.32,138.3 448.82,137.94 448.82,136.82 L448.82,135.44 C448.82,134.44 448.48,134 447.7,134 Z M455.5,135.22 L455.5,142.78 C455.5,143.78 455.94,144.16 456.64,144.16 C457.34,144.16 457.78,143.78 457.78,142.78 L457.78,135.22 C457.78,134.22 457.34,133.84 456.64,133.84 C455.94,133.84 455.5,134.22 455.5,135.22 Z M453.3,142.64 L453.3,135.36 C453.3,133.12 454.48,131.84 456.64,131.84 C458.8,131.84 459.98,133.12 459.98,135.36 L459.98,142.64 C459.98,144.88 458.8,146.16 456.64,146.16 C454.48,146.16 453.3,144.88 453.3,142.64 Z M461.8,146 L461.8,144 C462.04,144.02 462.32,144.02 462.56,144.02 C463.26,144.02 463.82,143.76 463.82,142.68 L463.82,132 L466.02,132 L466.02,142.52 C466.02,145.32 464.52,146.04 462.86,146.04 C462.46,146.04 462.16,146.04 461.8,146 Z M470.72,134 L470.72,137.9 L473.74,137.9 L473.74,139.9 L470.72,139.9 L470.72,144 L474.52,144 L474.52,146 L468.52,146 L468.52,132 L474.52,132 L474.52,134 L470.72,134 Z M481.18,140.78 L483.26,140.78 L483.26,142.64 C483.26,144.88 482.14,146.16 479.98,146.16 C477.82,146.16 476.7,144.88 476.7,142.64 L476.7,135.36 C476.7,133.12 477.82,131.84 479.98,131.84 C482.14,131.84 483.26,133.12 483.26,135.36 L483.26,136.72 L481.18,136.72 L481.18,135.22 C481.18,134.22 480.74,133.84 480.04,133.84 C479.34,133.84 478.9,134.22 478.9,135.22 L478.9,142.78 C478.9,143.78 479.34,144.14 480.04,144.14 C480.74,144.14 481.18,143.78 481.18,142.78 L481.18,140.78 Z M484.96,134 L484.96,132 L491.76,132 L491.76,134 L489.46,134 L489.46,146 L487.26,146 L487.26,134 L484.96,134 Z M495.92,134 L495.92,137.9 L498.94,137.9 L498.94,139.9 L495.92,139.9 L495.92,144 L499.72,144 L499.72,146 L493.72,146 L493.72,132 L499.72,132 L499.72,134 L495.92,134 Z M502.08,146 L502.08,132 L505.56,132 C507.76,132 508.84,133.22 508.84,135.46 L508.84,142.54 C508.84,144.78 507.76,146 505.56,146 L502.08,146 Z M505.52,134 L504.28,134 L504.28,144 L505.52,144 C506.22,144 506.64,143.64 506.64,142.64 L506.64,135.36 C506.64,134.36 506.22,134 505.52,134 Z M520.04,146 L517.3,135.86 L517.3,146 L515.32,146 L515.32,132 L518.08,132 L520.34,140.38 L520.34,132 L522.3,132 L522.3,146 L520.04,146 Z M527.08,134 L527.08,137.9 L530.1,137.9 L530.1,139.9 L527.08,139.9 L527.08,144 L530.88,144 L530.88,146 L524.88,146 L524.88,132 L530.88,132 L530.88,134 L527.08,134 Z M532.6,134 L532.6,132 L539.4,132 L539.4,134 L537.1,134 L537.1,146 L534.9,146 L534.9,134 L532.6,134 Z M545.46,146 L545.46,132 L547.66,132 L547.66,146 L545.46,146 Z M554.96,146 L552.22,135.86 L552.22,146 L550.24,146 L550.24,132 L553,132 L555.26,140.38 L555.26,132 L557.22,132 L557.22,146 L554.96,146 Z M564.1,140.78 L566.18,140.78 L566.18,142.64 C566.18,144.88 565.06,146.16 562.9,146.16 C560.74,146.16 559.62,144.88 559.62,142.64 L559.62,135.36 C559.62,133.12 560.74,131.84 562.9,131.84 C565.06,131.84 566.18,133.12 566.18,135.36 L566.18,136.72 L564.1,136.72 L564.1,135.22 C564.1,134.22 563.66,133.84 562.96,133.84 C562.26,133.84 561.82,134.22 561.82,135.22 L561.82,142.78 C561.82,143.78 562.26,144.14 562.96,144.14 C563.66,144.14 564.1,143.78 564.1,142.78 L564.1,140.78 Z M570.54,135.22 L570.54,142.78 C570.54,143.78 570.98,144.16 571.68,144.16 C572.38,144.16 572.82,143.78 572.82,142.78 L572.82,135.22 C572.82,134.22 572.38,133.84 571.68,133.84 C570.98,133.84 570.54,134.22 570.54,135.22 Z M568.34,142.64 L568.34,135.36 C568.34,133.12 569.52,131.84 571.68,131.84 C573.84,131.84 575.02,133.12 575.02,135.36 L575.02,142.64 C575.02,144.88 573.84,146.16 571.68,146.16 C569.52,146.16 568.34,144.88 568.34,142.64 Z M580.48,132 L582.1,141.94 L583.6,132 L586.66,132 L586.66,146 L584.58,146 L584.58,135.96 L583.06,146 L580.98,146 L579.34,136.1 L579.34,146 L577.42,146 L577.42,132 L580.48,132 Z M591.46,134 L591.46,137.9 L594.48,137.9 L594.48,139.9 L591.46,139.9 L591.46,144 L595.26,144 L595.26,146 L589.26,146 L589.26,132 L595.26,132 L595.26,134 L591.46,134 Z M604.94,132 L605.62,132 L605.62,133.8 L605.08,133.8 C604.38,133.8 604.06,134.06 604.06,135.06 L604.06,142.94 C604.06,143.94 604.38,144.2 605.08,144.2 L605.62,144.2 L605.62,146 L604.94,146 C602.74,146 601.86,145.18 601.86,142.94 L601.86,135.06 C601.86,132.82 602.74,132 604.94,132 Z M612.62,132 L614.86,146 L612.64,146 L612.26,143.46 L609.56,143.46 L609.18,146 L607.16,146 L609.4,132 L612.62,132 Z M610.9,134.48 L609.84,141.56 L611.96,141.56 L610.9,134.48 Z M619.08,134 L619.08,138.22 L621.92,138.22 L621.92,140.22 L619.08,140.22 L619.08,146 L616.88,146 L616.88,132 L622.7,132 L622.7,134 L619.08,134 Z M624.12,134 L624.12,132 L630.92,132 L630.92,134 L628.62,134 L628.62,146 L626.42,146 L626.42,134 L624.12,134 Z M635.08,134 L635.08,137.9 L638.1,137.9 L638.1,139.9 L635.08,139.9 L635.08,144 L638.88,144 L638.88,146 L632.88,146 L632.88,132 L638.88,132 L638.88,134 L635.08,134 Z M648.08,146 L645.84,146 C645.72,145.64 645.64,145.42 645.64,144.28 L645.64,142.08 C645.64,140.78 645.2,140.3 644.2,140.3 L643.44,140.3 L643.44,146 L641.24,146 L641.24,132 L644.56,132 C646.84,132 647.82,133.06 647.82,135.22 L647.82,136.32 C647.82,137.76 647.36,138.7 646.38,139.16 C647.48,139.62 647.84,140.68 647.84,142.14 L647.84,144.3 C647.84,144.98 647.86,145.48 648.08,146 Z M644.5,134 L643.44,134 L643.44,138.3 L644.3,138.3 C645.12,138.3 645.62,137.94 645.62,136.82 L645.62,135.44 C645.62,134.44 645.28,134 644.5,134 Z M653.74,134 L653.74,132 L660.54,132 L660.54,134 L658.24,134 L658.24,146 L656.04,146 L656.04,134 L653.74,134 Z M666.62,132 L668.86,146 L666.64,146 L666.26,143.46 L663.56,143.46 L663.18,146 L661.16,146 L663.4,132 L666.62,132 Z M664.9,134.48 L663.84,141.56 L665.96,141.56 L664.9,134.48 Z M676.18,132 L678.22,132 L675.92,138.8 L678.38,146 L676.06,146 L674.26,140.46 L672.44,146 L670.38,146 L672.84,138.8 L670.54,132 L672.82,132 L674.48,137.16 L676.18,132 Z M682.68,134 L682.68,137.9 L685.7,137.9 L685.7,139.9 L682.68,139.9 L682.68,144 L686.48,144 L686.48,146 L680.48,146 L680.48,132 L686.48,132 L686.48,134 L682.68,134 Z M688.56,135.36 C688.56,133.12 689.66,131.84 691.8,131.84 C693.94,131.84 695.04,133.12 695.04,135.36 L695.04,135.8 L692.96,135.8 L692.96,135.22 C692.96,134.22 692.56,133.84 691.86,133.84 C691.16,133.84 690.76,134.22 690.76,135.22 C690.76,138.1 695.06,138.64 695.06,142.64 C695.06,144.88 693.94,146.16 691.78,146.16 C689.62,146.16 688.5,144.88 688.5,142.64 L688.5,141.78 L690.58,141.78 L690.58,142.78 C690.58,143.78 691.02,144.14 691.72,144.14 C692.42,144.14 692.86,143.78 692.86,142.78 C692.86,139.9 688.56,139.36 688.56,135.36 Z M696.84,132 L697.52,132 C699.72,132 700.6,132.82 700.6,135.06 L700.6,142.94 C700.6,145.18 699.72,146 697.52,146 L696.84,146 L696.84,144.2 L697.38,144.2 C698.08,144.2 698.4,143.94 698.4,142.94 L698.4,135.06 C698.4,134.06 698.08,133.8 697.38,133.8 L696.84,133.8 L696.84,132 Z M438,158 L438,162.22 L440.84,162.22 L440.84,164.22 L438,164.22 L438,170 L435.8,170 L435.8,156 L441.62,156 L441.62,158 L438,158 Z M445.7,159.22 L445.7,166.78 C445.7,167.78 446.14,168.16 446.84,168.16 C447.54,168.16 447.98,167.78 447.98,166.78 L447.98,159.22 C447.98,158.22 447.54,157.84 446.84,157.84 C446.14,157.84 445.7,158.22 445.7,159.22 Z M443.5,166.64 L443.5,159.36 C443.5,157.12 444.68,155.84 446.84,155.84 C449,155.84 450.18,157.12 450.18,159.36 L450.18,166.64 C450.18,168.88 449,170.16 446.84,170.16 C444.68,170.16 443.5,168.88 443.5,166.64 Z M459.44,170 L457.2,170 C457.08,169.64 457,169.42 457,168.28 L457,166.08 C457,164.78 456.56,164.3 455.56,164.3 L454.8,164.3 L454.8,170 L452.6,170 L452.6,156 L455.92,156 C458.2,156 459.18,157.06 459.18,159.22 L459.18,160.32 C459.18,161.76 458.72,162.7 457.74,163.16 C458.84,163.62 459.2,164.68 459.2,166.14 L459.2,168.3 C459.2,168.98 459.22,169.48 459.44,170 Z M455.86,158 L454.8,158 L454.8,162.3 L455.66,162.3 C456.48,162.3 456.98,161.94 456.98,160.82 L456.98,159.44 C456.98,158.44 456.64,158 455.86,158 Z M470.1,159.44 C470.1,158.18 469.66,157.84 468.96,157.84 C468.26,157.84 467.82,158.22 467.82,159.22 L467.82,160.72 L465.74,160.72 L465.74,159.36 C465.74,157.12 466.86,155.84 469.02,155.84 C471.18,155.84 472.3,157.12 472.3,159.36 C472.3,163.76 467.92,165.4 467.92,167.7 C467.92,167.8 467.92,167.9 467.94,168 L472.1,168 L472.1,170 L465.74,170 L465.74,168.28 C465.74,164.16 470.1,163.48 470.1,159.44 Z M476.68,159.22 L476.68,166.78 C476.68,167.78 477.12,168.16 477.82,168.16 C478.52,168.16 478.96,167.78 478.96,166.78 L478.96,159.22 C478.96,158.22 478.52,157.84 477.82,157.84 C477.12,157.84 476.68,158.22 476.68,159.22 Z M474.48,166.64 L474.48,159.36 C474.48,157.12 475.66,155.84 477.82,155.84 C479.98,155.84 481.16,157.12 481.16,159.36 L481.16,166.64 C481.16,168.88 479.98,170.16 477.82,170.16 C475.66,170.16 474.48,168.88 474.48,166.64 Z M484.94,159.32 L484.94,157.76 C486.64,157.76 487.02,156.94 487.36,156 L488.84,156 L488.84,170 L486.64,170 L486.64,159.32 L484.94,159.32 Z M499.1,166.64 C499.1,168.88 497.88,170.16 495.66,170.16 C493.44,170.16 492.22,168.88 492.22,166.64 L492.22,165.54 C492.22,164.2 492.62,163.16 493.58,162.62 C492.66,162.12 492.22,161.18 492.22,159.8 L492.22,159.36 C492.22,157.12 493.44,155.84 495.66,155.84 C497.88,155.84 499.1,157.12 499.1,159.36 L499.1,159.8 C499.1,161.18 498.64,162.12 497.74,162.62 C498.7,163.16 499.1,164.2 499.1,165.54 L499.1,166.64 Z M494.42,166.58 C494.42,167.82 494.96,168.16 495.66,168.16 C496.36,168.16 496.88,167.82 496.9,166.58 L496.9,165.28 C496.9,164.18 496.44,163.7 495.66,163.7 C494.88,163.7 494.42,164.18 494.42,165.28 L494.42,166.58 Z M494.42,159.44 L494.42,160.22 C494.42,161.34 494.94,161.7 495.66,161.7 C496.36,161.7 496.9,161.34 496.9,160.22 L496.9,159.44 C496.9,158.18 496.36,157.84 495.66,157.84 C494.96,157.84 494.42,158.18 494.42,159.44 Z" id="Projected-Net-Income" fill="#333333"></path>
                <path d="M447.88,97.08 L447.88,86.12 L437.16,86.12 L437.16,79.88 L447.88,79.88 L447.88,69.08 L454.12,69.08 L454.12,79.88 L464.84,79.88 L464.84,86.12 L454.12,86.12 L454.12,97.08 L447.88,97.08 Z M479.4,115.4 L479.4,109.8 C473.08,108.52 469.88,103.64 469.88,96.6 L469.88,92.92 L478.2,92.92 L478.2,97.16 C478.2,100.6 479.96,102.04 482.76,102.04 C485.56,102.04 487.32,100.6 487.32,97 C487.32,93 485.72,90.12 479.8,85.48 C472.6,79.8 470.12,75.32 470.12,69.24 C470.12,62.44 473.24,57.64 479.4,56.28 L479.4,51.4 L486.6,51.4 L486.6,56.28 C492.84,57.56 496.04,62.36 496.04,69.4 L496.04,71 L487.72,71 L487.72,68.84 C487.72,65.4 486.12,63.88 483.32,63.88 C480.52,63.88 478.92,65.4 478.92,68.68 C478.92,72.36 480.52,75.16 486.44,79.88 C493.64,85.64 496.12,90.04 496.12,96.44 C496.12,103.64 492.84,108.52 486.6,109.8 L486.6,115.4 L479.4,115.4 Z M514.6,111 L514.6,68.28 L505.4,68.28 L505.4,62.04 C512.84,62.04 515.48,60.44 517.48,55 L523.4,55 L523.4,111 L514.6,111 Z M547,111.8 C538.36,111.8 533.64,106.68 533.64,97.72 L533.64,68.28 C533.64,59.32 538.36,54.2 547,54.2 C555.64,54.2 560.36,59.32 560.36,68.28 L560.36,97.72 C560.36,106.68 555.64,111.8 547,111.8 Z M547,103.8 C549.8,103.8 551.56,102.28 551.56,98.28 L551.56,67.72 C551.56,63.72 549.8,62.2 547,62.2 C544.2,62.2 542.44,63.72 542.44,67.72 L542.44,98.28 C542.44,102.28 544.2,103.8 547,103.8 Z M577.85,111 L577.85,76 L585.7,76 L589.2,101.05 L589.3,101.05 L592.8,76 L600.65,76 L600.65,111 L595.45,111 L595.45,84.5 L595.35,84.5 L591.35,111 L586.75,111 L582.75,84.5 L582.65,84.5 L582.65,111 L577.85,111 Z M604.75,111 L604.75,76 L610.25,76 L610.25,111 L604.75,111 Z M614.35,111 L614.35,76 L619.85,76 L619.85,106 L628.9,106 L628.9,111 L614.35,111 Z M631.55,111 L631.55,76 L637.05,76 L637.05,106 L646.1,106 L646.1,111 L631.55,111 Z M648.75,111 L648.75,76 L654.25,76 L654.25,111 L648.75,111 Z M666.3,111.5 C660.9,111.5 657.95,108.3 657.95,102.7 L657.95,84.3 C657.95,78.7 660.9,75.5 666.3,75.5 C671.7,75.5 674.65,78.7 674.65,84.3 L674.65,102.7 C674.65,108.3 671.7,111.5 666.3,111.5 Z M666.3,106.5 C668.05,106.5 669.15,105.55 669.15,103.05 L669.15,83.95 C669.15,81.45 668.05,80.5 666.3,80.5 C664.55,80.5 663.45,81.45 663.45,83.95 L663.45,103.05 C663.45,105.55 664.55,106.5 666.3,106.5 Z M678.35,111 L678.35,76 L685.25,76 L690.6,96.95 L690.7,96.95 L690.7,76 L695.6,76 L695.6,111 L689.95,111 L683.35,85.45 L683.25,85.45 L683.25,111 L678.35,111 Z" id="+$10-MILLION" fill="#363636"></path>
            </g>
        </g>
    </g>
</svg>