<?xml version="1.0" encoding="UTF-8"?>
<svg width="779px" height="287px" viewBox="0 0 779 287" version="1.1" xmlns="http://www.w3.org/2000/svg" xmlns:xlink="http://www.w3.org/1999/xlink">
    <!-- Generator: Sketch 49.3 (51167) - http://www.bohemiancoding.com/sketch -->
    <title>Image / MPA_Value</title>
    <desc>Created with Sketch.</desc>
    <defs></defs>
    <g id="Portfolio" stroke="none" stroke-width="1" fill="none" fill-rule="evenodd">
        <g id="AO_PavingPaths" transform="translate(-330.000000, -14786.000000)">
            <g id="Image-/-MPA_Value" transform="translate(329.000000, 14786.000000)">
                <rect id="Rectangle-10" fill="#F2F2F2" x="0.998703662" y="0" width="778.988857" height="287"></rect>
                <g id="Group-15" transform="translate(433.000000, 148.000000)">
                    <path d="M0,69.7246808 L0,67.9405282 L5.71415557,67.9405282 L5.71415557,69.7246808 L3.78142648,69.7246808 L3.78142648,80.4295959 L1.93272909,80.4295959 L1.93272909,69.7246808 L0,69.7246808 Z M9.20987427,75.0771384 L9.20987427,80.4295959 L7.36117688,80.4295959 L7.36117688,67.9405282 L9.20987427,67.9405282 L9.20987427,73.2929858 L11.3106668,73.2929858 L11.3106668,67.9405282 L13.1929768,67.9405282 L13.1929768,80.4295959 L11.3106668,80.4295959 L11.3106668,75.0771384 L9.20987427,75.0771384 Z M17.2264984,69.7246808 L17.2264984,73.2037782 L19.7642557,73.2037782 L19.7642557,74.9879307 L17.2264984,74.9879307 L17.2264984,78.6454434 L20.419703,78.6454434 L20.419703,80.4295959 L15.377801,80.4295959 L15.377801,67.9405282 L20.419703,67.9405282 L20.419703,69.7246808 L17.2264984,69.7246808 Z M29.4615139,75.7729578 L31.2093732,75.7729578 L31.2093732,77.4322197 C31.2093732,79.4304705 30.2682182,80.5723281 28.4531335,80.5723281 C26.6380487,80.5723281 25.6968937,79.4304705 25.6968937,77.4322197 L25.6968937,70.9379045 C25.6968937,68.9396537 26.6380487,67.797796 28.4531335,67.797796 C30.2682182,67.797796 31.2093732,68.9396537 31.2093732,70.9379045 L31.2093732,72.1511282 L29.4615139,72.1511282 L29.4615139,70.8130138 C29.4615139,69.9209376 29.0917744,69.5819486 28.5035525,69.5819486 C27.9153306,69.5819486 27.5455911,69.9209376 27.5455911,70.8130138 L27.5455911,77.5571104 C27.5455911,78.4491866 27.9153306,78.7703341 28.5035525,78.7703341 C29.0917744,78.7703341 29.4615139,78.4491866 29.4615139,77.5571104 L29.4615139,75.7729578 Z M33.0916833,67.9405282 L34.9403807,67.9405282 L34.9403807,77.5749519 C34.9403807,78.4670282 35.3101201,78.7881756 35.898342,78.7881756 C36.4865639,78.7881756 36.8563034,78.4670282 36.8563034,77.5749519 L36.8563034,67.9405282 L38.6041628,67.9405282 L38.6041628,77.4500612 C38.6041628,79.4483121 37.6630077,80.5901697 35.847923,80.5901697 C34.0328383,80.5901697 33.0916833,79.4483121 33.0916833,77.4500612 L33.0916833,67.9405282 Z M40.4696665,70.9379045 C40.4696665,68.9396537 41.3940152,67.797796 43.1922936,67.797796 C44.9905719,67.797796 45.9149206,68.9396537 45.9149206,70.9379045 L45.9149206,71.3304181 L44.1670613,71.3304181 L44.1670613,70.8130138 C44.1670613,69.9209376 43.8309345,69.5819486 43.2427126,69.5819486 C42.6544907,69.5819486 42.3183639,69.9209376 42.3183639,70.8130138 C42.3183639,73.3821935 45.931727,73.8639146 45.931727,77.4322197 C45.931727,79.4304705 44.9905719,80.5723281 43.1754872,80.5723281 C41.3604025,80.5723281 40.4192475,79.4304705 40.4192475,77.4322197 L40.4192475,76.6650341 L42.1671068,76.6650341 L42.1671068,77.5571104 C42.1671068,78.4491866 42.5368463,78.7703341 43.1250682,78.7703341 C43.7132901,78.7703341 44.0830296,78.4491866 44.0830296,77.5571104 C44.0830296,74.9879307 40.4696665,74.5062096 40.4696665,70.9379045 Z M47.2930405,69.7246808 L47.2930405,67.9405282 L53.0071961,67.9405282 L53.0071961,69.7246808 L51.074467,69.7246808 L51.074467,80.4295959 L49.2257696,80.4295959 L49.2257696,69.7246808 L47.2930405,69.7246808 Z M56.3516577,70.8130138 L56.3516577,77.5571104 C56.3516577,78.4491866 56.7213972,78.7881756 57.3096191,78.7881756 C57.897841,78.7881756 58.2675805,78.4491866 58.2675805,77.5571104 L58.2675805,70.8130138 C58.2675805,69.9209376 57.897841,69.5819486 57.3096191,69.5819486 C56.7213972,69.5819486 56.3516577,69.9209376 56.3516577,70.8130138 Z M54.5029603,77.4322197 L54.5029603,70.9379045 C54.5029603,68.9396537 55.4945344,67.797796 57.3096191,67.797796 C59.1247038,67.797796 60.1162778,68.9396537 60.1162778,70.9379045 L60.1162778,77.4322197 C60.1162778,79.4304705 59.1247038,80.5723281 57.3096191,80.5723281 C55.4945344,80.5723281 54.5029603,79.4304705 54.5029603,77.4322197 Z M64.7044086,67.9405282 L66.0657222,76.8077663 L67.3261977,67.9405282 L69.8975677,67.9405282 L69.8975677,80.4295959 L68.1497083,80.4295959 L68.1497083,71.4731503 L66.8724265,80.4295959 L65.1245671,80.4295959 L63.7464473,71.5980409 L63.7464473,80.4295959 L62.1330386,80.4295959 L62.1330386,67.9405282 L64.7044086,67.9405282 Z M73.9310892,69.7246808 L73.9310892,73.2037782 L76.4688466,73.2037782 L76.4688466,74.9879307 L73.9310892,74.9879307 L73.9310892,78.6454434 L77.1242938,78.6454434 L77.1242938,80.4295959 L72.0823919,80.4295959 L72.0823919,67.9405282 L77.1242938,67.9405282 L77.1242938,69.7246808 L73.9310892,69.7246808 Z M84.8552102,80.4295959 L82.9729001,80.4295959 C82.8720621,80.1084485 82.8048367,79.9121917 82.8048367,78.8952248 L82.8048367,76.932657 C82.8048367,75.7729578 82.4350972,75.3447612 81.5947802,75.3447612 L80.9561393,75.3447612 L80.9561393,80.4295959 L79.1074419,80.4295959 L79.1074419,67.9405282 L81.8972944,67.9405282 C83.8132171,67.9405282 84.6367278,68.8861291 84.6367278,70.8130138 L84.6367278,71.7942977 C84.6367278,73.0788875 84.2501819,73.9174392 83.4266713,74.3277943 C84.35102,74.7381494 84.6535341,75.6837502 84.6535341,76.9861816 L84.6535341,78.9130663 C84.6535341,79.5196782 84.6703404,79.9657163 84.8552102,80.4295959 Z M81.8468753,69.7246808 L80.9561393,69.7246808 L80.9561393,73.5606087 L81.6788119,73.5606087 C82.3678719,73.5606087 82.7880304,73.2394613 82.7880304,72.2403358 L82.7880304,71.0092706 C82.7880304,70.1171943 82.5023226,69.7246808 81.8468753,69.7246808 Z M86.4686188,70.9379045 C86.4686188,68.9396537 87.3929675,67.797796 89.1912459,67.797796 C90.9895242,67.797796 91.9138729,68.9396537 91.9138729,70.9379045 L91.9138729,71.3304181 L90.1660136,71.3304181 L90.1660136,70.8130138 C90.1660136,69.9209376 89.8298868,69.5819486 89.2416649,69.5819486 C88.653443,69.5819486 88.3173162,69.9209376 88.3173162,70.8130138 C88.3173162,73.3821935 91.9306793,73.8639146 91.9306793,77.4322197 C91.9306793,79.4304705 90.9895242,80.5723281 89.1744395,80.5723281 C87.3593548,80.5723281 86.4181998,79.4304705 86.4181998,77.4322197 L86.4181998,76.6650341 L88.1660591,76.6650341 L88.1660591,77.5571104 C88.1660591,78.4491866 88.5357986,78.7703341 89.1240205,78.7703341 C89.7122424,78.7703341 90.0819819,78.4491866 90.0819819,77.5571104 C90.0819819,74.9879307 86.4686188,74.5062096 86.4686188,70.9379045 Z M98.9725357,70.8130138 L98.9725357,77.5571104 C98.9725357,78.4491866 99.3422752,78.7881756 99.9304971,78.7881756 C100.518719,78.7881756 100.888458,78.4491866 100.888458,77.5571104 L100.888458,70.8130138 C100.888458,69.9209376 100.518719,69.5819486 99.9304971,69.5819486 C99.3422752,69.5819486 98.9725357,69.9209376 98.9725357,70.8130138 Z M97.1238383,77.4322197 L97.1238383,70.9379045 C97.1238383,68.9396537 98.1154124,67.797796 99.9304971,67.797796 C101.745582,67.797796 102.737156,68.9396537 102.737156,70.9379045 L102.737156,77.4322197 C102.737156,79.4304705 101.745582,80.5723281 99.9304971,80.5723281 C98.1154124,80.5723281 97.1238383,79.4304705 97.1238383,77.4322197 Z M107.49335,67.9405282 C109.342047,67.9405282 110.24959,69.0288613 110.24959,71.0271121 L110.24959,72.6506909 C110.24959,74.6489418 109.342047,75.7372748 107.49335,75.7372748 L106.61942,75.7372748 L106.61942,80.4295959 L104.770723,80.4295959 L104.770723,67.9405282 L107.49335,67.9405282 Z M107.49335,69.7246808 L106.61942,69.7246808 L106.61942,73.9531223 L107.49335,73.9531223 C108.081572,73.9531223 108.400892,73.6676579 108.400892,72.7755816 L108.400892,70.9022214 C108.400892,70.0101452 108.081572,69.7246808 107.49335,69.7246808 Z M113.795727,69.7246808 L113.795727,73.2037782 L116.333485,73.2037782 L116.333485,74.9879307 L113.795727,74.9879307 L113.795727,78.6454434 L116.988932,78.6454434 L116.988932,80.4295959 L111.94703,80.4295959 L111.94703,67.9405282 L116.988932,67.9405282 L116.988932,69.7246808 L113.795727,69.7246808 Z M122.92157,80.4295959 L120.619101,71.3839426 L120.619101,80.4295959 L118.955274,80.4295959 L118.955274,67.9405282 L121.274549,67.9405282 L123.173665,75.4161273 L123.173665,67.9405282 L124.820686,67.9405282 L124.820686,80.4295959 L122.92157,80.4295959 Z M126.988704,80.4295959 L126.988704,67.9405282 L128.837402,67.9405282 L128.837402,80.4295959 L126.988704,80.4295959 Z M134.971716,80.4295959 L132.669247,71.3839426 L132.669247,80.4295959 L131.00542,80.4295959 L131.00542,67.9405282 L133.324694,67.9405282 L135.223811,75.4161273 L135.223811,67.9405282 L136.870832,67.9405282 L136.870832,80.4295959 L134.971716,80.4295959 Z M141.811896,75.2555536 L141.811896,73.4714011 L144.400072,73.4714011 L144.400072,77.4322197 C144.400072,79.4304705 143.458917,80.5723281 141.643833,80.5723281 C139.828748,80.5723281 138.887593,79.4304705 138.887593,77.4322197 L138.887593,70.9379045 C138.887593,68.9396537 139.828748,67.797796 141.643833,67.797796 C143.458917,67.797796 144.400072,68.9396537 144.400072,70.9379045 L144.400072,72.1511282 L142.652213,72.1511282 L142.652213,70.8130138 C142.652213,69.9209376 142.282474,69.5819486 141.694252,69.5819486 C141.10603,69.5819486 140.73629,69.9209376 140.73629,70.8130138 L140.73629,77.5571104 C140.73629,78.4491866 141.10603,78.7703341 141.694252,78.7703341 C142.282474,78.7703341 142.652213,78.4491866 142.652213,77.5571104 L142.652213,75.2555536 L141.811896,75.2555536 Z M153.979686,67.9405282 L155.861996,80.4295959 L153.996493,80.4295959 L153.677172,78.1637222 L151.408316,78.1637222 L151.088996,80.4295959 L149.391555,80.4295959 L151.273865,67.9405282 L153.979686,67.9405282 Z M152.534341,70.1528774 L151.643605,76.4687773 L153.425077,76.4687773 L152.534341,70.1528774 Z M164.618099,75.7729578 L166.365959,75.7729578 L166.365959,77.4322197 C166.365959,79.4304705 165.424804,80.5723281 163.609719,80.5723281 C161.794634,80.5723281 160.853479,79.4304705 160.853479,77.4322197 L160.853479,70.9379045 C160.853479,68.9396537 161.794634,67.797796 163.609719,67.797796 C165.424804,67.797796 166.365959,68.9396537 166.365959,70.9379045 L166.365959,72.1511282 L164.618099,72.1511282 L164.618099,70.8130138 C164.618099,69.9209376 164.24836,69.5819486 163.660138,69.5819486 C163.071916,69.5819486 162.702177,69.9209376 162.702177,70.8130138 L162.702177,77.5571104 C162.702177,78.4491866 163.071916,78.7703341 163.660138,78.7703341 C164.24836,78.7703341 164.618099,78.4491866 164.618099,77.5571104 L164.618099,75.7729578 Z M170.180998,75.0771384 L170.180998,80.4295959 L168.3323,80.4295959 L168.3323,67.9405282 L170.180998,67.9405282 L170.180998,73.2929858 L172.28179,73.2929858 L172.28179,67.9405282 L174.1641,67.9405282 L174.1641,80.4295959 L172.28179,80.4295959 L172.28179,75.0771384 L170.180998,75.0771384 Z M178.197622,69.7246808 L178.197622,73.2037782 L180.735379,73.2037782 L180.735379,74.9879307 L178.197622,74.9879307 L178.197622,78.6454434 L181.390827,78.6454434 L181.390827,80.4295959 L176.348925,80.4295959 L176.348925,67.9405282 L181.390827,67.9405282 L181.390827,69.7246808 L178.197622,69.7246808 Z M186.987338,75.7729578 L188.735197,75.7729578 L188.735197,77.4322197 C188.735197,79.4304705 187.794042,80.5723281 185.978957,80.5723281 C184.163873,80.5723281 183.222718,79.4304705 183.222718,77.4322197 L183.222718,70.9379045 C183.222718,68.9396537 184.163873,67.797796 185.978957,67.797796 C187.794042,67.797796 188.735197,68.9396537 188.735197,70.9379045 L188.735197,72.1511282 L186.987338,72.1511282 L186.987338,70.8130138 C186.987338,69.9209376 186.617598,69.5819486 186.029376,69.5819486 C185.441155,69.5819486 185.071415,69.9209376 185.071415,70.8130138 L185.071415,77.5571104 C185.071415,78.4491866 185.441155,78.7703341 186.029376,78.7703341 C186.617598,78.7703341 186.987338,78.4491866 186.987338,77.5571104 L186.987338,75.7729578 Z M194.91993,80.4295959 L193.121652,75.4518104 L192.550236,76.593668 L192.550236,80.4295959 L190.701539,80.4295959 L190.701539,67.9405282 L192.550236,67.9405282 L192.550236,73.3821935 L194.970349,67.9405282 L196.819047,67.9405282 L194.247677,73.5070841 L196.819047,80.4295959 L194.91993,80.4295959 Z M198.499681,80.4295959 L198.499681,67.9405282 L200.348378,67.9405282 L200.348378,80.4295959 L198.499681,80.4295959 Z M206.482692,80.4295959 L204.180224,71.3839426 L204.180224,80.4295959 L202.516396,80.4295959 L202.516396,67.9405282 L204.835671,67.9405282 L206.734787,75.4161273 L206.734787,67.9405282 L208.381808,67.9405282 L208.381808,80.4295959 L206.482692,80.4295959 Z M213.322872,75.2555536 L213.322872,73.4714011 L215.911049,73.4714011 L215.911049,77.4322197 C215.911049,79.4304705 214.969894,80.5723281 213.154809,80.5723281 C211.339724,80.5723281 210.398569,79.4304705 210.398569,77.4322197 L210.398569,70.9379045 C210.398569,68.9396537 211.339724,67.797796 213.154809,67.797796 C214.969894,67.797796 215.911049,68.9396537 215.911049,70.9379045 L215.911049,72.1511282 L214.163189,72.1511282 L214.163189,70.8130138 C214.163189,69.9209376 213.79345,69.5819486 213.205228,69.5819486 C212.617006,69.5819486 212.247267,69.9209376 212.247267,70.8130138 L212.247267,77.5571104 C212.247267,78.4491866 212.617006,78.7703341 213.205228,78.7703341 C213.79345,78.7703341 214.163189,78.4491866 214.163189,77.5571104 L214.163189,75.2555536 L213.322872,75.2555536 Z M225.490663,67.9405282 L227.372973,80.4295959 L225.507469,80.4295959 L225.188148,78.1637222 L222.919293,78.1637222 L222.599972,80.4295959 L220.902532,80.4295959 L222.784842,67.9405282 L225.490663,67.9405282 Z M224.045317,70.1528774 L223.154581,76.4687773 L224.936053,76.4687773 L224.045317,70.1528774 Z M233.019903,80.4295959 L230.717434,71.3839426 L230.717434,80.4295959 L229.053607,80.4295959 L229.053607,67.9405282 L231.372881,67.9405282 L233.271998,75.4161273 L233.271998,67.9405282 L234.919019,67.9405282 L234.919019,80.4295959 L233.019903,80.4295959 Z M237.087037,80.4295959 L237.087037,67.9405282 L240.01134,67.9405282 C241.860038,67.9405282 242.76758,69.0288613 242.76758,71.0271121 L242.76758,77.3430121 C242.76758,79.3412629 241.860038,80.4295959 240.01134,80.4295959 L237.087037,80.4295959 Z M239.977728,69.7246808 L238.935734,69.7246808 L238.935734,78.6454434 L239.977728,78.6454434 C240.565949,78.6454434 240.918883,78.324296 240.918883,77.4322197 L240.918883,70.9379045 C240.918883,70.0458282 240.565949,69.7246808 239.977728,69.7246808 Z M0.302514118,92.3477348 C0.302514118,90.349484 1.22686281,89.2076264 3.02514118,89.2076264 C4.82341955,89.2076264 5.74776825,90.349484 5.74776825,92.3477348 L5.74776825,92.7402484 L3.9999089,92.7402484 L3.9999089,92.2228441 C3.9999089,91.3307679 3.6637821,90.9917789 3.0755602,90.9917789 C2.48733831,90.9917789 2.15121151,91.3307679 2.15121151,92.2228441 C2.15121151,94.7920238 5.76457459,95.273745 5.76457459,98.84205 C5.76457459,100.840301 4.82341955,101.982158 3.00833484,101.982158 C1.19325013,101.982158 0.252095099,100.840301 0.252095099,98.84205 L0.252095099,98.0748644 L1.99995445,98.0748644 L1.99995445,98.9669407 C1.99995445,99.859017 2.36969393,100.180164 2.95791582,100.180164 C3.54613772,100.180164 3.9158772,99.859017 3.9158772,98.9669407 C3.9158772,96.3977611 0.302514118,95.9160399 0.302514118,92.3477348 Z M11.7644379,89.3503586 L13.646748,101.839426 L11.7812443,101.839426 L11.4619238,99.5735526 L9.19306793,99.5735526 L8.87374747,101.839426 L7.17630714,101.839426 L9.05861721,89.3503586 L11.7644379,89.3503586 Z M10.3190927,91.5627077 L9.42835669,97.8786077 L11.2098287,97.8786077 L10.3190927,91.5627077 Z M16.3021497,89.3503586 L17.7138823,99.5378695 L19.1256148,89.3503586 L20.8230551,89.3503586 L19.0079704,101.839426 L16.2517307,101.839426 L14.436646,89.3503586 L16.3021497,89.3503586 Z M22.5204955,101.839426 L22.5204955,89.3503586 L24.3691929,89.3503586 L24.3691929,101.839426 L22.5204955,101.839426 Z M30.5035069,101.839426 L28.2010384,92.793773 L28.2010384,101.839426 L26.5372107,101.839426 L26.5372107,89.3503586 L28.8564856,89.3503586 L30.755602,96.8259577 L30.755602,89.3503586 L32.4026233,89.3503586 L32.4026233,101.839426 L30.5035069,101.839426 Z M37.3436873,96.6653839 L37.3436873,94.8812314 L39.9318636,94.8812314 L39.9318636,98.84205 C39.9318636,100.840301 38.9907086,101.982158 37.1756239,101.982158 C35.3605392,101.982158 34.4193841,100.840301 34.4193841,98.84205 L34.4193841,92.3477348 C34.4193841,90.349484 35.3605392,89.2076264 37.1756239,89.2076264 C38.9907086,89.2076264 39.9318636,90.349484 39.9318636,92.3477348 L39.9318636,93.5609585 L38.1840043,93.5609585 L38.1840043,92.2228441 C38.1840043,91.3307679 37.8142648,90.9917789 37.2260429,90.9917789 C36.637821,90.9917789 36.2680815,91.3307679 36.2680815,92.2228441 L36.2680815,98.9669407 C36.2680815,99.859017 36.637821,100.180164 37.2260429,100.180164 C37.8142648,100.180164 38.1840043,99.859017 38.1840043,98.9669407 L38.1840043,96.6653839 L37.3436873,96.6653839 Z M41.730142,92.3477348 C41.730142,90.349484 42.6544907,89.2076264 44.452769,89.2076264 C46.2510474,89.2076264 47.1753961,90.349484 47.1753961,92.3477348 L47.1753961,92.7402484 L45.4275368,92.7402484 L45.4275368,92.2228441 C45.4275368,91.3307679 45.09141,90.9917789 44.5031881,90.9917789 C43.9149662,90.9917789 43.5788394,91.3307679 43.5788394,92.2228441 C43.5788394,94.7920238 47.1922025,95.273745 47.1922025,98.84205 C47.1922025,100.840301 46.2510474,101.982158 44.4359627,101.982158 C42.620878,101.982158 41.679723,100.840301 41.679723,98.84205 L41.679723,98.0748644 L43.4275823,98.0748644 L43.4275823,98.9669407 C43.4275823,99.859017 43.7973218,100.180164 44.3855437,100.180164 C44.9737656,100.180164 45.3435051,99.859017 45.3435051,98.9669407 C45.3435051,96.3977611 41.730142,95.9160399 41.730142,92.3477348 Z M56.6373655,89.3503586 L58.5196755,101.839426 L56.6541718,101.839426 L56.3348514,99.5735526 L54.0659955,99.5735526 L53.746675,101.839426 L52.0492347,101.839426 L53.9315448,89.3503586 L56.6373655,89.3503586 Z M55.1920202,91.5627077 L54.3012842,97.8786077 L56.0827563,97.8786077 L55.1920202,91.5627077 Z M63.8136726,97.1827882 L65.561532,97.1827882 L65.561532,98.84205 C65.561532,100.840301 64.6203769,101.982158 62.8052922,101.982158 C60.9902075,101.982158 60.0490525,100.840301 60.0490525,98.84205 L60.0490525,92.3477348 C60.0490525,90.349484 60.9902075,89.2076264 62.8052922,89.2076264 C64.6203769,89.2076264 65.561532,90.349484 65.561532,92.3477348 L65.561532,93.5609585 L63.8136726,93.5609585 L63.8136726,92.2228441 C63.8136726,91.3307679 63.4439331,90.9917789 62.8557112,90.9917789 C62.2674893,90.9917789 61.8977499,91.3307679 61.8977499,92.2228441 L61.8977499,98.9669407 C61.8977499,99.859017 62.2674893,100.180164 62.8557112,100.180164 C63.4439331,100.180164 63.8136726,99.859017 63.8136726,98.9669407 L63.8136726,97.1827882 Z M71.1412368,97.1827882 L72.8890962,97.1827882 L72.8890962,98.84205 C72.8890962,100.840301 71.9479411,101.982158 70.1328564,101.982158 C68.3177717,101.982158 67.3766167,100.840301 67.3766167,98.84205 L67.3766167,92.3477348 C67.3766167,90.349484 68.3177717,89.2076264 70.1328564,89.2076264 C71.9479411,89.2076264 72.8890962,90.349484 72.8890962,92.3477348 L72.8890962,93.5609585 L71.1412368,93.5609585 L71.1412368,92.2228441 C71.1412368,91.3307679 70.7714973,90.9917789 70.1832754,90.9917789 C69.5950535,90.9917789 69.2253141,91.3307679 69.2253141,92.2228441 L69.2253141,98.9669407 C69.2253141,99.859017 69.5950535,100.180164 70.1832754,100.180164 C70.7714973,100.180164 71.1412368,99.859017 71.1412368,98.9669407 L71.1412368,97.1827882 Z M76.5528783,92.2228441 L76.5528783,98.9669407 C76.5528783,99.859017 76.9226177,100.198006 77.5108396,100.198006 C78.0990615,100.198006 78.468801,99.859017 78.468801,98.9669407 L78.468801,92.2228441 C78.468801,91.3307679 78.0990615,90.9917789 77.5108396,90.9917789 C76.9226177,90.9917789 76.5528783,91.3307679 76.5528783,92.2228441 Z M74.7041809,98.84205 L74.7041809,92.3477348 C74.7041809,90.349484 75.6957549,89.2076264 77.5108396,89.2076264 C79.3259244,89.2076264 80.3174984,90.349484 80.3174984,92.3477348 L80.3174984,98.84205 C80.3174984,100.840301 79.3259244,101.982158 77.5108396,101.982158 C75.6957549,101.982158 74.7041809,100.840301 74.7041809,98.84205 Z M82.2670338,89.3503586 L84.1157312,89.3503586 L84.1157312,98.9847822 C84.1157312,99.8768585 84.4854707,100.198006 85.0736926,100.198006 C85.6619145,100.198006 86.031654,99.8768585 86.031654,98.9847822 L86.031654,89.3503586 L87.7795133,89.3503586 L87.7795133,98.8598916 C87.7795133,100.858142 86.8383583,102 85.0232736,102 C83.2081889,102 82.2670338,100.858142 82.2670338,98.8598916 L82.2670338,89.3503586 Z M93.8297957,101.839426 L91.5273271,92.793773 L91.5273271,101.839426 L89.8634995,101.839426 L89.8634995,89.3503586 L92.1827744,89.3503586 L94.0818908,96.8259577 L94.0818908,89.3503586 L95.7289121,89.3503586 L95.7289121,101.839426 L93.8297957,101.839426 Z M97.3591271,91.1345111 L97.3591271,89.3503586 L103.073283,89.3503586 L103.073283,91.1345111 L101.140554,91.1345111 L101.140554,101.839426 L99.2918562,101.839426 L99.2918562,91.1345111 L97.3591271,91.1345111 Z M104.485015,92.3477348 C104.485015,90.349484 105.409364,89.2076264 107.207642,89.2076264 C109.005921,89.2076264 109.930269,90.349484 109.930269,92.3477348 L109.930269,92.7402484 L108.18241,92.7402484 L108.18241,92.2228441 C108.18241,91.3307679 107.846283,90.9917789 107.258061,90.9917789 C106.669839,90.9917789 106.333713,91.3307679 106.333713,92.2228441 C106.333713,94.7920238 109.947076,95.273745 109.947076,98.84205 C109.947076,100.840301 109.005921,101.982158 107.190836,101.982158 C105.375751,101.982158 104.434596,100.840301 104.434596,98.84205 L104.434596,98.0748644 L106.182456,98.0748644 L106.182456,98.9669407 C106.182456,99.859017 106.552195,100.180164 107.140417,100.180164 C107.728639,100.180164 108.098378,99.859017 108.098378,98.9669407 C108.098378,96.3977611 104.485015,95.9160399 104.485015,92.3477348 Z M116.988932,92.2228441 L116.988932,98.9669407 C116.988932,99.859017 117.358672,100.198006 117.946893,100.198006 C118.535115,100.198006 118.904855,99.859017 118.904855,98.9669407 L118.904855,92.2228441 C118.904855,91.3307679 118.535115,90.9917789 117.946893,90.9917789 C117.358672,90.9917789 116.988932,91.3307679 116.988932,92.2228441 Z M115.140235,98.84205 L115.140235,92.3477348 C115.140235,90.349484 116.131809,89.2076264 117.946893,89.2076264 C119.761978,89.2076264 120.753552,90.349484 120.753552,92.3477348 L120.753552,98.84205 C120.753552,100.840301 119.761978,101.982158 117.946893,101.982158 C116.131809,101.982158 115.140235,100.840301 115.140235,98.84205 Z M126.736609,101.839426 L124.434141,92.793773 L124.434141,101.839426 L122.770313,101.839426 L122.770313,89.3503586 L125.089588,89.3503586 L126.988704,96.8259577 L126.988704,89.3503586 L128.635726,89.3503586 L128.635726,101.839426 L126.736609,101.839426 Z M133.71124,91.1345111 L133.71124,89.3503586 L139.425396,89.3503586 L139.425396,91.1345111 L137.492667,91.1345111 L137.492667,101.839426 L135.643969,101.839426 L135.643969,91.1345111 L133.71124,91.1345111 Z M142.921115,96.4869687 L142.921115,101.839426 L141.072417,101.839426 L141.072417,89.3503586 L142.921115,89.3503586 L142.921115,94.7028162 L145.021907,94.7028162 L145.021907,89.3503586 L146.904217,89.3503586 L146.904217,101.839426 L145.021907,101.839426 L145.021907,96.4869687 L142.921115,96.4869687 Z M150.937739,91.1345111 L150.937739,94.6136085 L153.475496,94.6136085 L153.475496,96.3977611 L150.937739,96.3977611 L150.937739,100.055274 L154.130943,100.055274 L154.130943,101.839426 L149.089041,101.839426 L149.089041,89.3503586 L154.130943,89.3503586 L154.130943,91.1345111 L150.937739,91.1345111 Z M159.324102,92.3477348 C159.324102,90.349484 160.248451,89.2076264 162.046729,89.2076264 C163.845008,89.2076264 164.769356,90.349484 164.769356,92.3477348 L164.769356,92.7402484 L163.021497,92.7402484 L163.021497,92.2228441 C163.021497,91.3307679 162.68537,90.9917789 162.097148,90.9917789 C161.508926,90.9917789 161.1728,91.3307679 161.1728,92.2228441 C161.1728,94.7920238 164.786163,95.273745 164.786163,98.84205 C164.786163,100.840301 163.845008,101.982158 162.029923,101.982158 C160.214838,101.982158 159.273683,100.840301 159.273683,98.84205 L159.273683,98.0748644 L161.021543,98.0748644 L161.021543,98.9669407 C161.021543,99.859017 161.391282,100.180164 161.979504,100.180164 C162.567726,100.180164 162.937465,99.859017 162.937465,98.9669407 C162.937465,96.3977611 159.324102,95.9160399 159.324102,92.3477348 Z M170.786026,89.3503586 L172.668336,101.839426 L170.802832,101.839426 L170.483512,99.5735526 L168.214656,99.5735526 L167.895336,101.839426 L166.197895,101.839426 L168.080205,89.3503586 L170.786026,89.3503586 Z M169.340681,91.5627077 L168.449945,97.8786077 L170.231417,97.8786077 L169.340681,91.5627077 Z M176.92034,89.3503586 L178.281654,98.2175966 L179.542129,89.3503586 L182.113499,89.3503586 L182.113499,101.839426 L180.36564,101.839426 L180.36564,92.8829806 L179.088358,101.839426 L177.340499,101.839426 L175.962379,93.0078713 L175.962379,101.839426 L174.34897,101.839426 L174.34897,89.3503586 L176.92034,89.3503586 Z M186.147021,91.1345111 L186.147021,94.6136085 L188.684778,94.6136085 L188.684778,96.3977611 L186.147021,96.3977611 L186.147021,100.055274 L189.340225,100.055274 L189.340225,101.839426 L184.298323,101.839426 L184.298323,89.3503586 L189.340225,89.3503586 L189.340225,91.1345111 L186.147021,91.1345111 Z M194.768673,101.839426 L194.768673,89.3503586 L197.692976,89.3503586 C199.541674,89.3503586 200.449216,90.4386916 200.449216,92.4369425 L200.449216,98.7528424 C200.449216,100.751093 199.541674,101.839426 197.692976,101.839426 L194.768673,101.839426 Z M197.659364,91.1345111 L196.617371,91.1345111 L196.617371,100.055274 L197.659364,100.055274 C198.247586,100.055274 198.600519,99.7341263 198.600519,98.84205 L198.600519,92.3477348 C198.600519,91.4556586 198.247586,91.1345111 197.659364,91.1345111 Z M206.549917,89.3503586 L208.432228,101.839426 L206.566724,101.839426 L206.247403,99.5735526 L203.978547,99.5735526 L203.659227,101.839426 L201.961787,101.839426 L203.844097,89.3503586 L206.549917,89.3503586 Z M205.104572,91.5627077 L204.213836,97.8786077 L205.995308,97.8786077 L205.104572,91.5627077 Z M211.03721,101.839426 L211.03721,97.7001924 L208.701129,89.3503586 L210.633858,89.3503586 L212.045591,95.0418051 L213.457323,89.3503586 L215.221989,89.3503586 L212.885908,97.7001924 L212.885908,101.839426 L211.03721,101.839426 Z M216.801785,99.9482246 L218.583257,99.9482246 L218.583257,101.839426 L216.801785,101.839426 L216.801785,99.9482246 Z" id="The-customers-openin" fill="#333333"></path>
                    <path d="M7.73091636,49.9562708 L7.73091636,7.13661011 L0,7.13661011 L0,0 L22.8566223,0 L22.8566223,7.13661011 L15.1257059,7.13661011 L15.1257059,49.9562708 L7.73091636,49.9562708 Z M26.4195663,49.9562708 L26.4195663,0 L37.3772999,0 C45.0409909,0 48.3350336,3.78240336 48.3350336,11.4899423 L48.3350336,14.5586846 C48.3350336,19.6970439 46.7888503,22.9798846 43.4948077,24.4072066 L43.4948077,24.5499388 C47.1922025,25.7631625 48.4022589,29.4741998 48.4022589,35.1121217 L48.4022589,43.8901522 C48.4022589,46.3165996 48.4694843,48.1007521 49.2089632,49.9562708 L41.679723,49.9562708 C41.2763708,48.671681 41.0074694,47.8866538 41.0074694,43.8187861 L41.0074694,34.6839251 C41.0074694,30.0451286 39.7301875,28.5464404 36.3689196,28.5464404 L33.8143559,28.5464404 L33.8143559,49.9562708 L26.4195663,49.9562708 Z M33.8143559,21.4098303 L36.5033703,21.4098303 C39.25961,21.4098303 40.940244,20.1252405 40.940244,16.1287388 L40.940244,12.2749694 C40.940244,8.70666433 39.7974129,7.13661011 37.1756239,7.13661011 L33.8143559,7.13661011 L33.8143559,21.4098303 Z M53.5113863,49.9562708 L53.5113863,0 L60.9061758,0 L60.9061758,49.9562708 L53.5113863,49.9562708 Z M66.4186553,49.9562708 L66.4186553,0 L77.3091636,0 C84.7039531,0 88.3341225,4.35333217 88.3341225,12.3463355 L88.3341225,17.2705965 C88.3341225,25.2635998 84.7039531,29.616932 77.3091636,29.616932 L73.8134449,29.616932 L73.8134449,49.9562708 L66.4186553,49.9562708 Z M73.8134449,22.4803218 L77.3091636,22.4803218 C79.6620512,22.4803218 80.939333,21.3384642 80.939333,17.7701592 L80.939333,11.8467728 C80.939333,8.27846773 79.6620512,7.13661011 77.3091636,7.13661011 L73.8134449,7.13661011 L73.8134449,22.4803218 Z M92.3676441,49.9562708 L92.3676441,0 L99.7624337,0 L99.7624337,42.8196607 L111.930224,42.8196607 L111.930224,49.9562708 L92.3676441,49.9562708 Z M115.493168,49.9562708 L115.493168,0 L135.660776,0 L135.660776,7.13661011 L122.887957,7.13661011 L122.887957,20.3393388 L133.038987,20.3393388 L133.038987,27.4759489 L122.887957,27.4759489 L122.887957,42.8196607 L135.660776,42.8196607 L135.660776,49.9562708 L115.493168,49.9562708 Z M139.895973,49.9562708 L139.895973,0 L151.189834,0 C158.584623,0 162.214793,4.35333217 162.214793,12.3463355 L162.214793,37.6099353 C162.214793,45.6029386 158.584623,49.9562708 151.189834,49.9562708 L139.895973,49.9562708 Z M147.290763,42.8196607 L151.055383,42.8196607 C153.408271,42.8196607 154.820003,41.5350708 154.820003,37.9667658 L154.820003,11.989505 C154.820003,8.42119993 153.408271,7.13661011 151.055383,7.13661011 L147.290763,7.13661011 L147.290763,42.8196607 Z" id="TRIPLEd" fill="#363636"></path>
                </g>
                <g id="Group-14" transform="translate(433.000000, 23.000000)">
                    <path d="M3.16219197,68.2476587 C5.19635055,68.2476587 6.19493748,69.326743 6.19493748,71.3080125 L6.19493748,72.917794 C6.19493748,74.8990635 5.19635055,75.9781478 3.16219197,75.9781478 L2.20058973,75.9781478 L2.20058973,80.6305931 L0.166431156,80.6305931 L0.166431156,68.2476587 L3.16219197,68.2476587 Z M3.16219197,70.0166493 L2.20058973,70.0166493 L2.20058973,74.2091571 L3.16219197,74.2091571 C3.80942424,74.2091571 4.16077891,73.9261186 4.16077891,73.0416233 L4.16077891,71.1841831 C4.16077891,70.2996878 3.80942424,70.0166493 3.16219197,70.0166493 Z M14.4795106,80.6305931 L12.4083673,80.6305931 C12.2974132,80.3121748 12.2234438,80.1175858 12.2234438,79.1092612 L12.2234438,77.1633715 C12.2234438,76.0135276 11.8166121,75.5889698 10.8919946,75.5889698 L10.1892852,75.5889698 L10.1892852,80.6305931 L8.15512666,80.6305931 L8.15512666,68.2476587 L11.2248569,68.2476587 C13.3329849,68.2476587 14.23911,69.1852237 14.23911,71.0957336 L14.23911,72.0686785 C14.23911,73.3423517 13.813786,74.1737773 12.9076608,74.5806452 C13.9247401,74.987513 14.2576024,75.925078 14.2576024,77.2164412 L14.2576024,79.1269511 C14.2576024,79.7284079 14.2760947,80.1706556 14.4795106,80.6305931 Z M11.1693798,70.0166493 L10.1892852,70.0166493 L10.1892852,73.8199792 L10.9844563,73.8199792 C11.7426427,73.8199792 12.2049515,73.5015609 12.2049515,72.5109261 L12.2049515,71.2903226 C12.2049515,70.4058273 11.8905815,70.0166493 11.1693798,70.0166493 Z M18.3813966,71.0957336 L18.3813966,77.7825182 C18.3813966,78.6670135 18.7882283,79.0031217 19.4354606,79.0031217 C20.0826929,79.0031217 20.4895246,78.6670135 20.4895246,77.7825182 L20.4895246,71.0957336 C20.4895246,70.2112383 20.0826929,69.8751301 19.4354606,69.8751301 C18.7882283,69.8751301 18.3813966,70.2112383 18.3813966,71.0957336 Z M16.347238,77.6586889 L16.347238,71.219563 C16.347238,69.2382934 17.4382867,68.1061394 19.4354606,68.1061394 C21.4326345,68.1061394 22.5236831,69.2382934 22.5236831,71.219563 L22.5236831,77.6586889 C22.5236831,79.6399584 21.4326345,80.7721124 19.4354606,80.7721124 C17.4382867,80.7721124 16.347238,79.6399584 16.347238,77.6586889 Z M24.2064871,80.6305931 L24.2064871,78.8616025 C24.4283953,78.8792924 24.6872882,78.8792924 24.9091964,78.8792924 C25.5564287,78.8792924 26.0742145,78.6493236 26.0742145,77.6940687 L26.0742145,68.2476587 L28.1083731,68.2476587 L28.1083731,77.5525494 C28.1083731,80.0291363 26.7214468,80.6659729 25.1865816,80.6659729 C24.8167346,80.6659729 24.5393494,80.6659729 24.2064871,80.6305931 Z M32.4540755,70.0166493 L32.4540755,73.4661811 L35.2464204,73.4661811 L35.2464204,75.2351717 L32.4540755,75.2351717 L32.4540755,78.8616025 L35.9676221,78.8616025 L35.9676221,80.6305931 L30.4199169,80.6305931 L30.4199169,68.2476587 L35.9676221,68.2476587 L35.9676221,70.0166493 L32.4540755,70.0166493 Z M42.1255749,76.0135276 L44.0487794,76.0135276 L44.0487794,77.6586889 C44.0487794,79.6399584 43.0132077,80.7721124 41.0160338,80.7721124 C39.01886,80.7721124 37.9832883,79.6399584 37.9832883,77.6586889 L37.9832883,71.219563 C37.9832883,69.2382934 39.01886,68.1061394 41.0160338,68.1061394 C43.0132077,68.1061394 44.0487794,69.2382934 44.0487794,71.219563 L44.0487794,72.4224766 L42.1255749,72.4224766 L42.1255749,71.0957336 C42.1255749,70.2112383 41.7187432,69.8751301 41.0715109,69.8751301 C40.4242786,69.8751301 40.0174469,70.2112383 40.0174469,71.0957336 L40.0174469,77.7825182 C40.0174469,78.6670135 40.4242786,78.9854318 41.0715109,78.9854318 C41.7187432,78.9854318 42.1255749,78.6670135 42.1255749,77.7825182 L42.1255749,76.0135276 Z M45.6206292,70.0166493 L45.6206292,68.2476587 L51.9080284,68.2476587 L51.9080284,70.0166493 L49.7814081,70.0166493 L49.7814081,80.6305931 L47.7472495,80.6305931 L47.7472495,70.0166493 L45.6206292,70.0166493 Z M55.7544373,70.0166493 L55.7544373,73.4661811 L58.5467823,73.4661811 L58.5467823,75.2351717 L55.7544373,75.2351717 L55.7544373,78.8616025 L59.267984,78.8616025 L59.267984,80.6305931 L53.7202788,80.6305931 L53.7202788,68.2476587 L59.267984,68.2476587 L59.267984,70.0166493 L55.7544373,70.0166493 Z M61.4500814,80.6305931 L61.4500814,68.2476587 L64.6677504,68.2476587 C66.701909,68.2476587 67.7004959,69.326743 67.7004959,71.3080125 L67.7004959,77.5702393 C67.7004959,79.5515088 66.701909,80.6305931 64.6677504,80.6305931 L61.4500814,80.6305931 Z M64.6307657,70.0166493 L63.4842399,70.0166493 L63.4842399,78.8616025 L64.6307657,78.8616025 C65.277998,78.8616025 65.6663373,78.5431842 65.6663373,77.6586889 L65.6663373,71.219563 C65.6663373,70.3350676 65.277998,70.0166493 64.6307657,70.0166493 Z M78.0562123,80.6305931 L75.5227602,71.6618106 L75.5227602,80.6305931 L73.6920175,80.6305931 L73.6920175,68.2476587 L76.2439619,68.2476587 L78.3335975,75.6597294 L78.3335975,68.2476587 L80.1458479,68.2476587 L80.1458479,80.6305931 L78.0562123,80.6305931 Z M84.5655197,70.0166493 L84.5655197,73.4661811 L87.3578647,73.4661811 L87.3578647,75.2351717 L84.5655197,75.2351717 L84.5655197,78.8616025 L88.0790664,78.8616025 L88.0790664,80.6305931 L82.5313612,80.6305931 L82.5313612,68.2476587 L88.0790664,68.2476587 L88.0790664,70.0166493 L84.5655197,70.0166493 Z M89.6694085,70.0166493 L89.6694085,68.2476587 L95.9568078,68.2476587 L95.9568078,70.0166493 L93.8301874,70.0166493 L93.8301874,80.6305931 L91.7960289,80.6305931 L91.7960289,70.0166493 L89.6694085,70.0166493 Z M101.55999,80.6305931 L101.55999,68.2476587 L103.594149,68.2476587 L103.594149,80.6305931 L101.55999,80.6305931 Z M110.343857,80.6305931 L107.810405,71.6618106 L107.810405,80.6305931 L105.979662,80.6305931 L105.979662,68.2476587 L108.531606,68.2476587 L110.621242,75.6597294 L110.621242,68.2476587 L112.433492,68.2476587 L112.433492,80.6305931 L110.343857,80.6305931 Z M118.794861,76.0135276 L120.718065,76.0135276 L120.718065,77.6586889 C120.718065,79.6399584 119.682494,80.7721124 117.68532,80.7721124 C115.688146,80.7721124 114.652574,79.6399584 114.652574,77.6586889 L114.652574,71.219563 C114.652574,69.2382934 115.688146,68.1061394 117.68532,68.1061394 C119.682494,68.1061394 120.718065,69.2382934 120.718065,71.219563 L120.718065,72.4224766 L118.794861,72.4224766 L118.794861,71.0957336 C118.794861,70.2112383 118.388029,69.8751301 117.740797,69.8751301 C117.093565,69.8751301 116.686733,70.2112383 116.686733,71.0957336 L116.686733,77.7825182 C116.686733,78.6670135 117.093565,78.9854318 117.740797,78.9854318 C118.388029,78.9854318 118.794861,78.6670135 118.794861,77.7825182 L118.794861,76.0135276 Z M124.749398,71.0957336 L124.749398,77.7825182 C124.749398,78.6670135 125.15623,79.0031217 125.803462,79.0031217 C126.450694,79.0031217 126.857526,78.6670135 126.857526,77.7825182 L126.857526,71.0957336 C126.857526,70.2112383 126.450694,69.8751301 125.803462,69.8751301 C125.15623,69.8751301 124.749398,70.2112383 124.749398,71.0957336 Z M122.715239,77.6586889 L122.715239,71.219563 C122.715239,69.2382934 123.806288,68.1061394 125.803462,68.1061394 C127.800636,68.1061394 128.891684,69.2382934 128.891684,71.219563 L128.891684,77.6586889 C128.891684,79.6399584 127.800636,80.7721124 125.803462,80.7721124 C123.806288,80.7721124 122.715239,79.6399584 122.715239,77.6586889 Z M133.940096,68.2476587 L135.437976,77.0395421 L136.824903,68.2476587 L139.654232,68.2476587 L139.654232,80.6305931 L137.731028,80.6305931 L137.731028,71.7502601 L136.325609,80.6305931 L134.402405,80.6305931 L132.886032,71.8740895 L132.886032,80.6305931 L131.110766,80.6305931 L131.110766,68.2476587 L133.940096,68.2476587 Z M144.092397,70.0166493 L144.092397,73.4661811 L146.884742,73.4661811 L146.884742,75.2351717 L144.092397,75.2351717 L144.092397,78.8616025 L147.605943,78.8616025 L147.605943,80.6305931 L142.058238,80.6305931 L142.058238,68.2476587 L147.605943,68.2476587 L147.605943,70.0166493 L144.092397,70.0166493 Z M156.648703,68.2476587 C158.756831,68.2476587 159.662956,69.1852237 159.662956,71.0957336 L159.662956,71.5379813 C159.662956,72.8116545 159.256124,73.6253902 158.349999,74.0322581 C159.441048,74.4391259 159.866372,75.3766909 159.866372,76.685744 L159.866372,77.6940687 C159.866372,79.6045786 158.812308,80.6305931 156.778149,80.6305931 L153.578973,80.6305931 L153.578973,68.2476587 L156.648703,68.2476587 Z M156.519256,75.0582726 L155.613131,75.0582726 L155.613131,78.8616025 L156.778149,78.8616025 C157.462366,78.8616025 157.832213,78.5608741 157.832213,77.640999 L157.832213,76.5619147 C157.832213,75.4120708 157.443874,75.0582726 156.519256,75.0582726 Z M156.593226,70.0166493 L155.613131,70.0166493 L155.613131,73.289282 L156.408302,73.289282 C157.166489,73.289282 157.628797,72.9708637 157.628797,71.9802289 L157.628797,71.2903226 C157.628797,70.4058273 157.314427,70.0166493 156.593226,70.0166493 Z M164.045643,70.0166493 L164.045643,73.4661811 L166.837988,73.4661811 L166.837988,75.2351717 L164.045643,75.2351717 L164.045643,78.8616025 L167.55919,78.8616025 L167.55919,80.6305931 L162.011484,80.6305931 L162.011484,68.2476587 L167.55919,68.2476587 L167.55919,70.0166493 L164.045643,70.0166493 Z M171.775446,70.0166493 L171.775446,73.7492196 L174.401359,73.7492196 L174.401359,75.5182102 L171.775446,75.5182102 L171.775446,80.6305931 L169.741287,80.6305931 L169.741287,68.2476587 L175.122561,68.2476587 L175.122561,70.0166493 L171.775446,70.0166493 Z M178.895001,71.0957336 L178.895001,77.7825182 C178.895001,78.6670135 179.301832,79.0031217 179.949065,79.0031217 C180.596297,79.0031217 181.003129,78.6670135 181.003129,77.7825182 L181.003129,71.0957336 C181.003129,70.2112383 180.596297,69.8751301 179.949065,69.8751301 C179.301832,69.8751301 178.895001,70.2112383 178.895001,71.0957336 Z M176.860842,77.6586889 L176.860842,71.219563 C176.860842,69.2382934 177.951891,68.1061394 179.949065,68.1061394 C181.946238,68.1061394 183.037287,69.2382934 183.037287,71.219563 L183.037287,77.6586889 C183.037287,79.6399584 181.946238,80.7721124 179.949065,80.7721124 C177.951891,80.7721124 176.860842,79.6399584 176.860842,77.6586889 Z M191.599246,80.6305931 L189.528102,80.6305931 C189.417148,80.3121748 189.343179,80.1175858 189.343179,79.1092612 L189.343179,77.1633715 C189.343179,76.0135276 188.936347,75.5889698 188.01173,75.5889698 L187.30902,75.5889698 L187.30902,80.6305931 L185.274862,80.6305931 L185.274862,68.2476587 L188.344592,68.2476587 C190.45272,68.2476587 191.358845,69.1852237 191.358845,71.0957336 L191.358845,72.0686785 C191.358845,73.3423517 190.933521,74.1737773 190.027396,74.5806452 C191.044475,74.987513 191.377337,75.925078 191.377337,77.2164412 L191.377337,79.1269511 C191.377337,79.7284079 191.39583,80.1706556 191.599246,80.6305931 Z M188.289115,70.0166493 L187.30902,70.0166493 L187.30902,73.8199792 L188.104191,73.8199792 C188.862378,73.8199792 189.324686,73.5015609 189.324686,72.5109261 L189.324686,71.2903226 C189.324686,70.4058273 189.010316,70.0166493 188.289115,70.0166493 Z M195.667563,70.0166493 L195.667563,73.4661811 L198.459908,73.4661811 L198.459908,75.2351717 L195.667563,75.2351717 L195.667563,78.8616025 L199.181109,78.8616025 L199.181109,80.6305931 L193.633404,80.6305931 L193.633404,68.2476587 L199.181109,68.2476587 L199.181109,70.0166493 L195.667563,70.0166493 Z M204.562383,70.0166493 L204.562383,68.2476587 L210.849783,68.2476587 L210.849783,70.0166493 L208.723162,70.0166493 L208.723162,80.6305931 L206.689004,80.6305931 L206.689004,70.0166493 L204.562383,70.0166493 Z M216.471457,68.2476587 L218.542601,80.6305931 L216.48995,80.6305931 L216.138595,78.383975 L213.642128,78.383975 L213.290773,80.6305931 L211.423046,80.6305931 L213.494189,68.2476587 L216.471457,68.2476587 Z M214.881115,70.4412071 L213.90102,76.7034339 L215.86121,76.7034339 L214.881115,70.4412071 Z M225.310801,68.2476587 L227.197021,68.2476587 L225.0704,74.2622268 L227.344959,80.6305931 L225.199847,80.6305931 L223.535535,75.7304891 L221.852731,80.6305931 L219.948019,80.6305931 L222.222578,74.2622268 L220.095958,68.2476587 L222.204086,68.2476587 L223.738951,72.8116545 L225.310801,68.2476587 Z M231.320815,70.0166493 L231.320815,73.4661811 L234.11316,73.4661811 L234.11316,75.2351717 L231.320815,75.2351717 L231.320815,78.8616025 L234.834361,78.8616025 L234.834361,80.6305931 L229.286656,80.6305931 L229.286656,68.2476587 L234.834361,68.2476587 L234.834361,70.0166493 L231.320815,70.0166493 Z M236.757566,71.219563 C236.757566,69.2382934 237.774645,68.1061394 239.753327,68.1061394 C241.732008,68.1061394 242.749088,69.2382934 242.749088,71.219563 L242.749088,71.6087409 L240.825883,71.6087409 L240.825883,71.0957336 C240.825883,70.2112383 240.456036,69.8751301 239.808804,69.8751301 C239.161572,69.8751301 238.791725,70.2112383 238.791725,71.0957336 C238.791725,73.6430801 242.76758,74.1207076 242.76758,77.6586889 C242.76758,79.6399584 241.732008,80.7721124 239.734834,80.7721124 C237.737661,80.7721124 236.702089,79.6399584 236.702089,77.6586889 L236.702089,76.8980229 L238.625293,76.8980229 L238.625293,77.7825182 C238.625293,78.6670135 239.032125,78.9854318 239.679357,78.9854318 C240.32659,78.9854318 240.733421,78.6670135 240.733421,77.7825182 C240.733421,75.2351717 236.757566,74.7575442 236.757566,71.219563 Z M2.03415858,92.3236212 L2.03415858,99.0104058 C2.03415858,99.8949011 2.44099029,100.231009 3.08822257,100.231009 C3.73545484,100.231009 4.14228656,99.8949011 4.14228656,99.0104058 L4.14228656,92.3236212 C4.14228656,91.4391259 3.73545484,91.1030177 3.08822257,91.1030177 C2.44099029,91.1030177 2.03415858,91.4391259 2.03415858,92.3236212 Z M0,98.8865765 L0,92.4474506 C0,90.4661811 1.09104869,89.3340271 3.08822257,89.3340271 C5.08539644,89.3340271 6.17644513,90.4661811 6.17644513,92.4474506 L6.17644513,98.8865765 C6.17644513,100.867846 5.08539644,102 3.08822257,102 C1.09104869,102 0,100.867846 0,98.8865765 Z M9.91189997,89.4755463 L11.4652574,99.5764828 L13.0186149,89.4755463 L14.8863423,89.4755463 L12.8891684,101.858481 L9.85642292,101.858481 L7.85924905,89.4755463 L9.91189997,89.4755463 Z M18.7882283,91.2445369 L18.7882283,94.6940687 L21.5805733,94.6940687 L21.5805733,96.4630593 L18.7882283,96.4630593 L18.7882283,100.08949 L22.3017749,100.08949 L22.3017749,101.858481 L16.7540697,101.858481 L16.7540697,89.4755463 L22.3017749,89.4755463 L22.3017749,91.2445369 L18.7882283,91.2445369 Z M30.8082563,101.858481 L28.737113,101.858481 C28.6261589,101.540062 28.5521895,101.345473 28.5521895,100.337149 L28.5521895,98.3912591 C28.5521895,97.2414152 28.1453578,96.8168574 27.2207402,96.8168574 L26.5180309,96.8168574 L26.5180309,101.858481 L24.4838723,101.858481 L24.4838723,89.4755463 L27.5536025,89.4755463 C29.6617305,89.4755463 30.5678557,90.4131113 30.5678557,92.3236212 L30.5678557,93.2965661 C30.5678557,94.5702393 30.1425316,95.4016649 29.2364064,95.8085328 C30.2534857,96.2154006 30.5863481,97.1529657 30.5863481,98.4443288 L30.5863481,100.354839 C30.5863481,100.956296 30.6048404,101.398543 30.8082563,101.858481 Z M27.4981255,91.2445369 L26.5180309,91.2445369 L26.5180309,95.0478668 L27.313202,95.0478668 C28.0713884,95.0478668 28.5336971,94.7294485 28.5336971,93.7388137 L28.5336971,92.5182102 C28.5336971,91.6337149 28.2193272,91.2445369 27.4981255,91.2445369 Z M36.0415915,91.2445369 L36.0415915,89.4755463 L42.3289907,89.4755463 L42.3289907,91.2445369 L40.2023704,91.2445369 L40.2023704,101.858481 L38.1682118,101.858481 L38.1682118,91.2445369 L36.0415915,91.2445369 Z M46.1753997,96.5515088 L46.1753997,101.858481 L44.1412411,101.858481 L44.1412411,89.4755463 L46.1753997,89.4755463 L46.1753997,94.7825182 L48.4869435,94.7825182 L48.4869435,89.4755463 L50.5580868,89.4755463 L50.5580868,101.858481 L48.4869435,101.858481 L48.4869435,96.5515088 L46.1753997,96.5515088 Z M54.996251,91.2445369 L54.996251,94.6940687 L57.7885959,94.6940687 L57.7885959,96.4630593 L54.996251,96.4630593 L54.996251,100.08949 L58.5097976,100.08949 L58.5097976,101.858481 L52.9620924,101.858481 L52.9620924,89.4755463 L58.5097976,89.4755463 L58.5097976,91.2445369 L54.996251,91.2445369 Z M68.8285293,101.858481 L66.2950772,92.8896982 L66.2950772,101.858481 L64.4643345,101.858481 L64.4643345,89.4755463 L67.0162789,89.4755463 L69.1059145,96.8876171 L69.1059145,89.4755463 L70.9181649,89.4755463 L70.9181649,101.858481 L68.8285293,101.858481 Z M75.3378367,91.2445369 L75.3378367,94.6940687 L78.1301817,94.6940687 L78.1301817,96.4630593 L75.3378367,96.4630593 L75.3378367,100.08949 L78.8513834,100.08949 L78.8513834,101.858481 L73.3036782,101.858481 L73.3036782,89.4755463 L78.8513834,89.4755463 L78.8513834,91.2445369 L75.3378367,91.2445369 Z M85.9339537,89.4755463 L87.8201735,89.4755463 L85.6935531,95.4901145 L87.9681123,101.858481 L85.8229996,101.858481 L84.158688,96.9583767 L82.4758841,101.858481 L80.571172,101.858481 L82.8457311,95.4901145 L80.7191108,89.4755463 L82.8272388,89.4755463 L84.3621039,94.0395421 L85.9339537,89.4755463 Z M89.3180539,91.2445369 L89.3180539,89.4755463 L95.6054531,89.4755463 L95.6054531,91.2445369 L93.4788328,91.2445369 L93.4788328,101.858481 L91.4446742,101.858481 L91.4446742,91.2445369 L89.3180539,91.2445369 Z M100.727834,99.6118626 L100.727834,97.842872 L104.426304,89.4755463 L106.645386,89.4755463 L106.645386,97.842872 L107.606989,97.842872 L107.606989,99.6118626 L106.645386,99.6118626 L106.645386,101.858481 L104.648213,101.858481 L104.648213,99.6118626 L100.727834,99.6118626 Z M102.595562,97.842872 L104.648213,97.842872 L104.648213,93.1904266 L102.595562,97.842872 Z M115.151868,101.858481 L115.151868,97.7544225 L112.581431,89.4755463 L114.708051,89.4755463 L116.261409,95.1186264 L117.814766,89.4755463 L119.756463,89.4755463 L117.186026,97.7544225 L117.186026,101.858481 L115.151868,101.858481 Z M123.528903,91.2445369 L123.528903,94.6940687 L126.321248,94.6940687 L126.321248,96.4630593 L123.528903,96.4630593 L123.528903,100.08949 L127.042449,100.08949 L127.042449,101.858481 L121.494744,101.858481 L121.494744,89.4755463 L127.042449,89.4755463 L127.042449,91.2445369 L123.528903,91.2445369 Z M133.73668,89.4755463 L135.807824,101.858481 L133.755173,101.858481 L133.403818,99.6118626 L130.907351,99.6118626 L130.555996,101.858481 L128.688268,101.858481 L130.759412,89.4755463 L133.73668,89.4755463 Z M132.146338,91.6690947 L131.166243,97.9313215 L133.126433,97.9313215 L132.146338,91.6690947 Z M143.999935,101.858481 L141.928792,101.858481 C141.817837,101.540062 141.743868,101.345473 141.743868,100.337149 L141.743868,98.3912591 C141.743868,97.2414152 141.337036,96.8168574 140.412419,96.8168574 L139.70971,96.8168574 L139.70971,101.858481 L137.675551,101.858481 L137.675551,89.4755463 L140.745281,89.4755463 C142.853409,89.4755463 143.759534,90.4131113 143.759534,92.3236212 L143.759534,93.2965661 C143.759534,94.5702393 143.33421,95.4016649 142.428085,95.8085328 C143.445164,96.2154006 143.778027,97.1529657 143.778027,98.4443288 L143.778027,100.354839 C143.778027,100.956296 143.796519,101.398543 143.999935,101.858481 Z M140.689804,91.2445369 L139.70971,91.2445369 L139.70971,95.0478668 L140.504881,95.0478668 C141.263067,95.0478668 141.725376,94.7294485 141.725376,93.7388137 L141.725376,92.5182102 C141.725376,91.6337149 141.411006,91.2445369 140.689804,91.2445369 Z M145.775201,92.4474506 C145.775201,90.4661811 146.79228,89.3340271 148.770961,89.3340271 C150.749643,89.3340271 151.766722,90.4661811 151.766722,92.4474506 L151.766722,92.8366285 L149.843518,92.8366285 L149.843518,92.3236212 C149.843518,91.4391259 149.473671,91.1030177 148.826438,91.1030177 C148.179206,91.1030177 147.809359,91.4391259 147.809359,92.3236212 C147.809359,94.8709677 151.785215,95.3485952 151.785215,98.8865765 C151.785215,100.867846 150.749643,102 148.752469,102 C146.755295,102 145.719723,100.867846 145.719723,98.8865765 L145.719723,98.1259105 L147.642928,98.1259105 L147.642928,99.0104058 C147.642928,99.8949011 148.04976,100.213319 148.696992,100.213319 C149.344224,100.213319 149.751056,99.8949011 149.751056,99.0104058 C149.751056,96.4630593 145.775201,95.9854318 145.775201,92.4474506 Z M153.87485,99.9833507 L155.835039,99.9833507 L155.835039,101.858481 L153.87485,101.858481 L153.87485,99.9833507 Z" id="Projected-net-income" fill="#333333"></path>
                    <path d="M8.80235893,56.6077003 L8.80235893,51.6545265 C2.95877611,50.5223725 0,46.2060354 0,39.9791883 L0,36.7242456 L7.69281789,36.7242456 L7.69281789,40.4745057 C7.69281789,43.5171696 9.32014475,44.7908429 11.9090738,44.7908429 C14.4980029,44.7908429 16.1253298,43.5171696 16.1253298,40.3329865 C16.1253298,36.7950052 14.6459418,34.2476587 9.17220594,30.1436004 C2.51495969,25.119667 0.221908208,21.157128 0.221908208,15.7793965 C0.221908208,9.7648283 3.10671492,5.51925078 8.80235893,4.31633715 L8.80235893,0 L15.4596052,0 L15.4596052,4.31633715 C21.2292186,5.44849116 24.1879947,9.69406868 24.1879947,15.9209157 L24.1879947,17.3361082 L16.4951768,17.3361082 L16.4951768,15.4255983 C16.4951768,12.3829344 15.0157888,11.0385016 12.4268597,11.0385016 C9.83793057,11.0385016 8.35854251,12.3829344 8.35854251,15.2840791 C8.35854251,18.5390219 9.83793057,21.0156087 15.3116664,25.1904266 C21.9689126,30.2851197 24.2619641,34.1768991 24.2619641,39.8376691 C24.2619641,46.2060354 21.2292186,50.5223725 15.4596052,51.6545265 L15.4596052,56.6077003 L8.80235893,56.6077003 Z M41.496835,53.4235172 C33.5081395,53.4235172 29.3658529,49.0364204 29.3658529,41.1113424 L29.3658529,37.0780437 L37.0586708,37.0780437 L37.0586708,41.4651405 C37.0586708,45.0031217 38.6859977,46.3475546 41.2749268,46.3475546 C43.8638558,46.3475546 45.4911827,45.144641 45.4911827,40.7575442 L45.4911827,36.7242456 C45.4911827,32.1248699 43.8638558,30.4266389 40.1653857,30.4266389 L37.4285178,30.4266389 L37.4285178,23.3506764 L40.3872939,23.3506764 C43.4200394,23.3506764 45.2692745,22.0770031 45.2692745,18.1144641 L45.2692745,14.5057232 C45.2692745,10.9677419 43.5679782,9.55254943 41.2009573,9.55254943 C38.8339365,9.55254943 37.280579,10.8969823 37.280579,14.1519251 L37.280579,17.4068678 L29.5877611,17.4068678 L29.5877611,14.7887617 C29.5877611,6.86368366 33.7300477,2.47658689 41.496835,2.47658689 C49.2636223,2.47658689 53.4059088,6.79292404 53.4059088,14.7180021 L53.4059088,16.4869927 C53.4059088,21.7939646 51.6306431,25.0489074 47.6362954,26.4640999 L47.6362954,26.6056191 C52.0004902,28.1623309 53.627817,31.7710718 53.627817,36.7950052 L53.627817,41.182102 C53.627817,49.10718 49.4855305,53.4235172 41.496835,53.4235172 Z M71.0845961,53.4235172 C63.0959006,53.4235172 58.953614,49.0364204 58.953614,41.1113424 L58.953614,37.0780437 L66.6464319,37.0780437 L66.6464319,41.4651405 C66.6464319,45.0031217 68.2737588,46.3475546 70.8626879,46.3475546 C73.451617,46.3475546 75.0789438,45.144641 75.0789438,40.7575442 L75.0789438,36.7242456 C75.0789438,32.1248699 73.451617,30.4266389 69.7531468,30.4266389 L67.0162789,30.4266389 L67.0162789,23.3506764 L69.975055,23.3506764 C73.0078005,23.3506764 74.8570356,22.0770031 74.8570356,18.1144641 L74.8570356,14.5057232 C74.8570356,10.9677419 73.1557394,9.55254943 70.7887185,9.55254943 C68.4216976,9.55254943 66.8683401,10.8969823 66.8683401,14.1519251 L66.8683401,17.4068678 L59.1755222,17.4068678 L59.1755222,14.7887617 C59.1755222,6.86368366 63.3178088,2.47658689 71.0845961,2.47658689 C78.8513834,2.47658689 82.9936699,6.79292404 82.9936699,14.7180021 L82.9936699,16.4869927 C82.9936699,21.7939646 81.2184043,25.0489074 77.2240565,26.4640999 L77.2240565,26.6056191 C81.5882513,28.1623309 83.2155781,31.7710718 83.2155781,36.7950052 L83.2155781,41.182102 C83.2155781,49.10718 79.0732916,53.4235172 71.0845961,53.4235172 Z M99.8309552,52.7159209 L99.8309552,21.7585848 L107.089203,21.7585848 L110.325364,43.9151925 L110.417826,43.9151925 L113.653987,21.7585848 L120.912235,21.7585848 L120.912235,52.7159209 L116.104224,52.7159209 L116.104224,29.276795 L116.011762,29.276795 L112.313292,52.7159209 L108.060051,52.7159209 L104.361581,29.276795 L104.269119,29.276795 L104.269119,52.7159209 L99.8309552,52.7159209 Z M124.703167,52.7159209 L124.703167,21.7585848 L129.788563,21.7585848 L129.788563,52.7159209 L124.703167,52.7159209 Z M133.579495,52.7159209 L133.579495,21.7585848 L138.664892,21.7585848 L138.664892,48.2934443 L147.03268,48.2934443 L147.03268,52.7159209 L133.579495,52.7159209 Z M149.482917,52.7159209 L149.482917,21.7585848 L154.568313,21.7585848 L154.568313,48.2934443 L162.936102,48.2934443 L162.936102,52.7159209 L149.482917,52.7159209 Z M165.386338,52.7159209 L165.386338,21.7585848 L170.471735,21.7585848 L170.471735,52.7159209 L165.386338,52.7159209 Z M181.613376,53.1581686 C176.620441,53.1581686 173.89282,50.3277836 173.89282,45.3746098 L173.89282,29.0998959 C173.89282,24.1467222 176.620441,21.3163371 181.613376,21.3163371 C186.606311,21.3163371 189.333933,24.1467222 189.333933,29.0998959 L189.333933,45.3746098 C189.333933,50.3277836 186.606311,53.1581686 181.613376,53.1581686 Z M181.613376,48.735692 C183.231457,48.735692 184.248536,47.8954214 184.248536,45.6841831 L184.248536,28.7903226 C184.248536,26.5790843 183.231457,25.7388137 181.613376,25.7388137 C179.995295,25.7388137 178.978216,26.5790843 178.978216,28.7903226 L178.978216,45.6841831 C178.978216,47.8954214 179.995295,48.735692 181.613376,48.735692 Z M192.755017,52.7159209 L192.755017,21.7585848 L199.134878,21.7585848 L204.081582,40.2887617 L204.174044,40.2887617 L204.174044,21.7585848 L208.70467,21.7585848 L208.70467,52.7159209 L203.480581,52.7159209 L197.378105,30.1170656 L197.285643,30.1170656 L197.285643,52.7159209 L192.755017,52.7159209 Z" id="$33-MILLION" fill="#363636"></path>
                </g>
                <path d="M35,65.5 L356.306478,65.5" id="Path-3" stroke="#E6E6E6" stroke-dasharray="2,2"></path>
                <path d="M35,117.5 L356.306478,117.5" id="Path-3" stroke="#E6E6E6" stroke-dasharray="2,2"></path>
                <path d="M35,169.5 L356.306478,169.5" id="Path-3" stroke="#E6E6E6" stroke-dasharray="2,2"></path>
                <path d="M35,221.5 L356.306478,221.5" id="Path-3" stroke="#E6E6E6" stroke-dasharray="2,2"></path>
                <polyline id="Path-2" stroke="#222222" stroke-width="2" stroke-linecap="round" points="13 260.18378 22.624256 241.098958 29.2276786 260.18378 40.6264881 250.641369 53.9263393 250.641369 64.2537202 241.098958 71.3668155 229.190476 81.5342262 224.934524 88.8035714 210.719494 99.1011905 235.451637 103.070685 250.641369 112.53125 260.18378 123.46875 273.059524 138.234375 267.542411 143.844494 250.641369 147.739583 229.190476 158.922619 217.404762 176.247768 210.719494 176.247768 123.78869 183.011161 157.981399 195.734375 162.229911 206.857887 157.981399 221.91369 157.981399 234.88244 150.589286 246.251488 130.845982 257.769345 123.78869 278.31994 75.9315476 286.422619 85.2098214 297.713542 80.2470238 308.647321 68.1488095 329.134673 57.6019345 356.065476 23"></polyline>
                <path id="Path-2-decoration-1" d="M351.79958,33.3654296 L356.065476,23 L347.064673,29.6802354" stroke="#222222" stroke-width="2" stroke-linecap="round"></path>
            </g>
        </g>
    </g>
</svg>