<?xml version="1.0" encoding="UTF-8"?>
<svg width="780px" height="162px" viewBox="0 0 780 162" version="1.1" xmlns="http://www.w3.org/2000/svg" xmlns:xlink="http://www.w3.org/1999/xlink">
    <!-- Generator: Sketch 49.3 (51167) - http://www.bohemiancoding.com/sketch -->
    <title>Image / MPA_Value</title>
    <desc>Created with Sketch.</desc>
    <defs></defs>
    <g id="Portfolio" stroke="none" stroke-width="1" fill="none" fill-rule="evenodd">
        <g id="AO_PavingPaths" transform="translate(-329.000000, -12072.000000)">
            <g id="Image-/-MPA_Value" transform="translate(329.000000, 12072.000000)">
                <rect id="Rectangle-10" fill="#FFFFFF" x="0.998703662" y="0" width="778.988857" height="161.789993"></rect>
                <path d="M0.16,95.8379578 L0.16,93.8379578 L6.96,93.8379578 L6.96,95.8379578 L4.66,95.8379578 L4.66,107.837958 L2.46,107.837958 L2.46,95.8379578 L0.16,95.8379578 Z M11.12,101.837958 L11.12,107.837958 L8.92,107.837958 L8.92,93.8379578 L11.12,93.8379578 L11.12,99.8379578 L13.62,99.8379578 L13.62,93.8379578 L15.86,93.8379578 L15.86,107.837958 L13.62,107.837958 L13.62,101.837958 L11.12,101.837958 Z M20.66,95.8379578 L20.66,99.7379578 L23.68,99.7379578 L23.68,101.737958 L20.66,101.737958 L20.66,105.837958 L24.46,105.837958 L24.46,107.837958 L18.46,107.837958 L18.46,93.8379578 L24.46,93.8379578 L24.46,95.8379578 L20.66,95.8379578 Z M35.22,102.617958 L37.3,102.617958 L37.3,104.477958 C37.3,106.717958 36.18,107.997958 34.02,107.997958 C31.86,107.997958 30.74,106.717958 30.74,104.477958 L30.74,97.1979578 C30.74,94.9579578 31.86,93.6779578 34.02,93.6779578 C36.18,93.6779578 37.3,94.9579578 37.3,97.1979578 L37.3,98.5579578 L35.22,98.5579578 L35.22,97.0579578 C35.22,96.0579578 34.78,95.6779578 34.08,95.6779578 C33.38,95.6779578 32.94,96.0579578 32.94,97.0579578 L32.94,104.617958 C32.94,105.617958 33.38,105.977958 34.08,105.977958 C34.78,105.977958 35.22,105.617958 35.22,104.617958 L35.22,102.617958 Z M39.54,93.8379578 L41.74,93.8379578 L41.74,104.637958 C41.74,105.637958 42.18,105.997958 42.88,105.997958 C43.58,105.997958 44.02,105.637958 44.02,104.637958 L44.02,93.8379578 L46.1,93.8379578 L46.1,104.497958 C46.1,106.737958 44.98,108.017958 42.82,108.017958 C40.66,108.017958 39.54,106.737958 39.54,104.497958 L39.54,93.8379578 Z M48.32,97.1979578 C48.32,94.9579578 49.42,93.6779578 51.56,93.6779578 C53.7,93.6779578 54.8,94.9579578 54.8,97.1979578 L54.8,97.6379578 L52.72,97.6379578 L52.72,97.0579578 C52.72,96.0579578 52.32,95.6779578 51.62,95.6779578 C50.92,95.6779578 50.52,96.0579578 50.52,97.0579578 C50.52,99.9379578 54.82,100.477958 54.82,104.477958 C54.82,106.717958 53.7,107.997958 51.54,107.997958 C49.38,107.997958 48.26,106.717958 48.26,104.477958 L48.26,103.617958 L50.34,103.617958 L50.34,104.617958 C50.34,105.617958 50.78,105.977958 51.48,105.977958 C52.18,105.977958 52.62,105.617958 52.62,104.617958 C52.62,101.737958 48.32,101.197958 48.32,97.1979578 Z M56.44,95.8379578 L56.44,93.8379578 L63.24,93.8379578 L63.24,95.8379578 L60.94,95.8379578 L60.94,107.837958 L58.74,107.837958 L58.74,95.8379578 L56.44,95.8379578 Z M67.22,97.0579578 L67.22,104.617958 C67.22,105.617958 67.66,105.997958 68.36,105.997958 C69.06,105.997958 69.5,105.617958 69.5,104.617958 L69.5,97.0579578 C69.5,96.0579578 69.06,95.6779578 68.36,95.6779578 C67.66,95.6779578 67.22,96.0579578 67.22,97.0579578 Z M65.02,104.477958 L65.02,97.1979578 C65.02,94.9579578 66.2,93.6779578 68.36,93.6779578 C70.52,93.6779578 71.7,94.9579578 71.7,97.1979578 L71.7,104.477958 C71.7,106.717958 70.52,107.997958 68.36,107.997958 C66.2,107.997958 65.02,106.717958 65.02,104.477958 Z M77.16,93.8379578 L78.78,103.777958 L80.28,93.8379578 L83.34,93.8379578 L83.34,107.837958 L81.26,107.837958 L81.26,97.7979578 L79.74,107.837958 L77.66,107.837958 L76.02,97.9379578 L76.02,107.837958 L74.1,107.837958 L74.1,93.8379578 L77.16,93.8379578 Z M88.14,95.8379578 L88.14,99.7379578 L91.16,99.7379578 L91.16,101.737958 L88.14,101.737958 L88.14,105.837958 L91.94,105.837958 L91.94,107.837958 L85.94,107.837958 L85.94,93.8379578 L91.94,93.8379578 L91.94,95.8379578 L88.14,95.8379578 Z M101.14,107.837958 L98.9,107.837958 C98.78,107.477958 98.7,107.257958 98.7,106.117958 L98.7,103.917958 C98.7,102.617958 98.26,102.137958 97.26,102.137958 L96.5,102.137958 L96.5,107.837958 L94.3,107.837958 L94.3,93.8379578 L97.62,93.8379578 C99.9,93.8379578 100.88,94.8979578 100.88,97.0579578 L100.88,98.1579578 C100.88,99.5979578 100.42,100.537958 99.44,100.997958 C100.54,101.457958 100.9,102.517958 100.9,103.977958 L100.9,106.137958 C100.9,106.817958 100.92,107.317958 101.14,107.837958 Z M97.56,95.8379578 L96.5,95.8379578 L96.5,100.137958 L97.36,100.137958 C98.18,100.137958 98.68,99.7779578 98.68,98.6579578 L98.68,97.2779578 C98.68,96.2779578 98.34,95.8379578 97.56,95.8379578 Z M103.06,97.1979578 C103.06,94.9579578 104.16,93.6779578 106.3,93.6779578 C108.44,93.6779578 109.54,94.9579578 109.54,97.1979578 L109.54,97.6379578 L107.46,97.6379578 L107.46,97.0579578 C107.46,96.0579578 107.06,95.6779578 106.36,95.6779578 C105.66,95.6779578 105.26,96.0579578 105.26,97.0579578 C105.26,99.9379578 109.56,100.477958 109.56,104.477958 C109.56,106.717958 108.44,107.997958 106.28,107.997958 C104.12,107.997958 103,106.717958 103,104.477958 L103,103.617958 L105.08,103.617958 L105.08,104.617958 C105.08,105.617958 105.52,105.977958 106.22,105.977958 C106.92,105.977958 107.36,105.617958 107.36,104.617958 C107.36,101.737958 103.06,101.197958 103.06,97.1979578 Z M117.94,97.0579578 L117.94,104.617958 C117.94,105.617958 118.38,105.997958 119.08,105.997958 C119.78,105.997958 120.22,105.617958 120.22,104.617958 L120.22,97.0579578 C120.22,96.0579578 119.78,95.6779578 119.08,95.6779578 C118.38,95.6779578 117.94,96.0579578 117.94,97.0579578 Z M115.74,104.477958 L115.74,97.1979578 C115.74,94.9579578 116.92,93.6779578 119.08,93.6779578 C121.24,93.6779578 122.42,94.9579578 122.42,97.1979578 L122.42,104.477958 C122.42,106.717958 121.24,107.997958 119.08,107.997958 C116.92,107.997958 115.74,106.717958 115.74,104.477958 Z M128.08,93.8379578 C130.28,93.8379578 131.36,95.0579578 131.36,97.2979578 L131.36,99.1179578 C131.36,101.357958 130.28,102.577958 128.08,102.577958 L127.04,102.577958 L127.04,107.837958 L124.84,107.837958 L124.84,93.8379578 L128.08,93.8379578 Z M128.08,95.8379578 L127.04,95.8379578 L127.04,100.577958 L128.08,100.577958 C128.78,100.577958 129.16,100.257958 129.16,99.2579578 L129.16,97.1579578 C129.16,96.1579578 128.78,95.8379578 128.08,95.8379578 Z M135.58,95.8379578 L135.58,99.7379578 L138.6,99.7379578 L138.6,101.737958 L135.58,101.737958 L135.58,105.837958 L139.38,105.837958 L139.38,107.837958 L133.38,107.837958 L133.38,93.8379578 L139.38,93.8379578 L139.38,95.8379578 L135.58,95.8379578 Z M146.44,107.837958 L143.7,97.6979578 L143.7,107.837958 L141.72,107.837958 L141.72,93.8379578 L144.48,93.8379578 L146.74,102.217958 L146.74,93.8379578 L148.7,93.8379578 L148.7,107.837958 L146.44,107.837958 Z M151.28,107.837958 L151.28,93.8379578 L153.48,93.8379578 L153.48,107.837958 L151.28,107.837958 Z M160.78,107.837958 L158.04,97.6979578 L158.04,107.837958 L156.06,107.837958 L156.06,93.8379578 L158.82,93.8379578 L161.08,102.217958 L161.08,93.8379578 L163.04,93.8379578 L163.04,107.837958 L160.78,107.837958 Z M168.92,102.037958 L168.92,100.037958 L172,100.037958 L172,104.477958 C172,106.717958 170.88,107.997958 168.72,107.997958 C166.56,107.997958 165.44,106.717958 165.44,104.477958 L165.44,97.1979578 C165.44,94.9579578 166.56,93.6779578 168.72,93.6779578 C170.88,93.6779578 172,94.9579578 172,97.1979578 L172,98.5579578 L169.92,98.5579578 L169.92,97.0579578 C169.92,96.0579578 169.48,95.6779578 168.78,95.6779578 C168.08,95.6779578 167.64,96.0579578 167.64,97.0579578 L167.64,104.617958 C167.64,105.617958 168.08,105.977958 168.78,105.977958 C169.48,105.977958 169.92,105.617958 169.92,104.617958 L169.92,102.037958 L168.92,102.037958 Z M183.4,93.8379578 L185.64,107.837958 L183.42,107.837958 L183.04,105.297958 L180.34,105.297958 L179.96,107.837958 L177.94,107.837958 L180.18,93.8379578 L183.4,93.8379578 Z M181.68,96.3179578 L180.62,103.397958 L182.74,103.397958 L181.68,96.3179578 Z M196.06,102.617958 L198.14,102.617958 L198.14,104.477958 C198.14,106.717958 197.02,107.997958 194.86,107.997958 C192.7,107.997958 191.58,106.717958 191.58,104.477958 L191.58,97.1979578 C191.58,94.9579578 192.7,93.6779578 194.86,93.6779578 C197.02,93.6779578 198.14,94.9579578 198.14,97.1979578 L198.14,98.5579578 L196.06,98.5579578 L196.06,97.0579578 C196.06,96.0579578 195.62,95.6779578 194.92,95.6779578 C194.22,95.6779578 193.78,96.0579578 193.78,97.0579578 L193.78,104.617958 C193.78,105.617958 194.22,105.977958 194.92,105.977958 C195.62,105.977958 196.06,105.617958 196.06,104.617958 L196.06,102.617958 Z M202.68,101.837958 L202.68,107.837958 L200.48,107.837958 L200.48,93.8379578 L202.68,93.8379578 L202.68,99.8379578 L205.18,99.8379578 L205.18,93.8379578 L207.42,93.8379578 L207.42,107.837958 L205.18,107.837958 L205.18,101.837958 L202.68,101.837958 Z M212.22,95.8379578 L212.22,99.7379578 L215.24,99.7379578 L215.24,101.737958 L212.22,101.737958 L212.22,105.837958 L216.02,105.837958 L216.02,107.837958 L210.02,107.837958 L210.02,93.8379578 L216.02,93.8379578 L216.02,95.8379578 L212.22,95.8379578 Z M222.68,102.617958 L224.76,102.617958 L224.76,104.477958 C224.76,106.717958 223.64,107.997958 221.48,107.997958 C219.32,107.997958 218.2,106.717958 218.2,104.477958 L218.2,97.1979578 C218.2,94.9579578 219.32,93.6779578 221.48,93.6779578 C223.64,93.6779578 224.76,94.9579578 224.76,97.1979578 L224.76,98.5579578 L222.68,98.5579578 L222.68,97.0579578 C222.68,96.0579578 222.24,95.6779578 221.54,95.6779578 C220.84,95.6779578 220.4,96.0579578 220.4,97.0579578 L220.4,104.617958 C220.4,105.617958 220.84,105.977958 221.54,105.977958 C222.24,105.977958 222.68,105.617958 222.68,104.617958 L222.68,102.617958 Z M232.12,107.837958 L229.98,102.257958 L229.3,103.537958 L229.3,107.837958 L227.1,107.837958 L227.1,93.8379578 L229.3,93.8379578 L229.3,99.9379578 L232.18,93.8379578 L234.38,93.8379578 L231.32,100.077958 L234.38,107.837958 L232.12,107.837958 Z M236.38,107.837958 L236.38,93.8379578 L238.58,93.8379578 L238.58,107.837958 L236.38,107.837958 Z M245.88,107.837958 L243.14,97.6979578 L243.14,107.837958 L241.16,107.837958 L241.16,93.8379578 L243.92,93.8379578 L246.18,102.217958 L246.18,93.8379578 L248.14,93.8379578 L248.14,107.837958 L245.88,107.837958 Z M254.02,102.037958 L254.02,100.037958 L257.1,100.037958 L257.1,104.477958 C257.1,106.717958 255.98,107.997958 253.82,107.997958 C251.66,107.997958 250.54,106.717958 250.54,104.477958 L250.54,97.1979578 C250.54,94.9579578 251.66,93.6779578 253.82,93.6779578 C255.98,93.6779578 257.1,94.9579578 257.1,97.1979578 L257.1,98.5579578 L255.02,98.5579578 L255.02,97.0579578 C255.02,96.0579578 254.58,95.6779578 253.88,95.6779578 C253.18,95.6779578 252.74,96.0579578 252.74,97.0579578 L252.74,104.617958 C252.74,105.617958 253.18,105.977958 253.88,105.977958 C254.58,105.977958 255.02,105.617958 255.02,104.617958 L255.02,102.037958 L254.02,102.037958 Z M268.5,93.8379578 L270.74,107.837958 L268.52,107.837958 L268.14,105.297958 L265.44,105.297958 L265.06,107.837958 L263.04,107.837958 L265.28,93.8379578 L268.5,93.8379578 Z M266.78,96.3179578 L265.72,103.397958 L267.84,103.397958 L266.78,96.3179578 Z M277.46,107.837958 L274.72,97.6979578 L274.72,107.837958 L272.74,107.837958 L272.74,93.8379578 L275.5,93.8379578 L277.76,102.217958 L277.76,93.8379578 L279.72,93.8379578 L279.72,107.837958 L277.46,107.837958 Z M282.3,107.837958 L282.3,93.8379578 L285.78,93.8379578 C287.98,93.8379578 289.06,95.0579578 289.06,97.2979578 L289.06,104.377958 C289.06,106.617958 287.98,107.837958 285.78,107.837958 L282.3,107.837958 Z M285.74,95.8379578 L284.5,95.8379578 L284.5,105.837958 L285.74,105.837958 C286.44,105.837958 286.86,105.477958 286.86,104.477958 L286.86,97.1979578 C286.86,96.1979578 286.44,95.8379578 285.74,95.8379578 Z M0.52,121.197958 C0.52,118.957958 1.62,117.677958 3.76,117.677958 C5.9,117.677958 7,118.957958 7,121.197958 L7,121.637958 L4.92,121.637958 L4.92,121.057958 C4.92,120.057958 4.52,119.677958 3.82,119.677958 C3.12,119.677958 2.72,120.057958 2.72,121.057958 C2.72,123.937958 7.02,124.477958 7.02,128.477958 C7.02,130.717958 5.9,131.997958 3.74,131.997958 C1.58,131.997958 0.46,130.717958 0.46,128.477958 L0.46,127.617958 L2.54,127.617958 L2.54,128.617958 C2.54,129.617958 2.98,129.977958 3.68,129.977958 C4.38,129.977958 4.82,129.617958 4.82,128.617958 C4.82,125.737958 0.52,125.197958 0.52,121.197958 Z M14.16,117.837958 L16.4,131.837958 L14.18,131.837958 L13.8,129.297958 L11.1,129.297958 L10.72,131.837958 L8.7,131.837958 L10.94,117.837958 L14.16,117.837958 Z M12.44,120.317958 L11.38,127.397958 L13.5,127.397958 L12.44,120.317958 Z M19.56,117.837958 L21.24,129.257958 L22.92,117.837958 L24.94,117.837958 L22.78,131.837958 L19.5,131.837958 L17.34,117.837958 L19.56,117.837958 Z M26.96,131.837958 L26.96,117.837958 L29.16,117.837958 L29.16,131.837958 L26.96,131.837958 Z M36.46,131.837958 L33.72,121.697958 L33.72,131.837958 L31.74,131.837958 L31.74,117.837958 L34.5,117.837958 L36.76,126.217958 L36.76,117.837958 L38.72,117.837958 L38.72,131.837958 L36.46,131.837958 Z M44.6,126.037958 L44.6,124.037958 L47.68,124.037958 L47.68,128.477958 C47.68,130.717958 46.56,131.997958 44.4,131.997958 C42.24,131.997958 41.12,130.717958 41.12,128.477958 L41.12,121.197958 C41.12,118.957958 42.24,117.677958 44.4,117.677958 C46.56,117.677958 47.68,118.957958 47.68,121.197958 L47.68,122.557958 L45.6,122.557958 L45.6,121.057958 C45.6,120.057958 45.16,119.677958 44.46,119.677958 C43.76,119.677958 43.32,120.057958 43.32,121.057958 L43.32,128.617958 C43.32,129.617958 43.76,129.977958 44.46,129.977958 C45.16,129.977958 45.6,129.617958 45.6,128.617958 L45.6,126.037958 L44.6,126.037958 Z M49.82,121.197958 C49.82,118.957958 50.92,117.677958 53.06,117.677958 C55.2,117.677958 56.3,118.957958 56.3,121.197958 L56.3,121.637958 L54.22,121.637958 L54.22,121.057958 C54.22,120.057958 53.82,119.677958 53.12,119.677958 C52.42,119.677958 52.02,120.057958 52.02,121.057958 C52.02,123.937958 56.32,124.477958 56.32,128.477958 C56.32,130.717958 55.2,131.997958 53.04,131.997958 C50.88,131.997958 49.76,130.717958 49.76,128.477958 L49.76,127.617958 L51.84,127.617958 L51.84,128.617958 C51.84,129.617958 52.28,129.977958 52.98,129.977958 C53.68,129.977958 54.12,129.617958 54.12,128.617958 C54.12,125.737958 49.82,125.197958 49.82,121.197958 Z M67.56,117.837958 L69.8,131.837958 L67.58,131.837958 L67.2,129.297958 L64.5,129.297958 L64.12,131.837958 L62.1,131.837958 L64.34,117.837958 L67.56,117.837958 Z M65.84,120.317958 L64.78,127.397958 L66.9,127.397958 L65.84,120.317958 Z M76.1,126.617958 L78.18,126.617958 L78.18,128.477958 C78.18,130.717958 77.06,131.997958 74.9,131.997958 C72.74,131.997958 71.62,130.717958 71.62,128.477958 L71.62,121.197958 C71.62,118.957958 72.74,117.677958 74.9,117.677958 C77.06,117.677958 78.18,118.957958 78.18,121.197958 L78.18,122.557958 L76.1,122.557958 L76.1,121.057958 C76.1,120.057958 75.66,119.677958 74.96,119.677958 C74.26,119.677958 73.82,120.057958 73.82,121.057958 L73.82,128.617958 C73.82,129.617958 74.26,129.977958 74.96,129.977958 C75.66,129.977958 76.1,129.617958 76.1,128.617958 L76.1,126.617958 Z M84.82,126.617958 L86.9,126.617958 L86.9,128.477958 C86.9,130.717958 85.78,131.997958 83.62,131.997958 C81.46,131.997958 80.34,130.717958 80.34,128.477958 L80.34,121.197958 C80.34,118.957958 81.46,117.677958 83.62,117.677958 C85.78,117.677958 86.9,118.957958 86.9,121.197958 L86.9,122.557958 L84.82,122.557958 L84.82,121.057958 C84.82,120.057958 84.38,119.677958 83.68,119.677958 C82.98,119.677958 82.54,120.057958 82.54,121.057958 L82.54,128.617958 C82.54,129.617958 82.98,129.977958 83.68,129.977958 C84.38,129.977958 84.82,129.617958 84.82,128.617958 L84.82,126.617958 Z M91.26,121.057958 L91.26,128.617958 C91.26,129.617958 91.7,129.997958 92.4,129.997958 C93.1,129.997958 93.54,129.617958 93.54,128.617958 L93.54,121.057958 C93.54,120.057958 93.1,119.677958 92.4,119.677958 C91.7,119.677958 91.26,120.057958 91.26,121.057958 Z M89.06,128.477958 L89.06,121.197958 C89.06,118.957958 90.24,117.677958 92.4,117.677958 C94.56,117.677958 95.74,118.957958 95.74,121.197958 L95.74,128.477958 C95.74,130.717958 94.56,131.997958 92.4,131.997958 C90.24,131.997958 89.06,130.717958 89.06,128.477958 Z M98.06,117.837958 L100.26,117.837958 L100.26,128.637958 C100.26,129.637958 100.7,129.997958 101.4,129.997958 C102.1,129.997958 102.54,129.637958 102.54,128.637958 L102.54,117.837958 L104.62,117.837958 L104.62,128.497958 C104.62,130.737958 103.5,132.017958 101.34,132.017958 C99.18,132.017958 98.06,130.737958 98.06,128.497958 L98.06,117.837958 Z M111.82,131.837958 L109.08,121.697958 L109.08,131.837958 L107.1,131.837958 L107.1,117.837958 L109.86,117.837958 L112.12,126.217958 L112.12,117.837958 L114.08,117.837958 L114.08,131.837958 L111.82,131.837958 Z M116.02,119.837958 L116.02,117.837958 L122.82,117.837958 L122.82,119.837958 L120.52,119.837958 L120.52,131.837958 L118.32,131.837958 L118.32,119.837958 L116.02,119.837958 Z M124.5,121.197958 C124.5,118.957958 125.6,117.677958 127.74,117.677958 C129.88,117.677958 130.98,118.957958 130.98,121.197958 L130.98,121.637958 L128.9,121.637958 L128.9,121.057958 C128.9,120.057958 128.5,119.677958 127.8,119.677958 C127.1,119.677958 126.7,120.057958 126.7,121.057958 C126.7,123.937958 131,124.477958 131,128.477958 C131,130.717958 129.88,131.997958 127.72,131.997958 C125.56,131.997958 124.44,130.717958 124.44,128.477958 L124.44,127.617958 L126.52,127.617958 L126.52,128.617958 C126.52,129.617958 126.96,129.977958 127.66,129.977958 C128.36,129.977958 128.8,129.617958 128.8,128.617958 C128.8,125.737958 124.5,125.197958 124.5,121.197958 Z M139.38,121.057958 L139.38,128.617958 C139.38,129.617958 139.82,129.997958 140.52,129.997958 C141.22,129.997958 141.66,129.617958 141.66,128.617958 L141.66,121.057958 C141.66,120.057958 141.22,119.677958 140.52,119.677958 C139.82,119.677958 139.38,120.057958 139.38,121.057958 Z M137.18,128.477958 L137.18,121.197958 C137.18,118.957958 138.36,117.677958 140.52,117.677958 C142.68,117.677958 143.86,118.957958 143.86,121.197958 L143.86,128.477958 C143.86,130.717958 142.68,131.997958 140.52,131.997958 C138.36,131.997958 137.18,130.717958 137.18,128.477958 Z M150.98,131.837958 L148.24,121.697958 L148.24,131.837958 L146.26,131.837958 L146.26,117.837958 L149.02,117.837958 L151.28,126.217958 L151.28,117.837958 L153.24,117.837958 L153.24,131.837958 L150.98,131.837958 Z M159.28,119.837958 L159.28,117.837958 L166.08,117.837958 L166.08,119.837958 L163.78,119.837958 L163.78,131.837958 L161.58,131.837958 L161.58,119.837958 L159.28,119.837958 Z M170.24,125.837958 L170.24,131.837958 L168.04,131.837958 L168.04,117.837958 L170.24,117.837958 L170.24,123.837958 L172.74,123.837958 L172.74,117.837958 L174.98,117.837958 L174.98,131.837958 L172.74,131.837958 L172.74,125.837958 L170.24,125.837958 Z M179.78,119.837958 L179.78,123.737958 L182.8,123.737958 L182.8,125.737958 L179.78,125.737958 L179.78,129.837958 L183.58,129.837958 L183.58,131.837958 L177.58,131.837958 L177.58,117.837958 L183.58,117.837958 L183.58,119.837958 L179.78,119.837958 Z M189.76,121.197958 C189.76,118.957958 190.86,117.677958 193,117.677958 C195.14,117.677958 196.24,118.957958 196.24,121.197958 L196.24,121.637958 L194.16,121.637958 L194.16,121.057958 C194.16,120.057958 193.76,119.677958 193.06,119.677958 C192.36,119.677958 191.96,120.057958 191.96,121.057958 C191.96,123.937958 196.26,124.477958 196.26,128.477958 C196.26,130.717958 195.14,131.997958 192.98,131.997958 C190.82,131.997958 189.7,130.717958 189.7,128.477958 L189.7,127.617958 L191.78,127.617958 L191.78,128.617958 C191.78,129.617958 192.22,129.977958 192.92,129.977958 C193.62,129.977958 194.06,129.617958 194.06,128.617958 C194.06,125.737958 189.76,125.197958 189.76,121.197958 Z M203.4,117.837958 L205.64,131.837958 L203.42,131.837958 L203.04,129.297958 L200.34,129.297958 L199.96,131.837958 L197.94,131.837958 L200.18,117.837958 L203.4,117.837958 Z M201.68,120.317958 L200.62,127.397958 L202.74,127.397958 L201.68,120.317958 Z M210.7,117.837958 L212.32,127.777958 L213.82,117.837958 L216.88,117.837958 L216.88,131.837958 L214.8,131.837958 L214.8,121.797958 L213.28,131.837958 L211.2,131.837958 L209.56,121.937958 L209.56,131.837958 L207.64,131.837958 L207.64,117.837958 L210.7,117.837958 Z M221.68,119.837958 L221.68,123.737958 L224.7,123.737958 L224.7,125.737958 L221.68,125.737958 L221.68,129.837958 L225.48,129.837958 L225.48,131.837958 L219.48,131.837958 L219.48,117.837958 L225.48,117.837958 L225.48,119.837958 L221.68,119.837958 Z M231.94,131.837958 L231.94,117.837958 L235.42,117.837958 C237.62,117.837958 238.7,119.057958 238.7,121.297958 L238.7,128.377958 C238.7,130.617958 237.62,131.837958 235.42,131.837958 L231.94,131.837958 Z M235.38,119.837958 L234.14,119.837958 L234.14,129.837958 L235.38,129.837958 C236.08,129.837958 236.5,129.477958 236.5,128.477958 L236.5,121.197958 C236.5,120.197958 236.08,119.837958 235.38,119.837958 Z M245.96,117.837958 L248.2,131.837958 L245.98,131.837958 L245.6,129.297958 L242.9,129.297958 L242.52,131.837958 L240.5,131.837958 L242.74,117.837958 L245.96,117.837958 Z M244.24,120.317958 L243.18,127.397958 L245.3,127.397958 L244.24,120.317958 Z M251.3,131.837958 L251.3,127.197958 L248.52,117.837958 L250.82,117.837958 L252.5,124.217958 L254.18,117.837958 L256.28,117.837958 L253.5,127.197958 L253.5,131.837958 L251.3,131.837958 Z M258.16,129.717958 L260.28,129.717958 L260.28,131.837958 L258.16,131.837958 L258.16,129.717958 Z" id="The-customers-openin" fill="#333333"></path>
                <rect id="Rectangle-19" fill="#363636" x="358" y="31" width="2" height="74"></rect>
                <path d="M10.16,67.9429611 L10.16,19.9429611 L0.96,19.9429611 L0.96,11.9429611 L28.16,11.9429611 L28.16,19.9429611 L18.96,19.9429611 L18.96,67.9429611 L10.16,67.9429611 Z M32.4,67.9429611 L32.4,11.9429611 L45.44,11.9429611 C54.56,11.9429611 58.48,16.1829611 58.48,24.8229611 L58.48,28.2629611 C58.48,34.0229611 56.64,37.7029611 52.72,39.3029611 L52.72,39.4629611 C57.12,40.8229611 58.56,44.9829611 58.56,51.3029611 L58.56,61.1429611 C58.56,63.8629611 58.64,65.8629611 59.52,67.9429611 L50.56,67.9429611 C50.08,66.5029611 49.76,65.6229611 49.76,61.0629611 L49.76,50.8229611 C49.76,45.6229611 48.24,43.9429611 44.24,43.9429611 L41.2,43.9429611 L41.2,67.9429611 L32.4,67.9429611 Z M41.2,35.9429611 L44.4,35.9429611 C47.68,35.9429611 49.68,34.5029611 49.68,30.0229611 L49.68,25.7029611 C49.68,21.7029611 48.32,19.9429611 45.2,19.9429611 L41.2,19.9429611 L41.2,35.9429611 Z M64.64,67.9429611 L64.64,11.9429611 L73.44,11.9429611 L73.44,67.9429611 L64.64,67.9429611 Z M80,67.9429611 L80,11.9429611 L92.96,11.9429611 C101.76,11.9429611 106.08,16.8229611 106.08,25.7829611 L106.08,31.3029611 C106.08,40.2629611 101.76,45.1429611 92.96,45.1429611 L88.8,45.1429611 L88.8,67.9429611 L80,67.9429611 Z M88.8,37.1429611 L92.96,37.1429611 C95.76,37.1429611 97.28,35.8629611 97.28,31.8629611 L97.28,25.2229611 C97.28,21.2229611 95.76,19.9429611 92.96,19.9429611 L88.8,19.9429611 L88.8,37.1429611 Z M110.88,67.9429611 L110.88,11.9429611 L119.68,11.9429611 L119.68,59.9429611 L134.16,59.9429611 L134.16,67.9429611 L110.88,67.9429611 Z M138.4,67.9429611 L138.4,11.9429611 L162.4,11.9429611 L162.4,19.9429611 L147.2,19.9429611 L147.2,34.7429611 L159.28,34.7429611 L159.28,42.7429611 L147.2,42.7429611 L147.2,59.9429611 L162.4,59.9429611 L162.4,67.9429611 L138.4,67.9429611 Z M167.44,67.9429611 L167.44,11.9429611 L180.88,11.9429611 C189.68,11.9429611 194,16.8229611 194,25.7829611 L194,54.1029611 C194,63.0629611 189.68,67.9429611 180.88,67.9429611 L167.44,67.9429611 Z M176.24,59.9429611 L180.72,59.9429611 C183.52,59.9429611 185.2,58.5029611 185.2,54.5029611 L185.2,25.3829611 C185.2,21.3829611 183.52,19.9429611 180.72,19.9429611 L176.24,19.9429611 L176.24,59.9429611 Z" id="TRIPLEd" fill="#363636"></path>
                <path d="M461.04,94 C463.24,94 464.32,95.22 464.32,97.46 L464.32,99.28 C464.32,101.52 463.24,102.74 461.04,102.74 L460,102.74 L460,108 L457.8,108 L457.8,94 L461.04,94 Z M461.04,96 L460,96 L460,100.74 L461.04,100.74 C461.74,100.74 462.12,100.42 462.12,99.42 L462.12,97.32 C462.12,96.32 461.74,96 461.04,96 Z M473.28,108 L471.04,108 C470.92,107.64 470.84,107.42 470.84,106.28 L470.84,104.08 C470.84,102.78 470.4,102.3 469.4,102.3 L468.64,102.3 L468.64,108 L466.44,108 L466.44,94 L469.76,94 C472.04,94 473.02,95.06 473.02,97.22 L473.02,98.32 C473.02,99.76 472.56,100.7 471.58,101.16 C472.68,101.62 473.04,102.68 473.04,104.14 L473.04,106.3 C473.04,106.98 473.06,107.48 473.28,108 Z M469.7,96 L468.64,96 L468.64,100.3 L469.5,100.3 C470.32,100.3 470.82,99.94 470.82,98.82 L470.82,97.44 C470.82,96.44 470.48,96 469.7,96 Z M477.5,97.22 L477.5,104.78 C477.5,105.78 477.94,106.16 478.64,106.16 C479.34,106.16 479.78,105.78 479.78,104.78 L479.78,97.22 C479.78,96.22 479.34,95.84 478.64,95.84 C477.94,95.84 477.5,96.22 477.5,97.22 Z M475.3,104.64 L475.3,97.36 C475.3,95.12 476.48,93.84 478.64,93.84 C480.8,93.84 481.98,95.12 481.98,97.36 L481.98,104.64 C481.98,106.88 480.8,108.16 478.64,108.16 C476.48,108.16 475.3,106.88 475.3,104.64 Z M483.8,108 L483.8,106 C484.04,106.02 484.32,106.02 484.56,106.02 C485.26,106.02 485.82,105.76 485.82,104.68 L485.82,94 L488.02,94 L488.02,104.52 C488.02,107.32 486.52,108.04 484.86,108.04 C484.46,108.04 484.16,108.04 483.8,108 Z M492.72,96 L492.72,99.9 L495.74,99.9 L495.74,101.9 L492.72,101.9 L492.72,106 L496.52,106 L496.52,108 L490.52,108 L490.52,94 L496.52,94 L496.52,96 L492.72,96 Z M503.18,102.78 L505.26,102.78 L505.26,104.64 C505.26,106.88 504.14,108.16 501.98,108.16 C499.82,108.16 498.7,106.88 498.7,104.64 L498.7,97.36 C498.7,95.12 499.82,93.84 501.98,93.84 C504.14,93.84 505.26,95.12 505.26,97.36 L505.26,98.72 L503.18,98.72 L503.18,97.22 C503.18,96.22 502.74,95.84 502.04,95.84 C501.34,95.84 500.9,96.22 500.9,97.22 L500.9,104.78 C500.9,105.78 501.34,106.14 502.04,106.14 C502.74,106.14 503.18,105.78 503.18,104.78 L503.18,102.78 Z M506.96,96 L506.96,94 L513.76,94 L513.76,96 L511.46,96 L511.46,108 L509.26,108 L509.26,96 L506.96,96 Z M517.92,96 L517.92,99.9 L520.94,99.9 L520.94,101.9 L517.92,101.9 L517.92,106 L521.72,106 L521.72,108 L515.72,108 L515.72,94 L521.72,94 L521.72,96 L517.92,96 Z M524.08,108 L524.08,94 L527.56,94 C529.76,94 530.84,95.22 530.84,97.46 L530.84,104.54 C530.84,106.78 529.76,108 527.56,108 L524.08,108 Z M527.52,96 L526.28,96 L526.28,106 L527.52,106 C528.22,106 528.64,105.64 528.64,104.64 L528.64,97.36 C528.64,96.36 528.22,96 527.52,96 Z M542.04,108 L539.3,97.86 L539.3,108 L537.32,108 L537.32,94 L540.08,94 L542.34,102.38 L542.34,94 L544.3,94 L544.3,108 L542.04,108 Z M549.08,96 L549.08,99.9 L552.1,99.9 L552.1,101.9 L549.08,101.9 L549.08,106 L552.88,106 L552.88,108 L546.88,108 L546.88,94 L552.88,94 L552.88,96 L549.08,96 Z M554.6,96 L554.6,94 L561.4,94 L561.4,96 L559.1,96 L559.1,108 L556.9,108 L556.9,96 L554.6,96 Z M567.46,108 L567.46,94 L569.66,94 L569.66,108 L567.46,108 Z M576.96,108 L574.22,97.86 L574.22,108 L572.24,108 L572.24,94 L575,94 L577.26,102.38 L577.26,94 L579.22,94 L579.22,108 L576.96,108 Z M586.1,102.78 L588.18,102.78 L588.18,104.64 C588.18,106.88 587.06,108.16 584.9,108.16 C582.74,108.16 581.62,106.88 581.62,104.64 L581.62,97.36 C581.62,95.12 582.74,93.84 584.9,93.84 C587.06,93.84 588.18,95.12 588.18,97.36 L588.18,98.72 L586.1,98.72 L586.1,97.22 C586.1,96.22 585.66,95.84 584.96,95.84 C584.26,95.84 583.82,96.22 583.82,97.22 L583.82,104.78 C583.82,105.78 584.26,106.14 584.96,106.14 C585.66,106.14 586.1,105.78 586.1,104.78 L586.1,102.78 Z M592.54,97.22 L592.54,104.78 C592.54,105.78 592.98,106.16 593.68,106.16 C594.38,106.16 594.82,105.78 594.82,104.78 L594.82,97.22 C594.82,96.22 594.38,95.84 593.68,95.84 C592.98,95.84 592.54,96.22 592.54,97.22 Z M590.34,104.64 L590.34,97.36 C590.34,95.12 591.52,93.84 593.68,93.84 C595.84,93.84 597.02,95.12 597.02,97.36 L597.02,104.64 C597.02,106.88 595.84,108.16 593.68,108.16 C591.52,108.16 590.34,106.88 590.34,104.64 Z M602.48,94 L604.1,103.94 L605.6,94 L608.66,94 L608.66,108 L606.58,108 L606.58,97.96 L605.06,108 L602.98,108 L601.34,98.1 L601.34,108 L599.42,108 L599.42,94 L602.48,94 Z M613.46,96 L613.46,99.9 L616.48,99.9 L616.48,101.9 L613.46,101.9 L613.46,106 L617.26,106 L617.26,108 L611.26,108 L611.26,94 L617.26,94 L617.26,96 L613.46,96 Z M627.04,94 C629.32,94 630.3,95.06 630.3,97.22 L630.3,97.72 C630.3,99.16 629.86,100.08 628.88,100.54 C630.06,101 630.52,102.06 630.52,103.54 L630.52,104.68 C630.52,106.84 629.38,108 627.18,108 L623.72,108 L623.72,94 L627.04,94 Z M626.9,101.7 L625.92,101.7 L625.92,106 L627.18,106 C627.92,106 628.32,105.66 628.32,104.62 L628.32,103.4 C628.32,102.1 627.9,101.7 626.9,101.7 Z M626.98,96 L625.92,96 L625.92,99.7 L626.78,99.7 C627.6,99.7 628.1,99.34 628.1,98.22 L628.1,97.44 C628.1,96.44 627.76,96 626.98,96 Z M635.04,96 L635.04,99.9 L638.06,99.9 L638.06,101.9 L635.04,101.9 L635.04,106 L638.84,106 L638.84,108 L632.84,108 L632.84,94 L638.84,94 L638.84,96 L635.04,96 Z M643.4,96 L643.4,100.22 L646.24,100.22 L646.24,102.22 L643.4,102.22 L643.4,108 L641.2,108 L641.2,94 L647.02,94 L647.02,96 L643.4,96 Z M651.1,97.22 L651.1,104.78 C651.1,105.78 651.54,106.16 652.24,106.16 C652.94,106.16 653.38,105.78 653.38,104.78 L653.38,97.22 C653.38,96.22 652.94,95.84 652.24,95.84 C651.54,95.84 651.1,96.22 651.1,97.22 Z M648.9,104.64 L648.9,97.36 C648.9,95.12 650.08,93.84 652.24,93.84 C654.4,93.84 655.58,95.12 655.58,97.36 L655.58,104.64 C655.58,106.88 654.4,108.16 652.24,108.16 C650.08,108.16 648.9,106.88 648.9,104.64 Z M664.84,108 L662.6,108 C662.48,107.64 662.4,107.42 662.4,106.28 L662.4,104.08 C662.4,102.78 661.96,102.3 660.96,102.3 L660.2,102.3 L660.2,108 L658,108 L658,94 L661.32,94 C663.6,94 664.58,95.06 664.58,97.22 L664.58,98.32 C664.58,99.76 664.12,100.7 663.14,101.16 C664.24,101.62 664.6,102.68 664.6,104.14 L664.6,106.3 C664.6,106.98 664.62,107.48 664.84,108 Z M661.26,96 L660.2,96 L660.2,100.3 L661.06,100.3 C661.88,100.3 662.38,99.94 662.38,98.82 L662.38,97.44 C662.38,96.44 662.04,96 661.26,96 Z M669.24,96 L669.24,99.9 L672.26,99.9 L672.26,101.9 L669.24,101.9 L669.24,106 L673.04,106 L673.04,108 L667.04,108 L667.04,94 L673.04,94 L673.04,96 L669.24,96 Z M678.86,96 L678.86,94 L685.66,94 L685.66,96 L683.36,96 L683.36,108 L681.16,108 L681.16,96 L678.86,96 Z M691.74,94 L693.98,108 L691.76,108 L691.38,105.46 L688.68,105.46 L688.3,108 L686.28,108 L688.52,94 L691.74,94 Z M690.02,96.48 L688.96,103.56 L691.08,103.56 L690.02,96.48 Z M701.3,94 L703.34,94 L701.04,100.8 L703.5,108 L701.18,108 L699.38,102.46 L697.56,108 L695.5,108 L697.96,100.8 L695.66,94 L697.94,94 L699.6,99.16 L701.3,94 Z M707.8,96 L707.8,99.9 L710.82,99.9 L710.82,101.9 L707.8,101.9 L707.8,106 L711.6,106 L711.6,108 L705.6,108 L705.6,94 L711.6,94 L711.6,96 L707.8,96 Z M713.68,97.36 C713.68,95.12 714.78,93.84 716.92,93.84 C719.06,93.84 720.16,95.12 720.16,97.36 L720.16,97.8 L718.08,97.8 L718.08,97.22 C718.08,96.22 717.68,95.84 716.98,95.84 C716.28,95.84 715.88,96.22 715.88,97.22 C715.88,100.1 720.18,100.64 720.18,104.64 C720.18,106.88 719.06,108.16 716.9,108.16 C714.74,108.16 713.62,106.88 713.62,104.64 L713.62,103.78 L715.7,103.78 L715.7,104.78 C715.7,105.78 716.14,106.14 716.84,106.14 C717.54,106.14 717.98,105.78 717.98,104.78 C717.98,101.9 713.68,101.36 713.68,97.36 Z M459.82,121.22 L459.82,128.78 C459.82,129.78 460.26,130.16 460.96,130.16 C461.66,130.16 462.1,129.78 462.1,128.78 L462.1,121.22 C462.1,120.22 461.66,119.84 460.96,119.84 C460.26,119.84 459.82,120.22 459.82,121.22 Z M457.62,128.64 L457.62,121.36 C457.62,119.12 458.8,117.84 460.96,117.84 C463.12,117.84 464.3,119.12 464.3,121.36 L464.3,128.64 C464.3,130.88 463.12,132.16 460.96,132.16 C458.8,132.16 457.62,130.88 457.62,128.64 Z M468.34,118 L470.02,129.42 L471.7,118 L473.72,118 L471.56,132 L468.28,132 L466.12,118 L468.34,118 Z M477.94,120 L477.94,123.9 L480.96,123.9 L480.96,125.9 L477.94,125.9 L477.94,130 L481.74,130 L481.74,132 L475.74,132 L475.74,118 L481.74,118 L481.74,120 L477.94,120 Z M490.94,132 L488.7,132 C488.58,131.64 488.5,131.42 488.5,130.28 L488.5,128.08 C488.5,126.78 488.06,126.3 487.06,126.3 L486.3,126.3 L486.3,132 L484.1,132 L484.1,118 L487.42,118 C489.7,118 490.68,119.06 490.68,121.22 L490.68,122.32 C490.68,123.76 490.22,124.7 489.24,125.16 C490.34,125.62 490.7,126.68 490.7,128.14 L490.7,130.3 C490.7,130.98 490.72,131.48 490.94,132 Z M487.36,120 L486.3,120 L486.3,124.3 L487.16,124.3 C487.98,124.3 488.48,123.94 488.48,122.82 L488.48,121.44 C488.48,120.44 488.14,120 487.36,120 Z M496.6,120 L496.6,118 L503.4,118 L503.4,120 L501.1,120 L501.1,132 L498.9,132 L498.9,120 L496.6,120 Z M507.56,126 L507.56,132 L505.36,132 L505.36,118 L507.56,118 L507.56,124 L510.06,124 L510.06,118 L512.3,118 L512.3,132 L510.06,132 L510.06,126 L507.56,126 Z M517.1,120 L517.1,123.9 L520.12,123.9 L520.12,125.9 L517.1,125.9 L517.1,130 L520.9,130 L520.9,132 L514.9,132 L514.9,118 L520.9,118 L520.9,120 L517.1,120 Z M532.06,132 L529.32,121.86 L529.32,132 L527.34,132 L527.34,118 L530.1,118 L532.36,126.38 L532.36,118 L534.32,118 L534.32,132 L532.06,132 Z M539.1,120 L539.1,123.9 L542.12,123.9 L542.12,125.9 L539.1,125.9 L539.1,130 L542.9,130 L542.9,132 L536.9,132 L536.9,118 L542.9,118 L542.9,120 L539.1,120 Z M550.56,118 L552.6,118 L550.3,124.8 L552.76,132 L550.44,132 L548.64,126.46 L546.82,132 L544.76,132 L547.22,124.8 L544.92,118 L547.2,118 L548.86,123.16 L550.56,118 Z M554.22,120 L554.22,118 L561.02,118 L561.02,120 L558.72,120 L558.72,132 L556.52,132 L556.52,120 L554.22,120 Z M566.56,129.46 L566.56,127.46 L570.56,118 L572.96,118 L572.96,127.46 L574,127.46 L574,129.46 L572.96,129.46 L572.96,132 L570.8,132 L570.8,129.46 L566.56,129.46 Z M568.58,127.46 L570.8,127.46 L570.8,122.2 L568.58,127.46 Z M582.16,132 L582.16,127.36 L579.38,118 L581.68,118 L583.36,124.38 L585.04,118 L587.14,118 L584.36,127.36 L584.36,132 L582.16,132 Z M591.22,120 L591.22,123.9 L594.24,123.9 L594.24,125.9 L591.22,125.9 L591.22,130 L595.02,130 L595.02,132 L589.02,132 L589.02,118 L595.02,118 L595.02,120 L591.22,120 Z M602.26,118 L604.5,132 L602.28,132 L601.9,129.46 L599.2,129.46 L598.82,132 L596.8,132 L599.04,118 L602.26,118 Z M600.54,120.48 L599.48,127.56 L601.6,127.56 L600.54,120.48 Z M613.36,132 L611.12,132 C611,131.64 610.92,131.42 610.92,130.28 L610.92,128.08 C610.92,126.78 610.48,126.3 609.48,126.3 L608.72,126.3 L608.72,132 L606.52,132 L606.52,118 L609.84,118 C612.12,118 613.1,119.06 613.1,121.22 L613.1,122.32 C613.1,123.76 612.64,124.7 611.66,125.16 C612.76,125.62 613.12,126.68 613.12,128.14 L613.12,130.3 C613.12,130.98 613.14,131.48 613.36,132 Z M609.78,120 L608.72,120 L608.72,124.3 L609.58,124.3 C610.4,124.3 610.9,123.94 610.9,122.82 L610.9,121.44 C610.9,120.44 610.56,120 609.78,120 Z M615.28,121.36 C615.28,119.12 616.38,117.84 618.52,117.84 C620.66,117.84 621.76,119.12 621.76,121.36 L621.76,121.8 L619.68,121.8 L619.68,121.22 C619.68,120.22 619.28,119.84 618.58,119.84 C617.88,119.84 617.48,120.22 617.48,121.22 C617.48,124.1 621.78,124.64 621.78,128.64 C621.78,130.88 620.66,132.16 618.5,132.16 C616.34,132.16 615.22,130.88 615.22,128.64 L615.22,127.78 L617.3,127.78 L617.3,128.78 C617.3,129.78 617.74,130.14 618.44,130.14 C619.14,130.14 619.58,129.78 619.58,128.78 C619.58,125.9 615.28,125.36 615.28,121.36 Z M624.04,129.88 L626.16,129.88 L626.16,132 L624.04,132 L624.04,129.88 Z" id="Projected-net-income" fill="#333333"></path>
                <path d="M469.4,72.4 L469.4,66.8 C463.08,65.52 459.88,60.64 459.88,53.6 L459.88,49.92 L468.2,49.92 L468.2,54.16 C468.2,57.6 469.96,59.04 472.76,59.04 C475.56,59.04 477.32,57.6 477.32,54 C477.32,50 475.72,47.12 469.8,42.48 C462.6,36.8 460.12,32.32 460.12,26.24 C460.12,19.44 463.24,14.64 469.4,13.28 L469.4,8.4 L476.6,8.4 L476.6,13.28 C482.84,14.56 486.04,19.36 486.04,26.4 L486.04,28 L477.72,28 L477.72,25.84 C477.72,22.4 476.12,20.88 473.32,20.88 C470.52,20.88 468.92,22.4 468.92,25.68 C468.92,29.36 470.52,32.16 476.44,36.88 C483.64,42.64 486.12,47.04 486.12,53.44 C486.12,60.64 482.84,65.52 476.6,66.8 L476.6,72.4 L469.4,72.4 Z M504.76,68.8 C496.12,68.8 491.64,63.84 491.64,54.88 L491.64,50.32 L499.96,50.32 L499.96,55.28 C499.96,59.28 501.72,60.8 504.52,60.8 C507.32,60.8 509.08,59.44 509.08,54.48 L509.08,49.92 C509.08,44.72 507.32,42.8 503.32,42.8 L500.36,42.8 L500.36,34.8 L503.56,34.8 C506.84,34.8 508.84,33.36 508.84,28.88 L508.84,24.8 C508.84,20.8 507,19.2 504.44,19.2 C501.88,19.2 500.2,20.72 500.2,24.4 L500.2,28.08 L491.88,28.08 L491.88,25.12 C491.88,16.16 496.36,11.2 504.76,11.2 C513.16,11.2 517.64,16.08 517.64,25.04 L517.64,27.04 C517.64,33.04 515.72,36.72 511.4,38.32 L511.4,38.48 C516.12,40.24 517.88,44.32 517.88,50 L517.88,54.96 C517.88,63.92 513.4,68.8 504.76,68.8 Z M536.76,68.8 C528.12,68.8 523.64,63.84 523.64,54.88 L523.64,50.32 L531.96,50.32 L531.96,55.28 C531.96,59.28 533.72,60.8 536.52,60.8 C539.32,60.8 541.08,59.44 541.08,54.48 L541.08,49.92 C541.08,44.72 539.32,42.8 535.32,42.8 L532.36,42.8 L532.36,34.8 L535.56,34.8 C538.84,34.8 540.84,33.36 540.84,28.88 L540.84,24.8 C540.84,20.8 539,19.2 536.44,19.2 C533.88,19.2 532.2,20.72 532.2,24.4 L532.2,28.08 L523.88,28.08 L523.88,25.12 C523.88,16.16 528.36,11.2 536.76,11.2 C545.16,11.2 549.64,16.08 549.64,25.04 L549.64,27.04 C549.64,33.04 547.72,36.72 543.4,38.32 L543.4,38.48 C548.12,40.24 549.88,44.32 549.88,50 L549.88,54.96 C549.88,63.92 545.4,68.8 536.76,68.8 Z M567.85,68 L567.85,33 L575.7,33 L579.2,58.05 L579.3,58.05 L582.8,33 L590.65,33 L590.65,68 L585.45,68 L585.45,41.5 L585.35,41.5 L581.35,68 L576.75,68 L572.75,41.5 L572.65,41.5 L572.65,68 L567.85,68 Z M594.75,68 L594.75,33 L600.25,33 L600.25,68 L594.75,68 Z M604.35,68 L604.35,33 L609.85,33 L609.85,63 L618.9,63 L618.9,68 L604.35,68 Z M621.55,68 L621.55,33 L627.05,33 L627.05,63 L636.1,63 L636.1,68 L621.55,68 Z M638.75,68 L638.75,33 L644.25,33 L644.25,68 L638.75,68 Z M656.3,68.5 C650.9,68.5 647.95,65.3 647.95,59.7 L647.95,41.3 C647.95,35.7 650.9,32.5 656.3,32.5 C661.7,32.5 664.65,35.7 664.65,41.3 L664.65,59.7 C664.65,65.3 661.7,68.5 656.3,68.5 Z M656.3,63.5 C658.05,63.5 659.15,62.55 659.15,60.05 L659.15,40.95 C659.15,38.45 658.05,37.5 656.3,37.5 C654.55,37.5 653.45,38.45 653.45,40.95 L653.45,60.05 C653.45,62.55 654.55,63.5 656.3,63.5 Z M668.35,68 L668.35,33 L675.25,33 L680.6,53.95 L680.7,53.95 L680.7,33 L685.6,33 L685.6,68 L679.95,68 L673.35,42.45 L673.25,42.45 L673.25,68 L668.35,68 Z" id="$33-MILLION" fill="#363636"></path>
            </g>
        </g>
    </g>
</svg>