<?xml version="1.0" encoding="UTF-8"?>
<svg width="780px" height="294px" viewBox="0 0 780 294" version="1.1" xmlns="http://www.w3.org/2000/svg" xmlns:xlink="http://www.w3.org/1999/xlink">
    <!-- Generator: Sketch 49.3 (51167) - http://www.bohemiancoding.com/sketch -->
    <title>Image / Relationships</title>
    <desc>Created with Sketch.</desc>
    <defs></defs>
    <g id="Portfolio" stroke="none" stroke-width="1" fill="none" fill-rule="evenodd">
        <g id="AO_PavingPaths" transform="translate(-330.000000, -4072.000000)">
            <g id="Image-/-Relationships" transform="translate(330.000000, 4072.000000)">
                <rect id="Rectangle-12" fill="#FFFFFF" x="0" y="0" width="780" height="275"></rect>
                <text id="Understanding-how-th" font-family="Capitolina-Light, Capitolina" font-size="18" font-weight="300" line-spacing="24" fill="#3C3C3C">
                    <tspan x="1" y="192">Understanding how the </tspan>
                    <tspan x="1" y="216">frame was built taught me </tspan>
                    <tspan x="1" y="240">constraints along with </tspan>
                    <tspan x="1" y="264">appreciation for </tspan>
                    <tspan x="1" y="288">engineering.</tspan>
                </text>
                <text id="Bridging-Design-and" font-family="RuckSack-Bold, RuckSack" font-size="18" font-weight="bold" fill="#333333">
                    <tspan x="1" y="132">Bridging Design and </tspan>
                    <tspan x="1" y="154">Engineering</tspan>
                </text>
                <text id="Nobody-interacts-wit" font-family="Capitolina-Light, Capitolina" font-size="18" font-weight="300" line-spacing="24" fill="#3C3C3C">
                    <tspan x="284" y="192">Nobody interacts with </tspan>
                    <tspan x="284" y="216">customers as directly as </tspan>
                    <tspan x="284" y="240">front-line associates. They </tspan>
                    <tspan x="284" y="264">provide different </tspan>
                    <tspan x="284" y="288">perspectives.</tspan>
                </text>
                <text id="Through-guerilla-tes" font-family="Capitolina-Light, Capitolina" font-size="18" font-weight="300" line-spacing="24" fill="#3C3C3C">
                    <tspan x="570" y="192">Through guerilla tests and </tspan>
                    <tspan x="570" y="216">controlled labs, we were able </tspan>
                    <tspan x="570" y="240">to learn the ‘why’ in our </tspan>
                    <tspan x="570" y="264">analytics.</tspan>
                </text>
                <text id="Talking-to-Branch-As" font-family="RuckSack-Bold, RuckSack" font-size="18" font-weight="bold" fill="#333333">
                    <tspan x="284" y="132">Talking to Branch </tspan>
                    <tspan x="284" y="154">Associates</tspan>
                </text>
                <text id="User-Studies-&amp;-Resea" font-family="RuckSack-Bold, RuckSack" font-size="18" font-weight="bold" fill="#333333">
                    <tspan x="570" y="132">User Studies &amp;</tspan>
                    <tspan x="570" y="154">Research </tspan>
                </text>
                <g id="Icons-/-API" transform="translate(1.000000, 2.000000)">
                    <rect id="Rectangle-6" fill="#CEFFDA" x="0" y="13" width="61" height="60" rx="2"></rect>
                    <g id="Group-7" fill="#000000">
                        <g id="Page-1" transform="translate(0.000000, 26.000000)">
                            <path d="M8.0104,51.8521714 L59.9933778,51.8521714 C64.1489333,51.8521714 67.5489333,48.5093143 67.5489333,44.4236 L67.5459867,13.0757714 L67.5459867,7.57981714 C67.5459867,3.49410286 64.1459867,0.151245714 59.9904311,0.151245714 L8.01047556,0.148348571 C3.85492,0.148348571 0.45492,3.49120571 0.45492,7.57692 L0.45492,44.4211411 C0.45492,48.5097526 3.85492,51.852684 8.01047556,51.852684 L8.0104,51.8521714 Z M1.96595556,7.5764 C1.96595556,4.30901714 4.68716444,1.63354286 8.0104,1.63354286 L59.9933778,1.63354286 C63.3166133,1.63354286 66.0378222,4.30901714 66.0378222,7.5764 L66.0378222,11.58664 L1.96595556,11.5895446 L1.96595556,7.5764 Z M1.96595556,13.0752514 L66.0378222,13.0752514 L66.0378222,44.42308 C66.0378222,47.6904629 63.3166133,50.3659371 59.9933778,50.3659371 L8.0104,50.3659371 C4.68716444,50.3659371 1.96595556,47.6904629 1.96595556,44.42308 L1.96595556,13.0752514 Z" id="Fill-1"></path>
                            <path d="M7.32813333,3.41862857 C5.51600889,3.41862857 4.00489778,4.90434286 4.00489778,6.68601143 C4.00489778,8.46768 5.51600889,9.95339429 7.32813333,9.95339429 C9.14025778,9.95339429 10.6513689,8.46768 10.6513689,6.68601143 C10.6543231,4.90434286 9.14320444,3.41862857 7.32813333,3.41862857 Z M7.32813333,8.46775429 C6.34530667,8.46775429 5.51600889,7.64942286 5.51600889,6.68608571 C5.51600889,5.71977714 6.34832889,4.90441714 7.32813333,4.90441714 C8.31096,4.90441714 9.14025778,5.72274857 9.14025778,6.68608571 C9.143212,7.65239429 8.31088444,8.46775429 7.32813333,8.46775429 Z" id="Fill-2"></path>
                            <path d="M15.1111111,3.41862857 C13.2989867,3.41862857 11.7878756,4.90434286 11.7878756,6.68601143 C11.7878756,8.46768 13.2989867,9.95339429 15.1111111,9.95339429 C16.9232356,9.95339429 18.4343467,8.46768 18.4343467,6.68601143 C18.4343467,4.90434286 17,3.41862857 15.1111111,3.41862857 Z M15.1111111,8.46775429 C14.1282844,8.46775429 13.2989867,7.64942286 13.2989867,6.68608571 C13.2989867,5.71977714 14.1313067,4.90441714 15.1111111,4.90441714 C16.0939378,4.90441714 16.9232356,5.72274857 16.9232356,6.68608571 C16.9232356,7.65239429 16.16768,8.46775429 15.1111111,8.46775429 Z" id="Fill-3"></path>
                            <path d="M22.9673778,3.41862857 C21.1552533,3.41862857 19.6441422,4.90434286 19.6441422,6.68601143 C19.6441422,8.46768 21.1552533,9.95339429 22.9673778,9.95339429 C24.7795022,9.95339429 26.2906133,8.46768 26.2906133,6.68601143 C26.29356,4.90434286 24.7824489,3.41862857 22.9673778,3.41862857 Z M22.9673778,8.46775429 C21.9845511,8.46775429 21.1552533,7.64942286 21.1552533,6.68608571 C21.1552533,5.71977714 21.9875733,4.90441714 22.9673778,4.90441714 C23.9502044,4.90441714 24.7795022,5.72274857 24.7795022,6.68608571 C24.7824489,7.65239429 23.9501289,8.46775429 22.9673778,8.46775429 Z" id="Fill-4"></path>
                            <path d="M44.5007111,41.4521714 C44.6512329,41.6001634 44.8784889,41.675608 45.0290107,41.675608 C45.1795324,41.675608 45.4067884,41.6001634 45.5573102,41.4521714 L55.2291769,31.9428571 C55.5302204,31.6468731 55.5302204,31.2 55.2291769,30.9040457 L45.5603324,21.4675314 C45.2592889,21.1715474 44.8047769,21.1715474 44.5037636,21.4675314 C44.20272,21.7635154 44.20272,22.2103886 44.5037636,22.5063429 L53.6444747,31.4236 L44.5007413,40.4106857 C44.1996978,40.7095669 44.1996978,41.2290171 44.5007413,41.4523943 L44.5007111,41.4521714 Z" id="Fill-5"></path>
                            <path d="M22.4392444,41.4521714 C22.5897662,41.6001634 22.8170222,41.675608 22.967544,41.675608 C23.1180658,41.675608 23.3453218,41.6001634 23.4958436,41.4521714 C23.7968871,41.1561874 23.7968871,40.7093143 23.4958436,40.41336 L14.3551324,31.4233029 L23.4988658,22.4332457 C23.7999093,22.1372617 23.7999093,21.6903886 23.4988658,21.3944343 C23.1978222,21.0984503 22.7433102,21.0984503 22.4422969,21.3944343 L12.767408,30.9037486 C12.4663644,31.1997326 12.4663644,31.6466057 12.767408,31.94256 L22.4392444,41.4521714 Z" id="Fill-6"></path>
                            <path d="M27.5007111,41.6757714 C27.7279671,41.6757714 27.9552231,41.5277794 28.1057449,41.3797874 L41.1005449,22.3611589 C41.3278009,21.9897303 41.2510667,21.5428274 40.8732889,21.3223474 C40.4955111,21.0989109 40.0409689,21.1743554 39.81672,21.545784 L26.8982311,40.5614411 C26.6709751,40.9328697 26.7477093,41.3797726 27.1254871,41.6002526 C27.1992671,41.6756971 27.3497964,41.6756971 27.5003107,41.6756971 L27.5007111,41.6757714 Z" id="Fill-7"></path>
                        </g>
                        <path d="M7.72714063,9.77070336 L14.5164848,9.77070336 C14.8814719,14.3856935 18.5313429,18 23.056453,18 L26.2671716,18 C26.7062949,18 26.9971458,17.6935339 26.9971458,17.230835 L27,0.769165029 C27,0.306466114 26.7091491,0 26.2700258,0 L23.0593072,0 C18.6052966,0 14.9551336,3.6144603 14.519339,8.22929664 L7.72999483,8.22929664 C7.29087154,8.22929664 7.00002062,8.53576276 7.00002062,8.99846167 C6.99716642,9.46116058 7.29087154,9.77062644 7.72714063,9.77062644 L7.72714063,9.77070336 Z M23.056599,1.53833006 L25.5373434,1.53833006 L25.5373434,16.4585933 L23.056599,16.4585933 C19.1871517,16.4585933 15.9764332,13.0754978 15.9764332,8.99830784 C15.9764332,4.9241176 19.1159063,1.53802239 23.056599,1.53802239 L23.056599,1.53833006 Z" id="Fill-5"></path>
                        <path d="M32.7625215,12.38352 C32.3038191,12.38352 32,12.6900385 32,13.1528165 C32,13.6155945 32.3038191,13.922113 32.7625215,13.922113 L37.1082839,13.922113 L37.1082839,17.2307035 C37.1082839,17.6934815 37.412103,18 37.8708054,18 L41.2246799,18 C45.877281,18 49.6901934,14.3849218 50.1454187,9.76929652 L57.2374785,9.76929652 C57.6961809,9.76929652 58,9.46277802 58,9 C58,8.53722198 57.6961809,8.23070348 57.2374785,8.23070348 L50.1454187,8.23070348 C49.764158,3.61492435 45.9515506,0 41.2246799,0 L37.8708054,0 C37.412103,0 37.1082839,0.306518506 37.1082839,0.769296521 L37.1082839,4.077887 L32.7625215,4.077887 C32.3038191,4.077887 32,4.3844055 32,4.84718352 C32,5.30996154 32.3038191,5.61648004 32.7625215,5.61648004 L37.1082839,5.61648004 L37.1082839,12.4619882 L32.7625215,12.4589803 L32.7625215,12.38352 Z M38.555931,1.45720147 L41.147284,1.45720147 C45.1892578,1.45720147 48.5431323,4.84087529 48.5431323,8.91876229 C48.5431323,12.9966493 45.1892578,16.3803231 41.147284,16.3803231 L38.555931,16.3803231 L38.555931,1.45720147 Z" id="Fill-6"></path>
                    </g>
                </g>
                <g id="Icons-/-Bank" transform="translate(284.000000, 13.000000)">
                    <rect id="Rectangle-6" fill="#CEF3FF" x="0" y="2" width="61" height="60" rx="2"></rect>
                    <g id="Group-6" transform="translate(5.000000, 0.000000)">
                        <path d="M65.9710863,15.7902562 L42.5695725,15.7902562 L42.5695725,11.2787062 L51.4207858,11.2787062 C52.0012106,11.2787062 52.4629393,10.8038105 52.4629393,10.2365454 L52.4629393,1.04216083 C52.4629393,0.461725201 51.9880469,0 51.4207858,0 L15.5924523,0 C15.0120275,0 14.5502988,0.474895737 14.5502988,1.04216083 L14.5502988,10.2365454 C14.5502988,10.816981 15.0251912,11.2787062 15.5924523,11.2787062 L24.4436656,11.2787062 L24.4436656,15.7902562 L1.0421532,15.7902562 C0.461721632,15.7902562 0,16.265152 0,16.8324171 L0,57.4361646 L0,65.9578394 C0,66.5382751 0.474892076,67 1.0421532,67 L65.9575781,67 C66.5380097,67 66.9997317,66.5251045 66.9997317,65.9578394 L66.9997317,16.8452499 C67.0129224,16.2648143 66.5380299,15.7899185 65.9708161,15.7899185 L65.9710863,15.7902562 Z M16.6346058,9.19445209 L16.6346058,2.09722203 L50.3651309,2.09722203 L50.3651309,9.19445209 L16.6346058,9.19445209 Z M40.4717573,11.2787062 L40.4717573,15.7902562 L26.5414808,15.7902562 L26.5414808,11.2787062 L40.4717573,11.2787062 Z M59.3487172,64.9158819 L35.6304375,64.9158819 L35.6304375,62.330337 L59.3487172,62.330337 L59.3487172,64.9158819 Z M39.2843912,60.2328434 L39.2843912,40.5506602 L55.7075962,40.5506602 L55.7075962,60.2328434 L39.2843912,60.2328434 Z M64.9160392,64.9158819 L61.4460597,64.9158819 L61.4460597,61.2750056 C61.4460597,60.69457 60.9711605,60.2328434 60.4039061,60.2328434 L57.8051413,60.2328434 L57.8051413,39.5084994 C57.8051413,38.9280637 57.3302489,38.4663385 56.7629877,38.4663385 L38.2291348,38.4663385 C37.6487032,38.4663385 37.1869812,38.9412343 37.1869812,39.5084994 L37.1869812,60.2328434 L34.5882164,60.2328434 C34.0077916,60.2328434 33.5460628,60.7077473 33.5460628,61.2750056 L33.5460628,64.9158819 L2.09774801,64.9158819 L2.09774801,58.4915635 L18.7323535,58.4915635 C19.3127851,58.4915635 19.7745071,58.0166611 19.7745071,57.4494027 C19.7745071,56.8821646 19.2996146,56.4072419 18.7323535,56.4072419 L2.09774801,56.4072419 L2.09774801,17.887816 L64.9160392,17.887816 L64.9160392,64.9158819 Z" id="Fill-1" fill="#000000"></path>
                        <path d="M9.05334504,39 L27.946655,39 C28.5333197,39 29,38.535492 29,37.980635 L29,24.019365 C29,23.4516322 28.5200078,23 27.946655,23 L9.05334504,23 C8.46668032,23 8,23.464508 8,24.019365 L8,37.9674223 C8,38.5351616 8.46665984,38.9996697 9.05334504,38.9996697 L9.05334504,39 Z M10.120002,25.0519427 L26.8929686,25.0519427 L26.8929686,36.9487179 L10.120002,36.9487179 L10.120002,25.0519427 Z" id="Fill-2" fill="#000000"></path>
                        <path d="M25.8778345,57 L23.1221655,57 C22.497171,57 22,57.4556837 22,58 C22,58.5442903 22.5113526,59 23.1221655,59 L25.8778345,59 C26.502829,59 27,58.5443163 27,58 C27,57.4557097 26.4886474,57 25.8778345,57 Z" id="Fill-3" fill="#000000"></path>
                        <path d="M34,24.6392908 C49.54434,21.6248252 75.3079293,17.9440039 44.7425241,34 C44.7425241,34 72.4760891,18.2930473 34,24.6392908 L34,24.6392908 L34,24.6392908 Z" id="Shape" fill="#D03027"></path>
                    </g>
                </g>
                <g id="Icons-/-Chat" transform="translate(570.000000, 0.000000)">
                    <circle id="Oval-4" fill="#FFDDD9" cx="47" cy="40" r="40"></circle>
                    <g id="Page-1" transform="translate(0.000000, 10.000000)" fill="#000000">
                        <path d="M85.5,29.699 C85.5,18.5 76.3984,9.301 65.102,9.301 C61.5004,9.301 58.0004,10.301 54.903,12.1018 C49.2038,4.6018 40.301,0.2038 30.704,0.2038 C14.005,0.2038 0.505,13.5048 0.505,29.9028 C0.505,36.602 2.8058,43.1018 7.005,48.3008 L3.005,63.8008 L16.204,56 C20.6024,58.3984 25.6024,59.6016 30.704,59.6016 C40.4032,59.6016 49.403,55.1016 55.102,47.4026 C58.2036,49.1018 61.602,50.1018 65.204,50.1018 C68.5048,50.1018 71.8056,49.30102 74.8056,47.7034 L84.3056,53.4026 L81.4072,42.1016 C84.001,38.6016 85.501,34.1993 85.501,29.6996 L85.5,29.699 Z M30.699,56.801 C25.8006,56.801 20.9998,55.5002 16.898,53.1018 L16.19878,52.70336 L7.39798,57.90256 L10.09718,47.60156 L9.59718,47 C5.59718,42.1992 3.29638,36.102 3.29638,29.898 C3.29638,15.097 15.59738,3 30.69438,3 C39.79598,3 48.19438,7.3984 53.39338,14.801 C56.49498,19.301 58.09258,24.5002 58.09258,29.903 C58.09258,35.2038 56.49098,40.403 53.49098,44.801 C48.39718,52.301 39.89698,56.801 30.69798,56.801 L30.699,56.801 Z M74.699,44.5 L73.99978,44.89844 C68.80058,48.00004 61.99978,48.00004 56.60178,45.09766 C59.40258,40.49606 60.90258,35.29686 60.90258,29.89866 C60.90258,24.39866 59.40258,19.09766 56.50418,14.39866 C59.10578,12.89866 62.10578,12.09786 65.10578,12.09786 C74.80498,12.09786 82.70778,19.99626 82.70778,29.69986 C82.70778,33.80146 81.30938,37.80146 78.70778,40.89886 L78.20778,41.39886 L79.70778,47.39886 L74.699,44.5 Z" id="Fill-1"></path>
                        <path d="M22.602,30.5 C22.602,33.5664 18.0004,33.5664 18.0004,30.5 C18.0004,27.4336 22.602,27.4336 22.602,30.5" id="Fill-2"></path>
                        <path d="M32.602,30.5 C32.602,33.5664 28.0004,33.5664 28.0004,30.5 C28.0004,27.4336 32.602,27.4336 32.602,30.5" id="Fill-3"></path>
                        <path d="M42.602,30.5 C42.602,33.5664 38.0004,33.5664 38.0004,30.5 C38.0004,27.4336 42.602,27.4336 42.602,30.5" id="Fill-4"></path>
                    </g>
                </g>
            </g>
        </g>
    </g>
</svg>