<?xml version="1.0" encoding="UTF-8"?>
<svg width="780px" height="171px" viewBox="0 0 780 171" version="1.1" xmlns="http://www.w3.org/2000/svg" xmlns:xlink="http://www.w3.org/1999/xlink">
    <!-- Generator: Sketch 49.3 (51167) - http://www.bohemiancoding.com/sketch -->
    <title>Image / Scope</title>
    <desc>Created with Sketch.</desc>
    <defs></defs>
    <g id="Portfolio" stroke="none" stroke-width="1" fill="none" fill-rule="evenodd">
        <g id="AO_PavingPaths" transform="translate(-330.000000, -944.000000)">
            <g id="Image-/-Scope" transform="translate(330.000000, 944.000000)">
                <rect id="Rectangle-7" fill="#FFFFFF" x="0" y="0" width="780" height="171"></rect>
                <text id="Nov-2016-–-Present" font-family="RuckSack-Book, RuckSack" font-size="16" font-weight="300" fill="#1B1B1B">
                    <tspan x="159.056" y="146">Nov 2016 – Present</tspan>
                </text>
                <text id="Sketch,-Invision" font-family="RuckSack-Book, RuckSack" font-size="16" font-weight="300" fill="#1B1B1B">
                    <tspan x="527.316" y="146">Sketch, Invision</tspan>
                </text>
                <g id="Icons-/-Calendar" transform="translate(180.000000, 24.000000)">
                    <rect id="Rectangle-2" fill="#FFE6E6" x="7" y="2" width="83" height="83" rx="9"></rect>
                    <polygon id="Fill-1" fill="#273B49" points="16 43 21 43 21 39 16 39"></polygon>
                    <polygon id="Fill-2" fill="#273B49" points="16 58 21 58 21 54 16 54"></polygon>
                    <polygon id="Fill-3" fill="#273B49" points="3 72 8 72 8 68 3 68"></polygon>
                    <polygon id="Fill-4" fill="#273B49" points="37 43 42 43 42 39 37 39"></polygon>
                    <polygon id="Fill-5" fill="#273B49" points="24 72 29 72 29 68 24 68"></polygon>
                    <polygon id="Fill-6" fill="#273B49" points="58 43 63 43 63 39 58 39"></polygon>
                    <polygon id="Fill-7" fill="#273B49" points="45 72 50 72 50 68 45 68"></polygon>
                    <path d="M71.3125585,6.32001112 L71.3125585,3.02318815 C71.3125585,1.35462438 69.9660361,0 68.3173539,0 L65.8376185,0 C64.1844994,0 62.8424139,1.35910267 62.8424139,3.02318815 L62.8424139,6.25272199 L43.5330826,6.25721176 L43.5330826,3.02767792 C43.5330826,1.35911415 42.1865602,0.0044897697 40.537878,0.0044897697 L38.0581425,0.0044897697 C36.4050235,0.0044897697 35.062938,1.36359244 35.062938,3.02767792 L35.062938,6.25721176 L15.7581572,6.25721176 L15.7581572,3.02767792 C15.7581572,1.35911415 14.4116348,0.0044897697 12.7629526,0.0044897697 L10.2832172,0.0044897697 C8.63009818,0.0044897697 7.28801263,1.36359244 7.28801263,3.02767792 L7.28801263,6.38283345 C3.12398656,7.06462392 0,10.6754437 0,15.0487779 L0,77.2085486 C0,82.0573851 3.90623461,86 8.71007497,86 L70.289925,86 C75.0938792,86 79,82.0572703 79,77.2085486 L78.9955518,15.0441733 C79,10.5496957 75.6315211,6.83581791 71.3119783,6.31989629 L71.3125585,6.32001112 Z M65.1177136,3.02766644 C65.1177136,2.62397758 65.4421259,2.3010242 65.8376299,2.3010242 L68.3173653,2.3010242 C68.7173175,2.3010242 69.0372815,2.62846735 69.0372815,3.02766644 L69.0372815,11.7832915 C69.0372815,12.1869804 68.7128693,12.5099337 68.3173653,12.5099337 L65.8376299,12.5099337 C65.4376777,12.5099337 65.1177136,12.1824906 65.1177136,11.7832915 L65.1177136,3.02766644 Z M37.338579,3.02766644 C37.338579,2.62397758 37.6629912,2.3010242 38.0584952,2.3010242 L40.5382307,2.3010242 C40.9381828,2.3010242 41.2581469,2.62846735 41.2581469,3.02766644 L41.2581469,11.7832915 C41.2581469,12.1869804 40.9337346,12.5099337 40.5382307,12.5099337 L38.0584952,12.5099337 C37.658543,12.5099337 37.338579,12.1824906 37.338579,11.7832915 L37.338579,3.02766644 Z M9.55944437,3.02766644 C9.55944437,2.62397758 9.8838566,2.3010242 10.2793606,2.3010242 L12.759096,2.3010242 C13.1590482,2.3010242 13.4790122,2.62846735 13.4790122,3.02766644 L13.4790122,11.7832915 C13.4790122,12.1869804 13.1546,12.5099337 12.759096,12.5099337 L10.2793606,12.5099337 C9.87940839,12.5099337 9.55944437,12.1824906 9.55944437,11.7832915 L9.55944437,3.02766644 Z M7.28414462,8.71520565 L7.28414462,11.7788132 C7.28414462,13.447377 8.63066701,14.8020014 10.2793492,14.8020014 L12.7590846,14.8020014 C14.4122037,14.8020014 15.7542892,13.4428987 15.7542892,11.7788132 L15.7542892,8.54927938 L35.0636205,8.54927938 L35.0636205,11.7788132 C35.0636205,13.447377 36.4101429,14.8020014 38.0588251,14.8020014 L40.5385606,14.8020014 C42.1916796,14.8020014 43.5337652,13.4428987 43.5337652,11.7788132 L43.5337652,8.54927938 L62.8430965,8.54927938 L62.8430965,11.7788132 C62.8430965,13.447377 64.1896189,14.8020014 65.8383011,14.8020014 L68.3180365,14.8020014 C69.9711555,14.8020014 71.3132411,13.4428987 71.3132411,11.7788132 L71.3132411,8.63895995 C74.375112,9.13684211 76.7259517,11.8146395 76.7259517,15.0441733 L76.7259517,26.2174992 L2.27245562,26.221989 L2.27245562,15.0486631 C2.27245562,11.944751 4.39667547,9.37008048 7.2851685,8.71521714 L7.28414462,8.71520565 Z M70.2906076,83.6989528 L8.71075756,83.6989528 C5.16447537,83.6989528 2.27598234,80.7878367 2.27598234,77.2040589 L2.27153413,28.5193387 L76.7204847,28.5193387 L76.7204796,77.2040589 C76.7249278,80.7834732 73.8363096,83.6989528 70.2901412,83.6989528 L70.2906076,83.6989528 Z" id="Fill-8" fill="#273B49"></path>
                    <polygon id="Fill-9" fill="#273B49" points="43.277907 52.0189159 40.009486 55.2776718 36.722093 52 36 52.7199577 39.287393 55.9976294 36 59.2753012 36.722093 60 40.009486 56.7223282 43.277907 59.9763551 44 59.2563974 40.736322 55.9976416 44 52.7436147"></polygon>
                    <polygon id="Fill-10" fill="#273B49" points="64.2735847 52.0189159 61.0118505 55.2776718 57.7264153 52 57 52.7199577 60.2854352 55.9976294 57 59.2753012 57.7264153 60 61.0118505 56.7223282 64.2735847 59.9763551 65 59.2563974 61.7335256 55.9976416 65 52.7436147"></polygon>
                </g>
                <path d="M404.5,50 C404.142936,50 403.591204,50.2874626 403.597639,50.6445294 L403.597639,65.5976389 L388.64453,65.5976389 C388.287466,65.5976389 388,66.1429033 388,66.4999999 C388,66.8570965 388.287463,67.408796 388.64453,67.4023609 L403.597639,67.4023609 L403.597639,82.3554707 C403.597639,82.7125341 404.142903,83 404.5,83 C404.857097,83 405.402361,82.7125374 405.402361,82.3554707 L405.402361,67.4023609 L420.355471,67.4023609 C420.712534,67.4023609 421,66.8570965 421,66.4999999 C421,66.1429033 420.712537,65.5976389 420.355471,65.5976389 L405.402361,65.5976389 L405.402361,50.6445294 C405.402361,50.2874659 404.857097,50 404.5,50 Z" id="Page-1" fill="#273B49"></path>
                <g id="Icons-/-Tools" transform="translate(536.000000, 0.000000)">
                    <circle id="Oval-2" fill="#FFF7DD" cx="54.5" cy="61.5" r="39.5"></circle>
                    <path d="M22.0435155,93.9997408 C20.4595208,93.9997408 18.9768334,93.3872678 17.86349,92.2737347 L17.7268547,92.1370667 C15.4243818,89.8340406 15.4243818,86.0832168 17.7268547,83.7751372 L55.1185599,46.3796339 C55.6246039,45.8734554 56.4443636,45.8734554 56.9505112,46.3796339 C57.4565552,46.8857994 57.4565552,47.705756 56.9505112,48.2120252 L19.563988,85.6127117 C18.2735641,86.9085121 18.2735641,89.0141877 19.563988,90.3099881 L19.7006232,90.4466562 C20.9455106,91.6918426 23.1468836,91.6918426 24.3967716,90.4466562 L61.7884768,53.0459697 C62.2945208,52.5398041 63.1142805,52.5398041 63.6204281,53.0459697 C64.1265758,53.5521352 64.1264721,54.3720918 63.6204281,54.878361 L26.223541,92.2790475 C25.1102235,93.3875659 23.6275101,94 22.0435155,94 L22.0435155,93.9997408 Z" id="Fill-1" fill="#273B49"></path>
                    <path d="M6.45653444,105.999675 C5.81656901,105.999675 5.18677146,105.745474 4.719543,105.277733 C4.08466151,104.647301 3.84593733,103.71187 4.09990033,102.842452 L10.2557595,82.0232833 C10.3878119,81.5758846 10.6570008,81.1691585 11.0226934,80.8590315 C11.0684099,80.7878512 11.144591,80.6861762 11.2461788,80.5844881 L50.4055255,41.3813008 C50.9134385,40.8728997 51.7361917,40.8728997 52.2441957,41.3813008 C52.7521997,41.8897019 52.7520957,42.7132799 52.2441957,43.2217851 L13.160263,82.344278 C13.1145596,82.4205342 13.073927,82.4866386 13.0231266,82.55273 C12.9317067,82.6747478 12.819964,82.7764228 12.6929825,82.8526921 L6.6692278,103.325656 L27.0622016,97.285806 C27.0977502,97.2654762 27.1383827,97.2451334 27.1790153,97.2248036 C27.4126555,97.1383695 27.5294691,97.0672022 27.6158181,96.980768 L66.7803657,57.7775807 C67.2882787,57.2691796 68.111032,57.2691796 68.619036,57.7775807 C69.12704,58.2859817 69.126936,59.1095597 68.619036,59.6180649 L29.4544884,98.8212523 C29.1345121,99.1466331 28.7434128,99.4008337 28.2913841,99.5889429 C28.1999642,99.6448563 28.0831376,99.7007828 27.9358463,99.7414684 L7.15800125,105.898325 C6.92436102,105.969492 6.69072078,106 6.45709355,106 L6.45653444,105.999675 Z" id="Fill-2" fill="#273B49"></path>
                    <path d="M15.7183538,101 C15.3879466,101 15.0625377,100.87484 14.81223,100.624532 L9.37546152,95.1877613 C8.87484616,94.6871457 8.87484616,93.8761798 9.37546152,93.3754617 C9.8760897,92.8748461 10.6870425,92.8748461 11.1877604,93.3754617 L16.6245289,98.8122323 C17.125157,99.3128479 17.125157,100.123814 16.6245289,100.624532 C16.3742212,100.87484 16.043814,101 15.7184051,101 L15.7183538,101 Z" id="Fill-3" fill="#273B49"></path>
                    <path d="M71.3371844,55 C70.9985241,55 70.6747938,54.8655233 70.435735,54.6264565 L54.373531,38.5637179 C54.1344722,38.3246511 54,38.00091 54,37.6622384 C54,37.3235668 54.1344722,36.9998257 54.373531,36.760759 L57.5410925,33.5980646 C57.5560353,33.578136 57.5709653,33.5632055 57.5859081,33.5482622 L61.440684,29.6983305 C62.5363767,28.6026013 63.9956174,28 65.554536,28 C67.1134546,28 68.5726698,28.6026523 69.668388,29.6983305 L79.3004829,39.3357187 C81.5665057,41.601817 81.5665057,45.2924983 79.3004829,47.5585965 L72.2382386,54.6210759 C71.9991798,54.8651281 71.6754495,54.9996047 71.3367892,54.9996047 L71.3371844,55 Z M57.0778028,37.6622384 L71.3371844,51.9220947 L77.49789,45.7562114 C78.7728705,44.4811885 78.7728705,42.4092762 77.49789,41.1392259 L67.8608227,31.5018377 C66.6306705,30.2716446 64.4641472,30.2766172 63.2439909,31.5018377 L59.4289943,35.3119887 C59.4140516,35.3319045 59.3991088,35.3468478 59.384166,35.3617911 L57.0778028,37.6622384 Z" id="Fill-4" fill="#273B49"></path>
                    <path d="M67.7861876,110 C66.1030491,110 64.4197793,109.364133 63.1419236,108.097531 L43.3848839,88.5076605 C42.8717054,87.9989724 42.8717054,87.1749295 43.3848839,86.6661372 C43.8980493,86.1574491 44.7293453,86.1574491 45.2426158,86.6661372 L64.9996555,106.250799 C66.4827143,107.720918 69.0896609,107.720918 70.5727197,106.250799 L82.2217404,94.7084933 C83.7612892,93.1823769 83.7612892,90.7101699 82.2217404,89.1840535 L62.0850356,69.2230394 C61.5718702,68.7143383 61.5718702,67.8903084 62.0850356,67.3815161 C62.5982142,66.872828 63.4294969,66.872828 63.9427675,67.3815161 L84.0794723,87.3425301 C86.6401759,89.8808918 86.6401759,94.0115247 84.0794723,96.5498864 L72.4304516,108.092192 C71.1526484,109.363925 69.4694574,109.99974 67.7861876,109.99974 L67.7861876,110 Z" id="Fill-5" fill="#273B49"></path>
                    <path d="M22.234278,66.9998686 C21.9013178,66.9998686 21.5733945,66.8715868 21.3211527,66.6150362 L1.88803573,46.8499611 C-0.629345245,44.289578 -0.629345245,40.1231101 1.88803573,37.562727 L13.3349385,25.9202873 C15.8523195,23.3599042 19.9488107,23.3599042 22.4661917,25.9202873 L41.6216373,45.4029479 C42.1261209,45.9160491 42.1261209,46.747241 41.6216373,47.2604473 C41.1171409,47.7735485 40.2999219,47.7735485 39.795335,47.2604473 L20.6450554,27.7777867 C19.131553,26.2384306 16.6747431,26.2384306 15.1662776,27.7777867 L3.71937486,39.4202264 C2.21090935,40.9595825 2.21090935,43.453237 3.71937486,44.9925931 L23.1473258,64.7576682 C23.6518094,65.2707694 23.6518094,66.1019613 23.1473258,66.6151675 C22.8950841,66.8717181 22.5671607,67 22.2342005,67 L22.234278,66.9998686 Z" id="Fill-6" fill="#273B49"></path>
                    <path d="M12.3081217,10 C11.9708757,10 11.6387314,9.87224861 11.3832427,9.6167589 C10.8722524,9.10577949 10.8722524,8.27802476 11.3832427,7.7669407 L18.7669175,0.383234559 C19.2778947,-0.127744853 20.1056459,-0.127744853 20.6167278,0.383234559 C21.1278097,0.894213971 21.1277051,1.7219687 20.6167278,2.23305276 L13.2330531,9.6167589 C12.9775645,9.86714692 12.6454201,10 12.3081741,10 L12.3081217,10 Z" id="Fill-7" fill="#273B49"></path>
                    <path d="M19.2673221,12 C18.9405922,12 18.6188048,11.8762328 18.3712829,11.6287111 C17.876239,11.1336677 17.876239,10.3317284 18.3712829,9.83658358 L22.836588,5.37128254 C23.3316318,4.87623915 24.1335719,4.87623915 24.6287171,5.37128254 C25.123761,5.86633861 25.123761,6.66826531 24.6287171,7.16341009 L20.163412,11.6287111 C19.9158901,11.8762328 19.5941028,12 19.2673728,12 L19.2673221,12 Z" id="Fill-8" fill="#273B49"></path>
                    <path d="M22.3081132,20 C21.9708669,20 21.6387222,19.8722617 21.3832333,19.6167589 C20.8722556,19.1057664 20.8722556,18.2780248 21.3832333,17.7669407 L28.7669153,10.3832346 C29.277893,9.87225515 30.1056451,9.87225515 30.6167274,10.3832346 C31.1278098,10.894214 31.1277052,11.7219687 30.6167274,12.2330528 L23.2330455,19.6167589 C22.9775566,19.8722486 22.6454119,20 22.3081655,20 L22.3081132,20 Z" id="Fill-9" fill="#273B49"></path>
                    <path d="M29.2673299,22 C28.9406004,22 28.6188135,21.8762328 28.3712919,21.6287111 C27.876236,21.1336677 27.876236,20.3317284 28.3712919,19.8365836 L32.8365909,15.3712825 C33.3316341,14.8762392 34.1335731,14.8762392 34.6287176,15.3712825 C35.1237608,15.8663259 35.1237608,16.6682653 34.6287176,17.1634101 L30.1634186,21.6287111 C29.915897,21.8811881 29.5891675,22 29.2673806,22 L29.2673299,22 Z" id="Fill-10" fill="#273B49"></path>
                    <path d="M59.2673299,80 C58.9406004,80 58.6188135,79.8762328 58.3712919,79.6287111 C57.876236,79.1336677 57.876236,78.3317284 58.3712919,77.8365836 L62.8365909,73.3712825 C63.3316341,72.8762392 64.1335731,72.8762392 64.6287176,73.3712825 C65.1237608,73.8663259 65.1237608,74.6682653 64.6287176,75.1634101 L60.1634186,79.6287111 C59.915897,79.8762328 59.5941101,80 59.2673806,80 L59.2673299,80 Z" id="Fill-11" fill="#273B49"></path>
                    <path d="M61.3081184,88 C60.9708707,88 60.6387247,87.8722486 60.3832348,87.6167589 C59.8722551,87.1057795 59.8722551,86.2780248 60.3832348,85.7669407 L67.7669458,78.3832346 C68.2779255,77.8722551 69.1056808,77.8722551 69.6167652,78.3832346 C70.1277449,78.8942271 70.1277449,79.7219687 69.6167652,80.2330528 L62.2330542,87.6167589 C61.9775643,87.8722486 61.6454184,88 61.3081707,88 L61.3081184,88 Z" id="Fill-12" fill="#273B49"></path>
                    <path d="M68.2673152,90 C67.9405871,90 67.6188014,89.8762328 67.3712809,89.6287111 C66.8762397,89.1336677 66.8762397,88.3317284 67.3712809,87.8365836 L71.8365617,83.3712825 C72.3316028,82.8762392 73.1335386,82.8762392 73.6286811,83.3712825 C74.1238237,83.8663259 74.1237223,84.6682653 73.6286811,85.1634101 L69.1634003,89.6287111 C68.9158797,89.8762328 68.5891515,90 68.2673659,90 L68.2673152,90 Z" id="Fill-13" fill="#273B49"></path>
                    <path d="M71.3081184,98 C70.9708707,98 70.6387247,97.8722486 70.3832348,97.6167589 C69.8722551,97.1057795 69.8722551,96.2780248 70.3832348,95.7669407 L77.7669458,88.3832346 C78.2779255,87.8722551 79.1056808,87.8722551 79.6167652,88.3832346 C80.1277449,88.894214 80.1277449,89.7219687 79.6167652,90.2330528 L72.2330542,97.6167589 C71.9775643,97.8722486 71.6403167,98 71.3081707,98 L71.3081184,98 Z" id="Fill-14" fill="#273B49"></path>
                </g>
            </g>
        </g>
    </g>
</svg>