<?xml version="1.0" encoding="UTF-8"?>
<svg width="780px" height="151px" viewBox="0 0 780 151" version="1.1" xmlns="http://www.w3.org/2000/svg" xmlns:xlink="http://www.w3.org/1999/xlink">
    <!-- Generator: Sketch 49.3 (51167) - http://www.bohemiancoding.com/sketch -->
    <title>Image / Scope</title>
    <desc>Created with Sketch.</desc>
    <defs></defs>
    <g id="Portfolio" stroke="none" stroke-width="1" fill="none" fill-rule="evenodd">
        <g id="Ruksak" transform="translate(-330.000000, -1275.000000)">
            <g id="Image-/-Scope" transform="translate(330.000000, 1275.000000)">
                <g>
                    <rect id="Rectangle-7" fill="#FFFFFF" x="0" y="0" width="780" height="151"></rect>
                    <path d="M159.104,136.208 L159.104,140.192 L163.152,140.192 L163.152,141.168 L159.104,141.168 L159.104,146 L157.888,146 L157.888,135.184 L163.632,135.184 L163.632,136.208 L159.104,136.208 Z M168,136.992 C170.176,136.992 171.552,138.608 171.552,141.136 L171.552,146 L170.656,146 L170.4,145.008 C170.4,145.008 169.664,146.208 167.616,146.208 C165.6,146.208 164.368,145.104 164.368,143.344 C164.368,141.632 165.6,140.48 167.472,140.48 C169.52,140.48 170.336,141.648 170.336,141.648 L170.336,140.624 C170.336,139.008 169.36,137.968 167.808,137.968 C166.832,137.968 165.872,138.224 165.344,138.672 L165.328,137.584 C165.84,137.216 166.864,136.992 168,136.992 Z M167.648,141.44 C166.288,141.44 165.6,142.208 165.6,143.344 C165.6,144.528 166.432,145.248 167.808,145.248 C169.328,145.248 170.304,144.512 170.304,143.376 L170.304,142.64 C170.304,142.64 169.424,141.44 167.648,141.44 Z M175.216,146 L174,146 L174,134.32 L175.216,134.32 L175.216,146 Z M178.96,146 L177.744,146 L177.744,134.32 L178.96,134.32 L178.96,146 Z M189.76,137.936 C189.76,136.736 189.088,136.016 187.936,136.016 C186.56,136.016 185.616,136.464 185.264,136.704 L185.264,135.6 C185.568,135.392 186.528,134.976 188.032,134.976 C189.904,134.976 190.992,136.08 190.992,137.936 C190.992,139.568 189.328,142.08 186.528,144.688 L186.144,144.944 L191.12,144.944 L191.12,146 L184.72,146 L184.72,145.168 C186.624,143.408 189.76,139.856 189.76,137.936 Z M196.928,134.976 C199.6,134.976 201.36,137.216 201.36,140.592 C201.36,143.968 199.6,146.208 196.928,146.208 C194.256,146.208 192.48,143.968 192.48,140.592 C192.48,137.216 194.256,134.976 196.928,134.976 Z M196.912,145.168 C198.864,145.168 200.112,143.376 200.112,140.592 C200.112,137.808 198.864,136.016 196.912,136.016 C194.96,136.016 193.712,137.808 193.712,140.592 C193.712,143.376 194.96,145.168 196.912,145.168 Z M205.376,146 L204.16,146 L204.16,136.32 L202.448,136.72 L202.448,135.68 L204.576,135.184 L205.376,135.184 L205.376,146 Z M214.48,143.84 L213.536,143.84 L213.536,146 L212.32,146 L212.32,143.84 L207.088,143.84 L207.088,143.072 L211.84,135.184 L213.536,135.184 L213.536,142.896 L214.48,142.896 L214.48,143.84 Z M208.352,142.896 L212.304,142.896 L212.304,136.48 L208.352,142.896 Z M223.424,134.608 L223.424,135.52 C221.84,135.52 220.784,137.968 220.784,141.616 C220.784,145.264 221.84,147.712 223.424,147.712 L223.424,148.624 C221.152,148.624 219.632,145.824 219.632,141.616 C219.632,137.408 221.152,134.608 223.424,134.608 Z M228.096,134.976 C230.128,134.976 231.312,136.064 231.312,137.92 C231.312,139.104 230.64,140.064 229.488,140.512 C230.72,140.96 231.456,141.936 231.456,143.152 C231.456,145.072 230.096,146.208 227.776,146.208 C226.448,146.208 225.488,145.808 225.168,145.584 L225.168,144.496 C225.52,144.736 226.464,145.168 227.744,145.168 C229.296,145.168 230.224,144.432 230.224,143.104 C230.224,141.808 229.392,141.056 227.984,141.056 L225.952,141.056 L225.952,140.08 L227.888,140.08 C229.264,140.08 230.064,139.296 230.064,137.984 C230.064,136.736 229.28,136.016 227.968,136.016 C226.704,136.016 225.776,136.416 225.376,136.672 L225.376,135.616 C225.744,135.376 226.736,134.976 228.096,134.976 Z M248.112,146 L246.768,146 L246.16,137.344 L246.224,136.832 L243.168,146 L242.032,146 L238.96,136.816 L239.024,137.344 L238.416,146 L237.104,146 L238.096,135.184 L239.52,135.184 L242.544,144.256 L242.592,144.688 L242.64,144.256 L245.664,135.184 L247.12,135.184 L248.112,146 Z M253.936,146.208 C251.344,146.208 249.712,144.368 249.712,141.616 C249.712,138.848 251.344,136.992 253.936,136.992 C256.528,136.992 258.16,138.848 258.16,141.616 C258.16,144.368 256.528,146.208 253.936,146.208 Z M253.936,145.232 C255.776,145.232 256.928,143.792 256.928,141.616 C256.928,139.424 255.776,137.968 253.936,137.968 C252.08,137.968 250.944,139.424 250.944,141.616 C250.944,143.792 252.08,145.232 253.936,145.232 Z M264.304,136.992 C266.176,136.992 266.976,137.952 266.976,139.6 L266.976,146 L265.76,146 L265.76,139.664 C265.76,138.56 265.264,137.952 264.064,137.952 C262.112,137.952 261.28,139.376 261.28,139.376 L261.28,146 L260.064,146 L260.064,137.2 L260.96,137.2 L261.216,138.32 C261.216,138.32 262.112,136.992 264.304,136.992 Z M273.344,137.2 L273.344,138.08 L271.12,138.08 L271.12,146 L269.904,146 L269.904,138.08 L268.4,138.08 L268.4,137.2 L269.904,137.2 L269.904,135.552 L271.12,135.184 L271.12,137.2 L273.344,137.2 Z M276.32,137.328 L276.224,138.304 C276.4,138.144 277.408,136.992 279.248,136.992 C280.96,136.992 281.84,137.952 281.84,139.6 L281.84,146 L280.624,146 L280.624,139.664 C280.624,138.592 280.096,137.952 278.96,137.952 C277.408,137.952 276.336,139.28 276.336,139.28 L276.336,146 L275.12,146 L275.12,134.32 L276.32,134.32 L276.32,137.328 Z M286.672,136.992 C287.888,136.992 288.912,137.504 289.184,137.712 L289.184,138.784 C288.864,138.544 287.856,137.968 286.8,137.968 C285.616,137.968 284.912,138.432 284.912,139.248 C284.912,141.088 289.392,141.312 289.392,143.968 C289.392,145.376 288.288,146.208 286.416,146.208 C285.104,146.208 284.128,145.664 283.888,145.488 L283.888,144.4 C284.16,144.64 285.12,145.232 286.272,145.232 C287.472,145.232 288.16,144.768 288.16,143.968 C288.16,141.904 283.696,141.76 283.696,139.248 C283.696,137.84 284.8,136.992 286.672,136.992 Z M290.848,135.52 L290.848,134.608 C293.12,134.608 294.64,137.408 294.64,141.616 C294.64,145.824 293.12,148.624 290.848,148.624 L290.848,147.712 C292.432,147.712 293.488,145.264 293.488,141.616 C293.488,137.968 292.432,135.52 290.848,135.52 Z" id="Fall-2014-(3-Months)" fill="#1B1B1B"></path>
                    <path d="M543.524,136.184 L546.42,136.184 C549.124,136.184 550.74,137.576 550.74,139.912 C550.74,142.264 549.124,143.656 546.42,143.656 L544.74,143.656 L544.74,147 L543.524,147 L543.524,136.184 Z M544.74,142.68 L546.532,142.68 C548.404,142.68 549.492,141.656 549.492,139.912 C549.492,138.216 548.404,137.208 546.532,137.208 L544.74,137.208 L544.74,142.68 Z M553.684,138.328 L553.588,139.304 C553.764,139.144 554.772,137.992 556.612,137.992 C558.324,137.992 559.204,138.952 559.204,140.6 L559.204,147 L557.988,147 L557.988,140.664 C557.988,139.592 557.46,138.952 556.324,138.952 C554.772,138.952 553.7,140.28 553.7,140.28 L553.7,147 L552.484,147 L552.484,135.32 L553.684,135.32 L553.684,138.328 Z M565.156,147.208 C562.564,147.208 560.932,145.368 560.932,142.616 C560.932,139.848 562.564,137.992 565.156,137.992 C567.748,137.992 569.38,139.848 569.38,142.616 C569.38,145.368 567.748,147.208 565.156,147.208 Z M565.156,146.232 C566.996,146.232 568.148,144.792 568.148,142.616 C568.148,140.424 566.996,138.968 565.156,138.968 C563.3,138.968 562.164,140.424 562.164,142.616 C562.164,144.792 563.3,146.232 565.156,146.232 Z M575.284,138.2 L575.284,139.08 L573.06,139.08 L573.06,147 L571.844,147 L571.844,139.08 L570.34,139.08 L570.34,138.2 L571.844,138.2 L571.844,136.552 L573.06,136.184 L573.06,138.2 L575.284,138.2 Z M580.34,147.208 C577.748,147.208 576.116,145.368 576.116,142.616 C576.116,139.848 577.748,137.992 580.34,137.992 C582.932,137.992 584.564,139.848 584.564,142.616 C584.564,145.368 582.932,147.208 580.34,147.208 Z M580.34,146.232 C582.18,146.232 583.332,144.792 583.332,142.616 C583.332,140.424 582.18,138.968 580.34,138.968 C578.484,138.968 577.348,140.424 577.348,142.616 C577.348,144.792 578.484,146.232 580.34,146.232 Z M588.948,137.992 C590.164,137.992 591.188,138.504 591.46,138.712 L591.46,139.784 C591.14,139.544 590.132,138.968 589.076,138.968 C587.892,138.968 587.188,139.432 587.188,140.248 C587.188,142.088 591.668,142.312 591.668,144.968 C591.668,146.376 590.564,147.208 588.692,147.208 C587.38,147.208 586.404,146.664 586.164,146.488 L586.164,145.4 C586.436,145.64 587.396,146.232 588.548,146.232 C589.748,146.232 590.436,145.768 590.436,144.968 C590.436,142.904 585.972,142.76 585.972,140.248 C585.972,138.84 587.076,137.992 588.948,137.992 Z M594.852,138.328 L594.756,139.304 C594.932,139.144 595.94,137.992 597.78,137.992 C599.492,137.992 600.372,138.952 600.372,140.6 L600.372,147 L599.156,147 L599.156,140.664 C599.156,139.592 598.628,138.952 597.492,138.952 C595.94,138.952 594.868,140.28 594.868,140.28 L594.868,147 L593.652,147 L593.652,135.32 L594.852,135.32 L594.852,138.328 Z M606.324,147.208 C603.732,147.208 602.1,145.368 602.1,142.616 C602.1,139.848 603.732,137.992 606.324,137.992 C608.916,137.992 610.548,139.848 610.548,142.616 C610.548,145.368 608.916,147.208 606.324,147.208 Z M606.324,146.232 C608.164,146.232 609.316,144.792 609.316,142.616 C609.316,140.424 608.164,138.968 606.324,138.968 C604.468,138.968 603.332,140.424 603.332,142.616 C603.332,144.792 604.468,146.232 606.324,146.232 Z M613.556,146.024 C613.556,146.024 613.556,146.024 613.556,146.024 Z M613.556,146.024 L613.668,147.096 L613.668,149.88 L612.452,149.88 L612.452,138.2 L613.348,138.2 L613.604,139.288 C613.604,139.288 614.468,137.992 616.388,137.992 C618.756,137.992 620.116,139.784 620.116,142.6 C620.116,145.416 618.692,147.208 616.356,147.208 C614.421328,147.208 613.557186,146.025624 613.556001,146.024002 L613.556,146.024 Z M616.164,138.968 C614.42,138.968 613.668,140.328 613.668,140.328 L613.668,144.936 C613.668,144.936 614.372,146.232 616.1,146.232 C617.78,146.232 618.868,144.984 618.868,142.6 C618.868,140.344 617.828,138.968 616.164,138.968 Z" id="Photoshop" fill="#1B1B1B"></path>
                    <g id="Icons-/-Calendar" transform="translate(180.000000, 24.000000)">
                        <rect id="Rectangle-2" fill="#FFE6E6" x="7" y="2" width="83" height="83" rx="9"></rect>
                        <polygon id="Fill-1" fill="#273B49" points="16 43 21 43 21 39 16 39"></polygon>
                        <polygon id="Fill-2" fill="#273B49" points="16 58 21 58 21 54 16 54"></polygon>
                        <polygon id="Fill-3" fill="#273B49" points="3 72 8 72 8 68 3 68"></polygon>
                        <polygon id="Fill-4" fill="#273B49" points="37 43 42 43 42 39 37 39"></polygon>
                        <polygon id="Fill-5" fill="#273B49" points="24 72 29 72 29 68 24 68"></polygon>
                        <polygon id="Fill-6" fill="#273B49" points="58 43 63 43 63 39 58 39"></polygon>
                        <polygon id="Fill-7" fill="#273B49" points="45 72 50 72 50 68 45 68"></polygon>
                        <path d="M71.3125585,6.32001112 L71.3125585,3.02318815 C71.3125585,1.35462438 69.9660361,0 68.3173539,0 L65.8376185,0 C64.1844994,0 62.8424139,1.35910267 62.8424139,3.02318815 L62.8424139,6.25272199 L43.5330826,6.25721176 L43.5330826,3.02767792 C43.5330826,1.35911415 42.1865602,0.0044897697 40.537878,0.0044897697 L38.0581425,0.0044897697 C36.4050235,0.0044897697 35.062938,1.36359244 35.062938,3.02767792 L35.062938,6.25721176 L15.7581572,6.25721176 L15.7581572,3.02767792 C15.7581572,1.35911415 14.4116348,0.0044897697 12.7629526,0.0044897697 L10.2832172,0.0044897697 C8.63009818,0.0044897697 7.28801263,1.36359244 7.28801263,3.02767792 L7.28801263,6.38283345 C3.12398656,7.06462392 0,10.6754437 0,15.0487779 L0,77.2085486 C0,82.0573851 3.90623461,86 8.71007497,86 L70.289925,86 C75.0938792,86 79,82.0572703 79,77.2085486 L78.9955518,15.0441733 C79,10.5496957 75.6315211,6.83581791 71.3119783,6.31989629 L71.3125585,6.32001112 Z M65.1177136,3.02766644 C65.1177136,2.62397758 65.4421259,2.3010242 65.8376299,2.3010242 L68.3173653,2.3010242 C68.7173175,2.3010242 69.0372815,2.62846735 69.0372815,3.02766644 L69.0372815,11.7832915 C69.0372815,12.1869804 68.7128693,12.5099337 68.3173653,12.5099337 L65.8376299,12.5099337 C65.4376777,12.5099337 65.1177136,12.1824906 65.1177136,11.7832915 L65.1177136,3.02766644 Z M37.338579,3.02766644 C37.338579,2.62397758 37.6629912,2.3010242 38.0584952,2.3010242 L40.5382307,2.3010242 C40.9381828,2.3010242 41.2581469,2.62846735 41.2581469,3.02766644 L41.2581469,11.7832915 C41.2581469,12.1869804 40.9337346,12.5099337 40.5382307,12.5099337 L38.0584952,12.5099337 C37.658543,12.5099337 37.338579,12.1824906 37.338579,11.7832915 L37.338579,3.02766644 Z M9.55944437,3.02766644 C9.55944437,2.62397758 9.8838566,2.3010242 10.2793606,2.3010242 L12.759096,2.3010242 C13.1590482,2.3010242 13.4790122,2.62846735 13.4790122,3.02766644 L13.4790122,11.7832915 C13.4790122,12.1869804 13.1546,12.5099337 12.759096,12.5099337 L10.2793606,12.5099337 C9.87940839,12.5099337 9.55944437,12.1824906 9.55944437,11.7832915 L9.55944437,3.02766644 Z M7.28414462,8.71520565 L7.28414462,11.7788132 C7.28414462,13.447377 8.63066701,14.8020014 10.2793492,14.8020014 L12.7590846,14.8020014 C14.4122037,14.8020014 15.7542892,13.4428987 15.7542892,11.7788132 L15.7542892,8.54927938 L35.0636205,8.54927938 L35.0636205,11.7788132 C35.0636205,13.447377 36.4101429,14.8020014 38.0588251,14.8020014 L40.5385606,14.8020014 C42.1916796,14.8020014 43.5337652,13.4428987 43.5337652,11.7788132 L43.5337652,8.54927938 L62.8430965,8.54927938 L62.8430965,11.7788132 C62.8430965,13.447377 64.1896189,14.8020014 65.8383011,14.8020014 L68.3180365,14.8020014 C69.9711555,14.8020014 71.3132411,13.4428987 71.3132411,11.7788132 L71.3132411,8.63895995 C74.375112,9.13684211 76.7259517,11.8146395 76.7259517,15.0441733 L76.7259517,26.2174992 L2.27245562,26.221989 L2.27245562,15.0486631 C2.27245562,11.944751 4.39667547,9.37008048 7.2851685,8.71521714 L7.28414462,8.71520565 Z M70.2906076,83.6989528 L8.71075756,83.6989528 C5.16447537,83.6989528 2.27598234,80.7878367 2.27598234,77.2040589 L2.27153413,28.5193387 L76.7204847,28.5193387 L76.7204796,77.2040589 C76.7249278,80.7834732 73.8363096,83.6989528 70.2901412,83.6989528 L70.2906076,83.6989528 Z" id="Fill-8" fill="#273B49"></path>
                        <polygon id="Fill-9" fill="#273B49" points="43.277907 52.0189159 40.009486 55.2776718 36.722093 52 36 52.7199577 39.287393 55.9976294 36 59.2753012 36.722093 60 40.009486 56.7223282 43.277907 59.9763551 44 59.2563974 40.736322 55.9976416 44 52.7436147"></polygon>
                        <polygon id="Fill-10" fill="#273B49" points="64.2735847 52.0189159 61.0118505 55.2776718 57.7264153 52 57 52.7199577 60.2854352 55.9976294 57 59.2753012 57.7264153 60 61.0118505 56.7223282 64.2735847 59.9763551 65 59.2563974 61.7335256 55.9976416 65 52.7436147"></polygon>
                    </g>
                    <path d="M404.5,50 C404.142936,50 403.591204,50.2874626 403.597639,50.6445294 L403.597639,65.5976389 L388.64453,65.5976389 C388.287466,65.5976389 388,66.1429033 388,66.4999999 C388,66.8570965 388.287463,67.408796 388.64453,67.4023609 L403.597639,67.4023609 L403.597639,82.3554707 C403.597639,82.7125341 404.142903,83 404.5,83 C404.857097,83 405.402361,82.7125374 405.402361,82.3554707 L405.402361,67.4023609 L420.355471,67.4023609 C420.712534,67.4023609 421,66.8570965 421,66.4999999 C421,66.1429033 420.712537,65.5976389 420.355471,65.5976389 L405.402361,65.5976389 L405.402361,50.6445294 C405.402361,50.2874659 404.857097,50 404.5,50 Z" id="Page-1" fill="#273B49"></path>
                    <g id="Icons-/-Tools" transform="translate(536.000000, 0.000000)">
                        <circle id="Oval-2" fill="#FFF7DD" cx="54.5" cy="61.5" r="39.5"></circle>
                        <path d="M22.0435155,93.9997408 C20.4595208,93.9997408 18.9768334,93.3872678 17.86349,92.2737347 L17.7268547,92.1370667 C15.4243818,89.8340406 15.4243818,86.0832168 17.7268547,83.7751372 L55.1185599,46.3796339 C55.6246039,45.8734554 56.4443636,45.8734554 56.9505112,46.3796339 C57.4565552,46.8857994 57.4565552,47.705756 56.9505112,48.2120252 L19.563988,85.6127117 C18.2735641,86.9085121 18.2735641,89.0141877 19.563988,90.3099881 L19.7006232,90.4466562 C20.9455106,91.6918426 23.1468836,91.6918426 24.3967716,90.4466562 L61.7884768,53.0459697 C62.2945208,52.5398041 63.1142805,52.5398041 63.6204281,53.0459697 C64.1265758,53.5521352 64.1264721,54.3720918 63.6204281,54.878361 L26.223541,92.2790475 C25.1102235,93.3875659 23.6275101,94 22.0435155,94 L22.0435155,93.9997408 Z" id="Fill-1" fill="#273B49"></path>
                        <path d="M6.45653444,105.999675 C5.81656901,105.999675 5.18677146,105.745474 4.719543,105.277733 C4.08466151,104.647301 3.84593733,103.71187 4.09990033,102.842452 L10.2557595,82.0232833 C10.3878119,81.5758846 10.6570008,81.1691585 11.0226934,80.8590315 C11.0684099,80.7878512 11.144591,80.6861762 11.2461788,80.5844881 L50.4055255,41.3813008 C50.9134385,40.8728997 51.7361917,40.8728997 52.2441957,41.3813008 C52.7521997,41.8897019 52.7520957,42.7132799 52.2441957,43.2217851 L13.160263,82.344278 C13.1145596,82.4205342 13.073927,82.4866386 13.0231266,82.55273 C12.9317067,82.6747478 12.819964,82.7764228 12.6929825,82.8526921 L6.6692278,103.325656 L27.0622016,97.285806 C27.0977502,97.2654762 27.1383827,97.2451334 27.1790153,97.2248036 C27.4126555,97.1383695 27.5294691,97.0672022 27.6158181,96.980768 L66.7803657,57.7775807 C67.2882787,57.2691796 68.111032,57.2691796 68.619036,57.7775807 C69.12704,58.2859817 69.126936,59.1095597 68.619036,59.6180649 L29.4544884,98.8212523 C29.1345121,99.1466331 28.7434128,99.4008337 28.2913841,99.5889429 C28.1999642,99.6448563 28.0831376,99.7007828 27.9358463,99.7414684 L7.15800125,105.898325 C6.92436102,105.969492 6.69072078,106 6.45709355,106 L6.45653444,105.999675 Z" id="Fill-2" fill="#273B49"></path>
                        <path d="M15.7183538,101 C15.3879466,101 15.0625377,100.87484 14.81223,100.624532 L9.37546152,95.1877613 C8.87484616,94.6871457 8.87484616,93.8761798 9.37546152,93.3754617 C9.8760897,92.8748461 10.6870425,92.8748461 11.1877604,93.3754617 L16.6245289,98.8122323 C17.125157,99.3128479 17.125157,100.123814 16.6245289,100.624532 C16.3742212,100.87484 16.043814,101 15.7184051,101 L15.7183538,101 Z" id="Fill-3" fill="#273B49"></path>
                        <path d="M71.3371844,55 C70.9985241,55 70.6747938,54.8655233 70.435735,54.6264565 L54.373531,38.5637179 C54.1344722,38.3246511 54,38.00091 54,37.6622384 C54,37.3235668 54.1344722,36.9998257 54.373531,36.760759 L57.5410925,33.5980646 C57.5560353,33.578136 57.5709653,33.5632055 57.5859081,33.5482622 L61.440684,29.6983305 C62.5363767,28.6026013 63.9956174,28 65.554536,28 C67.1134546,28 68.5726698,28.6026523 69.668388,29.6983305 L79.3004829,39.3357187 C81.5665057,41.601817 81.5665057,45.2924983 79.3004829,47.5585965 L72.2382386,54.6210759 C71.9991798,54.8651281 71.6754495,54.9996047 71.3367892,54.9996047 L71.3371844,55 Z M57.0778028,37.6622384 L71.3371844,51.9220947 L77.49789,45.7562114 C78.7728705,44.4811885 78.7728705,42.4092762 77.49789,41.1392259 L67.8608227,31.5018377 C66.6306705,30.2716446 64.4641472,30.2766172 63.2439909,31.5018377 L59.4289943,35.3119887 C59.4140516,35.3319045 59.3991088,35.3468478 59.384166,35.3617911 L57.0778028,37.6622384 Z" id="Fill-4" fill="#273B49"></path>
                        <path d="M67.7861876,110 C66.1030491,110 64.4197793,109.364133 63.1419236,108.097531 L43.3848839,88.5076605 C42.8717054,87.9989724 42.8717054,87.1749295 43.3848839,86.6661372 C43.8980493,86.1574491 44.7293453,86.1574491 45.2426158,86.6661372 L64.9996555,106.250799 C66.4827143,107.720918 69.0896609,107.720918 70.5727197,106.250799 L82.2217404,94.7084933 C83.7612892,93.1823769 83.7612892,90.7101699 82.2217404,89.1840535 L62.0850356,69.2230394 C61.5718702,68.7143383 61.5718702,67.8903084 62.0850356,67.3815161 C62.5982142,66.872828 63.4294969,66.872828 63.9427675,67.3815161 L84.0794723,87.3425301 C86.6401759,89.8808918 86.6401759,94.0115247 84.0794723,96.5498864 L72.4304516,108.092192 C71.1526484,109.363925 69.4694574,109.99974 67.7861876,109.99974 L67.7861876,110 Z" id="Fill-5" fill="#273B49"></path>
                        <path d="M22.234278,66.9998686 C21.9013178,66.9998686 21.5733945,66.8715868 21.3211527,66.6150362 L1.88803573,46.8499611 C-0.629345245,44.289578 -0.629345245,40.1231101 1.88803573,37.562727 L13.3349385,25.9202873 C15.8523195,23.3599042 19.9488107,23.3599042 22.4661917,25.9202873 L41.6216373,45.4029479 C42.1261209,45.9160491 42.1261209,46.747241 41.6216373,47.2604473 C41.1171409,47.7735485 40.2999219,47.7735485 39.795335,47.2604473 L20.6450554,27.7777867 C19.131553,26.2384306 16.6747431,26.2384306 15.1662776,27.7777867 L3.71937486,39.4202264 C2.21090935,40.9595825 2.21090935,43.453237 3.71937486,44.9925931 L23.1473258,64.7576682 C23.6518094,65.2707694 23.6518094,66.1019613 23.1473258,66.6151675 C22.8950841,66.8717181 22.5671607,67 22.2342005,67 L22.234278,66.9998686 Z" id="Fill-6" fill="#273B49"></path>
                        <path d="M12.3081217,10 C11.9708757,10 11.6387314,9.87224861 11.3832427,9.6167589 C10.8722524,9.10577949 10.8722524,8.27802476 11.3832427,7.7669407 L18.7669175,0.383234559 C19.2778947,-0.127744853 20.1056459,-0.127744853 20.6167278,0.383234559 C21.1278097,0.894213971 21.1277051,1.7219687 20.6167278,2.23305276 L13.2330531,9.6167589 C12.9775645,9.86714692 12.6454201,10 12.3081741,10 L12.3081217,10 Z" id="Fill-7" fill="#273B49"></path>
                        <path d="M19.2673221,12 C18.9405922,12 18.6188048,11.8762328 18.3712829,11.6287111 C17.876239,11.1336677 17.876239,10.3317284 18.3712829,9.83658358 L22.836588,5.37128254 C23.3316318,4.87623915 24.1335719,4.87623915 24.6287171,5.37128254 C25.123761,5.86633861 25.123761,6.66826531 24.6287171,7.16341009 L20.163412,11.6287111 C19.9158901,11.8762328 19.5941028,12 19.2673728,12 L19.2673221,12 Z" id="Fill-8" fill="#273B49"></path>
                        <path d="M22.3081132,20 C21.9708669,20 21.6387222,19.8722617 21.3832333,19.6167589 C20.8722556,19.1057664 20.8722556,18.2780248 21.3832333,17.7669407 L28.7669153,10.3832346 C29.277893,9.87225515 30.1056451,9.87225515 30.6167274,10.3832346 C31.1278098,10.894214 31.1277052,11.7219687 30.6167274,12.2330528 L23.2330455,19.6167589 C22.9775566,19.8722486 22.6454119,20 22.3081655,20 L22.3081132,20 Z" id="Fill-9" fill="#273B49"></path>
                        <path d="M29.2673299,22 C28.9406004,22 28.6188135,21.8762328 28.3712919,21.6287111 C27.876236,21.1336677 27.876236,20.3317284 28.3712919,19.8365836 L32.8365909,15.3712825 C33.3316341,14.8762392 34.1335731,14.8762392 34.6287176,15.3712825 C35.1237608,15.8663259 35.1237608,16.6682653 34.6287176,17.1634101 L30.1634186,21.6287111 C29.915897,21.8811881 29.5891675,22 29.2673806,22 L29.2673299,22 Z" id="Fill-10" fill="#273B49"></path>
                        <path d="M59.2673299,80 C58.9406004,80 58.6188135,79.8762328 58.3712919,79.6287111 C57.876236,79.1336677 57.876236,78.3317284 58.3712919,77.8365836 L62.8365909,73.3712825 C63.3316341,72.8762392 64.1335731,72.8762392 64.6287176,73.3712825 C65.1237608,73.8663259 65.1237608,74.6682653 64.6287176,75.1634101 L60.1634186,79.6287111 C59.915897,79.8762328 59.5941101,80 59.2673806,80 L59.2673299,80 Z" id="Fill-11" fill="#273B49"></path>
                        <path d="M61.3081184,88 C60.9708707,88 60.6387247,87.8722486 60.3832348,87.6167589 C59.8722551,87.1057795 59.8722551,86.2780248 60.3832348,85.7669407 L67.7669458,78.3832346 C68.2779255,77.8722551 69.1056808,77.8722551 69.6167652,78.3832346 C70.1277449,78.8942271 70.1277449,79.7219687 69.6167652,80.2330528 L62.2330542,87.6167589 C61.9775643,87.8722486 61.6454184,88 61.3081707,88 L61.3081184,88 Z" id="Fill-12" fill="#273B49"></path>
                        <path d="M68.2673152,90 C67.9405871,90 67.6188014,89.8762328 67.3712809,89.6287111 C66.8762397,89.1336677 66.8762397,88.3317284 67.3712809,87.8365836 L71.8365617,83.3712825 C72.3316028,82.8762392 73.1335386,82.8762392 73.6286811,83.3712825 C74.1238237,83.8663259 74.1237223,84.6682653 73.6286811,85.1634101 L69.1634003,89.6287111 C68.9158797,89.8762328 68.5891515,90 68.2673659,90 L68.2673152,90 Z" id="Fill-13" fill="#273B49"></path>
                        <path d="M71.3081184,98 C70.9708707,98 70.6387247,97.8722486 70.3832348,97.6167589 C69.8722551,97.1057795 69.8722551,96.2780248 70.3832348,95.7669407 L77.7669458,88.3832346 C78.2779255,87.8722551 79.1056808,87.8722551 79.6167652,88.3832346 C80.1277449,88.894214 80.1277449,89.7219687 79.6167652,90.2330528 L72.2330542,97.6167589 C71.9775643,97.8722486 71.6403167,98 71.3081707,98 L71.3081184,98 Z" id="Fill-14" fill="#273B49"></path>
                    </g>
                </g>
            </g>
        </g>
    </g>
</svg>