<?xml version="1.0" encoding="UTF-8"?>
<svg width="776px" height="175px" viewBox="0 0 776 175" version="1.1" xmlns="http://www.w3.org/2000/svg" xmlns:xlink="http://www.w3.org/1999/xlink">
    <!-- Generator: Sketch 49.3 (51167) - http://www.bohemiancoding.com/sketch -->
    <title>Image / Scope</title>
    <desc>Created with Sketch.</desc>
    <defs>
        <radialGradient cx="32.9589462%" cy="22.4357674%" fx="32.9589462%" fy="22.4357674%" r="0.143168539%" gradientTransform="translate(0.329589,0.224358),scale(0.972678,1.000000),translate(-0.329589,-0.224358)" id="radialGradient-1">
            <stop stop-color="#34364E" stop-opacity="0.98" offset="0%"></stop>
            <stop stop-color="#0C0824" offset="100%"></stop>
        </radialGradient>
    </defs>
    <g id="Portfolio" stroke="none" stroke-width="1" fill="none" fill-rule="evenodd">
        <g id="Ruksak" transform="translate(-331.000000, -1273.000000)">
            <g id="Image-/-Scope" transform="translate(331.000000, 1273.000000)">
                <rect id="Rectangle-2" fill="#FFE6E6" x="0" y="0" width="604" height="120"></rect>
                <rect id="Rectangle-2" fill="#E7E6FF" x="621" y="0" width="155" height="120"></rect>
                <g id="Group-3" transform="translate(27.000000, 31.000000)" fill="#273B49">
                    <polygon id="Fill-1" points="11.3225806 30.5 14.8064516 30.5 14.8064516 27.8088235 11.3225806 27.8088235"></polygon>
                    <polygon id="Fill-2" points="11.3225806 41.2647059 14.8064516 41.2647059 14.8064516 38.5735294 11.3225806 38.5735294"></polygon>
                    <polygon id="Fill-3" points="1.74193548 51.1323529 5.22580645 51.1323529 5.22580645 48.4411765 1.74193548 48.4411765"></polygon>
                    <polygon id="Fill-4" points="25.2580645 30.5 28.7419355 30.5 28.7419355 27.8088235 25.2580645 27.8088235"></polygon>
                    <polygon id="Fill-5" points="16.5483871 51.1323529 20.0322581 51.1323529 20.0322581 48.4411765 16.5483871 48.4411765"></polygon>
                    <polygon id="Fill-6" points="40.0645161 30.5 43.5483871 30.5 43.5483871 27.8088235 40.0645161 27.8088235"></polygon>
                    <polygon id="Fill-7" points="30.483871 51.1323529 33.9677419 51.1323529 33.9677419 48.4411765 30.483871 48.4411765"></polygon>
                    <path d="M48.7452932,4.48279858 L48.7452932,2.14435439 C48.7452932,0.960838222 47.8248854,0 46.6979381,0 L45.0029291,0 C43.872949,0 42.9555741,0.964014681 42.9555741,2.14435439 L42.9555741,4.43507025 L29.7567906,4.43825485 L29.7567906,2.14753899 C29.7567906,0.964022826 28.8363829,0.00318460409 27.7094356,0.00318460409 L26.0144266,0.00318460409 C24.8844465,0.00318460409 23.9670715,0.967199286 23.9670715,2.14753899 L23.9670715,4.43825485 L10.7713986,4.43825485 L10.7713986,2.14753899 C10.7713986,0.964022826 9.85099091,0.00318460409 8.72404358,0.00318460409 L7.02903455,0.00318460409 C5.89905445,0.00318460409 4.98167952,0.967199286 4.98167952,2.14753899 L4.98167952,4.52735861 C2.13538322,5.01095418 0,7.57211704 0,10.6741332 L0,54.7642031 C0,58.2034941 2.67008442,61 5.95372213,61 L48.0462779,61 C51.3299933,61 54,58.2034126 54,54.7642031 L53.9969595,10.6708671 C54,7.48292369 51.6974954,4.84866154 48.7448966,4.48271714 L48.7452932,4.48279858 Z M44.5108422,2.14753085 C44.5108422,1.8611934 44.7325924,1.63212181 45.0029369,1.63212181 L46.6979459,1.63212181 C46.9713309,1.63212181 47.1900405,1.864378 47.1900405,2.14753085 L47.1900405,8.35791607 C47.1900405,8.64425351 46.9682904,8.8733251 46.6979459,8.8733251 L45.0029369,8.8733251 C44.7295518,8.8733251 44.5108422,8.64106891 44.5108422,8.35791607 L44.5108422,2.14753085 Z M25.522573,2.14753085 C25.522573,1.8611934 25.7443231,1.63212181 26.0146676,1.63212181 L27.7096766,1.63212181 C27.9830617,1.63212181 28.2017713,1.864378 28.2017713,2.14753085 L28.2017713,8.35791607 C28.2017713,8.64425351 27.9800211,8.8733251 27.7096766,8.8733251 L26.0146676,8.8733251 C25.7412826,8.8733251 25.522573,8.64106891 25.522573,8.35791607 L25.522573,2.14753085 Z M6.53430374,2.14753085 C6.53430374,1.8611934 6.75605388,1.63212181 7.02639837,1.63212181 L8.7214074,1.63212181 C8.99479244,1.63212181 9.21350203,1.864378 9.21350203,2.14753085 L9.21350203,8.35791607 C9.21350203,8.64425351 8.99175189,8.8733251 8.7214074,8.8733251 L7.02639837,8.8733251 C6.75301333,8.8733251 6.53430374,8.64106891 6.53430374,8.35791607 L6.53430374,2.14753085 Z M4.97903556,6.18171564 L4.97903556,8.35473961 C4.97903556,9.53825577 5.89944327,10.499094 7.0263906,10.499094 L8.72139963,10.499094 C9.85137972,10.499094 10.7687547,9.53507931 10.7687547,8.35473961 L10.7687547,6.06402375 L23.9675381,6.06402375 L23.9675381,8.35473961 C23.9675381,9.53825577 24.8879458,10.499094 26.0148931,10.499094 L27.7099022,10.499094 C28.8398823,10.499094 29.7572572,9.53507931 29.7572572,8.35473961 L29.7572572,6.06402375 L42.9560406,6.06402375 L42.9560406,8.35473961 C42.9560406,9.53825577 43.8764483,10.499094 45.0033957,10.499094 L46.6984047,10.499094 C47.8283848,10.499094 48.7457597,9.53507931 48.7457597,8.35473961 L48.7457597,6.12763438 C50.8386841,6.48078336 52.4455872,8.38015128 52.4455872,10.6708671 L52.4455872,18.5961332 L1.5533241,18.5993178 L1.5533241,10.6740517 C1.5533241,8.47243964 3.00532247,6.64621987 4.97973543,6.18172378 L4.97903556,6.18171564 Z M48.0467444,59.3678619 L5.95418871,59.3678619 C3.53014772,59.3678619 1.55573476,57.3030004 1.55573476,54.7610185 L1.55269421,20.2288333 L52.4418503,20.2288333 L52.4418468,54.7610185 C52.4448873,57.2999054 50.4703888,59.3678619 48.0464256,59.3678619 L48.0467444,59.3678619 Z" id="Fill-8"></path>
                    <polygon id="Fill-9" points="29.1412134 36.7921383 27.0061965 38.98461 24.8587866 36.7794118 24.3870968 37.2637951 26.5345067 39.4689933 24.3870968 41.6741916 24.8587866 42.1617647 27.0061965 39.9565664 29.1412134 42.1458565 29.6129032 41.6614732 27.4809846 39.4690015 29.6129032 37.2797114"></polygon>
                    <polygon id="Fill-10" points="43.9448416 36.7921383 41.8141926 38.98461 39.6680616 36.7794118 39.1935484 37.2637951 41.3396794 39.4689933 39.1935484 41.6741916 39.6680616 42.1617647 41.8141926 39.9565664 43.9448416 42.1458565 44.4193548 41.6614732 42.2856094 39.4690015 44.4193548 37.2797114"></polygon>
                </g>
                <g id="Group-3" transform="translate(96.000000, 31.000000)" fill="#273B49">
                    <polygon id="Fill-1" points="11.3225806 30.5 14.8064516 30.5 14.8064516 27.8088235 11.3225806 27.8088235"></polygon>
                    <polygon id="Fill-2" points="11.3225806 41.2647059 14.8064516 41.2647059 14.8064516 38.5735294 11.3225806 38.5735294"></polygon>
                    <polygon id="Fill-3" points="1.74193548 51.1323529 5.22580645 51.1323529 5.22580645 48.4411765 1.74193548 48.4411765"></polygon>
                    <polygon id="Fill-4" points="25.2580645 30.5 28.7419355 30.5 28.7419355 27.8088235 25.2580645 27.8088235"></polygon>
                    <polygon id="Fill-5" points="16.5483871 51.1323529 20.0322581 51.1323529 20.0322581 48.4411765 16.5483871 48.4411765"></polygon>
                    <polygon id="Fill-6" points="40.0645161 30.5 43.5483871 30.5 43.5483871 27.8088235 40.0645161 27.8088235"></polygon>
                    <polygon id="Fill-7" points="30.483871 51.1323529 33.9677419 51.1323529 33.9677419 48.4411765 30.483871 48.4411765"></polygon>
                    <path d="M48.7452932,4.48279858 L48.7452932,2.14435439 C48.7452932,0.960838222 47.8248854,0 46.6979381,0 L45.0029291,0 C43.872949,0 42.9555741,0.964014681 42.9555741,2.14435439 L42.9555741,4.43507025 L29.7567906,4.43825485 L29.7567906,2.14753899 C29.7567906,0.964022826 28.8363829,0.00318460409 27.7094356,0.00318460409 L26.0144266,0.00318460409 C24.8844465,0.00318460409 23.9670715,0.967199286 23.9670715,2.14753899 L23.9670715,4.43825485 L10.7713986,4.43825485 L10.7713986,2.14753899 C10.7713986,0.964022826 9.85099091,0.00318460409 8.72404358,0.00318460409 L7.02903455,0.00318460409 C5.89905445,0.00318460409 4.98167952,0.967199286 4.98167952,2.14753899 L4.98167952,4.52735861 C2.13538322,5.01095418 0,7.57211704 0,10.6741332 L0,54.7642031 C0,58.2034941 2.67008442,61 5.95372213,61 L48.0462779,61 C51.3299933,61 54,58.2034126 54,54.7642031 L53.9969595,10.6708671 C54,7.48292369 51.6974954,4.84866154 48.7448966,4.48271714 L48.7452932,4.48279858 Z M44.5108422,2.14753085 C44.5108422,1.8611934 44.7325924,1.63212181 45.0029369,1.63212181 L46.6979459,1.63212181 C46.9713309,1.63212181 47.1900405,1.864378 47.1900405,2.14753085 L47.1900405,8.35791607 C47.1900405,8.64425351 46.9682904,8.8733251 46.6979459,8.8733251 L45.0029369,8.8733251 C44.7295518,8.8733251 44.5108422,8.64106891 44.5108422,8.35791607 L44.5108422,2.14753085 Z M25.522573,2.14753085 C25.522573,1.8611934 25.7443231,1.63212181 26.0146676,1.63212181 L27.7096766,1.63212181 C27.9830617,1.63212181 28.2017713,1.864378 28.2017713,2.14753085 L28.2017713,8.35791607 C28.2017713,8.64425351 27.9800211,8.8733251 27.7096766,8.8733251 L26.0146676,8.8733251 C25.7412826,8.8733251 25.522573,8.64106891 25.522573,8.35791607 L25.522573,2.14753085 Z M6.53430374,2.14753085 C6.53430374,1.8611934 6.75605388,1.63212181 7.02639837,1.63212181 L8.7214074,1.63212181 C8.99479244,1.63212181 9.21350203,1.864378 9.21350203,2.14753085 L9.21350203,8.35791607 C9.21350203,8.64425351 8.99175189,8.8733251 8.7214074,8.8733251 L7.02639837,8.8733251 C6.75301333,8.8733251 6.53430374,8.64106891 6.53430374,8.35791607 L6.53430374,2.14753085 Z M4.97903556,6.18171564 L4.97903556,8.35473961 C4.97903556,9.53825577 5.89944327,10.499094 7.0263906,10.499094 L8.72139963,10.499094 C9.85137972,10.499094 10.7687547,9.53507931 10.7687547,8.35473961 L10.7687547,6.06402375 L23.9675381,6.06402375 L23.9675381,8.35473961 C23.9675381,9.53825577 24.8879458,10.499094 26.0148931,10.499094 L27.7099022,10.499094 C28.8398823,10.499094 29.7572572,9.53507931 29.7572572,8.35473961 L29.7572572,6.06402375 L42.9560406,6.06402375 L42.9560406,8.35473961 C42.9560406,9.53825577 43.8764483,10.499094 45.0033957,10.499094 L46.6984047,10.499094 C47.8283848,10.499094 48.7457597,9.53507931 48.7457597,8.35473961 L48.7457597,6.12763438 C50.8386841,6.48078336 52.4455872,8.38015128 52.4455872,10.6708671 L52.4455872,18.5961332 L1.5533241,18.5993178 L1.5533241,10.6740517 C1.5533241,8.47243964 3.00532247,6.64621987 4.97973543,6.18172378 L4.97903556,6.18171564 Z M48.0467444,59.3678619 L5.95418871,59.3678619 C3.53014772,59.3678619 1.55573476,57.3030004 1.55573476,54.7610185 L1.55269421,20.2288333 L52.4418503,20.2288333 L52.4418468,54.7610185 C52.4448873,57.2999054 50.4703888,59.3678619 48.0464256,59.3678619 L48.0467444,59.3678619 Z" id="Fill-8"></path>
                    <polygon id="Fill-9" points="29.1412134 36.7921383 27.0061965 38.98461 24.8587866 36.7794118 24.3870968 37.2637951 26.5345067 39.4689933 24.3870968 41.6741916 24.8587866 42.1617647 27.0061965 39.9565664 29.1412134 42.1458565 29.6129032 41.6614732 27.4809846 39.4690015 29.6129032 37.2797114"></polygon>
                    <polygon id="Fill-10" points="43.9448416 36.7921383 41.8141926 38.98461 39.6680616 36.7794118 39.1935484 37.2637951 41.3396794 39.4689933 39.1935484 41.6741916 39.6680616 42.1617647 41.8141926 39.9565664 43.9448416 42.1458565 44.4193548 41.6614732 42.2856094 39.4690015 44.4193548 37.2797114"></polygon>
                </g>
                <g id="Group-3" transform="translate(164.000000, 31.000000)" fill="#273B49">
                    <polygon id="Fill-1" points="11.3225806 30.5 14.8064516 30.5 14.8064516 27.8088235 11.3225806 27.8088235"></polygon>
                    <polygon id="Fill-2" points="11.3225806 41.2647059 14.8064516 41.2647059 14.8064516 38.5735294 11.3225806 38.5735294"></polygon>
                    <polygon id="Fill-3" points="1.74193548 51.1323529 5.22580645 51.1323529 5.22580645 48.4411765 1.74193548 48.4411765"></polygon>
                    <polygon id="Fill-4" points="25.2580645 30.5 28.7419355 30.5 28.7419355 27.8088235 25.2580645 27.8088235"></polygon>
                    <polygon id="Fill-5" points="16.5483871 51.1323529 20.0322581 51.1323529 20.0322581 48.4411765 16.5483871 48.4411765"></polygon>
                    <polygon id="Fill-6" points="40.0645161 30.5 43.5483871 30.5 43.5483871 27.8088235 40.0645161 27.8088235"></polygon>
                    <polygon id="Fill-7" points="30.483871 51.1323529 33.9677419 51.1323529 33.9677419 48.4411765 30.483871 48.4411765"></polygon>
                    <path d="M48.7452932,4.48279858 L48.7452932,2.14435439 C48.7452932,0.960838222 47.8248854,0 46.6979381,0 L45.0029291,0 C43.872949,0 42.9555741,0.964014681 42.9555741,2.14435439 L42.9555741,4.43507025 L29.7567906,4.43825485 L29.7567906,2.14753899 C29.7567906,0.964022826 28.8363829,0.00318460409 27.7094356,0.00318460409 L26.0144266,0.00318460409 C24.8844465,0.00318460409 23.9670715,0.967199286 23.9670715,2.14753899 L23.9670715,4.43825485 L10.7713986,4.43825485 L10.7713986,2.14753899 C10.7713986,0.964022826 9.85099091,0.00318460409 8.72404358,0.00318460409 L7.02903455,0.00318460409 C5.89905445,0.00318460409 4.98167952,0.967199286 4.98167952,2.14753899 L4.98167952,4.52735861 C2.13538322,5.01095418 0,7.57211704 0,10.6741332 L0,54.7642031 C0,58.2034941 2.67008442,61 5.95372213,61 L48.0462779,61 C51.3299933,61 54,58.2034126 54,54.7642031 L53.9969595,10.6708671 C54,7.48292369 51.6974954,4.84866154 48.7448966,4.48271714 L48.7452932,4.48279858 Z M44.5108422,2.14753085 C44.5108422,1.8611934 44.7325924,1.63212181 45.0029369,1.63212181 L46.6979459,1.63212181 C46.9713309,1.63212181 47.1900405,1.864378 47.1900405,2.14753085 L47.1900405,8.35791607 C47.1900405,8.64425351 46.9682904,8.8733251 46.6979459,8.8733251 L45.0029369,8.8733251 C44.7295518,8.8733251 44.5108422,8.64106891 44.5108422,8.35791607 L44.5108422,2.14753085 Z M25.522573,2.14753085 C25.522573,1.8611934 25.7443231,1.63212181 26.0146676,1.63212181 L27.7096766,1.63212181 C27.9830617,1.63212181 28.2017713,1.864378 28.2017713,2.14753085 L28.2017713,8.35791607 C28.2017713,8.64425351 27.9800211,8.8733251 27.7096766,8.8733251 L26.0146676,8.8733251 C25.7412826,8.8733251 25.522573,8.64106891 25.522573,8.35791607 L25.522573,2.14753085 Z M6.53430374,2.14753085 C6.53430374,1.8611934 6.75605388,1.63212181 7.02639837,1.63212181 L8.7214074,1.63212181 C8.99479244,1.63212181 9.21350203,1.864378 9.21350203,2.14753085 L9.21350203,8.35791607 C9.21350203,8.64425351 8.99175189,8.8733251 8.7214074,8.8733251 L7.02639837,8.8733251 C6.75301333,8.8733251 6.53430374,8.64106891 6.53430374,8.35791607 L6.53430374,2.14753085 Z M4.97903556,6.18171564 L4.97903556,8.35473961 C4.97903556,9.53825577 5.89944327,10.499094 7.0263906,10.499094 L8.72139963,10.499094 C9.85137972,10.499094 10.7687547,9.53507931 10.7687547,8.35473961 L10.7687547,6.06402375 L23.9675381,6.06402375 L23.9675381,8.35473961 C23.9675381,9.53825577 24.8879458,10.499094 26.0148931,10.499094 L27.7099022,10.499094 C28.8398823,10.499094 29.7572572,9.53507931 29.7572572,8.35473961 L29.7572572,6.06402375 L42.9560406,6.06402375 L42.9560406,8.35473961 C42.9560406,9.53825577 43.8764483,10.499094 45.0033957,10.499094 L46.6984047,10.499094 C47.8283848,10.499094 48.7457597,9.53507931 48.7457597,8.35473961 L48.7457597,6.12763438 C50.8386841,6.48078336 52.4455872,8.38015128 52.4455872,10.6708671 L52.4455872,18.5961332 L1.5533241,18.5993178 L1.5533241,10.6740517 C1.5533241,8.47243964 3.00532247,6.64621987 4.97973543,6.18172378 L4.97903556,6.18171564 Z M48.0467444,59.3678619 L5.95418871,59.3678619 C3.53014772,59.3678619 1.55573476,57.3030004 1.55573476,54.7610185 L1.55269421,20.2288333 L52.4418503,20.2288333 L52.4418468,54.7610185 C52.4448873,57.2999054 50.4703888,59.3678619 48.0464256,59.3678619 L48.0467444,59.3678619 Z" id="Fill-8"></path>
                    <polygon id="Fill-9" points="29.1412134 36.7921383 27.0061965 38.98461 24.8587866 36.7794118 24.3870968 37.2637951 26.5345067 39.4689933 24.3870968 41.6741916 24.8587866 42.1617647 27.0061965 39.9565664 29.1412134 42.1458565 29.6129032 41.6614732 27.4809846 39.4690015 29.6129032 37.2797114"></polygon>
                    <polygon id="Fill-10" points="43.9448416 36.7921383 41.8141926 38.98461 39.6680616 36.7794118 39.1935484 37.2637951 41.3396794 39.4689933 39.1935484 41.6741916 39.6680616 42.1617647 41.8141926 39.9565664 43.9448416 42.1458565 44.4193548 41.6614732 42.2856094 39.4690015 44.4193548 37.2797114"></polygon>
                </g>
                <path d="M2.064,145.384 L6.408,145.384 L6.408,146.392 L2.064,146.392 L2.064,154 L0.96,154 L0.96,137.2 L7.344,137.2 L7.344,138.208 L2.064,138.208 L2.064,145.384 Z M16.752,150.28 L11.52,150.28 L10.68,154 L9.67200005,154 L13.344,137.176 L14.952,137.176 L18.696,154 L17.592,154 L16.752,150.28 Z M14.112,138.448 L11.688,149.32 L16.584,149.32 L14.112,138.448 Z M27.9600001,154 L21.5760001,154 L21.5760001,137.2 L22.6800001,137.2 L22.6800001,152.992 L27.9600001,152.992 L27.9600001,154 Z M37.2000001,154 L30.8160001,154 L30.8160001,137.2 L31.9200001,137.2 L31.9200001,152.992 L37.2000001,152.992 L37.2000001,154 Z M48.6000002,137.056 C51.2160002,137.056 52.2240002,138.88 52.2240002,141.328 C52.2240002,146.176 46.1520002,147.856 46.0800002,152.8 L46.0800002,152.992 L52.0800002,152.992 L52.0800002,154 L44.9760002,154 L44.9760002,153.184 C44.9760002,147.256 51.1200002,145.984 51.1200002,141.376 C51.1200002,139.432 50.4720002,138.064 48.5520002,138.064 C46.7040002,138.064 46.0320002,139.504 46.0320002,141.304 L46.0320002,142.456 L44.9760002,142.456 L44.9760002,141.376 C44.9760002,138.952 46.0080002,137.056 48.6000002,137.056 Z M55.1520003,149.896 L55.1520003,141.304 C55.1520003,138.832 56.2800003,137.056 58.8480003,137.056 C61.4160003,137.056 62.5440003,138.832 62.5440003,141.304 L62.5440003,149.896 C62.5440003,152.344 61.4160003,154.144 58.8480003,154.144 C56.2800003,154.144 55.1520003,152.344 55.1520003,149.896 Z M56.2560003,141.232 L56.2560003,149.944 C56.2560003,151.792 57.0000003,153.136 58.8480003,153.136 C60.6960003,153.136 61.4400003,151.792 61.4400003,149.944 L61.4400003,141.232 C61.4400003,139.408 60.6960003,138.064 58.8480003,138.064 C57.0000003,138.064 56.2560003,139.408 56.2560003,141.232 Z M68.7600003,154 L68.7600003,139.072 C68.1600003,139.864 67.2720003,140.392 66.1440003,140.488 L66.1440003,139.528 C67.8000003,139.408 68.5680003,138.424 69.0000003,137.176 L69.8640003,137.176 L69.8640003,154 L68.7600003,154 Z M81.5280004,150.28 L80.1120004,150.28 L80.1120004,154 L79.0320004,154 L79.0320004,150.28 L73.2960004,150.28 L73.2960004,149.248 L78.8640004,137.176 L80.1120004,137.176 L80.1120004,149.272 L81.5280004,149.272 L81.5280004,150.28 Z M79.0320004,139.24 L74.3040004,149.272 L79.0320004,149.272 L79.0320004,139.24 Z M102.984001,138.112 L102.504001,138.112 C100.752001,138.112 100.320001,139.192 100.320001,140.896 L100.320001,150.28 C100.320001,152.008 100.728001,153.064 102.504001,153.064 L102.984001,153.064 L102.984001,154 L102.456001,154 C99.9360006,154 99.2160006,152.632 99.2160006,150.28 L99.2160006,140.896 C99.2160006,138.544 99.9600006,137.176 102.456001,137.176 L102.984001,137.176 L102.984001,138.112 Z M109.464001,137.056 C112.032001,137.056 113.088001,138.856 113.088001,141.304 L113.088001,141.712 C113.088001,143.368 112.296001,144.688 110.856001,145.192 C112.368001,145.648 113.088001,146.944 113.088001,148.6 L113.088001,149.896 C113.088001,152.344 112.032001,154.144 109.464001,154.144 C106.896001,154.144 105.840001,152.344 105.840001,149.896 L105.840001,148.936 L106.896001,148.936 L106.896001,149.944 C106.896001,151.768 107.592001,153.136 109.440001,153.136 C111.288001,153.136 111.984001,151.792 111.984001,149.872 L111.984001,148.576 C111.984001,146.824 111.120001,145.816 109.488001,145.744 L108.360001,145.744 L108.360001,144.736 L109.536001,144.736 C111.048001,144.64 111.984001,143.536 111.984001,141.928 L111.984001,141.328 C111.984001,139.408 111.288001,138.064 109.440001,138.064 C107.592001,138.064 106.896001,139.408 106.896001,141.232 L106.896001,141.904 L105.840001,141.904 L105.840001,141.304 C105.840001,138.856 106.896001,137.056 109.464001,137.056 Z M130.224001,139.072 L126.720001,153.976 L125.616001,153.976 L122.064001,139.12 L122.064001,154 L121.080001,154 L121.080001,137.2 L122.664001,137.2 L126.192001,152.056 L129.696001,137.2 L131.280001,137.2 L131.280001,154 L130.224001,154 L130.224001,139.072 Z M134.328001,149.896 L134.328001,141.304 C134.328001,138.856 135.456001,137.056 138.000001,137.056 C140.592001,137.056 141.720001,138.856 141.720001,141.304 L141.720001,149.896 C141.720001,152.344 140.592001,154.144 138.000001,154.144 C135.456001,154.144 134.328001,152.344 134.328001,149.896 Z M135.432001,141.232 L135.432001,149.968 C135.432001,151.792 136.152001,153.136 138.000001,153.136 C139.872001,153.136 140.616001,151.792 140.616001,149.968 L140.616001,141.232 C140.616001,139.408 139.872001,138.064 138.000001,138.064 C136.152001,138.064 135.432001,139.408 135.432001,141.232 Z M145.752001,139.024 L145.752001,154 L144.744001,154 L144.744001,137.2 L146.184001,137.2 L151.224001,151.384 L151.224001,137.2 L152.232001,137.2 L152.232001,154 L151.008001,154 L145.752001,139.024 Z M159.264001,154 L158.160001,154 L158.160001,138.208 L154.752001,138.208 L154.752001,137.2 L162.696001,137.2 L162.696001,138.208 L159.264001,138.208 L159.264001,154 Z M171.600001,146.104 L166.368001,146.104 L166.368001,154 L165.264001,154 L165.264001,137.2 L166.368001,137.2 L166.368001,145.096 L171.600001,145.096 L171.600001,137.2 L172.728001,137.2 L172.728001,154 L171.600001,154 L171.600001,146.104 Z M179.352001,137.056 C181.896001,137.056 182.928001,138.832 182.928001,141.256 L182.928001,141.616 L181.872001,141.616 L181.872001,141.184 C181.872001,139.408 181.200001,138.064 179.376001,138.064 C177.552001,138.064 176.880001,139.384 176.880001,141.16 C176.880001,145.24 182.952001,145.312 182.952001,149.944 C182.952001,152.368 181.896001,154.144 179.328001,154.144 C176.760001,154.144 175.704001,152.368 175.704001,149.944 L175.704001,149.08 L176.760001,149.08 L176.760001,150.016 C176.760001,151.816 177.456001,153.112 179.304001,153.112 C181.152001,153.112 181.848001,151.816 181.848001,150.016 C181.848001,145.984 175.776001,145.912 175.776001,141.232 C175.776001,138.712 176.880001,137.08 179.352001,137.056 Z M185.712001,137.176 L186.240001,137.176 C188.736001,137.176 189.504001,138.544 189.504001,140.896 L189.504001,150.28 C189.504001,152.632 188.760001,154 186.240001,154 L185.712001,154 L185.712001,153.064 L186.192001,153.064 C187.968001,153.064 188.400001,152.008 188.400001,150.28 L188.400001,140.896 C188.400001,139.192 187.944001,138.112 186.192001,138.112 L185.712001,138.112 L185.712001,137.176 Z" id="Fall-2014-(3-Months)" fill="#273B49"></path>
                <path d="M3.726,174 L2.898,174 L2.898,162.156 L0.324,162.156 L0.324,161.4 L6.282,161.4 L6.282,162.156 L3.726,162.156 L3.726,174 Z M14.114,168.078 L10.19,168.078 L10.19,174 L9.362,174 L9.362,161.4 L10.19,161.4 L10.19,167.322 L14.114,167.322 L14.114,161.4 L14.96,161.4 L14.96,174 L14.114,174 L14.114,168.078 Z M18.4,161.4 L19.228,161.4 L19.228,174 L18.4,174 L18.4,161.4 Z M22.668,161.4 L25.296,161.4 C27.222,161.4 27.996,162.462 27.996,164.244 L27.996,165.342 C27.996,166.818 27.42,167.664 26.178,167.952 C27.474,168.24 27.996,169.158 27.996,170.526 L27.996,172.488 C27.996,173.01 28.032,173.586 28.302,174 L27.438,174 C27.222,173.622 27.168,173.172 27.168,172.488 L27.168,170.508 C27.168,168.834 26.25,168.366 24.81,168.366 L23.496,168.366 L23.496,174 L22.668,174 L22.668,161.4 Z M23.496,167.61 L24.828,167.61 C26.304,167.61 27.168,167.196 27.168,165.504 L27.168,164.316 C27.168,162.966 26.646,162.156 25.278,162.156 L23.496,162.156 L23.496,167.61 Z M31.616,161.4 L34.388,161.4 C36.332,161.4 37.178,162.678 37.178,164.532 L37.178,170.868 C37.178,172.722 36.332,174 34.388,174 L31.616,174 L31.616,161.4 Z M32.444,173.244 L34.37,173.244 C35.774,173.244 36.35,172.29 36.35,170.904 L36.35,164.496 C36.35,163.11 35.756,162.156 34.37,162.156 L32.444,162.156 L32.444,173.244 Z M47.928,174 L47.928,169.158 L45.102,161.4 L45.966,161.4 L48.378,168.024 L50.79,161.4 L51.6,161.4 L48.756,169.158 L48.756,174 L47.928,174 Z M55.634,167.232 L59.072,167.232 L59.072,167.988 L55.634,167.988 L55.634,173.244 L59.774,173.244 L59.774,174 L54.806,174 L54.806,161.4 L59.774,161.4 L59.774,162.156 L55.634,162.156 L55.634,167.232 Z M68.254,171.21 L64.33,171.21 L63.7,174 L62.944,174 L65.698,161.382 L66.904,161.382 L69.712,174 L68.884,174 L68.254,171.21 Z M66.274,162.336 L64.456,170.49 L68.128,170.49 L66.274,162.336 Z M72.972,161.4 L75.6,161.4 C77.526,161.4 78.3,162.462 78.3,164.244 L78.3,165.342 C78.3,166.818 77.724,167.664 76.482,167.952 C77.778,168.24 78.3,169.158 78.3,170.526 L78.3,172.488 C78.3,173.01 78.336,173.586 78.606,174 L77.742,174 C77.526,173.622 77.472,173.172 77.472,172.488 L77.472,170.508 C77.472,168.834 76.554,168.366 75.114,168.366 L73.8,168.366 L73.8,174 L72.972,174 L72.972,161.4 Z M73.8,167.61 L75.132,167.61 C76.608,167.61 77.472,167.196 77.472,165.504 L77.472,164.316 C77.472,162.966 76.95,162.156 75.582,162.156 L73.8,162.156 L73.8,167.61 Z M86.71,161.4 L89.32,161.4 C91.264,161.4 92.02,162.624 92.02,164.46 L92.02,165.828 C92.02,167.826 91.102,168.816 89.104,168.816 L87.538,168.816 L87.538,174 L86.71,174 L86.71,161.4 Z M87.538,168.06 L89.104,168.06 C90.562,168.06 91.192,167.412 91.192,165.882 L91.192,164.406 C91.192,163.038 90.724,162.156 89.32,162.156 L87.538,162.156 L87.538,168.06 Z M95.298,161.4 L97.926,161.4 C99.852,161.4 100.626,162.462 100.626,164.244 L100.626,165.342 C100.626,166.818 100.05,167.664 98.808,167.952 C100.104,168.24 100.626,169.158 100.626,170.526 L100.626,172.488 C100.626,173.01 100.662,173.586 100.932,174 L100.068,174 C99.852,173.622 99.798,173.172 99.798,172.488 L99.798,170.508 C99.798,168.834 98.88,168.366 97.44,168.366 L96.126,168.366 L96.126,174 L95.298,174 L95.298,161.4 Z M96.126,167.61 L97.458,167.61 C98.934,167.61 99.798,167.196 99.798,165.504 L99.798,164.316 C99.798,162.966 99.276,162.156 97.908,162.156 L96.126,162.156 L96.126,167.61 Z M104.192,170.922 L104.192,164.478 C104.192,162.642 105.038,161.292 106.946,161.292 C108.89,161.292 109.736,162.642 109.736,164.478 L109.736,170.922 C109.736,172.758 108.89,174.108 106.946,174.108 C105.038,174.108 104.192,172.758 104.192,170.922 Z M105.02,164.424 L105.02,170.976 C105.02,172.344 105.56,173.352 106.946,173.352 C108.35,173.352 108.908,172.344 108.908,170.976 L108.908,164.424 C108.908,163.056 108.35,162.048 106.946,162.048 C105.56,162.048 105.02,163.056 105.02,164.424 Z M112.906,174 L112.906,173.244 C113.158,173.262 113.41,173.244 113.644,173.226 C114.832,173.136 115.426,172.506 115.426,170.958 L115.426,161.4 L116.254,161.4 L116.254,170.904 C116.254,173.118 115.264,173.928 113.734,174 C113.464,174.018 113.194,174.018 112.906,174 Z M120.486,167.232 L123.924,167.232 L123.924,167.988 L120.486,167.988 L120.486,173.244 L124.626,173.244 L124.626,174 L119.658,174 L119.658,161.4 L124.626,161.4 L124.626,162.156 L120.486,162.156 L120.486,167.232 Z M130.64,161.292 C132.566,161.292 133.358,162.66 133.358,164.478 L133.358,165.522 L132.566,165.522 L132.566,164.424 C132.566,163.074 132.044,162.048 130.658,162.048 C129.272,162.048 128.75,163.074 128.75,164.424 L128.75,170.976 C128.75,172.326 129.272,173.334 130.658,173.334 C132.044,173.334 132.566,172.326 132.566,170.976 L132.566,169.482 L133.358,169.482 L133.358,170.922 C133.358,172.74 132.566,174.108 130.64,174.108 C128.714,174.108 127.922,172.74 127.922,170.922 L127.922,164.478 C127.922,162.66 128.714,161.292 130.64,161.292 Z M139.66,174 L138.832,174 L138.832,162.156 L136.276,162.156 L136.276,161.4 L142.234,161.4 L142.234,162.156 L139.66,162.156 L139.66,174 Z" id="THIRD-YEAR-PRoject" fill="#273B49"></path>
                <path d="M545.92,161.292 C547.846,161.292 548.638,162.66 548.638,164.478 L548.638,165.414 L547.846,165.414 L547.846,164.424 C547.846,163.074 547.324,162.048 545.938,162.048 C544.552,162.048 544.03,163.074 544.03,164.424 L544.03,170.976 C544.03,172.326 544.552,173.334 545.938,173.334 C547.324,173.334 547.846,172.326 547.846,170.976 L547.846,168.258 L546.172,168.258 L546.172,167.502 L548.638,167.502 L548.638,170.922 C548.638,172.74 547.846,174.108 545.92,174.108 C543.994,174.108 543.202,172.74 543.202,170.922 L543.202,164.478 C543.202,162.66 543.994,161.292 545.92,161.292 Z M552.024,161.4 L554.652,161.4 C556.578,161.4 557.352,162.462 557.352,164.244 L557.352,165.342 C557.352,166.818 556.776,167.664 555.534,167.952 C556.83,168.24 557.352,169.158 557.352,170.526 L557.352,172.488 C557.352,173.01 557.388,173.586 557.658,174 L556.794,174 C556.578,173.622 556.524,173.172 556.524,172.488 L556.524,170.508 C556.524,168.834 555.606,168.366 554.166,168.366 L552.852,168.366 L552.852,174 L552.024,174 L552.024,161.4 Z M552.852,167.61 L554.184,167.61 C555.66,167.61 556.524,167.196 556.524,165.504 L556.524,164.316 C556.524,162.966 556.002,162.156 554.634,162.156 L552.852,162.156 L552.852,167.61 Z M566.102,171.21 L562.178,171.21 L561.548,174 L560.792,174 L563.546,161.382 L564.752,161.382 L567.56,174 L566.732,174 L566.102,171.21 Z M564.122,162.336 L562.304,170.49 L565.976,170.49 L564.122,162.336 Z M570.82,161.4 L573.43,161.4 C575.374,161.4 576.13,162.624 576.13,164.46 L576.13,165.828 C576.13,167.826 575.212,168.816 573.214,168.816 L571.648,168.816 L571.648,174 L570.82,174 L570.82,161.4 Z M571.648,168.06 L573.214,168.06 C574.672,168.06 575.302,167.412 575.302,165.882 L575.302,164.406 C575.302,163.038 574.834,162.156 573.43,162.156 L571.648,162.156 L571.648,168.06 Z M584.16,168.078 L580.236,168.078 L580.236,174 L579.408,174 L579.408,161.4 L580.236,161.4 L580.236,167.322 L584.16,167.322 L584.16,161.4 L585.006,161.4 L585.006,174 L584.16,174 L584.16,168.078 Z M588.446,161.4 L589.274,161.4 L589.274,174 L588.446,174 L588.446,161.4 Z M595.378,161.292 C597.304,161.292 598.096,162.66 598.096,164.478 L598.096,165.522 L597.304,165.522 L597.304,164.424 C597.304,163.074 596.782,162.048 595.396,162.048 C594.01,162.048 593.488,163.074 593.488,164.424 L593.488,170.976 C593.488,172.326 594.01,173.334 595.396,173.334 C596.782,173.334 597.304,172.326 597.304,170.976 L597.304,169.482 L598.096,169.482 L598.096,170.922 C598.096,172.74 597.304,174.108 595.378,174.108 C593.452,174.108 592.66,172.74 592.66,170.922 L592.66,164.478 C592.66,162.66 593.452,161.292 595.378,161.292 Z M607.028,161.4 L607.028,170.958 C607.028,172.308 607.532,173.352 608.918,173.352 C610.304,173.352 610.808,172.308 610.808,170.958 L610.808,161.4 L611.582,161.4 L611.582,170.922 C611.582,172.722 610.826,174.108 608.9,174.108 C606.974,174.108 606.2,172.722 606.2,170.922 L606.2,161.4 L607.028,161.4 Z M617.632,161.292 C619.54,161.292 620.314,162.624 620.314,164.442 L620.314,164.712 L619.522,164.712 L619.522,164.388 C619.522,163.056 619.018,162.048 617.65,162.048 C616.282,162.048 615.778,163.038 615.778,164.37 C615.778,167.43 620.332,167.484 620.332,170.958 C620.332,172.776 619.54,174.108 617.614,174.108 C615.688,174.108 614.896,172.776 614.896,170.958 L614.896,170.31 L615.688,170.31 L615.688,171.012 C615.688,172.362 616.21,173.334 617.596,173.334 C618.982,173.334 619.504,172.362 619.504,171.012 C619.504,167.988 614.95,167.934 614.95,164.424 C614.95,162.534 615.778,161.31 617.632,161.292 Z M624.492,167.232 L627.93,167.232 L627.93,167.988 L624.492,167.988 L624.492,173.244 L628.632,173.244 L628.632,174 L623.664,174 L623.664,161.4 L628.632,161.4 L628.632,162.156 L624.492,162.156 L624.492,167.232 Z M631.982,161.4 L634.61,161.4 C636.536,161.4 637.31,162.462 637.31,164.244 L637.31,165.342 C637.31,166.818 636.734,167.664 635.492,167.952 C636.788,168.24 637.31,169.158 637.31,170.526 L637.31,172.488 C637.31,173.01 637.346,173.586 637.616,174 L636.752,174 C636.536,173.622 636.482,173.172 636.482,172.488 L636.482,170.508 C636.482,168.834 635.564,168.366 634.124,168.366 L632.81,168.366 L632.81,174 L631.982,174 L631.982,161.4 Z M632.81,167.61 L634.142,167.61 C635.618,167.61 636.482,167.196 636.482,165.504 L636.482,164.316 C636.482,162.966 635.96,162.156 634.592,162.156 L632.81,162.156 L632.81,167.61 Z M645.72,161.4 L646.548,161.4 L646.548,174 L645.72,174 L645.72,161.4 Z M650.744,162.768 L650.744,174 L649.988,174 L649.988,161.4 L651.068,161.4 L654.848,172.038 L654.848,161.4 L655.604,161.4 L655.604,174 L654.686,174 L650.744,162.768 Z M662.032,174 L661.204,174 L661.204,162.156 L658.63,162.156 L658.63,161.4 L664.588,161.4 L664.588,162.156 L662.032,162.156 L662.032,174 Z M668.496,167.232 L671.934,167.232 L671.934,167.988 L668.496,167.988 L668.496,173.244 L672.636,173.244 L672.636,174 L667.668,174 L667.668,161.4 L672.636,161.4 L672.636,162.156 L668.496,162.156 L668.496,167.232 Z M675.986,161.4 L678.614,161.4 C680.54,161.4 681.314,162.462 681.314,164.244 L681.314,165.342 C681.314,166.818 680.738,167.664 679.496,167.952 C680.792,168.24 681.314,169.158 681.314,170.526 L681.314,172.488 C681.314,173.01 681.35,173.586 681.62,174 L680.756,174 C680.54,173.622 680.486,173.172 680.486,172.488 L680.486,170.508 C680.486,168.834 679.568,168.366 678.128,168.366 L676.814,168.366 L676.814,174 L675.986,174 L675.986,161.4 Z M676.814,167.61 L678.146,167.61 C679.622,167.61 680.486,167.196 680.486,165.504 L680.486,164.316 C680.486,162.966 679.964,162.156 678.596,162.156 L676.814,162.156 L676.814,167.61 Z M685.762,167.538 L689.02,167.538 L689.02,168.294 L685.762,168.294 L685.762,174 L684.934,174 L684.934,161.4 L689.722,161.4 L689.722,162.156 L685.762,162.156 L685.762,167.538 Z M697.878,171.21 L693.954,171.21 L693.324,174 L692.568,174 L695.322,161.382 L696.528,161.382 L699.336,174 L698.508,174 L697.878,171.21 Z M695.898,162.336 L694.08,170.49 L697.752,170.49 L695.898,162.336 Z M705.26,161.292 C707.186,161.292 707.978,162.66 707.978,164.478 L707.978,165.522 L707.186,165.522 L707.186,164.424 C707.186,163.074 706.664,162.048 705.278,162.048 C703.892,162.048 703.37,163.074 703.37,164.424 L703.37,170.976 C703.37,172.326 703.892,173.334 705.278,173.334 C706.664,173.334 707.186,172.326 707.186,170.976 L707.186,169.482 L707.978,169.482 L707.978,170.922 C707.978,172.74 707.186,174.108 705.26,174.108 C703.334,174.108 702.542,172.74 702.542,170.922 L702.542,164.478 C702.542,162.66 703.334,161.292 705.26,161.292 Z M712.156,167.232 L715.594,167.232 L715.594,167.988 L712.156,167.988 L712.156,173.244 L716.296,173.244 L716.296,174 L711.328,174 L711.328,161.4 L716.296,161.4 L716.296,162.156 L712.156,162.156 L712.156,167.232 Z M727.1,161.292 C729.026,161.292 729.818,162.66 729.818,164.478 L729.818,165.522 L729.026,165.522 L729.026,164.424 C729.026,163.074 728.504,162.048 727.118,162.048 C725.732,162.048 725.21,163.074 725.21,164.424 L725.21,170.976 C725.21,172.326 725.732,173.334 727.118,173.334 C728.504,173.334 729.026,172.326 729.026,170.976 L729.026,169.482 L729.818,169.482 L729.818,170.922 C729.818,172.74 729.026,174.108 727.1,174.108 C725.174,174.108 724.382,172.74 724.382,170.922 L724.382,164.478 C724.382,162.66 725.174,161.292 727.1,161.292 Z M733.114,170.922 L733.114,164.478 C733.114,162.642 733.96,161.292 735.868,161.292 C737.812,161.292 738.658,162.642 738.658,164.478 L738.658,170.922 C738.658,172.758 737.812,174.108 735.868,174.108 C733.96,174.108 733.114,172.758 733.114,170.922 Z M733.942,164.424 L733.942,170.976 C733.942,172.344 734.482,173.352 735.868,173.352 C737.272,173.352 737.83,172.344 737.83,170.976 L737.83,164.424 C737.83,163.056 737.272,162.048 735.868,162.048 C734.482,162.048 733.942,163.056 733.942,164.424 Z M742.818,161.4 L742.818,170.958 C742.818,172.308 743.322,173.352 744.708,173.352 C746.094,173.352 746.598,172.308 746.598,170.958 L746.598,161.4 L747.372,161.4 L747.372,170.922 C747.372,172.722 746.616,174.108 744.69,174.108 C742.764,174.108 741.99,172.722 741.99,170.922 L741.99,161.4 L742.818,161.4 Z M750.794,161.4 L753.422,161.4 C755.348,161.4 756.122,162.462 756.122,164.244 L756.122,165.342 C756.122,166.818 755.546,167.664 754.304,167.952 C755.6,168.24 756.122,169.158 756.122,170.526 L756.122,172.488 C756.122,173.01 756.158,173.586 756.428,174 L755.564,174 C755.348,173.622 755.294,173.172 755.294,172.488 L755.294,170.508 C755.294,168.834 754.376,168.366 752.936,168.366 L751.622,168.366 L751.622,174 L750.794,174 L750.794,161.4 Z M751.622,167.61 L752.954,167.61 C754.43,167.61 755.294,167.196 755.294,165.504 L755.294,164.316 C755.294,162.966 754.772,162.156 753.404,162.156 L751.622,162.156 L751.622,167.61 Z M762.37,161.292 C764.278,161.292 765.052,162.624 765.052,164.442 L765.052,164.712 L764.26,164.712 L764.26,164.388 C764.26,163.056 763.756,162.048 762.388,162.048 C761.02,162.048 760.516,163.038 760.516,164.37 C760.516,167.43 765.07,167.484 765.07,170.958 C765.07,172.776 764.278,174.108 762.352,174.108 C760.426,174.108 759.634,172.776 759.634,170.958 L759.634,170.31 L760.426,170.31 L760.426,171.012 C760.426,172.362 760.948,173.334 762.334,173.334 C763.72,173.334 764.242,172.362 764.242,171.012 C764.242,167.988 759.688,167.934 759.688,164.424 C759.688,162.534 760.516,161.31 762.37,161.292 Z M769.23,167.232 L772.668,167.232 L772.668,167.988 L769.23,167.988 L769.23,173.244 L773.37,173.244 L773.37,174 L768.402,174 L768.402,161.4 L773.37,161.4 L773.37,162.156 L769.23,162.156 L769.23,167.232 Z" id="GRAPHIC-USER-INTERFA" fill="#273B49"></path>
                <path d="M553.091998,134.4 L557.403998,134.4 C560.427998,134.4 561.743998,136.388 561.743998,139.272 L561.743998,149.128 C561.743998,152.012 560.427998,154 557.403998,154 L553.091998,154 L553.091998,134.4 Z M554.379998,152.824 L557.375998,152.824 C559.559998,152.824 560.455998,151.34 560.455998,149.184 L560.455998,139.216 C560.455998,137.06 559.531998,135.576 557.375998,135.576 L554.379998,135.576 L554.379998,152.824 Z M566.559998,143.472 L571.907998,143.472 L571.907998,144.648 L566.559998,144.648 L566.559998,152.824 L572.999998,152.824 L572.999998,154 L565.271998,154 L565.271998,134.4 L572.999998,134.4 L572.999998,135.576 L566.559998,135.576 L566.559998,143.472 Z M580.587998,134.232 C583.555998,134.232 584.759998,136.304 584.759998,139.132 L584.759998,139.552 L583.527998,139.552 L583.527998,139.048 C583.527998,136.976 582.743998,135.408 580.615998,135.408 C578.487998,135.408 577.703998,136.948 577.703998,139.02 C577.703998,143.78 584.787998,143.864 584.787998,149.268 C584.787998,152.096 583.555998,154.168 580.559998,154.168 C577.563998,154.168 576.331998,152.096 576.331998,149.268 L576.331998,148.26 L577.563998,148.26 L577.563998,149.352 C577.563998,151.452 578.375998,152.964 580.531998,152.964 C582.687998,152.964 583.499998,151.452 583.499998,149.352 C583.499998,144.648 576.415998,144.564 576.415998,139.104 C576.415998,136.164 577.703998,134.26 580.587998,134.232 Z M588.259998,134.4 L589.547998,134.4 L589.547998,154 L588.259998,154 L588.259998,134.4 Z M597.331998,134.232 C600.327998,134.232 601.559998,136.36 601.559998,139.188 L601.559998,140.644 L600.327998,140.644 L600.327998,139.104 C600.327998,137.004 599.515998,135.408 597.359998,135.408 C595.203998,135.408 594.391998,137.004 594.391998,139.104 L594.391998,149.296 C594.391998,151.396 595.203998,152.964 597.359998,152.964 C599.515998,152.964 600.327998,151.396 600.327998,149.296 L600.327998,145.068 L597.723998,145.068 L597.723998,143.892 L601.559998,143.892 L601.559998,149.212 C601.559998,152.04 600.327998,154.168 597.331998,154.168 C594.335998,154.168 593.103998,152.04 593.103998,149.212 L593.103998,139.188 C593.103998,136.36 594.335998,134.232 597.331998,134.232 Z M606.291998,136.528 L606.291998,154 L605.115998,154 L605.115998,134.4 L606.795998,134.4 L612.675998,150.948 L612.675998,134.4 L613.851998,134.4 L613.851998,154 L612.423998,154 L606.291998,136.528 Z M618.751999,143.472 L624.099999,143.472 L624.099999,144.648 L618.751999,144.648 L618.751999,152.824 L625.191999,152.824 L625.191999,154 L617.463999,154 L617.463999,134.4 L625.191999,134.4 L625.191999,135.576 L618.751999,135.576 L618.751999,143.472 Z M628.691999,134.4 L633.003999,134.4 C636.027999,134.4 637.343999,136.388 637.343999,139.272 L637.343999,149.128 C637.343999,152.012 636.027999,154 633.003999,154 L628.691999,154 L628.691999,134.4 Z M629.979999,152.824 L632.975999,152.824 C635.159999,152.824 636.055999,151.34 636.055999,149.184 L636.055999,139.216 C636.055999,137.06 635.131999,135.576 632.975999,135.576 L629.979999,135.576 L629.979999,152.824 Z M646.611999,134.4 L647.899999,134.4 L647.899999,154 L646.611999,154 L646.611999,134.4 Z M652.715999,136.528 L652.715999,154 L651.539999,154 L651.539999,134.4 L653.219999,134.4 L659.099999,150.948 L659.099999,134.4 L660.275999,134.4 L660.275999,154 L658.847999,154 L652.715999,136.528 Z M669.627999,134.4 L673.687999,134.4 C676.711999,134.4 677.887999,136.304 677.887999,139.16 L677.887999,141.288 C677.887999,144.396 676.459999,145.936 673.351999,145.936 L670.915999,145.936 L670.915999,154 L669.627999,154 L669.627999,134.4 Z M670.915999,144.76 L673.351999,144.76 C675.619999,144.76 676.599999,143.752 676.599999,141.372 L676.599999,139.076 C676.599999,136.948 675.871999,135.576 673.687999,135.576 L670.915999,135.576 L670.915999,144.76 Z M688.667999,144.788 L682.563999,144.788 L682.563999,154 L681.275999,154 L681.275999,134.4 L682.563999,134.4 L682.563999,143.612 L688.667999,143.612 L688.667999,134.4 L689.983999,134.4 L689.983999,154 L688.667999,154 L688.667999,144.788 Z M693.539999,149.212 L693.539999,139.188 C693.539999,136.332 694.855999,134.232 697.823999,134.232 C700.847999,134.232 702.163999,136.332 702.163999,139.188 L702.163999,149.212 C702.163999,152.068 700.847999,154.168 697.823999,154.168 C694.855999,154.168 693.539999,152.068 693.539999,149.212 Z M694.827999,139.104 L694.827999,149.296 C694.827999,151.424 695.667999,152.992 697.823999,152.992 C700.007999,152.992 700.875999,151.424 700.875999,149.296 L700.875999,139.104 C700.875999,136.976 700.007999,135.408 697.823999,135.408 C695.667999,135.408 694.827999,136.976 694.827999,139.104 Z M710.283999,154 L708.995999,154 L708.995999,135.576 L705.019999,135.576 L705.019999,134.4 L714.287999,134.4 L714.287999,135.576 L710.283999,135.576 L710.283999,154 Z M717.2,149.212 L717.2,139.188 C717.2,136.332 718.516,134.232 721.484,134.232 C724.508,134.232 725.824,136.332 725.824,139.188 L725.824,149.212 C725.824,152.068 724.508,154.168 721.484,154.168 C718.516,154.168 717.2,152.068 717.2,149.212 Z M718.488,139.104 L718.488,149.296 C718.488,151.424 719.328,152.992 721.484,152.992 C723.668,152.992 724.536,151.424 724.536,149.296 L724.536,139.104 C724.536,136.976 723.668,135.408 721.484,135.408 C719.328,135.408 718.488,136.976 718.488,139.104 Z M733.44,134.232 C736.408,134.232 737.612,136.304 737.612,139.132 L737.612,139.552 L736.38,139.552 L736.38,139.048 C736.38,136.976 735.596,135.408 733.468,135.408 C731.34,135.408 730.556,136.948 730.556,139.02 C730.556,143.78 737.64,143.864 737.64,149.268 C737.64,152.096 736.408,154.168 733.412,154.168 C730.416,154.168 729.184,152.096 729.184,149.268 L729.184,148.26 L730.416,148.26 L730.416,149.352 C730.416,151.452 731.228,152.964 733.384,152.964 C735.54,152.964 736.352,151.452 736.352,149.352 C736.352,144.648 729.268,144.564 729.268,139.104 C729.268,136.164 730.556,134.26 733.44,134.232 Z M748.504,144.788 L742.4,144.788 L742.4,154 L741.112,154 L741.112,134.4 L742.4,134.4 L742.4,143.612 L748.504,143.612 L748.504,134.4 L749.82,134.4 L749.82,154 L748.504,154 L748.504,144.788 Z M753.376,149.212 L753.376,139.188 C753.376,136.332 754.692,134.232 757.66,134.232 C760.684,134.232 762,136.332 762,139.188 L762,149.212 C762,152.068 760.684,154.168 757.66,154.168 C754.692,154.168 753.376,152.068 753.376,149.212 Z M754.664,139.104 L754.664,149.296 C754.664,151.424 755.504,152.992 757.66,152.992 C759.844,152.992 760.712,151.424 760.712,149.296 L760.712,139.104 C760.712,136.976 759.844,135.408 757.66,135.408 C755.504,135.408 754.664,136.976 754.664,139.104 Z M765.528,134.4 L769.588,134.4 C772.612,134.4 773.788,136.304 773.788,139.16 L773.788,141.288 C773.788,144.396 772.36,145.936 769.252,145.936 L766.816,145.936 L766.816,154 L765.528,154 L765.528,134.4 Z M766.816,144.76 L769.252,144.76 C771.52,144.76 772.5,143.752 772.5,141.372 L772.5,139.076 C772.5,136.948 771.772,135.576 769.588,135.576 L766.816,135.576 L766.816,144.76 Z" id="Designed-in-Photosho" fill="#273B49"></path>
                <g id="Group-4" transform="translate(663.000000, 21.000000)" fill-rule="nonzero">
                    <polygon id="Shape" fill="url(#radialGradient-1)" points="3.20999987 3.19499987 71.834997 3.19499987 71.834997 69.9449971 3.20999987 69.9449971"></polygon>
                    <path d="M3.20999987,3.19499987 L71.834997,3.19499987 L71.834997,69.9449971 L3.20999987,69.9449971 L3.20999987,3.19499987 Z M0.0899999962,73.064997 L74.9399969,73.064997 L74.9399969,0.0749999969 L0.0899999962,0.0749999969 L0.0899999962,73.064997 Z M50.5649979,30.0299987 C48.104998,30.0299987 47.264998,31.2749987 47.264998,32.3099987 C47.264998,33.4349986 47.819998,34.2149986 51.1349979,35.9249985 C56.0249977,38.2949984 57.5549976,40.5749983 57.5549976,43.9049982 C57.5549976,48.899998 53.7449978,51.5849978 48.599998,51.5849978 C45.8849981,51.5849978 43.5449982,51.0299979 42.2099982,50.2499979 C41.9849982,50.1599979 41.9549983,49.9949979 41.9549983,49.7549979 L41.9549983,45.1499981 C41.9549983,44.8349981 42.1049982,44.7449981 42.3299982,44.8949981 C44.2949982,46.1699981 46.5449981,46.7399981 48.599998,46.7399981 C51.0599979,46.7399981 52.0949978,45.7049981 52.0949978,44.3099982 C52.0949978,43.1849982 51.3749979,42.1949982 48.224998,40.5599983 C43.7999982,38.4449984 41.9549983,36.2999985 41.9549983,32.6999986 C41.9549983,28.6799988 45.1049981,25.3349989 50.5649979,25.3349989 C53.2499978,25.3349989 55.1249977,25.7399989 56.1449977,26.2049989 C56.3999976,26.3549989 56.4599976,26.6099989 56.4599976,26.8349989 L56.4599976,31.1099987 C56.4599976,31.3649987 56.3099977,31.5149987 55.9949977,31.4249987 C54.6149977,30.5549987 52.5899978,30.0299987 50.5649979,30.0299987 Z M23.744999,33.7349986 C24.464999,33.7949986 25.019999,33.7949986 26.2649989,33.7949986 C29.9099988,33.7949986 33.3449986,32.5199986 33.3449986,27.5549989 C33.3449986,23.594999 30.8849987,21.5999991 26.7299989,21.5999991 C25.4849989,21.5999991 24.299999,21.6599991 23.729999,21.6899991 L23.744999,33.7349986 Z M18.1799992,17.1749993 C18.1799992,16.9499993 18.6149992,16.7999993 18.8699992,16.7999993 C20.8649991,16.7099993 23.834999,16.6499993 26.9099989,16.6499993 C35.5499985,16.6499993 38.9249984,21.3899991 38.9249984,27.4349989 C38.9249984,35.3549985 33.1799986,38.7599984 26.1299989,38.7599984 C24.944999,38.7599984 24.539999,38.6999984 23.699999,38.6999984 L23.699999,50.6699979 C23.699999,50.9249979 23.609999,51.0449979 23.324999,51.0449979 L18.5549992,51.0449979 C18.2999992,51.0449979 18.1799992,50.9549979 18.1799992,50.6699979 L18.1799992,17.1749993 Z" id="Shape" fill="#31C5F0"></path>
                </g>
            </g>
        </g>
    </g>
</svg>